<?xml version="1.0" encoding="UTF-8"?><svg xmlns="http://www.w3.org/2000/svg" viewBox="0 0 692.85 148.92"><defs><style>.c{fill:#005eb8;}.d{fill:#2cb59c;}.e{fill:#7eadd7;}</style></defs><g id="a"/><g id="b"><circle class="c" cx="55" cy="55.16" r="50"/><g><path class="c" d="M16.95,133.62l-.96,4.6h2.4v1.78h-2.77l-.78,3.76h-1.97l.78-3.76h-2.9l-.78,3.76h-1.99l.78-3.76h-1.6v-1.78h1.97l.96-4.6h-2.45v-1.78h2.81l.73-3.59h1.97l-.73,3.59h2.9l.73-3.59h1.99l-.73,3.59h1.55v1.78h-1.92Zm-1.99,0h-2.9l-.94,4.6h2.9l.94-4.6Z"/><path class="c" d="M22.37,141.92c-1.01-1.36-1.51-3.33-1.51-5.93s.5-4.52,1.51-5.87,2.46-2.02,4.37-2.02,3.36,.67,4.37,2.02c1.01,1.35,1.51,3.31,1.51,5.87s-.5,4.55-1.51,5.92c-1.01,1.36-2.46,2.05-4.37,2.05s-3.36-.68-4.37-2.04Zm6.63-1.56c.47-.92,.71-2.37,.71-4.37s-.24-3.42-.71-4.32c-.47-.9-1.23-1.35-2.26-1.35s-1.79,.45-2.26,1.35c-.47,.9-.71,2.34-.71,4.32s.24,3.45,.71,4.37c.47,.92,1.23,1.38,2.26,1.38s1.79-.46,2.26-1.38Z"/><path class="c" d="M36.09,141.92c-1.01-1.36-1.51-3.33-1.51-5.93s.5-4.52,1.51-5.87,2.46-2.02,4.37-2.02,3.36,.67,4.37,2.02c1.01,1.35,1.51,3.31,1.51,5.87s-.5,4.55-1.51,5.92c-1.01,1.36-2.46,2.05-4.37,2.05s-3.36-.68-4.37-2.04Zm6.63-1.56c.47-.92,.71-2.37,.71-4.37s-.24-3.42-.71-4.32c-.47-.9-1.23-1.35-2.26-1.35s-1.79,.45-2.26,1.35c-.47,.9-.71,2.34-.71,4.32s.24,3.45,.71,4.37c.47,.92,1.23,1.38,2.26,1.38s1.79-.46,2.26-1.38Z"/><path class="c" d="M57.71,134.47c.77,.42,1.36,1,1.78,1.75,.42,.75,.63,1.61,.63,2.57,0,1.03-.24,1.93-.73,2.71-.49,.78-1.18,1.38-2.07,1.8-.89,.43-1.94,.64-3.14,.64-1.01,0-2-.17-2.98-.5s-1.79-.77-2.44-1.31l.98-2.07c1.46,1.07,2.96,1.61,4.48,1.61,1.01,0,1.78-.24,2.31-.73,.53-.48,.8-1.17,.8-2.07s-.27-1.55-.81-2.06c-.54-.51-1.28-.76-2.21-.76-.63,0-1.22,.11-1.77,.34-.56,.23-1.06,.55-1.5,.98h-1.76v-9.13h10.11v2.2h-7.23v4.18c.78-.53,1.74-.79,2.88-.79,1.01,0,1.89,.21,2.66,.63Z"/><path class="c" d="M62.77,128.25h10.79v2.24h-7.91v4.27h7.46v2.22h-7.46v4.53h7.91v2.24h-10.79v-15.51Z"/><path class="c" d="M88.33,137.12c.51,.66,.77,1.47,.77,2.42,0,1.32-.49,2.35-1.48,3.1s-2.34,1.12-4.06,1.12h-7.32v-15.51h7.09c1.68,0,2.99,.36,3.94,1.07,.95,.71,1.43,1.71,1.43,2.98,0,.82-.23,1.53-.67,2.13s-1.07,1.04-1.86,1.32c.93,.25,1.65,.7,2.16,1.36Zm-9.2-2.33h3.73c2.03,0,3.04-.73,3.04-2.18,0-.73-.25-1.28-.75-1.63-.5-.35-1.27-.53-2.29-.53h-3.73v4.33Zm6.45,6.23c.49-.37,.73-.94,.73-1.72s-.25-1.36-.74-1.74c-.5-.38-1.27-.57-2.32-.57h-4.12v4.58h4.12c1.07,0,1.84-.18,2.33-.55Z"/><path class="c" d="M102.26,137.16c.51,.66,.77,1.47,.77,2.42,0,1.36-.53,2.43-1.6,3.2-1.07,.77-2.55,1.15-4.44,1.15s-3.37-.38-4.44-1.15c-1.07-.77-1.6-1.84-1.6-3.2,0-.95,.26-1.76,.78-2.43,.52-.67,1.25-1.12,2.2-1.35-.81-.29-1.44-.75-1.9-1.38-.46-.62-.69-1.35-.69-2.19,0-1.29,.5-2.31,1.51-3.06,1.01-.75,2.39-1.12,4.14-1.12s3.13,.37,4.14,1.12,1.51,1.77,1.51,3.06c0,.85-.23,1.59-.69,2.22s-1.08,1.08-1.88,1.34c.94,.25,1.67,.7,2.18,1.36Zm-2,2.2c0-1.57-1.09-2.35-3.27-2.35s-3.27,.79-3.27,2.35,1.09,2.35,3.27,2.35,3.27-.78,3.27-2.35Zm-6.13-6.84c0,.75,.24,1.32,.72,1.71,.48,.39,1.19,.58,2.14,.58s1.66-.19,2.14-.58c.48-.39,.72-.96,.72-1.71,0-1.5-.95-2.24-2.86-2.24s-2.86,.75-2.86,2.24Z"/></g><circle class="e" cx="200" cy="55.16" r="50"/><g><path class="e" d="M157.89,133.62l-.96,4.6h2.4v1.78h-2.77l-.78,3.76h-1.97l.78-3.76h-2.9l-.78,3.76h-1.99l.78-3.76h-1.6v-1.78h1.97l.96-4.6h-2.45v-1.78h2.81l.73-3.59h1.97l-.73,3.59h2.9l.73-3.59h1.99l-.73,3.59h1.55v1.78h-1.92Zm-1.99,0h-2.9l-.94,4.6h2.9l.94-4.6Z"/><path class="e" d="M173.3,128.25v2.11l-7.32,13.4h-3.13l7.29-13.22h-8.07v-2.29h11.23Z"/><path class="e" d="M176.27,128.25h10.79v2.24h-7.91v4.27h7.46v2.22h-7.46v4.53h7.91v2.24h-10.79v-15.51Z"/><path class="e" d="M200.17,140.13h-7.84l-1.62,3.63h-2.97l7.29-15.51h2.4l7.29,15.51h-2.93l-1.62-3.63Zm-.98-2.2l-2.95-6.6-2.95,6.6h5.9Z"/><path class="e" d="M206.44,128.25h5.95c2.64,0,4.68,.68,6.14,2.04,1.46,1.36,2.18,3.26,2.18,5.71s-.73,4.36-2.18,5.72c-1.46,1.36-3.5,2.05-6.14,2.05h-5.95v-15.51Zm5.76,13.2c3.7,0,5.56-1.82,5.56-5.46s-1.85-5.43-5.56-5.43h-2.81v10.89h2.81Z"/><path class="e" d="M223.68,128.25h5.95c2.64,0,4.68,.68,6.14,2.04,1.46,1.36,2.18,3.26,2.18,5.71s-.73,4.36-2.18,5.72c-1.46,1.36-3.5,2.05-6.14,2.05h-5.95v-15.51Zm5.76,13.2c3.7,0,5.56-1.82,5.56-5.46s-1.85-5.43-5.56-5.43h-2.81v10.89h2.81Z"/><path class="e" d="M251.67,128.25v2.11l-7.32,13.4h-3.13l7.29-13.22h-8.07v-2.29h11.23Z"/></g><circle class="d" cx="345" cy="55.16" r="50"/><g><path class="d" d="M305.03,133.62l-.96,4.6h2.4v1.78h-2.77l-.78,3.76h-1.97l.78-3.76h-2.9l-.78,3.76h-1.99l.78-3.76h-1.6v-1.78h1.97l.96-4.6h-2.45v-1.78h2.81l.73-3.59h1.97l-.73,3.59h2.9l.73-3.59h1.99l-.73,3.59h1.55v1.78h-1.92Zm-1.99,0h-2.9l-.94,4.6h2.9l.94-4.6Z"/><path class="d" d="M320.46,141.47v2.29h-10.84v-2.09l5.49-5.68c.64-.67,1.11-1.29,1.41-1.86s.45-1.12,.45-1.68c0-.7-.21-1.24-.63-1.6-.42-.36-1.03-.54-1.84-.54-1.45,0-2.9,.54-4.37,1.61l-.98-2.07c.64-.54,1.46-.98,2.46-1.31s2-.5,3.01-.5c1.62,0,2.9,.38,3.84,1.14,.94,.76,1.42,1.79,1.42,3.08,0,.9-.2,1.74-.59,2.52-.4,.78-1.07,1.66-2.01,2.63l-3.96,4.05h7.16Z"/><path class="d" d="M326.6,142.98c-1.18-.65-2.09-1.58-2.72-2.78-.63-1.2-.95-2.6-.95-4.2s.32-3,.95-4.19c.63-1.2,1.54-2.12,2.72-2.77,1.18-.65,2.56-.98,4.15-.98,1.08,0,2.1,.16,3.06,.48,.96,.32,1.77,.78,2.42,1.36l-.98,2.07c-.73-.56-1.46-.96-2.17-1.22-.72-.26-1.48-.39-2.29-.39-1.56,0-2.76,.48-3.6,1.45-.85,.97-1.27,2.36-1.27,4.18s.42,3.23,1.27,4.2c.85,.97,2.05,1.45,3.6,1.45,.81,0,1.57-.13,2.29-.38,.72-.26,1.44-.66,2.17-1.22l.98,2.07c-.66,.59-1.46,1.04-2.42,1.36s-1.98,.48-3.06,.48c-1.59,0-2.97-.33-4.15-.98Z"/><path class="d" d="M351.03,137.12c.51,.66,.77,1.47,.77,2.42,0,1.32-.49,2.35-1.48,3.1s-2.34,1.12-4.06,1.12h-7.32v-15.51h7.09c1.68,0,2.99,.36,3.94,1.07,.95,.71,1.43,1.71,1.43,2.98,0,.82-.23,1.53-.67,2.13s-1.07,1.04-1.86,1.32c.93,.25,1.65,.7,2.16,1.36Zm-9.2-2.33h3.73c2.03,0,3.04-.73,3.04-2.18,0-.73-.25-1.28-.75-1.63-.5-.35-1.27-.53-2.29-.53h-3.73v4.33Zm6.45,6.23c.49-.37,.73-.94,.73-1.72s-.25-1.36-.74-1.74c-.5-.38-1.27-.57-2.32-.57h-4.12v4.58h4.12c1.07,0,1.84-.18,2.33-.55Z"/><path class="d" d="M363.21,134.47c.77,.42,1.36,1,1.78,1.75,.42,.75,.63,1.61,.63,2.57,0,1.03-.24,1.93-.73,2.71-.49,.78-1.18,1.38-2.07,1.8-.89,.43-1.94,.64-3.14,.64-1.01,0-2-.17-2.98-.5s-1.79-.77-2.44-1.31l.98-2.07c1.46,1.07,2.96,1.61,4.48,1.61,1.01,0,1.78-.24,2.31-.73,.53-.48,.8-1.17,.8-2.07s-.27-1.55-.81-2.06c-.54-.51-1.28-.76-2.21-.76-.63,0-1.22,.11-1.77,.34-.56,.23-1.06,.55-1.5,.98h-1.76v-9.13h10.11v2.2h-7.23v4.18c.78-.53,1.74-.79,2.88-.79,1.01,0,1.89,.21,2.66,.63Z"/><path class="d" d="M377.6,130.04c1.1,1.33,1.66,3.22,1.66,5.69,0,1.7-.26,3.17-.79,4.41-.53,1.24-1.28,2.19-2.28,2.84-.99,.65-2.17,.98-3.52,.98-.96,0-1.9-.16-2.81-.47-.91-.31-1.71-.76-2.38-1.33l.98-2.07c1.42,1.07,2.78,1.61,4.09,1.61,1.2,0,2.13-.48,2.78-1.45,.65-.97,.99-2.37,1.02-4.2-.35,.66-.88,1.18-1.58,1.57-.7,.39-1.49,.58-2.36,.58-.96,0-1.81-.21-2.56-.63-.75-.42-1.33-1-1.75-1.76-.42-.75-.63-1.62-.63-2.58s.23-1.89,.7-2.67c.46-.78,1.1-1.4,1.92-1.84,.82-.44,1.74-.66,2.78-.66,2.04,0,3.62,.66,4.72,1.99Zm-2.49,5.13c.53-.52,.79-1.2,.79-2.04s-.26-1.54-.79-2.06-1.22-.78-2.07-.78-1.51,.26-2.01,.78c-.5,.52-.75,1.21-.75,2.06s.25,1.53,.75,2.05c.5,.51,1.17,.77,2.01,.77s1.54-.26,2.07-.78Z"/><path class="d" d="M385.17,142.98c-1.18-.65-2.09-1.58-2.72-2.78-.63-1.2-.95-2.6-.95-4.2s.32-3,.95-4.19c.63-1.2,1.54-2.12,2.72-2.77,1.18-.65,2.56-.98,4.15-.98,1.08,0,2.1,.16,3.06,.48,.96,.32,1.77,.78,2.42,1.36l-.98,2.07c-.73-.56-1.46-.96-2.17-1.22-.72-.26-1.48-.39-2.29-.39-1.56,0-2.76,.48-3.6,1.45-.85,.97-1.27,2.36-1.27,4.18s.42,3.23,1.27,4.2c.85,.97,2.05,1.45,3.6,1.45,.81,0,1.57-.13,2.29-.38,.72-.26,1.44-.66,2.17-1.22l.98,2.07c-.66,.59-1.46,1.04-2.42,1.36s-1.98,.48-3.06,.48c-1.59,0-2.97-.33-4.15-.98Z"/></g></g></svg>