<?xml version="1.0" encoding="UTF-8"?><svg xmlns="http://www.w3.org/2000/svg" viewBox="0 0 1124.21 148.92"><defs><style>.e{fill:#70b1c2;}.f{fill:#2f739d;}.g{fill:#003f7a;}.h{fill:#febe5d;}.i{fill:#93f;}.j{fill:#a1c299;}.k{fill:#bb5cff;}.l{fill:#ff615c;}</style></defs><g id="a"/><g id="b"/><g id="c"/><g id="d"><circle class="l" cx="55" cy="55.16" r="50"/><g><path class="l" d="M17.66,133.62l-.96,4.6h2.4v1.78h-2.77l-.78,3.76h-1.97l.78-3.76h-2.9l-.78,3.76h-1.99l.78-3.76h-1.6v-1.78h1.97l.96-4.6h-2.45v-1.78h2.81l.73-3.59h1.97l-.73,3.59h2.9l.73-3.59h1.99l-.73,3.59h1.55v1.78h-1.92Zm-1.99,0h-2.9l-.94,4.6h2.9l.94-4.6Z"/><path class="l" d="M22.32,128.25h10.56v2.27h-7.66v4.22h7.2v2.27h-7.2v6.75h-2.9v-15.51Z"/><path class="l" d="M35.27,128.25h10.56v2.27h-7.66v4.22h7.2v2.27h-7.2v6.75h-2.9v-15.51Z"/><path class="l" d="M56.88,134.44c.75,.42,1.33,1,1.75,1.76,.42,.75,.63,1.62,.63,2.58s-.23,1.89-.69,2.67-1.1,1.4-1.92,1.84c-.82,.44-1.75,.66-2.79,.66-2.04,0-3.62-.66-4.72-1.99-1.11-1.33-1.66-3.22-1.66-5.69,0-1.7,.26-3.17,.79-4.41,.53-1.24,1.28-2.19,2.28-2.84,.99-.65,2.16-.98,3.52-.98,.96,0,1.9,.16,2.81,.47,.92,.32,1.71,.76,2.38,1.33l-.98,2.07c-1.42-1.07-2.78-1.61-4.09-1.61-1.17,0-2.09,.48-2.74,1.44-.66,.96-1,2.35-1.03,4.17,.35-.66,.88-1.18,1.58-1.55,.7-.37,1.49-.56,2.36-.56,.94,0,1.79,.21,2.54,.63Zm-1.15,6.5c.5-.51,.74-1.2,.74-2.07s-.25-1.53-.75-2.05c-.5-.51-1.17-.77-2.01-.77s-1.52,.26-2.05,.78-.79,1.2-.79,2.04,.26,1.54,.79,2.06,1.22,.78,2.07,.78,1.51-.26,2-.77Z"/><path class="l" d="M72.75,141.47v2.29h-9.95v-2.29h3.5v-9.99l-2.77,1.61-1.17-2.07,4.78-2.77h2.1v13.22h3.5Z"/><path class="l" d="M84.31,134.47c.77,.42,1.36,1,1.78,1.75,.42,.75,.63,1.61,.63,2.57,0,1.03-.24,1.93-.73,2.71-.49,.78-1.18,1.38-2.07,1.8-.89,.43-1.94,.64-3.14,.64-1.01,0-2-.17-2.98-.5s-1.79-.77-2.44-1.31l.98-2.07c1.46,1.07,2.96,1.61,4.48,1.61,1.01,0,1.78-.24,2.31-.73,.53-.48,.8-1.17,.8-2.07s-.27-1.55-.81-2.06c-.54-.51-1.28-.76-2.21-.76-.63,0-1.22,.11-1.77,.34-.56,.23-1.06,.55-1.5,.98h-1.76v-9.13h10.11v2.2h-7.23v4.18c.78-.53,1.74-.79,2.88-.79,1.01,0,1.89,.21,2.66,.63Z"/><path class="l" d="M92.54,142.98c-1.18-.65-2.09-1.58-2.72-2.78-.63-1.2-.95-2.6-.95-4.2s.32-3,.95-4.19c.63-1.2,1.54-2.12,2.72-2.77,1.18-.65,2.56-.98,4.15-.98,1.08,0,2.1,.16,3.06,.48,.96,.32,1.77,.78,2.42,1.36l-.98,2.07c-.73-.56-1.46-.96-2.17-1.22-.72-.26-1.48-.39-2.29-.39-1.56,0-2.76,.48-3.6,1.45-.85,.97-1.27,2.36-1.27,4.18s.42,3.23,1.27,4.2c.85,.97,2.05,1.45,3.6,1.45,.81,0,1.57-.13,2.29-.38,.72-.26,1.44-.66,2.17-1.22l.98,2.07c-.66,.59-1.46,1.04-2.42,1.36s-1.98,.48-3.06,.48c-1.59,0-2.97-.33-4.15-.98Z"/></g><circle class="h" cx="200" cy="55.16" r="50"/><g><path class="h" d="M160.7,133.62l-.96,4.6h2.4v1.78h-2.77l-.78,3.76h-1.97l.78-3.76h-2.9l-.78,3.76h-1.99l.78-3.76h-1.6v-1.78h1.97l.96-4.6h-2.45v-1.78h2.81l.73-3.59h1.97l-.73,3.59h2.9l.73-3.59h1.99l-.73,3.59h1.55v1.78h-1.92Zm-1.99,0h-2.9l-.94,4.6h2.9l.94-4.6Z"/><path class="h" d="M165.37,128.25h10.56v2.27h-7.66v4.22h7.2v2.27h-7.2v6.75h-2.9v-15.51Z"/><path class="h" d="M178.31,128.25h10.79v2.24h-7.91v4.27h7.46v2.22h-7.46v4.53h7.91v2.24h-10.79v-15.51Z"/><path class="h" d="M203.86,137.12c.51,.66,.77,1.47,.77,2.42,0,1.32-.49,2.35-1.48,3.1s-2.34,1.12-4.06,1.12h-7.32v-15.51h7.09c1.68,0,2.99,.36,3.94,1.07,.95,.71,1.43,1.71,1.43,2.98,0,.82-.23,1.53-.67,2.13s-1.07,1.04-1.86,1.32c.93,.25,1.65,.7,2.16,1.36Zm-9.2-2.33h3.73c2.03,0,3.04-.73,3.04-2.18,0-.73-.25-1.28-.75-1.63-.5-.35-1.27-.53-2.29-.53h-3.73v4.33Zm6.45,6.23c.49-.37,.73-.94,.73-1.72s-.25-1.36-.74-1.74c-.5-.38-1.27-.57-2.32-.57h-4.12v4.58h4.12c1.07,0,1.84-.18,2.33-.55Z"/><path class="h" d="M207.4,128.25h10.79v2.24h-7.91v4.27h7.46v2.22h-7.46v4.53h7.91v2.24h-10.79v-15.51Z"/><path class="h" d="M229.52,134.47c.77,.42,1.36,1,1.78,1.75,.42,.75,.63,1.61,.63,2.57,0,1.03-.24,1.93-.73,2.71-.49,.78-1.18,1.38-2.07,1.8-.89,.43-1.94,.64-3.14,.64-1.01,0-2-.17-2.98-.5s-1.79-.77-2.44-1.31l.98-2.07c1.46,1.07,2.96,1.61,4.48,1.61,1.01,0,1.78-.24,2.31-.73,.53-.48,.8-1.17,.8-2.07s-.27-1.55-.81-2.06c-.54-.51-1.28-.76-2.21-.76-.63,0-1.22,.11-1.77,.34-.56,.23-1.06,.55-1.5,.98h-1.76v-9.13h10.11v2.2h-7.23v4.18c.78-.53,1.74-.79,2.88-.79,1.01,0,1.89,.21,2.66,.63Z"/><path class="h" d="M234.59,128.25h5.95c2.64,0,4.68,.68,6.14,2.04,1.46,1.36,2.18,3.26,2.18,5.71s-.73,4.36-2.18,5.72c-1.46,1.36-3.5,2.05-6.14,2.05h-5.95v-15.51Zm5.76,13.2c3.7,0,5.56-1.82,5.56-5.46s-1.85-5.43-5.56-5.43h-2.81v10.89h2.81Z"/></g><circle class="j" cx="345" cy="55.16" r="50"/><g><path class="j" d="M305.24,133.62l-.96,4.6h2.4v1.78h-2.77l-.78,3.76h-1.97l.78-3.76h-2.9l-.78,3.76h-1.99l.78-3.76h-1.6v-1.78h1.97l.96-4.6h-2.45v-1.78h2.81l.73-3.59h1.97l-.73,3.59h2.9l.73-3.59h1.99l-.73,3.59h1.55v1.78h-1.92Zm-1.99,0h-2.9l-.94,4.6h2.9l.94-4.6Z"/><path class="j" d="M320.61,140.13h-7.84l-1.62,3.63h-2.97l7.29-15.51h2.4l7.29,15.51h-2.93l-1.62-3.63Zm-.98-2.2l-2.95-6.6-2.95,6.6h5.9Z"/><path class="j" d="M337.69,141.47v2.29h-9.95v-2.29h3.5v-9.99l-2.77,1.61-1.17-2.07,4.78-2.77h2.1v13.22h3.5Z"/><path class="j" d="M343.77,142.98c-1.18-.65-2.09-1.58-2.72-2.78-.63-1.2-.95-2.6-.95-4.2s.32-3,.95-4.19c.63-1.2,1.54-2.12,2.72-2.77,1.18-.65,2.56-.98,4.15-.98,1.08,0,2.1,.16,3.06,.48,.96,.32,1.77,.78,2.42,1.36l-.98,2.07c-.73-.56-1.46-.96-2.17-1.22-.72-.26-1.48-.39-2.29-.39-1.56,0-2.76,.48-3.6,1.45-.85,.97-1.27,2.36-1.27,4.18s.42,3.23,1.27,4.2c.85,.97,2.05,1.45,3.6,1.45,.81,0,1.57-.13,2.29-.38,.72-.26,1.44-.66,2.17-1.22l.98,2.07c-.66,.59-1.46,1.04-2.42,1.36s-1.98,.48-3.06,.48c-1.59,0-2.97-.33-4.15-.98Z"/><path class="j" d="M366.87,141.47v2.29h-10.84v-2.09l5.49-5.68c.64-.67,1.11-1.29,1.41-1.86s.45-1.12,.45-1.68c0-.7-.21-1.24-.63-1.6-.42-.36-1.03-.54-1.84-.54-1.45,0-2.9,.54-4.37,1.61l-.98-2.07c.64-.54,1.46-.98,2.46-1.31s2-.5,3.01-.5c1.62,0,2.9,.38,3.84,1.14,.94,.76,1.42,1.79,1.42,3.08,0,.9-.2,1.74-.59,2.52-.4,.78-1.07,1.66-2.01,2.63l-3.96,4.05h7.16Z"/><path class="j" d="M379.16,130.04c1.1,1.33,1.66,3.22,1.66,5.69,0,1.7-.26,3.17-.79,4.41-.53,1.24-1.28,2.19-2.28,2.84-.99,.65-2.17,.98-3.52,.98-.96,0-1.9-.16-2.81-.47-.91-.31-1.71-.76-2.38-1.33l.98-2.07c1.42,1.07,2.78,1.61,4.09,1.61,1.2,0,2.13-.48,2.78-1.45,.65-.97,.99-2.37,1.02-4.2-.35,.66-.88,1.18-1.58,1.57-.7,.39-1.49,.58-2.36,.58-.96,0-1.81-.21-2.56-.63-.75-.42-1.33-1-1.75-1.76-.42-.75-.63-1.62-.63-2.58s.23-1.89,.7-2.67c.46-.78,1.1-1.4,1.92-1.84,.82-.44,1.74-.66,2.78-.66,2.04,0,3.62,.66,4.72,1.99Zm-2.49,5.13c.53-.52,.79-1.2,.79-2.04s-.26-1.54-.79-2.06-1.22-.78-2.07-.78-1.51,.26-2.01,.78c-.5,.52-.75,1.21-.75,2.06s.25,1.53,.75,2.05c.5,.51,1.17,.77,2.01,.77s1.54-.26,2.07-.78Z"/><path class="j" d="M392.88,130.04c1.1,1.33,1.66,3.22,1.66,5.69,0,1.7-.26,3.17-.79,4.41-.53,1.24-1.28,2.19-2.28,2.84-.99,.65-2.17,.98-3.52,.98-.96,0-1.9-.16-2.81-.47-.91-.31-1.71-.76-2.38-1.33l.98-2.07c1.42,1.07,2.78,1.61,4.09,1.61,1.2,0,2.13-.48,2.78-1.45,.65-.97,.99-2.37,1.02-4.2-.35,.66-.88,1.18-1.58,1.57-.7,.39-1.49,.58-2.36,.58-.96,0-1.81-.21-2.56-.63-.75-.42-1.33-1-1.75-1.76-.42-.75-.63-1.62-.63-2.58s.23-1.89,.7-2.67c.46-.78,1.1-1.4,1.92-1.84,.82-.44,1.74-.66,2.78-.66,2.04,0,3.62,.66,4.72,1.99Zm-2.49,5.13c.53-.52,.79-1.2,.79-2.04s-.26-1.54-.79-2.06-1.22-.78-2.07-.78-1.51,.26-2.01,.78c-.5,.52-.75,1.21-.75,2.06s.25,1.53,.75,2.05c.5,.51,1.17,.77,2.01,.77s1.54-.26,2.07-.78Z"/></g><circle class="e" cx="490" cy="55.16" r="50"/><g><path class="e" d="M450.92,133.62l-.96,4.6h2.4v1.78h-2.77l-.78,3.76h-1.97l.78-3.76h-2.9l-.78,3.76h-1.99l.78-3.76h-1.6v-1.78h1.97l.96-4.6h-2.45v-1.78h2.81l.73-3.59h1.97l-.73,3.59h2.9l.73-3.59h1.99l-.73,3.59h1.55v1.78h-1.92Zm-1.99,0h-2.9l-.94,4.6h2.9l.94-4.6Z"/><path class="e" d="M466.33,128.25v2.11l-7.32,13.4h-3.13l7.29-13.22h-8.07v-2.29h11.23Z"/><path class="e" d="M470.06,141.92c-1.01-1.36-1.51-3.33-1.51-5.93s.5-4.52,1.51-5.87,2.46-2.02,4.37-2.02,3.36,.67,4.37,2.02c1.01,1.35,1.51,3.31,1.51,5.87s-.5,4.55-1.51,5.92c-1.01,1.36-2.46,2.05-4.37,2.05s-3.36-.68-4.37-2.04Zm6.63-1.56c.47-.92,.71-2.37,.71-4.37s-.24-3.42-.71-4.32-1.23-1.35-2.26-1.35-1.79,.45-2.26,1.35c-.47,.9-.71,2.34-.71,4.32s.24,3.45,.71,4.37c.47,.92,1.23,1.38,2.26,1.38s1.79-.46,2.26-1.38Z"/><path class="e" d="M495.11,137.12c.51,.66,.77,1.47,.77,2.42,0,1.32-.49,2.35-1.48,3.1s-2.34,1.12-4.06,1.12h-7.32v-15.51h7.09c1.68,0,2.99,.36,3.94,1.07,.95,.71,1.43,1.71,1.43,2.98,0,.82-.23,1.53-.67,2.13-.45,.6-1.07,1.04-1.86,1.32,.93,.25,1.65,.7,2.16,1.36Zm-9.2-2.33h3.73c2.03,0,3.04-.73,3.04-2.18,0-.73-.25-1.28-.75-1.63-.5-.35-1.27-.53-2.29-.53h-3.73v4.33Zm6.45,6.23c.49-.37,.73-.94,.73-1.72s-.25-1.36-.74-1.74c-.5-.38-1.27-.57-2.32-.57h-4.12v4.58h4.12c1.07,0,1.84-.18,2.33-.55Z"/><path class="e" d="M509.46,141.47v2.29h-9.95v-2.29h3.5v-9.99l-2.77,1.61-1.17-2.07,4.78-2.77h2.1v13.22h3.5Z"/><path class="e" d="M515.53,142.98c-1.18-.65-2.09-1.58-2.72-2.78-.63-1.2-.95-2.6-.95-4.2s.32-3,.95-4.19c.63-1.2,1.54-2.12,2.72-2.77,1.18-.65,2.56-.98,4.15-.98,1.08,0,2.1,.16,3.06,.48,.96,.32,1.77,.78,2.42,1.36l-.98,2.07c-.73-.56-1.46-.96-2.17-1.22-.72-.26-1.48-.39-2.29-.39-1.55,0-2.76,.48-3.6,1.45-.85,.97-1.27,2.36-1.27,4.18s.42,3.23,1.27,4.2c.85,.97,2.05,1.45,3.6,1.45,.81,0,1.57-.13,2.29-.38,.72-.26,1.44-.66,2.17-1.22l.98,2.07c-.66,.59-1.46,1.04-2.42,1.36-.96,.32-1.98,.48-3.06,.48-1.59,0-2.97-.33-4.15-.98Z"/><path class="e" d="M538.64,141.47v2.29h-10.84v-2.09l5.49-5.68c.64-.67,1.11-1.29,1.41-1.86,.3-.56,.45-1.12,.45-1.68,0-.7-.21-1.24-.63-1.6-.42-.36-1.03-.54-1.84-.54-1.45,0-2.9,.54-4.37,1.61l-.98-2.07c.64-.54,1.46-.98,2.46-1.31,1-.33,2-.5,3.01-.5,1.62,0,2.9,.38,3.84,1.14,.94,.76,1.42,1.79,1.42,3.08,0,.9-.2,1.74-.59,2.52-.4,.78-1.07,1.66-2.01,2.63l-3.96,4.05h7.16Z"/></g><circle class="f" cx="635" cy="55.16" r="50"/><g><path class="f" d="M600.18,134.1l-.69,3.83h1.08c.35,0,.64,.11,.88,.34,.24,.23,.35,.51,.35,.85s-.12,.59-.35,.79c-.24,.21-.53,.31-.88,.31h-1.49l-.46,2.6c-.05,.28-.17,.51-.38,.68-.21,.18-.46,.26-.77,.26-.37,0-.66-.11-.88-.33-.22-.22-.33-.51-.33-.86,0-.13,0-.23,.02-.29l.37-2.07h-3.75l-.46,2.6c-.05,.29-.18,.52-.39,.69-.21,.17-.47,.25-.78,.25-.35,0-.64-.11-.86-.34s-.33-.52-.33-.87c0-.12,0-.21,.02-.26l.37-2.07h-.82c-.35,0-.64-.11-.88-.34s-.35-.51-.35-.85,.12-.59,.35-.79c.24-.21,.53-.31,.88-.31h1.23l.69-3.83h-1.08c-.35,0-.64-.11-.88-.34-.24-.23-.35-.51-.35-.85s.12-.59,.35-.79c.24-.21,.53-.31,.88-.31h1.46l.46-2.51c.05-.28,.17-.51,.38-.68,.21-.18,.46-.26,.77-.26,.37,0,.66,.11,.88,.33,.22,.22,.33,.51,.33,.86,0,.13,0,.23-.02,.29l-.34,1.98h3.73l.46-2.51c.05-.29,.17-.52,.39-.69,.21-.17,.47-.25,.78-.25,.35,0,.64,.11,.86,.34s.33,.52,.33,.87c0,.12,0,.21-.02,.26l-.34,1.98h.8c.35,0,.64,.11,.88,.34,.24,.23,.35,.51,.35,.85s-.12,.59-.35,.79-.53,.31-.88,.31h-1.21Zm-3.11,3.83l.69-3.83h-3.75l-.69,3.83h3.75Z"/><path class="f" d="M614.66,141.69c.24,.24,.37,.53,.37,.88s-.12,.62-.37,.85c-.24,.23-.55,.34-.92,.34h-7.77c-.4,0-.71-.12-.94-.35-.23-.24-.34-.54-.34-.9s.14-.69,.41-.97l4.99-5.13c.56-.59,1.01-1.18,1.34-1.77,.33-.59,.49-1.14,.49-1.64,0-.66-.24-1.23-.73-1.72-.49-.48-1.05-.73-1.69-.73-.44,0-.89,.14-1.34,.43-.45,.29-.86,.66-1.22,1.13-.27,.35-.62,.53-1.05,.53-.34,0-.64-.12-.93-.37-.28-.25-.42-.53-.42-.84,0-.22,.08-.44,.23-.67,.15-.23,.38-.49,.69-.78,.58-.56,1.25-1,2.01-1.34,.76-.34,1.49-.51,2.2-.51,1.01,0,1.89,.21,2.65,.62,.76,.41,1.35,.98,1.76,1.69,.41,.72,.62,1.53,.62,2.44s-.25,1.82-.74,2.76c-.5,.95-1.16,1.85-2,2.72l-2.9,2.97h4.71c.37,0,.67,.12,.92,.35Z"/><path class="f" d="M620.29,130.89v3.87h4.94c.4,0,.73,.12,.99,.36s.4,.55,.4,.93c0,.32-.13,.61-.4,.86s-.6,.37-.99,.37h-4.94v5.13c0,.38-.14,.7-.42,.96s-.61,.38-.99,.38c-.43,0-.77-.12-1.04-.37-.27-.25-.4-.57-.4-.97v-12.72c0-.38,.13-.7,.4-.96s.6-.39,1-.39h7.43c.4,0,.73,.12,1,.36s.4,.55,.4,.94c0,.32-.13,.61-.4,.86-.27,.25-.6,.37-1,.37h-5.97Z"/><path class="f" d="M640.21,128.72c.3,.24,.45,.55,.45,.94,0,.19-.05,.39-.14,.59l-6.01,12.78c-.11,.26-.27,.47-.5,.62-.23,.15-.48,.22-.75,.22-.38,0-.71-.12-1-.37-.28-.25-.42-.55-.42-.9,0-.21,.05-.4,.14-.59l5.33-11.22h-6.08c-.37,0-.67-.12-.92-.35-.24-.23-.37-.53-.37-.88s.12-.62,.37-.85c.24-.23,.55-.34,.92-.34h7.96c.4,0,.74,.12,1.04,.36Z"/><path class="f" d="M650.57,134.7c.65,.44,1.15,1.02,1.5,1.73,.35,.71,.53,1.47,.53,2.28,0,1.07-.25,2-.75,2.8-.5,.8-1.21,1.41-2.13,1.84-.92,.42-1.98,.64-3.2,.64-.55,0-1.1-.07-1.65-.2-.55-.13-1.03-.31-1.44-.53-.56-.29-.85-.69-.85-1.19,0-.35,.13-.67,.39-.97,.26-.29,.57-.44,.94-.44,.3,0,.63,.11,.98,.33,.66,.48,1.38,.73,2.17,.73,.47,0,.92-.11,1.35-.34s.77-.56,1.04-.99,.4-.93,.4-1.49c0-.79-.25-1.41-.74-1.85s-1.09-.66-1.79-.66c-.31,0-.57,.03-.8,.09s-.37,.1-.41,.11c-.4,.12-.72,.18-.98,.18-.34,0-.6-.11-.8-.34s-.3-.51-.3-.85c0-.21,.04-.39,.11-.55,.08-.16,.21-.34,.39-.53l3.54-3.72h-4.53c-.37,0-.67-.12-.92-.35-.24-.23-.37-.53-.37-.88s.12-.62,.37-.85c.24-.23,.55-.34,.92-.34h7c.46,0,.81,.12,1.05,.36,.24,.24,.37,.56,.37,.96,0,.35-.18,.7-.55,1.06l-3.06,3.26c.84,.03,1.58,.26,2.23,.7Z"/><path class="f" d="M662.57,128.92c.82,.56,1.46,1.31,1.9,2.22,.44,.92,.66,1.9,.66,2.94s-.19,2.25-.58,3.53c-.39,1.28-1.1,2.5-2.13,3.64-1.03,1.14-2.43,1.96-4.2,2.44-.18,.04-.36,.07-.53,.07-.4,0-.72-.1-.98-.3-.26-.2-.39-.51-.39-.94,0-.32,.11-.6,.33-.85s.51-.41,.88-.52c.96-.26,1.85-.73,2.66-1.41,.82-.67,1.41-1.48,1.79-2.42-.76,.63-1.63,.95-2.61,.95-.79,0-1.57-.23-2.34-.69s-1.4-1.08-1.89-1.87c-.49-.78-.73-1.63-.73-2.54s.24-1.78,.72-2.56c.48-.79,1.12-1.4,1.93-1.86,.81-.45,1.7-.68,2.68-.68,1.05,0,1.99,.28,2.81,.85Zm-.97,6.17c.5-.51,.74-1.15,.74-1.91s-.25-1.4-.74-1.91c-.5-.51-1.11-.77-1.84-.77s-1.33,.26-1.83,.77c-.5,.51-.75,1.15-.75,1.91s.25,1.4,.75,1.91,1.11,.77,1.83,.77,1.35-.26,1.84-.77Z"/><path class="f" d="M678.31,129.38c1.03,.68,1.81,1.61,2.36,2.77s.81,2.47,.81,3.91-.27,2.74-.81,3.91-1.33,2.09-2.36,2.77c-1.03,.68-2.26,1.02-3.69,1.02h-5.47c-.4,0-.73-.13-1-.38s-.4-.58-.4-.96v-12.72c0-.38,.13-.7,.4-.96s.6-.39,1-.39h5.47c1.43,0,2.66,.34,3.69,1.02Zm-.83,10.38c.69-.97,1.03-2.21,1.03-3.71s-.35-2.73-1.04-3.71c-.69-.97-1.72-1.46-3.08-1.46h-3.77v10.34h3.77c1.37,0,2.4-.49,3.09-1.46Z"/></g><circle class="g" cx="780" cy="55.16" r="50"/><g><path class="g" d="M744.41,134.1l-.69,3.83h1.08c.35,0,.64,.11,.88,.34,.24,.23,.35,.51,.35,.85s-.12,.59-.35,.79c-.24,.21-.53,.31-.88,.31h-1.49l-.46,2.6c-.05,.28-.17,.51-.38,.68-.21,.18-.46,.26-.77,.26-.37,0-.66-.11-.88-.33s-.33-.51-.33-.86c0-.13,0-.23,.02-.29l.37-2.07h-3.75l-.46,2.6c-.05,.29-.18,.52-.39,.69-.21,.17-.47,.25-.78,.25-.35,0-.64-.11-.86-.34-.22-.23-.33-.52-.33-.87,0-.12,0-.21,.02-.26l.37-2.07h-.82c-.35,0-.64-.11-.88-.34-.24-.23-.35-.51-.35-.85s.12-.59,.35-.79c.24-.21,.53-.31,.88-.31h1.24l.69-3.83h-1.07c-.35,0-.64-.11-.88-.34s-.35-.51-.35-.85,.12-.59,.35-.79,.53-.31,.88-.31h1.46l.46-2.51c.05-.28,.17-.51,.38-.68s.46-.26,.77-.26c.37,0,.66,.11,.88,.33,.22,.22,.33,.51,.33,.86,0,.13,0,.23-.02,.29l-.34,1.98h3.73l.46-2.51c.05-.29,.17-.52,.39-.69,.21-.17,.47-.25,.78-.25,.35,0,.64,.11,.86,.34,.22,.23,.33,.52,.33,.87,0,.12,0,.21-.02,.26l-.34,1.98h.8c.35,0,.64,.11,.88,.34,.24,.23,.35,.51,.35,.85s-.12,.59-.35,.79c-.24,.21-.53,.31-.88,.31h-1.21Zm-3.11,3.83l.69-3.83h-3.75l-.69,3.83h3.75Z"/><path class="g" d="M751.39,142.99c-.92-.66-1.62-1.59-2.09-2.78s-.71-2.58-.71-4.15,.24-2.95,.71-4.15,1.17-2.12,2.09-2.78c.92-.66,2.02-.99,3.3-.99s2.38,.33,3.3,.99c.92,.66,1.62,1.59,2.09,2.78,.47,1.2,.71,2.58,.71,4.15s-.24,2.95-.71,4.15c-.47,1.2-1.17,2.12-2.09,2.78-.92,.66-2.02,.99-3.3,.99s-2.38-.33-3.3-.99Zm5.6-2.99c.56-.89,.83-2.21,.83-3.94s-.28-3.04-.83-3.94c-.56-.89-1.32-1.34-2.3-1.34s-1.74,.45-2.3,1.34c-.56,.89-.83,2.21-.83,3.94s.28,3.04,.83,3.94c.56,.89,1.32,1.34,2.3,1.34s1.74-.45,2.3-1.34Z"/><path class="g" d="M765.43,142.99c-.92-.66-1.62-1.59-2.09-2.78s-.71-2.58-.71-4.15,.24-2.95,.71-4.15,1.17-2.12,2.09-2.78c.92-.66,2.02-.99,3.3-.99s2.38,.33,3.3,.99c.92,.66,1.62,1.59,2.09,2.78,.47,1.2,.71,2.58,.71,4.15s-.24,2.95-.71,4.15c-.47,1.2-1.17,2.12-2.09,2.78-.92,.66-2.02,.99-3.3,.99s-2.38-.33-3.3-.99Zm5.6-2.99c.56-.89,.83-2.21,.83-3.94s-.28-3.04-.83-3.94c-.56-.89-1.32-1.34-2.3-1.34s-1.74,.45-2.3,1.34c-.56,.89-.83,2.21-.83,3.94s.28,3.04,.83,3.94c.56,.89,1.32,1.34,2.3,1.34s1.74-.45,2.3-1.34Z"/><path class="g" d="M784.76,134.7c.65,.44,1.15,1.02,1.5,1.73,.35,.71,.53,1.47,.53,2.28,0,1.07-.25,2-.75,2.8-.5,.8-1.21,1.41-2.13,1.84-.92,.42-1.98,.64-3.2,.64-.55,0-1.1-.07-1.65-.2-.55-.13-1.03-.31-1.44-.53-.56-.29-.85-.69-.85-1.19,0-.35,.13-.67,.39-.97,.26-.29,.57-.44,.94-.44,.3,0,.63,.11,.98,.33,.66,.48,1.38,.73,2.17,.73,.47,0,.92-.11,1.35-.34s.77-.56,1.04-.99,.4-.93,.4-1.49c0-.79-.25-1.41-.74-1.85s-1.09-.66-1.79-.66c-.31,0-.57,.03-.8,.09s-.37,.1-.41,.11c-.4,.12-.72,.18-.98,.18-.34,0-.6-.11-.8-.34s-.3-.51-.3-.85c0-.21,.04-.39,.11-.55,.08-.16,.21-.34,.39-.53l3.54-3.72h-4.53c-.37,0-.67-.12-.92-.35-.24-.23-.37-.53-.37-.88s.12-.62,.37-.85c.24-.23,.55-.34,.92-.34h7c.46,0,.81,.12,1.05,.36,.24,.24,.37,.56,.37,.96,0,.35-.18,.7-.55,1.06l-3.06,3.26c.84,.03,1.58,.26,2.23,.7Z"/><path class="g" d="M792.27,130.89v3.87h4.94c.4,0,.73,.12,.99,.36s.4,.55,.4,.93c0,.32-.13,.61-.4,.86s-.6,.37-.99,.37h-4.94v5.13c0,.38-.14,.7-.42,.96s-.61,.38-.99,.38c-.43,0-.77-.12-1.04-.37-.27-.25-.4-.57-.4-.97v-12.72c0-.38,.13-.7,.4-.96s.6-.39,1-.39h7.43c.4,0,.73,.12,1,.36s.4,.55,.4,.94c0,.32-.13,.61-.4,.86-.27,.25-.6,.37-1,.37h-5.97Z"/><path class="g" d="M812.2,128.72c.3,.24,.45,.55,.45,.94,0,.19-.05,.39-.14,.59l-6.01,12.78c-.11,.26-.27,.47-.5,.62-.23,.15-.48,.22-.75,.22-.38,0-.71-.12-1-.37-.28-.25-.42-.55-.42-.9,0-.21,.05-.4,.14-.59l5.33-11.22h-6.08c-.37,0-.67-.12-.92-.35-.24-.23-.37-.53-.37-.88s.12-.62,.37-.85c.24-.23,.55-.34,.92-.34h7.96c.4,0,.74,.12,1.04,.36Z"/><path class="g" d="M827.94,142.57c0,.38-.13,.69-.39,.94-.26,.24-.56,.36-.89,.36-.27,0-.52-.08-.74-.24s-.39-.38-.51-.66l-1.19-2.66h-6.81l-1.19,2.68c-.11,.28-.27,.49-.49,.65s-.46,.23-.72,.23c-.4,0-.7-.1-.9-.31-.21-.21-.31-.48-.31-.84,0-.13,.02-.27,.07-.42l5.69-13.16c.12-.29,.31-.52,.55-.68,.24-.16,.52-.23,.82-.2,.27,0,.53,.08,.77,.23s.41,.37,.51,.65l5.62,12.89c.08,.19,.11,.37,.11,.53Zm-9.42-4.8h4.57l-2.31-5.15-2.26,5.15Z"/></g><circle class="k" cx="925" cy="55.16" r="50"/><g><path class="k" d="M888.03,134.1l-.69,3.83h1.08c.35,0,.64,.11,.88,.34,.24,.23,.35,.51,.35,.85s-.12,.59-.35,.79c-.24,.21-.53,.31-.88,.31h-1.49l-.46,2.6c-.05,.28-.17,.51-.38,.68-.21,.18-.46,.26-.77,.26-.37,0-.66-.11-.88-.33s-.33-.51-.33-.86c0-.13,0-.23,.02-.29l.37-2.07h-3.75l-.46,2.6c-.05,.29-.18,.52-.39,.69-.21,.17-.47,.25-.78,.25-.35,0-.64-.11-.86-.34-.22-.23-.33-.52-.33-.87,0-.12,0-.21,.02-.26l.37-2.07h-.82c-.35,0-.64-.11-.88-.34-.24-.23-.35-.51-.35-.85s.12-.59,.35-.79c.24-.21,.53-.31,.88-.31h1.24l.69-3.83h-1.07c-.35,0-.64-.11-.88-.34s-.35-.51-.35-.85,.12-.59,.35-.79,.53-.31,.88-.31h1.46l.46-2.51c.05-.28,.17-.51,.38-.68s.46-.26,.77-.26c.37,0,.66,.11,.88,.33,.22,.22,.33,.51,.33,.86,0,.13,0,.23-.02,.29l-.34,1.98h3.73l.46-2.51c.05-.29,.17-.52,.39-.69,.21-.17,.47-.25,.78-.25,.35,0,.64,.11,.86,.34,.22,.23,.33,.52,.33,.87,0,.12,0,.21-.02,.26l-.34,1.98h.8c.35,0,.64,.11,.88,.34,.24,.23,.35,.51,.35,.85s-.12,.59-.35,.79c-.24,.21-.53,.31-.88,.31h-1.21Zm-3.11,3.83l.69-3.83h-3.75l-.69,3.83h3.75Z"/><path class="k" d="M904.6,136.63c.51,.63,.77,1.44,.77,2.44,0,1.75-.52,2.96-1.56,3.65s-2.27,1.03-3.7,1.03h-5.69c-.4,0-.73-.13-1-.38s-.4-.58-.4-.96v-12.72c0-.38,.13-.7,.4-.96s.6-.39,1-.39h5.76c2.9,0,4.34,1.31,4.34,3.92,0,.66-.16,1.24-.49,1.75-.33,.51-.8,.91-1.41,1.2,.81,.31,1.47,.78,1.98,1.41Zm-3.52-5.22c-.31-.3-.75-.45-1.32-.45h-3.77v3.43h3.84c.46,0,.86-.15,1.2-.44,.34-.29,.51-.69,.51-1.19,0-.6-.16-1.05-.47-1.35Zm.71,9.27c.4-.37,.61-.9,.61-1.61,0-.87-.24-1.43-.71-1.69s-1.05-.4-1.74-.4h-3.96v4.25h4.12c.72,0,1.28-.18,1.68-.55Z"/><path class="k" d="M919.58,136.63c.51,.63,.77,1.44,.77,2.44,0,1.75-.52,2.96-1.56,3.65s-2.27,1.03-3.7,1.03h-5.69c-.4,0-.73-.13-1-.38s-.4-.58-.4-.96v-12.72c0-.38,.13-.7,.4-.96s.6-.39,1-.39h5.76c2.9,0,4.34,1.31,4.34,3.92,0,.66-.16,1.24-.49,1.75-.33,.51-.8,.91-1.41,1.2,.81,.31,1.47,.78,1.98,1.41Zm-3.52-5.22c-.31-.3-.75-.45-1.32-.45h-3.77v3.43h3.84c.46,0,.86-.15,1.2-.44,.34-.29,.51-.69,.51-1.19,0-.6-.16-1.05-.47-1.35Zm.71,9.27c.4-.37,.61-.9,.61-1.61,0-.87-.24-1.43-.71-1.69s-1.05-.4-1.74-.4h-3.96v4.25h4.12c.72,0,1.28-.18,1.68-.55Z"/><path class="k" d="M930.28,134.09c.82,.45,1.46,1.06,1.92,1.84s.7,1.64,.7,2.6-.29,1.89-.87,2.73c-.58,.84-1.35,1.5-2.31,1.99-.96,.49-2,.74-3.11,.74-.59,0-1.21-.09-1.84-.26-.63-.18-1.15-.42-1.54-.73-.18-.15-.33-.35-.46-.62-.12-.26-.18-.51-.18-.75,0-.26,.12-.5,.35-.71s.54-.32,.93-.32c.27,0,.62,.14,1.03,.42,.64,.38,1.2,.57,1.69,.57,.62,0,1.21-.14,1.76-.42s.99-.65,1.32-1.12c.33-.47,.49-.98,.49-1.52,0-.79-.28-1.44-.85-1.94-.56-.5-1.24-.75-2.01-.75-.35,0-.66,.04-.94,.13s-.6,.22-.98,.4c-.27,.13-.49,.23-.65,.29-.16,.06-.32,.09-.49,.09-.59,0-1.02-.15-1.27-.46-.25-.31-.38-.67-.38-1.1,0-.15,0-.25,.02-.31l.71-5.46c.06-.31,.22-.56,.47-.76,.25-.2,.55-.3,.9-.3h6.61c.37,0,.67,.12,.92,.35,.24,.23,.37,.53,.37,.88s-.12,.62-.37,.85c-.24,.23-.55,.34-.92,.34h-5.67l-.43,3.19c.29-.16,.66-.29,1.1-.4s.86-.15,1.26-.15c1.01,0,1.92,.22,2.73,.67Z"/><path class="k" d="M948.13,130.23c0,.31-.11,.61-.34,.9-.24,.31-.56,.46-.94,.46-.26,0-.52-.07-.78-.2-.75-.34-1.55-.51-2.42-.51-1.07,0-2,.22-2.79,.65s-1.4,1.04-1.83,1.83c-.43,.78-.64,1.68-.64,2.69,0,1.73,.48,3.04,1.45,3.94s2.24,1.34,3.81,1.34c.93,0,1.74-.17,2.42-.51,.27-.12,.52-.18,.73-.18,.4,0,.73,.16,1.01,.48,.23,.28,.34,.58,.34,.9,0,.23-.06,.45-.18,.64-.12,.19-.3,.34-.53,.44-1.19,.57-2.46,.86-3.8,.86-1.49,0-2.87-.3-4.12-.91-1.25-.61-2.25-1.51-3-2.69-.75-1.19-1.12-2.63-1.12-4.31,0-1.5,.35-2.84,1.06-4.03,.71-1.19,1.69-2.12,2.94-2.78s2.66-1,4.23-1c1.36,0,2.61,.29,3.77,.86,.47,.24,.71,.61,.71,1.12Z"/><path class="k" d="M953.41,130.89v3.87h4.94c.4,0,.73,.12,1,.36,.27,.24,.4,.55,.4,.93,0,.32-.13,.61-.4,.86-.27,.25-.6,.37-1,.37h-4.94v5.13c0,.38-.14,.7-.42,.96s-.61,.38-1,.38c-.43,0-.77-.12-1.04-.37-.27-.25-.4-.57-.4-.97v-12.72c0-.38,.13-.7,.4-.96,.27-.26,.6-.39,.99-.39h7.43c.4,0,.73,.12,.99,.36s.4,.55,.4,.94c0,.32-.13,.61-.4,.86-.27,.25-.6,.37-.99,.37h-5.97Z"/><path class="k" d="M966.27,130.89v3.87h4.94c.4,0,.73,.12,1,.36,.27,.24,.4,.55,.4,.93,0,.32-.13,.61-.4,.86-.27,.25-.6,.37-1,.37h-4.94v5.13c0,.38-.14,.7-.42,.96s-.61,.38-1,.38c-.43,0-.77-.12-1.04-.37-.27-.25-.4-.57-.4-.97v-12.72c0-.38,.13-.7,.4-.96,.27-.26,.6-.39,.99-.39h7.43c.4,0,.73,.12,.99,.36s.4,.55,.4,.94c0,.32-.13,.61-.4,.86-.27,.25-.6,.37-.99,.37h-5.97Z"/></g><circle class="i" cx="1070" cy="55.16" r="50"/><g><path class="i" d="M1037.33,134.1l-.69,3.83h1.08c.35,0,.64,.11,.88,.34,.24,.23,.35,.51,.35,.85s-.12,.59-.35,.79c-.24,.21-.53,.31-.88,.31h-1.49l-.46,2.6c-.05,.28-.17,.51-.38,.68-.21,.18-.46,.26-.77,.26-.37,0-.66-.11-.88-.33-.22-.22-.33-.51-.33-.86,0-.13,0-.23,.02-.29l.37-2.07h-3.75l-.46,2.6c-.05,.29-.18,.52-.39,.69-.21,.17-.47,.25-.78,.25-.35,0-.64-.11-.86-.34s-.33-.52-.33-.87c0-.12,0-.21,.02-.26l.37-2.07h-.82c-.35,0-.64-.11-.88-.34s-.35-.51-.35-.85,.12-.59,.35-.79c.24-.21,.53-.31,.88-.31h1.23l.69-3.83h-1.08c-.35,0-.64-.11-.88-.34-.24-.23-.35-.51-.35-.85s.12-.59,.35-.79c.24-.21,.53-.31,.88-.31h1.46l.46-2.51c.05-.28,.17-.51,.38-.68,.21-.18,.46-.26,.77-.26,.37,0,.66,.11,.88,.33,.22,.22,.33,.51,.33,.86,0,.13,0,.23-.02,.29l-.34,1.98h3.73l.46-2.51c.05-.29,.17-.52,.39-.69,.21-.17,.47-.25,.78-.25,.35,0,.64,.11,.86,.34s.33,.52,.33,.87c0,.12,0,.21-.02,.26l-.34,1.98h.8c.35,0,.64,.11,.88,.34,.24,.23,.35,.51,.35,.85s-.12,.59-.35,.79-.53,.31-.88,.31h-1.21Zm-3.11,3.83l.69-3.83h-3.75l-.69,3.83h3.75Z"/><path class="i" d="M1049.66,128.92c.82,.56,1.46,1.31,1.9,2.22,.44,.92,.66,1.9,.66,2.94s-.19,2.25-.58,3.53c-.39,1.28-1.1,2.5-2.13,3.64-1.03,1.14-2.43,1.96-4.2,2.44-.18,.04-.36,.07-.53,.07-.4,0-.72-.1-.98-.3-.26-.2-.39-.51-.39-.94,0-.32,.11-.6,.33-.85,.22-.24,.51-.41,.88-.52,.96-.26,1.85-.73,2.66-1.41s1.41-1.48,1.79-2.42c-.76,.63-1.63,.95-2.61,.95-.79,0-1.57-.23-2.34-.69-.77-.46-1.4-1.08-1.89-1.87-.49-.78-.73-1.63-.73-2.54s.24-1.78,.72-2.56c.48-.79,1.12-1.4,1.93-1.86,.81-.45,1.7-.68,2.68-.68,1.05,0,1.99,.28,2.81,.85Zm-.97,6.17c.5-.51,.74-1.15,.74-1.91s-.25-1.4-.74-1.91c-.5-.51-1.11-.77-1.84-.77s-1.33,.26-1.83,.77c-.5,.51-.75,1.15-.75,1.91s.25,1.4,.75,1.91,1.11,.77,1.83,.77,1.34-.26,1.84-.77Z"/><path class="i" d="M1062.19,128.92c.82,.56,1.46,1.31,1.9,2.22,.44,.92,.66,1.9,.66,2.94s-.19,2.25-.58,3.53c-.39,1.28-1.1,2.5-2.13,3.64-1.03,1.14-2.43,1.96-4.2,2.44-.18,.04-.36,.07-.53,.07-.4,0-.72-.1-.98-.3-.26-.2-.39-.51-.39-.94,0-.32,.11-.6,.33-.85,.22-.24,.51-.41,.88-.52,.96-.26,1.85-.73,2.66-1.41s1.41-1.48,1.79-2.42c-.76,.63-1.63,.95-2.61,.95-.79,0-1.57-.23-2.34-.69-.77-.46-1.4-1.08-1.89-1.87-.49-.78-.73-1.63-.73-2.54s.24-1.78,.72-2.56c.48-.79,1.12-1.4,1.93-1.86,.81-.45,1.7-.68,2.68-.68,1.05,0,1.99,.28,2.81,.85Zm-.97,6.17c.5-.51,.74-1.15,.74-1.91s-.25-1.4-.74-1.91c-.5-.51-1.11-.77-1.84-.77s-1.33,.26-1.83,.77c-.5,.51-.75,1.15-.75,1.91s.25,1.4,.75,1.91,1.11,.77,1.83,.77,1.34-.26,1.84-.77Z"/><path class="i" d="M1074.67,134.7c.65,.44,1.15,1.02,1.5,1.73,.35,.71,.53,1.47,.53,2.28,0,1.07-.25,2-.75,2.8-.5,.8-1.21,1.41-2.13,1.84-.92,.42-1.98,.64-3.2,.64-.55,0-1.1-.07-1.65-.2-.55-.13-1.03-.31-1.44-.53-.56-.29-.85-.69-.85-1.19,0-.35,.13-.67,.39-.97,.26-.29,.57-.44,.94-.44,.3,0,.63,.11,.98,.33,.66,.48,1.38,.73,2.17,.73,.47,0,.92-.11,1.35-.34s.77-.56,1.04-.99,.4-.93,.4-1.49c0-.79-.25-1.41-.74-1.85s-1.09-.66-1.79-.66c-.31,0-.57,.03-.8,.09s-.37,.1-.41,.11c-.4,.12-.72,.18-.98,.18-.34,0-.6-.11-.8-.34s-.3-.51-.3-.85c0-.21,.04-.39,.11-.55,.08-.16,.21-.34,.39-.53l3.54-3.72h-4.53c-.37,0-.67-.12-.92-.35-.24-.23-.37-.53-.37-.88s.12-.62,.37-.85c.24-.23,.55-.34,.92-.34h7c.46,0,.81,.12,1.05,.36,.24,.24,.37,.56,.37,.96,0,.35-.18,.7-.55,1.06l-3.06,3.26c.84,.03,1.58,.26,2.23,.7Z"/><path class="i" d="M1086.6,134.7c.65,.44,1.15,1.02,1.5,1.73,.35,.71,.53,1.47,.53,2.28,0,1.07-.25,2-.75,2.8-.5,.8-1.21,1.41-2.13,1.84-.92,.42-1.98,.64-3.2,.64-.55,0-1.1-.07-1.65-.2-.55-.13-1.03-.31-1.44-.53-.56-.29-.85-.69-.85-1.19,0-.35,.13-.67,.39-.97,.26-.29,.57-.44,.94-.44,.3,0,.63,.11,.98,.33,.66,.48,1.38,.73,2.17,.73,.47,0,.92-.11,1.35-.34s.77-.56,1.04-.99,.4-.93,.4-1.49c0-.79-.25-1.41-.74-1.85s-1.09-.66-1.79-.66c-.31,0-.57,.03-.8,.09s-.37,.1-.41,.11c-.4,.12-.72,.18-.98,.18-.34,0-.6-.11-.8-.34s-.3-.51-.3-.85c0-.21,.04-.39,.11-.55,.08-.16,.21-.34,.39-.53l3.54-3.72h-4.53c-.37,0-.67-.12-.92-.35-.24-.23-.37-.53-.37-.88s.12-.62,.37-.85c.24-.23,.55-.34,.92-.34h7c.46,0,.81,.12,1.05,.36,.24,.24,.37,.56,.37,.96,0,.35-.18,.7-.55,1.06l-3.06,3.26c.84,.03,1.58,.26,2.23,.7Z"/><path class="i" d="M1094.11,130.89v3.87h4.94c.4,0,.73,.12,1,.36,.27,.24,.4,.55,.4,.93,0,.32-.13,.61-.4,.86-.27,.25-.6,.37-1,.37h-4.94v5.13c0,.38-.14,.7-.42,.96s-.61,.38-1,.38c-.43,0-.77-.12-1.04-.37-.27-.25-.4-.57-.4-.97v-12.72c0-.38,.13-.7,.4-.96,.27-.26,.6-.39,.99-.39h7.43c.4,0,.73,.12,.99,.36s.4,.55,.4,.94c0,.32-.13,.61-.4,.86-.27,.25-.6,.37-.99,.37h-5.97Z"/><path class="i" d="M1106.97,130.89v3.87h4.94c.4,0,.73,.12,1,.36,.27,.24,.4,.55,.4,.93,0,.32-.13,.61-.4,.86-.27,.25-.6,.37-1,.37h-4.94v5.13c0,.38-.14,.7-.42,.96s-.61,.38-1,.38c-.43,0-.77-.12-1.04-.37-.27-.25-.4-.57-.4-.97v-12.72c0-.38,.13-.7,.4-.96,.27-.26,.6-.39,.99-.39h7.43c.4,0,.73,.12,.99,.36s.4,.55,.4,.94c0,.32-.13,.61-.4,.86-.27,.25-.6,.37-.99,.37h-5.97Z"/></g></g></svg>