<?xml version="1.0" encoding="UTF-8"?><svg xmlns="http://www.w3.org/2000/svg" viewBox="0 0 701.03 148.92"><defs><style>.c{fill:#a7c6e4;}.d{fill:#6e8fc5;}.e{fill:#35a793;}.f{fill:#253d5b;}.g{fill:#96969a;}</style></defs><g id="a"><circle class="f" cx="55" cy="54.7" r="50"/><g><path class="f" d="M8.35,127.9l-.87,3.41h3.02l.89-3.41h2.54l-.87,3.41h1.74v2.11h-2.29l-1.24,4.55h1.9v2.16h-2.4l-.8,3.17h-2.56l.8-3.17h-3.04l-.8,3.17H1.83l.8-3.17H.87v-2.16H3.18l1.21-4.58h-1.9v-2.09h2.42l.87-3.41h2.56Zm-1.53,5.37l-1.28,4.84h3.32l1.28-4.84h-3.32Z"/><path class="f" d="M17.04,132.28c.06-.85,.29-1.58,.69-2.2s.91-1.09,1.54-1.42,1.3-.57,2.01-.73,1.47-.23,2.28-.23c.62,0,1.22,.05,1.8,.14,.57,.09,1.13,.26,1.67,.5,.54,.23,1.01,.52,1.41,.87s.72,.79,.96,1.33,.37,1.16,.37,1.85c0,3.11-2.11,4.67-6.34,4.67-.46,0-.89,.03-1.3,.1-.41,.07-.83,.18-1.26,.33-.43,.15-.77,.4-1.03,.73s-.39,.73-.39,1.2v1.58h10.32v2.31h-12.79v-3.89c0-.84,.18-1.56,.55-2.18,.37-.62,.87-1.09,1.51-1.42s1.32-.57,2.04-.71,1.49-.22,2.33-.22c.41,0,.82-.04,1.22-.11,.4-.07,.81-.19,1.22-.35,.41-.16,.75-.41,1.01-.76,.26-.34,.39-.75,.39-1.22,0-1.64-1.23-2.51-3.68-2.6-.67,0-1.29,.07-1.85,.22-.56,.15-1.05,.41-1.46,.79-.41,.38-.63,.86-.64,1.43h-2.56Z"/><path class="f" d="M44.16,130.24h-8.99v3.26h3.61c1.89,0,3.41,.42,4.55,1.25,1.14,.84,1.72,2.05,1.72,3.65s-.59,2.8-1.78,3.71-2.68,1.35-4.48,1.35c-.88,0-1.7-.08-2.44-.24-.74-.16-1.42-.41-2.04-.76-.62-.34-1.11-.83-1.46-1.45-.36-.62-.54-1.37-.54-2.23h2.56c0,.45,.12,.85,.37,1.18,.24,.33,.57,.58,.97,.74,.4,.16,.81,.28,1.22,.35,.41,.07,.85,.11,1.33,.11,1.05,0,1.94-.24,2.65-.71,.72-.48,1.08-1.16,1.08-2.04,.02-.85-.32-1.5-1.01-1.95-.69-.45-1.59-.67-2.7-.67h-6.11v-7.85h11.48v2.31Z"/><path class="f" d="M51.25,136.42v-2.02h2.38c1.07,0,1.95-.19,2.65-.57,.7-.38,1.06-.92,1.08-1.61,0-.62-.3-1.16-.89-1.63s-1.52-.7-2.77-.7c-.59,0-1.15,.06-1.67,.18s-.99,.35-1.41,.7c-.42,.35-.63,.79-.63,1.32h-2.54c0-.63,.13-1.2,.38-1.72,.25-.51,.58-.94,1-1.27s.9-.61,1.45-.83,1.12-.37,1.68-.46c.56-.09,1.15-.13,1.76-.13,1.71,0,3.16,.4,4.36,1.19,1.2,.79,1.8,1.91,1.82,3.34,0,.75-.23,1.42-.69,2.01s-1.06,.99-1.81,1.18c.93,.25,1.64,.67,2.13,1.25,.49,.59,.73,1.29,.73,2.11,0,1.08-.33,2-.98,2.74-.66,.74-1.46,1.26-2.42,1.56-.96,.3-2.03,.45-3.2,.45-1.08,0-2.08-.13-3.01-.4-.92-.26-1.73-.76-2.42-1.47s-1.04-1.62-1.04-2.71h2.58c0,.44,.13,.82,.39,1.14,.26,.32,.6,.57,1.02,.74,.42,.17,.84,.29,1.26,.36s.83,.11,1.25,.11c1.07,0,1.99-.22,2.76-.66,.77-.44,1.15-1.06,1.15-1.85,0-.66-.29-1.22-.88-1.68-.59-.46-1.56-.69-2.92-.69h-2.54Z"/><path class="f" d="M69.55,127.9c1.31,0,2.49,.21,3.53,.64,1.04,.42,1.88,1,2.52,1.73,.63,.73,1.12,1.53,1.45,2.41,.34,.88,.51,1.81,.53,2.79,.03,1-.11,1.95-.43,2.87s-.8,1.75-1.43,2.5c-.63,.75-1.48,1.35-2.55,1.79s-2.27,.67-3.61,.67h-6.06v-15.4h6.06Zm-3.52,13.03h3.52c1.83,0,3.21-.54,4.14-1.62s1.38-2.37,1.35-3.86c-.03-.91-.23-1.75-.59-2.51-.37-.76-.97-1.4-1.82-1.91-.85-.51-1.87-.77-3.08-.77h-3.52v10.67Z"/><path class="f" d="M91.71,130.24h-8.99v3.26h3.61c1.89,0,3.41,.42,4.55,1.25,1.14,.84,1.72,2.05,1.72,3.65s-.59,2.8-1.78,3.71-2.68,1.35-4.48,1.35c-.88,0-1.7-.08-2.44-.24-.74-.16-1.42-.41-2.04-.76-.62-.34-1.11-.83-1.46-1.45-.36-.62-.54-1.37-.54-2.23h2.56c0,.45,.12,.85,.37,1.18,.24,.33,.57,.58,.97,.74,.4,.16,.81,.28,1.22,.35,.41,.07,.85,.11,1.33,.11,1.05,0,1.94-.24,2.65-.71,.72-.48,1.08-1.16,1.08-2.04,.02-.85-.32-1.5-1.01-1.95-.69-.45-1.59-.67-2.7-.67h-6.11v-7.85h11.48v2.31Z"/><path class="f" d="M102.96,127.9c1.62,0,2.93,.37,3.93,1.1s1.51,1.83,1.51,3.3-.74,2.47-2.22,3.06c.88,.25,1.56,.73,2.02,1.44,.46,.71,.7,1.41,.7,2.1,0,1.07-.29,1.95-.86,2.63-.57,.68-1.28,1.15-2.13,1.4-.85,.25-1.83,.37-2.96,.37h-7.34v-15.4h7.34Zm-4.8,6.38h4.83c.95,0,1.66-.17,2.15-.51,.49-.34,.73-.81,.73-1.43s-.26-1.1-.78-1.55c-.52-.45-1.23-.67-2.13-.67h-4.8v4.16Zm0,6.73h4.8c.88,0,1.67-.17,2.36-.5s1.03-.88,1.03-1.64-.35-1.35-1.05-1.77c-.7-.42-1.47-.63-2.31-.63h-4.83v4.53Z"/></g><circle class="d" cx="200" cy="54.7" r="50"/><g><path class="d" d="M154.31,127.9l-.87,3.41h3.02l.89-3.41h2.54l-.87,3.41h1.74v2.11h-2.29l-1.24,4.55h1.9v2.16h-2.4l-.8,3.17h-2.56l.8-3.17h-3.04l-.8,3.17h-2.54l.8-3.17h-1.76v-2.16h2.31l1.21-4.58h-1.9v-2.09h2.42l.87-3.41h2.56Zm-1.53,5.37l-1.28,4.84h3.32l1.28-4.84h-3.32Z"/><path class="d" d="M165.72,135.25c.41-.57,1-1.01,1.75-1.31,.75-.3,1.53-.45,2.32-.45,.84,0,1.63,.09,2.37,.28,.74,.18,1.43,.46,2.07,.84,.64,.37,1.15,.89,1.52,1.56,.37,.67,.56,1.45,.56,2.34,0,1.09-.33,2.02-1,2.81-.66,.79-1.48,1.35-2.44,1.69s-2,.52-3.11,.52-2.18-.17-3.15-.52-1.78-.91-2.45-1.71c-.66-.79-1-1.74-1-2.84v-5.98c0-1.06,.32-1.96,.97-2.71s1.45-1.29,2.4-1.63c.95-.34,1.99-.51,3.12-.51,1.19,0,2.25,.15,3.18,.44,.93,.29,1.7,.78,2.3,1.45,.6,.67,.91,1.5,.93,2.49h-2.52c-.02-.7-.4-1.25-1.14-1.65-.75-.4-1.64-.59-2.68-.59-1.1,0-2.04,.23-2.84,.68-.79,.45-1.19,1.12-1.19,2v2.79Zm6.86,5.35c.78-.47,1.17-1.17,1.17-2.09s-.38-1.61-1.14-2.11c-.76-.5-1.7-.75-2.81-.75s-2.09,.25-2.88,.75-1.18,1.2-1.17,2.11c0,.92,.39,1.62,1.17,2.09,.78,.47,1.73,.7,2.86,.7s2.04-.24,2.81-.7Z"/><path class="d" d="M191.29,143.31h-11.83v-15.4h11.76v2.4h-9.19v4.16h8.83v2.29h-8.83v4.14h9.26v2.42Z"/><path class="d" d="M194.55,136.75c.5-.65,1.16-1.11,1.98-1.39-1.56-.69-2.33-1.75-2.33-3.17,0-1,.31-1.85,.93-2.56,.62-.71,1.4-1.22,2.34-1.54,.95-.32,1.99-.47,3.13-.47,1.8,0,3.34,.4,4.61,1.19,1.27,.79,1.91,1.92,1.91,3.39,0,.66-.21,1.27-.64,1.83s-1.02,.98-1.78,1.25c.82,.28,1.49,.76,1.99,1.43,.5,.67,.76,1.38,.78,2.11,.02,1.64-.63,2.86-1.93,3.65s-2.95,1.19-4.93,1.19-3.56-.4-4.87-1.19c-1.31-.79-1.96-2.01-1.94-3.65,.02-.73,.27-1.42,.77-2.07Zm3.2,.22c-.85,.43-1.28,1.05-1.29,1.87,0,.76,.4,1.38,1.2,1.85,.8,.47,1.79,.7,2.96,.7s2.18-.24,2.97-.7c.79-.47,1.19-1.09,1.19-1.85-.02-.82-.43-1.44-1.26-1.87-.82-.43-1.79-.64-2.9-.64s-2.02,.21-2.87,.64Zm.23-3.09c.77,.42,1.65,.63,2.64,.63s1.91-.21,2.66-.62c.75-.41,1.14-1,1.16-1.76,.02-.75-.35-1.34-1.11-1.78s-1.67-.66-2.73-.66-2.01,.23-2.73,.69c-.72,.46-1.08,1.04-1.06,1.75,.02,.75,.41,1.33,1.18,1.75Z"/><path class="d" d="M210.66,143.31v-15.38h11.32v2.4h-8.76v4.69h8.33v2.29h-8.33v6.01h-2.56Z"/><path class="d" d="M238.44,141.33c-1.6,1.53-3.61,2.29-6.02,2.29-1.4,0-2.65-.22-3.75-.66-1.1-.44-1.98-1.03-2.65-1.78-.67-.75-1.18-1.58-1.52-2.51s-.51-1.91-.51-2.95,.18-2.04,.53-2.98c.35-.95,.86-1.8,1.53-2.57,.67-.77,1.56-1.38,2.66-1.84,1.11-.45,2.34-.68,3.72-.68,2.29,0,4.24,.78,5.86,2.33l-1.72,1.58c-1.11-1.06-2.49-1.58-4.14-1.58-1.91,0-3.37,.56-4.39,1.69-1.02,1.13-1.52,2.47-1.51,4.03,.02,1.55,.52,2.88,1.51,3.97s2.46,1.64,4.39,1.64c.76,0,1.52-.15,2.29-.44,.76-.29,1.42-.7,1.97-1.23l1.76,1.69Z"/><path class="d" d="M252.12,130.24h-8.99v3.26h3.61c1.89,0,3.41,.42,4.55,1.25,1.14,.84,1.72,2.05,1.72,3.65s-.59,2.8-1.78,3.71-2.68,1.35-4.48,1.35c-.88,0-1.7-.08-2.44-.24-.74-.16-1.42-.41-2.04-.76-.62-.34-1.11-.83-1.46-1.45-.36-.62-.54-1.37-.54-2.23h2.56c0,.45,.12,.85,.37,1.18,.24,.33,.57,.58,.97,.74,.4,.16,.81,.28,1.22,.35,.41,.07,.85,.11,1.33,.11,1.05,0,1.94-.24,2.65-.71,.72-.48,1.08-1.16,1.08-2.04,.02-.85-.32-1.5-1.01-1.95-.69-.45-1.59-.67-2.7-.67h-6.11v-7.85h11.48v2.31Z"/></g><circle class="c" cx="345" cy="54.7" r="50"/><g><path class="c" d="M299.37,127.9l-.87,3.41h3.02l.89-3.41h2.54l-.87,3.41h1.74v2.11h-2.29l-1.24,4.55h1.9v2.16h-2.4l-.8,3.17h-2.56l.8-3.17h-3.04l-.8,3.17h-2.54l.8-3.17h-1.76v-2.16h2.31l1.21-4.58h-1.9v-2.09h2.42l.87-3.41h2.56Zm-1.53,5.37l-1.28,4.84h3.32l1.28-4.84h-3.32Z"/><path class="c" d="M319.77,140.07h-8.67l-1.51,3.23h-2.72l7.18-15.4h2.79l7.18,15.4h-2.72l-1.53-3.23Zm-4.32-9.57l-3.39,7.33h6.77l-3.39-7.33Z"/><path class="c" d="M326.01,143.31l7.07-13.05h-8.44v-2.35h11.73l.16,1.41-7.57,13.99h-2.95Z"/><path class="c" d="M352.26,141.33c-1.6,1.53-3.61,2.29-6.02,2.29-1.4,0-2.65-.22-3.75-.66-1.1-.44-1.98-1.03-2.65-1.78-.67-.75-1.18-1.58-1.52-2.51s-.51-1.91-.51-2.95,.18-2.04,.53-2.98c.35-.95,.86-1.8,1.53-2.57,.67-.77,1.56-1.38,2.66-1.84,1.11-.45,2.34-.68,3.72-.68,2.29,0,4.24,.78,5.86,2.33l-1.72,1.58c-1.11-1.06-2.49-1.58-4.14-1.58-1.91,0-3.37,.56-4.39,1.69-1.02,1.13-1.52,2.47-1.51,4.03,.02,1.55,.52,2.88,1.51,3.97s2.46,1.64,4.39,1.64c.76,0,1.52-.15,2.29-.44,.76-.29,1.42-.7,1.97-1.23l1.76,1.69Z"/><path class="c" d="M356.97,135.25c.41-.57,1-1.01,1.75-1.31,.75-.3,1.53-.45,2.32-.45,.84,0,1.63,.09,2.37,.28,.74,.18,1.43,.46,2.07,.84,.64,.37,1.15,.89,1.52,1.56,.37,.67,.56,1.45,.56,2.34,0,1.09-.33,2.02-1,2.81-.66,.79-1.48,1.35-2.44,1.69s-2,.52-3.11,.52-2.18-.17-3.15-.52-1.78-.91-2.45-1.71c-.66-.79-1-1.74-1-2.84v-5.98c0-1.06,.32-1.96,.97-2.71s1.45-1.29,2.4-1.63c.95-.34,1.99-.51,3.12-.51,1.19,0,2.25,.15,3.18,.44,.93,.29,1.7,.78,2.3,1.45,.6,.67,.91,1.5,.93,2.49h-2.52c-.02-.7-.4-1.25-1.14-1.65-.75-.4-1.64-.59-2.68-.59-1.1,0-2.04,.23-2.84,.68-.79,.45-1.19,1.12-1.19,2v2.79Zm6.86,5.35c.78-.47,1.17-1.17,1.17-2.09s-.38-1.61-1.14-2.11c-.76-.5-1.7-.75-2.81-.75s-2.09,.25-2.88,.75-1.18,1.2-1.17,2.11c0,.92,.39,1.62,1.17,2.09,.78,.47,1.73,.7,2.86,.7s2.04-.24,2.81-.7Z"/><path class="c" d="M382.54,143.31h-11.83v-15.4h11.76v2.4h-9.19v4.16h8.83v2.29h-8.83v4.14h9.26v2.42Z"/><path class="c" d="M396.05,127.93v10.03h1.9v2.29h-1.9v3.06h-2.54v-3.06h-8.88l-.32-2.22,8.78-10.1h2.95Zm-2.54,10.03v-7.17l-6.34,7.17h6.34Z"/></g><circle class="e" cx="490" cy="54.7" r="50"/><g><path class="e" d="M444.77,127.9l-.87,3.41h3.02l.89-3.41h2.54l-.87,3.41h1.74v2.11h-2.29l-1.24,4.55h1.9v2.16h-2.4l-.8,3.17h-2.56l.8-3.17h-3.04l-.8,3.17h-2.54l.8-3.17h-1.76v-2.16h2.31l1.21-4.58h-1.9v-2.09h2.42l.87-3.41h2.56Zm-1.53,5.37l-1.28,4.84h3.32l1.28-4.84h-3.32Z"/><path class="e" d="M457.25,136.42v-2.02h2.38c1.07,0,1.95-.19,2.65-.57,.7-.38,1.06-.92,1.08-1.61,0-.62-.3-1.16-.89-1.63s-1.52-.7-2.77-.7c-.59,0-1.15,.06-1.67,.18s-.99,.35-1.41,.7c-.42,.35-.63,.79-.63,1.32h-2.54c0-.63,.13-1.2,.38-1.72,.25-.51,.58-.94,1-1.27s.9-.61,1.45-.83,1.12-.37,1.68-.46c.56-.09,1.15-.13,1.76-.13,1.71,0,3.16,.4,4.36,1.19,1.2,.79,1.8,1.91,1.82,3.34,0,.75-.23,1.42-.69,2.01s-1.06,.99-1.81,1.18c.93,.25,1.64,.67,2.13,1.25,.49,.59,.73,1.29,.73,2.11,0,1.08-.33,2-.98,2.74-.66,.74-1.46,1.26-2.42,1.56-.96,.3-2.03,.45-3.2,.45-1.08,0-2.08-.13-3.01-.4-.92-.26-1.73-.76-2.42-1.47s-1.04-1.62-1.04-2.71h2.58c0,.44,.13,.82,.39,1.14,.26,.32,.6,.57,1.02,.74,.42,.17,.84,.29,1.26,.36s.83,.11,1.25,.11c1.07,0,1.99-.22,2.76-.66,.77-.44,1.15-1.06,1.15-1.85,0-.66-.29-1.22-.88-1.68-.59-.46-1.56-.69-2.92-.69h-2.54Z"/><path class="e" d="M480.56,130.24h-8.99v3.26h3.61c1.89,0,3.41,.42,4.55,1.25,1.14,.84,1.72,2.05,1.72,3.65s-.59,2.8-1.78,3.71-2.68,1.35-4.48,1.35c-.88,0-1.7-.08-2.44-.24-.74-.16-1.42-.41-2.04-.76-.62-.34-1.11-.83-1.46-1.45-.36-.62-.54-1.37-.54-2.23h2.56c0,.45,.12,.85,.37,1.18,.24,.33,.57,.58,.97,.74,.4,.16,.81,.28,1.22,.35,.41,.07,.85,.11,1.33,.11,1.05,0,1.94-.24,2.65-.71s1.08-1.16,1.08-2.04c.01-.85-.32-1.5-1.01-1.95-.69-.45-1.59-.67-2.7-.67h-6.11v-7.85h11.48v2.31Z"/><path class="e" d="M495.26,140.07h-8.67l-1.51,3.23h-2.72l7.18-15.4h2.79l7.18,15.4h-2.72l-1.53-3.23Zm-4.32-9.57l-3.39,7.33h6.77l-3.38-7.33Z"/><path class="e" d="M501.5,143.31l7.07-13.05h-8.44v-2.35h11.73l.16,1.41-7.57,13.99h-2.95Z"/><path class="e" d="M524.05,135.91c-.4,.57-.98,1.01-1.75,1.32-.77,.31-1.55,.46-2.34,.46-.84,0-1.63-.09-2.37-.28-.74-.18-1.43-.46-2.07-.84-.64-.37-1.15-.9-1.52-1.57-.37-.67-.56-1.46-.56-2.35,0-1.09,.33-2.02,1-2.81s1.48-1.35,2.44-1.69c.96-.34,2-.52,3.11-.52s2.16,.18,3.13,.53c.98,.35,1.79,.92,2.46,1.71,.66,.78,.99,1.73,.99,2.83v5.98c0,1.06-.32,1.96-.96,2.71s-1.44,1.29-2.39,1.63c-.95,.34-1.99,.51-3.12,.51-1.19,0-2.26-.15-3.2-.44-.95-.29-1.73-.78-2.36-1.45-.63-.67-.95-1.5-.96-2.49h2.58c.02,.7,.41,1.25,1.18,1.65,.77,.4,1.68,.59,2.73,.59,.95,0,1.84-.25,2.7-.74,.85-.49,1.28-1.14,1.28-1.95v-2.79Zm-6.91-5.35c-.78,.47-1.17,1.17-1.17,2.09s.38,1.63,1.14,2.12,1.71,.74,2.84,.74,2.07-.25,2.86-.75,1.19-1.2,1.19-2.11c-.01-.92-.41-1.62-1.19-2.09-.78-.47-1.72-.7-2.84-.7s-2.06,.24-2.84,.7Z"/><path class="e" d="M533.34,136.42v-2.02h2.38c1.07,0,1.95-.19,2.65-.57,.7-.38,1.06-.92,1.08-1.61,0-.62-.3-1.16-.89-1.63s-1.52-.7-2.77-.7c-.59,0-1.15,.06-1.67,.18s-.99,.35-1.41,.7c-.42,.35-.63,.79-.63,1.32h-2.54c0-.63,.13-1.2,.38-1.72,.25-.51,.58-.94,1-1.27,.41-.33,.9-.61,1.45-.83s1.12-.37,1.68-.46c.56-.09,1.15-.13,1.76-.13,1.71,0,3.16,.4,4.36,1.19,1.2,.79,1.8,1.91,1.82,3.34,0,.75-.23,1.42-.69,2.01-.46,.59-1.06,.99-1.81,1.18,.93,.25,1.64,.67,2.13,1.25,.49,.59,.73,1.29,.73,2.11,0,1.08-.33,2-.98,2.74-.66,.74-1.46,1.26-2.42,1.56-.96,.3-2.03,.45-3.2,.45-1.08,0-2.08-.13-3.01-.4-.92-.26-1.73-.76-2.42-1.47-.69-.72-1.04-1.62-1.04-2.71h2.58c0,.44,.13,.82,.39,1.14,.26,.32,.6,.57,1.02,.74,.42,.17,.84,.29,1.26,.36,.42,.07,.83,.11,1.25,.11,1.07,0,1.99-.22,2.76-.66,.77-.44,1.15-1.06,1.15-1.85,0-.66-.29-1.22-.88-1.68-.59-.46-1.56-.69-2.92-.69h-2.54Z"/></g><circle class="g" cx="635" cy="54.7" r="50"/><g><path class="g" d="M587.62,127.9l-.87,3.41h3.02l.89-3.41h2.54l-.87,3.41h1.74v2.11h-2.29l-1.24,4.55h1.9v2.16h-2.4l-.8,3.17h-2.56l.8-3.17h-3.04l-.8,3.17h-2.54l.8-3.17h-1.76v-2.16h2.31l1.21-4.58h-1.9v-2.09h2.42l.87-3.41h2.56Zm-1.53,5.37l-1.28,4.84h3.32l1.28-4.84h-3.32Z"/><path class="g" d="M606.69,135.91c-.4,.57-.98,1.01-1.75,1.32-.77,.31-1.55,.46-2.34,.46-.84,0-1.63-.09-2.37-.28-.74-.18-1.43-.46-2.07-.84-.64-.37-1.15-.9-1.52-1.57-.37-.67-.56-1.46-.56-2.35,0-1.09,.33-2.02,1-2.81s1.48-1.35,2.44-1.69c.96-.34,2-.52,3.11-.52s2.16,.18,3.13,.53c.98,.35,1.79,.92,2.46,1.71,.66,.78,.99,1.73,.99,2.83v5.98c0,1.06-.32,1.96-.96,2.71s-1.44,1.29-2.39,1.63c-.95,.34-1.99,.51-3.12,.51-1.19,0-2.26-.15-3.2-.44-.95-.29-1.73-.78-2.36-1.45-.63-.67-.95-1.5-.96-2.49h2.58c.02,.7,.41,1.25,1.18,1.65,.77,.4,1.68,.59,2.73,.59,.95,0,1.84-.25,2.7-.74,.85-.49,1.28-1.14,1.28-1.95v-2.79Zm-6.91-5.35c-.78,.47-1.17,1.17-1.17,2.09s.38,1.63,1.14,2.12,1.71,.74,2.84,.74,2.07-.25,2.86-.75,1.19-1.2,1.19-2.11c-.01-.92-.41-1.62-1.19-2.09-.78-.47-1.72-.7-2.84-.7s-2.06,.24-2.84,.7Z"/><path class="g" d="M614.9,135.25c.41-.57,1-1.01,1.75-1.31,.75-.3,1.53-.45,2.32-.45,.84,0,1.63,.09,2.37,.28,.74,.18,1.43,.46,2.07,.84,.64,.37,1.15,.89,1.52,1.56,.37,.67,.56,1.45,.56,2.34,0,1.09-.33,2.02-1,2.81s-1.48,1.35-2.44,1.69c-.96,.34-2,.52-3.11,.52s-2.18-.17-3.14-.52c-.97-.34-1.78-.91-2.45-1.71-.66-.79-1-1.74-1-2.84v-5.98c0-1.06,.32-1.96,.97-2.71,.65-.75,1.45-1.29,2.4-1.63,.95-.34,1.99-.51,3.12-.51,1.19,0,2.25,.15,3.18,.44,.93,.29,1.7,.78,2.3,1.45s.91,1.5,.93,2.49h-2.52c-.01-.7-.4-1.25-1.14-1.65-.75-.4-1.64-.59-2.68-.59-1.1,0-2.04,.23-2.84,.68-.79,.45-1.19,1.12-1.19,2v2.79Zm6.86,5.35c.78-.47,1.17-1.17,1.17-2.09s-.38-1.61-1.14-2.11c-.76-.5-1.7-.75-2.81-.75s-2.09,.25-2.88,.75-1.18,1.2-1.17,2.11c0,.92,.39,1.62,1.17,2.09,.78,.47,1.73,.7,2.86,.7s2.04-.24,2.81-.7Z"/><path class="g" d="M638.41,135.91c-.4,.57-.98,1.01-1.75,1.32-.77,.31-1.55,.46-2.34,.46-.84,0-1.63-.09-2.37-.28s-1.43-.46-2.07-.84-1.15-.9-1.52-1.57c-.37-.67-.56-1.46-.56-2.35,0-1.09,.33-2.02,1-2.81,.66-.79,1.47-1.35,2.44-1.69s2-.52,3.11-.52,2.16,.18,3.13,.53c.98,.35,1.8,.92,2.46,1.71,.66,.78,1,1.73,1,2.83v5.98c0,1.06-.32,1.96-.96,2.71s-1.44,1.29-2.39,1.63c-.95,.34-1.99,.51-3.12,.51-1.19,0-2.26-.15-3.2-.44-.95-.29-1.73-.78-2.36-1.45s-.95-1.5-.96-2.49h2.58c.02,.7,.41,1.25,1.18,1.65,.77,.4,1.68,.59,2.73,.59,.95,0,1.84-.25,2.7-.74,.85-.49,1.28-1.14,1.28-1.95v-2.79Zm-6.91-5.35c-.78,.47-1.17,1.17-1.17,2.09s.38,1.63,1.14,2.12c.76,.49,1.71,.74,2.84,.74s2.07-.25,2.86-.75,1.19-1.2,1.19-2.11c-.02-.92-.41-1.62-1.19-2.09-.78-.47-1.72-.7-2.84-.7s-2.06,.24-2.84,.7Z"/><path class="g" d="M646.62,135.25c.41-.57,1-1.01,1.75-1.31s1.53-.45,2.32-.45c.84,0,1.63,.09,2.37,.28,.74,.18,1.43,.46,2.07,.84s1.15,.89,1.52,1.56c.37,.67,.56,1.45,.56,2.34,0,1.09-.33,2.02-1,2.81-.66,.79-1.48,1.35-2.44,1.69-.96,.34-2,.52-3.11,.52s-2.18-.17-3.15-.52c-.97-.34-1.78-.91-2.45-1.71s-1-1.74-1-2.84v-5.98c0-1.06,.32-1.96,.97-2.71,.65-.75,1.45-1.29,2.4-1.63,.95-.34,1.99-.51,3.12-.51,1.19,0,2.25,.15,3.18,.44,.93,.29,1.7,.78,2.3,1.45,.6,.67,.91,1.5,.93,2.49h-2.52c-.02-.7-.4-1.25-1.14-1.65-.75-.4-1.64-.59-2.68-.59-1.1,0-2.04,.23-2.84,.68-.79,.45-1.19,1.12-1.19,2v2.79Zm6.86,5.35c.78-.47,1.17-1.17,1.17-2.09s-.38-1.61-1.14-2.11-1.7-.75-2.81-.75-2.09,.25-2.88,.75-1.18,1.2-1.17,2.11c0,.92,.39,1.62,1.17,2.09,.78,.47,1.73,.7,2.86,.7s2.04-.24,2.81-.7Z"/><path class="g" d="M670.13,135.91c-.4,.57-.98,1.01-1.75,1.32-.77,.31-1.55,.46-2.34,.46-.84,0-1.63-.09-2.37-.28-.74-.18-1.43-.46-2.07-.84-.64-.37-1.15-.9-1.52-1.57-.37-.67-.56-1.46-.56-2.35,0-1.09,.33-2.02,1-2.81s1.48-1.35,2.44-1.69c.96-.34,2-.52,3.11-.52s2.16,.18,3.13,.53c.98,.35,1.79,.92,2.46,1.71,.66,.78,.99,1.73,.99,2.83v5.98c0,1.06-.32,1.96-.96,2.71s-1.44,1.29-2.39,1.63c-.95,.34-1.99,.51-3.12,.51-1.19,0-2.26-.15-3.2-.44-.95-.29-1.73-.78-2.36-1.45-.63-.67-.95-1.5-.96-2.49h2.58c.02,.7,.41,1.25,1.18,1.65,.77,.4,1.68,.59,2.73,.59,.95,0,1.84-.25,2.7-.74,.85-.49,1.28-1.14,1.28-1.95v-2.79Zm-6.91-5.35c-.78,.47-1.17,1.17-1.17,2.09s.38,1.63,1.14,2.12,1.71,.74,2.84,.74,2.07-.25,2.86-.75,1.19-1.2,1.19-2.11c-.01-.92-.41-1.62-1.19-2.09-.78-.47-1.72-.7-2.84-.7s-2.06,.24-2.84,.7Z"/><path class="g" d="M686.96,140.07h-8.67l-1.51,3.23h-2.72l7.18-15.4h2.79l7.18,15.4h-2.72l-1.53-3.23Zm-4.32-9.57l-3.38,7.33h6.77l-3.39-7.33Z"/></g></g><g id="b"/></svg>