<?xml version="1.0" encoding="UTF-8"?><svg xmlns="http://www.w3.org/2000/svg" viewBox="0 0 400 250"><defs><style>.d{fill:#fff;}.e{fill:#a8caeb;}.f{fill:#4abdd0;}.g{fill:#3568b0;}.h{fill:#6c388c;}.i{fill:#bbe1ea;}.j{fill:#ccb4d6;}.k{fill:#02838c;}.l{fill:#2c1f50;}</style></defs><g id="a"/><g id="b"><rect class="d" x="-.43" y="-.1" width="402.03" height="250"/><circle class="i" cx="52.68" cy="-27.1" r="142.9"/><circle class="e" cx="172.58" cy="331.9" r="142.9"/><circle class="j" cx="407.18" cy="70.5" r="142.9"/><g><path class="h" d="M51.58,37.25v6h-7.2v21.1h-7.7v-21.1h-7.2v-6h22.1Z"/><path class="h" d="M74.38,45.15c1.4,1.7,2.2,3.8,2.2,6.7v12.5h-7.7v-11.5c0-1.2-.2-2.2-1-2.9-.7-.7-1.4-1.2-2.4-1.2-1.2,0-1.9,.2-2.6,1-.7,.7-1,1.7-1,2.9v11.5h-7.4v-28.3h7.4v10.1c.7-1,1.4-1.7,2.6-2.4,1.2-.5,2.4-1,3.8-1,2.8,0,4.7,1,6.1,2.6Z"/><path class="h" d="M101.08,55.05h-14.2c0,1.2,.5,2.2,1,2.6,.5,.5,1.2,1,2.2,1,1.2,0,2.2-.5,2.6-1.7h7.9c-.2,1.4-1,2.9-1.9,4.1-1,1.2-2.2,2.2-3.6,2.6-1.4,.7-3.1,1-4.8,1-2.2,0-4.1-.5-5.8-1.4s-2.9-2.2-3.8-3.8-1.4-3.6-1.4-5.8,.5-4.3,1.4-5.8c1-1.7,2.2-2.9,3.8-3.8s3.6-1.4,5.8-1.4,4.1,.5,5.8,1.2c1.7,.7,2.9,2.2,3.8,3.8s1.4,3.6,1.4,5.8c0,.6,0,1.1-.2,1.6Zm-7.4-3.6c0-1-.2-1.7-1-2.2s-1.4-.7-2.4-.7-1.7,.2-2.2,.7-1,1.2-1.2,2.2h6.8Z"/><path class="l" d="M38.68,78.05v4.3h8.6v5.8h-8.6v4.8h9.8v6H30.98v-26.9h17.3v6h-9.6Z"/><path class="l" d="M64.78,92.75v6.5h-3.1c-5.5,0-8.2-2.6-8.2-8.2v-7.2h-2.6v-6.2h2.6v-5.3h7.4v5.3h3.8v6.2h-3.8v7.2c0,.5,.2,1,.5,1.2,.2,.2,.7,.5,1.4,.5h2Z"/><path class="l" d="M88.38,80.05c1.4,1.7,2.2,3.8,2.2,6.7v12.5h-7.4v-11.6c0-1.2-.2-2.2-1-2.9-.7-.7-1.4-1-2.6-1s-1.9,.2-2.6,1c-.7,.7-1,1.7-1,2.9v11.5h-7.4v-28.3h7.4v9.8c.7-1,1.4-1.7,2.6-2.4,1.2-.5,2.4-1,3.8-1,2.6,.1,4.5,1.1,6,2.8Z"/><path class="l" d="M95.28,74.45c-.7-.7-1.2-1.7-1.2-2.6,0-1.2,.5-2.2,1.2-2.9,.7-.7,1.9-1.2,3.1-1.2s2.4,.2,3.1,1.2,1.2,1.7,1.2,2.9-.5,1.9-1.2,2.6-1.9,1.2-3.1,1.2-2.3-.4-3.1-1.2Zm7,3.2v21.6h-7.4v-21.6h7.4Z"/><path class="l" d="M106.58,82.65c1-1.7,2.2-2.9,3.8-3.8s3.6-1.4,5.8-1.4c2.6,0,5,.7,7,2.2s3.1,3.6,3.6,6.2h-7.9c-.5-1.4-1.4-2.2-2.6-2.2-1,0-1.7,.5-2.2,1.2s-.7,1.9-.7,3.4,.2,2.6,.7,3.4c.5,.7,1.2,1.2,2.2,1.2,1.4,0,2.2-.7,2.6-2.2h7.9c-.5,2.6-1.7,4.8-3.6,6.2-1.9,1.4-4.1,2.2-7,2.2-2.2,0-4.1-.5-5.8-1.4-1.7-1-2.9-2.2-3.8-3.8-1-1.7-1.4-3.6-1.4-6,.2-1.6,.5-3.5,1.4-5.2Z"/><path class="l" d="M129.88,82.65c.7-1.7,1.9-2.9,3.4-3.8s2.9-1.4,4.6-1.4c1.4,0,2.9,.2,3.8,1,1.2,.5,1.9,1.4,2.4,2.4v-2.9h7.4v21.6h-7.4v-2.9c-.5,1-1.4,1.9-2.4,2.4-1.2,.5-2.4,1-3.8,1-1.7,0-3.4-.5-4.6-1.4-1.4-1-2.4-2.2-3.4-3.8-1-1.7-1.2-3.6-1.2-5.8s.2-4.7,1.2-6.4Zm13,2.4c-.7-.7-1.7-1.2-2.9-1.2s-2.2,.5-2.9,1.2c-.7,.7-1.2,1.9-1.2,3.4,0,1.4,.5,2.4,1.2,3.4s1.7,1.2,2.9,1.2,1.9-.5,2.9-1.2,1.2-1.9,1.2-3.4-.3-2.4-1.2-3.4Z"/><path class="l" d="M163.48,70.85v28.3h-7.4v-28.3h7.4Z"/><path class="g" d="M33.58,132.05c-1.9-1.4-3.1-3.6-3.4-6.5h7.9c0,1,.5,1.7,.7,2.2s1.2,.7,1.9,.7,1.2-.2,1.7-.5c.5-.2,.7-.7,.7-1.4s-.2-1.4-1.2-1.9c-.7-.5-1.9-1-3.6-1.4-1.7-.5-3.1-1.2-4.3-1.7s-1.9-1.4-2.9-2.4c-.7-1-1.2-2.4-1.2-4.1s.5-3.1,1.2-4.6c1-1.2,2.2-2.2,3.6-2.9s3.4-1,5.3-1c3.1,0,5.8,.7,7.4,2.2,1.9,1.4,2.9,3.6,3.1,6.2h-7.7c0-.7-.2-1.4-.7-1.9s-1-.7-1.9-.7c-.5,0-1,.2-1.4,.5-.5,.2-.5,.7-.5,1.4,0,.5,.2,1,.5,1.2,.5,.5,1,.7,1.4,1,.5,.2,1.4,.5,2.6,1,1.7,.5,3.1,1.2,4.3,1.7s2.2,1.4,2.9,2.4,1.2,2.4,1.2,3.8c0,1.7-.5,3.1-1.2,4.3s-1.9,2.4-3.6,3.1c-1.4,.7-3.4,1.2-5.3,1.2-2.9,.3-5.5-.4-7.5-1.9Z"/><path class="g" d="M59.08,133.05c-1.7-1-3.1-2.2-4.1-3.8-1-1.7-1.4-3.6-1.4-6,0-2.2,.5-4.1,1.4-5.8,1-1.7,2.4-2.9,4.1-3.8,1.7-1,3.6-1.4,5.8-1.4s4.1,.5,5.8,1.4,3.1,2.2,4.1,3.8c1,1.7,1.4,3.6,1.4,5.8s-.5,4.1-1.4,5.8-2.4,2.9-4.1,3.8c-1.7,1-3.6,1.4-5.8,1.4s-4.1-.5-5.8-1.2Zm8.6-6.5c.7-.7,1-1.9,1-3.4,0-1.4-.2-2.6-1-3.4-.7-.7-1.4-1.2-2.6-1.2s-1.9,.5-2.6,1.2c-.7,.7-1,1.9-1,3.4,0,1.4,.2,2.6,1,3.4,.7,.7,1.4,1.2,2.6,1.2s1.7-.5,2.6-1.2Z"/><path class="g" d="M79.48,117.45c1-1.7,2.2-2.9,3.8-3.8,1.7-1,3.6-1.4,5.8-1.4,2.6,0,5,.7,7,2.2,1.9,1.4,3.1,3.6,3.6,6.2h-7.9c-.5-1.4-1.4-2.2-2.6-2.2-1,0-1.7,.5-2.2,1.2s-.7,1.9-.7,3.4c0,1.4,.2,2.6,.7,3.4,.5,.7,1.2,1.2,2.2,1.2,1.4,0,2.2-.7,2.6-2.2h7.9c-.5,2.6-1.7,4.8-3.6,6.2s-4.1,2.2-7,2.2c-2.2,0-4.1-.5-5.8-1.4-1.7-1-2.9-2.2-3.8-3.8-1-1.7-1.4-3.6-1.4-6-.1-1.6,.4-3.5,1.4-5.2Z"/><path class="g" d="M103.28,109.25c-.7-.7-1.2-1.7-1.2-2.6,0-1.2,.5-2.2,1.2-2.9,.7-.7,1.9-1.2,3.1-1.2s2.4,.2,3.1,1.2,1.2,1.7,1.2,2.9-.5,1.9-1.2,2.6-1.9,1.2-3.1,1.2c-1.2,0-2.2-.4-3.1-1.2Zm6.9,3.2v21.6h-7.4v-21.6h7.4Z"/><path class="g" d="M114.48,117.45c.7-1.7,1.9-2.9,3.4-3.8,1.4-1,2.9-1.4,4.6-1.4,1.4,0,2.9,.2,3.8,1,1.2,.5,1.9,1.4,2.4,2.4v-2.9h7.4v21.6h-7.4v-3.1c-.5,1-1.4,1.9-2.4,2.4s-2.4,1-3.8,1c-1.7,0-3.4-.5-4.6-1.4-1.4-1-2.4-2.2-3.4-3.8-1-1.7-1.2-3.6-1.2-5.8,0-2.4,.3-4.5,1.2-6.2Zm13.2,2.4c-.7-.7-1.7-1.2-2.9-1.2s-2.2,.5-2.9,1.2c-.7,.7-1.2,1.9-1.2,3.4s.5,2.4,1.2,3.4,1.7,1.2,2.9,1.2,1.9-.5,2.9-1.2,1.2-1.9,1.2-3.4c-.2-1.5-.4-2.4-1.2-3.4Z"/><path class="g" d="M148.08,105.45v28.3h-7.4v-28.3h7.4Z"/><path class="f" d="M62.68,141.75v27.1h-7.4v-14.9l-5,14.9h-6.5l-5-15.1v15.1h-7.7v-27.1h9.1l6.7,17.5,6.7-17.5h9.1Z"/><path class="f" d="M87.38,159.45h-14.2c0,1.2,.5,2.2,1,2.6,.5,.5,1.2,1,2.2,1,1.2,0,2.2-.5,2.6-1.7h7.9c-.2,1.4-1,2.9-1.9,4.1-1,1.2-2.2,2.2-3.6,2.6s-3.1,1-4.8,1c-2.2,0-4.1-.5-5.8-1.4-1.7-1-2.9-2.2-3.8-3.8-1-1.7-1.4-3.6-1.4-6s.5-4.3,1.4-5.8c1-1.7,2.2-2.9,3.8-3.8,1.7-1,3.6-1.4,5.8-1.4s4.1,.5,5.8,1.2c1.7,.7,2.9,2.2,3.8,3.8s1.4,3.6,1.4,5.8c0,.6,0,1.3-.2,1.8Zm-7.4-3.6c0-1-.2-1.7-1-2.2-.7-.5-1.4-.7-2.4-.7s-1.7,.2-2.2,.7-1,1.2-1.2,2.2h6.8Z"/><path class="f" d="M90.78,152.25c.7-1.7,1.9-2.9,3.4-3.8,1.4-1,2.9-1.4,4.8-1.4,1.4,0,2.6,.2,3.6,1,1,.7,1.9,1.4,2.6,2.4v-9.8h7.7v28.3h-7.9v-2.9c-.5,1-1.4,1.9-2.4,2.4-1.2,.5-2.4,1-3.8,1-1.7,0-3.4-.5-4.6-1.4-1.4-1-2.4-2.2-3.4-3.8-.7-1.7-1.2-3.6-1.2-5.8s.2-4.5,1.2-6.2Zm12.9,2.4c-.7-.7-1.7-1.2-2.9-1.2s-2.2,.5-2.9,1.2c-.7,.7-1.2,1.9-1.2,3.4,0,1.4,.2,2.4,1.2,3.4s1.7,1.2,2.9,1.2,1.9-.5,2.9-1.2,1.2-1.9,1.2-3.4-.2-2.4-1.2-3.4Z"/><path class="f" d="M117.38,144.15c-.7-.7-1.2-1.7-1.2-2.6,0-1.2,.5-2.2,1.2-2.9s1.9-1.2,3.1-1.2,2.4,.5,3.1,1.2,1.2,1.7,1.2,2.9-.5,1.9-1.2,2.6c-.7,.7-1.9,1.2-3.1,1.2s-2.4-.5-3.1-1.2Zm7,3.1v21.6h-7.4v-21.6h7.4Z"/><path class="f" d="M128.68,152.25c.7-1.7,1.9-2.9,3.4-3.8,1.4-1,2.9-1.4,4.6-1.4,1.4,0,2.9,.2,3.8,1,1.2,.5,1.9,1.4,2.4,2.4v-2.9h7.7v21.6h-7.4v-2.9c-.5,1-1.4,1.9-2.4,2.4s-2.4,1-3.8,1c-1.7,0-3.4-.5-4.6-1.4-1.4-1-2.4-2.2-3.4-3.8s-1.2-3.6-1.2-5.8c-.1-2.3-.1-4.7,.9-6.4Zm13.2,2.4c-.7-.7-1.7-1.2-2.9-1.2s-2.2,.5-2.9,1.2c-.7,.7-1.2,1.9-1.2,3.4,0,1.4,.5,2.4,1.2,3.4s1.7,1.2,2.9,1.2,1.9-.5,2.9-1.2,1.2-1.9,1.2-3.4c-.2-1.5-.5-2.4-1.2-3.4Z"/><path class="k" d="M51.38,189.95c-.7,1.4-1.9,2.4-3.4,3.1s-3.4,1.2-5.5,1.2h-3.8v9.1h-7.7v-26.9h11.3c2.2,0,4.1,.5,5.5,1.2s2.6,1.9,3.4,3.1c.7,1.4,1.2,2.9,1.2,4.6,.2,2-.3,3.4-1,4.6Zm-6.5-4.3c0-1.9-1-2.9-3.1-2.9h-3.1v5.8h2.9c2.1,0,3.3-1,3.3-2.9Z"/><path class="k" d="M66.28,182.95c1.2-.7,2.4-1,3.8-1v7.9h-2.2c-1.7,0-2.9,.2-3.6,1-.7,.7-1.2,1.7-1.2,3.4v9.4h-7.4v-21.6h7.4v3.8c.8-1.2,1.7-2.1,3.2-2.9Z"/><path class="k" d="M77.08,202.65c-1.7-1-3.1-2.2-4.1-3.8-1-1.7-1.4-3.6-1.4-5.8s.5-4.1,1.4-5.8,2.4-2.9,4.1-3.8c1.7-1,3.6-1.4,5.8-1.4s4.1,.5,5.8,1.4c1.7,1,3.1,2.2,4.1,3.8s1.4,3.6,1.4,5.8-.5,4.1-1.4,5.8c-1,1.7-2.4,2.9-4.1,3.8-1.7,1-3.6,1.4-5.8,1.4s-4.1-.7-5.8-1.4Zm8.4-6.5c.7-.7,1-1.9,1-3.4s-.2-2.6-1-3.4c-.7-.7-1.4-1.2-2.6-1.2s-1.9,.5-2.6,1.2-1,1.9-1,3.4,.2,2.6,1,3.4,1.4,1.2,2.6,1.2,1.9-.4,2.6-1.2Z"/><path class="k" d="M104.68,205.75c0,5.5-2.6,8.2-8.2,8.2h-2.6v-6.5h1.4c.7,0,1.2-.2,1.4-.5,.2-.2,.5-.7,.5-1.2v-23.8h7.4v23.8h.1Zm-7-26.8c-.7-.7-1.2-1.7-1.2-2.6,0-1.2,.5-2.2,1.2-2.9s1.9-1.2,3.1-1.2,2.4,.5,3.1,1.2,1.2,1.7,1.2,2.9-.5,1.9-1.2,2.6c-.7,.7-1.9,1.2-3.1,1.2-1.1,0-2.3-.5-3.1-1.2Z"/><path class="k" d="M129.38,194.25h-14.2c0,1.2,.5,2.2,1,2.6s1.2,1,2.2,1c1.2,0,2.2-.5,2.6-1.7h7.9c-.2,1.4-1,2.9-1.9,4.1-1,1.2-2.2,2.2-3.6,2.6-1.4,.5-3.1,1-4.8,1-2.2,0-4.1-.5-5.8-1.4-1.7-1-2.9-2.2-3.8-3.8-1-1.7-1.4-3.6-1.4-5.8s.5-4.3,1.4-5.8c1-1.7,2.2-2.9,3.8-3.8,1.7-1,3.6-1.4,5.8-1.4s4.1,.5,5.5,1.2,2.9,2.2,3.8,3.8,1.4,3.6,1.4,5.8c.1,.4,.1,1.1,.1,1.6Zm-7.7-3.6c0-1-.2-1.7-1-2.2-.7-.5-1.4-.7-2.4-.7s-1.7,.2-2.2,.7-1,1.2-1.2,2.2h6.8Z"/><path class="k" d="M132.78,187.05c1-1.7,2.2-2.9,3.8-3.8,1.7-1,3.6-1.4,5.8-1.4,2.6,0,5,.7,7,2.2,1.9,1.4,3.1,3.6,3.6,6.2h-7.9c-.5-1.4-1.4-2.2-2.6-2.2-1,0-1.7,.5-2.2,1.2s-.7,1.9-.7,3.4c0,1.4,.2,2.6,.7,3.4s1.2,1.2,2.2,1.2c1.4,0,2.2-.7,2.6-2.2h7.9c-.5,2.6-1.7,4.8-3.6,6.2s-4.1,2.2-7,2.2c-2.2,0-4.1-.5-5.8-1.4-1.7-1-2.9-2.2-3.8-3.8-1-1.7-1.4-2.9-1.4-5.3-.1-2.3,.4-4.2,1.4-5.9Z"/><path class="k" d="M168.58,197.15v6.5h-3.4c-5.5,0-8.2-2.6-8.2-8.2v-7.2h-2.6v-6.2h2.6v-5.3h7.7v5.3h3.8v6.2h-3.8v7.2c0,.5,.2,1,.5,1.2s.7,.5,1.4,.5h2Z"/></g></g><g id="c"/></svg>