<?xml version="1.0" encoding="UTF-8"?><svg xmlns="http://www.w3.org/2000/svg" viewBox="0 0 420 296.92"><defs><style>.d{fill:#6a6a6a;}.e{fill:#514943;}.f{fill:#3d3d3d;}.g{fill:#792da2;}.h{fill:#020202;}.i{fill:#e0e0e0;}.j{fill:#332a22;}.k{fill:#c3c3c3;}.l{fill:#111;}.m{fill:#333;}.n{fill:#5d5650;}.o{fill:#6f6f6f;}.p{fill:#7f7a75;}.q{fill:#7a2ea2;}.r{fill:#2a2119;}.s{fill:#0b0b0b;}.t{fill:#3e362e;}</style></defs><g id="a"/><g id="b"><g id="c"><g><path class="q" d="M322.47,43.55h-7.77c-.03-.47-.07-.85-.07-1.24,0-3.27,0-6.54,0-9.81,0-.32,0-.64,0-.96-.03-2.77-1.87-4.21-4.75-3.7-1.42,.25-2.41,1.41-2.62,2.91-.05,.39-.04,.8-.04,1.19,0,3.39,0,6.78,0,10.17v1.36h-7.8c-.02-.41-.06-.8-.06-1.18,0-3.15,0-6.3,0-9.45,0-.44,0-.88,0-1.32-.06-2.76-1.9-4.25-4.61-3.7-1.37,.28-2.3,1.09-2.61,2.48-.13,.62-.19,1.26-.19,1.9-.02,3.31,0,6.62,0,9.93,0,.43,0,.86,0,1.35h-7.61c-.27-.84-.32-21.08-.04-22.32h7.62v2.46l.22,.13c1.27-1.32,2.71-2.33,4.51-2.66,1.76-.32,3.49-.21,5.18,.42,1.74,.65,3.06,1.82,4.01,3.3,.73-.69,1.4-1.37,2.13-1.98,3.15-2.63,7.75-2.28,10.46-.66,2.28,1.37,3.45,3.48,3.87,6.04,.14,.86,.18,1.75,.19,2.62,.02,3.79,0,7.58,0,11.37v1.35Z"/><path class="g" d="M210.4,45.53h7.57c1.16,2.07,3.65,2.84,5.77,1.81,.92-.45,1.49-1.22,1.73-2.18,.33-1.36,.27-2.74,.15-4.2-.19,.1-.31,.13-.37,.2-2.73,3.48-9.01,3.65-12.5,.03-1.54-1.6-2.45-3.53-2.87-5.68-.52-2.63-.47-5.25,.38-7.8,1.18-3.54,3.43-6.02,7.24-6.7,2.92-.52,5.55,.09,7.62,2.38,.1,.11,.21,.2,.49,.47l.13-2.67h7.66c.03,.29,.1,.59,.1,.89,0,7.26,.03,14.52-.02,21.78,0,1.22-.21,2.48-.58,3.64-1.27,4.07-4.17,6.27-8.33,6.9-2.48,.38-4.94,.21-7.33-.53-3.9-1.2-6.61-4.39-6.84-8.32Zm11.18-17.82c-1.8,.02-3.2,1.04-3.73,2.78-.37,1.24-.38,2.51,.04,3.75,.58,1.73,2,2.72,3.8,2.7,1.76-.02,3.2-1.08,3.74-2.79,.38-1.21,.38-2.43,0-3.64-.55-1.75-2.04-2.82-3.86-2.8Z"/><path class="j" d="M17.95,67.76H111.11V210.48H17.95V67.76Zm9.58,19.18c.36-.02,.71-.05,1.07-.05,13.28-.02,26.57-.03,39.85-.04,13.6-.01,27.21-.02,40.81-.03,.42,0,.84-.04,1.33-.06,0-3.9,.01-7.66-.01-11.42H18.62c0,1.2,0,2.31,0,3.42,.02,2.71,.04,5.42,.06,8.13l-.03,.46c-.01,.44-.03,.88-.03,1.31,0,30.35,0,60.71,0,91.06l.05,.59c-.02,.16-.05,.32-.05,.47,0,9.5,0,18.99,0,28.49,0,.22,.06,.44,.09,.65,3.22,.25,90.91,.13,91.81-.12v-29.63c-.45,0-.84,0-1.23,0-2.95,0-5.9,.03-8.86,.03-20.47,.02-40.93,.05-61.4,.07-3.91,0-7.82-.02-11.73-.03l-.02-.39c.4-.01,.8-.04,1.19-.04,19.95-.02,39.91-.03,59.86-.05,6.94,0,13.89,0,20.83-.01,.45,0,.9-.08,1.35-.12V87.23c-.73,0-1.4,0-2.06,0-26.5,.03-52.99,.06-79.49,.08-.48,0-.95-.05-1.43-.08v-.3Zm-8.9-12.52c1.93,.25,91.06,.16,91.96-.1,0-.97,0-1.97,0-2.96,0-1.02-.02-2.04-.03-3.04H18.65v6.1Z"/><path class="t" d="M302.59,203.71h-93.45V67.78h93.45V203.71Zm-.75-30.95V80.38h-91.82v92.39h91.82Zm0,.57h-91.79c-.23,2.14-.14,28.75,.09,29.64h91.71v-29.64Zm-91.85-93.57h91.82v-11.43h-91.82v11.43Z"/><path class="g" d="M198.09,23.63c.04-.81,.08-1.62,.12-2.47h7.68v22.31h-7.69l-.12-2.56c-.23,.15-.34,.19-.41,.27-2.75,3.62-9.95,3.84-13.41-1.13-1.95-2.79-2.44-5.93-2.17-9.23,.16-1.97,.67-3.84,1.72-5.55,2.18-3.55,6.08-5.16,10.1-4.16,1.6,.4,2.91,1.28,4.17,2.52Zm-8.05,8.52c.03,.41,.04,.65,.06,.89,.19,2.3,1.74,3.86,3.88,3.91,2.18,.05,3.8-1.37,4.08-3.67,.09-.78,.08-1.59-.06-2.36-.34-1.86-1.92-3.15-3.78-3.2-1.94-.05-3.46,1.06-3.96,2.95-.14,.53-.16,1.1-.21,1.48Z"/><path class="q" d="M7.64,15.42h8.4c2.07,6.57,4.16,13.21,6.25,19.84l.21,.04,6.23-19.89h8.36l-9.68,28.09h-10.07L7.64,15.42Z"/><path class="g" d="M271.42,23.84v-2.66h7.76v22.29h-7.69c-.02-.41-.05-.84-.06-1.26-.01-.39,0-.78,0-1.33-.26,.16-.41,.21-.49,.31-2.47,3.08-7.61,3.39-10.93,1.21-2.53-1.66-3.83-4.12-4.4-6.99-.52-2.62-.45-5.26,.42-7.8,1.19-3.48,3.43-5.93,7.19-6.61,2.97-.54,5.63,.07,7.72,2.43,.07,.08,.17,.14,.51,.41Zm-8.12,8.26c.05,.63,.05,1.03,.12,1.42,.3,1.85,1.73,3.24,3.49,3.39,2.01,.18,3.64-.84,4.24-2.73,.44-1.37,.42-2.75-.13-4.09-.66-1.59-2.14-2.46-3.9-2.38-1.69,.08-3.01,1.08-3.51,2.73-.18,.6-.23,1.24-.29,1.65Z"/><path class="t" d="M304.95,67.75h93.17v124.91h-93.1c-.23-.78-.31-123.21-.07-124.91Zm39.14,12.48c.44-.02,.88-.04,1.31-.04,16.88-.01,33.76-.02,50.64-.03,.47,0,.93,0,1.38,0,.23-1.87,.15-10.73-.08-11.55h-91.73v11.59c.49,0,.92,0,1.35,0,6.11,0,12.21-.01,18.32,0,.54,0,1.07,.17,1.61,.26-.46,.07-.92,.2-1.37,.2-6.18,.02-12.36,.02-18.54,.02-.43,0-.87,0-1.35,0v92.5h2.56v.39l-2.56,.1v18.32h91.84v-18.43c-.49,0-.92,0-1.35,0-5.15,0-10.3,0-15.44,0-1.6,0-3.19,0-4.79,0-.46,0-.99,.1-1.23-.48,7.46,0,14.92,0,22.39,0,.15,0,.29-.07,.4-.1V80.63c-.56,0-1.04,0-1.51,0-16.84,.01-33.68,.02-50.52,.03-.44,0-.88-.03-1.31-.04v-.39Z"/><path class="g" d="M49.92,36.75h9.35v6.17c-.81,.25-18.07,.35-20.28,.09,0-.92,0-1.86,0-2.8,.01-.99-.23-2.12,.15-2.95,.36-.78,1.4-1.25,2.13-1.86,2.46-2.03,5.02-3.96,7.03-6.47,.84-1.05,1.57-2.2,2.24-3.37,.56-.99,.69-2.12,.51-3.25-.18-1.14-.81-1.79-1.82-1.93-1.06-.14-1.93,.35-2.37,1.41-.15,.36-.24,.76-.32,1.15-.07,.35-.08,.71-.12,1.06-.88,.25-6.3,.28-7.45,.05-.26-5.12,3.18-9.37,8.19-10.13,2.16-.33,4.3-.25,6.39,.42,3.07,.99,4.8,3.18,5.34,6.3,.56,3.22-.23,6.18-2.05,8.86-1.67,2.47-3.8,4.51-6.14,6.33-.28,.22-.55,.44-.83,.66l.05,.28Z"/><path class="q" d="M123.04,43.49h-7.78V21.18h7.72v2.83c.36-.29,.57-.42,.74-.6,2.65-2.78,6.76-3.08,9.75-1.78,2.14,.93,3.45,2.63,4.21,4.8,.47,1.34,.59,2.73,.6,4.12,.02,3.99,.01,7.98,0,11.97,0,.31-.06,.62-.09,.97h-7.73c0-.46,0-.88,0-1.31,0-3.27,0-6.54,0-9.81,0-.67-.04-1.36-.16-2.02-.36-1.91-1.71-2.97-3.64-2.93-1.94,.05-3.32,1.26-3.56,3.19-.07,.55-.05,1.12-.05,1.67,0,3.31,0,6.62,0,9.93,0,.39,0,.78,0,1.27Z"/><path class="q" d="M161.77,28.66h-6.98c-.13-.27-.23-.53-.37-.77-.67-1.26-2.59-1.85-3.85-1.19-.86,.45-.98,1.5-.17,2.05,.48,.33,1.07,.53,1.64,.69,1.53,.43,3.09,.79,4.62,1.2,.5,.13,.99,.31,1.46,.53,2.16,1.05,3.55,2.69,3.7,5.17,.16,2.49-.86,4.41-2.91,5.79-1.35,.91-2.87,1.38-4.47,1.57-2.66,.31-5.26,.08-7.71-1.08-2.6-1.23-4.38-3.15-4.87-6.09-.03-.15,0-.31,0-.52h7.49c.38,1.37,1.35,2.09,2.76,2.2,.46,.04,.96-.04,1.41-.17,.58-.16,.96-.56,.98-1.21,.01-.59-.3-1-.82-1.2-.71-.27-1.43-.5-2.16-.69-1.58-.43-3.19-.73-4.73-1.26-1.98-.68-3.54-1.94-3.97-4.1-.55-2.78,.17-5.21,2.72-7.02,1.44-1.02,3.09-1.48,4.81-1.65,2.08-.2,4.16-.11,6.13,.68,3.12,1.26,4.84,3.61,5.3,7.07Z"/><path class="l" d="M206.8,273.94H113.1v-79.23h93.7v79.23Zm-84.91-11.28l.04-.37c5.47,0,10.93,0,16.4,0,22.15,.02,44.3,.05,66.45,.07,.38,0,.77-.04,1.16-.06v-66.93H113.62c0,.46,0,.86,0,1.25,0,21.43,0,42.86,0,64.29,0,.43,.07,.86,.1,1.3l.03,.48c-.04,.23-.13,.46-.13,.69,0,3.11,0,6.22,0,9.33,0,.18,.07,.37,.12,.61h.88c14.35,0,28.7,0,43.06,0,.35,0,.7-.08,1.05-.12l.48,.04c.35,.03,.71,.08,1.06,.08,14.83,0,29.66,0,44.5,0,.39,0,.77,0,1.19,0v-10.61c-.45,0-.84,0-1.23,0-6.98,0-13.95,0-20.93,0-8.17,0-16.35,0-24.52,.01l-.58,.02c-.44-.02-.87-.05-1.31-.05-11.83-.01-23.66-.02-35.49-.03Z"/><path class="q" d="M179.27,36.86v6.56c-.27,.04-.54,.12-.8,.11-1.55-.04-3.12,.01-4.65-.18-3.99-.51-6.27-3.02-6.44-7.06-.1-2.39-.04-4.79-.04-7.18,0-.43,0-.86,0-1.44h-2.8v-6.56h2.77v-5.21c.98-.28,6.68-.3,7.87-.04v5.23h4.03v6.55h-3.8c-.09,.23-.17,.33-.17,.44-.01,2.35-.04,4.71-.01,7.06,.02,1.23,.45,1.63,1.67,1.71,.4,.03,.8,0,1.2,0,.35,0,.71,0,1.18,0Z"/><path class="r" d="M206.65,67.78v124.63H113.28V67.78h93.37Zm-92.68,12.62l-.03,.31c-.03,.63-.08,1.27-.08,1.9,0,29.54,0,59.08,0,88.62,0,.52-.02,1.04-.03,1.55v.71c.01,6.09,.03,12.17,.04,18.25h91.96v-18.43c-1.35-.04-2.65-.08-3.96-.12l-.02-.28c.92-.02,1.83-.04,2.75-.05,1.27-.01,1.28,0,1.28-1.24,0-30.07,0-60.15,0-90.22,0-.31-.04-.62-.08-1.04-.48-.02-.9-.06-1.33-.06-2.71-.02-5.42-.04-8.13-.05v-.28c3.17-.04,6.33-.08,9.48-.11v-11.51H113.9c-.02,.23-.05,.38-.05,.53,0,3.43,0,6.86,0,10.29,0,.27,.08,.54,.13,.81l-.02,.42Z"/><path class="g" d="M246.41,24.73c1.78-2.19,3.91-3.73,6.85-3.79,.26,.92,.3,7.09,.06,8.24-1.14,.07-2.3,.07-3.44,.22-2.54,.35-3.55,1.47-3.65,4.05-.07,1.75-.03,3.51-.03,5.27,0,1.55,0,3.11,0,4.74h-7.75V21.18h7.69v3.48l.27,.07Z"/><path class="q" d="M102.56,15.42h7.73v27.92c-.8,.26-6.21,.32-7.73,.07V15.42Z"/><path class="h" d="M209.11,205.67c.07-.16,.11-.43,.21-.45,.31-.07,.63-.05,.95-.05,30.44,0,60.89,0,91.34,0h1.02v79.29c-.33,.02-.68,.05-1.02,.05-30.45,0-60.89,0-91.34,0-.32,0-.64,.02-.95-.05-.1-.02-.14-.3-.21-.45l.54-.12h92.22c.25-2.51,.14-77.17-.11-78.06h-.94c-30.04,0-60.09,0-90.13,0-.39,0-.78,.09-1.17,.14l-.42-.3Z"/><path class="q" d="M70.27,26.47h17.97v6.42h-17.97v-6.42Z"/><path class="m" d="M209.11,205.67l.42,.3c.01,.48,.04,.96,.04,1.43,0,24.98,0,49.96,0,74.93,0,.52,.05,1.03,.08,1.55l-.54,.12c-.02-.44-.06-.87-.06-1.31,0-25.24,0-50.48,0-75.72,0-.44,.04-.87,.06-1.31Z"/><path class="n" d="M27.32,180.24c-2.05,.02-4.1,.05-6.15,.07-.83,0-1.66,0-2.49,0l-.05-.59c2.46,.02,4.91,.03,7.37,.06,.43,0,.87,.04,1.3,.06l.02,.39Z"/><path class="t" d="M18.69,86.89l8.85,.05v.3c-.93,.03-1.88,.08-2.82,.09-2.02,.02-4.04,.02-6.05,.03l.03-.46Z"/><path class="n" d="M369.36,173.11c-.04,.15-.06,.42-.12,.43-.39,.05-.79,.06-1.19,.06-7.42,0-14.84,.01-22.26,0-.69,0-1.3,.05-1.87,.56-.68,.61-1.56,.72-2.47,.71-3.31-.02-6.62,0-9.93,0-6.38,0-12.76-.01-19.15,.01-1.24,0-2.37-.14-3.33-1.02-.21-.19-.58-.2-.88-.29v-.39c-.02-.29,0-.59-.08-.87-.7-2.48,.85-4.73,3.42-4.92,.32-.02,.64-.01,.96-.01,9.5,0,18.99,0,28.49,0,.4,0,.8-.02,1.2,.04,2.36,.31,3.76,2.35,3.23,4.68-.06,.27-.12,.54-.22,.99,.49,0,.92,0,1.34,0,7.22,0,14.45,0,21.67-.01,.4,0,.8,.02,1.2,.03Zm-60.46-3.58l-.32,.69c-.29,.78-.22,1.55,.14,2.29,.46,1,1.21,1.63,2.33,1.78,.48,.03,.95,.07,1.43,.07,9.6,0,19.21,0,28.81,0,.24,0,.48,0,.72-.01,1.6-.12,2.84-1.34,2.99-2.91,.14-1.56-.87-2.99-2.43-3.37-.46-.11-.94-.14-1.42-.14-9.64,0-19.29,0-28.93,0-.47,0-.94,.11-1.41,.17l-.72,.27-1.18,1.16Z"/><path class="e" d="M331.52,80.71c.02-.16,0-.43,.08-.45,.22-.07,.47-.07,.7-.07,3.82,0,7.63,0,11.45,0,.12,0,.23,.03,.35,.05v.39c-1.46,.02-2.92,.06-4.38,.06-2.73,.02-5.46,.02-8.2,.02Z"/><path class="o" d="M158.73,273.19c-.01-3.48-.02-6.97-.04-10.45l.58-.02c-.02,2.75-.04,5.5-.06,8.25,0,.76,0,1.51,0,2.27l-.48-.04Z"/><path class="o" d="M121.89,262.66c-2.71,.01-5.42,.02-8.14,.04l-.03-.48c2.54,0,5.08-.02,7.62-.02,.19,0,.39,.06,.58,.09l-.04,.37Z"/><path class="t" d="M113.98,79.97c7.09-.01,14.19-.03,21.28-.04,19.89-.02,39.77-.04,59.66-.05,.47,0,.95,.05,1.43,.07v.28c-.51,.03-1.03,.08-1.54,.08-26.43,.04-52.85,.07-79.28,.11-.44,0-.87,.04-1.31,.05l-.25-.08,.02-.42Z"/><path class="t" d="M201.88,173.18c-.35,.03-.71,.1-1.06,.1-15.53,.02-31.07,.04-46.6,.05-.32,0-.64-.02-.95-.04v-.4c2.22-.01,4.45-.04,6.67-.04,13.58-.01,27.16-.02,40.73-.02,.4,0,.79,.04,1.19,.06l.02,.28Z"/><path class="n" d="M153.25,172.89v.4c-.46,.02-.94,.07-1.41,.07-12.2,.01-24.39,.02-36.59,.03-.48,0-.95,.06-1.43,.09v-.71c.59,.03,1.19,.09,1.78,.09,12.11,0,24.22-.01,36.33-.02,.44,0,.87,.04,1.31,.05Z"/><path class="m" d="M104.73,186.79l-1.87,1.23c-.08-.41-.16-.63-.16-.85-.01-1.07-.02-2.14,0-3.21,.02-.84,.24-1.06,1.05-1.1,.71-.03,1.43-.01,2.14,0,.5,.01,.86,.27,.87,.78,.03,1.37,.01,2.75,.01,4.41l-2.04-1.27Zm1.34,.1v-3.39h-2.7v3.4l1.39-.84,1.31,.83Z"/><path class="m" d="M46.02,183.49c-1.04,1.59-2.15,3.09-3.22,4.62l-.33-.08c-.07-.36-.18-.73-.19-1.09-.03-.99-.42-1.74-1.28-2.27-.32-.2-.55-.52-.86-.81,.97-.44,4.96-.7,5.88-.37Zm-1.7,1.38l-1.72,.59,.34,1.54,1.36-2.15,.14-.13-.15-.02,.04,.17Zm-1.95,.2l1.7-.99-.05-.17-2.73,.2,1.08,.96Z"/><path class="m" d="M36.2,188.53c-.32-.03-.56,0-.76-.09-.53-.22-1.05-.23-1.62-.16-1.53,.18-2.78-.91-2.83-2.38-.05-1.41,1.15-2.6,2.57-2.56,1.47,.04,2.58,1.3,2.39,2.81-.07,.57-.07,1.09,.15,1.62,.08,.2,.06,.44,.1,.76Zm-1.12-.91l.28-.02-.11-.16c.02-.39,0-.78,.06-1.16,.14-.94-.19-1.7-.95-2.11-.74-.39-1.6-.26-2.19,.33-.59,.59-.73,1.46-.34,2.18,.41,.76,1.18,1.1,2.11,.97,.38-.05,.76-.02,1.15-.03Z"/><path class="f" d="M23.97,183.87c.11-.05,.22-.09,.32-.13,.96-.43,1.7-.3,2.21,.41,.49,.68,.42,1.41-.25,2.16-.68,.77-1.38,1.52-2.16,2.36-.91-.91-1.68-1.64-2.41-2.41-.66-.71-.69-1.5-.17-2.16,.52-.66,1.23-.79,2.13-.39,.11,.05,.21,.11,.32,.17Zm-.04,3.89c.77-.76,1.41-1.36,2.01-2,.37-.4,.38-.88,.03-1.3-.35-.43-.81-.48-1.29-.24-.24,.12-.44,.31-.68,.47-.17-.12-.29-.21-.42-.29-.69-.43-1.2-.4-1.58,.08-.35,.45-.29,.9,.24,1.47,.53,.58,1.08,1.15,1.7,1.81Z"/><path class="f" d="M33.52,194.42c-.67-.1-1.36,.06-2.02-.27-.17-.09-.51,.15-.77,.24l-.04-2.32c.61-.25,.43,.36,.68,.65,.54-.24,1.14,.21,1.78-.11,.16-.08,.55,.29,.83,.46l-.89,.9,.44,.46Z"/><path class="k" d="M53.04,203.75l-.25,1.37-.18,.03-.51-1.39c-.2,.42-.31,.6-.37,.8-.06,.18-.08,.37-.14,.67-.57-.49-.28-1.01-.34-1.59l2.4-.42c.69,.38-.33,1.14,.21,1.67,.45-.06,.48-.28,.37-.72-.05-.19,.22-.55,.43-.71,.12-.09,.6,.02,.62,.1,.11,.5,.24,1.04,.16,1.52-.07,.38-.52,.36-.91,.31-1.27-.17-1.27-.16-1.47-1.65Z"/><path class="k" d="M32.43,202.86v2.24c-.43,.11-.84,.24-1.26,.3-.64,.1-1.12-.24-1.13-.73-.02-.83,.35-1.31,1.01-1.32,.59-.01,.88-.1,1.38-.5Z"/><path class="d" d="M45.68,199.18c-.39,.03-.77,.15-1.07,.05-.36-.13-.61-.16-.97,0-.45,.2-.85-.02-1.1-.46-.23-.4-.17-.78,.11-1.11,.28-.32,.63-.48,1.07-.27,.22,.11,.36,.28,.71,.12,.93-.42,1.3-.13,1.32,.9,0,.23-.04,.46-.07,.77Zm-1.45-1.27c-.5,.07-1.01-.42-1.28,.27-.05,.13,.14,.51,.28,.54,.5,.13,.94,.02,1-.81Zm1.15,.8c-.24-.16-.34-.27-.45-.29-.09-.01-.19,.1-.29,.15,.08,.11,.13,.28,.24,.33,.08,.04,.23-.08,.51-.19Z"/><path class="n" d="M48.84,199.19c-.35,.14-.54-.04-.6-.35-.07-.34-.09-.69-.21-1.07-.14,.83-.32,1.57-1.37,1.57-.12,0-.23,.32-.5,.71v-2.52c.54-.22,1.12-.42,1.63,.21l.6-.78,.7,.59c0,.07,0,.13,0,.2-.57,.29-.59,.4-.25,1.24,0,.07,0,.13,0,.2Zm-1.22-.94c-.34-.22-.54-.43-.74-.45-.12,0-.38,.32-.36,.46,.04,.21,.27,.39,.42,.58l.68-.59Z"/><path class="e" d="M23.5,193.6c-.7,.88-1.07,1.04-1.79,.78-.18-.07-.36-.14-.55-.22l.22-.32h1.09c-.39-.55-.72-1.02-1.06-1.5,.92-.66,1.31-.59,1.84,.31,.04,.07,.15,.09,.23,.14v.8Z"/><path class="n" d="M33.52,194.42l-.44-.46,.89-.9c.56-.07,.97-.95,1.72-.27-.28,.51,.79,1.36-.41,1.68-.63,.17-1.02-.14-1.02-.92l-.74,.87Z"/><path class="f" d="M25.36,192.83c.2-.19,.4-.39,.6-.58,.52-.5,1.31-.4,1.55,.27,.14,.41,.14,.95,0,1.36-.25,.69-1.02,.78-1.55,.28-.2-.19-.41-.37-.61-.55v-.78Zm1.27-.3q-.52,.74,.07,1.36c.54-.76,.54-.78-.07-1.36Z"/><path class="d" d="M36.64,196.83l.25,.79c.45-.15,.92-.59,1.36-.08,.16,.18,.16,1.48,.02,1.57-.44,.27-.85,.34-1.24-.26l.85-.15-.93-.59-.29,1.25q-.38-.82-.01-2.53Zm1.02,1.01v.12l.37,.03v-.13l-.37-.03Z"/><path class="e" d="M23.47,199.2c-.35-.38-.64,.06-.95,.08-1.2,.08-1.35,.08-1.32-1.13,0-.22,.07-.43,.12-.69,.8,.21,.18,.99,.76,1.34l.43-1.34,.29,.02,.3,1.57c.14-.41,.2-.58,.26-.75l.89,.45-.76,.46Z"/><path class="n" d="M30.64,196.87c.76,.11,1.44,.39,2,.93,.06,.06,.26-.02,.4-.04v1.18c-.36-.48-.41,.22-.76,.24l-.25-1.39c-.96,.12-.32,1.04-.8,1.39-.37-.36-.16-.8-.22-1.19-.05-.35,.18-.82-.38-.98-.02-.05-.02-.1,0-.15Z"/><path class="d" d="M33.05,198.94v-1.18l.05-.93,.15-.04,.32,.91c.42-.23,.84-.7,1.34-.2,.14,.14,.18,1.49,.06,1.58-.44,.32-.84,.33-1.29-.22l.83-.18-.93-.63-.14,.96-.4-.09Zm1.62-1.05c-.08-.03-.15-.08-.21-.08-.04,0-.08,.07-.12,.11,.07,.03,.13,.07,.2,.07,.04,0,.08-.07,.13-.11Z"/><path class="m" d="M24.95,197.88c.87-.65,.96-.64,1.6,.23v.3c-.45,1.13-.56,1.16-1.88,.45,.02-.08,.01-.15,0-.23l.28-.75Z"/><path class="k" d="M34.71,204.88c.47-.14,1.05,.33,1.11-.44-1.2-.38-1.4-.56-1.27-1.11,.12-.52,.41-.59,1.66-.34l-.94,.48c.2,.11,.38,.17,.5,.29,.23,.23,.62,.54,.58,.75-.06,.32-.37,.7-.67,.86-.37,.19-.77,.05-.97-.49Z"/><path class="k" d="M50.96,203.95c.03,.73-.43,1.44-.82,1.48-.49,.04-1.01-.41-1.05-.91-.04-.53,.5-1.23,.96-1.11,.36,.09,.67,.4,.9,.55Zm-.99,.83v.1h.39v-.1h-.39Z"/><path class="k" d="M48.49,205.11l-.22-1-.18-.04-.46,1.33-.43-1.55-.48,1.27-.18-.02v-1.48c.57-.07,1.15-.2,1.72-.2,.19,0,.51,.27,.56,.47,.09,.39,.03,.81,.03,1.22h-.35Z"/><path class="k" d="M43.65,205.1v-1.48c.59-.07,1.17-.19,1.74-.19,.19,0,.51,.26,.56,.46,.09,.39,.03,.82,.03,1.23l-.26,.04-.47-1.29c-.12,.39-.17,.55-.22,.72-.05,.18-.08,.36-.3,.58l-.44-1.32-.37,1.27h-.26Z"/><path class="k" d="M25.98,205.34c-1.06,.01-1.56-.51-1.3-1.29,.14-.44,.63-.77,.99-.68,.45,.12,.7,.6,.57,1.11-.07,.26-.16,.52-.26,.86Z"/><path class="k" d="M22.52,205.6c-.67-.98-.95-1.79-1.17-2.62l.3-.15,.82,1.46,.9-1.45,.23,.13c-.13,.89-.51,1.67-1.09,2.64Z"/><path class="k" d="M37.12,203.29c.05-.63,.48-.58,.83-.36,.24,.15,.43,.46,.53,.74,.24,.64-.04,1.34-.57,1.63-.43,.23-.75,.09-1.03-.25-.37-.44-.36-1.23,.02-1.72,.03-.04,.15-.02,.22-.03,.02,.42,.02,.85,.09,1.27,.02,.13,.26,.26,.42,.29,.1,.02,.27-.14,.34-.26,.34-.65,.01-1.14-.85-1.31Z"/><path class="n" d="M41.23,199.14c-.35,.05-.58,.12-.81,.11-.63-.03-.81-.3-.65-.92,.04-.14,.18-.3,.15-.42-.14-.49,.24-.61,.51-.56,.3,.06,.68,.29,.78,.54,.14,.34,.03,.77,.03,1.26Zm-1.2-.53c.17,.14,.28,.3,.39,.3,.11,0,.22-.16,.33-.25-.09-.11-.18-.29-.28-.3-.12-.01-.25,.13-.44,.25Z"/><path class="k" d="M26.8,203.59l.43,.53,.54-.57,.57,.72,.47-.64,.22,.1-.48,1.65-.73-.69-.8,.67-.5-1.63,.28-.13Z"/><path class="m" d="M30.64,196.87s-.02,.1,0,.15c-.46,.1-.66,.36-.62,.84,.03,.41,0,.83,0,1.25h-.34c-.02-.39-.05-.79-.04-1.19,.02-.48-.03-.88-.71-.94,.6-.29,1.14-.31,1.7-.11Z"/><path class="d" d="M51.94,198.3l.08-.77c.49-.09,.99-.47,1.41,.03,.4,.48,.31,1.06-.15,1.64l-.28-1.39c-.81,.21-.24,1.04-.72,1.38-.45-.21-.26-.62-.34-.93v.05Z"/><path class="m" d="M25.36,192.83v.78l-.03,.09h-.51c0-.28,.05-.56,0-.81-.03-.14-.25-.34-.38-.34-.13,0-.37,.2-.38,.33-.04,.3,.04,.6,.06,.91l-.31,.37-.31-.55v-.8c.08-.53,.4-.84,.94-.84,.54,0,.87,.31,.93,.87Z"/><path class="n" d="M51.94,198.3v-.05c-.07,.13-.14,.26-.22,.39-.51,.83-.91,.85-1.68,.11l-.06-.31,.03-.66c1-.7,1.19-.65,1.92,.52Zm-.48,.03c-.26-.22-.43-.46-.63-.5-.13-.02-.46,.31-.43,.41,.05,.22,.26,.44,.46,.55,.07,.04,.31-.24,.6-.47Z"/><path class="k" d="M30.68,192.06l.04,2.32-.59,.02v-1.87q-.42,.8-.36,1.83l-.41-.02,.04-2.27,1.28-.02Z"/><path class="k" d="M42.87,204.98c-.2,.45-.53,.57-.95,.32-.47-.27-.67-.75-.45-1.21,.14-.3,.53-.62,.85-.68,.66-.12,.94,.7,.55,1.56-.05-.23-.05-.48-.16-.68-.08-.14-.3-.24-.47-.26-.09-.01-.3,.19-.3,.28,.02,.2,.09,.48,.24,.57,.18,.11,.45,.07,.68,.09Z"/><path class="f" d="M24.67,198.63c.02,.08,.02,.15,0,.23-.27,.58-.71,.55-1.2,.34l.76-.46-.89-.45c-.07-.81,.08-.91,1.07-.73-.15,.41-.17,.79,.25,1.08Zm-.56-.72l-.19-.06c0,.06-.01,.12,0,.18,0,.02,.09,.04,.1,.02,.04-.04,.07-.09,.1-.14Z"/><path class="n" d="M26.55,198.41v-.3q.61-.63,1.38-.51l-.66,1.78-.73-.97Z"/><path class="k" d="M41.14,203.76c-.26,.37-1.07,.11-.88,.77,.07,.25,.46,.41,.77,.65-.39,.46-.76,.21-1.11-.14-.42-.43-.4-.86,.05-1.35,.41-.45,.78-.39,1.17,.07Z"/><path class="k" d="M32.91,205.08v-2.11c.55,.67,.4,1.39,.28,2.11h-.28Z"/><path class="f" d="M29.4,192.08l-.04,2.27c-.14-.03-.39-.05-.4-.08-.03-.69-.05-1.38-.03-2.06,0-.04,.3-.08,.47-.12Z"/><path class="o" d="M49.99,198.43l.06,.31c-.1,0-.29,0-.3,.03-.14,.51-.57,.36-.91,.42,0-.07,0-.13,0-.2,.5-.33,.22-.81,.25-1.24-.01-.07-.02-.13,0-.2l.5-.02c.01,.24-.01,.49,.05,.71,.02,.09,.24,.12,.36,.18Z"/><path class="k" d="M24.03,205.1v-1.44c.47,.45,.45,.93,.26,1.42h-.26Z"/><path class="f" d="M29.77,194.37q-.05-1.03,.36-1.83v1.87l-.36-.04Z"/><path class="f" d="M24.82,193.69h.51l-.67,.7-.02-.5,.17-.21Z"/><path class="p" d="M24.67,198.63c-.42-.28-.4-.67-.25-1.08l.53,.33-.28,.75Z"/><path class="i" d="M49.99,198.43c-.13-.06-.34-.09-.36-.18-.06-.22-.04-.47-.05-.71l.44,.23-.03,.66Z"/><path class="m" d="M24.64,193.89l.02,.5c-.29-.08-.57-.16-.86-.24l.31-.37,.53,.11Z"/><path class="n" d="M28.08,80.83c.02,1.95-1.48,3.53-3.41,3.58-1.97,.05-3.62-1.53-3.64-3.48-.02-1.96,1.6-3.6,3.55-3.6,1.91,0,3.48,1.57,3.5,3.5Zm-3.51-2.97c-1.67,0-3.04,1.39-3.01,3.07,.02,1.63,1.37,2.95,3.01,2.95,1.64,0,2.98-1.31,3.01-2.95,.03-1.69-1.34-3.08-3-3.08Z"/><path class="f" d="M34.49,80.72c.48-1.06,.93-1.17,1.66-.4,.14,.15,.22,.48,.48,.13v.48c-.23-.31-.42-.11-.53,.08-.51,.86-.5,.87-1.33,.51-.11-.05-.19-.13-.29-.19v-.61Z"/><path class="e" d="M34.49,80.72v.61c-.5,.36-1.01,.59-1.62,.28-.21-.61,.53-.22,.56-.33l-.63-1.06c.23-.13,.46-.36,.7-.37,.36-.01,.86,.02,.53,.65l.46,.23Z"/><path class="f" d="M32.51,81.61c-.12,.02-.23,.05-.35,.06-1.37,.1-1.62-.3-.99-1.94,.11,.39,.18,.61,.24,.83,.06,.2,.11,.4,.16,.6h.26l.31-1.3,.45,.35-.08,1.4Z"/><path class="m" d="M36.64,80.93v-.48c-.04-.98,.61-.29,.95-.65l-.65,1.85c-.51-.07-.32-.43-.3-.71Z"/><path class="e" d="M105.36,78.79c.2,.25,.45,.43,.44,.58-.01,.16-.29,.41-.45,.41-.16,0-.43-.26-.44-.41-.01-.16,.24-.33,.44-.58Z"/><path class="n" d="M105.38,81.43c-.2-.23-.45-.38-.45-.55,0-.16,.24-.33,.37-.49,.18,.16,.43,.28,.52,.48,.04,.08-.24,.32-.44,.56Z"/><path class="e" d="M105.98,82.25c-.25,.21-.42,.46-.58,.46-.17,0-.33-.24-.5-.38,.14-.16,.27-.43,.43-.45,.17-.02,.36,.2,.64,.37Z"/><path class="k" d="M32.51,81.61l.08-1.4c.07,0,.14,0,.21,0l.63,1.06c-.02,.11-.76-.28-.56,.33h-.36Z"/><path class="e" d="M24.37,71.55c-.01,1.27-1.13,2.33-2.42,2.3-1.24-.04-2.27-1.1-2.26-2.33,0-1.27,1.15-2.35,2.42-2.31,1.23,.04,2.28,1.13,2.26,2.34Zm-.55,.03c.03-.94-.74-1.78-1.68-1.84-.98-.06-1.87,.76-1.9,1.74-.03,.95,.72,1.77,1.68,1.82,1.02,.06,1.87-.71,1.9-1.73Z"/><path class="n" d="M46.7,71.36l-.64,1.39-.97-1.71-.2,1.25c-.24,.04-.5,.08-.76,.13-.54,.11-.84-.17-.99-.64-.16-.48,.08-1.1,.58-1.13,.52-.04,.66-.43,.92-.67l1.44,1.37,.33-.5,.28,.51Zm-2.06,.37v-.4c-.18-.08-.38-.25-.53-.21-.18,.04-.31,.26-.47,.4,.15,.15,.29,.37,.47,.41,.15,.04,.35-.13,.53-.21Z"/><path class="d" d="M46.7,71.36l-.28-.51c.53-.09,1.07-.27,1.6-.24,.27,.02,.71,.39,.73,.63,.03,.37-.15,.85-.41,1.12-.31,.31-.77,.15-1.07-.16-.23-.24-.38-.55-.57-.84Z"/><path class="n" d="M49.1,70.82l1.7-.59c.16,.27,.59,.45,.26,1.02-.14,.25,.08,.71,.14,1.13-1.08,.2-.64-.82-.95-1.22-1.03-.11-.29,1.01-.91,1.24-.5-.48-.16-1.07-.24-1.58Z"/><path class="n" d="M27.04,70.24c.11-.02,.22-.01,.32-.05,.1-.04,.19-.13,.28-.19,.21,.21,.38,.5,.63,.59,.92,.33,1.07,.76,.44,2.01l-.31-1.43-.21-.05-.47,1.31-.27-.02c-.03-.36-.04-.72-.09-1.08-.05-.35,.23-.81-.31-1.01v-.07Z"/><path class="n" d="M37.92,72.31q-1.61,.23-1.29-1.57c1.27-.26,1.45-.06,1.29,1.57Z"/><path class="e" d="M27.04,70.24v.07c-.47,.22-.7,.56-.64,1.12,.04,.31-.05,.64-.1,1.13-.91-.68,.13-1.99-1.39-2.26,.89-.39,1.5-.55,2.13-.05Z"/><path class="n" d="M41.48,70.71c1.35-.17,1.51,.04,1.28,1.58-1.6,.29-1.61,.28-1.28-1.58Zm.84,1.21c-.09-.11-.14-.24-.22-.26-.09-.02-.2,.06-.3,.09,.06,.1,.11,.24,.2,.3,.05,.03,.18-.07,.32-.13Z"/><path class="n" d="M33.78,70.89c.36-.34,.75-.42,1.26-.15-.04,.2-.19,.46-.12,.62,.35,.86,.2,1.14-.67,1.08-.15,0-.3-.1-.45-.16l.37-.37c.14,.02,.27,.05,.41,.07l-.23-.28c-.36-.16-.65-.37-.57-.83Z"/><path class="n" d="M30.41,70.89l1.16-.44c-.06,.44-.15,.65-.11,.83,.26,1.19,.16,1.29-1.08,1.04l.66-.45-.89-.64,.25-.34Z"/><path class="n" d="M38.42,72.31v-1.49c1.56-.46,1.82-.18,1.45,1.55-.76-.12-.07-.98-.77-1.27l-.4,1.28-.28-.07Z"/><path class="e" d="M30.41,70.89l-.25,.34-.22,1.09c-.15-.07-.43-.13-.43-.22-.04-.46-.02-.92-.02-1.41l.93,.2Z"/><path class="t" d="M33.45,72.26c-.15-.09-.43-.16-.44-.27-.04-.37,0-.75,.01-1.13l.42,.06,.05-.02-.04,1.36Z"/><path class="k" d="M29.94,72.32l.22-1.09,.89,.64-.66,.45h-.45Z"/><path class="p" d="M33.44,70.92l-.42-.06c-.04-.26-.11-.53-.08-.78,0-.09,.27-.15,.5-.27v1.11Z"/><path class="k" d="M33.45,72.26l.04-1.36,.28-.02c-.09,.46,.2,.67,.57,.83l-.18,.2-.37,.37-.35-.02Z"/><path class="n" d="M229.98,169.41c-.56,.17-1.12,.5-1.68,.5-4.3,.04-8.6,.05-12.9,0-.63,0-1.34-.29-1.87-.65-1.16-.77-1.58-2.19-1.18-3.48,.42-1.36,1.57-2.28,3.02-2.29,2.95-.03,5.89-.01,8.84-.01,1.31,0,2.63-.03,3.94,.02,.5,.02,1,.2,1.5,.3l-.33,.31c-.48-.04-.95-.1-1.43-.11-3.99,0-7.98,0-11.97,0-.28,0-.56,0-.84,.03-1.3,.15-2.31,1.27-2.37,2.6-.06,1.26,.84,2.43,2.09,2.71,.35,.08,.71,.09,1.07,.09,3.99,0,7.98,.02,11.97-.01,.62,0,1.25-.2,1.87-.31l.27,.31Z"/><path class="d" d="M229.31,164.09l.33-.31c2.53,.97,2.49,4.56,.49,5.54l-.08-.46c1.26-1.5,1.34-2.95,.2-4.08-.27-.27-.62-.46-.94-.69Z"/><path class="n" d="M230.04,168.86l.08,.46c-.03,.06-.08,.09-.15,.09l-.27-.31,.34-.23Z"/><path class="f" d="M297.78,180.96c-.55-.37-1.1-.73-1.71-1.14l-1.83,1.16c-.1-.26-.21-.43-.22-.6-.02-1.15-.03-2.31,0-3.46,.01-.76,.26-1.04,.96-1.09,.71-.04,1.43-.02,2.15,0,.49,0,.92,.24,.94,.73,.05,1.41,.02,2.83,.02,4.24l-.3,.14Zm-.36-1.05c.05-1.22,.15-2.3-.05-3.36h-2.66v3.34l1.37-.79,1.34,.81Z"/><path class="m" d="M227.39,181.43c-.95-.04-1.92-.05-2.89-.13-1.26-.1-2.25-1.27-2.2-2.55,.05-1.33,1.16-2.4,2.49-2.41,1.28,0,2.41,1,2.5,2.26,.06,.93,.07,1.86,.1,2.82Zm-.95-.79h.25l-.09-.16c0-.39-.02-.78,.04-1.17,.15-.97-.16-1.69-.95-2.11-.74-.39-1.6-.26-2.2,.33-.6,.59-.73,1.46-.33,2.19,.42,.76,1.22,1.09,2.13,.95,.38-.06,.77-.03,1.16-.04Z"/><path class="m" d="M233.82,181.14c-.19-.95-.18-1.85-.55-2.55-.35-.66-1.11-1.11-1.68-1.65-.02-.02,0-.08,0-.12,.68-.34,4.11-.63,5.58-.47-.11,.8-2.28,3.97-3.34,4.78Zm-.95-4.09q.21,.59,.98,.98l1.58-.94-.08-.17-2.48,.13Zm1.08,1.53l.29,1.45c.55-.83,.94-1.42,1.34-2.01l-.18-.2-1.44,.76Zm1.83-.8l-.08-.08s-.07,.05-.08,.08c0,.03,.05,.06,.07,.08,.03-.03,.05-.05,.08-.08Z"/><path class="m" d="M215.32,181.57c-.89-.9-1.73-1.69-2.49-2.54-.48-.54-.42-1.32,0-1.89,.44-.59,1.09-.81,1.8-.58,.22,.07,.43,.21,.68,.33,.19-.09,.39-.22,.61-.29,.77-.27,1.45-.07,1.91,.55,.45,.61,.47,1.38-.08,1.98-.74,.82-1.55,1.57-2.43,2.45Zm0-3.89c-.15-.1-.28-.18-.41-.26-.73-.45-1.17-.44-1.57,.04-.38,.46-.32,.97,.25,1.57,.54,.57,1.12,1.1,1.79,1.75,.68-.71,1.31-1.35,1.91-2.02,.35-.4,.38-.88,.02-1.3-.35-.41-.8-.5-1.28-.24-.24,.13-.45,.3-.69,.47Z"/><path class="f" d="M214.78,185.57c.97-.88,1.24-.85,2,.2,.39-.27,.76-.6,1.19-.77,.18-.07,.54,.12,.72,.29,.51,.48,.45,1.48-.06,1.94-.56,.51-1.03,.34-1.79-.66-.78,1.15-1.04,1.2-1.98,.38l-.09-1.38Zm1.01-.11q-.64,.83,.03,1.47c.52-.46,.5-.91-.03-1.47Zm2.22,.07c-.63,.78-.61,.89,.15,1.35,.35-.5,.42-.94-.15-1.35Z"/><path class="k" d="M243.89,198.16l-.38-1.12h-.25l-.41,1.25c-.45-.54-.25-1.04-.25-1.63l2.42-.37c.34,.14,.12,.55,.02,.97-.04,.18,.08,.45,.21,.61,.06,.07,.34-.06,.61-.12-.23-.43-.75-.85-.07-1.21,.38-.2,.7-.16,.82,.31,.1,.37,.16,.76,.23,1.12-.57,.89-1.4,.14-2.14,.53l-.35-1.58-.26,1.26-.21-.02Z"/><path class="f" d="M216.24,191.81c-.45,.43-.91,.75-1.57,.41-.16-.08-.4,.02-.61,.03-.43,.03-.85,.06-1.25,.09-.36-.98-.36-1.04,.1-2.07l.3,1.48,.21,.06,.43-1.33h.25l.28,1.38h.17c.03-.15,.13-.33,.08-.44-.14-.34-.16-.63,.19-.82,.41-.22,.82-.28,1.07,.25l-.77,.05-.07,.19,1.18,.55c0,.06,0,.11,0,.17Z"/><path class="k" d="M222.98,196.56l.64-.7c.4,.8,.21,1.53,.19,2.27-.47,.12-.88,.23-1.3,.32-.42,.09-.91,.01-1.02-.4-.11-.42-.01-.93,.14-1.35,.14-.39,.56-.38,.93-.26,.14,.05,.29,.08,.42,.11Z"/><path class="d" d="M223.39,185.65c.19,.02,.42,.13,.57,.06,.49-.23,.9-.16,1.33,.15,.11,.08,.35,0,.53-.02l-.05,.6c-.1,.06-.24,.09-.3,.18-.61,.97-.61,.97-1.74,.68-.07-.02-.16,.02-.23,.03-.18-.28-.36-.56-.52-.8l.41-.88Z"/><path class="e" d="M214.54,187c-.91,.7-1.09,.7-1.96-.13l1.17-.06-1-1.4c.7-.7,1.07-.68,1.81,.16-.48,.47-.05,.95-.02,1.43Zm-.77-1.21v-.17c-.13,.01-.25,.03-.38,.05,0,0,0,.08,0,.08,.13,.02,.25,.03,.38,.05Z"/><path class="k" d="M212.92,195.89c.15,.2,.31,.39,.43,.6,.14,.23,.24,.49,.38,.78,.73-.31,.45-1.91,1.86-1.24,0,.64,.36,1.36-.09,2.26-.47-.63-.09-1.32-.46-2.05l-1.09,2.14c-.87-.7-1.03-1.55-1.28-2.35l.24-.14Z"/><path class="d" d="M226.4,190.77l-.67,.11c.02,.06,.02,.13,.06,.16,.1,.06,.26,.08,.31,.16,.14,.21,.4,.56,.34,.65-.17,.22-.48,.44-.74,.45-.4,.02-.81-.13-1.29-.23v-2.21l.21-.04,.28,.99c.44-.37,.92-.77,1.5-.03Zm-1.53,1.01h1.18l-1.22-.68,.03,.68Z"/><path class="d" d="M239.46,190.81c-.08,.15-.21,.29-.23,.44-.05,.57-.27,.94-.88,1.09-.29,.07-.53,.32-.9,.56v-2.46h1.79l.22,.36Zm-.59,.54l-.56-.52c-.16,.17-.39,.33-.44,.53-.03,.13,.26,.47,.36,.45,.2-.04,.37-.25,.64-.46Z"/><path class="o" d="M235.16,191.89c.15-.31,.42-.61,.43-.92,.02-.5,.3-.61,.67-.63,.45-.02,.77,.21,.82,.67,.04,.35,0,.7,0,1.01-.72,.58-1.32,.13-1.93-.06v-.06Z"/><path class="k" d="M234.8,196.66c.54-.05,.85-.08,1.16-.1,1.45-.08,1.53,.03,1.18,1.89l-.54-1.54c-.13,.38-.2,.53-.24,.7-.05,.18-.08,.37-.3,.6l-.44-1.3c-.13,.39-.19,.55-.24,.71-.05,.18-.09,.36-.16,.67-.54-.52-.2-1.05-.41-1.63Z"/><path class="k" d="M239.86,198.18c-.05-.17-.1-.34-.15-.51-.05-.17-.09-.34-.32-.54l-.29,1.03-.2,.04-.29-1.22-.18-.03-.36,1.36c-.48-.57-.2-1.07-.34-1.62,.72-.09,1.33-.21,1.95-.22,.17,0,.45,.32,.5,.53,.08,.37,.02,.76,.02,1.15l-.32,.03Z"/><path class="k" d="M241.43,196.4c.39,0,.86,.44,.87,.83,0,.6-.45,1.25-.87,1.23-.47-.02-.99-.56-.99-1.03,0-.47,.53-1.02,.99-1.03Zm.1,1.39c-.04-.05-.07-.14-.12-.15-.06-.01-.13,.04-.19,.07l.18,.21s.09-.09,.14-.14Z"/><path class="n" d="M225.76,186.44l.05-.6c.36-.35,.86-.47,1.12-.05,.22,.36,.25,.93,.14,1.35-.05,.19-.66,.35-.99,.31-.73-.08-.11-.7-.31-1.01Z"/><path class="d" d="M227.74,190.62v-.75l.2-.02,.25,.79c.46-.06,1.01-.66,1.52,.14l-.64,.1c.02,.05,.02,.13,.06,.16,.1,.06,.24,.08,.31,.16,.15,.17,.39,.42,.35,.54-.08,.22-.32,.44-.54,.53-.18,.08-.44-.02-.58-.03-.47-.29,.45-1.2-.62-1.06-.1-.19-.21-.38-.31-.58Zm1.38,1.16v-.17c-.11,0-.24,.02-.37,.03,0,0,0,.07,0,.07,.12,.02,.24,.04,.36,.06Z"/><path class="k" d="M218.13,196.62l.48,.66,.44-.85,.64,.87,.48-.61,.2,.1-.45,1.48-.36,.19-.55-.6-.56,.53-.6-1.58,.29-.18Z"/><path class="e" d="M217.88,191.14c.45-.23,.7-1.01,1.38-.52l-.68,1.84-.52-.94c-.08,.05-.2,.08-.26,.16-.14,.19-.25,.4-.37,.6l-.67-.5,1.14-.63Z"/><path class="k" d="M229.4,198.03c-.03,.07-.05,.18-.11,.21-.53,.28-.86,.18-1.16-.34-.38-.64-.21-1.61,.35-1.93,.43-.24,.94-.09,1.23,.38,.32,.52,.22,1.07-.31,1.67-.03-.43,0-.86-.1-1.27-.04-.16-.32-.3-.52-.35-.08-.02-.29,.24-.33,.39-.18,.72,.06,1.02,.94,1.23Z"/><path class="k" d="M226.15,197.84c.14,.03,.3,.11,.41,.06,.22-.08,.4-.24,.6-.36-.21-.12-.41-.26-.63-.34-.13-.05-.29,0-.46,0v-1.25h1.27l.05,.18-.75,.36c1.03,.62,1.28,1,.93,1.46-.16,.21-.43,.41-.68,.44-.26,.03-.55-.13-.83-.21l.07-.34Z"/><path class="m" d="M223.39,185.65l-.41,.88c.15,.23,.33,.51,.52,.8-.5-.03-.99-.06-1.49-.1,.03-.74,.07-1.49,.1-2.23l.68,.76,.6-.11Z"/><path class="k" d="M217.64,197.43l-1.22,.28,1,.37c-.28,.4-.6,.51-1.01,.23-.46-.32-.6-.79-.37-1.26,.13-.28,.51-.62,.77-.62,.51,0,.85,.35,.82,1Z"/><path class="e" d="M222.2,189.95l-.78,.37c-.04,.59-.08,1.2-.14,2.01-.5-.5-.32-.94-.34-1.32-.04-.65-.03-.65-.7-1.15,.72-.15,1.34-.3,1.94,.12v-.04Z"/><path class="n" d="M232.55,192.16c-1.14,.16-1.48,.06-1.53-.4-.07-.64,.46-.66,1.17-.82l-.94-.13c.39-.46,.56-.56,.86-.4,.77,.41,.39,1.09,.45,1.75Zm-.44-.38l.18-.28c-.15-.04-.31-.14-.45-.12-.13,.02-.24,.15-.36,.24,.09,.11,.15,.29,.26,.32,.1,.03,.25-.1,.37-.16Z"/><path class="d" d="M243.05,191.08c.15-.2,.26-.45,.46-.58,.71-.47,1.43-.08,1.47,.78,.01,.3-.05,.59-.09,.98-.08-.1-.56-1.35-.57-1.4-.91,.1-.22,.96-.72,1.31l-.55-.6v-.48Z"/><path class="n" d="M243.05,191.08v.48c-.64,.95-.77,.97-1.71,.25v-.99c.95-.7,1.08-.68,1.71,.25Zm-.3,.29c-.19-.22-.38-.54-.46-.52-.21,.07-.38,.29-.57,.44,.16,.18,.3,.41,.51,.52,.07,.04,.3-.25,.52-.44Z"/><path class="k" d="M232.46,196.78l-.89,.68,.86,.63c-.2,.43-.53,.52-.97,.2-.51-.37-.58-1.11-.14-1.57,.4-.41,.78-.44,1.14,.07Z"/><path class="m" d="M217.88,191.14l-1.14,.63,.67,.5c-.52,.18-.92,.05-1.17-.46,0-.06,0-.11,0-.17,0-.24,.01-.48,.02-.72,.69-.6,.82-.61,1.29-.07-.27,.04-.53,.09-.93,.15,.64,.61,.72,.05,.94-.15l.32,.3Z"/><path class="k" d="M222.11,185c-.03,.74-.07,1.49-.1,2.23l-.45,.05c-.01-.39,.01-.79-.06-1.17-.02-.12-.31-.19-.48-.28l-.25-.49c-.07-.06-.08-.12-.05-.2l1.39-.13Z"/><path class="d" d="M235.16,191.89v.06c-.34,.45-.71,.47-1.11,.09-.38-.36-.42-.89-.12-1.3,.33-.44,.64-.46,1.32-.05-.11,.06-.19,.15-.27,.15-.38,0-.77,0-.73,.53,.03,.41,.33,.49,.7,.44,.07,0,.14,.05,.21,.08Z"/><path class="n" d="M239.46,190.81l-.22-.36,.55-.5,.39,.63c-.02,.07-.03,.14-.02,.22-.31,.38-.22,.76,0,1.13v.29c-.45,.15-.57-.14-.63-.48-.05-.31-.05-.63-.08-.94Z"/><path class="d" d="M222.73,190.31c1.29,.11,1.45,.39,.96,2.02-.11-.34-.19-.53-.23-.73-.04-.23-.05-.46-.07-.75l-.61,.08-.04-.62Z"/><path class="k" d="M224.54,196.02v2.12c-.61-.68-.32-1.4-.37-2.11h.37Z"/><path class="i" d="M241.34,190.83v.99l-.39,.24c0-.38-.03-.76-.02-1.14,0-.33-.15-.49-.48-.49l.05-.69c.86,0,.43,.85,.84,1.09Z"/><path class="o" d="M240.45,190.43c.33,0,.48,.16,.48,.49,0,.38,.02,.76,.02,1.14l-.79,.17v-.29c.41-.38,.42-.76,0-1.13,0-.07,0-.15,.02-.22l.27-.16Z"/><path class="m" d="M220.73,185.13c-.03,.08-.02,.15,.05,.2-.08,.66-.15,1.32-.23,1.98,0,0-.07,0-.21,0-.26-.7-.19-1.44-.03-2.18,0-.03,.27,0,.42,0Z"/><path class="f" d="M221.02,185.83c.17,.09,.45,.16,.48,.28,.07,.38,.05,.78,.06,1.17-.2,.17-.45,.28-.5-.07-.07-.45-.02-.92-.03-1.38Z"/><path class="e" d="M227.74,190.62c.1,.19,.21,.38,.31,.58-.02,.29-.04,.57-.07,.86l-.25-.02v-1.42Z"/><path class="m" d="M222.73,190.31l.04,.62-.12,1.1c-.06,0-.12,0-.18,0-.09-.69-.18-1.39-.27-2.08l-.02,.04c.29-.08,.62-.22,.54,.32Z"/><path class="p" d="M216.26,190.91c0,.24-.01,.48-.02,.72-.39-.18-.78-.37-1.17-.55l.07-.19,.77-.05,.36,.07Z"/><path class="k" d="M233.15,198.11c-.6-.57-.6-.79,0-1.36,.05,.05,.09,.1,.14,.14,0,.36,0,.72,0,1.08-.05,.05-.09,.09-.14,.14Z"/><path class="k" d="M214.54,187c-.03-.48-.46-.96,.02-1.43,.07,.01,.15,.01,.22,0l.09,1.38-.33,.06Z"/><path class="k" d="M234.03,198.11c-.3,.58-.59,.29-.88,0,.04-.05,.09-.09,.13-.14,.21,0,.41,0,.62,0,.04,.05,.08,.09,.12,.14Z"/><path class="k" d="M233.15,196.75c.29-.29,.58-.59,.88,0-.04,.05-.08,.09-.12,.14h-.61s-.09-.09-.14-.14Z"/><path class="k" d="M234.27,196.99v.88c-.05-.05-.1-.09-.15-.13,0-.2,0-.41,0-.61,.05-.04,.1-.09,.15-.13Z"/><path class="e" d="M222.47,192.04c.06-.01,.12-.01,.18,0l-.09,.16-.09-.16Z"/><path class="k" d="M234.27,197.87c-.08,.08-.16,.16-.25,.25-.04-.04-.08-.09-.12-.14,.07-.08,.14-.16,.21-.24,.05,.04,.1,.09,.15,.13Z"/><path class="k" d="M234.02,196.75c.08,.08,.16,.16,.25,.24-.05,.04-.1,.09-.15,.13-.07-.08-.14-.16-.22-.24,.04-.05,.08-.09,.12-.14Z"/><path class="d" d="M227.74,192.03l.25,.02-.13,.17-.11-.19Z"/><path class="n" d="M215.89,70.37c2.01,0,3.57,1.57,3.55,3.58-.02,1.94-1.57,3.47-3.52,3.48-1.99,.01-3.58-1.59-3.55-3.58,.02-1.93,1.6-3.48,3.53-3.48Zm-.03,6.52c1.71,.02,3.06-1.3,3.05-2.98,0-1.7-1.34-3.03-3.02-3.03-1.63,0-2.95,1.3-3,2.94-.05,1.69,1.27,3.06,2.97,3.07Z"/><path class="f" d="M224.16,73.05c.44-.13,.89-.4,1.32,.08l-.51,.47,.71,.11c.04-.59,.5-.87,.95-.83,.4,.04,.77,.41,1.2,.66,.02-.8,.55-.64,1.06-.54l-.71,1.86-.42-1.03c-.12,.08-.26,.11-.3,.2-.35,.82-.44,.91-1.14,.63-.37-.14-.63-.16-1-.02-.35,.13-.77,.05-1.16,.06-.15-.78,.57-.27,.82-.58-.55-.15-1-.39-.83-1.07Z"/><path class="f" d="M223.82,74.68c-.12,0-.24,.02-.35,.03-1.38,.07-1.63-.35-.94-2.01l.33,1.48c.6,0,.44-.43,.45-.74,.02-.39,.1-.65,.56-.39l-.05,1.64Z"/><path class="n" d="M297.28,72.41c-.25,.19-.42,.42-.59,.41-.17,0-.33-.24-.49-.38,.17-.17,.31-.42,.52-.48,.12-.03,.32,.25,.56,.45Z"/><path class="e" d="M297.29,73.92c-.28,.17-.49,.38-.65,.36-.16-.02-.29-.29-.43-.46,.17-.14,.34-.38,.51-.38,.16,0,.32,.26,.57,.48Z"/><path class="e" d="M297.28,75.47c-.32,.13-.55,.31-.71,.26-.15-.05-.23-.33-.34-.51,.19-.11,.39-.31,.56-.29,.16,.02,.28,.29,.49,.54Z"/><path class="i" d="M223.82,74.68l.05-1.64h.28c-.17,.69,.28,.92,.83,1.08-.25,.31-.97-.2-.82,.58l-.34-.02Z"/><path class="t" d="M327.44,80.46c.63-.4,.85-.35,.98,.25l-.98-.25Z"/><path class="m" d="M310.99,176.39c.61,.16,1.2,.16,1.85,.12,1.2-.07,2.41-.02,3.62-.02,1.51,0,2.51,1.56,2.28,3.18-.19,1.32-1.59,2.38-2.98,2.15-.68-.12-1.29-.01-1.95,.03-1.2,.08-2.43,.15-3.62,.06-1.6-.12-2.66-1.93-2.2-3.47,.04-.13,.24-.2,.37-.3,.51,.31,.04,.7,.06,1.05,.07,1.02,.76,1.92,1.76,2.15,1.05,.24,2.08-.3,2.54-1.31,.41-.91,.08-2.02-.8-2.63-.23-.16-.53-.23-.72-.41-.14-.13-.15-.38-.22-.58Zm2.51,2.16v-.07l-.09,1.24,1.18,.17c-.26,1.06-1.44,.57-1.9,1.28,1.14,.29,1.86,.04,2.41-.79,.55-.82,.52-1.73-.1-2.54-.56-.72-1.35-.94-2.28-.61,.26,.44,.52,.88,.77,1.31Zm1.88,2.52c1.2,.36,2,.08,2.56-.85,.5-.82,.39-1.79-.27-2.53-.62-.7-1.42-.84-2.19-.47,.25,.84,.48,1.65,.75,2.56h1.06c-.15,1.22-1.47,.56-1.92,1.29Z"/><path class="i" d="M310.99,176.39c.07,.2,.08,.46,.22,.58,.19,.18,.49,.25,.72,.41,.88,.61,1.21,1.72,.8,2.63-.46,1.02-1.49,1.55-2.54,1.31-1-.22-1.69-1.13-1.76-2.15-.02-.35,.45-.74-.06-1.05h.04c.12-.03,.24-.07,.36-.11l-.12-.36h0c.15-.02,.35,.02,.43-.06,.08-.08,.04-.28,.05-.43h0c.6,.25,.99-.19,1.44-.44,.01,0-.07-.18-.11-.28l.54-.07Zm-1.76,3.43c.5,.8,1.05,1.04,1.71,.92,.48-.08,.99-.24,1.02-.92h-2.73Zm2.84-1.15c-.21-.16-.34-.33-.43-.31-.15,.03-.27,.19-.4,.29,.09,.11,.19,.31,.28,.3,.16-.01,.3-.15,.55-.28Zm-1.85,0c-.19-.15-.3-.3-.41-.29-.12,0-.24,.14-.36,.21,.11,.12,.21,.29,.35,.35,.06,.03,.22-.13,.42-.27Z"/><path class="m" d="M334.83,181.34c-.09-.45-.24-.9-.24-1.35-.02-.84-.4-1.41-1.08-1.86-.35-.23-.65-.55-1-.85,.83-.5,4.66-.79,5.88-.45-1.09,1.55-2.15,3.06-3.21,4.56l-.35-.06Zm1.74-3.28l-1.59,.84c.08,.46,.15,.85,.25,1.46,.51-.71,.86-1.19,1.19-1.67,.11-.16,.18-.34,.27-.51l.12-.19-.25,.08Zm-.13-.6l-.03-.24c-.85,.12-1.72,.1-2.79,.3l1.14,.89,1.68-.95Z"/><path class="m" d="M328.33,181.89c-.33-.06-.59-.13-.85-.16-.46-.05-.93-.15-1.38-.1-1.52,.17-2.82-.85-2.89-2.33-.06-1.38,1.04-2.57,2.4-2.61,1.48-.04,2.68,1.19,2.52,2.7-.07,.66-.06,1.25,.19,1.86,.06,.16,0,.37,0,.64Zm-.89-.95c.03-.47,.04-.93,.1-1.38,.12-.89-.28-1.71-1.04-2.07-.7-.33-1.55-.21-2.1,.31-.61,.57-.77,1.43-.41,2.18,.37,.79,1.11,1.15,2.06,1.04,.46-.05,.92-.06,1.39-.08Z"/><path class="m" d="M393.39,181.26c-.31-.19-.6-.36-.88-.54-.3-.19-.58-.4-.88-.6l-2,1.3c-.02-.75-.04-1.24-.04-1.74,0-.83-.03-1.67,0-2.5,.03-.68,.27-.92,.95-.95,.71-.03,1.43,0,2.14,0,.45,0,.76,.18,.91,.61,.15,.43,.02,3.76-.2,4.43Zm-.32-.86c0-1.34,.08-2.46-.04-3.54h-2.84v3.46l1.47-.86c.44,.29,.83,.55,1.41,.94Z"/><path class="d" d="M335.22,186.92c-.66,.49-1.32,.98-2.03,1.51l-.3-.71c-.58-.07-1.23,.37-1.79-.15-.05-.04-.26,.09-.4,.15-.51,.24-.93,.15-1.24-.32-.27-.42-.23-.85,.11-1.2,.38-.39,.81-.47,1.34,.08-.3,.03-.54-.02-.67,.08-.19,.14-.3,.39-.44,.59,.2,.13,.4,.35,.61,.38,.35,.04,.72-.04,.79-.51,.65-.28,.17,.86,.87,.59v-.98l-.71-.38c.59-.6,1.1,.41,1.69,.09,.55-.29,1.11-.34,1.65,.06,.06,.04,.21-.05,.32-.08l.19,.81Zm-1.42,.68c.26-.34,.5-.53,.48-.67-.03-.22-.25-.4-.4-.6-.12,.13-.35,.26-.35,.39,0,.23,.13,.46,.26,.88Z"/><path class="f" d="M311.79,186.83c.38-.89,.65-1.11,1.24-.78,.44,.25,.71,.31,1.1-.03,.14-.12,.45-.02,.7-.02l-.61,1.81-.57-.66c-.27,.22-.51,.54-.82,.62-.23,.06-.54-.19-.81-.31l-.23-.64Z"/><path class="n" d="M311.79,186.83l.23,.64c-.14-.01-.36-.09-.41-.02-.4,.47-.86,.44-1.39,.26-.25-.08-.56,0-.85,0l-.04-.62-.02-.04,.3-1c.24,0,.49,.07,.71,0,.79-.24,.78-.25,1.01,.63,.02,.08,.3,.1,.45,.15Z"/><path class="d" d="M338.57,186.58c.56,.13,.34-.82,1.06-.68,.63,.13,.89,.1,.93,.73,.03,.36-.03,.72-.05,1.09h-.26l-.36-1.42c-.65,.35-.23,1.02-.59,1.4l-.74-.52v-.61Z"/><path class="o" d="M318,185.6c.11-.04,.27-.14,.34-.1,.15,.09,.24,.29,.4,.36,.99,.44,1.1,.76,.55,2.01l-.35-1.54c-.84,.21-.18,1.07-.84,1.42-.25-.65-.13-1.29-.11-1.92,0-.08,0-.16,0-.23Z"/><path class="o" d="M323.94,187.46l.75-.24c-.24-.2-.44-.36-.63-.54-.05-.05-.06-.14-.1-.26,.26-.52,.64-.72,1.24-.36,.01,.25-.04,.54,.06,.76,.14,.32,.26,.59-.05,.84-.4,.32-.79,.29-1.28-.2Z"/><path class="o" d="M320.61,186.28c.27-.14,.54-.35,.82-.38,.14-.02,.34,.29,.47,.48,.05,.07-.07,.24-.02,.32,.19,.31,.42,.62,.05,.95-.38,.35-.8,.24-1.21,.03-.04-.7,.76,.11,.8-.33l-.91-1.06Z"/><path class="d" d="M326.72,186.32c.17-.49,.56-.57,.93-.36,.22,.13,.39,.46,.46,.73,.08,.29,.02,.62,.02,.92-1.41,.37-1.57,.28-1.48-.8,.66-.3,.16,.91,.93,.56l-.07-1.05h-.79Z"/><path class="n" d="M338.57,186.58v.61c-.7,.85-.89,.86-1.7,.09v-.77c.23-.45,.58-.72,1.11-.53,.07,.03,.09,.2,.13,.3-.22,.04-.53,0-.65,.13-.15,.16-.19,.47-.16,.71,.01,.12,.37,.32,.42,.29,.19-.15,.37-.35,.46-.57,.06-.15-.04-.37-.07-.56l.45,.3Z"/><path class="d" d="M318,185.6c-.01,.08-.02,.16,0,.23-.28-.02-.56-.04-.89-.06l-.11,2.09c-.58-.41-.46-.83-.44-1.17,.03-.54-.08-.97-.68-1.21,.78-.24,1.47-.37,2.13,.11Z"/><path class="k" d="M335.68,185.84c.09-.07,.17-.16,.27-.21,.18-.1,.36-.17,.54-.26l-.05,.69-.31,1.46h-.3c-.42-.26-.34-.65-.27-1.03,.04-.22,.08-.43,.12-.65Z"/><path class="f" d="M309.33,187.08l.04,.62c-1.26,.12-1.48-.23-.86-1.73l.31,1.28,.51-.17Z"/><path class="e" d="M335.68,185.84c-.04,.22-.09,.43-.12,.65-.07,.38-.15,.77,.27,1.02-.56,.31-.62,.25-.61-.58-.06-.27-.13-.54-.19-.81,.13-.31,.18-.79,.66-.28Z"/><path class="o" d="M320.38,187.73c-.13-.05-.36-.09-.38-.16-.12-.55-.17-1.11,.16-1.75l.29,.47-.07,1.45Z"/><path class="k" d="M331.37,186.04l.71,.38v.98c-.7,.27-.22-.87-.87-.59l.17-.77Z"/><path class="d" d="M323.37,187.67v-1.58c.54,.5,.43,1.04,.29,1.58h-.29Z"/><path class="k" d="M326.72,186.32h.79l.07,1.05c-.77,.35-.27-.87-.93-.56l.07-.49Z"/><path class="i" d="M320.38,187.73l.07-1.45c.05,0,.1,0,.15,0l.91,1.06c-.04,.44-.83-.37-.8,.33l-.34,.05Z"/><path class="m" d="M310.45,176.46c.04,.1,.12,.27,.11,.28-.44,.25-.84,.69-1.44,.44,.02-.12,0-.32,.06-.33,.42-.15,.84-.26,1.27-.38Z"/><path class="k" d="M336.86,186.51v.77l-.44,.44,.14-1.2h.31Z"/><path class="e" d="M336.56,186.52l-.14,1.2-.29-.21,.31-1.46,.12,.47Z"/><path class="f" d="M309.62,186.05l-.3,1c.08-.34-.28-.81,.3-1Z"/><path class="m" d="M309.12,177.18c-.01,.15,.03,.35-.05,.43-.08,.08-.28,.04-.43,.05,0-.13-.04-.32,.02-.36,.12-.08,.3-.08,.45-.11Z"/><path class="m" d="M308.63,177.67l.12,.36c-.12,.04-.24,.08-.36,.12-.04-.12-.14-.26-.1-.35,.03-.08,.22-.09,.33-.12Z"/><path class="n" d="M311.43,77.78c-1.94-.06-3.54-1.77-3.44-3.7,.09-1.91,1.74-3.46,3.62-3.4,1.94,.06,3.55,1.78,3.46,3.7-.09,1.89-1.76,3.46-3.63,3.41Zm-.07-.54c1.66,.1,3.12-1.21,3.21-2.88,.09-1.63-1.27-3.1-2.94-3.17-1.6-.07-3.01,1.21-3.13,2.84-.13,1.65,1.18,3.11,2.87,3.21Z"/><path class="e" d="M320.92,74.06l.31,.16c.53-.94,.94-1.22,1.47-.95,.88,.45,.32,1.09,.16,1.8-.35-.06-.82,0-1.06-.2-.41-.35-.63-.02-.93,.08l.05-.89Z"/><path class="e" d="M319.43,74.95c-.15,.02-.31,.05-.46,.06-.38,.02-.85,.25-1.06-.24-.22-.5-.27-1.05,.25-1.72l.34,1.44c.57-.05,.4-.45,.42-.73,.02-.32,.09-.55,.49-.48l.02,1.67Z"/><path class="f" d="M320.92,74.06l-.05,.89h-.98l.7-.45c-.28-.3-1.1-.42-.61-1.18l.9-.06c.56,.43-.6,.45,.04,.79Z"/><path class="f" d="M323.81,75.11c-.5-.61-.18-1.19-.32-1.79h1.02l-.69,1.79Z"/><path class="k" d="M319.97,73.32c-.49,.76,.33,.88,.61,1.18l-.7,.45h-.45l-.02-1.67,.56,.04Z"/><path class="e" d="M392.81,72.67c-.24,.21-.39,.47-.55,.47-.16,0-.32-.24-.49-.38,.14-.16,.26-.42,.42-.45,.16-.02,.35,.19,.62,.36Z"/><path class="e" d="M392.81,75.63c-.24,.21-.4,.46-.55,.45-.16,0-.43-.24-.45-.39-.01-.15,.23-.42,.39-.44,.16-.02,.35,.21,.61,.38Z"/><path class="e" d="M392.19,73.62c.21,.24,.46,.4,.45,.55,0,.16-.25,.32-.39,.48-.16-.14-.42-.26-.44-.43-.02-.15,.2-.34,.38-.6Z"/><path class="i" d="M308.73,172.51l.5-.13c.45,.72,1.04,1.27,1.85,1.56l-.02,.34c-1.12-.14-1.87-.77-2.33-1.78Z"/><path class="i" d="M308.91,169.53h.65l-.42,.72-.55-.03,.32-.69Z"/><path class="i" d="M310.08,168.99v-.61l.73-.27v.46l-.73,.42Z"/><path class="s" d="M146.3,212.65c.1-8.43,8.53-14.23,16.41-11.29,.3,.11,.61,.22,.87,.39,.48,.31,.64,.87,.43,1.36-.21,.48-.73,.76-1.28,.63-.27-.06-.52-.2-.78-.29-5.54-1.99-11.54,1.09-13.06,6.71-1.53,5.66,2.04,11.33,7.82,12.43,5.82,1.11,11.36-3.25,11.72-9.24,.03-.44,0-.88,.02-1.32,.05-.92,.46-1.39,1.16-1.36,.66,.03,1.08,.48,1.06,1.33-.03,1.11-.04,2.25-.27,3.33-1.29,6.23-7.05,10.28-13.5,9.54-6.02-.68-10.68-6.05-10.6-12.22Z"/><path class="s" d="M158.38,213.49c.41-.39,.71-.65,.98-.93,2.93-2.93,5.85-5.86,8.78-8.79,.25-.25,.5-.52,.79-.73,.47-.34,1.02-.28,1.41,.13,.37,.39,.45,.84,.16,1.31-.14,.23-.35,.43-.54,.63-3.43,3.44-6.86,6.88-10.31,10.31-1.01,1-1.33,.99-2.36-.02-.83-.81-1.64-1.62-2.46-2.44-.17-.17-.35-.33-.49-.52-.4-.53-.38-1.08,.04-1.51,.42-.43,.99-.48,1.51-.06,.43,.35,.81,.77,1.19,1.17,.43,.46,.85,.94,1.31,1.45Z"/><path class="d" d="M195.51,242.81c-.15,.65,.33,.93,.74,1.29-.59-.32-1.26,.59-1.95-.2l.84-.18-1.01-.71c-.63,.51-.42,1.67-1.5,1.91,.62-.77,.13-1.35-.24-2.14l-.19,1.4c-.37-.02-.75-.05-1.14-.08,.31-.14,.66-.26,.24-.87l-.25,.86c-.35-.24-.63,0-.96,.1-.77,.23-1.28-.01-1.43-.61-.15-.61,.12-.97,.9-1.26,.23-.08,.41-.28,.7-.48,.12,.2,.25,.41,.37,.62,.96-.07,1.97-.35,2.63,.73,.57-.84,1.31-.92,2.15-.66v.25l-.4,.15,.09,.16,.44-.29h-.02Zm-5.95-.16c-.2,.28-.44,.48-.41,.62,.04,.2,.28,.36,.43,.54,.12-.17,.31-.34,.32-.51,0-.17-.18-.35-.34-.64Z"/><path class="o" d="M137.74,244.13q-.71,.13-1.31-.23l-1.53,.45c0-.48,.08-.79-.02-1.02-.14-.32-.26-.59,.07-.84,.32-.25,.66-.25,.98,.01,.12,.1,.23,.19,.34,.28q1.09-.63,1.94,.17c.35-.22,.68-.57,1.04-.6,.32-.02,.67,.33,.98,.5,.2-.13,.45-.34,.74-.45,.2-.08,.52-.1,.68,.01,.68,.46,.37,1.1,.31,1.77-.71-.28-.16-1.02-.63-1.35-.79,.15-.13,1.03-.69,1.38l-.34-.85-1.26,.24v.12l.92,.13c-.08,.14-.13,.32-.17,.31-.37-.02-.74-.07-1.11-.12-.24-.04-.48-.1-.72-.16v.02l.3-.21-.05-.17-1.07,.05v.21l.57,.03,.06,.32Zm-2.66-.57v.17c.12,0,.24-.01,.37-.03,0,0,0-.07,0-.07-.12-.03-.25-.05-.37-.07Zm1.1-.36l-.08-.14s-.07,.06-.07,.07c.01,.05,.04,.1,.07,.15l.07-.08Z"/><path class="f" d="M131.97,250.79l-1.03-.23c-.49,.05-1.01,.68-1.57,.16-.35-.33-.48-.89-.7-1.32-.62,.54-.31,1.97-1.69,2.18,.84-.95-.17-1.73-.19-2.6,.73-.18,.57,.56,.99,.78l.52-.86c.37,.05,.67,.43,1.13,.09,.63-.46,1.09,.09,1.49,.56l.63-.9c.08,.6,.14,.92,.15,1.24,.02,.38,.24,.46,.56,.41l-.29,.49Zm-1.56-.91c-.24-.2-.41-.46-.56-.44-.16,.02-.42,.28-.42,.44,0,.16,.25,.42,.41,.44,.15,.02,.32-.24,.56-.44Z"/><path class="f" d="M181.36,232.85c.39,.5,.17,1.03,.21,1.52,.04,.47-.02,.96,.05,1.43,.1,.63,.57,.98,1.17,.96,.61-.03,1.04-.39,1.09-1.04,.05-.71,0-1.43,.03-2.14,0-.24,.12-.47,.19-.71,.16,.05,.23,.06,.23,.08,.4,1.23,.43,2.48-.1,3.65-.33,.74-1.13,.81-1.88,.7-.7-.1-1.25-.51-1.32-1.19-.1-1.02-.02-2.05,0-3.08,0-.04,.13-.07,.32-.17Z"/><path class="f" d="M172.04,237.15c-.65,.25-1.26,.22-1.72-.37-.46-.59-.49-1.26-.21-1.92,.61-1.43,1.79-.61,2.82-.67,0,1.03,.04,2.06-.01,3.09-.03,.68-.46,1.07-1.13,1.2-.73,.15-1.15-.03-1.57-.72,.72-.03,1.6,.77,2.06-.35,.01-.11,.02-.21,.03-.32l-.28,.05Zm.33-1.51c0-.75-.3-1.12-.89-1.12-.55,0-.96,.49-.96,1.14,0,.65,.42,1.13,.97,1.12,.59,0,.88-.39,.88-1.13Z"/><path class="f" d="M190.13,250.71c-.68,.52-1.15-.09-1.67-.37-.46,1.29-.71,1.43-1.89,1.06,.01-.26,.13-.6,.02-.77-.37-.54-.42-1.03,.01-1.52,.34-.39,1.01-.35,1.71,.06,.07,.04,.13,.08,.25,.15,.56-.4,1.19-.87,1.78,0,.02,.33,.03,.63-.44,.64-.22,0-.45,.11-.89,.23l1.12,.51Zm-2.24-.79c-.25-.23-.42-.5-.55-.49-.17,.02-.36,.26-.43,.44-.03,.08,.21,.38,.34,.38,.18,0,.36-.17,.65-.33Zm1.94-.28l-.02-.24-.57,.04,.02,.23,.57-.03Z"/><path class="d" d="M160.65,243.71q-.69,.69-1.48,.17l.8-.16-.87-.61c-.57,1.43-1.04,1.53-2.04,.52l-1.88,1.2v-2.26q1.11-.32,1.8,.45,.93-.88,1.94-.24c.45-.3,.94-.74,1.54-.22-.22,.11-.45,.21-.42,.2l.61,.95Zm-2-.42c-.28-.22-.52-.49-.59-.45-.19,.1-.39,.32-.44,.52-.02,.11,.29,.43,.4,.41,.2-.04,.37-.26,.63-.48Zm-2.13,.03c-.2-.21-.33-.46-.49-.48-.13-.02-.43,.27-.42,.37,.03,.21,.24,.39,.38,.59l.53-.48Z"/><path class="e" d="M185.49,234.19c.42-.06,.76-.09,1.09-.15,.71-.13,1.23,.03,1.56,.57,.4,.67,.42,1.37,.03,2.05-.32,.57-.81,.76-1.54,.63-.18-.03-.36-.11-.51-.16-.24,.45,.16,1.04-.44,1.32-.34-.73-.41-2.32-.19-4.25Zm.52,1.44c0,.77,.28,1.16,.86,1.15,.54,0,.96-.51,.94-1.16-.01-.59-.39-1.06-.89-1.09-.58-.04-.91,.35-.92,1.1Z"/><path class="f" d="M162.53,236.42c-.92,1.09-2.21,1.2-3.14,.33-.89-.84-.94-2.32-.12-3.23,.89-.98,2.17-.95,3.21,.1-.2,.51-.45,.21-.73,.07-1.04-.54-1.95-.22-2.31,.78-.25,.71-.11,1.34,.4,1.86,.51,.51,1.09,.55,1.86,.18,.17-.08,.34-.17,.52-.23,.05-.02,.13,.06,.3,.15Z"/><path class="m" d="M153.79,237.19c-.86,.12-.74-.58-1.15-.84h-1.83l-.92,1.08c-.1-.32-.18-.45-.15-.53,.45-1.15,.91-2.3,1.39-3.43,.1-.23,.39-.57,.51-.54,.25,.07,.54,.3,.65,.54,.52,1.19,.98,2.41,1.5,3.71Zm-1.2-1.47l-.88-2.23-.88,2.23h1.76Z"/><path class="o" d="M153.08,255.69l-.62,1.78-.73-.8-.57,.79-.69-1.21c-.12,.18-.31,.32-.31,.48-.02,.59-.33,.78-.85,.68-.48-.1-.77-.44-.8-.92-.03-.49,.23-.92,.69-.99,.5-.08,1.05,0,1.55,.12,.17,.04,.28,.36,.44,.58l.45-.65q.65,.5,1.44,.15Zm-3.85,1.05v.14h.61v-.14h-.61Z"/><path class="e" d="M140.15,234.07c.32,.99,.11,2.02,.12,3.02-.5,.08-.94,.16-1.38,.23-.78,.11-1.25-.23-1.29-1-.04-.73,0-1.47,0-2.21l.27-.06c.11,.15,.31,.3,.33,.46,.05,.43,.02,.87,.02,1.31,0,.45-.02,.92,.62,.95,.54,.03,.84-.33,.86-1.02,.01-.4-.02-.8,.01-1.19,.01-.17,.13-.33,.21-.49l.25,.02Z"/><path class="e" d="M165.01,235.28q-.29-.79-1.82-.56c.3-.73,.87-.79,1.46-.74,.62,.05,1.01,.46,1.05,1.1,.04,.67,0,1.34,0,2.03-.48,.08-.88,.17-1.3,.22-.76,.09-1.34-.31-1.41-.95-.08-.69,.46-1.19,1.31-1.18,.22,0,.44,.06,.69,.1Zm.45,1c-.52-.31-.77-.56-1.06-.62-.43-.1-.85,.27-.79,.64,.06,.43,.39,.62,.77,.54,.29-.06,.56-.28,1.09-.57Z"/><path class="f" d="M163.11,250.47c-.14,.14-.27,.36-.44,.41-.11,.03-.37-.16-.41-.31-.12-.36-.16-.74-.43-1.13-.05,.22-.1,.45-.15,.67-.05,.24-.1,.49-.17,.82-.69-.38-.18-1.06-.63-1.47-.87,.09-.13,1.06-.71,1.36l-.73-.71v-.33q.36-.27,.51-.85l1.92,.09,.6-.71,.61,.97c-.51,.56-.51,.68,.02,1.2Z"/><path class="e" d="M166.96,233.95c.09,.33,.18,.53,.19,.74,.02,.44,0,.87,.01,1.31,0,.39,.12,.71,.56,.77,.44,.06,.86-.26,.91-.73,.04-.39,0-.79,.02-1.19,.01-.25,.08-.51,.13-.82,.56,.5,.64,1.39,.36,3.08-.41,.06-.81,.12-1.21,.19-.9,.15-1.34-.2-1.37-1.14-.02-.63,.02-1.26,.05-1.89,0-.05,.1-.1,.34-.31Z"/><path class="f" d="M132.18,237.29c-.07-.23-.24-.48-.21-.7,.13-.95-.27-1.68-.82-2.38-.28-.36-.51-.77-.89-1.35,1.3,.16,1.3,1.38,2.02,1.81,.72-.45,.74-1.59,1.86-1.84-.23,.91-.94,1.44-1.22,2.16-.28,.72-.35,1.52-.51,2.29h-.25Z"/><path class="f" d="M135.32,233.97c.89,.01,1.59,.81,1.55,1.77-.04,.92-.72,1.6-1.6,1.59-.87-.01-1.54-.72-1.56-1.63-.02-.95,.72-1.74,1.6-1.73Zm.95,1.67c-.01-.64-.42-1.12-.96-1.13-.58,0-1.02,.54-.98,1.22,.03,.63,.47,1.09,1.02,1.06,.54-.03,.93-.52,.92-1.16Z"/><path class="f" d="M192.56,248.82l.41-.5c.28,.32,.53,.6,.85,.97,.57-.42,1.21-.72,1.8-.02l.04,.67-1.14,.15v.21l1.06,.21c-.12,.1-.22,.23-.35,.3-.51,.26-.89-.23-1.32-.26-.33-.02-.67,.56-1.12,.13l-.23-1.87Zm2.52,.85l.02-.23-.57-.04-.02,.24,.57,.04Zm-1.42-.16l-.31-.02,.05,.79h.26v-.77Z"/><path class="f" d="M139.78,249.53l-.55-.05-.26,1.37h-.22l-.4-.87c-.84,1.12-.93,1.14-2.32,.39v-1l-.03,.02c.07,.02,.17,.07,.21,.04,1.14-.85,1.29-.83,2.18,.37l.25-.86c.55,.18,1.3-.52,1.68,.45-.04,.04-.07,.08-.09,.14h-.44Zm-2.61,.98c.2-.26,.47-.46,.44-.59-.06-.21-.3-.37-.47-.55-.14,.17-.37,.34-.38,.51,0,.17,.22,.35,.41,.62Z"/><path class="f" d="M172.65,249.52l-.53,1.57-.78-.89-.65,.7c-.58-.66-.64-.81-.76-2.09l.8,.6,.62-.57,.53,.6,.76-.46v.54Z"/><path class="f" d="M147.66,235.89h-2.51l.83,1.15c-.86,.04-1.32-.41-1.36-1.29-.04-.93,.68-1.76,1.54-1.78,.85-.02,1.38,.61,1.5,1.92Zm-.57-.51c-.09-.59-.39-.92-.92-.9-.48,.02-.89,.25-.83,.9h1.75Z"/><path class="o" d="M180.77,244.02c-.11,0-.26,.03-.31-.03-.48-.53,.08-1.03,.2-1.47,.11-.41,.74-.27,1.09,.09,.06,.06,.12,.11,.22,.2,.4-.21,.86-.93,1.33-.28,.25,.35,.24,1,.12,1.46-.11,.4-.52,.34-1.24-.1l.77-.2-.92-.67-.21,1.23c-.38-.09-.71-.16-1.03-.23,.23-.1,.46-.21,.76-.34q-.62-.35-.77,.34Z"/><path class="n" d="M178.77,237c-.73,.49-1.2,.37-1.32-.38-.06-.35,.02-.71-.03-1.06-.07-.43-.21-.84-.34-1.35l.65-1.08,.94,1.24c-.63,.23-.6,.8-.58,1.38,.02,.79,.01,.79,.68,1.25Z"/><path class="e" d="M147.01,249.11c.29,.44,.53,.11,.77-.06,.41-.29,.81-.28,1.2,.04,.42,.34,.47,.81,.13,1.44-.26,.5-.68,.41-1.13,.3-.32-.08-.53-.76-.97-.19v-1.53Zm1.07,.34l.07,.26,.48-.14c-.03-.07-.06-.19-.09-.19-.15,0-.31,.04-.46,.07Z"/><path class="e" d="M178.64,249.26l.29,.24c.23-.18,.46-.4,.72-.55,.46-.26,.82-.04,1.15,.29,.5,.5,.04,.98-.1,1.38-.13,.38-.65,.39-1.04,.18-.24-.13-.41-.36-.65-.49-.07-.04-.24,.11-.37,.17v.05l-.06,.03c0-.45,.02-.9,.02-1.34l.04,.06v-.02Z"/><path class="f" d="M196.1,249.26c.12-.1,.23-.28,.36-.29,.53-.05,.98-.21,1.25-.81,.39,.85,.24,1.68,.24,2.58-.72,.03-1.48,.49-1.94-.48l.09-1Zm1.4,.65c-.23-.22-.36-.42-.54-.49-.08-.03-.37,.24-.36,.35,.02,.19,.2,.36,.32,.53l.58-.4Z"/><path class="d" d="M159.15,254.96c.04,.11,.12,.21,.12,.31,.01,.63,0,1.27,0,1.9-.74,.33-1.36,.42-1.79-.41l-.47,.63c-.38-.83-.18-1.59-.16-2.39,.73,.16,.23,.79,.52,1.02l1.77-1.06Zm-.62,.77c-.27,.31-.53,.49-.51,.62,.03,.22,.25,.4,.39,.6,.12-.12,.35-.24,.35-.37,.01-.22-.11-.45-.23-.85Z"/><path class="n" d="M190.13,250.71l-1.12-.51c.44-.12,.66-.22,.89-.23,.47-.01,.46-.32,.44-.64,.54-.09,.93-.81,1.6-.41-.16,.59,.34,1.02,.37,1.56-.93,.67-1.22,.62-1.81-.28l-.35,.52Zm1.59-1.25s-.07-.12-.11-.13c-.06,0-.12,.04-.18,.06,.04,.04,.07,.12,.11,.13,.06,0,.12-.04,.19-.06Z"/><path class="d" d="M156.56,256.08c.02,.68-.59,1.33-1.25,1.35-.68,.02-1.28-.56-1.3-1.28-.02-.7,.55-1.33,1.23-1.36,.66-.02,1.3,.61,1.32,1.28Zm-.5,.02c0-.47-.38-.85-.83-.81-.47,.04-.7,.33-.73,.79-.03,.48,.32,.86,.77,.87,.44,0,.8-.38,.8-.85Z"/><path class="e" d="M167.62,249.26c-.09,.26-.19,.52-.26,.79-.07,.27-.11,.55-.16,.83h-.32l-.28-1.41c-.93,.13-.21,1.09-.84,1.39-.57-.53-.19-1.19-.29-1.95,.77,.05,1.46,.09,2.15,.14,0,.07,0,.14,0,.21Z"/><path class="f" d="M144.41,250.86l-.26-1.4c-1.01,.06-.14,1.22-.95,1.38-.43-.54-.16-1.17-.2-1.88,.59,.22,1.22-.47,1.66,.16,.35,.51,.34,1.15-.26,1.74Z"/><path class="f" d="M185.81,248.84c.39,.66,.21,1.27,.17,2.02-.58-.26-1.23,.41-1.66-.28-.32-.52-.18-1.11,0-1.74,.77,.35,.24,1.05,.69,1.46,.8-.13,.16-1.07,.8-1.46Z"/><path class="n" d="M154.58,232.79c.47,1,.43,3.79-.01,4.47-.43-.71-.46-3.53,.01-4.47Z"/><path class="e" d="M182.13,250.53l.42-.33c-.09-.34-.33-.75-.21-.96,.25-.48,.75-.52,1.31-.2,0,.21-.05,.47,0,.71,.23,1.03-.09,1.35-1.11,1.06-.11-.03-.2-.13-.41-.27Z"/><path class="d" d="M185.71,243.7h1.39l-.81-.74,.62-.73h-1.08c.03-.13,.02-.31,.09-.34,.94-.48,1.43-.18,1.41,.83,0,.15-.02,.32,.04,.45,.23,.47,0,.77-.36,.99-.42,.25-.76,.13-1.3-.47Z"/><path class="f" d="M156.06,237.34c-.43-1-.41-3.7-.02-4.42,.4,.65,.44,3.29,.02,4.42Z"/><path class="n" d="M148.01,255.47c-.23-.33-.43-.3-.59,.06-.26,.61-.52,1.22-.83,1.94-.91-.7-.84-1.68-1.37-2.43,.73-.18,.63,.34,.79,.59,.16,.25,.26,.54,.44,.94,.26-.6,.47-1.06,.69-1.57h1.05c-.1,.2-.16,.34-.23,.47h.05Z"/><path class="d" d="M125.58,243.97l-.56-1.34-.39,1.52h-.2c-.09-.37-.14-.78-.29-1.14-.16-.38-.43-.71-.66-1.06l.2-.18,.93,.86,.62-.97,.33,.54,1.31,.47-.27,.22c-.81-.11-.85-.08-.8,.8l-.21,.28Z"/><path class="p" d="M151.55,242.84c-.21,.59-.65,.81-1.27,.85l.85,.17c-.37,.59-.78,.47-1.23,.23-.21-.12-.45-.19-.68-.28l-.03-1.03c.07,.02,.19,.09,.21,.07,.64-.7,1.41-.47,2.17-.3l-.02,.28Z"/><path class="e" d="M152.19,250.89c-.27,0-.53,.01-.8,0-.71-.01-.99-.36-.69-1.03,.14-.31-.23-.78,.36-.96,.53-.16,.91,0,1.26,.36l-.12,1.63Zm-.37-.7c-.21-.07-.33-.15-.44-.14-.07,0-.13,.14-.2,.21,.11,.06,.21,.16,.33,.18,.06,.01,.15-.11,.31-.25Z"/><path class="m" d="M174.79,234.62c-.48,.33-.35,.83-.4,1.3-.04,.44,.21,.95-.25,1.33-.41-.77-.42-3.48-.02-4.36,.41,.24,.26,.63,.27,.94,0,.31,.12,.44,.42,.39l-.02,.39Z"/><path class="f" d="M142.7,234.16h1.47c0,.08,.02,.22,0,.22-1,.33-1.06,1.1-.98,1.98,.03,.28-.07,.57-.13,.97-.49-.65-.54-1.11-.36-3.17Z"/><path class="n" d="M178.38,244.7v-2.17c.22-.06,.44-.13,.66-.17,.53-.09,.82,.21,.99,.65,.17,.45-.07,.96-.53,1.18-.35,.17-.71,.32-1.12,.51Zm1.46-1.45c-.34-.23-.53-.44-.74-.46-.11-.01-.38,.32-.36,.47,.03,.21,.27,.38,.42,.57l.68-.58Z"/><path class="p" d="M160.6,257.44c-.52,.02-1.02-.42-1.06-.93-.04-.5,.41-1.03,.92-1.06,.49-.03,.96,.4,.94,.86-.02,.64-.35,1.11-.8,1.13Zm.22-.55v-.2l-.51,.09v.11h.51Z"/><path class="n" d="M165.44,255.92l-1.25,.8-.18,.57-.19-.02v-2.31c.63-.16,1.28-.35,1.66,.5l-.03,.46Zm-.22-.31c-.34-.16-.52-.31-.71-.31-.13,0-.26,.2-.39,.31,.15,.13,.28,.36,.44,.38,.16,.01,.34-.18,.66-.37Z"/><path class="f" d="M174.79,234.62l.02-.39c1.17-.45,1.66-.16,1.69,1.02,.02,.59-.02,1.19-.04,1.78,0,.06-.09,.11-.23,.25-.11-.2-.26-.37-.27-.54-.04-.39,0-.79-.01-1.19-.03-.94-.11-1.01-1.15-.93Z"/><path class="n" d="M140.22,249.53c.02-.05,.05-.1,.09-.14l.78-1.11,.75,.85c-.46,.46-.54,.95-.03,1.41-.28,.31-.52,.57-.87,.14-.2-.25-.4-.4-.64-.05l-.07-1.1Zm.46,.02l-.13,.08s.05,.07,.07,.07c.05-.01,.09-.05,.14-.07l-.08-.07Z"/><path class="f" d="M147.01,249.11v1.53c-.32,.08-.64,.19-.96,.24-.48,.06-.79-.2-.77-.67,.02-.43-.24-.94,.41-1.42l.3,1.68c.25-.27,.45-.4,.5-.57,.08-.26,.05-.55,.09-.82,0-.02,.28,.02,.42,.03Z"/><path class="e" d="M136,249.39l.02-.02c-.27,.03-.55,.03-.8,.12-.15,.05-.34,.25-.34,.38,0,.13,.19,.33,.34,.38,.25,.09,.54,.08,.81,.11v.02c-.62,.61-1.02,.67-1.48,.24-.42-.4-.41-1.09,0-1.49,.47-.44,.89-.37,1.45,.27Z"/><path class="e" d="M157.31,250.22c-.07,.62-.46,.79-.99,.65-.45-.12-.74-.43-.76-.93-.02-.55,.25-.91,.76-1.05,.54-.15,.92,.03,1,.64h.02c-.27-.02-.55-.08-.81-.03-.14,.03-.33,.24-.33,.38,0,.13,.19,.35,.33,.37,.26,.05,.54,0,.81-.02h-.03Z"/><path class="o" d="M131.71,243.05c.11-.11,.2-.23,.32-.34,.76-.68,1.17-.55,1.65,.61l-1.25,.32,.92,.23c-.73,.73-1.23,.47-1.61-.84l-.02,.02Z"/><path class="d" d="M169.99,255.54c.25,0,.51,.01,.76-.02,.37-.05,.37-.07,.96,.33l-.59,.15c.02,.05,.03,.14,.06,.16,.37,.16,.79,.34,.59,.84-.2,.49-.63,.48-1.1,.35-.29-.08-.62-.03-.93-.04l.08-.46c.33,.17,.64,.28,.89-.29l-.73-.71v-.31Zm.75,1.17v.15l.44,.04v-.15l-.44-.03Z"/><path class="m" d="M159.47,249.78v.33c-.64,.97-1.03,1.03-1.82,.28-.09-.08-.22-.12-.33-.18h.03v-.71h-.02c.13-.07,.28-.13,.39-.23,.78-.71,1.32-.56,1.76,.5Zm-.89,.79c.17-.34,.37-.56,.36-.77,0-.15-.29-.29-.45-.43-.14,.2-.37,.38-.4,.59-.02,.14,.24,.32,.49,.61Z"/><path class="d" d="M160.63,242.56l.36-.59c1.11,.39-.1,1.36,.64,1.88,.25-.17,.73,.18,.97-.34l.35-.27c.36,.56,.29,1.02-.18,.98-.62-.05-1.29,.2-1.87-.21l-.27-1.45Z"/><path class="d" d="M131.73,243.03l-.9,1.28c-.5-.76-.95-1.45-1.39-2.15-.03-.06,.08-.2,.16-.41,.43,.52,.82,.99,1.24,1.51l.71-1.02c.08,.4,.12,.6,.15,.81l.02-.02Z"/><path class="f" d="M167.62,249.26c0-.07,0-.14,0-.21l.49-.81c.24,.53,.85,.71,.38,1.37-.15,.21,.09,.68,.17,1.16-.37,.31-.67,.11-.83-.37-.12-.36-.14-.76-.21-1.14Z"/><path class="f" d="M163.33,249.29c.95-.61,1.53-.5,1.81,.36,.04,.11-.09,.27-.13,.41h-1.06v.26l1.02,.18c-.68,.58-.71,.58-1.66-.02l.02-1.18Zm.58,.15l.05,.28,.53-.14-.05-.21-.53,.07Z"/><path class="o" d="M173.12,243.98c.09-.32,.21-.64,.26-.97,.06-.37,.05-.74,.16-1.16,.36,.62,1.36,.24,1.49,1.06,.06,.39,0,.81,0,1.22l-.32,.03-.28-1.38c-.82,.2-.34,.91-.67,1.31l-.62,.08c0-.07,0-.13,0-.2Z"/><path class="d" d="M166.41,242.68c.25-.1,.49-.21,.74-.3,.52-.17,1.06,.13,1.21,.66,.14,.51-.2,1.09-.7,1.21-.46,.11-.94-.19-1.08-.71-.08-.29-.1-.6-.15-.9v.03Zm1.59,.54c-.24-.17-.44-.4-.58-.38-.17,.03-.44,.36-.41,.45,.09,.21,.34,.35,.52,.51l.47-.58Z"/><path class="o" d="M127.74,242.48l.27,1.3c.89-.17,.15-1.09,.8-1.35,.38,.5,.14,1.04,.17,1.62-.46,.15-.94,.43-1.34,.05-.48-.46-.29-1.06-.16-1.61h.27Z"/><path class="m" d="M178.57,250.59q-.54,.26-1.58,.12v-2.4c.42,.52,1.08,.51,1.56,.83l-.36,.32c-.41-.22-.71-.11-.74,.35-.04,.53,.26,.69,.75,.47l.37,.31Z"/><path class="d" d="M165.44,255.92l.03-.46c.2,.05,.45,.2,.59,.13,.57-.27,.99-.13,1.35,.35v1.02c-1.02,.73-1.55,.55-1.76-.61-.03-.15-.14-.29-.22-.43Zm.98,1.07l.37,.21c.09-.21,.26-.43,.23-.64-.02-.22-.23-.41-.35-.61-.17,.12-.45,.23-.47,.37-.03,.21,.14,.44,.22,.67Z"/><path class="p" d="M175.53,242.81c.84-.78,1.15-.7,1.67,.52l-1.23,.34,.87,.16c-.47,.64-.6,.63-1.33-.07,.38-.31,.36-.64,.02-.96Z"/><path class="e" d="M123.91,250.87c-.09-.07-.25-.13-.25-.2-.04-.7-.06-1.4-.06-2.1,0-.11,.15-.26,.27-.32,.07-.04,.25,.03,.31,.1,.25,.32,.07,2.07-.26,2.52Z"/><path class="r" d="M125.22,250.81c-.71-1.94-.88-2.12,.48-2.62l-.48,2.62Z"/><path class="d" d="M165.27,241.68c-.14,.85-.27,1.65-.41,2.56-.76-1.29-.64-2.03,.41-2.56Z"/><path class="d" d="M148.71,242.78c-.34-.01-.51,.14-.53,.49-.02,.29-.08,.58-.15,1.09-.53-.68-.29-1.23-.35-1.82,.46-.06,.86-.44,1.31,0l-.27,.25Z"/><path class="p" d="M144.41,244.15c-1.16,.18-1.31,0-1.02-1.31q.96,.11,1.02,1.31Z"/><path class="d" d="M184.45,244.26c-.15-.09-.47-.19-.47-.3-.02-.65-.54-1.34,.18-2.11,.15,.33,.35,.57,.37,.83,.03,.5-.04,1-.08,1.58Z"/><path class="d" d="M173.12,243.98c0,.07,0,.13,0,.2-.17-.03-.47-.03-.5-.1-.21-.68-.5-1.37-.04-2.18,.37,.3,.63,.46,.43,.97-.12,.31,.06,.73,.1,1.11Z"/><path class="n" d="M141.27,234.37c-.07-.44-.16-.76-.16-1.07,0-.15,.17-.3,.26-.46,.17,.13,.45,.23,.5,.39,.14,.46-.08,.82-.59,1.14Z"/><path class="j" d="M153.28,250.72h-.52l-.05-1.46c.01-.23-.03-.49,.06-.68,.07-.14,.32-.18,.49-.27,0,.8,.01,1.61,.02,2.41Z"/><path class="o" d="M169.55,242.78c-.15,.15-.37,.27-.43,.45-.09,.28-.08,.6-.12,1.04-.66-.57-.28-1.15-.46-1.86l1.29,.12-.28,.26Z"/><path class="o" d="M161.7,255.56l.81-.04-.55,1.83c-.51-.56-.26-1.13-.26-1.8Z"/><path class="o" d="M166.41,242.68v-.03c-.72,.26-.24,1.08-.75,1.59-.36-.56-.17-1.1-.21-1.64,.36-.17,.68-.47,.96,.08Z"/><path class="m" d="M174.56,250.7c-.16-.03-.46-.06-.47-.09-.03-.73-.04-1.45-.01-2.18,0-.04,.3-.07,.47-.11,0,.79,0,1.59,.01,2.38Z"/><path class="n" d="M144.41,244.15q-.06-1.21-1.02-1.31c.33-.54,.81-.67,1.18-.3,.38,.37,.31,1.11-.16,1.61Z"/><path class="i" d="M153.28,250.72c0-.8-.01-1.61-.02-2.41l.49,.02c0,.79-.01,1.59-.02,2.38h-.46Z"/><path class="i" d="M174.56,250.7c0-.79,0-1.59-.01-2.38h.49l-.02,2.39h-.46Z"/><path class="m" d="M153.74,250.7c0-.79,.01-1.59,.02-2.38,.17,.05,.47,.09,.48,.15,.03,.71,.02,1.42-.01,2.13,0,.04-.31,.07-.48,.1Z"/><path class="n" d="M151.55,242.84l.02-.28c.15,.12,.39,.22,.43,.37,.11,.4,.34,.16,.54,.15v.44l-.44,.9-.55-1.58Z"/><path class="d" d="M170.01,242.57c.81-.29,1.09-.19,1.15,.51,.03,.36,.15,.78-.36,1.23l-.18-1.43-.53,.02-.08-.33Z"/><path class="o" d="M145.62,244.02l-.4,.05c0-.72,.01-1.44,.04-2.17,0-.02,.21-.03,.32-.05l.04,2.17Z"/><path class="m" d="M175.02,250.72l.02-2.41c.16,.06,.46,.11,.46,.17,.03,.71,.02,1.41-.01,2.12,0,.05-.31,.08-.47,.12Z"/><path class="f" d="M146.07,241.85c.07,.02,.2,.02,.21,.06,.17,.77,.36,1.55-.13,2.29-.03-.78-.05-1.57-.08-2.35Z"/><path class="i" d="M146.07,241.85c.03,.78,.05,1.57,.08,2.35l-.53-.18c-.01-.72-.02-1.44-.04-2.17h.49Z"/><path class="k" d="M196.1,249.26l-.09,1-.43,.26-1.06-.21v-.21l1.13-.15-.04-.67,.48-.02Z"/><path class="d" d="M153.48,243.02l.29-.53,.26,.11-.62,1.84-.41-.66,.47-.76Z"/><path class="d" d="M172.65,249.52v-.54c.09-.18,.17-.36,.29-.53,.1-.14,.22-.27,.34-.4,.09,.18,.21,.34,.25,.53,.03,.14-.04,.3-.06,.45l-.43,.57-.38-.08Z"/><path class="k" d="M192.3,250.48c-.02-.54-.53-.97-.37-1.56l.63-.1,.23,1.87-.49-.21Z"/><path class="m" d="M131.97,250.79l.29-.49-.02,.02c.07,.02,.14,.05,.2,.07l-.1-.16,.17-1.3c.6,.55,.37,1.15,.42,1.8l-.95,.06Z"/><path class="d" d="M169.05,257.17c-.41,.29-.83,.41-1.25,.02,.25-.1,.5-.21,.75-.31-.14-.23-.28-.46-.42-.68,.89,.17,.9,.18,.92,.98Z"/><path class="i" d="M169.05,257.17c-.02-.8-.03-.81-.92-.98h-.02l.95-.46c.06-.02,.12-.02,.19,0l.27,1.45h-.47Z"/><path class="d" d="M126.86,242.67c.45,.46,.37,.93-.05,1.34-.4,.38-.83,.4-1.23-.03,.07-.09,.14-.19,.21-.28,.83,.17,.89,.11,.8-.8l.27-.22Z"/><path class="e" d="M169.52,257.18l-.27-1.45,.38-.7,.37,.51v.31l-.16,1-.08,.46-.23-.13Z"/><path class="o" d="M148.01,255.47h-.05c.49,.59,.31,1.19,.02,1.78-.28-.6-.48-1.2,.03-1.78Z"/><path class="k" d="M168.13,256.19c.14,.23,.28,.46,.42,.68-.25,.11-.5,.21-.75,.31l-.39-.23v-1.02l.4-.23,.3,.5h.02Z"/><path class="p" d="M153.48,243.02l-.47,.76-.48-.25v-.44l.06-.67,.89,.61Z"/><path class="i" d="M152.71,249.26l.05,1.47-.57,.16c.04-.54,.08-1.08,.12-1.63h.4Z"/><path class="i" d="M160.63,242.56l.27,1.45-.25-.3-.61-.95s.19-.09,.42-.2c.06-.01,.12-.01,.17,0Z"/><path class="f" d="M170.01,242.57l.08,.33-.08,1.14-.18,.04-.28-1.29,.28-.26c.07,0,.13,.01,.18,.05Z"/><path class="m" d="M140.22,249.53l.07,1.1c-.2,.29-.41,.22-.47-.06-.07-.33-.04-.69-.05-1.04h.44Z"/><path class="e" d="M147.41,236.79c-.25,.38-.55,.62-1.33,.28l1.19-.56,.15,.28Z"/><path class="d" d="M168.11,256.21l-.3-.5c.42-.4,.84-.3,1.25,.02l-.95,.47Z"/><path class="k" d="M163.33,249.29l-.02,1.18-.1,.03-.1-.03c-.53-.52-.53-.64-.02-1.2l.24,.02Z"/><path class="o" d="M162.95,243.23l-.35,.27c-.84-.32-.88-.41-.5-.97l.27,.28,.58,.42Z"/><path class="k" d="M164.97,250.49l-1.03-.18v-.26h1.08l-.04,.44Z"/><path class="p" d="M142.23,249.03l-.03-.63,.24-.03,.06,.66h-.26Z"/><path class="n" d="M198.56,250.09c.17,.19,.33,.3,.37,.45,.02,.07-.21,.32-.26,.3-.15-.05-.31-.18-.38-.31-.03-.06,.13-.23,.27-.43Z"/><path class="e" d="M175.53,242.81c.34,.33,.37,.65-.02,.96l.02-.96Z"/><path class="d" d="M162.36,242.81l-.27-.28c.35-.37,.66-.27,1.12,.16l-.85,.12Z"/><path class="f" d="M173.03,249.61l.43-.57c.12,.59,.28,1.18-.15,1.8-.47-.38-.27-.83-.28-1.23Z"/><path class="f" d="M148.71,242.78l.27-.25,.21,.25,.03,1.03c.02,.07,0,.14-.05,.19-.08,0-.16,0-.24,0l-.23-1.22Z"/><path class="l" d="M142.23,249.03h.26c.16,.59,.28,1.18-.13,1.81-.42-.63-.31-1.22-.14-1.81Z"/><path class="m" d="M178.61,249.22c0,.45-.02,.9-.02,1.34l-.02,.03-.37-.31v-.82l.36-.32,.06,.07Z"/><path class="p" d="M137.74,244.13l-.06-.32,.24,.09v-.02c-.06,.08-.12,.17-.18,.25Z"/><path class="m" d="M178.64,249.26v0Z"/><path class="o" d="M195.4,242.77v-.25c.03,.1,.07,.2,.1,.29h.02s-.09,0-.12-.04Z"/><path class="f" d="M132.33,250.23l.1,.16c-.07-.02-.14-.05-.2-.07,.02-.04,.06-.07,.1-.09Z"/><polygon class="m" points="178.65 250.46 178.65 250.49 178.62 250.54 178.65 250.46"/><path class="p" d="M148.94,244c.08,0,.16,0,.24,0l-.08,.17-.16-.16Z"/><path class="n" d="M175.49,268.96c-.17,.71-.7,.66-1.22,.55-.62-.14-.98-.69-.94-1.34,.03-.58,.36-.97,.88-1.15,.56-.2,1.01,.02,1.3,.54,.13,.23,.24,.47,.38,.75l.57-.41,.94,.14c-.16,.24-.32,.21-.42,.27-.17,.12-.3,.3-.44,.46,.18,.13,.34,.27,.53,.37,.09,.05,.23,0,.35,0,0,.07,0,.15,0,.22-.9,.27-1.02,.24-1.39-.51-.13-.26-.14-.55-.53-.38-.52,0-1.04,0-1.62,0,.38,1.02,1.06,.47,1.6,.49Zm-.35-.99q-.6-.7-1.21,0h1.21Z"/><path class="e" d="M191.65,269.44l-.33,.9-.2-.03v-3.12c.67-.08,1.41-.57,1.97,.27,.34,.51,.32,1.05,.02,1.56-.27,.46-.57,.53-1.45,.41Zm-.13-1.2c-.03,.39,.05,.79,.56,.84,.5,.04,.68-.33,.71-.76,.03-.43-.08-.81-.6-.86-.52-.04-.7,.27-.67,.78Z"/><path class="f" d="M186.35,266.11c.62,.75,1.2,2.16,1.4,3.43-.96-1.02-1.87-1.15-2.76,.02,.02-1.04,.69-2.7,1.37-3.45Zm-.69,2.22l1.27-.07-.58-1.58-.69,1.65Z"/><path class="e" d="M188.28,267.16c.74-.01,1.48-.52,2.01,.28,.34,.51,.34,1.06,.04,1.58-.36,.63-.96,.58-1.53,.42l-.28,.98c-.38-.8-.42-1.44-.24-3.26Zm.43,1.07c-.04,.43,.07,.78,.56,.86,.41,.06,.8-.36,.78-.84-.02-.43-.19-.77-.69-.79-.51-.02-.69,.29-.65,.77Z"/><path class="n" d="M181.59,268.5c.3,.97,1,.41,1.55,.48-.59,.64-.99,.74-1.54,.42-.51-.3-.76-.97-.56-1.56,.18-.54,.75-.94,1.28-.88,.59,.07,.89,.48,1,1.46l-1.73,.08Zm1.24-.52q-.67-.72-1.25,0h1.25Z"/><path class="n" d="M180.64,267.02c-.06,.91-.37,1.67-1.02,2.5-.78-.64-.8-1.59-1.11-2.42,.75,.18,.62,1,1.07,1.4,.54-.39,.34-1.25,1.06-1.48Z"/><path class="e" d="M171.35,266.21c.63,.82,.13,1.8,.45,2.71l1.41,.19q-.69,.44-1.98,.26c-.1-1.05-.11-2.1,.11-3.16Z"/><path class="i" d="M177.43,269.15c-.12,0-.26,.04-.35,0-.19-.1-.36-.25-.53-.37,.14-.16,.27-.34,.44-.46,.1-.07,.26-.04,.42-.27l-.94-.14c0-.07,0-.13,0-.2l.95-.22c.22,.55,.19,1.11,0,1.66Z"/><path class="e" d="M177.43,269.15c.18-.56,.22-1.11,0-1.66l.31-.3c.71,.65,.31,1.43,.32,2.23l-.63-.05c0-.07,0-.15,0-.22Z"/><path class="i" d="M175.49,268.96c-.54-.02-1.22,.53-1.6-.49,.58,0,1.1,0,1.62,0l-.02,.49Z"/><path class="d" d="M177.74,267.18l-.31,.3-.95,.22-.6-.24c.69-.42,1.21-.81,1.87-.27Z"/><path class="e" d="M129.3,266.91c-.7-.3-1.36-.61-1.96,.09-.34,.4-.35,1.13-.04,1.56,.36,.51,.79,.55,1.99,.19-.27,.65-.63,.87-1.29,.78-.78-.1-1.36-.71-1.45-1.51-.1-.86,.35-1.59,1.15-1.86,.71-.25,1.12-.08,1.59,.75Z"/><path class="e" d="M134.42,267.18l.45,.31,.71-1.12,.65,.84c-.57,.95-.58,1.25,.08,2.16-.52,.3-.82,.1-.94-.4-.07-.3,0-.64-.05-.94-.04-.23-.17-.44-.27-.66l-.24,.03c-.06,.66-.11,1.32-.17,1.98l-.25,.02-.32-1.91,.34-.31Z"/><path class="n" d="M145.01,267.29l.56,1.09c-.7,.06-1.19,.11-1.8,.17,.29,.87,.89,.41,1.35,.38-.35,.68-.86,.81-1.47,.45-.72-.44-.77-1.24-.11-2.11l.22,.28c-.18,.53,.19,.49,.51,.5,.32,0,.69,.04,.52-.49l.23-.27Z"/><path class="e" d="M137.85,267.12c.3,0,.49,.03,.68,0,1.16-.18,1.36-.04,1.38,1.07,0,.41-.03,.82-.06,1.46-.74-.74-.23-1.5-.62-2.11-.47-.13-.8-.04-.86,.56-.05,.44,.17,.94-.29,1.41-.39-.78-.14-1.52-.22-2.38Z"/><path class="e" d="M140.9,267.08l.18,1.91c.72,.19,.92-.13,.95-.72,.02-.4-.14-.85,.38-1.38v2.4s-.04,.07-.1,.08c-1.77,.39-2.14,.18-1.41-2.3Z"/><path class="e" d="M129.76,268.19c.03-.68,.57-1.23,1.22-1.23,.68,0,1.25,.64,1.21,1.36-.04,.69-.58,1.23-1.22,1.23-.69,0-1.24-.62-1.2-1.36Zm1.94,.24c-.05-.66-.26-.98-.75-.96-.49,.01-.69,.33-.69,.79,0,.5,.41,.97,.77,.82,.3-.13,.51-.48,.67-.64Z"/><path class="n" d="M134.42,267.18l-.34,.31c-.66-.1-.96,.17-.91,.85,.02,.36-.02,.72-.16,1.08-.58-.68-.25-1.45-.35-2.3,.63,.2,1.18-.49,1.77,.06Z"/><path class="e" d="M137.17,267.12v2.37c-.54-.72-.56-1.56,0-2.37Z"/><path class="n" d="M143.54,267.27c.5-.44,.99-.45,1.48,.02l-.23,.27c-.34,0-.69,0-1.03,0l-.22-.28Z"/><path class="m" d="M201.66,180.9l-1.7-1.14-1.88,1.2c-.07-.37-.15-.63-.15-.89-.01-1.07-.03-2.14,0-3.22,.02-.77,.23-.99,1-1.02,.71-.03,1.43-.02,2.14,0,.49,.02,.85,.27,.86,.8,.02,1.38,0,2.76,0,4.13l-.28,.13Zm-3.08-4.4v3.41l1.36-.82,1.38,.79v-3.38h-2.74Z"/><path class="m" d="M137.56,181.03c-.09-.49-.22-.98-.25-1.48-.05-.68-.32-1.18-.88-1.58-.41-.29-.76-.66-1.17-1.01,.8-.47,4.54-.77,5.83-.48-1,1.64-2.14,3.11-3.18,4.65l-.36-.11Zm1.68-3.26l-1.55,.83,.33,1.48,1.37-2.15,.12-.23-.27,.06Zm-.08-.61l-.03-.23-2.83,.22,1.18,.96,1.68-.95Z"/><path class="m" d="M131.15,181.59c-.91-.41-1.84-.32-2.78-.33-1.27,0-2.25-1.2-2.23-2.49,.02-1.34,1.11-2.43,2.44-2.44,1.28-.01,2.4,.99,2.48,2.27,.03,.47-.12,.95-.07,1.42,.04,.46,.23,.9,.35,1.35l-.19,.23Zm-.94-.98l.18,.11,.03-.29c.02-.42,0-.85,.05-1.27,.11-.91-.29-1.69-1.09-2.06-.71-.33-1.53-.18-2.09,.38-.6,.59-.73,1.45-.34,2.2,.4,.76,1.2,1.13,2.11,.99,.38-.06,.77-.04,1.16-.06Z"/><path class="m" d="M119.11,176.88c.2-.1,.4-.23,.62-.31,.75-.26,1.45-.04,1.89,.58,.41,.57,.45,1.32-.04,1.88-.76,.85-1.59,1.63-2.47,2.52-.85-.86-1.62-1.59-2.34-2.38-.58-.64-.59-1.45-.12-2.07,.47-.61,1.12-.78,1.91-.49,.18,.07,.35,.18,.55,.27Zm-.09,3.92c.81-.81,1.48-1.43,2.09-2.1,.36-.4,.36-.88-.02-1.29-.35-.38-.79-.53-1.28-.24-.24,.14-.46,.31-.69,.47-.15-.09-.28-.18-.41-.26-.75-.46-1.14-.46-1.57,.03-.41,.47-.35,.94,.21,1.57,.53,.59,1.07,1.16,1.67,1.82Z"/><path class="d" d="M141.44,185.73h1.75s.06-.07,.16-.19c.07-.09,.14-.18,.24-.3,1.06,.55-.35,1.65,.66,2.18-1.22,.13-.64-.82-.99-1.28-.11,.77-.26,1.46-1.22,1.49-.16,0-.3,.3-.6,.63v-2.54Zm.8,1.59c.2-.35,.41-.56,.41-.77,0-.16-.26-.32-.4-.47-.15,.18-.39,.35-.43,.56-.03,.15,.2,.35,.41,.69Z"/><path class="d" d="M139.82,187.26c-.27,.02-.52-.14-.82,.16-.35,.35-.82,.16-1.13-.23-.33-.41-.32-.94,.06-1.29,.39-.36,.81-.45,1.29,.02-.15,.08-.23,.18-.31,.17-.33-.03-.69-.05-.73,.38-.02,.18,.18,.54,.29,.54,.32,0,.65-.09,.94-.23,.14-.07,.29-.34,.26-.5-.09-.58,.23-.73,.68-.68,.44,.05,.71,.34,.71,.81,0,.31-.03,.63-.04,.99-.42-.06-.85,.54-1.18-.14,.11,0,.24,0,.34-.04,.12-.05,.25-.14,.32-.24,.03-.04-.08-.25-.13-.25-.13,0-.31,.02-.4,.11-.09,.1-.1,.27-.14,.42Z"/><path class="o" d="M131.75,185.84c-.02-.2-.04-.39-.05-.59,0-.02,.05-.05,.15-.14l.36,.61,1.25-.12c.05,.39,.01,.71,.14,.95,.17,.33,.24,.6-.06,.84-.39,.31-.78,.27-1.23-.2l.9-.26c-.46-.22-.83-.39-1.19-.56l-.26-.54Z"/><path class="o" d="M127.83,187.45c-.13-.11-.34-.2-.38-.34-.08-.32-.08-.67-.12-1.03-.95,.17-.27,1.04-.81,1.38-.41-.24-.21-.67-.27-1.01-.06-.39,.22-.89-.32-1.15-.02-.05-.02-.1,0-.14,.78,.03,1.39,.42,1.96,.88l-.07,1.42Z"/><path class="o" d="M136.43,187.41c-.35,.06-.7,.23-.94,.13-.27-.11-.6-.45-.62-.7-.05-.71,.32-1.23,.72-1.25,.51-.02,.81,.24,.88,.74,0,.04,0,.08,0,.12-.02,.31-.04,.62-.06,.96Zm-.42-.58c-.19-.04-.33-.1-.46-.08-.06,0-.11,.16-.16,.24,.13,.06,.25,.15,.38,.16,.05,0,.12-.16,.23-.32Z"/><path class="f" d="M118,187.45c-.08,0-.16,0-.23,.02-1.32,.24-1.65-.28-1.06-1.95,.12,.41,.19,.62,.25,.83,.06,.2,.11,.41,.17,.61h.25l.31-1.31,.42,.38-.11,1.41Z"/><path class="e" d="M121.59,187.46c-.56,.15-1.07,.11-1.42-.43l.03-.98q.81-.56,1.64,.03c.24,.96-.63,.58-1,.78,.16,.36,.94-.14,.75,.6Z"/><path class="k" d="M127.83,187.45l.07-1.42c.12-.35,.25-.69,.43-1.23l.73,1.01c-.35,.74,.45,.82,.7,1.07-.03,.57-.77-.06-.67,.58l-1.26-.02Zm.71-1.5l-.14,.03v1.19h.14v-1.22Z"/><path class="f" d="M125.93,185.15s-.02,.1,0,.14c-.38,.15-.69,.34-.63,.85,.05,.41,0,.84,0,1.48-.77-.81,.2-2.02-1.19-2.39,.71-.28,1.26-.25,1.81-.08Z"/><path class="n" d="M148.26,186.02c-.93,.22-.27,1.09-.92,1.43v-1.6c1.43-.39,1.68-.09,1.16,1.59l-.24-1.42Z"/><path class="d" d="M145.39,185.84c.22-.09,.43-.24,.65-.24,.49,0,.85,.31,.92,.75,.04,.3-.11,.68-.3,.94-.26,.36-.67,.38-1.05,.14-.16-.1-.28-.27-.43-.4l.21-1.19Zm1.34,.72c-.32-.22-.5-.44-.71-.46-.12-.01-.4,.31-.38,.45,.03,.21,.26,.4,.41,.6l.68-.58Z"/><path class="d" d="M129.09,187.47c-.1-.65,.64-.02,.67-.58-.24-.26-1.05-.33-.7-1.07,.82-.28,.79-.27,1.01,.55,.08,.32,.47,.59,.13,.96-.32,.35-.71,.3-1.1,.15Z"/><path class="e" d="M118.36,186.2c.32-.62,.78-.73,1.37-.39l-.58,.37,.82,.83c-.33,.58-.82,.62-1.39,.43-.24-.67,.48-.25,.61-.55-.15-.09-.32-.16-.45-.27-.14-.12-.25-.28-.37-.43Z"/><path class="m" d="M122.08,186.05l1.03-.46c-.2,.67-.32,1.15-.5,1.61-.05,.12-.28,.18-.43,.26l-.11-1.41Z"/><path class="i" d="M145.39,185.84l-.21,1.19c-.11,.15-.23,.29-.34,.44-.01-.57,.31-1.19-.22-1.7l-.12-.81,.15-.06,.74,.93Z"/><path class="k" d="M118.36,186.2c.12,.14,.23,.3,.37,.43,.13,.11,.3,.18,.45,.27-.12,.3-.85-.11-.61,.55h-.59l.11-1.41,.26,.16Z"/><path class="o" d="M144.62,185.78c.53,.51,.21,1.12,.22,1.7-.52-.43-.56-.75-.22-1.7Z"/><path class="i" d="M122.08,186.05l.11,1.41h-.6c.19-.74-.59-.24-.75-.6,.38-.2,1.24,.17,1-.78l.24-.03Z"/><path class="k" d="M119.97,187.02l-.82-.83,.58-.37,.46,.24-.03,.98h-.2Z"/><path class="e" d="M131.75,185.84l.26,.54c-.01,.3-.03,.59-.04,.89h-.26l.04-1.43Z"/><path class="o" d="M131.71,187.25h.26c-.06,.07-.12,.13-.18,.18l-.07-.18Z"/><path class="n" d="M123.38,73.84c.02,1.97-1.57,3.55-3.55,3.55-1.91,0-3.48-1.56-3.49-3.49-.02-1.93,1.52-3.52,3.43-3.55,1.99-.03,3.6,1.52,3.62,3.49Zm-.51,.09c.02-1.71-1.27-3.04-2.98-3.07-1.7-.02-3.03,1.3-3.04,3.01,0,1.66,1.28,2.97,2.92,3,1.73,.03,3.08-1.25,3.1-2.94Z"/><path class="f" d="M131.44,73.92l-.25,.74c-.6,.32-1.06,.02-1.33-.22l-1.28,.28,.02-.29,.43-.32,.03-.35,.26-.05c.44,.13,.47-.3,.67-.49,.42-.38,.55-.38,1.03,.02-.08,.01-.17,0-.22,.04-.11,.07-.2,.17-.3,.26,.05,.05,.12,.15,.14,.15,.11-.06,.23-.14,.32-.23,.05-.05,.06-.14,.08-.21l.41,.28v.4Z"/><path class="f" d="M127.63,74.71h-1.43v-1.67l.24-.05,.39,1.52c.19-.42,.32-.61,.35-.82,.05-.3-.07-.68,.44-.64v1.67Z"/><path class="n" d="M131.44,73.92v-.4c.39-.35,.73-.78,1.35-.49l-.69,1.84-.66-.96Z"/><path class="k" d="M127.63,74.71v-1.67l.49,.24c-.04,.66,.5,.68,.92,.83l-.43,.32c-.32-.27-.42-.11-.43,.22l-.55,.05Z"/><path class="m" d="M201.12,72.37c-.27,.19-.43,.38-.61,.4-.12,.01-.39-.26-.37-.34,.05-.19,.22-.44,.38-.47,.14-.03,.33,.22,.59,.41Z"/><path class="m" d="M129.03,74.11c-.42-.15-.96-.17-.92-.83,.45-.37,.89-.63,1.32,.02l-.89,.11,.52,.35-.03,.35Z"/><path class="m" d="M201.1,73.82c-.25,.19-.4,.39-.58,.42-.11,.02-.39-.28-.36-.35,.07-.18,.24-.37,.42-.44,.08-.03,.28,.19,.52,.38Z"/><path class="m" d="M201.18,75.48c-.18,.07-.37,.22-.54,.19-.18-.03-.34-.22-.51-.34,.11-.14,.21-.4,.32-.4,.18,0,.36,.16,.55,.25l.18,.3Z"/><path class="k" d="M129.06,73.76l-.52-.35,.89-.11-.11,.41-.26,.05Z"/><path class="m" d="M128.17,74.66c0-.34,.1-.49,.43-.22l-.02,.29-.41-.07Z"/><path class="s" d="M254.88,244.59c-5-.27-8.9-2.55-10.98-7.34-2.06-4.76-1.34-9.3,2.18-13.12,3.56-3.86,8.02-4.82,13.02-3.26,.34,.11,.68,.24,.99,.42,.51,.31,.67,.83,.48,1.34-.21,.55-.74,.82-1.36,.66-.31-.08-.6-.23-.9-.33-4.15-1.41-8.65-.05-11.25,3.4-2.58,3.42-2.67,8.11-.23,11.64,2.48,3.59,6.84,5.11,11.08,3.87,4.04-1.18,6.91-4.94,7.07-9.26,.01-.36,0-.72,0-1.08,.04-.83,.44-1.29,1.09-1.29,.65,0,1.08,.46,1.12,1.28,.1,2.32-.29,4.55-1.44,6.58-2.35,4.16-5.97,6.28-10.9,6.48Z"/><path class="s" d="M255.07,233.02c3.31-3.33,6.52-6.55,9.73-9.77,.22-.23,.44-.47,.7-.65,.44-.31,.91-.27,1.32,.08,.43,.37,.52,.91,.21,1.4-.15,.23-.35,.43-.54,.63-3.41,3.42-6.82,6.83-10.23,10.25-.17,.17-.34,.34-.53,.48-.47,.36-.99,.38-1.42-.03-1.15-1.1-2.29-2.22-3.39-3.37-.46-.48-.41-1.09-.01-1.51,.45-.48,1.02-.53,1.59-.01,.85,.77,1.65,1.6,2.58,2.5Z"/><path class="k" d="M236.49,263.57c-.75,.64-1.2,.03-1.67-.2-1.05,.7-1.12,.7-1.99-.07-.36,.56-.83,.78-1.61,.29l.78-.26s0-.11-.03-.16c-.01-.03-.06-.04-.1-.06-.35-.2-.8-.4-.5-.89,.25-.41,.65-.31,1.18-.07l-.63,.4,.57,.26c.41-.34,.77-.87,1.18-.91,.37-.04,.79,.46,1.19,.72,.41-.67,.7-.88,1.3-.55,.43,.23,.67,.04,1.03-.04,.43-.1,.99-.28,1.28,.28,.23,.45,.4,.95-.22,1.44l-.4-1.2h-.18l-.34,1.35c-.49-.39-.8-.99-1.55-.64l.69,.33Zm-2.85-.34v.11h.38v-.11h-.38Z"/><path class="k" d="M245.96,262.41c1.22-.73,2.12-.62,2.68,.33l.35-.54h1.53c-.17,.53-.35,1.07-.59,1.81l-.68-.95-.63,.73c-.27-.44-.48-.79-.7-1.15-.07,.24-.15,.46-.21,.69-.13,.49-.47,.6-.92,.53-.48-.08-.96-.16-1.51-.25l-.16-1.06-.22-.05-.34,1.21c-.49-.3-.68-.95-.43-1.42,.26-.48,.98-.46,1.82,.11Zm.86,.79v.16l.37-.07s-.01-.08-.02-.08c-.12-.01-.23-.01-.35-.02Z"/><path class="d" d="M244.7,268.03l.87,.84c.27-.15,.63-.53,.99-.52,.57,0,1.14,.26,1.87,.46l.42-.46,.52,.75,.51-.71,.24,.11c-.17,.56-.34,1.13-.56,1.89l-.72-.83-.63,.74-.55-1c-.67,.03-.29,1.17-1.07,.99-.36-.08-.68-.33-1.05-.52l-.39,.42c-.53-.45,.13-1.31-.69-1.55,.04-.07,.09-.14,.13-.22l.38-.05-.25-.31v-.03Zm2.14,1.02l-.05-.29-.6,.12c.13,.2,.23,.26,.34,.26,.1,0,.21-.06,.31-.09Z"/><path class="f" d="M281.05,252.59c0,1.05,.08,2.07-.02,3.08-.08,.83-.74,1.27-1.6,1.31-.93,.05-1.71-.37-1.82-1.19-.13-1.01-.05-2.05-.04-3.08,0-.06,.18-.11,.39-.24,.07,.3,.17,.54,.18,.78,.03,.67-.02,1.35,.03,2.03,.06,.76,.46,1.12,1.13,1.12,.67,0,1.07-.37,1.12-1.12,.05-.71,0-1.43,.02-2.15,0-.34,.02-.34,.61-.55Z"/><path class="k" d="M279.82,262.28l-.4,.23s.04,.13,.08,.15c.36,.13,.7,.31,.57,.76-.14,.48-.56,.48-.98,.46-.41-.02-.83-.05-1.24,0-.61,.06-1.01-.11-1.1-.65l-1.82,1.18v-2.2c.77-.72,1.73,.5,2.45-.33,.77,.35,1.61,.17,2.43,.1v.32Zm-3.57,.65l-.57-.45c-.1,.14-.28,.29-.28,.43,0,.15,.17,.3,.26,.44l.59-.42Zm2.29-.11c-.02,.14-.04,.25-.04,.35,0,.03,.06,.05,.08,.08,.04-.09,.1-.18,.13-.27,0-.03-.09-.08-.17-.16Z"/><path class="f" d="M268.56,256.82c-.66,.24-1.27,.19-1.71-.41-.43-.59-.47-1.25-.18-1.92,.29-.66,.82-.93,1.54-.82,.37,.06,.75,.12,1.25,.21,0,1.03,.05,2.12-.02,3.22-.04,.62-.51,.96-1.11,1.07-.74,.14-1.13-.04-1.54-.72,.71-.07,1.6,.79,2.04-.38,0-.11,0-.22,0-.32l-.27,.09Zm.35-1.55c0-.76-.3-1.11-.9-1.09-.55,.02-.96,.53-.94,1.15,.02,.64,.45,1.11,1,1.09,.58-.01,.84-.37,.83-1.16Z"/><path class="f" d="M259.04,253.52c-.83-.11-1.55-.83-2.36-.28-.22,.15-.44,.35-.58,.58-.13,.23-.25,.54-.21,.79,.08,.45,.21,.93,.47,1.3,.31,.45,.84,.53,1.39,.46,.43-.05,.7-.7,1.27-.37-.61,.92-1.38,1.19-2.32,.85-.92-.33-1.51-1.21-1.48-2.23,.03-1.06,.72-1.9,1.75-2.13,.93-.21,1.57,.08,2.06,1.01Z"/><path class="m" d="M246.21,256.73c.52-1.28,1.02-2.57,1.58-3.84,.22-.5,.75-.49,.98,.03,.55,1.26,1.03,2.56,1.57,3.89-.85,.22-.72-.58-1.15-.81h-1.83l-.84,.97-.3-.24Zm2.15-3.36c-.43,.69-.82,1.28-.87,1.95h1.65c-.29-.74-.54-1.35-.78-1.95Z"/><path class="k" d="M254.84,262.12c.46-.06,.91-.11,1.37-.18,.55-.08,1.1-.24,1.64-.22,.52,.02,1.03,.23,1.64,.38l-.41,.45c.12,.07,.31,.13,.4,.25,.13,.17,.3,.47,.23,.59-.11,.21-.39,.43-.61,.45-.46,.04-.93-.05-1.52-.09l-.3-1.26-.94-.08,.72,.82c-.04,.1-.04,.15-.07,.17-.22,.15-.56,.48-.64,.42-.75-.53-1.7,.47-2.38-.35,.05-.05,.09-.1,.14-.15,.94-.06,1.01-.18,.62-1.08,.04-.05,.07-.09,.11-.14Zm3.08,1.19h1.3l-1.26-.87-.04,.87Zm-2.3-.5s-.08,.05-.08,.06c.01,.06,.04,.12,.06,.18,.03-.02,.08-.05,.08-.06-.01-.06-.04-.12-.07-.18Zm.71,.47c-.06-.03-.11-.06-.17-.08-.02,0-.05,.04-.07,.07,.06,.03,.11,.06,.17,.08,.02,0,.05-.04,.07-.07Z"/><path class="f" d="M282.39,258.34c-.47-.92-.54-2.71-.32-4.52,.33-.03,.67-.03,1-.1,.8-.16,1.3-.02,1.64,.57,.4,.67,.37,1.37-.02,2.04-.35,.59-.84,.73-1.65,.53-.11-.03-.21-.08-.39-.14l-.26,1.62Zm.99-4.17c-.62,.03-.87,.43-.83,1.3,.04,.66,.35,.99,.92,.97,.55-.03,.94-.52,.92-1.18-.01-.63-.46-1.12-1.01-1.09Z"/><path class="f" d="M244.12,255.48l-2.21,.11c.33,.99,.42,1.01,1.84,.67-.2,.61-.66,.84-1.38,.69-.85-.18-1.38-.96-1.27-1.89,.1-.83,.84-1.5,1.62-1.45,.83,.05,1.29,.62,1.39,1.86Zm-.51-.48c-.2-.62-.51-.89-.99-.87-.46,.02-.77,.28-.9,.87h1.89Z"/><path class="f" d="M228.69,256.91c-.14-.74-.18-1.53-.47-2.21-.3-.71-.85-1.32-1.32-2.01q.55-.03,1.9,1.62c.75-.4,.74-1.67,2.09-1.8-.59,.85-1.15,1.45-1.45,2.16-.29,.68-.32,1.48-.46,2.22l-.3,.02Z"/><path class="f" d="M231.91,256.98c-.92,.03-1.63-.7-1.64-1.68,0-.9,.67-1.65,1.52-1.69,.83-.04,1.59,.68,1.65,1.57,.06,.94-.64,1.77-1.53,1.8Zm.91-1.64c.02-.65-.36-1.14-.91-1.17-.55-.03-1.02,.43-1.05,1.04-.04,.69,.39,1.22,.98,1.23,.56,0,.96-.44,.98-1.1Z"/><path class="m" d="M262.23,256.6c-.32,.08-.62,.15-.92,.24-.55,.17-1.07,.29-1.52-.22-.51-.59-.18-1.08,.12-1.64h1.68q-.2-.89-1.72-.64c.39-.63,.85-.84,1.49-.66,.56,.16,.88,.51,.88,1.12,0,.6,0,1.19,0,1.81Zm-.53-.54c-.05-.59-.47-.81-1.03-.79-.41,.01-.56,.24-.56,.59,0,.45,.44,.8,.9,.66,.29-.09,.52-.34,.69-.47Z"/><path class="m" d="M236.7,253.77c.26,.98,.07,1.98,.1,2.94-.49,.08-.91,.16-1.34,.23-.69,.11-1.2-.14-1.26-.75-.08-.81-.02-1.63-.02-2.44l.25-.05c.09,.16,.26,.32,.27,.5,.04,.43,.01,.87,0,1.31,0,.47,.03,.9,.65,.93,.55,.02,.89-.33,.92-.98,.02-.4,0-.79,0-1.19,0-.18,.08-.35,.12-.53l.31,.03Z"/><path class="d" d="M262.58,269.13c-.37,.11-.74,.22-1.12,.33l-.27,.72c-.13-.05-.26-.07-.26-.1-.01-.74,0-1.48,0-2.21,1.34-.34,1.54-.23,1.82,.9,.92-.58,1.47-.55,1.79,.09,.24,.47,.04,1.06-.45,1.33-.59,.32-.98,.04-1.5-1.06Zm1.71,.2l-.58-.59c-.17,.19-.47,.37-.47,.56,0,.18,.28,.42,.49,.51,.08,.04,.31-.26,.56-.48Zm-1.94-.76c-.26-.19-.41-.38-.53-.36-.18,.02-.34,.2-.5,.3,.12,.12,.23,.35,.35,.35,.19,0,.37-.15,.69-.29Z"/><path class="m" d="M270.82,252.38l.17,1.42c.07,.03,.15,.1,.2,.09,1.49-.48,1.87-.22,1.84,1.35,0,.55,.22,1.15-.32,1.78-.1-.28-.2-.44-.21-.61-.03-.4-.01-.79,0-1.19,0-.48,.05-1.01-.65-1.04-.58-.02-.87,.37-.9,1.12-.02,.52-.05,1.04-.09,1.8-.59-.98-.6-3.71-.03-4.72Z"/><path class="k" d="M229.01,263.24l.84,.33c-.99,.45-1.13,.38-1.75-.73l-.73,.92c-.55-.73-1.05-1.38-1.53-2.05-.04-.06,.05-.22,.09-.41,.7,.32,1.02,.94,1.46,1.56l.47-.77c.29,.02,.52,.06,.76,.03,.26-.03,.52-.18,.78-.17,.4,.01,.66,.27,.68,.68,.02,.45-.3,.49-.64,.5-.11,0-.22,.05-.44,.1Z"/><path class="d" d="M259.62,268.41c-.18,.6-.34,1.14-.54,1.8l-.61-.71c-.08,.14-.15,.25-.2,.37-.2,.48-.57,.52-.98,.36-.46-.18-.68-.54-.63-1.04,.06-.49,.41-.96,.83-.83,.74,.23,1.45,.13,2.13,.05Zm-2.38,.46l.07,.29,.56-.18c-.03-.07-.06-.19-.09-.19-.18,.01-.36,.05-.54,.08Z"/><path class="m" d="M265.7,256.75c-.42,.06-.83,.11-1.23,.18-.85,.14-1.32-.18-1.33-1.04-.01-.71-.18-1.45,.19-2.24,.48,.35,.31,.77,.34,1.12,.02,.28,0,.55,0,.83,0,.44,.11,.79,.63,.83,.51,.04,.88-.28,.92-.85,.03-.43-.01-.87,.02-1.31,.01-.19,.13-.37,.24-.65,.38,.8,.43,1.83,.21,3.12Z"/><path class="e" d="M273.63,253.85l.64-1.03c.32,.41,.61,.77,.95,1.21-.75,.19-.6,.82-.6,1.39,0,.78,0,.78,.67,1.27-.75,.43-1.14,.32-1.26-.39-.07-.39,.01-.8-.05-1.19-.06-.39-.21-.77-.36-1.26Z"/><path class="k" d="M271.5,262.23c.05,.46,.15,.98-.2,1.76-.12-.46-.18-.66-.23-.86-.05-.2-.1-.41-.35-.63l-.32,1.05c-1.22,.49-1.43,.38-1.48-.83-.02-.35,0-.7,0-1.06,.92,.08,1.83-.26,2.58,.56Zm-1.66,.18l-.29-.05c-.03,.27-.07,.54-.08,.8,0,.05,.16,.1,.3,.18,.04-.2,.09-.34,.1-.48,0-.15-.02-.3-.03-.44Z"/><path class="k" d="M289.27,262.03l.56,.86c.43-1.13,1.26-1.02,2.3-.83l-.5,.53c.21,.24,.8,.51,.37,1.01-.3,.35-.66,.36-1.11,0l.64-.32-.92-.71c-.43,.69-.48,1.57-1.38,1.94,.6-.86-.18-1.59-.19-2.38l.23-.11Z"/><path class="k" d="M241.68,263.71v-2.29h1.29v2.29h-1.29Z"/><path class="d" d="M251.12,269.02c-.02-.73,.52-1.33,1.21-1.36,.69-.03,1.28,.56,1.29,1.28,.02,.71-.54,1.34-1.22,1.37-.68,.03-1.27-.56-1.29-1.29Zm1.19-.86c-.45,.03-.74,.41-.69,.91,.04,.44,.27,.73,.74,.74,.45,0,.76-.35,.75-.86,0-.5-.34-.83-.81-.79Z"/><path class="k" d="M266.39,263.82c-.11-.59-.18-.93-.24-1.27l-.17-.05-.49,1.22c-.59-.54-.36-1.07-.31-1.71,.65-.02,1.27-.1,1.88-.03,.23,.02,.54,.34,.61,.58,.1,.35,.03,.76,.03,1.14l-.29,.05c-.1-.4-.21-.8-.36-1.42l-.65,1.48Z"/><path class="n" d="M252.48,257c-.47-1.17-.4-3.9,.06-4.44,.44,.73,.43,3.57-.06,4.44Z"/><path class="f" d="M239.25,253.85l1.47-.09c0,.15,.02,.28,0,.29-.94,.3-1.1,.99-1,1.85,.04,.31-.03,.62-.05,.97-.55-.35-.63-1.01-.42-3.02Z"/><path class="f" d="M251.18,257c-.41-.77-.49-2.84-.21-4.47,.17,.13,.41,.22,.41,.32,.02,1.27,0,2.54-.02,3.82,0,.1-.11,.2-.18,.34Z"/><path class="d" d="M254.35,268.84c.54,.21,.6-.64,1.05-.5,.54,.17,.54-.4,.96-.67v2.34q-1.01,.38-1.78-.29c-.1,.11-.2,.23-.29,.34,.02-.41,.04-.82,.07-1.22Zm1.28-.36c-.27,.4-.52,.61-.51,.81,.01,.2,.3,.37,.46,.56,.13-.16,.36-.32,.37-.48,.01-.22-.15-.45-.32-.88Z"/><path class="d" d="M267.21,268.47c.47-.04,.95-.09,1.46-.14,.04,.39,.05,.69,.11,.97,.18,.78-.09,1.09-.88,.95-.23-.04-.45-.1-.68-.16-.03-.06-.03-.12-.01-.19l.58-.41c-.21-.33-.4-.61-.58-.89-.02-.05-.02-.09,0-.14Z"/><path class="n" d="M244.7,268.03v.03l-.11,.36c-.04,.07-.09,.14-.13,.22-.22,.53-.45,1.07-.68,1.64-.73-.63-1.15-1.61-.97-2.57l.82,1.74c.24-.55,.42-1.01,.64-1.44,.13-.25,.32-.38,.45,.02Z"/><path class="k" d="M273.64,262.88l-1,.4,.76,.27c-.78,.41-1.2,.34-1.5-.21-.27-.5,.04-1.23,.63-1.46,.46-.18,.76,.08,1.11,1Z"/><path class="k" d="M241.23,263.76c-1.55,.19-1.62,.09-1.19-1.64,1.25-.32,1.48-.03,1.19,1.64Z"/><path class="k" d="M286.79,263.75c-.27,.04-.49,.1-.72,.12-.59,.05-.9-.32-.99-.82-.08-.47,.15-.84,.59-1.06,.35-.18,.7-.36,1.12-.59v2.35Zm-.26-.8c-.24-.22-.4-.48-.53-.47-.17,.02-.43,.25-.44,.4-.01,.15,.22,.41,.39,.45,.12,.03,.32-.2,.58-.38Z"/><path class="d" d="M266.52,268.65l-.56,.2c.06,.44,.26,.86,.13,1.12-.23,.46-.7,.44-1.13,.15,0-.29,.06-.6-.01-.87-.18-.65,.06-.99,.71-.92,.29,.03,.58,.07,.87,.11,.01,.07,.01,.14,0,.22Z"/><path class="k" d="M262.92,262.44c-.16,.14-.37,.24-.46,.41-.11,.21-.12,.47-.38,.72l-.26-1.03-.17-.02-.32,1.3c-.64-1.21-.6-1.78,.22-2.57l.17,.67c.33,.28,1.1-.33,1.2,.53h0Z"/><path class="k" d="M287.47,262.06c1.3-.15,1.42,.01,1.23,1.65-.52,.24-1.13,.33-1.39-.28-.16-.37,.09-.92,.16-1.37Z"/><path class="k" d="M282.23,263.29h1.37c-.33-.36-.52-.57-.76-.83l.78-.6h-1.23c.03-.16,.02-.3,.08-.36,.33-.33,.74-.36,1.06-.07,.19,.18,.25,.51,.33,.79,.05,.18-.02,.39,.04,.56,.15,.44,.09,.82-.34,1.01-.45,.19-.91,.18-1.34-.49Z"/><path class="k" d="M251.73,264.24v-2.16c.28-.05,.54-.12,.8-.14,.46-.02,.77,.21,.82,.67,.06,.48,.06,.97-.5,1.2-.34,.14-.7,.26-1.13,.42Zm1.41-1.36c-.27-.18-.45-.4-.61-.39-.13,0-.35,.3-.35,.45,0,.15,.27,.41,.4,.4,.17-.01,.32-.25,.56-.46Z"/><path class="k" d="M262.91,262.45c.3-.17,.58-.4,.9-.48,.4-.1,.81,.04,.95,.47,.12,.39,.25,.87-.4,.97,0-.16,.04-.34-.02-.46-.09-.18-.23-.39-.4-.46-.09-.04-.43,.23-.42,.28,.07,.22,.2,.44,.37,.6,.09,.08,.3,.03,.46,.04-.4,.55-.79,.62-1.1,.13-.2-.31-.23-.73-.34-1.09h0Z"/><path class="k" d="M225.44,263.71c-1.49,.3-1.82-.1-1.29-1.79,.11,.34,.18,.53,.23,.72,.05,.22,.08,.44,.12,.67,.91-.04,.3-.98,.95-1.29v1.69Z"/><path class="k" d="M222.21,261.97c.27,0,.56-.05,.82,.02,.44,.11,.71,.67,.6,1.13-.12,.52-.71,.87-1.17,.72-.41-.14-.73-.69-.6-1.14,.07-.26,.24-.49,.36-.74h0Zm.51,.34c-.19,.29-.42,.49-.4,.64,.02,.16,.29,.29,.45,.43,.13-.16,.35-.32,.36-.49,0-.16-.22-.32-.41-.58Z"/><path class="k" d="M222.22,261.96c-.91,.25-.9,1.07-1.06,2.08-.4-.99-.69-1.7-1.07-2.62,.43,.27,.72,.46,1.01,.64,.27-.26,.55-.51,.93-.87l.19,.78h0Z"/><path class="n" d="M237.78,253.88c-.04-.29-.13-.58-.11-.86,.01-.18,.19-.34,.29-.51,.16,.14,.48,.31,.46,.41-.07,.38-.25,.73-.39,1.1l-.25-.13Z"/><path class="k" d="M281.01,263.87c-.7-.58-.83-1.42-.42-2.32,.47,.25,.49,.58,.36,1.05-.09,.34,.02,.74,.05,1.27Z"/><path class="e" d="M266.52,268.65c.01-.07,.01-.14,0-.22l.33-.53,.37,.56s-.02,.09,0,.14c-.26,.43-.29,.87,0,1.3-.02,.06-.01,.13,.01,.19-.36,.22-.5,0-.56-.3-.07-.38-.1-.76-.15-1.15Z"/><path class="f" d="M254.35,268.84c-.02,.41-.04,.82-.07,1.22-.09-.21-.25-.41-.26-.62-.02-.49,.03-.99,.05-1.48h.22l.05,.89Z"/><path class="k" d="M253.97,263.49c-.57-.57-.56-.67,.04-1.35,.04,.05,.09,.09,.13,.14,0,.35-.02,.71-.03,1.06-.05,.05-.09,.1-.14,.15Z"/><path class="k" d="M254.01,262.15c.27-.26,.55-.27,.83-.03-.04,.05-.07,.09-.11,.14-.2,0-.39,.02-.59,.02-.04-.04-.09-.09-.13-.14Z"/><path class="d" d="M254.3,267.95h-.22l.06-.16,.16,.16Z"/><path class="i" d="M42.37,185.07l-1.08-.96,2.73-.2,.05,.17-1.7,.99Z"/><path class="i" d="M44.3,184.86l-1.36,2.15-.34-1.54,1.72-.59h-.02Z"/><path class="i" d="M44.32,184.87l-.04-.17,.15,.02-.14,.13h.02Z"/><path class="k" d="M45.39,198.71c-.27,.11-.42,.22-.51,.19-.11-.05-.16-.21-.24-.33,.1-.05,.2-.16,.29-.15,.12,.02,.22,.13,.45,.29Z"/><path class="i" d="M47.62,198.25l-.68,.59c-.15-.19-.38-.37-.42-.58-.03-.14,.24-.47,.36-.46,.21,.02,.4,.22,.74,.45Z"/><path class="i" d="M49.09,197.75c-.03,.42,.25,.91-.25,1.24-.34-.84-.32-.95,.25-1.24Z"/><path class="i" d="M26.62,192.53c.61,.58,.61,.6,.07,1.36q-.6-.62-.07-1.36Z"/><path class="k" d="M40.04,198.62c.19-.12,.33-.26,.44-.25,.1,.01,.19,.19,.28,.3-.11,.09-.22,.25-.33,.25-.11,0-.22-.16-.39-.3Z"/><path class="i" d="M24.64,193.89l-.53-.11c-.03-.3-.1-.61-.06-.91,.02-.13,.25-.33,.38-.33,.13,0,.35,.2,.38,.34,.06,.25,0,.54,0,.8l-.17,.21Z"/><path class="p" d="M24.11,197.91s-.06,.11-.1,.14c-.01,.01-.1,0-.1-.02-.01-.06,0-.12,0-.18,.06,.02,.13,.04,.19,.06Z"/><path class="k" d="M44.64,71.73c-.18,.08-.38,.24-.53,.21-.18-.05-.32-.27-.47-.41,.15-.14,.29-.36,.47-.4,.15-.04,.35,.13,.52,.21v.4Z"/><path class="k" d="M42.32,71.92c-.14,.06-.27,.16-.32,.13-.09-.06-.14-.19-.2-.3,.1-.03,.21-.11,.3-.09,.08,.02,.13,.15,.22,.26Z"/><path class="k" d="M34.34,71.72l.23,.28c-.14-.02-.27-.05-.41-.07l.18-.2Z"/><path class="k" d="M232.87,177.05l2.48-.13,.08,.17-1.58,.94q-.77-.39-.98-.98Z"/><path class="i" d="M233.95,178.58l1.44-.76,.18,.2c-.39,.59-.79,1.18-1.34,2.01l-.29-1.45Z"/><path class="i" d="M235.78,177.78s-.05,.05-.08,.08c-.03-.03-.07-.06-.07-.08,0-.03,.05-.05,.08-.08l.08,.09Z"/><path class="i" d="M215.79,185.46c.52,.56,.55,1.01,.03,1.47q-.67-.64-.03-1.47Z"/><path class="i" d="M218.01,185.52c.57,.4,.5,.85,.15,1.35-.77-.45-.78-.57-.15-1.35Z"/><path class="i" d="M238.87,191.35c-.27,.21-.44,.42-.64,.46-.1,.02-.38-.32-.36-.45,.04-.2,.28-.36,.44-.53l.56,.52Z"/><path class="k" d="M232.11,191.78c-.13,.06-.27,.19-.37,.16-.11-.03-.18-.21-.26-.32,.12-.08,.23-.22,.36-.24,.14-.02,.3,.07,.45,.12l-.18,.28Z"/><path class="p" d="M217.56,190.84c-.22,.2-.3,.76-.94,.15,.4-.07,.66-.11,.93-.15h0Z"/><path class="i" d="M315.37,181.07c.44-.73,1.77-.07,1.92-1.29h-1.06c-.27-.91-.5-1.72-.75-2.56,.77-.37,1.56-.23,2.19,.47,.66,.74,.76,1.71,.27,2.53-.56,.93-1.35,1.2-2.56,.85Zm2.34-2.54c-.38-.26-.61-.53-.78-.5-.18,.03-.39,.33-.45,.55-.03,.11,.27,.45,.37,.43,.25-.05,.47-.25,.86-.48Z"/><path class="i" d="M313.5,178.55c-.26-.43-.51-.87-.77-1.31,.93-.33,1.72-.11,2.28,.61,.62,.8,.65,1.71,.1,2.54-.56,.82-1.27,1.07-2.41,.79,.46-.71,1.64-.22,1.9-1.28l-1.18-.17c.03-.41,.06-.83,.1-1.24,.27,.6,.69,.39,1.2,.29q-.78-.68-1.21-.22Z"/><path class="h" d="M313.5,178.55q.44-.46,1.21,.22c-.51,.11-.93,.31-1.2-.29v.07Z"/><path class="m" d="M309.22,179.83h2.73c-.03,.68-.54,.84-1.02,.92-.67,.12-1.22-.12-1.71-.92Z"/><path class="n" d="M312.07,178.67c-.25,.14-.39,.27-.55,.28-.08,0-.18-.2-.28-.3,.13-.1,.25-.26,.4-.29,.09-.02,.22,.15,.43,.31Z"/><path class="e" d="M310.22,178.67c-.2,.14-.36,.3-.42,.27-.14-.07-.23-.23-.35-.35,.12-.08,.24-.21,.36-.21,.11,0,.22,.15,.41,.29Z"/><path class="i" d="M336.44,177.46l-1.68,.95-1.14-.89c1.06-.2,1.93-.18,2.79-.3l.03,.24Z"/><path class="i" d="M336.69,178.17c-.09,.17-.16,.36-.27,.51-.33,.49-.68,.96-1.19,1.67-.11-.62-.17-1-.25-1.46l1.59-.84s.08,.08,.12,.12Z"/><path class="i" d="M336.57,178.05l.25-.08-.12,.19s-.08-.08-.12-.12Z"/><path class="i" d="M393.07,180.4c-.58-.39-.97-.65-1.41-.94l-1.47,.86v-3.46h2.84c.12,1.08,.04,2.2,.04,3.54Z"/><path class="i" d="M338.12,186.28c.03,.19,.13,.41,.07,.56-.09,.22-.27,.43-.46,.57-.05,.04-.4-.17-.42-.29-.03-.23,.02-.54,.16-.71,.12-.13,.42-.09,.65-.13h0Z"/><path class="m" d="M334.66,170.06c.19,.05,.26,.08,.34,.09,1.45,.08,1.52,.19,1.31,1.67-.32,2.26-.31,2.03-2.35,2.03-.6,0-1.2,.02-1.79,0-.8-.03-.99-.23-1.03-.99-.02-.44,0-.88,0-1.32,0-.46,.2-.84,.66-.84,.63,0,.81-.39,1-.85,.11-.26,.18-.54,.35-.76,.17-.23,.44-.55,.65-.53,.25,.02,.55,.3,.69,.55,.15,.25,.12,.6,.18,.95Zm.85,3.2c.13-.84,.25-1.61,.38-2.46l-1.79-.18-.18-1.56c-1.1,1.38-1.2,2.72-.96,4.2h2.54Zm-3.22-2.21c-.98,.55-.54,1.28-.6,1.86-.02,.13,.27,.3,.6,.64v-2.5Z"/><path class="f" d="M340.06,168.83c.12,.03,.34,.04,.5,.14,.41,.25,.75,.23,1.21,.03,.81-.36,1.53-.1,1.99,.58,.42,.62,.41,1.36-.12,1.99-.59,.7-1.26,1.33-1.91,1.98-.33,.34-.69,.39-1.04,.04-.67-.68-1.36-1.35-1.98-2.08-.44-.52-.52-1.15-.17-1.79,.32-.57,.8-.87,1.53-.89Zm1.14,1.27c-.2-.15-.32-.26-.46-.34-.69-.42-1.2-.39-1.58,.09-.37,.46-.35,.9,.18,1.49,.57,.64,1.2,1.23,1.8,1.84,.71-.69,1.36-1.27,1.95-1.91,.46-.5,.44-1.1,.05-1.5-.43-.44-.92-.4-1.41-.11-.17,.1-.3,.24-.53,.43Z"/><path class="m" d="M310.08,168.99l.73-.42c.28-.03,.55-.09,.83-.1,1.51-.05,2.76,.91,2.93,2.26,.21,1.67-.64,2.86-2.31,3.18-.38,.07-.78,.03-1.18,.04-.81-.29-1.4-.85-1.85-1.56-.03-.71-.06-1.42-.09-2.13l.42-.73,.53-.53Zm1.74,4.43c1.23,0,2.2-.97,2.21-2.2,0-1.22-.98-2.2-2.2-2.21-1.21,0-2.2,.98-2.2,2.2,0,1.21,.99,2.21,2.2,2.21Z"/><path class="m" d="M329.25,171.34c-.03,1.49-1.18,2.63-2.66,2.63-1.51,0-2.73-1.23-2.72-2.74,0-1.51,1.25-2.69,2.77-2.69,1.35,0,2.8,1.25,2.61,2.8Zm-.5-.1c0-1.2-1.03-2.18-2.23-2.15-1.16,.03-2.08,.99-2.08,2.17,0,1.18,.93,2.13,2.1,2.15,1.21,.02,2.22-.97,2.22-2.17Z"/><path class="m" d="M316.51,171.23c0-1.51,1.21-2.74,2.71-2.75,1.51-.01,2.76,1.19,2.79,2.68,.03,1.55-1.23,2.83-2.78,2.82-1.5-.01-2.72-1.24-2.72-2.75Zm4.91-.05c-.02-1.23-1.01-2.17-2.24-2.13-1.16,.03-2.11,1.01-2.12,2.16,0,1.2,1,2.21,2.21,2.2,1.22,0,2.18-.99,2.16-2.23Z"/><path class="o" d="M191.03,244.07l.25-.86c.42,.61,.07,.73-.24,.87v-.02Z"/><path class="k" d="M130.41,249.88c-.24,.2-.41,.45-.56,.44-.16-.02-.42-.28-.41-.44,0-.16,.26-.42,.42-.44,.15-.01,.32,.24,.56,.44Z"/><path class="k" d="M187.89,249.92c-.29,.16-.47,.34-.65,.33-.12,0-.37-.3-.34-.38,.07-.19,.26-.42,.43-.44,.13-.02,.3,.25,.55,.49Z"/><path class="k" d="M189.82,249.64l-.57,.03-.02-.23,.57-.04,.02,.24Z"/><path class="i" d="M152.59,235.72h-1.76l.88-2.23,.88,2.23Z"/><path class="i" d="M165.46,236.28c-.53,.29-.79,.51-1.09,.57-.38,.07-.7-.12-.77-.54-.06-.37,.35-.74,.79-.64,.29,.07,.55,.31,1.06,.62Z"/><path class="k" d="M195.08,249.67l-.57-.04,.02-.24,.57,.04-.02,.23Z"/><path class="k" d="M137.17,250.51c-.19-.27-.42-.45-.41-.62,0-.18,.24-.34,.38-.51,.17,.18,.42,.34,.47,.55,.03,.13-.24,.33-.44,.59Z"/><path class="i" d="M147.09,235.38h-1.75c-.06-.65,.35-.87,.83-.9,.53-.03,.82,.3,.92,.9Z"/><path class="k" d="M180.77,244.02q.15-.69,.77-.34c-.3,.14-.53,.24-.76,.34h0Z"/><path class="k" d="M148.07,249.45c.15-.03,.31-.06,.46-.07,.03,0,.06,.12,.09,.19l-.48,.14-.07-.26Z"/><path class="i" d="M197.5,249.92l-.58,.4c-.11-.18-.3-.35-.32-.53-.01-.11,.28-.38,.36-.35,.18,.06,.31,.26,.54,.49Z"/><path class="k" d="M191.72,249.47c-.07,.02-.13,.07-.19,.06-.04,0-.07-.08-.11-.13,.06-.02,.13-.07,.18-.06,.04,0,.08,.08,.11,.13Z"/><path class="i" d="M126.59,242.89c.09,.91,.03,.97-.8,.8-.05-.88-.01-.92,.8-.8Z"/><path class="k" d="M151.82,250.19c-.17,.14-.25,.26-.31,.25-.12-.02-.22-.11-.33-.18,.07-.08,.13-.21,.2-.21,.11,0,.23,.07,.44,.14Z"/><path class="i" d="M179.84,243.26l-.68,.58c-.15-.19-.38-.36-.42-.57-.02-.14,.25-.48,.36-.47,.21,.02,.4,.23,.74,.46Z"/><path class="i" d="M165.22,255.62c-.31,.19-.49,.39-.66,.37-.16-.01-.29-.24-.44-.38,.13-.11,.26-.31,.39-.31,.19,0,.37,.15,.71,.31Z"/><path class="k" d="M158.58,250.57c-.25-.29-.51-.47-.49-.61,.03-.21,.26-.4,.4-.59,.16,.14,.44,.28,.45,.43,.01,.21-.19,.43-.36,.77Z"/><path class="k" d="M163.91,249.44l.53-.07,.05,.21-.53,.14-.05-.28Z"/><path class="k" d="M178.19,249.47v.82c-.48,.22-.78,.06-.74-.47,.03-.46,.34-.57,.74-.35Z"/><path class="i" d="M175.14,267.97h-1.21q.62-.7,1.21,0Z"/><path class="i" d="M185.66,268.33l.69-1.65,.58,1.58-1.27,.07Z"/><path class="i" d="M182.83,267.98h-1.25q.58-.72,1.25,0Z"/><path class="i" d="M143.75,267.55c.34,0,.69,0,1.03,0,.17,.53-.2,.49-.52,.49-.32,0-.7,.03-.51-.5Z"/><path class="i" d="M139.16,177.16l-1.68,.95-1.18-.96,2.83-.22,.03,.23Z"/><path class="i" d="M139.39,177.94l-1.37,2.15-.33-1.48,1.55-.83c.04,.06,.09,.12,.15,.17Z"/><path class="i" d="M139.24,177.77l.27-.06-.12,.23c-.05-.05-.1-.11-.15-.17Z"/><path class="i" d="M142.23,187.31c-.22-.34-.44-.54-.41-.69,.04-.21,.28-.37,.43-.56,.14,.16,.4,.32,.4,.47,0,.21-.21,.42-.41,.77Z"/><path class="k" d="M139.82,187.26c.04-.14,.05-.32,.14-.42,.08-.09,.26-.11,.4-.11,.05,0,.16,.21,.13,.25-.08,.11-.2,.19-.32,.24-.1,.04-.22,.03-.34,.04h0Z"/><path class="i" d="M136.02,186.83c-.11,.16-.18,.33-.23,.32-.13-.01-.25-.1-.38-.16,.05-.09,.1-.24,.16-.24,.13-.02,.26,.04,.46,.08Z"/><path class="f" d="M128.53,185.95v1.22h-.14v-1.19l.14-.03Z"/><path class="i" d="M146.72,186.56l-.68,.58c-.15-.2-.37-.38-.41-.6-.02-.13,.26-.46,.38-.45,.21,.02,.39,.24,.71,.46Z"/><path class="p" d="M131.04,73.25c-.03,.07-.03,.16-.08,.21-.09,.09-.21,.17-.32,.23-.01,0-.09-.09-.14-.15,.1-.09,.19-.19,.3-.26,.06-.04,.15-.03,.22-.04h.02Z"/><path class="k" d="M246.85,269.05c-.1,.03-.21,.09-.31,.09-.1,0-.21-.06-.34-.26l.6-.12,.05,.29Z"/><path class="i" d="M248.36,253.37c.24,.61,.48,1.21,.78,1.95h-1.65c.05-.67,.44-1.26,.87-1.95Z"/><path class="i" d="M243.61,255h-1.89c.13-.59,.44-.85,.9-.87,.48-.02,.78,.25,.99,.87Z"/><path class="i" d="M261.71,256.06c-.17,.12-.41,.38-.69,.47-.46,.14-.9-.22-.9-.66,0-.35,.16-.58,.56-.59,.55-.02,.97,.2,1.03,.79Z"/><path class="i" d="M264.29,269.32c-.25,.22-.48,.52-.56,.48-.21-.1-.49-.34-.49-.51,0-.19,.3-.37,.47-.56l.58,.59Z"/><path class="i" d="M262.35,268.56c-.32,.14-.5,.29-.69,.29-.12,0-.23-.22-.35-.35,.17-.11,.32-.28,.5-.3,.12-.02,.27,.18,.53,.36Z"/><path class="k" d="M257.24,268.87c.18-.03,.36-.07,.54-.08,.02,0,.06,.12,.09,.19l-.56,.18-.07-.29Z"/><path class="i" d="M255.63,268.48c.17,.43,.33,.66,.32,.88,0,.17-.24,.32-.37,.48-.17-.18-.45-.36-.46-.56-.01-.19,.24-.41,.51-.81Z"/><path class="f" d="M21.86,71.68v-1.2q.53,.69,0,1.2Z"/><path class="e" d="M220.79,167.37c-.08,.11-.15,.32-.24,.33-.39,.04-.79,.02-1.28,.02v-2.32h1.54l.04,.21-1.16,.4,1.4,.52c.36-.67,1.36-.52,1.72-1.26,.04,.78,.09,1.56,.13,2.34-.58,.06-1.2,.33-1.69-.24l-.34-.69q-.81,.07-1.15,.6l1.04,.08Zm1.26,0c.17-.21,.36-.34,.37-.48,0-.15-.16-.3-.25-.46-.15,.13-.37,.24-.43,.41-.04,.1,.16,.29,.31,.53Z"/><path class="r" d="M216.69,167.35c-.16,.03-.37,.01-.46,.11-.43,.46-.83,.96-1.31,1.53l-1.18-1.08,2.24-2.19h.48c-.16,.62-.16,.63,.47,.49v.47l-.04,.45h.03c-.29-.12-.38-.04-.25,.25v-.03Z"/><path class="p" d="M225.07,165.98c.15,.04,.34,.15,.45,.1,.56-.27,1.05-.26,1.53,.18,.07,.07,.29-.03,.44-.05l-.12,1.05c-.07-.03-.2-.09-.2-.08-.45,.85-1.08,.72-1.77,.34-.07-.04-.22,.04-.33,.07-.44-.54-.23-1.08,0-1.62Z"/><path class="n" d="M227.37,167.27l.12-1.05,1.5-.84v2.27c-.56-.04-1.22,.47-1.62-.38Zm.8-1.01c-.17,.29-.36,.47-.36,.65,0,.12,.24,.25,.37,.38,.13-.16,.33-.31,.37-.5,.02-.11-.19-.28-.38-.53Z"/><path class="i" d="M222.94,167.62c-.04-.78-.09-1.56-.13-2.34l1-.24c.02,.37,.04,.67,.06,.97-.16,.11-.44,.2-.46,.33-.06,.42-.03,.86-.03,1.28h-.44Z"/><path class="e" d="M225.07,165.98c-.22,.54-.43,1.08,0,1.62h-.57c-.13-.56-.24-1.05-.35-1.54v.02l.44-.62,.48,.52Z"/><path class="i" d="M220.79,167.37l-1.04-.08q.34-.53,1.15-.6l.34,.69h-.46Z"/><path class="n" d="M224.15,166.08v-.02c-.08,.39-.2,.77-.26,1.16-.05,.33-.14,.53-.51,.4,0-.43-.03-.86,.03-1.28,.02-.13,.3-.22,.46-.33,.09,.02,.18,.04,.28,.07Z"/><path class="e" d="M216.91,167.12l.78,.51q-.72,.65-.99-.28v.03l.24-.25h-.03Z"/><path class="e" d="M215.05,165.47c-.24,.2-.38,.4-.56,.43-.12,.02-.42-.21-.4-.3,.03-.2,.2-.37,.32-.56l.65,.42Z"/><path class="f" d="M216.95,166.67v-.47l.15-.65,.23-.3q.56,.65-.38,1.42Z"/><path class="f" d="M216.48,165.7h-.48c.17-.2,.32-.41,.51-.59,.33-.32,.6-.21,.83,.14l-.23,.3-.62,.16Z"/><path class="m" d="M317.71,178.53c-.39,.23-.61,.43-.86,.48-.1,.02-.4-.32-.37-.43,.06-.22,.26-.51,.45-.55,.18-.03,.4,.24,.78,.5Z"/><path class="i" d="M332.29,171.05v2.5c-.33-.34-.62-.51-.6-.64,.06-.57-.38-1.31,.6-1.86Z"/><path class="i" d="M328.75,171.25c0,1.2-1.01,2.19-2.22,2.17-1.17-.02-2.09-.97-2.1-2.15,0-1.18,.92-2.14,2.08-2.17,1.2-.03,2.23,.95,2.23,2.15Zm-3.48,.68c.34,.73,.87,.93,1.47,.86,.47-.06,1.02-.17,1.04-.86h-2.51Zm.45-.51c.25-.36,.5-.56,.48-.73-.03-.21-.28-.4-.43-.6-.2,.19-.48,.36-.57,.59-.05,.12,.25,.37,.52,.74Zm1.49-.32c.66,.12,.75-.27,.74-.53-.01-.18-.35-.47-.53-.46-.18,0-.43,.32-.47,.53-.03,.16,.21,.38,.26,.46Z"/><path class="i" d="M321.43,171.18c.02,1.23-.94,2.22-2.16,2.23-1.21,0-2.22-1-2.21-2.2,0-1.15,.97-2.12,2.12-2.16,1.24-.04,2.22,.91,2.24,2.13Zm-.99,.77h-2.5c.97,1.15,1.91,1.12,2.5,0Zm.39-1.12l.03-.32-1.15-.64c-.41,.56-.16,.91,.06,1.38l1.06-.42Zm-3.15-.34v.33l1.06,.4c.23-.48,.45-.84,.04-1.33l-1.1,.6Z"/><path class="i" d="M222.05,167.38c-.15-.24-.35-.43-.31-.53,.06-.17,.28-.27,.43-.41,.09,.15,.25,.31,.25,.46,0,.14-.2,.27-.37,.48Z"/><path class="k" d="M216.48,165.7l.62-.16-.15,.65c-.62,.14-.63,.13-.47-.49Z"/><path class="k" d="M228.17,166.26c.19,.25,.4,.42,.38,.53-.04,.18-.24,.33-.37,.5-.13-.13-.38-.26-.37-.38,0-.18,.19-.36,.36-.65Z"/><path class="m" d="M313.2,171.9c-.89,1.26-1.86,1.26-2.75,0h2.75Z"/><path class="e" d="M313.21,170.68c-.23,.16-.36,.3-.51,.32-.09,.01-.3-.19-.29-.25,.04-.15,.16-.36,.28-.39,.12-.02,.27,.16,.51,.32Z"/><path class="e" d="M311.45,170.84c-.15,.05-.3,.16-.43,.14-.15-.03-.28-.17-.42-.26,.08-.11,.16-.32,.25-.32,.15,0,.3,.11,.45,.18l.15,.27Z"/><path class="j" d="M325.27,171.93h2.51c-.03,.68-.57,.8-1.04,.86-.6,.07-1.13-.12-1.47-.86Z"/><path class="f" d="M325.73,171.42c-.27-.37-.56-.62-.52-.74,.09-.24,.37-.4,.57-.59,.15,.2,.4,.39,.43,.6,.02,.17-.23,.37-.48,.73Z"/><path class="m" d="M327.22,171.1c-.05-.08-.3-.29-.26-.46,.04-.21,.29-.52,.47-.53,.18,0,.52,.28,.53,.46,.02,.26-.08,.65-.74,.53Z"/><path class="j" d="M320.43,171.95c-.59,1.12-1.53,1.15-2.5,0h2.5Z"/><path class="m" d="M320.82,170.83l-1.06,.42c-.21-.47-.47-.83-.06-1.38l1.15,.64-.03,.32Z"/><path class="j" d="M317.67,170.5l1.1-.6c.41,.49,.19,.85-.04,1.33l-1.04-.4v-.33Z"/></g></g></g></svg>