<?xml version="1.0" encoding="UTF-8"?><svg id="a" xmlns="http://www.w3.org/2000/svg" viewBox="0 0 418.81 296.08"><defs><style>.b{fill:#0a77ff;}.c{fill:#e9e9e9;}.d{fill:#343434;}.e{fill:#3d3d3d;}.f{fill:#d1d1d1;}.g{fill:#5c5c5c;}.h{fill:#0374ff;}.i{fill:#4d4d4d;}.j{fill:#151515;}.k{fill:#131313;}.l{fill:#d6d6d6;}.m{fill:#bdbdbd;}.n{fill:#0373ff;}.o{fill:#0d0d0d;}.p{fill:#242424;}.q{fill:#080808;}.r{fill:#767676;}.s{fill:#dadada;}.t{fill:#2c2c2c;}.u{fill:#161616;}.v{fill:#0474ff;}.w{fill:#383838;}.x{fill:#0273ff;}.y{fill:#dfdfdf;}</style></defs><path class="k" d="M17.46,165.11c0-31.44,0-62.87,0-94.31,0-.32,.02-.64,0-.95-.23-2.76,2.41-4.66,4.64-4.66,30.76,.05,61.52,.05,92.28,0,2.46,0,4.78,2.19,4.77,4.84-.05,40.75-.03,81.5-.03,122.24,0,22.76,0,45.52,.01,68.28,0,1.6-.58,2.86-1.79,3.84-.73,.59-1.58,.88-2.54,.87-1.51-.03-3.02,0-4.54,0-29.37,0-58.73,0-88.1,.02-1.7,0-3.08-.51-3.96-1.95-.4-.65-.53-1.47-.71-2.23-.09-.38-.02-.79-.02-1.19,0-31.6,0-63.19,0-94.79Zm100.26,82.73v-.45c.04-.39,.11-.78,.11-1.17,0-58.61,0-117.23,0-175.84,0-.28,.01-.56,0-.84-.1-1.76-1.28-2.95-3.04-3.07-.32-.02-.64,0-.95,0-30.44,0-60.88,0-91.32,0-.28,0-.56-.01-.84,0-1.76,.13-2.94,1.33-3.02,3.09-.02,.32,0,.64,0,.95,0,58.57,0,117.15,0,175.72,0,.36,.02,.72,.02,1.07l.16,.51c-.06,.33-.18,.66-.18,1-.02,2.07,0,4.14,0,6.2,0,1.91-.02,3.82,0,5.73,.02,2.03,1.23,3.24,3.27,3.32,.36,.01,.72,0,1.07,0,30.02,0,60.04,0,90.06,0,.44,0,.87,0,1.31,0,2.25-.04,3.45-1.24,3.47-3.49,.01-2.58,.01-5.17,0-7.75,0-1.59-.04-3.18-.06-4.76,0-.03,.03-.06,.02-.09-.02-.05-.05-.1-.08-.15Z"/><path class="q" d="M229.5,165.27c0,31.83,0,63.66,.01,95.49,0,1.92-.83,3.29-2.5,4.11-.54,.27-1.22,.35-1.84,.36-10.5,.02-21.01,.01-31.51,.01-20.49,0-40.98,0-61.47,0-1.84,0-3.1-.87-3.9-2.44-.23-.44-.27-.98-.34-1.49-.05-.39-.01-.79-.01-1.19,0-63.34,0-126.68,0-190.03,0-.63-.02-1.29,.16-1.88,.55-1.82,2.21-3,4.12-3,30.95,0,61.91,.02,92.86-.04,2.13,0,4.46,2.22,4.45,4.47-.06,31.87-.04,63.74-.04,95.61Zm-1.25,82.59v-.51c0-.28,0-.56,0-.84,0-58.7,0-117.4,0-176.09,0-.28,.02-.56,0-.84-.17-1.68-1.23-3.08-3.19-2.99-.36,.02-.72,0-1.07,0-30.24,0-60.49,0-90.73,0-.36,0-.72,0-1.07,0-1.69,.03-2.93,1.2-3.01,2.88-.02,.44,0,.88,0,1.31,0,58.34,0,116.68,0,175.02,0,.52,0,1.03,.01,1.55v.48c0,4.3-.02,8.59,0,12.89,0,1.22,.34,2.37,1.56,2.84,.86,.33,1.84,.48,2.77,.48,30.15,.02,60.29,.02,90.44,.02,.28,0,.56,.01,.84,0,2.5-.17,3.5-1.71,3.49-3.68-.01-4.18,0-8.35-.01-12.53Z"/><path class="v" d="M140.97,14h7.73v15.38l.2,.08c.2-.27,.41-.53,.6-.81,1.58-2.24,3.18-4.47,4.73-6.74,.42-.61,.85-.91,1.64-.89,2.39,.06,4.77,.02,7.16,.02,.3,0,.61,0,1.21,0-3.04,3.89-5.91,7.56-8.8,11.25,2.97,3.69,5.88,7.3,8.96,11.13-.56,0-.85,0-1.15,0-2.47,0-4.93-.03-7.4,.02-.72,.01-1.16-.21-1.55-.81-1.52-2.33-3.1-4.63-4.65-6.93-.22-.33-.45-.65-.77-1.11-.31,1.03-.13,1.95-.16,2.86-.03,.99,0,1.99,0,2.98,0,.95,0,1.89,0,2.92h-7.75V14Z"/><path class="n" d="M217.24,13.99h7.65v15.64c.35-.34,.55-.49,.69-.68,1.66-2.33,3.33-4.66,4.94-7.03,.42-.62,.85-.91,1.64-.89,2.42,.06,4.85,.02,7.28,.02h1.09c-3.02,3.87-5.9,7.54-8.8,11.25,2.96,3.67,5.86,7.28,8.91,11.07-.51,.03-.76,.05-1.02,.05-2.51,0-5.01-.03-7.52,.02-.73,.01-1.14-.25-1.53-.85-1.55-2.36-3.14-4.69-4.73-7.03-.21-.31-.45-.6-.87-.82v8.6h-7.74V13.99Z"/><path class="h" d="M7.62,15.38c.34-.03,.53-.06,.72-.06,2.5,0,5.01,0,7.63,0l6.26,19.88,.2,.03,6.21-19.84h8.33l-9.63,27.96h-10.05c-3.22-9.3-6.43-18.59-9.68-27.96Z"/><path class="h" d="M39.26,33.93h7.42c.05,.39,.08,.77,.16,1.15,.4,1.81,2.73,2.74,4.26,1.7,.9-.61,1.06-1.52,1.01-2.53-.05-1.01-.48-1.82-1.43-2.15-.81-.28-1.7-.35-2.56-.46-.46-.06-.94-.01-1.46-.01v-6.25c.36-.03,.7-.05,1.04-.08,.59-.05,1.2-.05,1.77-.17,1.68-.37,2.32-1.32,2.09-3.03-.15-1.1-.77-1.75-1.83-1.89-1.13-.16-1.93,.29-2.35,1.37-.16,.4-.25,.84-.38,1.32h-7.44c-.27-3.75,1.96-7.27,5.48-8.51,2.94-1.04,5.94-1.05,8.89-.03,3.93,1.36,5.92,5,5.1,9.09-.38,1.88-1.46,3.22-3.04,4.22-.3,.19-.62,.34-1.08,.59,.42,.2,.71,.33,1.01,.48,2.45,1.26,3.68,3.27,3.8,6.02,.17,4.14-2.08,7.62-6.93,8.63-2.54,.53-5.07,.36-7.54-.44-3.97-1.3-6.41-4.97-5.98-9.01Z"/><path class="n" d="M190.25,32.28c-.05-3.08,.85-5.81,2.99-8.06,4.52-4.77,13.48-4.56,17.77,.4,2.01,2.32,2.72,5.07,2.65,8.07-.12,5.34-3.39,9.41-8.57,10.64-2.82,.67-5.63,.54-8.3-.63-4.52-1.98-6.47-5.63-6.54-10.42Zm15.59,.05c-.17-.83-.24-1.55-.46-2.22-.52-1.59-1.93-2.59-3.49-2.55-1.58,.03-2.92,1.07-3.41,2.67-.43,1.4-.41,2.82,.06,4.21,.51,1.51,1.59,2.34,3.16,2.48,1.4,.13,2.87-.7,3.45-2.07,.35-.82,.48-1.74,.68-2.52Z"/><path class="x" d="M109.72,21.55h-7.32v-6.18h22.55v6.15h-7.39v21.83h-7.83V21.55Z"/><path class="h" d="M180.75,43.36h-7.88V21.55h-7.32v-6.17h22.52v6.14h-7.32v21.83Z"/><path class="v" d="M136,43.36h-7.7V21.11h7.7v22.25Z"/><path class="b" d="M89.75,26.41v6.39h-18.02v-6.39h18.02Z"/><path class="v" d="M132.17,19.06c-.5-.07-1.06-.11-1.6-.25-1.71-.43-2.89-1.88-2.97-3.61-.08-1.73,.94-3.31,2.58-3.91,1.27-.46,2.58-.48,3.86-.04,1.71,.58,2.78,2.18,2.69,3.95-.09,1.77-1.31,3.23-3.09,3.64-.46,.11-.94,.14-1.47,.22Z"/><path class="r" d="M117.47,247.9c-.56,0-1.11-.02-1.67-.02-31.8,0-63.61,0-95.41,0-.52,0-1.03-.03-1.55-.05l-.16-.51c.6,.01,1.19,.04,1.79,.04,31.94,0,63.88,0,95.82,0,.48,0,.95,.02,1.43,.03v.45l-.25,.07Z"/><path class="y" d="M117.47,247.9l.25-.07s.06,.09,.08,.15c0,.02-.01,.06-.02,.09l-.31-.17Z"/><path class="w" d="M129.18,247.36c0-.52-.01-1.03-.01-1.55,0-58.34,0-116.68,0-175.02,0-.44-.02-.88,0-1.31,.09-1.68,1.32-2.86,3.01-2.88,.36,0,.72,0,1.07,0,30.24,0,60.49,0,90.73,0,.36,0,.72,.01,1.07,0,1.96-.08,3.02,1.31,3.19,2.99,.03,.28,0,.56,0,.84,0,58.7,0,117.4,0,176.09,0,.28,0,.56,0,.84-.2,0-.4,.02-.6,.02-32.83,0-65.65,0-98.48,0Zm41.88-74.91l.76-.76,.3-.32c.85,1.33,1.78,1.63,2.65,.94,.6-.48,.63-1.84,.05-2.44-.7-.72-1.6-.5-2.75,.72-.43-.68-.88-1.35-1.85-1.12-.09,.02-.22-.15-.33-.24-.17-.13-.34-.25-.51-.37-.11,.19-.31,.38-.32,.57-.04,.83-.02,1.66-.02,2.5,0,.5,.29,.6,.72,.46l.39,.05c.3,.34,.6,.34,.91,0Zm-9.8-26.35l.03,.55v3.11c.52,.22,.76,.08,.76-.41,0-.9-.04-1.8-.05-2.7l.05-.78q0-.68-.89-.63l.1,.86Zm-2.49,23.66c.06-.25,.18-.52,.15-.76-.02-.16-.26-.3-.41-.45-.14,.15-.37,.28-.4,.45-.04,.24,.06,.51,.1,.77-.04,.75-.1,1.49-.09,2.23,0,.14,.28,.27,.43,.41,.11-.14,.31-.28,.31-.42,0-.75-.06-1.49-.09-2.24Zm49.71-5.81c.13-.15,.37-.29,.38-.44,.03-.69,0-1.38-.02-2.07,.07-.26,.21-.53,.17-.78-.03-.22-.26-.4-.41-.6-.18,.17-.5,.33-.51,.51-.04,.98-.03,1.96,.01,2.94,0,.15,.25,.29,.38,.44Zm-9.74,6.55h.54c0,.23-.02,.47,0,.71,.07,.77,.6,1.31,1.35,1.4,.71,.08,1.38-.37,1.62-1.1,.23-.71-.07-1.43-.72-1.82-.59-.35-1.13-.21-1.68,.07h-.69c-.15-.2-.29-.41-.46-.6-.11-.13-.25-.32-.38-.32-.13,0-.27,.19-.37,.33-.08,.12-.12,.27-.17,.41l-.56,.22c-.51-.36-1.03-.48-1.49,.03-.57,.61-.03,1.08,.29,1.61-.12,.11-.25,.2-.34,.32-.08,.11-.11,.26-.17,.39q1,.62,1.9-.03l.55,.26h.69l.08-1.88Zm-62.87,64.74l-.91-.53,.69-.55c-.56-.2-.94-.3-1.25,.17-.31,.46,0,.72,.32,.98,.09,.07,.2,.13,.28,.21,.03,.03,0,.13,0,.16l-.79,.15q.85,.62,1.65,0c.28,.15,.54,.32,.83,.44,.54,.23,1.13,0,1.4-.53,.31-.59,.18-1.27-.3-1.59-.46-.31-1.11-.22-1.48,.25-.19,.24-.29,.55-.44,.83Zm4.29,7.37l-.6-.51,.51-.54-.12-.21c-.27,.09-.64,.1-.8,.29-.55,.65,.15,1.01,.47,1.44l-.65,.5q.72,.45,1.42-.29c.79,.74,1.58,.91,2.41,.05,.04-.04,.15-.02,.23-.03,.55,.5,1.05,.62,1.4,.33,.37-.3,.35-.99-.04-1.62-.45,.28,.17,1.16-.77,1.28-.06-.41-.1-.78-.18-1.14-.01-.04-.27-.03-.42-.04-.19-.02-.41,0-.58-.07-1.04-.45-1.04-.45-1.81,.28-.13,.13-.32,.19-.48,.29Zm73.04-79.73l-.47,.4c-.28,.56,.14,.7,.52,.81,.46,.14,.94,.02,1.12-.41,.13-.3,.08-.78-.08-1.07-.14-.27-.53-.41-.85-.63l1-.38q-.94-.73-1.88,0c-.04,.55-.16,1.14,.63,1.28Zm7.91,57.51c.27,.14,.54,.27,.79,.44,.68,.45,1.18,.32,1.46-.46,.1-.28,.19-.64,.1-.91-.11-.34-.34-.76-.63-.88-.29-.12-.73,.05-1.08,.17-.23,.08-.43,.29-.64,.43-.05-.47-.31-.72-.78-.69-.55,.03-.81,.44-.98,.89-.2,.52,.16,1.38,.64,1.62,.47,.23,.74,.08,1.11-.61Zm-69.25-59.19c-.36-.09-.52,.06-.52,.42,0,.43,.03,.88-.04,1.3-.03,.17-.28,.42-.43,.42-.15,0-.42-.24-.44-.4-.07-.42-.02-.87-.04-1.3-.02-.41-.24-.56-.76-.33,0,.45,.02,.95,0,1.45-.02,.6,.11,1.09,.76,1.3,.66,.22,.98,.12,1.58-.6l.37-1.53c.61-.26,1.1-.69,.87-1.82-.32,.39-.54,.59-.65,.83-.16,.33-.4,.31-.68,.26Zm38.68,9.04l-.74-1.51c-.72,.23-.74,.83-.78,1.26-.05,.65,.14,1.31,.21,1.97,.05,.51,.32,.56,.82,.37,0-.55,0-1.1,0-1.64,0-.34,.17-.51,.52-.48,0,.35-.04,.7,0,1.04,.08,.69,.63,1.22,1.32,1.34,.67,.11,1.34-.26,1.63-.9,.29-.65,.14-1.36-.39-1.83-.54-.48-1.23-.53-1.85-.14-.25,.16-.49,.34-.73,.51Zm-22.95-8.34c-.34-.6-.84-.94-1.55-.82-.76,.13-1.18,.59-1.25,1.36-.12-.09-.32-.15-.35-.27-.31-1.04-1.04-1.28-1.99-1.07-.21-.36-.21-.97-.89-.58v3.4c.44,.06,.83,.11,1.21,.16,.64,.09,1.14-.02,1.39-.74,.09-.24,.42-.4,.63-.6,.44,1.53,1.28,1.79,2.68,.82l.66-.03c.13,.08,.26,.17,.4,.25,1.25,.73,2.11,.34,2.33-1.06,.19-1.21-.74-2.01-1.88-1.57-.34,.13-.61,.46-.91,.7l-.47,.03Zm-8.12,.87c.05-1.07-.3-1.6-1.14-1.7-.77-.1-1.51,.43-1.64,1.18-.17,.94,.31,1.67,1.2,1.85,.61,.13,1.06-.16,1.49-.53,.59-.2,.17-.52,.09-.8Zm30.84-.98c-.67-.55,.18-1.01,.12-1.72-.38,.12-.77,.14-.95,.34-.27,.31-.55,.74-.54,1.12,.02,.8,.22,1.59,.34,2.39,.4,.15,.61,0,.63-.41,.01-.43-.03-.87,.02-1.3,.02-.17,.25-.3,.39-.46,.03,.33,.03,.67,.08,1,.11,.72,.72,1.31,1.42,1.39,.64,.08,1.25-.28,1.53-.88,.32-.69,.14-1.46-.44-1.91-.58-.46-1.22-.47-1.86-.04-.25,.16-.5,.31-.75,.47Zm-8.43,.37c-.18-.55-.48-.98-1.1-1.08-.16-.42-.33-.44-.52-.02l-1.42,.83-.41-.37c-.37-.67-1.01-.43-1.57-.43-.04-.14-.05-.27-.11-.36-.1-.14-.24-.26-.36-.39-.13,.13-.36,.25-.36,.39-.03,.99-.03,1.99,.02,2.98,0,.11,.36,.21,.72,.4,0-.67-.01-1.1,0-1.54,.01-.44,.16-.82,.69-.76,.44,.04,.38,.44,.39,.74,.01,.46,0,.93,0,1.36,.51,.13,.81,.16,.75-.36,.16-.06,.36-.2,.47-.15,.23,.12,.4,.37,.63,.51,.88,.54,1.79,.17,2.01-.8l.02-.27s.08-.07,.13-.07l.5,.09,.13,1.13,.24,.08c.13-.19,.33-.35,.38-.56,.07-.3,.01-.63,.04-.95,.05-.66,.42-.88,1.03-.76,.07,.53,.07,1.05,.22,1.51,.19,.56,.88,.94,1.45,.81,.52-.12,1.16-.2,1.1-1v-.34c.07-.22,.21-.46,.16-.65-.26-1.03-1.28-1.39-2.24-.81-.22,.13-.42,.31-.65,.47l-.32-.78-1.45,.22-.09,.86-.47,.07Zm34.47,32.63c.37,.43,.22,.88,.05,1.34-.19,.52-.35,1.05-.52,1.57-19.06,0-38.12,0-57.17,0-8.24,0-16.47,0-24.71,0-.46,0-.92,.04-1.35,.06-.25,1.81-.17,11.91,.12,12.81,30.74,0,61.51,0,92.25,0,.25-1.42,.21-11.88-.06-12.9-.86,.05-1.76,.07-2.66,.16-.35,.03-.64,.13-.68-.36,1-.14,1.67-.75,2.18-1.57,.22-.36,.43-.73,.65-1.1,.84,.09,.73-.5,.73-1.02,0-3.62,0-7.24,0-10.86,0-.3-.07-.6-.11-.91l-1.33-.11c-.52-.42-.5-1.42-1.31-1.26-.4,.08-.69,.65-1.02,.99l-.83-1.04c-1.06-.03-1.04,.92-1.49,1.28-.76-.11-.65-.56-.46-1.01-1.1-.44-.96,.65-1.41,1.14h-84.6v12.82h1.61c26.86,0,53.72,0,80.58,0,.52,0,1.03-.02,1.55-.03Zm-37.58-76.49c-2.01-.27-3.84,.24-5.45,1.43-.63,.47-1.19,1.05-1.74,1.62-1.4,1.47-2.28,3.17-2.2,5.27,.03,.91,0,1.83,0,2.74,0,.28-.04,.57,.05,.83,.83,2.56,2.29,4.6,4.73,5.89,1.54,.82,3.11,1.32,4.87,1.13,.59-.06,1.25,.1,1.77-.1,2.15-.85,4.3-1.72,5.65-3.83,.84-1.31,1.59-2.6,1.56-4.22-.02-1.11,.01-2.23-.01-3.34,0-.34-.11-.68-.19-1.02-.37-1.66-1.35-2.92-2.61-3.99-1.68-1.41-3.45-2.65-5.83-2.41-.2,.02-.4,0-.6,0Zm47.58,36.95c0-.44,.02-.88,0-1.31-.01-.19-.11-.38-.16-.57-.59-2.39-3.27-4.76-5.91-4.39-.23,.03-.48,.01-.72,0-2.02-.08-3.48,.92-4.66,2.42-2.18,2.78-1.47,7.22,1.67,9.19,.4,.25,.75,.5,.77,1.1,.02,.44,.29,.91,.54,1.3,.53,.84,1.81,1.46,2.55,1.22,1.15-.38,2.14-1.04,2.28-2.33,.08-.72,.44-1.04,.94-1.38,1.82-1.27,2.78-3,2.7-5.24Zm-1,18.21c-.23-.57-.36-1.21-.71-1.68-.85-1.14-2.15-1.38-3.5-.64-.49,.27-.85,.31-1.3,.03-.2-.12-.45-.16-.66-.26-1.08-.5-2.39,.08-3.23,1.34-.61,.91-.47,2.22,.34,3.07,1.15,1.2,2.34,2.37,3.53,3.54,.6,.59,.78,.59,1.38,0,1.05-1.02,2.06-2.09,3.12-3.1,.65-.62,.99-1.33,1.04-2.29Zm-4.49,72.01c3.5,.23,6.42-2.89,6.42-6.27,0-3.55-2.91-6.44-6.43-6.44-3.53,0-6.4,2.97-6.43,6.45-.03,3.28,2.95,6.51,6.43,6.26Zm-35.27-97.24c-.19-.45-.27-.71-.4-.94-.13-.24-.28-.49-.48-.66-.61-.49-1.43-.47-2.1,.02-.68,.49-.98,1.34-.73,2.1,.24,.74,1.1,1.41,1.81,1.28,.48-.09,.96-.37,1.34-.68,.13-.11-.02-.57-.05-.89l.66-.16c.47,1.37,1.21,1.91,2.25,1.7,.53-.11,.91-.32,.62-1.01-.62,.04-1.39,.46-1.77-.37-.12-.28-.09-.74,.06-1,.39-.68,1.04-.58,1.67-.27,.33-.73-.08-.94-.58-1.04-.95-.2-1.79,.46-2.29,1.94Zm-20.75-1.14c.02,.79,.04,1.5,.04,2.2,0,.52,.2,.74,.86,.48,0-.54,0-1.12,0-1.71,0-.41,.04-.87,.55-.9,.57-.03,.54,.46,.55,.86,.01,.48-.02,.95,.01,1.43,.04,.54,.35,.54,.84,.29,0-.75,.03-1.54,0-2.33-.05-.83-.68-1.26-1.49-1.07-.26,.06-.59,.27-.77,.18-.88-.46-1.66,.09-2.52,.09,0,.93,0,1.76,0,2.59,0,.08-.03,.18,0,.23,.13,.17,.28,.31,.42,.47,.15-.15,.41-.28,.43-.44,.06-.47,.02-.95,.03-1.43,0-.54,.2-.91,1.05-.94Zm57.21,65.24c-.19,.08-.23,.11-.26,.11-.87,.02-1.74,.02-2.61,.05-.99,.03-1.76,.67-1.85,1.63-.07,.75-.04,1.5,0,2.26,.02,.47,.26,.73,.92,.5,0-.75,0-1.53,0-2.31,0-.56,.19-1.08,.76-1.21,.98-.23,1.98-.16,3.15-.03-.33,.43-.55,.66-.69,.93-.07,.14-.06,.43,.03,.52,.1,.09,.42,.09,.52,0,.56-.51,1.11-1.02,1.58-1.6,.14-.17,.11-.66-.04-.85-.38-.5-.85-.94-1.34-1.33-.18-.14-.53-.06-1.05-.09l.87,1.45Zm-59.7-42.63c-.45-.06-.8-.1-1.14-.15-1.25-.19-2.05,.65-1.78,1.89,.1,.47,.46,.91,.17,1.45-.06,.11,.15,.45,.32,.58,.42,.32,.9,.49,1.44,.28,.56-.22,.96-.59,.98-1.21,.03-.94,0-1.87,0-2.85Zm7.73-19.64c.72,0,1.6-.54,1.51-1.03-.06-.32-.23-.52,.15-.74,.1-.05,.1-.36,.07-.53-.19-.99-1.05-1.62-1.96-1.46-.95,.16-1.66,1.08-1.58,2.05,.07,.92,.91,1.72,1.81,1.71Zm-12.5,22.29c0-.63,.03-1.22,0-1.81-.05-.84-.51-1.16-1.36-1.01-.23,.04-.49,.17-.67,.1-.69-.28-1.29,0-1.89,.12v2.62c.41,.16,.71,.15,.76-.3,.04-.35,0-.71,.02-1.07,.02-.3-.02-.66,.48-.7,.37,.53,.14,1.13,.2,1.7,.06,.53,.34,.53,.72,.38q.19-1.86,.91-2.12c0,.6,0,1.14,0,1.68,0,.5,.27,.61,.84,.41Zm31.6-22.61q.84,.15,1.2-.81c.57,.3,.74,1.48,1.8,.77l-1.21-1.7,1.17-1.51c-.95-.5-1.2,.42-1.88,.67-.03-.46,0-.85-.1-1.2-.06-.21-.31-.36-.48-.54-.16,.18-.46,.36-.46,.54-.04,1.26-.02,2.53-.02,3.77Zm7.07,.06c.61,.18,.97,.14,.96-.52,0-.48-.06-.97,.05-1.42,.07-.28,.39-.64,.65-.69,.44-.09,.56,.33,.57,.72,.01,.48,0,.95,0,1.43,0,.67,.39,.67,.96,.46,0-.73,.05-1.48-.01-2.23-.07-.81-.6-1.3-1.31-1.27-.57,.02-1.14,.1-1.83,.16-.15,1.07-.06,2.17-.05,3.36Zm10.68,14.12l.28,.16c.14-.17,.39-.33,.41-.51,.05-.51,.06-1.04,0-1.55-.09-.79-.52-1.05-1.32-.94-.3,.04-.62,.01-.93,.03-.57,.03-1.14,.06-1.77,.09,0,.88-.02,1.63,0,2.39,.02,.44,.31,.49,.66,.33q.32-1.86,.85-2.06c.03,.62,.03,1.2,.1,1.79,.02,.13,.24,.33,.38,.34,.14,0,.37-.19,.39-.32,.06-.43,.03-.87,.05-1.31,.02-.36,.15-.63,.72-.46l.17,2.03Zm-71.3,76.71c-.96,.16-1.82,.15-2.54,.46-.63,.27-.21,1.09-.37,1.64-.02,.07-.07,.14-.13,.24-.13,.03-.28,.08-.43,.11-.48,.11-.68,.48-.56,.89,.1,.34,.35,.75,.64,.89,.2,.09,.67-.16,.87-.39,.21-.24,.32-.62,.35-.96,.05-.58,.02-1.17,.02-1.77l1.57-.35,.09,.95c-.36,.24-.74,.37-.91,.64-.16,.25-.22,.68-.12,.97,.13,.38,.51,.6,.97,.51,.43-.09,.55-.41,.55-.8,0-.94,0-1.89,0-3.02Zm44.73-90.88c.55,.24,.86,.18,.87-.33,.02-.67,.04-1.35-.01-2.02-.05-.68-.48-1.08-1.17-1.11-.31-.01-.61,.07-.92,.11-.28-.32,.03-1.23-1.01-.82,0,1.25-.01,2.55,0,3.86,0,.53,.34,.54,.87,.33,0-.58-.01-1.21,0-1.84,.01-.46,.26-.77,.72-.8,.54-.03,.63,.39,.64,.81,.01,.63,0,1.25,0,1.82Zm-2.99-3.14c.19-.64,0-.89-.47-1.04-.83-.28-1.72,0-2.3,.77-.57,.76-.6,2.03-.05,2.79,.54,.76,1.59,1.09,2.43,.77,.52-.2,.57-.56,.37-1.04-.73,.18-1.45,.48-2-.26-.35-.48-.47-1.01-.14-1.55,.52-.87,1.34-.63,2.16-.44Zm4.13,25.74c.56,.15,.81,.08,.82-.37,0-.44-.02-.88,.05-1.3,.03-.16,.29-.28,.45-.42,.12,.14,.32,.27,.34,.42,.05,.43,0,.88,.06,1.3,.03,.18,.26,.34,.39,.5l.28-.11c0-.7,.03-1.39-.01-2.09-.02-.38-.27-.67-.7-.67-1.03,0-2.06,0-3.16,0-.03,.41-.05,.67-.06,.94,0,.48-.02,.95,0,1.43,.03,.55,.32,.54,.7,.34q.13-1.84,.85-2.01v2.04Zm22.19,.26c.4-.04,.76-.02,1.08-.12,.69-.21,1.08-.97,.93-1.71-.16-.78-.78-1.35-1.47-1.29-.49,.04-.98,.18-1.5,.28,0,.96-.02,1.87,.01,2.78,.02,.4-.25,1.04,.31,1.13,.78,.12,.27-.75,.64-1.06Zm-33.8-98.41l.66-1.04c.32,.34,.3,.98,1.05,.74l.58-1.86-.24-.12-.64,.77-.86-.81-.41,.99-.69-.98c-.31,.06-.57,.15-.84,.14-.31-.01-.62-.16-.92-.17-.61-.01-1.02,.32-1.12,.85-.1,.58,.15,1,.66,1.28,.5,.28,.98,.19,1.37-.29,.21-.26,.37-.56,.57-.87l.84,1.37Zm14.46,96.88c0,.84,.67,1.52,1.5,1.53,.86,0,1.41-.65,1.43-1.71,.01-.78-.67-1.42-1.47-1.39-.82,.03-1.46,.72-1.46,1.58Zm-18.87,1.26c0-.48,0-.91,0-1.34,0-1.34-.21-1.53-1.61-1.48q-.3-.6-.97-.6c0,1.02-.01,2.04,0,3.06,0,.53,.32,.55,.83,.32,0-.47-.05-.98,.02-1.48,.03-.21,.32-.38,.48-.56,.15,.19,.39,.36,.43,.57,.07,.38,.02,.79,.03,1.18,.01,.45,.28,.51,.78,.34Zm37.29-11.33c-.2-.76-.27-.79-1.71-.49l-.21,1.7c.33,.03,.6-.01,.79,.09,.21,.11,.47,.33,.5,.53,.06,.37-.24,.57-.6,.55-.26-.01-.51-.09-.79-.14-.05,.18-.09,.29-.1,.4,0,.07,.04,.16,.09,.21,.53,.46,1.6,.34,2.03-.24,.42-.57,.25-1.46-.37-1.87-.21-.14-.44-.26-.81-.47l1.18-.26Zm-42.8-14.37c.26-.11,.47-.15,.6-.27,.12-.12,.23-.35,.19-.5-.03-.15-.24-.35-.39-.36-.59-.04-1.19-.04-1.79,0-.14,0-.36,.21-.39,.35-.03,.15,.07,.39,.2,.5,.16,.14,.4,.2,.67,.32v3.08c.85,.06,.88,.06,.9-.53,.02-.83,0-1.67,0-2.6Zm13.6,17.42l.36-.16c0-.39,0-.77,0-1.16,0-1.64-.15-1.78-1.75-1.59-.23,.03-.46,.02-.73,.04v2.71c.55,.18,.71-.04,.72-.49,.01-.43,0-.88,.1-1.29,.03-.15,.35-.29,.55-.32,.09-.01,.3,.25,.32,.41,.05,.43,0,.87,.06,1.3,.03,.2,.25,.36,.38,.55Zm-24.45-1.44c.02-.9-.67-1.64-1.53-1.63-.77,0-1.53,.76-1.56,1.54-.03,.83,.75,1.63,1.59,1.62,.85,0,1.48-.65,1.5-1.52Zm12.38-89.73c.15,.28,.25,.54,.43,.75,.46,.55,1.03,.63,1.56,.27,.52-.35,.71-.93,.47-1.45-.24-.52-.89-.77-1.53-.58-.15,.04-.27,.18-.42,.21-.41,.09-.83,.15-1.24,.2-.06,0-.14-.15-.23-.26l.91-.44c-.57-.63-.98-.2-1.37-.09v2.36c.4-.48,.65-1,1.42-.97Zm44.5,97.26c.33-.14,.51-.18,.65-.28,.26-.19,.53-.48,.78-.09,.23,.35-.03,.53-.36,.7-.18,.09-.28,.41-.33,.64-.06,.29-.09,.61,0,.89,.06,.21,.3,.36,.46,.54,.13-.17,.4-.4,.36-.5-.21-.55-.04-.86,.41-1.2,.46-.35,.54-1.06,.26-1.5-.3-.49-.76-.71-1.32-.58-.59,.14-.96,.5-.9,1.38Zm-7.39-6.96c.07,.11,.13,.21,.2,.3,.13,.16,.27,.32,.41,.48,.13-.16,.27-.32,.4-.48,.16-.21,.31-.42,.51-.68-1.04-.54-.11-1.75-.86-2.56-.91,.77-1.43,1.74-2.1,2.8l1.45,.15Zm10.86-1.97c0,.79-.02,1.54,.02,2.28,0,.17,.26,.32,.4,.48,.14-.15,.38-.29,.41-.46,.07-.43,0-.88,.09-1.3,.03-.17,.32-.4,.48-.39,.16,0,.42,.25,.45,.43,.08,.38,.04,.79,.05,1.19,.01,.38,.14,.62,.72,.45,0-.65,.06-1.36-.02-2.05-.08-.62-.56-.89-1.23-.81-.39,.04-.78,.11-1.37,.2Zm-65.36,2.69c.57,.15,.69-.18,.65-.58-.1-.85,.22-1.55,.69-2.22,.12-.18,.17-.42,.25-.62-.9-.54-.86,.65-1.39,.7-.46-.25-.51-1.24-1.41-.64,.32,.54,.7,1.01,.89,1.56,.2,.57,.22,1.21,.32,1.8Zm9.46-2.66c.32,.82,.6,1.59,.94,2.34,.08,.17,.35,.37,.52,.37,.18,0,.42-.21,.51-.39,.33-.74,.61-1.51,.94-2.34-1.18-.27-.89,.89-1.41,1.15-.66-.12-.3-1.53-1.5-1.12Zm-4.6,79.94c-.49,.24-.89,.4-1.26,.61-.59,.34-.73,.9-.46,1.54,.26,.6,.66,.74,1.24,.47,.21-.09,.44-.12,.7-.19,0-.82,.24-1.6-.23-2.43Zm47.07-169.6c-.77,0-1.42,.68-1.4,1.46,.02,.72,.66,1.37,1.38,1.38,.8,.02,1.48-.71,1.45-1.56-.03-.73-.65-1.29-1.43-1.29Zm-7.65,1.42c0-.79-.65-1.43-1.43-1.42-.76,0-1.42,.69-1.4,1.46,.02,.7,.67,1.36,1.37,1.39,.74,.03,1.46-.67,1.45-1.42Zm-11.07,1.37h-1.11c.58,.54,.86,.71,1.17,.51,.3-.19,.67-.52,.72-.83,.11-.68,.03-1.4,.03-2.07-1.42-.27-1.95-.09-2.12,.62-.19,.77,.19,1.23,1.3,1.76Zm18.02,75.39c.02-1.44,.05-2.84-.01-4.19-.55-.17-.79-.03-.79,.39-.01,1.15-.01,2.29,0,3.44,0,.44,.29,.51,.8,.36Zm-17.76,18.88c-.2,.18-.36,.26-.41,.38-.44,1.06,.09,2.13,.02,3.19,0,.05,.4,.12,.57,.17l.43-2.74-.61-1Zm-10.89,3.73c.16-.88,.36-1.6,.4-2.33,.02-.39-.21-.8-.39-1.17-.04-.08-.52-.07-.59,.03-.18,.29-.35,.66-.33,.98,.05,.81,.21,1.61,.34,2.48h.57Zm-15.39-.02c.28-.86-.28-1.82,.54-2.43-.17-.31-.3-.59-.47-.83-.1-.13-.26-.26-.42-.29-.08-.02-.25,.16-.3,.29-.12,.29-.26,.59-.25,.89,.03,.66,.16,1.31,.21,1.97,.04,.44,.26,.53,.7,.41Zm27.33,.23c.41-.23,.77-.33,.78-.45,.05-1.09,.06-2.18,.04-3.27,0-.12-.26-.33-.4-.33-.14,0-.4,.2-.4,.32-.03,1.16-.02,2.31-.02,3.73Zm13.17-101.54c.3,.58,.57,1.11,.85,1.63,.25,.47-.24,1.19,.6,1.61,.12-.66,.2-1.23,.33-1.78,.13-.54,.79-.88,.67-1.52-.75-.21-.75,.55-1.15,.73-.5-.09-.46-1.05-1.31-.66Zm-6.61,.23c-.45-.51-.94-.47-1.35-.31-.21,.08-.41,.47-.43,.74-.06,.67-.04,1.35,0,2.02,.01,.18,.24,.34,.48,.66,.17-.57,.19-.96,.39-1.21,.16-.22,.52-.29,.95-.5l-1.27-.73,1.23-.65Zm14.9,.46h-.42c-.02,.4-.04,.82-.06,1.23-.03,.51-.22,.82-.76,.67-.47-.59,.23-1.55-.88-2.1,0,.8-.04,1.41,.01,2.02,.05,.58,.53,.8,1.01,.83,.49,.03,1.01-.18,1.09-.72,.09-.63,.02-1.29,.02-1.93Zm-6.11,92.14c.61,.16,.71-.1,.72-.47,.02-.73-.17-1.56,.84-1.85,.05-.01,0-.34,0-.58l-1.57,.23v2.67Zm-44.18,4.73c-.3,.3-.56,.44-.56,.59-.04,.95-.06,1.9-.02,2.85,.02,.46,.36,.41,.75,.22,0-.97,0-1.96,0-2.94,0-.15-.06-.3-.16-.71Zm-16.98,66.99c-.5-.47,0-1.17-.76-1.72,0,.71-.04,1.21,.01,1.69,.06,.56,.59,.83,1.15,.65,.85-.29,1.04-1.27,.4-2.24-.79,.26,.08,1.35-.81,1.61Zm42.1-163.24l.25,1.51c.44-.63,.56-1.29,.16-1.78-.42-.52-1.06-.29-1.72-.1l.1,2c1.02-.27,.21-1.41,1.22-1.63Zm43.79,146.19c-.58-.19-.94-.12-1.12,.34-.33,.8,.44,.91,1.09,1.37l-1.38,.3c.41,.6,.83,.58,1.28,.27,.44-.31,.55-.78,.2-1.24-.26-.34-.42-.6-.07-1.04Zm-28.14-146.53c-1.12-.58-1.77-.52-1.84,.04-.08,.65,.02,1.32,.07,1.98,0,.05,.25,.09,.45,.15,.22-.83-.1-1.88,1.32-2.17Zm-44.34,170.27l.31,1.34c.39-.53,.5-1.09,.15-1.54-.37-.47-.91-.32-1.43-.12-.03,.58-.24,1.14,.16,1.67,.53-.34-.06-1.13,.82-1.35Zm18.66-171.04c-.69,.33-.83,1.58-.29,2.64,.5-.44,.58-1.13,.29-2.64Zm-25.91,164.84l.77-2.1c-.41-.06-.84-.17-1.13,.29-.26,.41-.08,1.36,.36,1.81Zm33.89-162.28c.4-1.19,.35-2.01-.11-2.64-.16,.93-.21,1.79,.11,2.64Zm-7.14,0c.34-.78,.33-1.56,0-2.34-.34,.78-.33,1.56,0,2.34Zm14.94-1.76c-.54,.78-.5,1.06,.32,1.38-.09-.51,.28-1-.32-1.38Z"/><path class="w" d="M228.26,247.86c0,4.18,0,8.35,.01,12.53,0,1.97-.99,3.51-3.49,3.68-.28,.02-.56,0-.84,0-30.15,0-60.29,0-90.44-.02-.93,0-1.91-.15-2.77-.48-1.22-.47-1.56-1.63-1.56-2.84-.01-4.3,0-8.59,0-12.89,31.99,0,63.98,0,95.98,0,1.03,0,2.07,0,3.1,.02Zm-26.97,10.01c-.34-.08-.74-.31-1.02-.2-.82,.3-1.44-.12-2.03-.41-.8,.82-1.58,.23-2.37,.08v1.58c.74,.35,1.1,.08,1.21-.68,.38,.85,.38,.86,1.28,.83,1.41-.05,2.82-.11,4.29-.17l-.34-1.32c-.39,.11-.71,.2-1.02,.3h0Zm-22.62-6.7c-1.03,0-2.07-.01-3.1,0-1.5,.02-2.81,1.24-2.91,2.75-.05,.71-.05,1.43,0,2.15,.12,1.61,1.18,3.06,3.17,3.01,1.99-.05,3.98,0,5.96-.02,1.64-.02,2.75-1.15,2.79-2.79,.02-.83,.02-1.67,0-2.5-.04-1.47-1.11-2.55-2.57-2.58-1.11-.03-2.23,0-3.34,0Zm-40.45-1.19c-2.76,1.38-3.13,1.99-3.06,4.84,0,.12,0,.24,0,.36,.08,.67,.37,1,1.06,1.02,1.27,.03,2.53,0,3.8,0,.6,0,.85-.33,.85-.9,0-.91,.02-1.82-.01-2.73,0-.25-.1-.59-.27-.74-.78-.66-1.6-1.26-2.38-1.86Zm57.59,6.59c.46-.22,.73-.26,.85-.41,.5-.67,1.18-.71,1.91-.68,.63,.02,1.27,.03,1.9,0,.7-.04,1.02-.34,1.05-1.03,.04-.91,.03-1.82,0-2.73-.01-.55-.34-.93-.88-.95-1.27-.04-2.54-.05-3.8,.01-.52,.02-1.02,.29-1.03,.95-.01,1.54,0,3.07,0,4.86Zm-34.54-.33c.06-.25,.14-.38,.11-.47-.29-.71-.47-1.7-.44-2.48,0-.2,.01-.4,0-.59-.11-1.09-1.13-2.06-2.32-2.21-.97-.12-2.34,.74-2.65,1.66-.41,1.21,.04,2.55,1.02,3.15,1.03,.63,2.03,.5,3.01-.02l1.27,.96Zm-6.99,2.78c1.67,0,3.12,0,4.57,0,.46,0,1.01,.17,1.36-.02,.55-.31,.97-.3,1.5,.16l.46-1.33c-1.58-.07-3.07-.49-4.53,.23-.03-.06-.08-.24-.2-.32-.77-.48-1.66-.52-2.53-.54-.21,0-.54,.33-.61,.57-.1,.35-.03,.76-.03,1.25Zm63.79-1.91c-.62,.64-.6,1.22-.46,1.82,.32-.03,.56-.08,.8-.06,.65,.05,1.3,.15,1.95,.19,.47,.03,.73-.24,.73-.72,0-.42-.24-.63-.65-.7-.47-.08-.94-.21-1.47-.33l-.38,.58-.53-.78Zm2.99-.87c.23-.13,.39-.16,.42-.23,.35-1.01-.2-2.02-1.24-2.14-.78-.09-1.6-.09-2.38,0-1.22,.15-1.64,1.16-1,2.2q.52-1.54,2.23-1.54c.16,0,.32,0,.48,0,.97,.03,1.13,.18,1.33,1.14,.03,.15,.08,.29,.16,.56Zm-.65-4.18c.02-.88-.6-1.55-1.42-1.56-.75-.01-1.41,.65-1.45,1.45-.03,.77,.58,1.38,1.43,1.41,.98,.04,1.42-.36,1.44-1.29Zm-81.58,6.84c.71,.06,1.31,.12,1.92,.15,.56,.03,.86-.25,.84-.73-.02-.48-.33-.69-.91-.65-.38,.02-.76-.01-1.13-.01-.46,0-.92,0-1.41,0v1.3l.19,.03,.32-.67,.19,.59Zm-4.07-1.82v1.86c.29-.07,.54-.19,.77-.17,.46,.05,.9,.23,1.36,.26,.24,.02,.59-.08,.72-.25,.14-.17,.18-.59,.06-.75-.16-.2-.51-.32-.79-.35-.2-.02-.42,.17-.63,.27l-.35-.77-.5,.66-.65-.75Zm28.11,1.98c.55,0,.92-.4,.91-.79-.01-.43-.28-.62-.69-.62-.44,0-.79,.34-.68,.75,.08,.28,.35,.51,.46,.66Z"/><path class="k" d="M228.26,247.86c-1.03,0-2.07-.02-3.1-.02-31.99,0-63.98,0-95.98,0v-.48c32.83,0,65.66,0,98.48,0,.2,0,.4,0,.6-.02,0,.17,0,.34,0,.51Z"/><path class="w" d="M112.33,161.08c-.24,1.94-1.29,3.15-2.69,3.17-1.43,.02-2.58-1.27-2.81-3.15-3.32-2.05-4.24-5.12-3.36-7.75,1.06-3.14,3.38-4.53,7.17-4.36,2.19,.1,4.55,2.11,5.12,4.52,.67,2.81-.08,5.61-3.42,7.57Zm-.21-.76c2.79-1.22,3.61-4.15,3.09-6.42-.62-2.72-3.03-4.51-5.87-4.41-2.7,.09-5.03,2.16-5.43,4.82-.39,2.6,1.03,5.24,3.23,5.97,1.37-1.63,3.08-2.15,4.98,.04Zm-2.47-.83c-1.11-.02-2.08,.9-2.1,2.01-.02,1.06,.98,2.06,2.06,2.06,1.04,0,2.05-.92,2.02-1.96-.03-1.26-.86-2.06-1.99-2.1Z"/><path class="d" d="M110.11,245.53c-3.52,0-6.34-2.84-6.34-6.37,0-3.53,2.82-6.38,6.33-6.39,3.57,0,6.44,2.87,6.42,6.44-.02,3.51-2.88,6.32-6.41,6.32Zm5.75-6.32c.03-3.13-2.48-5.71-5.62-5.78-3.15-.07-5.82,2.53-5.85,5.68-.03,3.14,2.62,5.81,5.75,5.8,3.11,0,5.69-2.58,5.72-5.69Z"/><path class="p" d="M110.06,171.57c.24-.15,.39-.27,.57-.36,1.35-.73,2.74-.46,3.65,.61,.72,.85,.8,2.82-.29,3.8-1.12,1-2.14,2.13-3.21,3.18-.63,.62-.86,.63-1.48,.03-1.08-1.05-2.15-2.11-3.19-3.2-1.18-1.23-1.26-2.63-.27-3.85,.91-1.13,2.44-1.29,3.86-.42,.1,.06,.2,.11,.37,.21Zm-.02,6.55c1.18-1.18,2.35-2.3,3.44-3.49,.59-.65,.53-1.52,0-2.18-.56-.68-1.44-.86-2.25-.41-.43,.25-.82,.57-1.25,.88-.3-.25-.54-.46-.78-.65-.8-.64-1.8-.62-2.47,.05-.69,.69-.75,1.67-.02,2.46,1.05,1.12,2.17,2.18,3.34,3.35Z"/><path class="p" d="M105.67,198.25c-.39-.79-.07-1.3,.14-1.79,.27-.65,.32-1.26,.16-1.96-.47-2.04,.72-4.04,2.71-4.69,2.01-.65,4.17,.24,4.97,2.17,.61,1.47,.53,2.97-.52,4.27-1.01,1.24-2.34,1.8-3.91,1.44-.75-.17-1.39-.11-2.07,.16-.46,.18-.97,.27-1.48,.4Zm1.14-1.45c.93-.17,1.63-.43,2.45-.14,1.31,.45,2.63-.22,3.34-1.42,.66-1.12,.54-2.53-.32-3.55-.82-.98-2.23-1.33-3.45-.85-1.26,.5-2.12,1.75-1.93,3.1,.13,.92,.38,1.81-.09,2.87Z"/><path class="p" d="M111.57,213.43c-1.12-.3-2.13-.28-3.11-.05-.52,.12-.67,.63-.67,1.14,0,.79,0,1.58,0,2.36-.52,.26-.85,.21-.87-.37-.02-.83-.05-1.67,.01-2.5,.07-.87,.87-1.54,1.8-1.58,.94-.03,1.87,0,3.01,0l-.97-1.37c.91-.32,1.16-.15,2.65,1.72-.45,.87-1.27,1.44-1.97,2.11-.08,.07-.36,.06-.42-.01-.1-.13-.19-.39-.13-.51,.15-.3,.39-.55,.67-.94Z"/><path class="i" d="M30.11,242.42c.81-.86,.93-.87,2.08-.05l.65-.59,.35,1.61h.25c.06-.26,.13-.51,.17-.76,.04-.23,.05-.46,.08-.68,.36,0,.68,.06,.96-.01,1.24-.33,1.81-.08,1.68,1.12,0,.06,.06,.12,.16,.3,.07-.35,.07-.64,.2-.84,.18-.28,.44-.52,.72-.71,.3-.2,.66-.3,1.08-.48,.41,.75,.06,1.57,.21,2.42-.68,.01-1.22,.31-1.82-.1-.2-.14-.61,.05-1.02,.1l-.22-1.43c-.82,.3-.27,1.07-.72,1.51-.4-.2-.78-.35-1.29-.03-.56,.35-1.02-.13-1.29-.6-.47,.25-.88,.6-1.32,.66-.28,.04-.61-.37-.92-.58v-.86Zm1.66,.49c-.28-.26-.45-.56-.63-.56-.19,0-.49,.24-.55,.43-.1,.33,.11,.65,.48,.63,.2-.01,.39-.27,.7-.5Zm5.86,.53c.5-.27,.58-.62,.21-1.03-.06-.07-.35-.07-.41,0-.38,.41-.3,.76,.2,1.03Z"/><path class="g" d="M106.52,201.76l1.35-.37-1.1-.68q.07-1.12,1.18-1.08c0,.14,.01,.28-.03,.41-.03,.1-.13,.18-.21,.29l.61,.7c.63-1.79,1.12-1.96,2.15-.83,.39-.23,.76-.5,1.18-.66,.15-.05,.45,.14,.61,.29,.5,.48,.48,1.61,0,2.08-.5,.49-.89,.38-1.62-.41-.39,.24-.78,.66-1.15,.65-.38-.01-.75-.45-1.14-.7-.75,.88-.94,.92-1.82,.29Zm2.92-.02c.63-.82,.63-.89,.05-1.61-.55,.47-.5,.96-.05,1.61Zm2.18-1.58c-.56,.71-.56,.77,0,1.5,.56-.73,.56-.81,0-1.5Z"/><path class="w" d="M22.27,242.95c.02-.32,.03-.59,.04-.86,.03-.99,.05-1.02,1.07-1.18,.54-.08,1.08-.16,1.76-.25,0,1.08,.03,2.05-.02,3.03-.01,.25-.25,.6-.47,.7-.41,.19-.83-.06-.96-.45-.1-.28-.03-.72,.14-.95,.19-.26,.58-.36,.9-.55v-1.08l-1.77,.28c0,.78,.04,1.52-.01,2.25-.06,.84-.77,1.23-1.39,.82-.63-.41-.61-1.14,.05-1.51,.2-.11,.43-.16,.66-.24Zm.2,1.01c-.21-.14-.32-.25-.45-.29-.06-.01-.23,.16-.22,.21,.03,.13,.13,.3,.23,.33,.09,.03,.23-.12,.44-.25Zm2.41-.45c-.26-.11-.4-.22-.49-.19-.1,.03-.15,.2-.23,.31,.09,.06,.19,.17,.27,.16,.12-.02,.22-.13,.45-.28Z"/><path class="g" d="M24.15,234.1c.11,.03,.23,.06,.34,.09,.12,.09,.24,.19,.36,.28l.15,.7c.5-.46,.9-.89,1.38-1.21,.16-.1,.55,.03,.77,.16,.59,.35,.69,1.35,.22,1.89-.46,.52-1.2,.39-1.98-.38-.47,.63-1,.99-1.76,.39-.13-.1-.47,.07-.71,.12l-.2-.4h.12v.13c.48-.6,.49-.91,.07-1.65,.14-.05,.29-.16,.43-.15,.18,.01,.36,.11,.54,.17l.27-.15Zm2.69,.65v-.23l-.54,.05v.18h.54Z"/><path class="e" d="M61.62,72.59c-.22,.46-.45,.93-.68,1.38-.03,.06-.13,.07-.27,.14l-.61-.94-.73,1.08-1.07-2.17c-.22,.89-.02,1.81-1.04,2.01-.59,.12-.99-.15-1.33-.59,0-.38,.01-.76,.02-1.14,.94-.81,1.01-.81,2.36,.03l.37-.73,.72,1.21,.67-1.07,.72,1.07c.14-.3,.22-.58,.38-.8,.09-.12,.3-.15,.46-.22l.02,.72Zm-3.8,.37c-.4-.29-.65-.61-.84-.57-.22,.04-.55,.38-.55,.59,0,.21,.33,.56,.55,.59,.2,.02,.44-.3,.84-.61Z"/><path class="e" d="M65.42,72.58c.46-1.05,1.31-.76,2.24-.6,0,.69,.05,1.39-.01,2.08-.07,.78-.74,1.17-1.46,.92-.33-.12-.65-.25-.5-.76,.06-.19-.16-.46-.25-.69l-.02-.96Zm1.12-.54c-.28,.45-.56,.7-.54,.92,.03,.23,.33,.43,.52,.64,.19-.21,.5-.4,.53-.63,.03-.21-.24-.47-.51-.93Zm.69,1.92l-1.31,.21c.55,.46,.86,.47,1.31-.21Z"/><path class="w" d="M89.11,71.48c.55,.81,.64,2.07,.29,2.51-.33,.42-.78,.49-1.28,.37-.49-.11-.8-.39-.77-.9,.03-.59-.25-1.24,.31-1.91,.14,.27,.29,.44,.31,.63,.05,.35-.04,.72,.04,1.06,.05,.21,.31,.36,.47,.54,.14-.16,.36-.3,.41-.49,.07-.26,.01-.55,.04-.83,.02-.26,.09-.51,.18-.99Z"/><path class="i" d="M75.01,72.95c-.53-.32-.9,.26-1.27,.19-.4,.36,.17,1.17-.8,1.18-.22-1.06-.12-2.1-.06-3.17,.63-.2,1.2-.34,1.91,.2l-1.21,.49c.21,.74,1.02,.63,1.44,1.02v.08Z"/><path class="e" d="M75.01,72.95v-.08c.08-.22,.1-.47,.23-.65,.4-.58,1.04-.76,1.66-.51,.58,.24,.9,.76,.84,1.42-.05,.65-.46,1.13-1.06,1.26-.68,.15-1.26-.11-1.57-.75-.1-.2-.07-.45-.1-.68Zm1.13,.86c.61,.02,.93-.32,.94-.76,0-.46-.21-.76-.66-.85-.41-.08-.86,.36-.76,.83,.07,.32,.35,.6,.48,.79Z"/><path class="e" d="M86.91,73c0,.83-.57,1.43-1.39,1.43-.79,0-1.41-.65-1.39-1.45,.02-.72,.65-1.36,1.36-1.39,.8-.02,1.42,.59,1.42,1.41Zm-1.32-1.13c-.37,.49-.68,.75-.76,1.07-.11,.41,.11,.78,.59,.87,.45,.08,.89-.3,.81-.78-.06-.33-.33-.62-.63-1.16Z"/><path class="d" d="M82.68,74.34c-.14-.09-.41-.2-.4-.27,.18-1.11-.45-1.96-.97-2.86q.64-.1,1.2,.6c.48-.07,.47-.98,1.35-.65-.58,.96-1.25,1.88-.9,3.08l-.27,.11Z"/><path class="g" d="M110.59,219.12c.28,.25,.37,.05,.51-.18,.21-.35,.55-.7,.96-.47,.34,.19,.62,.57,.78,.93,.12,.25,.06,.63-.03,.92-.25,.84-.98,1-1.63,.39-.17-.16-.21-.58-.59-.27v-1.33Zm1.29,1.43c.61-.81,.59-1.02-.15-1.5-.32,.55-.44,1.04,.15,1.5Z"/><path class="g" d="M110.6,181.38c.31,.24,.37-.03,.49-.22,.22-.34,.51-.61,.97-.49,.48,.13,.72,.48,.78,.93,.04,.3,.05,.64-.04,.92-.22,.77-.88,.98-1.54,.5-.23-.17-.37-.57-.74-.21l.07-1.43Zm1.29,1.43q.52-.83,.06-1.57c-.62,.56-.63,.68-.06,1.57Z"/><path class="g" d="M108.91,220.31c-.2,.15-.42,.27-.61,.44-.48,.42-.94,.47-1.58-.05l1.11-.32c.07-.71-.61-.41-.86-.78l.22-1.05h1.09c-.15,.66-.12,1.23,.58,1.48l.05,.29Z"/><path class="i" d="M50.63,72.53c.18,0,.4,.04,.53-.04,.2-.12,.31-.36,.5-.49,.53-.37,1.2-.26,1.58,.25,.4,.52,.3,1.31-.23,1.69-.48,.35-1.22,.27-1.6-.21-.15-.18-.19-.44-.34-.62-.11-.13-.31-.17-.47-.25l.02-.33Zm2.52,.48c-.37-.3-.6-.63-.81-.61-.21,.02-.55,.36-.55,.56,0,.2,.31,.56,.52,.59,.2,.03,.45-.28,.84-.55Z"/><path class="g" d="M108.91,182.52c-.42-.22-.4,.21-.57,.38-.49,.5-.77,.5-1.54-.05l1.35-.4-1.17-.64,.22-1.12,1.08,.07,.04,.24-.51,.37c.04,.05,.07,.15,.11,.16,.32,.03,.53,.76,.95,.15l.04,.85Z"/><path class="g" d="M30.11,242.42v.86c-.55,.27-.97,1.02-1.79,.39l.4-.74c-.31-.41-.72-.89-.2-1.41,.35-.35,.76-.31,1.25,.13l-1.03,.47c.61,.08,.8,.82,1.38,.3Zm-.94,.72c-.14-.08-.23-.18-.32-.18-.08,0-.15,.11-.22,.17,.09,.06,.17,.16,.26,.17,.07,0,.16-.09,.28-.16Z"/><path class="i" d="M65.09,73.59l-.51,.63-.26-1.87c-1,.3-.19,1.32-.89,1.71-.7-.61-.12-1.38-.39-2.08,.74-.14,1.34-.44,1.89,.12l.15,1.48Z"/><path class="w" d="M79.88,71.61q-.92,1.17-1.1,2.61c-.33,.16-.54,.08-.55-.31-.01-.7,0-1.41,0-2.15l1.66-.15Z"/><path class="i" d="M108.91,220.31l-.05-.29c0-.23-.04-.47,0-.69,.08-.45,.34-.8,.81-.87,.5-.08,.8,.18,.92,.66v1.33c-.76,.92-1.04,.89-1.68-.14Zm.84,.36c.68-.93,.67-1.05-.06-1.73-.49,.56-.51,1.09,.06,1.73Z"/><path class="i" d="M108.91,182.52l-.04-.85c.01-.55,.28-.92,.82-1,.51-.08,.82,.2,.92,.7l-.07,1.43c-.83,.71-1.04,.67-1.62-.29Zm.84,.37c.69-.92,.68-1.06-.05-1.73-.52,.56-.5,1.09,.05,1.73Z"/><path class="g" d="M29.41,234.19c-.88,.43-.81,1.29-.97,2.08-.58-.53-.6-.76-.32-2.19l1.11-.12,.19,.23Z"/><path class="d" d="M62.06,71.63c0-.28-.02-.58,.5-.51,.08,.96,.15,1.93,0,3.05-.76-.48-.36-1.1-.52-1.56l.03-.97Z"/><path class="d" d="M54.94,73.7c-.51-.59-.55,.35-1.07,.22-.03-.83-.14-1.72,.13-2.84,.21,.33,.38,.49,.41,.67,.06,.38,.05,.78,.09,1.17,0,.01,.28,0,.44-.01v.81Z"/><path class="w" d="M50.63,72.53l-.02,.33q-.56,.25-.86,1.14c-.46-.43-.53-1.04-.25-2.61h1.11v.39l-.65,.37,.66,.38Z"/><path class="w" d="M54.94,73.7v-.81c0-.54-.26-1.12,.21-1.64,.48,.29,.24,.73,.33,1.07,0,.42,0,.84,0,1.26l-.34,.44-.2-.31Z"/><path class="w" d="M22.72,235.75l.2,.4c-1.18,.2-1.45,0-1.47-1.09,0-.27,.05-.54,.08-.81h.43c.03,.33,.07,.67,.08,1,.01,.48,.3,.55,.68,.5Z"/><path class="p" d="M69.78,72.11l.65-.06v1.37q-.73-.19-.65-1.31Z"/><path class="m" d="M65.09,73.59l-.15-1.48,.48,.46,.02,.96-.35,.06Z"/><path class="m" d="M55.47,73.57c0-.42,0-.84,0-1.26,.15,.02,.29,.05,.44,.07,0,.38-.01,.76-.02,1.14l-.43,.05Z"/><path class="f" d="M62.06,71.63l-.03,.97h-.41l-.02-.73,.46-.25Z"/><path class="w" d="M22.91,234.23c.42,.74,.4,1.05-.07,1.65,.02-.55,.05-1.1,.07-1.65Z"/><path class="g" d="M21.95,234.24h-.43l.15-.24,.27,.24Z"/><path class="i" d="M50.61,71.77v-.39c.37,.14,.32,.27,0,.39Z"/><path class="i" d="M24.15,234.1l-.27,.15,.27-.15Z"/><path class="i" d="M24.85,234.47c-.12-.09-.24-.19-.36-.28,.36-.21,.43-.05,.36,.28Z"/><path class="d" d="M68.28,251.12c.99,0,1.99-.02,2.98,0,1.73,.04,2.9,1.19,2.96,2.93,.03,.72,.03,1.43,0,2.15-.07,1.66-1.25,2.85-2.9,2.88-2.07,.03-4.14,.04-6.21,0-1.59-.03-2.75-1.22-2.82-2.81-.03-.75-.03-1.51,0-2.27,.06-1.67,1.21-2.83,2.88-2.87,1.03-.03,2.07,0,3.1,0Zm-.02,7.31h0c1.03,0,2.06,.03,3.09-.02,1.31-.07,2.13-.9,2.2-2.2,.04-.71,.03-1.43,0-2.14-.06-1.41-.91-2.29-2.34-2.32-1.98-.05-3.97-.05-5.95,0-1.42,.03-2.25,.9-2.34,2.34-.04,.63-.03,1.27,0,1.9,.07,1.57,.9,2.39,2.48,2.44,.95,.03,1.9,0,2.86,0Z"/><path class="t" d="M27.66,249.91c.86,.66,1.66,1.24,2.41,1.88,.21,.18,.39,.51,.41,.79,.05,.87,.04,1.75,.01,2.62-.03,.79-.29,1.03-1.13,1.04-1.15,.02-2.3,.02-3.46,0-.89-.02-1.08-.24-1.12-1.16q-.13-2.94,2.19-4.69c.19-.14,.39-.27,.68-.48Zm1.11,5.62c.74,.21,1.1,.11,1.08-.58-.01-.67,.02-1.35-.02-2.02-.01-.25-.12-.57-.29-.72-.59-.51-1.24-.96-1.86-1.44-.21,.12-.35,.18-.47,.27q-1.95,1.39-1.82,3.79,.04,.82,1.13,.66v-2.57h2.25v2.61Zm-1.67,.06h1v-2.22l-1,.14v2.08Z"/><path class="t" d="M85.42,256.67c0-1,0-1.78,0-2.55,0-.75-.02-1.51,0-2.26,.03-.76,.25-.99,1.01-1.01,1.23-.03,2.46-.03,3.69,0,.66,.02,.96,.29,.99,.94,.05,.87,.04,1.75,0,2.62-.03,.71-.33,.97-1.06,1.01-.67,.03-1.35,.05-2.02,0-.73-.05-1.32,.11-1.78,.71-.14,.19-.42,.28-.85,.55Zm5.02-5.15h-4.33v3.66c1.39-.86,2.94-.06,4.33-.56v-3.1Z"/><path class="d" d="M50.25,254.72l1.06,1.35c-.93,.3-1.07-.57-1.71-.74-.74,.25-1.63,.68-2.5,.16-.49-.29-.99-.69-1.29-1.16-.64-1.01-.36-2.34,.54-3.13,.91-.81,2.19-.89,3.19-.2,1.13,.78,1.35,1.92,.71,3.73Zm-.3-1.57c.02-1.06-.77-1.91-1.81-1.95-1.07-.04-1.98,.85-1.97,1.93,.01,1.04,.86,1.89,1.89,1.9,1.02,0,1.88-.84,1.89-1.88Z"/><path class="r" d="M24.15,259.21v-2.15l.71,.8,.36-.56c.78,.42,1.62,.4,2.46,.33,.58-.05,1.15-.23,1.72,.12,.14,.09,.46-.14,.69-.13,.29,0,.74,0,.84,.18,.15,.26,.16,.7,.03,.98-.09,.19-.59,.37-.77,.28-.64-.33-1.26,.13-1.94-.1l-.21-.71-.16,.76c-1.04-.1-2.11,.36-3.04-.39-.18,.15-.36,.31-.69,.59Z"/><path class="r" d="M44.88,257.41c.87-.35,1.49,.26,2.46,.43,.9-.48,2.14-.24,3.36-.04,.22,.04,.28,.14,.51-.05,.18-.15,.57-.03,.86-.03l.26,.19c-.01,.06-.02,.12-.02,.17-.36-.02-.5,.19-.52,.51l-.96,.42-.6-.41c-.61,.95-1.58,.41-2.34,.41-1,0-2.03,.12-3.04,0v-.53l-.03-.7,.04-.38Zm3.37,.57l-.42,.27c.11,.12,.2,.27,.33,.34,.05,.03,.26-.13,.29-.23,.02-.09-.11-.22-.2-.38Z"/><path class="d" d="M106.43,256.26c-.57-1.02-.24-2.13,.75-2.26,1.01-.13,2.07-.14,3.08,.02,.99,.16,1.3,1.4,.54,2.31-.09-.38-.18-.65-.22-.93-.07-.58-.41-.83-.96-.83-.4,0-.79,0-1.19,0-1.33,0-1.32,0-1.69,1.36-.03,.12-.19,.22-.3,.34Z"/><path class="d" d="M108.69,250.53c.78,0,1.43,.64,1.44,1.43,.02,.85-.65,1.5-1.51,1.46-.77-.03-1.43-.72-1.4-1.47,.02-.75,.72-1.42,1.47-1.42Zm-.78,1.47c.01,.43,.46,.86,.85,.79,.43-.08,.7-.37,.69-.82,0-.45-.26-.73-.72-.78-.42-.04-.83,.38-.82,.81Z"/><path class="r" d="M88.35,257.63l.66,.35c.34-.33,.75-.63,1.34-.27,.14,.09,.42-.04,.63-.06l-.21,1.33c-.57-.13-1.25,.52-1.71-.29l-.73,.35c-.75-.72-.75-.79,.02-1.41Z"/><path class="r" d="M87.43,258.93l-.62,.13-.29-.98-.27,.92h-1.08v-1.85c.73,.65,1.71,.08,2.21,.95l.05,.83Z"/><path class="r" d="M108.9,257.85c.18,0,.37,0,.55,0,.36,.16,.72,.33,1.09,.49-.03,.52-.28,.78-.84,.71-.45-.06-.94-.19-1.36-.09-.47,.11-.61-.26-.9-.39l.34-.79c.16,0,.32,0,.48,0,.18,.25,.35,.5,.54,.78l.09-.71Z"/><path class="g" d="M90.76,258.98l.21-1.33,.88,.05,.14,1.28h-1.24Z"/><path class="i" d="M44.88,257.41l-.04,.38c-.52-.25-.48,.14-.49,.44-.01,.41,.19,.45,.51,.27v.53l-.96,.05v-1.67h.97Z"/><path class="i" d="M107.78,257.78l-.34,.79-.35,.66c-.24-.81,.14-1.32,.07-1.83,.55-.19,.59,.09,.62,.38Z"/><path class="e" d="M87.43,258.93l-.05-.83,.06-.77,.9,.3c-.77,.62-.77,.69-.02,1.41l-.9-.11Z"/><path class="r" d="M53.51,257.66l.7-.08c-.12,.48-.2,.89-.33,1.28-.02,.05-.29,.01-.44,.01,.02-.4,.05-.8,.07-1.2Z"/><path class="w" d="M108.9,257.85l-.09,.71c-.19-.27-.37-.52-.54-.78,.1-.15,.2-.31,.3-.46l.34,.53Z"/><path class="m" d="M53.51,257.66c-.02,.4-.05,.8-.07,1.2l-.47-.07,.07-.94,.47-.19Z"/><path class="g" d="M53.04,257.85l-.07,.94c-.06,.03-.13,.04-.2,.04h0c-.2-.28,.02-.75-.43-.91l-.26-.19c.36-.24,.68-.2,.95,.13Z"/><path class="g" d="M110.54,258.35l-1.09-.49c.69-.44,.89-.35,1.09,.49Z"/><path class="g" d="M51.8,258.61c.02-.32,.16-.54,.52-.51,0,.23,.01,.46,.02,.68l-.17,.21-.37-.38Z"/><path class="g" d="M52.77,258.83c-.1,.42-.35,.28-.6,.16,.06-.07,.11-.14,.17-.21,.15,.02,.29,.04,.44,.06h0Z"/><path class="j" d="M221.61,197.49c.03,.49,.33,.39,.68,.36,.89-.09,1.8-.11,2.66-.16,.27,1.02,.32,11.48,.06,12.9-30.74,0-61.51,0-92.25,0-.29-.9-.38-11-.12-12.81,.43-.02,.89-.06,1.35-.06,8.24,0,16.47,0,24.71,0,19.06,0,38.12,0,57.17,0,.72,.6,.95,.65,1.61,.14,.46-.35,.93-.65,1.5-.48,.88,.26,1.75,.32,2.64,.12Zm-37.11,8.3l.92-.03c.36,.05,.64,0,.64-.46,0-.4-.06-.82,.05-1.18,.07-.24,.41-.39,.62-.58,.14,.21,.36,.4,.4,.62,.07,.39,0,.8,.04,1.19,.02,.15,.21,.28,.32,.42,.15-.14,.43-.26,.44-.41,.05-.55,.06-1.12-.01-1.66-.08-.61-.58-.96-1.19-.89-.47,.05-.93,.13-1.39,.2l-.6,.02h-.67c0,.8-.02,1.57,.02,2.34,0,.16,.27,.3,.42,.45Zm11.85-1.46l.49,.38-.72,.55c.71,.76,1.31,.83,1.81,.27,.44-.49,.31-.92-.48-1.52-.08-.06-.15-.16-.22-.23l.75-.51c-1.12-.79-1.56-.62-1.82,.6l-.36,.04c-.7-1.29-1.45-1.45-2.59-.55-.1,.08-.26,.08-.39,.12-.08-.62-.33-1.14-.95-1.53-.14,.35-.2,.68-.39,.89-.13,.13-.45,.08-.68,.12-.35-.1-.53,.02-.52,.4,0,.55,0,1.09,0,1.63-.89,.1-.91,.1-.95-.48-.03-.39,.02-.79-.02-1.19-.04-.45-.31-.48-.75-.27,0,.44,.01,.91,0,1.38-.02,.58,.03,1.13,.7,1.35,.66,.22,1.25,.17,1.62-.52l.42-1.66,.26,.03,.16,2.13,.25,.1c.16-.16,.41-.29,.45-.48,.07-.34,.03-.7,.03-1.06,0-.36-.01-.72,.4-.89,.02,.42,.02,.84,.07,1.26,.07,.64,.7,1.17,1.4,1.21,.71,.04,1.11-.28,1.26-1.01l-.03-.29,.27-.2,.55-.07Zm-18.97,.59l-.02-.34c.44-.67,.01-1.15-.44-1.51-.46-.37-1.04-.34-1.55-.04-.29,.17-.54,.41-.81,.62l-.25-.83-1.43,.18c-.18,1.63-.15,2.08,.24,2.95,.16-.31,.33-.5,.37-.72,.06-.35,0-.72,.07-1.06,.1-.58,.45-.78,1.01-.55,.03,.37,.03,.75,.11,1.11,.15,.7,.64,1.11,1.32,1.17,.63,.05,1.06-.25,1.38-.97Zm-8.5-.42l.25-.04c.13,.24,.23,.5,.39,.72,.46,.66,1.16,.87,1.88,.6,.57-.22,.99-.88,.96-1.5-.03-.67-.53-1.26-1.22-1.45-.66-.18-1.29,.11-1.7,.78-.14,.24-.26,.49-.52,.98-.07-.57,0-.89-.15-1.08-.21-.29-.55-.68-.84-.69-.99-.03-1.98,.09-3.06,.16,0,.8-.02,1.55,.02,2.29,0,.17,.23,.34,.36,.5,.14-.15,.38-.29,.41-.46,.06-.39-.01-.79,.04-1.18,.03-.22,.21-.41,.33-.61l.3,.06c.02,.41,.04,.82,.07,1.24,.03,.42-.19,1.03,.77,.91,0-.43,0-.85,0-1.28,0-.45,0-.9,.8-.86,.02,.42,.03,.84,.06,1.26,.03,.43-.17,1.03,.7,.88,.03-.2,.07-.38,.09-.57,.02-.21,.03-.43,.05-.65Zm12.06-.95c.02,.57,.02,1.14,.09,1.7,.02,.18,.23,.34,.36,.51,.13-.16,.36-.3,.39-.47,.06-.39,0-.79,.04-1.19,.03-.42,.22-.68,.79-.48l.12,2.28c.33-.21,.68-.32,.69-.46,.05-.63,.06-1.27-.01-1.9-.06-.49-.47-.77-.94-.75-.95,.02-1.9,.12-2.84,.19-.18,1.65-.15,2.02,.24,2.94,.18-.29,.37-.47,.4-.68,.06-.35,.01-.71,.02-1.07,.01-.33,.07-.64,.66-.62Zm-19.77-.53c.44-.07,.68-.08,.88-.16,.16-.06,.27-.23,.4-.35-.17-.13-.32-.33-.5-.36-.38-.06-.77-.02-1.17-.02l-.29,1.82c.33,.03,.62,0,.85,.11,.21,.1,.45,.34,.48,.54,.06,.38-.24,.57-.61,.55-.26-.01-.52-.09-.8-.14-.28,.71,.22,.78,.63,.86,.66,.13,1.36-.27,1.55-.83,.26-.76-.06-1.27-1.43-2.02Z"/><path class="u" d="M216.34,194.8c-.52,0-1.03,.03-1.55,.03-26.86,0-53.72,0-80.58,0h-1.61v-12.82h84.6c.45-.5,.31-1.58,1.41-1.14-.19,.46-.3,.9,.46,1.01,.46-.36,.43-1.31,1.49-1.28l.83,1.04c.33-.34,.63-.91,1.02-.99,.82-.17,.79,.83,1.31,1.26l1.33,.11c.04,.31,.11,.61,.11,.91,0,3.62,0,7.24,0,10.86,0,.51,.11,1.11-.73,1.02,0-.43,.01-.87,.01-1.3-.02-1.7-1.21-3.3-2.83-3.79-2.45-.74-5.2,1.22-5.29,3.77-.02,.43,0,.87,.01,1.3Zm-50.43-6.44l.35,.09c.41,1.4,.88,1.56,3.07,1v-2.21c.5,.65,.77,1.33,1.08,2,.24,.53,.75,.62,.96,.16,.37-.8,.66-1.63,1-2.51-1.2-.22-.84,.99-1.51,1.25l-.72-1.31c-.65,0-1.31,.13-1.89-.03-.82-.22-1.37,.03-1.85,.63l-.5,.28c-.08-.14-.13-.29-.23-.41-.5-.58-1.17-.73-1.8-.41-.54,.28-.9,.97-.82,1.58,.09,.71,.61,1.25,1.31,1.32,.59,.06,1.08-.16,1.42-.66l.12-.77h0Zm15.01-1.53l-.64-.06c-.44,.11-.52-.21-.6-.52-.23-.37-.39-.38-.63-.02l-.03,.37c-.26,.44-.52,.29-.67-.06-.14-.35-.2-.71-.73-.49-.13,.36-.39,.74-.37,1.09,.05,.81,.24,1.61,.39,2.46,.38,.17,.65,.09,.66-.42,.01-.44-.03-.88,.02-1.31,.05-.39,.22-.72,.69-.34v2.06c.52,.13,.74,.02,.74-.42,0-.4-.05-.81,.04-1.19,.05-.21,.33-.36,.5-.54,.15,.19,.4,.35,.44,.56,.07,.38,.02,.79,.03,1.19,0,.45,.25,.53,.71,.38v-.9c.33-.42,.42-.08,.53,.18,.3,.71,.86,1.06,1.59,.96,.7-.1,1.14-.45,1.16-1.32,.01-.74-.05-1.29-.59-1.61-.59-.34-1.36-.22-1.83,.32-.2,.23-.32,.54-.5,.79-.02,.03-.23-.09-.36-.14,.1-.5-.01-.89-.57-1.03Zm-5.35,1.2c-.02-.7-.69-1.34-1.41-1.34-.81-.01-1.6,.8-1.58,1.62,.02,.79,.75,1.53,1.52,1.54,.85,.01,1.5-.8,1.47-1.82Zm18.98,1.75c.14-.01,.21-.03,.29-.03,1.16,.03,1.82-.54,1.77-1.55-.05-1.04-.75-1.56-1.88-1.4-.34,.05-.69,.08-1.01,.12v3.96c.98,.09,.57-.7,.83-1.1Zm-3.36-.04c.11,0,.25,.03,.4,.03,1.04,.02,1.67-.6,1.62-1.58-.06-1-.74-1.55-1.77-1.41-.37,.05-.75,.11-1.17,.18,0,1.35-.03,2.64,.03,3.94,1.05,.03,.57-.78,.89-1.16Zm-1.57-.17v-2.63c-.52-.09-.97-.2-1.43-.23-.84-.06-1.53,.74-1.46,1.65,.06,.9,.73,1.51,1.55,1.42,.42-.05,.84-.13,1.34-.2Zm-27.85-3.36c-.58-.27-.78-.05-.79,.39-.01,.98,0,1.95,0,2.98,.69,.09,1.31,.32,2.02-.3l-1.22-.38v-2.69Z"/><path class="o" d="M226.34,155.26c.07,2.25-.88,3.97-2.7,5.24-.5,.34-.86,.67-.94,1.38-.14,1.29-1.13,1.96-2.28,2.33-.74,.24-2.01-.38-2.55-1.22-.25-.39-.52-.86-.54-1.3-.02-.6-.37-.85-.77-1.1-3.14-1.96-3.85-6.4-1.67-9.19,1.17-1.5,2.64-2.5,4.66-2.42,.24,0,.48,.03,.72,0,2.64-.37,5.32,2,5.91,4.39,.05,.19,.15,.38,.16,.57,.02,.44,0,.87,0,1.31Zm-.65-.03c-.04-.51,0-1.05-.13-1.54-1.09-4.07-6.06-5.58-9.35-2.8-2.27,1.92-2.72,6.43,.13,8.75,.84,.69,1.03,.71,1.89-.03,1.08-.93,2.36-1.19,3.6,.01,.79,.77,1.03,.75,1.88,0,1.34-1.16,2.07-2.59,1.97-4.4Zm-3.64,6.25c-.03-.99-1.06-1.99-2.03-1.98-1.03,0-2.07,1.11-2.01,2.12,.06,.99,1.12,1.96,2.09,1.92,.99-.04,1.98-1.09,1.95-2.06Z"/><path class="q" d="M225.34,173.47c-.05,.97-.38,1.67-1.04,2.29-1.06,1.01-2.07,2.08-3.12,3.1-.6,.58-.78,.59-1.38,0-1.19-1.17-2.37-2.34-3.53-3.54-.81-.85-.95-2.16-.34-3.07,.84-1.25,2.15-1.84,3.23-1.34,.21,.1,.46,.14,.66,.26,.45,.28,.81,.24,1.3-.03,1.35-.74,2.65-.5,3.5,.64,.35,.48,.48,1.12,.71,1.68Zm-4.86,4.65c1.26-1.25,2.37-2.32,3.42-3.43,.52-.55,.43-1.29,.19-1.91-.24-.63-.8-.91-1.53-.89-.6,.01-1.08,.16-1.47,.62-.39,.46-.8,.44-1.21,0-.14-.14-.27-.29-.44-.4-.62-.41-1.79-.28-2.29,.29-.75,.84-.81,1.3-.17,2.12,.99,1.26,2.23,2.33,3.5,3.61Z"/><path class="o" d="M220.86,245.47c-3.49,.25-6.46-2.98-6.43-6.26,.03-3.49,2.9-6.45,6.43-6.45,3.52,0,6.43,2.89,6.43,6.44,0,3.39-2.92,6.51-6.42,6.27Zm.09-11.97c-3.34-.18-5.87,2.67-5.8,5.62,.08,3.41,2.45,5.81,5.85,5.75,3.03-.05,5.54-2.23,5.56-5.68,.02-3.33-2.59-5.75-5.61-5.69Z"/><path class="q" d="M216.34,194.8c0-.43-.03-.87-.01-1.3,.09-2.55,2.84-4.51,5.29-3.77,1.62,.49,2.81,2.09,2.83,3.79,0,.43,0,.87-.01,1.3-.21,.37-.42,.74-.65,1.1-.51,.82-1.18,1.43-2.18,1.57-.89,.2-1.76,.15-2.64-.12-.57-.17-1.04,.12-1.5,.48-.65,.51-.89,.46-1.61-.14,.17-.52,.33-1.05,.52-1.57,.17-.46,.33-.9-.05-1.34Zm6.67-.2c.61-.29,.52-.85,.44-1.34-.3-1.98-2.47-3.13-4.31-2.33-1.46,.64-2.21,2.46-1.62,3.91l-.16,1.93c.57-.1,1.02-.25,1.48-.25,.5,0,1,.16,1.51,.23,.23,.03,.48,.02,.71-.01,1.07-.13,1.87-1.02,1.95-2.13Z"/><path class="s" d="M185.58,148.24c.5-1.48,1.34-2.14,2.29-1.94,.5,.11,.91,.32,.58,1.04-.63-.3-1.28-.4-1.67,.27-.15,.26-.18,.73-.06,1,.38,.84,1.15,.41,1.77,.37,.29,.7-.09,.91-.62,1.01-1.04,.21-1.78-.33-2.25-1.7l-.66,.16c.02,.32,.18,.79,.05,.89-.38,.31-.86,.59-1.34,.68-.72,.13-1.58-.54-1.81-1.28-.25-.76,.05-1.61,.73-2.1,.67-.48,1.49-.51,2.1-.02,.21,.17,.35,.42,.48,.66,.13,.23,.21,.49,.4,.94Zm-1.04-.57c-.99-.79-1.11-.77-1.6,0h1.6Zm-1.72,.87c.7,.79,.88,.79,1.57,0h-1.57Z"/><path class="m" d="M169.77,172.4c-.43,.14-.71,.04-.72-.46,0-.83-.02-1.67,.02-2.5,0-.2,.21-.38,.32-.57,.17,.12,.34,.25,.51,.37,.11,.08,.24,.26,.33,.24,.97-.23,1.43,.44,1.85,1.12,1.14-1.23,2.04-1.45,2.75-.72,.58,.59,.55,1.96-.05,2.44-.87,.7-1.8,.39-2.65-.94-.11,.12-.2,.22-.3,.32l-.71-.08c.11-1.14,.08-1.19-.86-1.36l-.1-.31-.24,.33-.06,1.2-.08,.92Zm3.64-2.1l.02,.28c.28,.05,.6,.28,.85-.28h-.87Z"/><path class="y" d="M164.83,147.09c-.85,.04-1.05,.4-1.05,.94,0,.48,.03,.96-.03,1.43-.02,.16-.28,.3-.43,.44-.14-.15-.29-.3-.42-.47-.04-.05,0-.15,0-.23,0-.83,0-1.66,0-2.59,.87,0,1.64-.55,2.52-.09,.18,.09,.51-.12,.77-.18,.81-.19,1.44,.24,1.49,1.07,.04,.78,0,1.57,0,2.33-.49,.25-.8,.24-.84-.29-.03-.47,0-.95-.01-1.43,0-.4,.02-.89-.55-.86-.51,.03-.55,.49-.55,.9,0,.59,0,1.17,0,1.71-.66,.26-.86,.04-.86-.48,0-.7-.03-1.4-.04-2.2Z"/><path class="q" d="M222.04,212.33l-.87-1.45c.51,.03,.87-.05,1.05,.09,.49,.39,.96,.84,1.34,1.33,.15,.19,.18,.68,.04,.85-.47,.58-1.03,1.1-1.58,1.6-.1,.09-.42,.09-.52,0-.1-.09-.1-.38-.03-.52,.14-.27,.36-.5,.69-.93-1.16-.13-2.16-.2-3.15,.03-.57,.13-.76,.65-.76,1.21,0,.78,0,1.57,0,2.31-.66,.24-.9-.02-.92-.5-.03-.75-.06-1.51,0-2.26,.09-.96,.85-1.6,1.85-1.63,.87-.02,1.74-.03,2.61-.05,.04,0,.07-.03,.26-.11Z"/><path class="f" d="M162.34,169.7c0,.97,.02,1.91,0,2.85-.02,.62-.43,.99-.98,1.21-.54,.21-1.02,.04-1.44-.28-.17-.13-.38-.47-.32-.58,.29-.55-.07-.98-.17-1.45-.27-1.24,.53-2.08,1.78-1.89,.34,.05,.68,.09,1.14,.15Zm-1.47,2.52c.31-.55,.58-.84,.63-1.16,.06-.4-.12-.79-.63-.83-.39-.03-.85,.45-.74,.87,.09,.32,.37,.59,.73,1.13Z"/><path class="s" d="M170.07,150.06c-.9,0-1.74-.8-1.81-1.71-.07-.98,.63-1.89,1.58-2.05,.91-.16,1.77,.47,1.96,1.46,.03,.17,.03,.48-.07,.53-.39,.22-.21,.43-.15,.74,.08,.49-.79,1.03-1.51,1.03Zm.92-2.38c-.96-.86-1.22-.82-1.61,0h1.61Zm-.06,.89h-1.72c.88,.74,.93,.74,1.72,0Z"/><path class="f" d="M157.56,172.35c-.58,.2-.84,.09-.84-.41,0-.54,0-1.08,0-1.68q-.72,.26-.91,2.12c-.38,.14-.66,.15-.72-.38-.06-.57,.17-1.18-.2-1.7-.5,.04-.46,.4-.48,.7-.02,.36,.02,.72-.02,1.07-.05,.45-.35,.46-.76,.3v-2.62c.61-.12,1.21-.4,1.89-.12,.18,.07,.44-.06,.67-.1,.85-.15,1.31,.17,1.36,1.01,.03,.59,0,1.18,0,1.81Z"/><path class="l" d="M189.17,149.75c0-1.24-.02-2.51,.02-3.77,0-.19,.3-.36,.46-.54,.17,.18,.42,.33,.48,.54,.1,.35,.07,.74,.1,1.2,.68-.25,.94-1.17,1.88-.67l-1.17,1.51,1.21,1.7c-1.05,.71-1.23-.47-1.8-.77q-.36,.96-1.2,.81Z"/><path class="l" d="M182.34,162.1l.09-.86,1.45-.22,.32,.78c.23-.16,.43-.33,.65-.47,.96-.58,1.98-.21,2.24,.81,.05,.19-.1,.43-.15,.65-.6,.16-1.28-.25-1.87,.21,.27,.49,.59,.52,1.01,.34,.27-.11,.56-.14,.85-.21,.06,.8-.58,.88-1.1,1-.56,.13-1.26-.25-1.45-.81-.15-.46-.15-.98-.22-1.51-.61-.12-.98,.1-1.03,.76-.02,.32,.03,.65-.04,.95-.05,.2-.25,.37-.38,.56l-.24-.08-.13-1.13v-.76Zm4.05-.02c-.53-.46-.82-.57-1.27,0h1.27Z"/><path class="s" d="M196.24,149.81c0-1.19-.1-2.29,.05-3.36,.68-.06,1.25-.14,1.83-.16,.71-.03,1.24,.46,1.31,1.27,.06,.74,.01,1.49,.01,2.23-.58,.21-.95,.21-.96-.46,0-.48,0-.95,0-1.43,0-.38-.13-.8-.57-.72-.26,.05-.58,.41-.65,.69-.11,.45-.06,.95-.05,1.42,0,.66-.35,.7-.96,.52Z"/><path class="f" d="M206.92,163.92l-.17-2.03c-.57-.16-.7,.11-.72,.46-.03,.44,0,.88-.05,1.31-.02,.13-.26,.32-.39,.32-.13,0-.36-.2-.38-.34-.07-.58-.07-1.17-.1-1.79q-.52,.2-.85,2.06c-.35,.15-.64,.11-.66-.33-.03-.75,0-1.5,0-2.39,.62-.03,1.2-.07,1.77-.09,.31-.01,.62,.01,.93-.03,.8-.11,1.23,.15,1.32,.94,.06,.51,.06,1.04,0,1.55-.02,.18-.27,.34-.41,.51l-.28-.16Z"/><path class="k" d="M135.62,240.64c0,1.14,0,2.08,0,3.02,0,.39-.12,.71-.55,.8-.46,.1-.84-.12-.97-.51-.1-.28-.05-.72,.12-.97,.17-.27,.56-.4,.91-.64l-.09-.95-1.57,.35c0,.6,.04,1.19-.02,1.77-.03,.33-.14,.72-.35,.96-.2,.23-.68,.48-.87,.39-.29-.14-.54-.55-.64-.89-.12-.41,.08-.78,.56-.89,.15-.04,.3-.08,.43-.11,.05-.1,.1-.16,.13-.24,.16-.55-.26-1.37,.37-1.64,.72-.31,1.58-.3,2.54-.46Z"/><path class="y" d="M180.35,149.76c0-.57,0-1.2,0-1.82,0-.42-.1-.84-.64-.81-.46,.03-.71,.34-.72,.8-.01,.63,0,1.25,0,1.84-.53,.21-.86,.2-.87-.33-.02-1.3,0-2.6,0-3.86,1.04-.41,.73,.5,1.01,.82,.3-.04,.61-.12,.92-.11,.68,.03,1.12,.42,1.17,1.11,.05,.67,.03,1.35,.01,2.02-.02,.51-.32,.57-.87,.33Z"/><path class="y" d="M177.36,146.61c-.82-.19-1.63-.43-2.16,.44-.33,.54-.21,1.08,.14,1.55,.54,.74,1.26,.44,2,.26,.2,.48,.15,.84-.37,1.04-.84,.32-1.89-.01-2.43-.77-.55-.76-.53-2.03,.05-2.79,.58-.77,1.47-1.05,2.3-.77,.46,.15,.66,.4,.47,1.04Z"/><path class="y" d="M181.49,172.36v-2.04q-.71,.17-.85,2.01c-.37,.2-.67,.21-.7-.34-.03-.47-.01-.95,0-1.43,0-.27,.03-.54,.06-.94,1.1,0,2.13,0,3.16,0,.43,0,.68,.29,.7,.67,.04,.69,.01,1.39,.01,2.09l-.28,.11c-.14-.17-.37-.32-.39-.5-.07-.43,0-.87-.06-1.3-.02-.15-.22-.28-.34-.42-.16,.14-.42,.26-.45,.42-.07,.43-.04,.87-.05,1.3,0,.45-.26,.52-.82,.37Z"/><path class="s" d="M203.67,172.61c-.37,.31,.13,1.18-.64,1.06-.56-.09-.29-.73-.31-1.13-.04-.91-.01-1.81-.01-2.78,.53-.1,1.01-.24,1.5-.28,.69-.06,1.31,.52,1.47,1.29,.15,.74-.23,1.49-.93,1.71-.32,.1-.68,.08-1.08,.12Zm1.26-1.75c-.14-.14-.34-.51-.64-.62-.4-.15-.79,.28-.81,.79-.03,.52,.29,.89,.75,.86,.5-.02,.66-.36,.7-1.03Z"/><path class="o" d="M169.87,74.21l-.84-1.37c-.21,.32-.36,.61-.57,.87-.38,.48-.86,.57-1.37,.29-.51-.28-.76-.69-.66-1.28,.09-.54,.5-.87,1.12-.85,.31,0,.61,.16,.92,.17,.26,0,.53-.09,.84-.14l.69,.98,.41-.99,.86,.81,.64-.77,.24,.12-.58,1.86c-.76,.24-.74-.4-1.05-.74l-.66,1.04Zm-2.37-2.06c-.24,.4-.48,.64-.49,.89,0,.16,.33,.33,.51,.5,.18-.21,.46-.4,.51-.64,.03-.16-.26-.39-.53-.75Z"/><path class="s" d="M164.77,162.76c-.22,.2-.55,.35-.63,.6-.25,.71-.75,.83-1.39,.74-.38-.06-.77-.1-1.21-.16v-3.4c.69-.39,.69,.22,.89,.58,.95-.21,1.68,.04,1.99,1.07,.03,.11,.23,.18,.35,.27v.31Zm-1.02-.2c-.03-.45-.46-.87-.83-.81-.41,.06-.75,.51-.68,.96,.07,.43,.3,.73,.76,.76,.38,.02,.77-.48,.75-.9Z"/><path class="f" d="M168.04,161.87c.3-.24,.57-.57,.91-.7,1.14-.44,2.07,.36,1.88,1.57-.22,1.4-1.07,1.79-2.33,1.06-.14-.08-.27-.17-.4-.25l-.07-1.68Zm1.87,.22c-.35-.51-.64-.55-.94,0h.94Z"/><path class="l" d="M178.42,161.52l.41,.37,1.42-.83,.52,.02c.62,.1,.92,.53,1.1,1.08l-.03,.6c-.06,0-.1,.02-.13,.07-.61,.05-1.26-.23-1.88,.13,.27,.51,.6,.56,1.02,.38,.27-.11,.56-.17,.84-.25-.22,.97-1.13,1.34-2.01,.8-.23-.14-.39-.39-.63-.51-.1-.05-.31,.09-.47,.15-.06-.68-.11-1.35-.17-2.03Zm1.47,.15q.52,.49,1.31,.1l-1.31-.1Z"/><path class="l" d="M184.33,171.09c0-.86,.64-1.55,1.46-1.58,.8-.03,1.48,.62,1.47,1.39-.02,1.06-.56,1.72-1.43,1.71-.83,0-1.5-.69-1.5-1.53Zm.91-.63c.4,.32,.75,.26,1.23,.08-.44-.52-.79-.59-1.23-.08Zm.17,.87c.24,.62,.55,.65,1,.1l-1-.1Z"/><path class="s" d="M165.47,172.35c-.5,.17-.76,.11-.78-.34-.01-.39,.04-.8-.03-1.18-.04-.21-.28-.38-.43-.57-.17,.19-.45,.36-.48,.56-.07,.49-.02,1.01-.02,1.48-.52,.23-.82,.21-.83-.32-.02-1.02,0-2.04,0-3.06q.67,0,.97,.6c1.4-.05,1.61,.14,1.61,1.48,0,.43,0,.86,0,1.34Z"/><path class="l" d="M202.76,161.02l-1.18,.26c.37,.22,.6,.33,.81,.47,.62,.41,.79,1.3,.37,1.87-.43,.57-1.5,.7-2.03,.24-.05-.05-.1-.14-.09-.21,0-.11,.05-.22,.1-.4,.27,.05,.53,.13,.79,.14,.37,.02,.66-.17,.6-.55-.03-.2-.29-.42-.5-.53-.19-.1-.45-.06-.79-.09l.21-1.7c1.44-.29,1.51-.27,1.71,.49Z"/><path class="f" d="M190.3,161.8c.25-.16,.5-.31,.75-.47,.64-.43,1.27-.42,1.86,.04,.59,.46,.76,1.22,.44,1.91-.28,.61-.89,.96-1.53,.88-.71-.08-1.32-.67-1.42-1.39-.05-.33-.06-.67-.08-1v.03Zm2.43,.75c-.02-.43-.47-.86-.85-.81-.38,.04-.81,.56-.73,.93,.09,.42,.34,.71,.79,.74,.4,.02,.81-.43,.79-.86Z"/><path class="l" d="M159.36,163.58c-.43,.37-.88,.65-1.49,.53-.89-.18-1.37-.91-1.2-1.85,.13-.75,.87-1.28,1.64-1.18,.84,.11,1.19,.63,1.14,1.7-.6,.22-1.31-.23-1.92,.24,.31,.59,.7,.49,1.1,.23,.43-.28,.65-.15,.72,.33Zm-1.86-1.9q.51,.48,1.03,.07l-1.03-.07Z"/><path class="y" d="M159.96,146.65c0,.93,.02,1.77,0,2.6-.02,.59-.04,.59-.9,.53v-3.08c-.27-.12-.51-.18-.67-.32-.12-.11-.23-.35-.2-.5,.03-.14,.24-.34,.39-.35,.59-.04,1.19-.04,1.79,0,.14,0,.35,.21,.39,.36,.03,.15-.07,.38-.19,.5-.13,.13-.35,.16-.6,.27Z"/><path class="l" d="M164.77,162.76v-.31c.08-.77,.49-1.23,1.25-1.36,.72-.12,1.21,.22,1.55,.82,0,.26,0,.52,0,.84l-1.93,.13c.45,.62,.47,.66,1.09,.36,.45-.22,.65-.15,.71,.34-1.4,.97-2.24,.72-2.68-.82Zm.74-.73c.42,.08,.6,.14,.78,.13,.12,0,.24-.09,.42-.17q-.49-.3-1.2,.04Z"/><path class="s" d="M173.56,164.08c-.13-.18-.35-.35-.38-.55-.06-.43,0-.87-.06-1.3-.02-.16-.23-.42-.32-.41-.2,.03-.51,.17-.55,.32-.1,.42-.09,.86-.1,1.29-.01,.45-.17,.67-.72,.49v-2.71c.27-.01,.5-.01,.73-.04,1.6-.19,1.75-.05,1.75,1.59,0,.39,0,.77,0,1.16l-.36,.16Z"/><path class="s" d="M149.1,162.64c-.02,.87-.65,1.52-1.5,1.52-.84,0-1.62-.79-1.59-1.62,.03-.78,.79-1.53,1.56-1.54,.86-.01,1.55,.73,1.53,1.63Zm-.76-.09c-.02-.51-.35-.86-.78-.83-.42,.03-.75,.43-.74,.89,.01,.47,.37,.84,.8,.83,.43-.01,.74-.4,.72-.9Z"/><path class="s" d="M178.42,161.52c.06,.68,.11,1.35,.17,2.03,.06,.52-.24,.49-.75,.36,0-.43,0-.89,0-1.36,0-.31,.05-.7-.39-.74-.53-.05-.67,.33-.69,.76-.01,.43,0,.87,0,1.54-.36-.19-.71-.29-.72-.4-.05-.99-.05-1.99-.02-2.98,0-.13,.23-.26,.36-.39,.12,.13,.26,.25,.36,.39,.06,.09,.07,.22,.11,.36,.56,0,1.21-.24,1.57,.43Z"/><path class="l" d="M190.53,170.24c.24-.17,.48-.35,.73-.51,.62-.39,1.31-.34,1.85,.14,.53,.46,.68,1.18,.39,1.83-.29,.64-.96,1.01-1.63,.9-.68-.12-1.23-.65-1.32-1.34-.04-.34,0-.7,0-1.04l-.02,.02Zm2.35,.82c0-.48-.33-.85-.77-.85-.45,0-.79,.36-.8,.83,0,.47,.34,.85,.78,.85,.44,0,.79-.36,.79-.84Z"/><path class="s" d="M199.84,169.76c.55-.28,1.09-.42,1.68-.07,.66,.39,.96,1.1,.72,1.82-.24,.73-.91,1.18-1.62,1.1-.75-.09-1.27-.63-1.35-1.4-.02-.23,0-.47,0-.71l.56-.74Zm.96,.45c-.44-.01-.82,.37-.79,.85,.03,.43,.21,.77,.69,.83,.45,.05,.81-.29,.84-.79,.03-.51-.28-.87-.74-.89Z"/><path class="o" d="M161.48,72.91c-.77-.03-1.02,.49-1.42,.97v-2.36c.39-.11,.8-.53,1.37,.09l-.91,.44c.1,.11,.17,.27,.23,.26,.42-.04,.83-.11,1.24-.2,.15-.03,.27-.17,.42-.21,.64-.19,1.29,.07,1.53,.58,.24,.52,.05,1.09-.47,1.45-.53,.36-1.1,.28-1.56-.27-.17-.2-.27-.47-.43-.75Zm2.06,.06c-.3-.28-.45-.54-.65-.58-.42-.09-.59,.25-.51,.59,.05,.21,.29,.48,.47,.5,.17,.02,.37-.26,.68-.51Z"/><path class="f" d="M205.99,170.18c-.05-.88,.31-1.24,.9-1.38,.56-.13,1.02,.09,1.32,.58,.27,.44,.2,1.15-.26,1.5-.45,.34-.62,.65-.41,1.2,.04,.1-.23,.33-.36,.5-.16-.18-.41-.33-.46-.54-.08-.28-.05-.6,0-.89,.05-.23,.15-.55,.33-.64,.33-.17,.59-.35,.36-.7-.26-.4-.53-.1-.78,.09-.14,.1-.33,.14-.65,.28Z"/><path class="s" d="M198.6,163.22l-1.45-.15c.67-1.06,1.2-2.02,2.1-2.8,.75,.81-.18,2.02,.86,2.56-.2,.27-.35,.48-.51,.68-.13,.17-.26,.32-.4,.48-.14-.16-.28-.32-.41-.48-.07-.09-.13-.19-.2-.3Zm.22-1.49l-.68,.8c.61,.14,.81,0,.68-.8Z"/><path class="f" d="M209.45,161.26c.6-.09,.98-.15,1.37-.2,.67-.07,1.15,.19,1.23,.81,.08,.69,.02,1.39,.02,2.05-.58,.17-.71-.07-.72-.45-.01-.4,.03-.8-.05-1.19-.04-.18-.29-.42-.45-.43-.16,0-.45,.23-.48,.39-.08,.42-.01,.87-.09,1.3-.03,.17-.27,.31-.41,.46-.14-.16-.39-.31-.4-.48-.04-.75-.02-1.5-.02-2.28Z"/><path class="s" d="M144.09,163.95c-.1-.59-.12-1.23-.32-1.8-.19-.54-.58-1.02-.89-1.56,.9-.6,.96,.39,1.41,.64,.53-.05,.49-1.24,1.39-.7-.08,.2-.13,.44-.25,.62-.46,.67-.78,1.37-.69,2.22,.05,.4-.07,.73-.65,.58Z"/><path class="l" d="M151.95,163.47c-.6,.71-.92,.81-1.58,.6-.66-.22-.78-.7-.76-1.3,.02-.5,0-1,0-1.45,.53-.23,.74-.07,.76,.33,.03,.43-.03,.88,.04,1.3,.03,.17,.29,.41,.44,.4,.15,0,.4-.25,.43-.42,.07-.43,.03-.87,.04-1.3,0-.36,.17-.51,.52-.42l.1,2.26Z"/><path class="l" d="M153.55,161.28c1.2-.4,.84,1,1.5,1.12,.52-.27,.23-1.43,1.41-1.15-.33,.83-.61,1.6-.94,2.34-.08,.18-.33,.39-.51,.39-.17,0-.44-.19-.52-.37-.33-.75-.61-1.52-.94-2.34Z"/><path class="u" d="M221.11,219.18c.21-.15,.4-.36,.64-.43,.35-.12,.79-.29,1.08-.17,.29,.12,.52,.55,.63,.88,.09,.27,0,.63-.1,.91-.28,.78-.77,.91-1.46,.46-.25-.17-.53-.29-.79-.44,0-.4,0-.81,0-1.21Z"/><path class="f" d="M197.42,172.12q-.91,.65-1.9,.03c.05-.12,.08-.27,.17-.39,.09-.12,.21-.21,.34-.32-.32-.52-.86-.99-.29-1.61,.47-.51,.99-.39,1.49-.03,.06,.71-.69,.24-.91,.57q1.11,.92,1.11,1.75Zm-1.35-.71l-.07,.14,.43,.3,.11-.28-.47-.16Z"/><path class="l" d="M213.19,162.88c-.8-.14-.68-.73-.63-1.28q.95-.73,1.88,0l-1,.38c.32,.22,.71,.36,.85,.63,.16,.3,.2,.77,.08,1.07-.18,.43-.65,.55-1.12,.41-.38-.12-.8-.25-.52-.81l.95,.2c.09-.5-.12-.62-.48-.6Z"/><path class="u" d="M148.95,241.22c.47,.82,.22,1.6,.23,2.43-.26,.07-.5,.1-.7,.19-.58,.26-.98,.13-1.24-.47-.27-.63-.13-1.19,.46-1.54,.37-.21,.76-.37,1.26-.61Z"/><path class="o" d="M196.02,71.63c.78,0,1.4,.56,1.43,1.29,.03,.84-.65,1.58-1.45,1.56-.72-.02-1.36-.67-1.38-1.38-.02-.78,.63-1.45,1.4-1.46Zm-.04,.52c-.7,.66-.85,1.22-.39,1.46,.25,.13,.71,.1,.94-.06,.43-.31,.22-.83-.55-1.4Z"/><path class="u" d="M143.02,243.31c-.08,0-.19-.01-.23,.03-.82,.86-1.62,.69-2.41-.05l-.24-.68c.16-.09,.35-.16,.48-.29,.77-.73,.76-.73,1.81-.28,.17,.07,.38,.05,.58,.07v1.2Z"/><path class="j" d="M135.86,235.25c.14-.28,.25-.59,.44-.83,.37-.48,1.02-.57,1.48-.25,.48,.33,.61,1,.3,1.59-.27,.52-.87,.76-1.4,.53-.29-.12-.55-.29-.83-.44,0-.2,.01-.4,.02-.59Z"/><path class="o" d="M188.37,73.05c0,.75-.71,1.45-1.45,1.42-.7-.02-1.36-.69-1.37-1.39-.02-.77,.63-1.45,1.4-1.46,.78,0,1.42,.63,1.43,1.42Zm-1.39-.91c-.76,.6-.95,1.13-.5,1.42,.23,.15,.7,.16,.94,.02,.46-.27,.3-.8-.44-1.44Z"/><path class="c" d="M190.3,161.8v-.03c-.12,.15-.35,.29-.37,.46-.06,.43-.01,.86-.02,1.3-.01,.42-.22,.56-.63,.41-.12-.8-.32-1.59-.34-2.39,0-.38,.27-.82,.54-1.12,.18-.2,.57-.22,.95-.34,.06,.71-.8,1.17-.12,1.72Z"/><path class="o" d="M177.29,74.42c-1.11-.53-1.49-.99-1.3-1.76,.18-.72,.7-.89,2.12-.62,0,.67,.07,1.38-.03,2.07-.05,.31-.42,.64-.72,.83-.31,.19-.59,.03-1.17-.51h1.11Zm.55-1.44c-.36-.27-.57-.55-.8-.57-.17-.02-.55,.35-.52,.47,.06,.24,.3,.53,.53,.61,.14,.05,.4-.25,.79-.51Z"/><path class="c" d="M195.32,149.81c-.52,.15-.8,.08-.8-.36-.01-1.15-.01-2.29,0-3.44,0-.41,.25-.55,.79-.39,.06,1.35,.03,2.75,.01,4.19Z"/><path class="s" d="M177.56,168.68l.61,1-.43,2.74c-.17-.05-.58-.12-.57-.17,.07-1.07-.46-2.14-.02-3.19,.05-.12,.21-.2,.41-.38Z"/><path class="f" d="M166.67,172.41h-.57c-.13-.87-.29-1.67-.34-2.48-.02-.33,.15-.69,.33-.98,.06-.1,.55-.11,.59-.03,.19,.37,.41,.78,.39,1.17-.04,.73-.24,1.44-.4,2.33Z"/><path class="s" d="M151.28,172.39c-.44,.13-.66,.04-.7-.41-.05-.66-.19-1.31-.21-1.97-.01-.29,.14-.6,.25-.89,.05-.12,.22-.3,.3-.29,.15,.03,.32,.16,.42,.29,.17,.24,.3,.52,.47,.83-.82,.6-.26,1.57-.54,2.43Z"/><path class="f" d="M190.55,170.22c-.35-.03-.52,.14-.52,.48,0,.55,0,1.1,0,1.64-.5,.19-.76,.15-.82-.37-.07-.66-.25-1.32-.21-1.97,.03-.44,.06-1.04,.78-1.26,.25,.51,.5,1.01,.74,1.51l.02-.02Z"/><path class="f" d="M178.61,172.62c0-1.41-.01-2.57,.02-3.73,0-.12,.26-.33,.4-.32,.14,0,.4,.21,.4,.33,.02,1.09,.02,2.18-.04,3.27,0,.12-.37,.22-.78,.45Z"/><path class="o" d="M191.78,71.09c.85-.38,.81,.57,1.31,.66,.4-.17,.4-.94,1.15-.73,.12,.64-.54,.99-.67,1.52-.14,.55-.21,1.12-.33,1.78-.84-.42-.35-1.14-.6-1.61-.28-.52-.54-1.05-.85-1.63Z"/><path class="k" d="M185.17,71.32l-1.23,.65,1.27,.73c-.42,.21-.78,.29-.95,.5-.19,.26-.22,.64-.39,1.21-.24-.32-.47-.48-.48-.66-.05-.67-.06-1.35,0-2.02,.02-.27,.22-.65,.43-.74,.4-.16,.89-.2,1.35,.31Z"/><path class="o" d="M200.07,71.78c0,.65,.07,1.3-.02,1.93-.08,.54-.6,.75-1.09,.72-.48-.03-.96-.25-1.01-.83-.05-.61-.01-1.22-.01-2.02,1.11,.55,.41,1.51,.88,2.1,.55,.15,.74-.16,.76-.67,.02-.42,.04-.83,.06-1.25h.42Z"/><path class="l" d="M193.96,163.93v-2.67l1.57-.23c0,.24,.04,.56,0,.58-1.01,.29-.83,1.12-.84,1.85,0,.37-.11,.63-.72,.47Z"/><path class="s" d="M149.78,168.66c.1,.41,.16,.56,.16,.71,0,.98,0,1.97,0,2.94-.38,.2-.72,.24-.75-.22-.05-.95-.03-1.9,.02-2.85,0-.15,.27-.29,.56-.59Z"/><path class="y" d="M197.78,169.57c.05-.14,.09-.29,.17-.41,.1-.13,.24-.33,.37-.33,.13,0,.27,.19,.38,.32,.16,.19,.31,.4,.46,.6l-.41,.74-.08,1.88h-.69c-.06-.94-.13-1.87-.19-2.81Z"/><path class="k" d="M221.11,219.18c0,.4,0,.81,0,1.21-.37,.69-.64,.84-1.11,.61-.48-.24-.84-1.1-.64-1.62,.17-.46,.43-.86,.98-.89,.47-.03,.73,.22,.78,.69Zm-.57-.13c-.62,.03-.66,.44-.6,.83,.03,.19,.24,.35,.36,.53l.24-.1v-1.26Z"/><path class="k" d="M132.8,235.65c.88-.26,.01-1.35,.81-1.61,.63,.97,.45,1.95-.4,2.24-.56,.19-1.09-.09-1.15-.65-.05-.49-.01-.98-.01-1.69,.75,.55,.25,1.25,.76,1.72Z"/><path class="o" d="M174.9,72.41c-1.01,.22-.2,1.36-1.22,1.63l-.1-2c.66-.19,1.3-.42,1.72,.1,.4,.49,.28,1.15-.16,1.78l-.25-1.51Z"/><path class="m" d="M208.48,163.95c-.13-.15-.37-.29-.38-.44-.04-.98-.06-1.96-.01-2.94,0-.18,.33-.34,.51-.51,.14,.2,.38,.39,.41,.6,.04,.25-.11,.52-.17,.78-.13,.15-.38,.29-.38,.44-.03,.69,.01,1.38,.03,2.06Z"/><path class="j" d="M218.69,218.6c-.35,.44-.19,.7,.07,1.04,.35,.46,.24,.93-.2,1.24-.44,.31-.87,.32-1.28-.27l1.38-.3c-.65-.46-1.42-.57-1.09-1.37,.19-.46,.54-.53,1.12-.34Z"/><path class="k" d="M190.55,72.07c-1.43,.29-1.1,1.33-1.32,2.17-.19-.06-.44-.09-.45-.15-.05-.66-.15-1.34-.07-1.98,.07-.56,.72-.61,1.84-.04Z"/><path class="o" d="M135.86,235.25c0,.2-.01,.4-.02,.59q-.8,.61-1.65,0l.79-.15s.04-.12,0-.16c-.08-.08-.19-.14-.28-.21-.32-.26-.63-.52-.32-.98,.31-.47,.69-.37,1.25-.17l-.69,.55,.91,.53Z"/><path class="k" d="M140.16,242.61l.24,.68q-.71,.74-1.42,.29l.65-.5c-.32-.43-1.02-.79-.47-1.44,.16-.19,.52-.2,.8-.29l.12,.21-.51,.54,.6,.51Z"/><path class="m" d="M151.95,163.47c-.03-.75-.07-1.51-.1-2.26,.28,.05,.52,.07,.68-.26,.12-.24,.34-.44,.65-.83,.23,1.13-.26,1.56-.87,1.82l-.37,1.53Z"/><path class="o" d="M146.21,242.35c-.87,.22-.29,1-.82,1.35-.39-.53-.18-1.09-.16-1.67,.52-.19,1.07-.35,1.43,.12,.35,.45,.24,1.01-.15,1.54l-.31-1.34Z"/><path class="o" d="M143.02,243.31v-1.2c.14,.01,.41,0,.42,.04,.08,.36,.12,.73,.18,1.14,.94-.12,.32-1,.77-1.28,.39,.62,.41,1.32,.04,1.62-.36,.29-.85,.18-1.4-.33Z"/><path class="j" d="M164.86,71.31c.29,1.52,.21,2.2-.29,2.64-.54-1.06-.4-2.31,.29-2.64Z"/><path class="g" d="M197.78,169.57c.06,.94,.13,1.87,.19,2.81l-.55-.26q0-.83-1.11-1.75c.22-.33,.97,.14,.91-.57l.56-.22Z"/><path class="j" d="M138.96,236.15c-.44-.45-.62-1.4-.36-1.81,.29-.46,.72-.35,1.13-.29l-.77,2.1Z"/><path class="s" d="M158.77,169.77c.04,.75,.09,1.49,.09,2.24,0,.14-.2,.28-.31,.42-.15-.14-.43-.27-.43-.41,0-.74,.05-1.49,.09-2.23h.55Z"/><path class="g" d="M167.45,163.58c-.06-.49-.26-.56-.71-.34-.63,.3-.65,.26-1.09-.36l1.93-.13c0-.32,0-.58,0-.84l.47-.03,.07,1.68-.66,.03Z"/><path class="o" d="M172.85,73.87c-.32-.85-.27-1.71-.11-2.64,.46,.63,.51,1.45,.11,2.64Z"/><path class="o" d="M165.71,73.87c-.33-.78-.33-1.56,0-2.34,.33,.78,.33,1.56,0,2.34Z"/><path class="y" d="M161.26,146.11l-.1-.86q.9-.05,.89,.63l-.79,.23Z"/><path class="g" d="M159.36,163.58c-.07-.48-.29-.61-.72-.33-.4,.25-.79,.36-1.1-.23,.61-.46,1.32-.02,1.92-.24,.07,.28,.49,.6-.09,.8Z"/><path class="f" d="M158.77,169.77h-.55c-.04-.25-.15-.51-.1-.76,.03-.17,.26-.3,.4-.45,.14,.15,.39,.28,.41,.45,.03,.24-.09,.5-.15,.76Z"/><path class="s" d="M169.77,172.4c.03-.31,.05-.62,.08-.92,.37,.49,.79,.6,1.27,.14l.71,.08c-.25,.25-.51,.5-.76,.76-.3,0-.61,0-.91,0l-.39-.05Z"/><path class="o" d="M180.65,72.11c.59,.38,.23,.87,.32,1.38-.82-.32-.86-.6-.32-1.38Z"/><path class="g" d="M186.92,163.14c-.28,.07-.58,.1-.85,.21-.42,.18-.75,.14-1.01-.34,.59-.46,1.27-.05,1.87-.21v.34Z"/><path class="g" d="M181.69,163.11c-.28,.08-.58,.14-.84,.25-.42,.18-.75,.12-1.02-.38,.62-.37,1.27-.08,1.88-.13l-.02,.27Z"/><path class="m" d="M161.26,146.11l.79-.23-.05,.78h-.7l-.03-.55Z"/><path class="g" d="M198.74,170.5l.41-.74h.69l-.56,.74h-.54Z"/><path class="r" d="M213.19,162.88c.36-.02,.57,.1,.48,.6l-.95-.2,.47-.4Z"/><path class="g" d="M181.84,162.77l.03-.6,.47-.07v.76l-.5-.09Z"/><path class="m" d="M170.15,172.45c.3,0,.61,0,.91,0-.3,.33-.61,.34-.91,0Z"/><path class="g" d="M180.77,161.09l-.52-.02c.19-.42,.36-.4,.52,.02Z"/><path class="q" d="M178.67,251.18c1.11,0,2.23-.02,3.34,0,1.46,.03,2.53,1.11,2.57,2.58,.02,.83,.02,1.67,0,2.5-.04,1.64-1.15,2.77-2.79,2.79-1.99,.03-3.98-.03-5.96,.02-1.99,.05-3.05-1.39-3.17-3.01-.05-.71-.05-1.43,0-2.15,.1-1.5,1.41-2.73,2.91-2.75,1.03-.01,2.07,0,3.1,0Zm.05,7.19c1.03,0,2.06,.02,3.09,0,1.09-.02,1.77-.44,2-1.5,.21-.99,.29-2.05,.19-3.05-.12-1.19-1.07-2.06-2.24-2.1-2.02-.07-4.05-.07-6.07,0-1.23,.04-2.25,1.04-2.33,2.15-.06,.79-.07,1.59,0,2.38,.12,1.38,.97,2.11,2.37,2.13,.99,.02,1.98,0,2.97,0Z"/><path class="q" d="M138.22,249.98c.77,.6,1.6,1.2,2.38,1.86,.18,.15,.27,.48,.27,.74,.03,.91,.01,1.82,.01,2.73,0,.57-.26,.9-.85,.9-1.27,0-2.53,.03-3.8,0-.69-.02-.99-.34-1.06-1.02-.01-.12,0-.24,0-.36-.07-2.86,.3-3.47,3.06-4.84Zm.98,5.57c1.04,.09,1.12,.06,1.16-.63,.04-.67,.05-1.35-.01-2.02-.03-.28-.2-.62-.42-.8-.6-.5-1.26-.93-1.88-1.37q-2.3,1.66-2.21,3.94s0,.08,0,.12c0,.04,0,.08,0,.12,0,.4,.12,.74,.58,.75,.46,.01,.58-.33,.6-.72,.02-.66,.04-1.32,.06-2.01h2.11v2.62Zm-1.6,.21c.41-.15,.93-.21,.96-.36,.1-.56,.11-1.17,0-1.73-.03-.16-.54-.23-.96-.39v2.49Z"/><path class="o" d="M195.81,256.57c0-1.78,0-3.32,0-4.86,0-.66,.51-.92,1.03-.95,1.26-.06,2.53-.05,3.8-.01,.54,.02,.86,.4,.88,.95,.02,.91,.04,1.82,0,2.73-.03,.69-.35,.99-1.05,1.03-.63,.04-1.27,.03-1.9,0-.74-.03-1.42,.01-1.91,.68-.12,.16-.39,.2-.85,.41Zm.97-5.13c-.33,.88-.36,2.49-.12,3.54,.47-.07,.92-.17,1.38-.2,.71-.03,1.43-.02,2.14,0,.52,0,.84-.21,.84-.77,0-.6,0-1.19,0-1.79,0-.55-.29-.78-.82-.78-1.15,0-2.3,0-3.42,0Z"/><path class="o" d="M161.27,256.24l-1.27-.96c-.98,.52-1.99,.66-3.01,.02-.97-.6-1.42-1.94-1.02-3.15,.31-.92,1.68-1.78,2.65-1.66,1.18,.15,2.2,1.11,2.32,2.21,.02,.2,.01,.4,0,.59-.03,.79,.15,1.77,.44,2.48,.03,.08-.05,.21-.11,.47Zm-1.04-3.17c-.01-1.06-.87-1.92-1.88-1.88-.93,.04-1.95,1.06-1.93,1.93,.02,.88,1.07,1.87,1.98,1.88,1,0,1.83-.87,1.82-1.93Z"/><path class="u" d="M154.28,259.02c0-.48-.08-.89,.03-1.25,.07-.24,.4-.57,.61-.57,.87,.02,1.76,.05,2.53,.54,.12,.07,.16,.26,.2,.32,1.46-.72,2.95-.3,4.53-.23l-.46,1.33c-.53-.47-.96-.47-1.5-.16-.35,.19-.9,.03-1.36,.02-1.45,0-2.9,0-4.57,0Zm4.66-.67c-.04-.05-.07-.15-.12-.16-.06-.01-.13,.05-.19,.08l.18,.22s.09-.1,.14-.15Z"/><path class="u" d="M201.28,257.87c.32-.09,.64-.18,1.02-.3l.34,1.32c-1.47,.06-2.88,.12-4.29,.17-.9,.03-.9,.02-1.28-.83-.12,.75-.48,1.02-1.21,.68v-1.58c.79,.15,1.57,.74,2.37-.08,.58,.3,1.2,.72,2.03,.41,.28-.1,.68,.13,1.02,.2l.03,.54,.18-.03-.21-.5Z"/><path class="u" d="M218.06,257.11l.53,.78,.38-.58c.52,.12,.99,.25,1.47,.33,.41,.07,.65,.28,.65,.7,0,.48-.26,.75-.73,.72-.65-.04-1.3-.14-1.95-.19-.24-.02-.48,.03-.8,.06-.13-.6-.16-1.17,.46-1.82Z"/><path class="q" d="M221.05,256.24c-.08-.27-.13-.41-.16-.56-.2-.97-.36-1.11-1.33-1.14-.16,0-.32,0-.48,0q-1.72,0-2.23,1.54c-.64-1.04-.22-2.05,1-2.2,.78-.1,1.6-.1,2.38,0,1.04,.12,1.59,1.13,1.24,2.14-.03,.08-.18,.11-.42,.23Z"/><path class="o" d="M220.4,252.06c-.02,.93-.46,1.33-1.44,1.29-.85-.03-1.46-.64-1.43-1.41,.04-.8,.69-1.46,1.45-1.45,.82,.01,1.44,.69,1.42,1.56Zm-.53-.19c-.28-.43-.56-.85-1.06-.57-.25,.15-.53,.57-.49,.82,.04,.26,.42,.61,.7,.66,.55,.09,.66-.43,.85-.91Z"/><path class="u" d="M138.82,258.89l-.19-.59-.32,.67-.19-.03v-1.3c.49,0,.95,0,1.41,0,.38,0,.76,.04,1.13,.01,.58-.03,.89,.17,.91,.65,.02,.49-.28,.76-.84,.73-.61-.03-1.22-.1-1.92-.15Z"/><path class="u" d="M134.74,257.07l.65,.75,.5-.66,.35,.77c.21-.1,.43-.29,.63-.27,.28,.03,.63,.15,.79,.35,.12,.15,.07,.58-.06,.75-.14,.17-.48,.27-.72,.25-.46-.04-.9-.21-1.36-.26-.24-.03-.49,.1-.77,.17v-1.86Z"/><path class="u" d="M162.85,259.05c-.11-.15-.38-.38-.46-.66-.11-.41,.24-.75,.68-.75,.41,0,.68,.19,.69,.62,.01,.39-.36,.79-.91,.79Z"/><path class="y" d="M109.65,159.49c1.12,.04,1.95,.84,1.99,2.1,.03,1.04-.98,1.96-2.02,1.96-1.09,0-2.09-.99-2.06-2.06,.02-1.11,.99-2.03,2.1-2.01Zm-1.11,2l1.05,1.05,1.06-1.04-1.06-1.02-1.05,1.01Z"/><path class="y" d="M31.75,242.91c-.31,.24-.5,.49-.7,.5-.37,.02-.58-.3-.48-.63,.06-.19,.36-.44,.55-.43,.18,0,.35,.3,.63,.56Z"/><path class="c" d="M37.61,243.44c-.51-.26-.58-.62-.2-1.03,.07-.07,.35-.08,.41,0,.37,.41,.29,.77-.21,1.03Z"/><path class="c" d="M109.43,201.74c-.46-.66-.5-1.14,.05-1.61,.58,.72,.58,.8-.05,1.61Z"/><path class="c" d="M111.61,200.15c.56,.69,.56,.77,0,1.5-.56-.72-.56-.79,0-1.5Z"/><path class="m" d="M22.47,243.96c-.21,.13-.35,.28-.44,.25-.1-.03-.2-.2-.23-.33-.01-.05,.16-.22,.22-.21,.13,.03,.24,.14,.45,.29Z"/><path class="m" d="M24.88,243.51c-.23,.15-.33,.26-.45,.28-.08,.01-.18-.1-.27-.16,.07-.11,.13-.27,.23-.31,.09-.03,.23,.08,.49,.19Z"/><path class="m" d="M26.84,234.74h-.53v-.18l.54-.05v.23Z"/><path class="y" d="M57.82,72.96c-.39,.3-.64,.63-.84,.61-.22-.03-.55-.38-.55-.59,0-.21,.32-.56,.55-.59,.19-.03,.44,.29,.84,.57Z"/><path class="y" d="M66.54,72.04c.27,.46,.54,.71,.51,.93-.03,.23-.34,.42-.53,.63-.19-.21-.49-.41-.52-.64-.02-.21,.25-.46,.54-.92Z"/><path class="m" d="M67.23,73.96c-.46,.68-.77,.67-1.31,.21l1.31-.21Z"/><path class="c" d="M76.14,73.81c-.12-.19-.41-.47-.48-.79-.1-.46,.35-.9,.76-.83,.45,.09,.67,.39,.66,.85,0,.45-.33,.78-.94,.76Z"/><path class="c" d="M85.59,71.86c.31,.54,.58,.83,.63,1.16,.08,.48-.36,.86-.81,.78-.48-.09-.7-.46-.59-.87,.08-.32,.4-.58,.76-1.07Z"/><path class="c" d="M111.88,220.55c-.59-.46-.47-.95-.15-1.5,.74,.47,.76,.69,.15,1.5Z"/><path class="y" d="M111.89,182.81c-.57-.89-.56-1.01,.06-1.57q.46,.74-.06,1.57Z"/><path class="y" d="M53.16,73.01c-.39,.27-.64,.57-.84,.55-.21-.03-.52-.39-.52-.59,0-.21,.34-.55,.55-.56,.2-.01,.43,.31,.81,.61Z"/><path class="s" d="M109.75,220.68c-.57-.63-.55-1.17-.06-1.73,.73,.67,.74,.8,.06,1.73Z"/><path class="s" d="M109.75,182.89c-.55-.63-.57-1.17-.05-1.73,.73,.67,.74,.8,.05,1.73Z"/><path class="c" d="M28.77,255.53v-2.61h-2.25v2.57q-1.09,.16-1.13-.66-.13-2.39,1.82-3.79c.13-.09,.27-.15,.47-.27,.62,.47,1.27,.92,1.86,1.44,.18,.15,.28,.47,.29,.72,.04,.67,0,1.35,.02,2.02,.01,.69-.35,.79-1.08,.58Z"/><path class="s" d="M27.1,255.59v-2.08l1-.14v2.22h-1Z"/><path class="c" d="M44.86,258.49c-.31,.18-.52,.14-.51-.27,0-.3-.03-.69,.49-.44l.02,.7Z"/><path class="m" d="M52.78,258.84c-.15-.02-.29-.04-.44-.06,0-.23-.01-.46-.02-.68,0-.06,0-.12,.02-.17,.45,.16,.23,.64,.43,.92Z"/><path class="y" d="M107.91,252.01c-.01-.43,.4-.85,.82-.81,.45,.05,.71,.33,.72,.78,0,.45-.26,.74-.69,.82-.39,.08-.84-.36-.85-.79Z"/><path class="f" d="M168.87,204.49c-.02,.22-.03,.43-.05,.65-.02,.19-.06,.37-.09,.57-.88,.15-.67-.46-.7-.88-.03-.42-.04-.84-.06-1.26-.8-.05-.8,.41-.8,.86,0,.43,0,.85,0,1.28-.96,.12-.74-.49-.77-.91-.03-.41-.05-.82-.07-1.24l-.3-.06c-.11,.2-.3,.4-.33,.61-.06,.39,.02,.8-.04,1.18-.03,.17-.27,.31-.41,.46-.12-.17-.35-.33-.36-.5-.04-.74-.02-1.49-.02-2.29,1.09-.07,2.08-.19,3.06-.16,.29,0,.63,.4,.84,.69,.14,.19,.08,.51,.15,1.08,.26-.49,.38-.74,.52-.98,.41-.67,1.04-.96,1.7-.78,.69,.19,1.19,.78,1.22,1.45,.03,.62-.4,1.29-.96,1.5-.71,.27-1.41,.06-1.88-.6-.16-.22-.26-.48-.39-.72l-.25,.04Zm1.96,.67c.4-.02,.81-.47,.79-.87-.02-.41-.47-.84-.85-.82-.4,.02-.8,.48-.79,.88,.01,.44,.42,.83,.85,.81Z"/><path class="l" d="M180.93,203.54c-.6-.01-.65,.29-.66,.62-.01,.36,.04,.72-.02,1.07-.03,.21-.22,.39-.4,.68-.4-.91-.42-1.29-.24-2.94,.94-.07,1.89-.17,2.84-.19,.47-.01,.88,.26,.94,.75,.07,.63,.06,1.27,.01,1.9-.01,.14-.36,.24-.69,.46l-.12-2.28c-.56-.2-.75,.07-.79,.48-.03,.39,.03,.8-.04,1.19-.03,.17-.25,.31-.39,.47-.13-.17-.34-.32-.36-.51-.07-.56-.06-1.14-.09-1.7Z"/><path class="f" d="M174.55,203.63c.27-.21,.52-.45,.81-.62,.51-.29,1.1-.33,1.55,.04,.45,.37,.88,.84,.44,1.51-.08,.06-.17,.12-.25,.17l.27,.17c-.33,.73-.75,1.03-1.38,.97-.68-.06-1.17-.47-1.32-1.17-.08-.36-.08-.74-.11-1.11v.03Zm.95,.87c.59,.85,.62,.85,1.29,.07l-1.29-.07Zm1.26-.66c-.54-.56-.88-.57-1.34,0h1.34Z"/><path class="f" d="M161.16,203.01c1.37,.75,1.68,1.26,1.43,2.02-.19,.56-.89,.96-1.55,.83-.41-.08-.91-.15-.63-.86,.28,.05,.54,.13,.8,.14,.37,.02,.66-.17,.61-.55-.03-.21-.28-.45-.48-.54-.23-.11-.52-.07-.85-.11l.29-1.82c.41,0,.8-.04,1.17,.02,.18,.03,.33,.24,.5,.36-.13,.12-.25,.29-.4,.35-.2,.08-.44,.09-.88,.16Z"/><path class="l" d="M195.55,204.87c-.16,.72-.56,1.04-1.26,1.01-.7-.04-1.32-.56-1.4-1.21-.05-.42-.05-.84-.07-1.26v.07c.12-.04,.28-.05,.38-.12,1.14-.9,1.89-.74,2.59,.55v.47l-.26,.2-.24,.11c-.54-.24-1.07-.29-1.64,.01,.59,.85,1.12,.29,1.64,.05l.26,.11Zm-1.66-1.26v.3l1.1-.06c-.48-.55-.79-.53-1.1-.24Z"/><path class="f" d="M185.33,202.98c.46-.07,.93-.15,1.39-.2,.61-.06,1.11,.28,1.19,.89,.07,.55,.06,1.11,.01,1.66-.01,.15-.29,.28-.44,.41-.11-.14-.3-.27-.32-.42-.05-.39,.03-.8-.04-1.19-.04-.22-.26-.42-.4-.62-.22,.19-.55,.35-.62,.58-.11,.37-.06,.79-.05,1.18,0,.46-.28,.51-.64,.46-.03-.92-.06-1.85-.08-2.77Z"/><path class="m" d="M192.81,203.49v-.07c-.4,.17-.39,.53-.39,.89,0,.35,.05,.72-.03,1.06-.04,.18-.29,.32-.45,.48l-.25-.1-.16-2.13-.26-.03c-.14,.55-.28,1.1-.42,1.66l-.08-2.29c.23-.03,.56,.02,.68-.12,.19-.2,.25-.54,.39-.89,.63,.4,.87,.91,.95,1.53Z"/><path class="m" d="M196.15,203.87c.26-1.22,.71-1.39,1.82-.6l-.75,.51c.07,.07,.13,.17,.22,.23,.79,.6,.93,1.03,.48,1.52-.5,.56-1.1,.48-1.81-.27l.72-.55-.49-.38-.2-.45Zm1.03,1.14l-.08-.15s-.07,.06-.07,.07c.01,.05,.05,.1,.07,.15l.08-.08Z"/><path class="f" d="M190.78,202.96l.08,2.29c-.38,.69-.96,.74-1.62,.52-.67-.22-.71-.76-.7-1.35,.02-.47,0-.94,0-1.38,.43-.21,.71-.18,.75,.27,.03,.39-.01,.79,.02,1.19,.04,.58,.06,.58,.95,.48,0-.53,0-1.08,0-1.63,0-.37,.17-.5,.52-.4Z"/><path class="l" d="M174.55,203.63v-.03c-.55-.23-.9-.04-1,.55-.06,.35,0,.72-.07,1.06-.04,.21-.2,.41-.37,.72-.39-.87-.42-1.32-.24-2.95l1.43-.18,.25,.83Z"/><path class="d" d="M184.5,205.78c.08-.93,.16-1.86,.23-2.79l.6-.02c.03,.92,.06,1.85,.08,2.77l-.92,.03Z"/><path class="i" d="M196.15,203.87l.2,.45-.55,.07v-.47l.35-.04Z"/><path class="i" d="M177.37,204.91l-.27-.17c.08-.06,.17-.12,.25-.17l.02,.34Z"/><path class="i" d="M195.55,204.87l-.26-.11v-.07l.23-.11,.03,.29Z"/><path class="f" d="M166.41,187.43c.49-.6,1.03-.85,1.85-.63,.58,.16,1.23,.03,1.89,.03l.72,1.31c.67-.26,.31-1.47,1.51-1.25-.34,.88-.63,1.71-1,2.51-.21,.46-.72,.37-.96-.16-.31-.67-.57-1.35-1.08-2v2.21c-2.2,.57-2.66,.4-3.07-1,.05-.34,.09-.68,.14-1.02Zm2.12,.86c.02-.47-.33-.88-.76-.86-.5,.02-.67,.36-.68,.79-.01,.42,.12,.79,.61,.86,.42,.06,.82-.32,.84-.79Z"/><path class="m" d="M181.49,187.87c.12,.05,.34,.16,.36,.14,.18-.25,.3-.56,.5-.79,.47-.54,1.24-.66,1.83-.32,.54,.31,.6,.86,.59,1.61-.01,.87-.46,1.22-1.16,1.32-.73,.1-1.29-.25-1.59-.96-.11-.25-.2-.59-.53-.18v-.81Zm2.33-.09c-.33-.52-.62-.47-1.04,0h1.04Z"/><path class="m" d="M175.57,188.03c.03,1.02-.62,1.84-1.47,1.82-.78-.01-1.51-.75-1.52-1.54-.02-.83,.77-1.63,1.58-1.62,.72,0,1.39,.65,1.41,1.34Zm-1.05-.25c-.33-.52-.62-.46-1.07,0h1.07Z"/><path class="l" d="M194.55,189.78c-.26,.4,.15,1.19-.83,1.1v-3.96c.32-.04,.67-.07,1.01-.12,1.13-.15,1.82,.37,1.88,1.4,.05,1-.61,1.58-1.77,1.55-.07,0-.15,.01-.29,.03Zm1.32-1.3c0-.68-.4-1.11-.79-1.06-.48,.06-.65,.4-.67,.83-.03,.5,.36,.96,.76,.82,.31-.11,.54-.45,.7-.59Z"/><path class="s" d="M191.19,189.74c-.33,.38,.16,1.18-.89,1.16-.06-1.3-.02-2.59-.03-3.94,.42-.06,.79-.13,1.17-.18,1.03-.14,1.71,.41,1.77,1.41,.06,.98-.58,1.61-1.62,1.58-.15,0-.29-.02-.4-.03Zm1.27-1.14c.08-.67-.23-1.15-.62-1.2-.44-.06-.79,.28-.82,.79-.03,.51,.27,.97,.69,.89,.32-.06,.58-.37,.75-.48Z"/><path class="l" d="M189.62,189.57c-.5,.08-.92,.16-1.34,.2-.82,.09-1.49-.52-1.55-1.42-.06-.91,.62-1.71,1.46-1.65,.46,.03,.92,.15,1.43,.23v2.63Zm-1.39-2.16c-.46,.04-.84,.51-.76,.94,.08,.41,.27,.76,.78,.74,.44-.01,.73-.41,.68-.94-.04-.45-.25-.75-.69-.75Z"/><path class="l" d="M165.79,189.13c-.35,.5-.84,.71-1.42,.66-.71-.07-1.22-.61-1.31-1.32-.08-.61,.28-1.3,.82-1.58,.62-.32,1.3-.17,1.8,.41,.1,.12,.15,.27,.23,.41v.65h0l-2.14,.11c.26,.7,.66,.79,1.14,.56,.34-.16,.63-.36,.88,.1Zm-1.98-1.21l1.43-.11q-.73-.58-1.43,.11Z"/><path class="f" d="M181.49,187.87v1.71c-.46,.15-.7,.06-.71-.38,0-.4,.05-.8-.03-1.19-.04-.21-.28-.38-.44-.56-.18,.18-.46,.33-.5,.54-.09,.38-.04,.79-.04,1.19,0,.43-.22,.55-.74,.42,0-.66,0-1.36,0-2.06,0-.31,0-.62,0-.92l.03-.37,.63,.02c.08,.31,.15,.63,.6,.52l.64,.06c.56,.14,.66,.53,.57,1.03Z"/><path class="m" d="M179.03,186.61c0,.31,0,.62,0,.92-.47-.39-.64-.05-.69,.34-.06,.43-.01,.87-.02,1.31-.02,.51-.28,.59-.66,.42-.14-.85-.33-1.65-.39-2.46-.02-.36,.24-.73,.37-1.09,.53-.22,.59,.14,.73,.49,.14,.36,.4,.5,.67,.06Z"/><path class="f" d="M161.77,186.21v2.69l1.22,.38c-.71,.61-1.33,.38-2.02,.3,0-1.02-.01-2,0-2.98,0-.45,.21-.66,.79-.39Z"/><path class="g" d="M165.79,189.13c-.25-.46-.54-.25-.88-.1-.48,.22-.88,.13-1.14-.56l2.14-.11-.12,.77Z"/><path class="g" d="M165.91,188.36v-.65l.5-.28c-.05,.34-.09,.68-.14,1.02l-.35-.09Z"/><path class="m" d="M179.69,186.26l-.63-.02c.25-.36,.41-.36,.63,.02Z"/><path class="m" d="M180.93,186.83l-.64-.06,.64,.06Z"/><path class="e" d="M178.62,134.95c-4.71-.3-6.85-3.13-7.25-7.21,.53-4.62,2.58-6.9,7.27-7.44,3.73,.37,7.23,2.41,7.37,7.49,.11,3.77-3.38,7.31-7.39,7.17Zm4.48-4.93c.31-1-.11-1.49-.94-1.81-.55-.21-1.05-.56-1.6-.78-.57-.22-.77-.57-.75-1.18,.04-1.19,.02-2.39,0-3.58,0-.63-.51-1.16-1.07-1.2-.56-.03-1.14,.57-1.14,1.24-.01,1.55,.02,3.1-.02,4.66-.01,.69,.28,1.11,.88,1.39,.93,.44,1.86,.9,2.76,1.39,.67,.37,1.27,.34,1.88-.13Z"/><path class="w" d="M225.69,155.23c.1,1.81-.62,3.24-1.97,4.4-.86,.74-1.1,.76-1.88,0-1.24-1.21-2.52-.94-3.6-.01-.86,.74-1.05,.72-1.89,.03-2.86-2.32-2.4-6.83-.13-8.75,3.29-2.79,8.26-1.27,9.35,2.8,.13,.49,.09,1.02,.13,1.54Z"/><path class="d" d="M222.06,161.49c.03,.97-.96,2.02-1.95,2.06-.97,.04-2.03-.93-2.09-1.92-.06-1.02,.98-2.11,2.01-2.12,.98,0,2.01,.99,2.03,1.98Zm-2,.7l.81-.6-.82-.85-1.09,.81,.3-.2,.81,.83Z"/><path class="w" d="M220.49,178.12c-1.27-1.28-2.51-2.35-3.5-3.61-.64-.82-.58-1.28,.17-2.12,.5-.56,1.67-.7,2.29-.29,.16,.11,.3,.26,.44,.4,.41,.43,.81,.45,1.21,0,.39-.46,.87-.61,1.47-.62,.73-.01,1.29,.26,1.53,.89,.24,.62,.33,1.36-.19,1.91-1.06,1.12-2.17,2.18-3.42,3.43Z"/><path class="w" d="M220.95,233.51c3.03-.06,5.64,2.36,5.61,5.69-.02,3.45-2.53,5.63-5.56,5.68-3.4,.06-5.78-2.34-5.85-5.75-.07-2.95,2.47-5.8,5.8-5.62Z"/><path class="k" d="M217.54,194.84c-.59-1.45,.16-3.28,1.62-3.91,1.84-.8,4,.36,4.31,2.33,.08,.49,.17,1.05-.44,1.34-1.41,0-2.82-.01-4.23,.02-.42,0-.83,.14-1.25,.22Z"/><path class="d" d="M217.54,194.84c.42-.08,.83-.21,1.25-.22,1.41-.03,2.82-.02,4.23-.02-.08,1.12-.88,2-1.95,2.13-.23,.03-.48,.04-.71,.01-.5-.06-1-.22-1.51-.23-.45,0-.9,.14-1.48,.25l.16-1.93Z"/><path class="g" d="M184.54,147.67h-1.6c.49-.77,.62-.79,1.6,0Z"/><path class="w" d="M182.82,148.54h1.57c-.69,.79-.87,.79-1.57,0Z"/><path class="i" d="M171.11,171.62c-.48,.46-.89,.35-1.27-.14,.02-.4,.04-.8,.06-1.2,.11,0,.23-.01,.34-.02,.94,.18,.97,.22,.86,1.36Z"/><path class="r" d="M173.41,170.3h.87c-.26,.57-.57,.33-.85,.28l-.02-.28Z"/><path class="s" d="M170.25,170.25c-.11,0-.23,.01-.34,.02,.08-.11,.16-.22,.24-.33l.1,.31Z"/><path class="i" d="M160.87,172.22c-.36-.53-.64-.8-.73-1.13-.11-.42,.34-.9,.74-.87,.51,.04,.69,.43,.63,.83-.05,.32-.32,.61-.63,1.16Z"/><path class="r" d="M170.99,147.68h-1.61c.39-.82,.64-.86,1.61,0Z"/><path class="w" d="M170.94,148.57c-.79,.74-.84,.74-1.72,0h1.72Z"/><path class="r" d="M186.39,162.08h-1.27c.45-.57,.74-.46,1.27,0Z"/><path class="i" d="M204.94,170.87c-.04,.67-.2,1-.7,1.03-.47,.02-.78-.35-.75-.86,.03-.51,.42-.94,.81-.79,.3,.12,.5,.48,.64,.62Z"/><path class="d" d="M167.5,72.14c.27,.36,.57,.59,.53,.75-.05,.24-.33,.43-.51,.64-.18-.17-.51-.34-.51-.5,.01-.25,.25-.49,.49-.89Z"/><path class="g" d="M163.75,162.56c.03,.42-.37,.92-.75,.9-.46-.03-.69-.33-.76-.76-.07-.45,.26-.89,.68-.96,.37-.06,.8,.36,.83,.81Z"/><path class="r" d="M169.92,162.09h-.94c.3-.55,.59-.51,.94,0Z"/><path class="r" d="M179.89,161.67l1.31,.1q-.79,.38-1.31-.1Z"/><path class="r" d="M185.25,170.46c.44-.52,.78-.44,1.23,.08-.48,.19-.83,.25-1.23-.08Z"/><path class="w" d="M185.41,171.33l1,.1c-.45,.55-.76,.52-1-.1Z"/><path class="i" d="M192.74,162.55c.02,.42-.39,.88-.79,.86-.46-.03-.71-.32-.79-.74-.08-.37,.36-.89,.73-.93,.38-.05,.83,.38,.85,.81Z"/><path class="r" d="M157.5,161.68l1.03,.07q-.52,.41-1.03-.07Z"/><path class="r" d="M165.51,162.04q.71-.34,1.2-.04c-.17,.07-.29,.16-.42,.17-.18,0-.36-.06-.78-.13Z"/><path class="i" d="M148.35,162.55c.02,.5-.3,.88-.72,.9-.43,.01-.79-.36-.8-.83-.01-.46,.32-.86,.74-.89,.43-.03,.77,.32,.78,.83Z"/><path class="i" d="M192.87,171.06c0,.47-.36,.84-.79,.84-.44,0-.78-.39-.78-.85,0-.47,.35-.83,.8-.83,.44,0,.78,.37,.77,.85Z"/><path class="i" d="M200.8,170.22c.46,.01,.77,.38,.74,.89-.03,.5-.39,.85-.84,.79-.48-.06-.66-.4-.69-.83-.03-.48,.34-.86,.79-.85Z"/><path class="d" d="M163.54,72.98c-.31,.25-.52,.53-.68,.51-.18-.02-.43-.3-.47-.5-.08-.34,.09-.68,.51-.59,.2,.04,.36,.31,.65,.58Z"/><path class="r" d="M198.82,161.73c.12,.79-.07,.93-.68,.8l.68-.8Z"/><path class="w" d="M196.06,171.41l.47,.16-.11,.28-.43-.3,.07-.14Z"/><path class="d" d="M195.98,72.15c.77,.56,.98,1.09,.55,1.4-.22,.16-.69,.19-.94,.06-.47-.24-.31-.8,.39-1.46Z"/><path class="d" d="M186.98,72.14c.73,.65,.9,1.18,.44,1.44-.24,.14-.71,.13-.94-.02-.45-.29-.26-.82,.5-1.42Z"/><path class="d" d="M177.84,72.98c-.39,.26-.65,.56-.79,.51-.23-.08-.47-.37-.53-.61-.03-.12,.35-.49,.52-.47,.23,.02,.44,.3,.8,.57Z"/><path class="w" d="M220.54,219.05v1.26l-.24,.1c-.13-.18-.33-.34-.36-.53-.06-.39-.02-.8,.6-.83Z"/><path class="w" d="M178.72,258.37c-.99,0-1.98,.01-2.97,0-1.4-.02-2.25-.76-2.37-2.13-.07-.79-.06-1.59,0-2.38,.08-1.11,1.1-2.11,2.33-2.15,2.02-.07,4.05-.07,6.07,0,1.17,.04,2.12,.91,2.24,2.1,.1,1,.02,2.06-.19,3.05-.23,1.06-.91,1.47-2,1.5-1.03,.02-2.06,0-3.09,0Zm-.2-5.24c.15,1.24-.55,1.67-1.59,1.92,1.15-.05,1.41,.76,1.79,1.49l.24-1.12c.42-.3,.97,.04,1.27-.61-1.34,.21-1.42-.71-1.72-1.67Z"/><path class="d" d="M139.21,255.56v-2.62h-2.11c-.02,.69-.04,1.35-.06,2.01-.01,.4-.13,.74-.6,.72-.45-.01-.57-.36-.58-.75,0-.04,0-.08,0-.12,0-.04,0-.08,0-.12q-.1-2.28,2.21-3.94c.61,.44,1.27,.87,1.88,1.37,.22,.18,.4,.52,.42,.8,.06,.67,.05,1.35,.01,2.02-.04,.69-.12,.72-1.16,.63Z"/><path class="d" d="M137.6,255.77v-2.49c.42,.16,.93,.23,.96,.39,.1,.56,.1,1.17,0,1.73-.03,.15-.55,.21-.96,.36Z"/><path class="w" d="M196.78,251.44c1.12,0,2.27,0,3.42,0,.53,0,.82,.24,.82,.78,0,.6,0,1.19,0,1.79,0,.55-.32,.77-.84,.77-.71,0-1.43-.02-2.14,0-.46,.02-.92,.13-1.38,.2-.24-1.05-.2-2.66,.12-3.54Z"/><path class="w" d="M160.22,253.07c.01,1.06-.82,1.94-1.82,1.93-.91,0-1.96-1-1.98-1.88-.02-.87,1-1.89,1.93-1.93,1.01-.05,1.86,.81,1.88,1.88Z"/><path class="w" d="M158.94,258.35l-.14,.15-.18-.22c.06-.03,.13-.09,.19-.08,.05,0,.08,.1,.12,.16Z"/><path class="w" d="M201.28,257.87l.21,.5-.18,.03-.03-.54h0Z"/><path class="d" d="M219.87,251.87c-.18,.48-.3,1-.85,.91-.28-.05-.66-.4-.7-.66-.04-.25,.24-.67,.49-.82,.5-.29,.78,.14,1.06,.57Z"/><path class="e" d="M108.54,161.49l1.05-1.01,1.06,1.02-1.06,1.04-1.05-1.05Z"/><path class="d" d="M68.62,255.47c-.2,.44,.11,.98-.51,1.53l-.21-1.56-1.51-.27c.4-.67,1.02-.22,1.49-.57l.21-1.43c.71,.39,.26,1.01,.54,1.5l1.47,.23c-.43,.67-1.06,.25-1.5,.58Z"/><path class="t" d="M170.83,205.16c-.43,.02-.83-.37-.85-.81-.01-.41,.39-.86,.79-.88,.38-.02,.83,.41,.85,.82,.02,.4-.39,.86-.79,.87Z"/><path class="i" d="M175.52,204.5l1.29,.07c-.67,.78-.69,.78-1.29-.07Z"/><path class="i" d="M176.78,203.84h-1.34c.47-.57,.81-.56,1.34,0Z"/><path class="t" d="M195.29,204.7v.07c-.52,.23-1.05,.8-1.64-.05,.57-.3,1.1-.25,1.64-.01Z"/><path class="i" d="M193.89,203.61c.32-.29,.63-.31,1.1,.24l-1.09,.06v-.3Z"/><path class="j" d="M197.18,205.01l-.08,.08s-.06-.1-.07-.15c0-.02,.04-.05,.07-.07l.08,.15Z"/><path class="p" d="M168.53,188.29c-.02,.47-.41,.86-.84,.79-.49-.07-.62-.44-.61-.86,.01-.43,.18-.77,.68-.79,.43-.02,.78,.39,.76,.86Z"/><path class="g" d="M183.82,187.77h-1.04c.43-.47,.71-.52,1.04,0Z"/><path class="g" d="M174.53,187.77h-1.07c.44-.46,.73-.52,1.07,0Z"/><path class="t" d="M195.87,188.48c-.16,.14-.39,.48-.7,.59-.4,.14-.79-.32-.76-.82,.02-.43,.19-.77,.67-.83,.39-.05,.78,.39,.79,1.06Z"/><path class="d" d="M192.46,188.6c-.17,.11-.44,.42-.75,.48-.42,.08-.72-.37-.69-.89,.03-.51,.39-.85,.82-.79,.38,.05,.7,.53,.62,1.2Z"/><path class="t" d="M188.23,187.41c.45,0,.65,.3,.69,.75,.05,.52-.24,.92-.68,.94-.5,.02-.7-.33-.78-.74-.08-.43,.31-.9,.76-.94Z"/><path class="g" d="M163.81,187.92q.7-.69,1.43-.11l-1.43,.11Z"/><path class="k" d="M220.06,162.18l-.81-.83-.3,.2,1.09-.81,.82,.85-.81,.6Z"/><path class="o" d="M178.52,253.13c.3,.96,.38,1.88,1.72,1.67-.31,.65-.85,.31-1.27,.61l-.24,1.12c-.38-.73-.64-1.54-1.79-1.49,1.04-.25,1.74-.67,1.59-1.92Z"/></svg>