<?xml version="1.0" encoding="UTF-8"?><svg xmlns="http://www.w3.org/2000/svg" viewBox="0 0 420 296.92"><defs><style>.d{fill:#37cbda;}.e{fill:#37cada;}.f{fill:#303030;}.g{fill:#232323;}.h{fill:#929292;}.i{fill:#272727;}.j{fill:#181818;}.k{fill:#171717;}.l{fill:#ebebeb;}.m{fill:#121212;}.n{fill:#161616;}.o{fill:#f1f1f1;}.p{fill:#1a1a1a;}.q{fill:#1e1e1e;}.r{fill:#b9b9b9;}</style></defs><g id="a"/><g id="b"><g id="c"><g><path class="q" d="M90.1,159.16V72.42h78.94v86.74H90.1Zm78.17-76.83c-2.07-.24-76.5-.14-77.32,.09v46.55h77.32v-46.65Zm0,76.05v-21.88H90.94v21.88h77.33Zm.03-85.07H90.86v8.05h77.43v-8.05Zm0,56.56H90.93v5.66h77.36v-5.66Z"/><path class="k" d="M7.97,159.15V72.07H86.92v87.08H7.97ZM86.11,88.54H8.77v48.32H86.11v-48.32ZM8.76,137.78v20.59H86.09c.24-2.49,.14-19.76-.11-20.59H8.76Zm77.38-58.26H8.72v8.08H86.13v-8.08Zm-.02-6.64H8.74v5.66H86.11v-5.66Z"/><path class="i" d="M86.9,243.94H7.76v-80.77H86.9v80.77Zm-.72-19.09c.26-4.79,.13-43.89-.13-44.8H8.63v44.8H86.18Zm0,.95c-3.81-.26-76.7-.14-77.54,.1v17.21H86.17v-17.32ZM8.6,179.1H86.12c.23-1.86,.16-14.34-.08-15.13H8.6v15.13Z"/><path class="j" d="M252.66,156.91h78.88v80.42c-.95,.26-74.26,.39-78.88,.13v-80.55Zm1.55,57.86c.04,.12,.08,.35,.13,.36,.39,.05,.79,.06,1.19,.06,7.5,0,15,0,22.5,0,17.12,0,34.24,0,51.35,0,.46,0,.93,0,1.4,0v-48.43h-77.4v.79c0,15.48,0,30.96,0,46.45,0,.24-.03,.49,.03,.71,.04,.16,.23,.4,.33,.39,.18-.02,.33-.21,.49-.32l-.03-.02Zm-.76,1.26v20.56h77.38v-20.56h-77.38Zm.05-58.32c-.22,1.7-.15,7.35,.07,8.17,4.26,.26,76.31,.13,77.24-.14v-8.03h-77.31Z"/><path class="p" d="M334.1,152.93V72.42h78.94v80.51h-78.94Zm.86-22.31h77.31v-48.35h-77.31v48.35Zm77.29,21.54c.24-2.64,.14-19.76-.11-20.61h-77.18v20.61h77.29Zm-77.34-70.8h77.42v-8.06h-77.42v8.06Z"/><path class="n" d="M90.09,243.92v-80.37h78.94v80.37H90.09Zm78.16-70.65H90.95v48.32c1.85,.25,76.51,.16,77.3-.08v-48.25Zm.02,49.26H90.93c-.25,2.7-.14,19.75,.13,20.58h77.21v-20.58Zm.05-58.27H90.9v8.03c1.61,.23,76.56,.16,77.42-.08v-7.96Z"/><path class="e" d="M140.36,23.49l.12-2.56h7.58c.24,.86,.33,20.28,.1,22.29h-7.68l-.12-2.49c-.22,.14-.4,.2-.51,.33-2.78,3.31-8.64,3.34-11.98,.23-1.83-1.69-2.83-3.83-3.29-6.24-.44-2.3-.38-4.61,.21-6.88,.74-2.86,2.26-5.17,4.93-6.6,3.19-1.71,7.94-1.28,10.2,1.59,.07,.08,.18,.13,.44,.31Zm-3.95,3.99c-1.86,0-3.29,1.02-3.82,2.81-.35,1.21-.35,2.44,.03,3.64,.56,1.78,2.01,2.79,3.87,2.76,1.77-.03,3.3-1.21,3.76-2.93,.29-1.09,.29-2.2,.01-3.3-.45-1.78-2.01-2.97-3.85-2.97Z"/><path class="d" d="M101.78,15.2c2.09,6.64,4.17,13.25,6.25,19.86l.2,.02c2.08-6.63,4.16-13.27,6.24-19.91h8.37c-3.25,9.42-6.46,18.75-9.68,28.1h-10.07c-3.22-9.31-6.44-18.6-9.65-27.89,.81-.31,5.72-.4,8.35-.17Z"/><path class="d" d="M16.17,15.2c2.08,6.59,4.14,13.15,6.2,19.71l.25,.02c1.12-3.24,2.07-6.54,3.1-9.8,1.05-3.3,2.07-6.61,3.11-9.95h8.15c-.02,.85-8.69,26.31-9.56,28.07h-9.97L7.76,15.2h8.41Z"/><path class="j" d="M250.32,235.8h-78.87v-80.58h78.8c.24,.84,.32,78.86,.07,80.58Zm-78.03-57.35v56.51c2.07,.24,76.49,.14,77.36-.1v-56.4h-77.36Zm-.02-.9h77.36v-12.4h-77.36v12.4Zm-.02-13.32h77.36v-8.09h-77.36v8.09Z"/><path class="q" d="M331.99,152.78h-79.04V72.42h78.96c.22,.78,.31,78.57,.08,80.36Zm-78.14-22.21h77.29v-48.36h-77.29v48.36Zm77.32,.93h-77.31v20.52h77.31v-20.52Zm-77.32-50.18h77.29v-8.14h-77.29v8.14Z"/><path class="d" d="M232.71,43.24h-7.79v-2.87c-.42,.39-.64,.59-.85,.8-2.5,2.39-5.47,2.83-8.66,1.92-3.07-.87-4.67-3.17-5.38-6.16-.18-.77-.27-1.58-.28-2.37-.03-4.31-.01-8.61-.01-12.92,0-.2,.03-.39,.04-.58,.84-.25,6.19-.31,7.71-.07,.02,.4,.06,.83,.06,1.26,0,3.39,0,6.78,0,10.17,0,.56,0,1.12,.1,1.67,.32,1.82,1.74,2.92,3.68,2.88,1.87-.04,3.21-1.17,3.48-2.98,.08-.55,.07-1.11,.08-1.67,0-3.35,0-6.7,0-10.05v-1.16c.88-.29,6.39-.34,7.81-.09v22.23Z"/><path class="e" d="M206.21,31.97c.06,3.41-.99,6.3-3.42,8.6-1.83,1.73-4.08,2.62-6.56,2.91-3.63,.41-6.99-.28-9.85-2.71-1.18-1-2.08-2.22-2.66-3.64-1.11-2.7-1.33-5.49-.58-8.32,1.1-4.1,3.77-6.64,7.83-7.76,2.24-.62,4.49-.61,6.74-.08,5.69,1.33,8.67,6.13,8.48,11Zm-7.86,.09c-.1-.6-.15-1.2-.3-1.77-.45-1.75-1.97-2.95-3.63-2.9-1.7,.05-3.25,1.39-3.5,3.21-.14,.98-.14,2,0,2.98,.25,1.88,1.7,3.16,3.45,3.23,1.66,.06,3.21-1.12,3.67-2.86,.16-.61,.21-1.25,.32-1.88Z"/><path class="q" d="M333.78,232v-45.44h78.96v45.44h-78.96Zm78-11.16v-33.52h-77.26v33.52h77.26Zm.03,.92h-38.22v9.42h38.22v-9.42Zm-77.32,9.41c4.8,.29,37.32,.14,38.25-.17v-9.26h-38.25v9.42Z"/><path class="d" d="M256.39,28.41h-6.92c-.07-.16-.15-.33-.23-.5-.68-1.44-2.36-2.1-3.83-1.51-.95,.39-1.16,1.49-.33,2.09,.47,.34,1.06,.55,1.63,.7,1.34,.37,2.73,.61,4.05,1.03,1.09,.35,2.19,.78,3.16,1.37,3.49,2.13,3.38,7.51,.31,9.87-1.5,1.15-3.19,1.78-5.05,2-3,.36-5.89,.04-8.56-1.48-1.95-1.11-3.33-2.7-3.91-4.91-.1-.38-.12-.77-.19-1.26h7.51c.42,1.26,1.3,2.06,2.66,2.17,.54,.04,1.12-.05,1.64-.2,.53-.16,.85-.6,.88-1.17,.02-.53-.27-.95-.75-1.12-1.05-.37-2.12-.68-3.19-.99-1.3-.37-2.64-.62-3.91-1.08-2.22-.8-3.72-2.31-4-4.75-.28-2.49,.56-4.55,2.54-6.1,1.46-1.14,3.17-1.68,4.97-1.87,2.12-.23,4.21-.09,6.25,.65,2.69,.98,5.09,3.68,5.25,7.08Z"/><path class="g" d="M171.83,72.39h79.01v80.52h-78.96c-.23-.78-.3-78.88-.05-80.52Zm.84,.92v78.88h77.29V73.31h-77.29Z"/><path class="e" d="M50.62,43.24h-8.01c0-1.8,0-3.57,0-5.35,0-1.83,0-3.67,0-5.5v-10.86h-3.85c-.3-.95-.38-5.11-.18-7.22,.82-.24,10.17-.32,12-.11,.23,.87,.27,27.77,.03,29.04Z"/><path class="e" d="M153.25,20.94h7.63v3.46l.17,.15c1.87-2.17,3.99-3.85,7.08-3.84v8.3c-.62,0-1.16-.05-1.7,.01-1.02,.11-2.06,.19-3.06,.44-1.23,.3-1.96,1.19-2.2,2.43-.14,.7-.21,1.42-.22,2.13-.03,2.67,0,5.34-.01,8.01,0,.39-.04,.77-.06,1.21h-7.64V20.94Z"/><path class="g" d="M334.1,182.63v-25.69h78.95v25.69h-78.95Zm.83-24.99v24.1h77.33v-24.1h-77.33Z"/><path class="e" d="M171.45,20.93h7.62v22.31h-7.62V20.93Z"/><path class="d" d="M81.21,26.25c0,1.99,0,3.9,0,5.81,0,.19-.05,.38-.09,.62h-17.86v-6.43h17.96Z"/><path class="d" d="M175.33,10.6c.84,.24,1.69,.35,2.42,.71,2.49,1.24,2.88,4.58,.8,6.42-1.73,1.53-4.91,1.5-6.6-.07-1.99-1.85-1.57-5.13,.87-6.33,.76-.37,1.65-.48,2.52-.72Z"/><path class="m" d="M254.24,214.78c-.11-.09-.31-.19-.31-.28-.02-2.66-.01-5.33-.01-8.04h33.84v8.24c-.19,.04-.41,.12-.63,.12-10.85,0-21.71,0-32.56,0-.12,0-.24-.03-.36-.04l.03,.02Zm.54-.81h32.16v-6.74h-32.16v6.74Z"/><path class="r" d="M168.26,173.27v48.25c-.79,.24-75.45,.33-77.3,.08v-48.32h77.3Zm-64.67,29.88c2.44,.27,53.06,.15,53.86-.1v-11.22h-53.86v11.32Z"/><path class="g" d="M135.02,152.65v3.42h-42.55c0-.81,0-1.56,0-2.31,0-.35,.03-.7,.06-1.11h42.49Zm-.8,.86h-40.79v1.75h40.79v-1.75Z"/><path class="m" d="M117.08,150.41h-24.59v-3.36h24.59v3.36Zm-.78-2.6h-22.91v1.8h22.91v-1.8Z"/><path class="q" d="M95.19,144.23c-1.51,.01-2.75-1.19-2.77-2.69-.03-1.54,1.25-2.84,2.78-2.82,1.48,.02,2.72,1.28,2.72,2.77,0,1.5-1.22,2.73-2.73,2.74Zm1.9-2.77c-.02-1.09-.92-1.93-2.01-1.89-1.03,.04-1.87,.92-1.86,1.94,.02,1.06,.96,1.95,2.03,1.9,1.03-.05,1.86-.92,1.84-1.95Z"/><path class="p" d="M106.67,141.55c-.03,1.51-1.25,2.7-2.76,2.68-1.52-.01-2.7-1.21-2.7-2.73,0-1.56,1.28-2.82,2.81-2.76,1.49,.05,2.68,1.31,2.65,2.81Zm-.81-.08c-.01-1.1-.9-1.94-2.01-1.9-1.05,.04-1.85,.89-1.84,1.94,.01,1.09,.92,1.95,2.01,1.91,1.04-.04,1.86-.91,1.84-1.96Z"/><path class="p" d="M164.04,144.23c-1.51,.01-2.73-1.18-2.76-2.69-.02-1.56,1.24-2.84,2.77-2.81,1.5,.03,2.7,1.26,2.7,2.76,0,1.51-1.2,2.72-2.71,2.73Zm-1.95-2.81c-.04,1.04,.76,1.93,1.79,2,1.08,.07,2.02-.78,2.06-1.86,.04-1.06-.75-1.93-1.79-1.99-1.11-.07-2.02,.74-2.06,1.84Z"/><path class="p" d="M112.35,144.23c-1.52,.01-2.73-1.16-2.75-2.69-.02-1.56,1.23-2.84,2.76-2.81,1.49,.02,2.71,1.27,2.71,2.76,0,1.51-1.21,2.72-2.72,2.73Zm.02-4.66c-1.1-.03-1.99,.84-1.99,1.93,0,1.03,.85,1.9,1.88,1.93,1.04,.03,1.92-.78,1.97-1.82,.05-1.11-.77-2.01-1.87-2.03Z"/><path class="n" d="M99.72,79.18v-3.5h22.66v3.5h-22.66Zm.76-.81h21.07v-1.92h-20.99c-.03,.2-.08,.35-.08,.5-.01,.44,0,.87,0,1.42Z"/><path class="q" d="M95.31,74.67c1.51,.03,2.69,1.25,2.68,2.78-.01,1.51-1.24,2.74-2.74,2.74-1.52,0-2.82-1.35-2.76-2.86,.06-1.49,1.33-2.69,2.82-2.66Zm-.03,.81c-1.03-.01-1.9,.82-1.94,1.86-.04,1.11,.8,1.99,1.89,2,1.09,0,1.98-.88,1.96-1.96-.02-1.01-.9-1.89-1.91-1.9Z"/><path class="g" d="M95.65,134.17v-3.39h64.06v3.39H95.65Zm63.15-2.58h-62.31v1.74h62.31v-1.74Z"/><path class="f" d="M93.04,134.44c.38-1.22,.07-2.36,.78-3.61,.14,.47,.25,.65,.24,.84-.02,.82-.45,1.58-.35,2.43,0,.06-.32,.17-.68,.35Z"/><path class="g" d="M52.89,152.69v3.26c-.87,.24-39.97,.34-42.49,.11v-3.29c.81-.24,40.23-.34,42.49-.08Zm-41.66,2.56H52.05c.02-.36,.05-.63,.05-.9,0-.27-.04-.53-.06-.83H11.22v1.73Z"/><path class="m" d="M10.32,150.38v-3.19c.93-.28,21.14-.39,24.58-.15v3.34H10.32Zm.82-.82c2.35,.26,22.21,.16,22.98-.09v-1.67H11.22c-.03,.2-.07,.35-.08,.51,0,.4,0,.79,0,1.25Z"/><path class="q" d="M79.21,141.89c0-1.51,1.2-2.74,2.69-2.77,1.54-.02,2.83,1.26,2.8,2.79-.03,1.48-1.29,2.72-2.77,2.71-1.49,0-2.72-1.24-2.73-2.74Zm.81-.19c-.1,1.01,.67,1.95,1.7,2.09,1.06,.14,2.05-.67,2.14-1.74,.09-1.09-.71-2.03-1.8-2.11-1-.07-1.94,.74-2.04,1.76Z"/><path class="q" d="M19.12,141.87c0-1.51,1.21-2.73,2.71-2.75,1.53-.02,2.83,1.29,2.79,2.81-.04,1.48-1.32,2.71-2.79,2.69-1.49-.02-2.71-1.26-2.71-2.76Zm4.66-.03c-.02-1.04-.87-1.9-1.9-1.92-1.05-.02-1.99,.92-1.97,1.98,.02,1.02,.9,1.89,1.91,1.91,1.07,.02,1.97-.89,1.95-1.97Z"/><path class="q" d="M30.25,139.12c1.49,0,2.75,1.23,2.78,2.71,.03,1.47-1.22,2.76-2.7,2.8-1.54,.04-2.82-1.23-2.81-2.78,.01-1.51,1.23-2.73,2.73-2.73Zm1.94,2.71c-.02-1.03-.89-1.9-1.91-1.9-1.05,0-1.99,.94-1.96,1.99,.02,1.01,.91,1.89,1.93,1.9,1.07,.01,1.97-.91,1.95-1.98Z"/><path class="q" d="M15.83,141.88c0,1.5-1.24,2.74-2.73,2.74-1.48,0-2.76-1.24-2.78-2.71-.03-1.52,1.28-2.82,2.81-2.8,1.5,.02,2.71,1.26,2.7,2.76Zm-.8-.02c0-1.05-.97-1.98-2.01-1.93-1.03,.04-1.86,.92-1.86,1.95,0,1.08,.93,1.97,2,1.93,1.02-.04,1.88-.94,1.88-1.95Z"/><path class="m" d="M17.54,85.4v-3.48h22.65v3.48H17.54Zm.75-.83c2.2,.24,20.31,.15,21.14-.08v-1.8H18.34c-.02,.3-.04,.53-.05,.76,0,.35,0,.7,0,1.12Z"/><path class="q" d="M13.13,80.9c1.5,.01,2.71,1.25,2.71,2.76,0,1.5-1.24,2.75-2.73,2.76-1.52,0-2.83-1.33-2.79-2.84,.04-1.49,1.31-2.69,2.81-2.68Zm1.91,2.72c-.02-1.01-.9-1.9-1.91-1.92-1.07-.02-1.98,.89-1.96,1.97,.01,1.1,.91,1.95,2.01,1.9,1.04-.05,1.87-.92,1.86-1.95Z"/><path class="g" d="M17.76,77.5v-3.42h63.95v3.42H17.76Zm.78-.87h62.36v-1.74H18.54v1.74Z"/><path class="f" d="M13.62,74.19c-.08,.65-.1,1.32-.27,1.95-.08,.29-.33,.51-.07,.83,.02,.02-.22,.25-.34,.38-.1-.14-.33-.33-.29-.4,.35-.75,.06-1.58,.32-2.33,.07-.2,.26-.36,.4-.54l.25,.12Z"/><path class="m" d="M35.15,227.92v3.37H10.47c0-.91,0-1.78,0-2.65,0-.23,.03-.46,.04-.73h24.64Zm-23.84,2.6h23.1c0-.33,0-.6,0-.87-.01-.31-.05-.61-.07-.92H11.31v1.79Z"/><path class="q" d="M50.06,238.84c0,1.5-1.19,2.74-2.69,2.77-1.55,.04-2.83-1.2-2.84-2.74-.01-1.54,1.26-2.8,2.81-2.78,1.49,.02,2.71,1.26,2.72,2.75Zm-2.77-1.94c-1.02,0-1.91,.87-1.95,1.9-.03,1.06,.9,2.02,1.96,2.01,1.06,0,1.99-.97,1.95-2.02-.04-1.02-.94-1.89-1.96-1.89Z"/><path class="q" d="M24.95,238.87c0,1.53-1.2,2.74-2.73,2.75-1.55,.01-2.83-1.29-2.79-2.83,.04-1.5,1.31-2.71,2.81-2.69,1.51,.02,2.71,1.26,2.7,2.77Zm-2.71-1.96c-1.03-.02-1.92,.81-1.96,1.85-.05,1.09,.82,2.03,1.9,2.05,1.01,.02,1.92-.84,1.98-1.86,.06-1.06-.83-2.02-1.91-2.04Z"/><path class="q" d="M71.86,241.62c-1.55-.03-2.75-1.3-2.7-2.87,.05-1.5,1.3-2.68,2.8-2.65,1.48,.03,2.72,1.28,2.72,2.76,0,1.53-1.29,2.79-2.83,2.76Zm1.99-2.74c.01-1.04-.82-1.92-1.86-1.97-1.06-.05-2.02,.86-2.03,1.93,0,1.06,.94,2,1.99,1.97,1.03-.02,1.89-.9,1.9-1.94Z"/><path class="h" d="M10.41,176.67c-.04-.47-.08-.78-.09-1.09-.01-.83,0-1.66,0-2.45,.95-.27,41.38-.34,42.87-.09v3.4s-.04,.06-.07,.09c-.03,.03-.06,.06-.09,.06-13.8,.03-27.6,.06-41.41,.08-.35,0-.71,0-1.21,0Z"/><path class="g" d="M40.43,166.36v3.54H17.73v-3.54h22.7Zm-.78,.86H18.54v1.82h21.11v-1.82Z"/><path class="p" d="M10.18,168.18c-.03-1.51,1.15-2.76,2.66-2.81,1.55-.05,2.85,1.21,2.84,2.76,0,1.5-1.24,2.75-2.73,2.77-1.5,.01-2.74-1.21-2.78-2.71Zm2.78-1.99c-1.1-.01-1.98,.86-1.96,1.96,.01,1.05,.85,1.88,1.9,1.9,1.11,.02,1.97-.84,1.96-1.96-.01-1.05-.85-1.89-1.9-1.9Z"/><path class="g" d="M254.87,229.97v-3.4h42.5v3.4h-42.5Zm41.7-2.6h-40.84v1.76h40.84v-1.76Z"/><path class="q" d="M272.22,220.15c-.02-1.54,1.13-2.76,2.66-2.79,1.57-.04,2.86,1.2,2.85,2.74,0,1.5-1.24,2.74-2.74,2.75-1.52,.01-2.74-1.18-2.76-2.7Zm2.71-1.99c-1.02,.01-1.9,.89-1.92,1.91-.02,1.08,.88,1.97,1.97,1.96,1.06-.01,1.88-.83,1.89-1.89,.02-1.1-.86-1.98-1.95-1.97Z"/><path class="p" d="M323.93,220.11c0-1.54,1.16-2.73,2.69-2.75,1.51-.02,2.76,1.17,2.8,2.66,.04,1.53-1.24,2.83-2.78,2.82-1.52-.01-2.71-1.21-2.72-2.74Zm4.65-.04c0-1.06-.84-1.9-1.88-1.92-1.08-.02-1.99,.88-1.98,1.96,.01,1.05,.85,1.88,1.9,1.9,1.11,.02,1.97-.83,1.96-1.95Z"/><path class="q" d="M263.83,220.12c-.01-1.54,1.15-2.74,2.68-2.76,1.57-.02,2.84,1.23,2.82,2.77-.02,1.49-1.27,2.72-2.77,2.72-1.51,0-2.71-1.2-2.73-2.73Zm4.64,0c.01-1.1-.86-1.98-1.95-1.96-1.02,.02-1.89,.88-1.9,1.91-.01,1.04,.81,1.91,1.85,1.95,1.11,.04,1.99-.78,2.01-1.89Z"/><path class="q" d="M260.54,220.12c-.01,1.51-1.24,2.73-2.74,2.73-1.55,0-2.81-1.29-2.76-2.84,.05-1.51,1.28-2.68,2.81-2.66,1.52,.02,2.71,1.23,2.69,2.76Zm-2.78,1.9c1.09,.02,1.99-.87,1.98-1.95-.01-1.02-.89-1.89-1.91-1.91-1.03-.02-1.91,.81-1.96,1.84-.05,1.09,.8,2,1.9,2.02Z"/><path class="f" d="M262.24,163.64v-3.4c.81-.26,21.08-.34,22.68-.08,.02,.17,.06,.36,.06,.55,0,.95,0,1.9,0,2.93h-22.74Zm21.87-2.67h-21v1.82h21v-1.82Z"/><path class="p" d="M260.53,161.86c0,1.51-1.22,2.76-2.72,2.76-1.5,0-2.75-1.23-2.76-2.73-.01-1.49,1.23-2.75,2.73-2.76,1.5-.01,2.75,1.23,2.76,2.73Zm-2.78,1.94c1.08,.02,2-.88,1.99-1.94-.01-1.02-.88-1.89-1.9-1.91-1.04-.02-1.92,.79-1.98,1.82-.06,1.08,.81,2,1.89,2.03Z"/><path class="l" d="M254.78,213.97v-6.74h32.16v6.74h-32.16Zm28.37-.58c1.51,.01,2.75-1.21,2.76-2.71,0-1.49-1.25-2.77-2.73-2.77-1.48,0-2.76,1.26-2.77,2.74-.01,1.49,1.22,2.73,2.73,2.74Zm-18.6,0c1.5-.03,2.71-1.29,2.67-2.79-.04-1.49-1.34-2.73-2.8-2.68-1.49,.05-2.71,1.33-2.68,2.82,.04,1.5,1.29,2.69,2.81,2.66Zm6.16,0c1.5,0,2.74-1.22,2.74-2.73,0-1.48-1.27-2.76-2.74-2.76-1.48,0-2.74,1.27-2.75,2.75,0,1.5,1.23,2.73,2.74,2.73Zm6.18,0c1.51,.02,2.76-1.18,2.78-2.68,.02-1.48-1.22-2.78-2.7-2.8-1.48-.02-2.76,1.23-2.79,2.71-.03,1.49,1.2,2.75,2.7,2.77Zm-21.73-2.78c-.03,1.52,1.16,2.75,2.67,2.78,1.52,.03,2.75-1.15,2.77-2.67,.03-1.51-1.17-2.77-2.66-2.8-1.48-.03-2.75,1.19-2.78,2.69Z"/><path class="g" d="M403.9,125.34v3.36h-63.98c-.22-1.07-.06-2.18-.1-3.26,.86-.26,62.16-.36,64.09-.1Zm-.88,.75h-62.29v1.76h62.29v-1.76Z"/><path class="f" d="M337.84,128.84c-.45,.04-.58-.1-.52-.48,.36-2.5,.35-2.5,1.02-2.67-.17,1.06-.33,2.08-.5,3.16Z"/><path class="g" d="M336.56,149.83v-3.42h42.48v3.42h-42.48Zm.85-.81h40.8v-1.77h-40.8v1.77Z"/><path class="m" d="M336.56,144.16v-3.35h24.59v3.35h-24.59Zm23.79-2.46c-.94-.26-22.03-.26-22.95-.01v1.63c1.73,.23,22.11,.16,22.95-.08v-1.54Z"/><path class="q" d="M408.1,132.88c1.51-.02,2.75,1.18,2.8,2.68,.04,1.52-1.25,2.84-2.78,2.83-1.48-.01-2.73-1.27-2.73-2.75,0-1.5,1.21-2.74,2.71-2.76Zm.07,.79c-1-.02-1.91,.84-1.96,1.86-.06,1.06,.84,2.01,1.91,2.02,1.02,.01,1.92-.83,1.97-1.85,.05-1.05-.86-2.02-1.91-2.03Z"/><path class="q" d="M348.04,132.88c1.51,0,2.74,1.2,2.76,2.71,.02,1.54-1.28,2.83-2.8,2.8-1.48-.03-2.72-1.3-2.7-2.79,.01-1.5,1.24-2.72,2.75-2.72Zm.05,4.68c1.02-.03,1.9-.91,1.9-1.92,0-1.05-.94-1.99-2-1.96-1.06,.02-1.95,.99-1.89,2.05,.06,1.03,.95,1.86,1.98,1.83Z"/><path class="q" d="M356.43,132.88c1.51-.01,2.74,1.19,2.77,2.7,.02,1.5-1.18,2.77-2.67,2.81-1.53,.04-2.85-1.25-2.84-2.77,0-1.49,1.24-2.72,2.75-2.73Zm0,.79c-1.07,0-1.97,.96-1.93,2.02,.04,1.03,.92,1.87,1.95,1.87,1.02,0,1.91-.87,1.94-1.89,.03-1.05-.91-2-1.96-2Z"/><path class="q" d="M339.24,132.88c1.5-.02,2.74,1.18,2.78,2.69,.03,1.5-1.16,2.77-2.65,2.82-1.51,.06-2.85-1.24-2.86-2.76,0-1.48,1.24-2.73,2.73-2.75Zm-.01,.8c-1.08,.04-1.92,.96-1.87,2.05,.05,1.03,.93,1.85,1.97,1.82,1.08-.03,1.94-.97,1.88-2.04-.06-1.02-.97-1.87-1.98-1.84Z"/><path class="g" d="M366.45,75.66c0,1.11,0,2.11,0,3.11,0,.11-.05,.23-.09,.41h-22.62v-3.51h22.72Zm-.85,.81h-20.98v1.84h20.98v-1.84Z"/><path class="q" d="M342.02,77.39c0,1.5-1.22,2.76-2.7,2.78-1.51,.02-2.84-1.3-2.81-2.82,.03-1.49,1.28-2.7,2.78-2.7,1.5,0,2.72,1.23,2.73,2.73Zm-2.73,1.93c1.05,0,1.89-.83,1.91-1.87,.02-1.07-.88-2-1.94-1.99-1.03,0-1.88,.86-1.9,1.9-.02,1.11,.82,1.97,1.93,1.96Z"/><path class="p" d="M103.59,203.15v-11.32h53.86v11.22c-.8,.25-51.42,.37-53.86,.1Zm53.03-10.48h-52.19v9.64h52.19v-9.64Z"/><path class="g" d="M92.54,240.81c-.02-.26-.06-.49-.06-.72,0-.87,0-1.74,0-2.69h42.54v3.41h-42.47Zm41.68-2.57h-40.89c0,.34-.01,.61,0,.88,.02,.3,.05,.61,.08,.87h40.8v-1.75Z"/><path class="m" d="M92.54,235.12v-3.34h24.54v3.34h-24.54Zm.83-.79h22.93v-1.76h-22.93v1.76Z"/><path class="q" d="M112.48,223.87c1.51,.03,2.71,1.26,2.69,2.77-.02,1.49-1.27,2.74-2.75,2.74-1.54,0-2.8-1.31-2.75-2.85,.05-1.51,1.29-2.68,2.81-2.65Zm1.89,2.79c.03-1.06-.89-2.01-1.95-2-1.02,0-1.9,.87-1.93,1.9-.03,1.04,.78,1.92,1.83,1.98,1.09,.06,2.02-.79,2.06-1.87Z"/><path class="q" d="M161.38,226.54c.03-1.52,1.25-2.7,2.77-2.68,1.51,.02,2.73,1.24,2.72,2.75,0,1.55-1.32,2.82-2.85,2.76-1.5-.06-2.67-1.31-2.65-2.83Zm4.67,.05c0-1.08-.93-1.98-2-1.94-1.02,.04-1.88,.94-1.88,1.95,0,1.08,.93,1.96,2.01,1.92,1.05-.03,1.87-.89,1.87-1.93Z"/><path class="q" d="M101.28,226.6c0-1.52,1.21-2.72,2.73-2.73,1.52-.01,2.75,1.18,2.78,2.69,.03,1.54-1.27,2.84-2.79,2.81-1.5-.02-2.71-1.27-2.71-2.77Zm4.69,.03c.01-1.07-.92-1.99-1.98-1.97-1.02,.02-1.9,.91-1.91,1.92-.01,1.08,.89,1.97,1.98,1.95,1.04-.02,1.89-.87,1.9-1.91Z"/><path class="q" d="M97.98,226.58c.01,1.52-1.17,2.76-2.68,2.79-1.52,.03-2.84-1.27-2.82-2.8,.02-1.49,1.26-2.71,2.77-2.71,1.53,0,2.72,1.18,2.73,2.71Zm-2.76,1.95c1.09,.01,1.98-.87,1.97-1.96-.02-1.02-.88-1.89-1.91-1.92-1.07-.02-1.96,.88-1.95,1.97,.01,1.06,.84,1.89,1.89,1.9Z"/><path class="g" d="M99.71,170.14v-3.37c.82-.24,20.89-.31,22.67-.08v3.45h-22.67Zm.85-.86h20.99v-1.82h-20.99v1.82Z"/><path class="q" d="M95.31,165.65c1.51,.02,2.69,1.24,2.68,2.76-.01,1.51-1.24,2.73-2.73,2.73-1.52,0-2.82-1.34-2.77-2.85,.06-1.49,1.32-2.67,2.82-2.65Zm-.11,4.65c1.09,.03,1.99-.84,2-1.92,0-1.01-.85-1.9-1.87-1.93-1.07-.04-1.98,.84-1.98,1.93,0,1.06,.81,1.89,1.85,1.92Z"/><path class="f" d="M175.86,232.87v-14.37c23.39,0,46.7,0,70.02,0,.23,.82,.3,12.62,.08,14.37h-70.1Zm.88-.87h68.4v-12.63h-68.4v12.63Z"/><path class="i" d="M199.96,181.37v3.38h-24.55v-3.29c.77-.24,22.69-.33,24.55-.09Zm-23.72,2.57c5,.24,21.96,.12,22.89-.15v-1.63h-22.89v1.78Z"/><path class="m" d="M199.96,188.72c.01,.24,.03,.43,.03,.62,0,.87,0,1.75,0,2.61-.89,.25-22.77,.33-24.58,.1v-3.33h24.54Zm-.8,.77h-22.91v1.8h22.91v-1.8Z"/><path class="m" d="M184.91,201.13v-3.2c.91-.27,21.22-.39,24.54-.14v3.34h-24.54Zm23.82-2.56h-23c-.02,.35-.05,.62-.04,.9,0,.3,.05,.6,.08,.88,2.94,.25,22.09,.14,22.96-.12v-1.65Z"/><path class="m" d="M184.91,211.89v-3.2c.9-.28,21.18-.4,24.54-.15v3.35h-24.54Zm23.79-2.54h-22.92v1.75h22.92v-1.75Z"/><path class="q" d="M175.6,212.84v-5.37h5.34c.24,.88,.07,1.79,.1,2.68,.03,.87,0,1.74,0,2.69h-5.45Zm.79-.78h3.81v-3.74h-3.81v3.74Z"/><path class="p" d="M180.98,202.09h-5.38v-5.45c1.77,0,3.54-.01,5.38,0v5.44Zm-.76-4.55h-3.82v3.75h3.82v-3.75Z"/><path class="g" d="M210.93,169.64v3.29c-.82,.24-23.02,.31-24.58,.06v-3.36h24.58Zm-23.79,2.59h22.96v-1.69c-1.52-.26-22.15-.18-22.96,.08v1.61Z"/><path class="g" d="M174.83,175.09v-8.03c.83-.24,6.14-.32,8.25-.12v8.07c-.79,.25-6.35,.32-8.25,.09Zm.81-.8h6.59v-6.56h-6.59v6.56Z"/><path class="m" d="M174.19,161.81v-3.36c.81-.23,21.05-.3,22.64-.07v3.43h-22.64Zm21.88-2.73h-21.03v1.95h21.03v-1.95Z"/><path class="q" d="M242.74,160.07c0-1.53,1.19-2.74,2.7-2.76,1.53-.02,2.83,1.28,2.8,2.81-.03,1.47-1.31,2.72-2.79,2.71-1.5-.01-2.71-1.24-2.71-2.76Zm4.65-.02c-.01-1.04-.85-1.9-1.88-1.93-1.06-.03-1.98,.89-1.97,1.96,0,1.03,.86,1.9,1.89,1.92,1.08,.02,1.97-.86,1.96-1.95Z"/><path class="m" d="M297.75,142.03v3.24c-.83,.23-40.24,.33-42.45,.09v-3.33h42.45Zm-41.7,2.57h40.86v-1.77h-40.86v1.77Z"/><path class="p" d="M278.08,135.56c0,1.51-1.22,2.73-2.72,2.73-1.5,0-2.74-1.2-2.77-2.7-.03-1.55,1.23-2.79,2.8-2.77,1.53,.02,2.7,1.21,2.7,2.74Zm-.8,0c0-1.04-.82-1.91-1.86-1.95-1.1-.04-1.99,.81-2,1.91,0,1.06,.79,1.9,1.85,1.94,1.1,.04,2-.81,2.01-1.91Z"/><path class="p" d="M258.23,132.82c1.51,.02,2.72,1.26,2.7,2.76-.02,1.49-1.26,2.72-2.75,2.72-1.56,0-2.77-1.26-2.73-2.83,.04-1.53,1.24-2.67,2.78-2.64Zm1.86,2.76c.02-1.1-.85-1.98-1.95-1.97-1.04,.01-1.89,.86-1.91,1.89-.02,1.08,.87,1.97,1.96,1.96,1.05-.01,1.88-.83,1.9-1.89Z"/><path class="p" d="M327.07,138.29c-1.5,.02-2.76-1.18-2.8-2.68-.05-1.53,1.22-2.8,2.78-2.8,1.52,0,2.72,1.2,2.72,2.72,0,1.51-1.2,2.74-2.7,2.75Zm-.04-4.68c-1.05,0-1.89,.82-1.92,1.87-.03,1.1,.82,1.98,1.93,1.98,1.04,0,1.91-.84,1.94-1.87,.03-1.07-.86-1.99-1.94-1.99Z"/><path class="j" d="M266.96,132.82c1.52,0,2.71,1.2,2.72,2.72,0,1.51-1.2,2.73-2.7,2.75-1.53,.02-2.83-1.28-2.8-2.8,.03-1.5,1.27-2.68,2.79-2.67Zm1.92,2.72c0-1.08-.92-1.95-2.01-1.92-1.05,.03-1.86,.88-1.86,1.94,0,1.06,.82,1.9,1.88,1.92,1.09,.02,2-.86,1.99-1.94Z"/><path class="g" d="M285.3,75.54v3.4c-.95,.26-18,.36-22.61,.14v-3.54h22.61Zm-.84,.89h-20.98v1.83h20.98v-1.83Z"/><path class="p" d="M258.15,80.05c-1.55-.01-2.71-1.2-2.7-2.75,.01-1.52,1.24-2.74,2.75-2.73,1.5,.01,2.74,1.28,2.73,2.77-.01,1.51-1.25,2.72-2.77,2.71Zm1.94-2.67c.03-1.06-.76-1.92-1.81-1.98-1.1-.06-2.02,.78-2.05,1.87-.03,1.08,.85,1.99,1.94,1.99,1.05,0,1.89-.82,1.91-1.88Z"/><path class="g" d="M336.4,210.38v-8.78h73.5v8.78h-73.5Zm72.71-.84v-7.11h-71.88v7.11h71.88Z"/><path class="m" d="M405.15,212.38c0,1.64,0,3.19,0,4.74,0,.15-.03,.3-.05,.5h-63.8v-5.24h63.86Zm-63.03,4.45h62.17v-3.67h-62.17v3.67Z"/><path class="q" d="M373.15,199.29c-2.82,0-5.1-2.27-5.11-5.08-.01-2.87,2.28-5.14,5.17-5.12,2.82,.02,5.09,2.32,5.07,5.12-.02,2.79-2.33,5.07-5.13,5.07Zm4.28-5.09c0-2.36-1.86-4.27-4.2-4.3-2.39-.03-4.36,1.89-4.37,4.28-.01,2.36,1.98,4.33,4.35,4.31,2.34-.03,4.22-1.93,4.23-4.28Z"/><path class="g" d="M245.82,82.27v4.45c-.8,.24-68.87,.33-70.57,.08v-4.53h70.57Zm-69.78,3.74h68.93v-2.88h-68.93v2.88Z"/><path class="g" d="M209.09,97.15h-24.51v-3.48h24.51v3.48Zm-.81-2.62h-22.9v1.76h22.9v-1.76Z"/><path class="g" d="M198.06,76.52v3.5h-22.73v-3.5h22.73Zm-21.81,2.66h20.98v-1.81h-20.98v1.81Z"/><path class="g" d="M184.6,107.86c-.03-.19-.08-.38-.08-.57,0-.91,0-1.83,0-2.82h24.59v3.39h-24.51Zm23.72-2.58h-22.9v1.74h22.9v-1.74Z"/><path class="g" d="M184.57,129.94v-3.41h24.53v3.41h-24.53Zm.79-.81h22.93v-1.7c-1.62-.25-22.12-.17-22.93,.07v1.63Z"/><path class="g" d="M209.1,115.75v3.48h-24.52v-3.48h24.52Zm-.81,.88h-22.9v1.76h22.9v-1.76Z"/><path class="k" d="M184.61,137.26h24.49c.11,1.15,.03,2.28,.05,3.46h-24.54v-3.46Zm.74,2.65h22.96c.02-.35,.05-.62,.04-.9,0-.3-.05-.6-.08-.91h-22.92v1.81Z"/><path class="p" d="M180.6,108.84h-5.34v-5.4h5.34v5.4Zm-4.55-4.6v3.76h3.75v-3.76h-3.75Z"/><path class="p" d="M175.28,136.25h5.33v5.42h-5.33v-5.42Zm.78,.79v3.81h3.72v-3.81h-3.72Z"/><path class="p" d="M180.62,98.1h-5.29c-.27-.88-.09-1.8-.13-2.69-.03-.87,0-1.75,0-2.7h5.42v5.39Zm-4.53-4.64v3.76h3.7v-3.76h-3.7Z"/><path class="m" d="M175.2,114.76h5.41v5.36h-5.4c0-.86,0-1.75,0-2.65,0-.87,0-1.75,0-2.72Zm4.66,4.61c-.02-1.34,.05-2.58-.05-3.8h-3.76v3.8h3.81Z"/><path class="n" d="M180.6,130.91h-5.34v-5.41h5.34v5.41Zm-4.58-.81h3.85c-.03-1.31,.06-2.56-.06-3.77h-3.79v3.77Z"/><path class="m" d="M336.06,163.49c-.02-.26-.04-.46-.04-.65,0-1.23,0-2.46,0-3.68,.9-.26,23.12-.34,25.04-.11v4.43h-25Zm24.25-3.71h-23.38v2.93h23.38v-2.93Z"/><path class="g" d="M405.77,167.87c2.79,0,5.1,2.31,5.12,5.11,.02,2.77-2.3,5.12-5.08,5.15-2.84,.03-5.21-2.34-5.18-5.16,.03-2.8,2.34-5.09,5.13-5.09Zm4.28,5.13c0-2.36-1.89-4.26-4.25-4.28-2.41-.02-4.34,1.92-4.31,4.33,.03,2.35,1.95,4.23,4.31,4.22,2.35-.01,4.26-1.93,4.26-4.27Z"/><path class="q" d="M376.16,173c0,2.79-2.3,5.11-5.09,5.12-2.79,.01-5.12-2.28-5.15-5.06-.03-2.84,2.32-5.19,5.16-5.18,2.79,.02,5.08,2.33,5.08,5.13Zm-5.06,4.28c2.34-.03,4.24-1.96,4.23-4.28-.01-2.4-1.95-4.31-4.35-4.28-2.4,.04-4.27,1.99-4.22,4.4,.06,2.34,1.99,4.2,4.34,4.16Z"/><path class="q" d="M387.46,173.04c-.02,2.8-2.31,5.08-5.11,5.08-2.8,0-5.08-2.29-5.09-5.1,0-2.87,2.33-5.18,5.17-5.14,2.8,.04,5.04,2.34,5.03,5.17Zm-5.04,4.24c2.33-.03,4.25-1.96,4.25-4.28,0-2.38-1.98-4.32-4.36-4.28-2.41,.03-4.27,1.98-4.22,4.4,.05,2.34,1.98,4.19,4.33,4.16Z"/><path class="q" d="M342.13,178.12c-2.78,.03-5.12-2.25-5.17-5.04-.05-2.78,2.22-5.14,5.01-5.2,2.83-.07,5.21,2.26,5.23,5.1,.02,2.79-2.27,5.11-5.07,5.14Zm-.03-9.4c-2.35-.02-4.25,1.84-4.3,4.2-.05,2.4,1.87,4.36,4.26,4.36,2.35,0,4.26-1.86,4.31-4.2,.05-2.39-1.86-4.34-4.27-4.36Z"/><path class="q" d="M399.17,173.12c-.05,2.78-2.41,5.05-5.2,5-2.78-.05-5.09-2.42-5.04-5.18,.05-2.81,2.37-5.08,5.16-5.06,2.85,.02,5.13,2.37,5.08,5.24Zm-5.14,4.16c2.33,.02,4.27-1.85,4.33-4.19,.06-2.37-1.88-4.36-4.26-4.38-2.36-.02-4.26,1.83-4.31,4.19-.05,2.41,1.84,4.36,4.24,4.38Z"/><path class="q" d="M361.61,173.01c0,2.81-2.27,5.1-5.07,5.11-2.8,.01-5.1-2.27-5.13-5.07-.03-2.86,2.3-5.2,5.14-5.18,2.81,.02,5.05,2.3,5.05,5.13Zm-5.08,4.27c2.33,0,4.26-1.91,4.29-4.23,.02-2.38-1.93-4.34-4.31-4.33-2.41,.01-4.3,1.93-4.27,4.35,.03,2.34,1.94,4.21,4.29,4.21Z"/><path class="q" d="M408.11,164.52c-1.5,0-2.72-1.23-2.73-2.73,0-1.54,1.29-2.82,2.82-2.78,1.47,.04,2.72,1.34,2.69,2.8-.03,1.48-1.29,2.71-2.78,2.7Zm1.93-2.65c.06-1.04-.73-1.93-1.78-2.01-1.07-.09-2.04,.76-2.09,1.82-.06,1.05,.85,2.01,1.91,2.04,1.01,.02,1.91-.82,1.96-1.85Z"/><path class="q" d="M400.43,164.52c-1.5-.03-2.71-1.26-2.7-2.76,0-1.53,1.33-2.81,2.85-2.74,1.48,.06,2.69,1.36,2.65,2.83-.04,1.49-1.3,2.7-2.8,2.67Zm1.98-2.79c-.03-1.02-.9-1.88-1.93-1.89-1.07,0-1.99,.92-1.96,1.98,.03,1.01,.92,1.89,1.93,1.9,1.05,.01,1.98-.94,1.95-1.99Z"/><path class="q" d="M390.48,161.75c.01-1.51,1.23-2.73,2.72-2.74,1.52,0,2.81,1.32,2.77,2.84-.05,1.49-1.32,2.69-2.8,2.67-1.51-.03-2.7-1.25-2.68-2.77Zm4.64,.2c.09-1.1-.71-2.03-1.8-2.1-1.03-.06-1.95,.72-2.04,1.75-.1,1.05,.75,2.04,1.81,2.12,1,.07,1.94-.75,2.03-1.77Z"/><path class="f" d="M402.65,180.15v-1.53h6.21v1.53h-6.21Zm5.93-.45c-.2-.33-.3-.65-.41-.65-1.58-.04-3.17-.05-4.76-.02-.14,0-.27,.33-.54,.68h5.7Z"/><path class="f" d="M374.16,178.61v1.54h-6.17v-1.54h6.17Zm-.55,1.09l.2-.24c-.16-.16-.31-.44-.47-.45-1.51-.04-3.02-.03-4.53-.02-.42,0-.55,.25-.36,.7h5.17Z"/><path class="f" d="M338.99,180.15v-1.54h6.16v1.54h-6.16Zm.51-.45h5.16c.19-.4,.15-.7-.3-.7-1.51-.02-3.02-.02-4.53,0-.43,0-.53,.27-.33,.71Z"/><path class="f" d="M390.99,180.16v-1.56h6.16c.03,.29,.07,.55,.08,.81,0,.23-.04,.46-.07,.75h-6.17Zm5.64-.4l.19-.27c-.15-.17-.29-.47-.44-.48-1.5-.04-3.01-.03-4.51,0-.16,0-.32,.25-.48,.38,.17,.12,.33,.35,.5,.35,1.58,.03,3.16,.02,4.74,.02Z"/><path class="n" d="M349.14,178.05v-10.32c.33,.23,.56,.32,.66,.49,.09,.15,.03,.39,.03,.59,0,2.83,0,5.65,0,8.48,0,.4,.13,.95-.69,.76Z"/><path class="f" d="M385.44,180.16h-6.14v-1.56h6.14v1.56Zm-5.66-.44h5.25l-.07-.76c-1.62,0-3.16,0-4.7,0-.55,0-.69,.23-.48,.76Z"/><path class="f" d="M353.44,180.14v-1.51h6.18v1.51h-6.18Zm5.67-.42c.12-.38,.17-.73-.31-.73-1.51-.02-3.02-.02-4.54,0-.45,0-.49,.31-.31,.73h5.16Z"/><path class="o" d="M134.22,153.51v1.75h-40.79v-1.75h40.79Z"/><path class="l" d="M100.48,78.37c0-.55,0-.98,0-1.42,0-.15,.05-.3,.08-.5h20.99v1.92h-21.07Z"/><path class="o" d="M11.22,155.24v-1.73H52.04c.02,.3,.06,.56,.06,.83,0,.27-.03,.55-.05,.9H11.22Z"/><path class="l" d="M18.29,84.57c0-.41,0-.77,0-1.12,0-.23,.03-.46,.05-.76h21.09v1.8c-.83,.24-18.93,.33-21.14,.08Z"/><path class="o" d="M18.54,76.63v-1.74h62.36v1.74H18.54Z"/><path class="o" d="M47.29,236.9c1.02,0,1.92,.86,1.96,1.89,.04,1.06-.89,2.02-1.95,2.02-1.06,0-1.99-.95-1.96-2.01,.03-1.03,.92-1.9,1.95-1.9Z"/><path class="q" d="M283.15,213.39c-1.51-.01-2.75-1.25-2.73-2.74,.01-1.48,1.29-2.74,2.77-2.74,1.47,0,2.73,1.28,2.73,2.77,0,1.5-1.25,2.73-2.76,2.71Zm.05-.79c1.01-.02,1.89-.9,1.91-1.91,.02-1.07-.9-1.97-1.98-1.95-1.04,.02-1.89,.87-1.91,1.9-.01,1.06,.91,1.98,1.97,1.96Z"/><path class="q" d="M264.55,213.39c-1.52,.03-2.77-1.16-2.81-2.66-.04-1.48,1.18-2.77,2.68-2.82,1.47-.05,2.77,1.2,2.8,2.68,.04,1.51-1.17,2.77-2.67,2.79Zm1.88-2.75c-.02-1.03-.88-1.88-1.91-1.89-1.09-.02-1.98,.87-1.96,1.95,.02,1.07,.96,1.96,2.02,1.91,1.01-.05,1.87-.96,1.86-1.96Z"/><path class="q" d="M270.71,213.39c-1.51,0-2.75-1.24-2.74-2.73,0-1.48,1.27-2.75,2.75-2.75,1.47,0,2.74,1.27,2.74,2.76,0,1.5-1.24,2.73-2.74,2.73Zm.02-4.65c-1.09,0-1.98,.89-1.95,1.96,.02,1.02,.89,1.88,1.92,1.9,1.05,.01,1.99-.93,1.96-1.98-.02-1.03-.89-1.87-1.93-1.88Z"/><path class="q" d="M276.9,213.39c-1.51-.02-2.73-1.28-2.7-2.77,.03-1.48,1.31-2.73,2.79-2.71,1.48,.02,2.72,1.31,2.7,2.8-.02,1.5-1.28,2.71-2.78,2.68Zm.08-.79c1.01-.02,1.89-.9,1.91-1.91,.02-1.07-.9-1.97-1.98-1.94-1.04,.02-1.89,.87-1.9,1.9-.01,1.06,.91,1.98,1.97,1.96Z"/><path class="p" d="M255.16,210.6c.03-1.5,1.29-2.72,2.78-2.69,1.49,.03,2.69,1.29,2.66,2.8-.03,1.52-1.26,2.7-2.77,2.67-1.51-.03-2.7-1.26-2.67-2.78Zm4.65,0c-.02-1.04-.87-1.87-1.92-1.87-1.1,0-1.96,.87-1.93,1.97,.02,1.04,.88,1.88,1.91,1.89,1.07,0,1.96-.91,1.94-1.99Z"/><path class="o" d="M337.41,149.02v-1.77h40.8v1.77h-40.8Z"/><path class="r" d="M156.62,192.67v9.64h-52.19v-9.64h52.19Z"/><path class="o" d="M134.22,238.24v1.75h-40.8c-.02-.27-.06-.57-.08-.87-.01-.27,0-.54,0-.88h40.89Z"/><path class="o" d="M176.24,183.94v-1.78h22.89v1.63c-.92,.27-17.89,.4-22.89,.15Z"/><path class="o" d="M176.39,212.06v-3.74h3.81v3.74h-3.81Z"/><path class="o" d="M180.22,197.54v3.75h-3.82v-3.75h3.82Z"/><path class="o" d="M187.14,172.22v-1.61c.81-.26,21.44-.34,22.96-.08v1.69h-22.96Z"/><path class="l" d="M196.07,159.08v1.95h-21.03v-1.95h21.03Z"/><path class="o" d="M208.29,94.53v1.76h-22.9v-1.76h22.9Z"/><path class="o" d="M208.31,105.28v1.74h-22.9v-1.74h22.9Z"/><path class="o" d="M185.36,129.14c0-.6,0-1.12,0-1.63,.81-.25,21.31-.32,22.93-.07v1.7h-22.93Z"/><path class="l" d="M185.35,139.91v-1.81h22.92c.03,.3,.07,.61,.08,.91,0,.28-.02,.55-.04,.9h-22.96Z"/><path class="l" d="M379.78,179.72c-.21-.52-.07-.76,.48-.76,1.54,0,3.08,0,4.7,0l.07,.76h-5.25Z"/><path class="l" d="M359.11,179.72h-5.16c-.18-.42-.14-.73,.31-.73,1.51-.02,3.02-.02,4.54,0,.49,0,.43,.35,.31,.73Z"/><path class="f" d="M373.56,192.53c-.2,1.09-.39,2.09-.6,3.19-.37-.5-.39-1.14-.15-2.57,.05-.3,.02-.66,.74-.62Z"/></g></g></g></svg>