<?xml version="1.0" encoding="UTF-8"?><svg id="a" xmlns="http://www.w3.org/2000/svg" viewBox="0 0 701.03 148.92"><defs><style>.b{fill:#00848d;}.c{fill:#0072ff;}.d{fill:#782ba1;}.e{fill:#81358a;}.f{fill:#35cada;}.g{fill:#2b0054;}</style></defs><circle class="e" cx="50" cy="54.7" r="50"/><g><path class="d" d="M15.64,133.43l-.75,3.39h2.9v2.75h-3.52l-.82,3.74h-3.04l.82-3.74H7.07l-.82,3.74H3.22l.82-3.74H.59v-2.75H4.66l.75-3.39H1.99v-2.75H6.04l.8-3.65h3.02l-.8,3.65h4.16l.8-3.65h3.04l-.8,3.65h2.93v2.75h-3.54Zm-3.04,0h-4.16l-.75,3.39h4.16l.75-3.39Z"/><path class="d" d="M32.11,129.6l-6.08,13.71h-3.25l6.13-13.35h-7.82v-2.64h11.02v2.29Z"/><path class="d" d="M34.53,131.27c0-.79,.21-1.51,.63-2.17,.42-.65,1.05-1.17,1.9-1.56,.85-.39,1.88-.58,3.1-.58s2.25,.19,3.1,.58c.85,.39,1.48,.91,1.9,1.56,.42,.65,.63,1.38,.63,2.17s-.21,1.51-.62,2.12c-.41,.61-.96,1.08-1.65,1.42,.84,.35,1.49,.87,1.97,1.54,.47,.67,.71,1.47,.71,2.4,0,1-.26,1.87-.79,2.61-.53,.74-1.25,1.31-2.16,1.71-.91,.4-1.94,.59-3.09,.59s-2.17-.2-3.08-.59c-.91-.4-1.62-.96-2.15-1.71-.53-.74-.79-1.61-.79-2.61,0-.92,.24-1.73,.71-2.41s1.13-1.19,1.97-1.53c-1.52-.76-2.29-1.94-2.29-3.54Zm3.51,5.52c-.54,.42-.81,1.03-.81,1.83,0,.73,.26,1.33,.79,1.79,.53,.46,1.24,.69,2.14,.69s1.61-.23,2.13-.7c.52-.47,.78-1.06,.78-1.78,0-.78-.27-1.38-.8-1.82s-1.23-.65-2.1-.65-1.57,.21-2.12,.64Zm3.96-6.75c-.45-.4-1.06-.59-1.84-.59s-1.37,.2-1.82,.59c-.45,.4-.67,.96-.67,1.69,0,.66,.23,1.19,.7,1.58,.46,.4,1.06,.59,1.8,.59s1.33-.2,1.81-.61,.71-.93,.71-1.59c0-.72-.23-1.28-.67-1.67Z"/><path class="d" d="M49.74,139.83c1.46-1.17,2.63-2.15,3.5-2.94,.87-.78,1.59-1.6,2.17-2.45,.58-.85,.87-1.69,.87-2.51,0-.75-.18-1.33-.55-1.76-.37-.43-.93-.64-1.69-.64s-1.35,.25-1.76,.74c-.41,.49-.62,1.16-.64,2.01h-3.11c.06-1.76,.61-3.09,1.63-4,1.03-.91,2.34-1.36,3.92-1.36,1.74,0,3.07,.44,4,1.33,.93,.89,1.4,2.06,1.4,3.51,0,1.14-.32,2.24-.96,3.28-.64,1.04-1.37,1.95-2.2,2.72-.82,.77-1.9,1.7-3.22,2.78h6.75v2.55h-11.3v-2.29l1.19-.97Z"/><path class="d" d="M73.5,136.73c.58,.7,.87,1.51,.87,2.42,0,.82-.21,1.54-.63,2.17-.42,.62-1.03,1.11-1.82,1.46-.79,.35-1.73,.53-2.81,.53h-6.88v-15.36h6.59c1.08,0,2.02,.17,2.8,.51,.78,.34,1.38,.81,1.78,1.41,.4,.6,.61,1.28,.61,2.05,0,.9-.25,1.64-.74,2.24-.5,.6-1.15,1.03-1.98,1.28,.9,.16,1.64,.59,2.22,1.3Zm-8.07-2.44h2.93c.76,0,1.35-.17,1.76-.5s.62-.8,.62-1.42-.21-1.09-.62-1.43c-.41-.34-1-.51-1.76-.51h-2.93v3.85Zm5.04,5.98c.43-.35,.65-.85,.65-1.5s-.23-1.18-.69-1.55c-.46-.37-1.07-.56-1.85-.56h-3.16v4.14h3.22c.78,0,1.38-.18,1.82-.53Z"/><path class="d" d="M86.71,140.38h-6.36l-1.05,2.93h-3.36l5.74-15.38h3.73l5.74,15.38h-3.38l-1.05-2.93Zm-.87-2.46l-2.31-6.42-2.31,6.42h4.62Z"/><path class="d" d="M92.54,130.11v-2.84h5.51v16.04h-3.29v-13.2h-2.22Z"/></g><circle class="g" cx="195" cy="54.7" r="50"/><g><path class="g" d="M156.89,133.43l-.75,3.39h2.9v2.75h-3.52l-.82,3.74h-3.04l.82-3.74h-4.16l-.82,3.74h-3.02l.82-3.74h-3.45v-2.75h4.07l.75-3.39h-3.43v-2.75h4.05l.8-3.65h3.02l-.8,3.65h4.16l.8-3.65h3.04l-.8,3.65h2.93v2.75h-3.54Zm-3.04,0h-4.16l-.75,3.39h4.16l.75-3.39Z"/><path class="g" d="M163.75,139.83c1.46-1.17,2.63-2.15,3.5-2.94,.87-.78,1.59-1.6,2.17-2.45,.58-.85,.87-1.69,.87-2.51,0-.75-.18-1.33-.55-1.76-.37-.43-.93-.64-1.69-.64s-1.35,.25-1.76,.74c-.41,.49-.62,1.16-.64,2.01h-3.11c.06-1.76,.61-3.09,1.63-4,1.03-.91,2.34-1.36,3.92-1.36,1.74,0,3.07,.44,4,1.33,.93,.89,1.4,2.06,1.4,3.51,0,1.14-.32,2.24-.96,3.28-.64,1.04-1.37,1.95-2.2,2.72-.82,.77-1.9,1.7-3.22,2.78h6.75v2.55h-11.3v-2.29l1.19-.97Z"/><path class="g" d="M187.51,136.73c.58,.7,.87,1.51,.87,2.42,0,.82-.21,1.54-.63,2.17-.42,.62-1.03,1.11-1.82,1.46-.79,.35-1.73,.53-2.81,.53h-6.88v-15.36h6.59c1.08,0,2.02,.17,2.8,.51,.78,.34,1.38,.81,1.78,1.41,.4,.6,.61,1.28,.61,2.05,0,.9-.25,1.64-.74,2.24-.5,.6-1.15,1.03-1.98,1.28,.9,.16,1.64,.59,2.22,1.3Zm-8.07-2.44h2.93c.76,0,1.35-.17,1.76-.5s.62-.8,.62-1.42-.21-1.09-.62-1.43c-.41-.34-1-.51-1.76-.51h-2.93v3.85Zm5.04,5.98c.43-.35,.65-.85,.65-1.5s-.23-1.18-.69-1.55c-.46-.37-1.07-.56-1.85-.56h-3.16v4.14h3.22c.78,0,1.38-.18,1.82-.53Z"/><path class="g" d="M192,129.12c.95-1.44,2.53-2.16,4.75-2.16s3.79,.72,4.75,2.16c.95,1.44,1.43,3.42,1.43,5.96s-.48,4.55-1.43,6.01-2.53,2.18-4.75,2.18-3.79-.73-4.75-2.18-1.43-3.45-1.43-6.01,.48-4.52,1.43-5.96Zm7.55,3.22c-.15-.74-.43-1.35-.87-1.82-.43-.47-1.08-.7-1.93-.7s-1.5,.24-1.93,.7c-.43,.47-.72,1.08-.87,1.82-.15,.74-.22,1.65-.22,2.74s.07,2.05,.21,2.8c.14,.76,.43,1.36,.87,1.83s1.09,.69,1.94,.69,1.5-.23,1.94-.69c.44-.46,.73-1.07,.87-1.83,.14-.75,.21-1.69,.21-2.8s-.07-2-.22-2.74Z"/><path class="g" d="M206.78,129.12c.95-1.44,2.53-2.16,4.75-2.16s3.79,.72,4.75,2.16c.95,1.44,1.43,3.42,1.43,5.96s-.48,4.55-1.43,6.01-2.53,2.18-4.75,2.18-3.79-.73-4.75-2.18-1.43-3.45-1.43-6.01,.48-4.52,1.43-5.96Zm7.55,3.22c-.15-.74-.43-1.35-.87-1.82-.43-.47-1.08-.7-1.93-.7s-1.5,.24-1.93,.7c-.43,.47-.72,1.08-.87,1.82-.15,.74-.22,1.65-.22,2.74s.07,2.05,.21,2.8c.14,.76,.43,1.36,.87,1.83s1.09,.69,1.94,.69,1.5-.23,1.94-.69c.44-.46,.73-1.07,.87-1.83,.14-.75,.21-1.69,.21-2.8s-.07-2-.22-2.74Z"/><path class="g" d="M231.33,129.93h-7.41v3.76c.32-.38,.78-.69,1.37-.93,.59-.24,1.23-.36,1.9-.36,1.22,0,2.22,.26,3,.77,.78,.51,1.34,1.17,1.69,1.97,.35,.8,.53,1.65,.53,2.56,0,1.69-.5,3.04-1.5,4.07s-2.42,1.54-4.26,1.54c-1.74,0-3.13-.42-4.16-1.25-1.04-.84-1.62-1.93-1.76-3.28h3.11c.14,.59,.45,1.06,.93,1.41,.48,.35,1.09,.53,1.84,.53,.9,0,1.58-.27,2.04-.81,.46-.54,.69-1.26,.69-2.16s-.23-1.6-.7-2.08c-.47-.48-1.15-.72-2.05-.72-.64,0-1.17,.15-1.6,.46-.43,.31-.73,.72-.91,1.23h-3.06v-9.42h10.34v2.71Z"/><path class="g" d="M234.71,140.18v-2.42l7.48-10.3h3.73v10.03h2.01v2.68h-2.01v3.12h-3.2v-3.12h-8Zm8.21-9.42l-4.69,6.73h4.69v-6.73Z"/></g><circle class="c" cx="340" cy="54.7" r="50"/><g><path class="c" d="M305.78,133.43l-.75,3.39h2.9v2.75h-3.52l-.82,3.74h-3.04l.82-3.74h-4.16l-.82,3.74h-3.02l.82-3.74h-3.45v-2.75h4.07l.75-3.39h-3.43v-2.75h4.05l.8-3.65h3.02l-.8,3.65h4.16l.8-3.65h3.04l-.8,3.65h2.93v2.75h-3.54Zm-3.04,0h-4.16l-.75,3.39h4.16l.75-3.39Z"/><path class="c" d="M313.06,129.12c.95-1.44,2.53-2.16,4.75-2.16s3.79,.72,4.75,2.16c.95,1.44,1.43,3.42,1.43,5.96s-.48,4.55-1.43,6.01-2.53,2.18-4.75,2.18-3.79-.73-4.75-2.18-1.43-3.45-1.43-6.01,.48-4.52,1.43-5.96Zm7.55,3.22c-.15-.74-.43-1.35-.87-1.82-.43-.47-1.08-.7-1.93-.7s-1.5,.24-1.93,.7c-.43,.47-.72,1.08-.87,1.82-.15,.74-.22,1.65-.22,2.74s.07,2.05,.21,2.8c.14,.76,.43,1.36,.87,1.83s1.09,.69,1.94,.69,1.5-.23,1.94-.69c.44-.46,.73-1.07,.87-1.83,.14-.75,.21-1.69,.21-2.8s-.07-2-.22-2.74Z"/><path class="c" d="M327.83,129.12c.95-1.44,2.53-2.16,4.75-2.16s3.79,.72,4.75,2.16c.95,1.44,1.43,3.42,1.43,5.96s-.48,4.55-1.43,6.01-2.53,2.18-4.75,2.18-3.79-.73-4.75-2.18-1.43-3.45-1.43-6.01,.48-4.52,1.43-5.96Zm7.55,3.22c-.15-.74-.43-1.35-.87-1.82-.43-.47-1.08-.7-1.93-.7s-1.5,.24-1.93,.7c-.43,.47-.72,1.08-.87,1.82-.15,.74-.22,1.65-.22,2.74s.07,2.05,.21,2.8c.14,.76,.43,1.36,.87,1.83s1.09,.69,1.94,.69,1.5-.23,1.94-.69c.44-.46,.73-1.07,.87-1.83,.14-.75,.21-1.69,.21-2.8s-.07-2-.22-2.74Z"/><path class="c" d="M351.79,129.6l-6.08,13.71h-3.25l6.13-13.35h-7.82v-2.64h11.02v2.29Z"/><path class="c" d="M354.72,139.83c1.46-1.17,2.63-2.15,3.5-2.94,.87-.78,1.59-1.6,2.17-2.45,.58-.85,.87-1.69,.87-2.51,0-.75-.18-1.33-.55-1.76-.37-.43-.93-.64-1.69-.64s-1.35,.25-1.76,.74c-.41,.49-.62,1.16-.64,2.01h-3.11c.06-1.76,.61-3.09,1.63-4,1.03-.91,2.34-1.36,3.92-1.36,1.74,0,3.07,.44,4,1.33,.93,.89,1.4,2.06,1.4,3.51,0,1.14-.32,2.24-.96,3.28-.64,1.04-1.37,1.95-2.2,2.72-.82,.77-1.9,1.7-3.22,2.78h6.75v2.55h-11.3v-2.29l1.19-.97Z"/><path class="c" d="M377.06,127.95v2.49h-6.65v3.94h5.1v2.44h-5.1v6.49h-3.2v-15.36h9.86Z"/><path class="c" d="M389.18,127.95v2.49h-6.65v3.94h5.1v2.44h-5.1v6.49h-3.2v-15.36h9.86Z"/></g><circle class="f" cx="485" cy="54.7" r="50"/><g><path class="f" d="M442.93,133.43l-.75,3.39h2.9v2.75h-3.52l-.82,3.74h-3.04l.82-3.74h-4.16l-.82,3.74h-3.02l.82-3.74h-3.45v-2.75h4.07l.75-3.39h-3.43v-2.75h4.05l.8-3.65h3.02l-.8,3.65h4.16l.8-3.65h3.04l-.8,3.65h2.93v2.75h-3.54Zm-3.04,0h-4.16l-.75,3.39h4.16l.75-3.39Z"/><path class="f" d="M450.45,128.09c1-.8,2.31-1.2,3.94-1.2,1.11,0,2.07,.19,2.86,.56,.79,.37,1.39,.88,1.79,1.52,.4,.64,.61,1.36,.61,2.17,0,.92-.25,1.71-.74,2.34-.5,.64-1.09,1.07-1.77,1.29v.09c.88,.26,1.57,.73,2.07,1.41,.5,.67,.74,1.54,.74,2.6,0,.88-.21,1.67-.63,2.35-.42,.69-1.04,1.23-1.85,1.62-.82,.39-1.8,.58-2.94,.58-1.72,0-3.12-.42-4.21-1.25-1.08-.84-1.65-2.07-1.71-3.7h3.11c.03,.72,.29,1.29,.77,1.73,.48,.43,1.14,.65,1.98,.65,.78,0,1.38-.21,1.79-.63s.63-.96,.63-1.62c0-.88-.29-1.51-.87-1.89-.58-.38-1.48-.57-2.7-.57h-.66v-2.53h.66c2.16,0,3.25-.7,3.25-2.09,0-.63-.19-1.12-.58-1.47-.39-.35-.95-.53-1.68-.53s-1.27,.19-1.66,.56c-.39,.37-.61,.85-.67,1.42h-3.13c.08-1.47,.61-2.6,1.61-3.4Z"/><path class="f" d="M473.69,129.93h-7.41v3.76c.32-.38,.78-.69,1.37-.93,.59-.24,1.23-.36,1.9-.36,1.22,0,2.22,.26,3,.77,.78,.51,1.34,1.17,1.69,1.97,.35,.8,.53,1.65,.53,2.56,0,1.69-.5,3.04-1.5,4.07s-2.42,1.54-4.26,1.54c-1.74,0-3.13-.42-4.16-1.25-1.04-.84-1.62-1.93-1.76-3.28h3.11c.14,.59,.45,1.06,.93,1.41,.48,.35,1.09,.53,1.84,.53,.9,0,1.58-.27,2.04-.81,.46-.54,.69-1.26,.69-2.16s-.23-1.6-.7-2.08c-.47-.48-1.15-.72-2.05-.72-.64,0-1.17,.15-1.6,.46-.43,.31-.73,.72-.91,1.23h-3.06v-9.42h10.34v2.71Z"/><path class="f" d="M477.87,131.55c.71-1.2,1.68-2.13,2.9-2.79,1.23-.67,2.6-1,4.13-1,1.78,0,3.35,.44,4.69,1.32,1.34,.88,2.28,2.1,2.81,3.65h-3.68c-.37-.73-.88-1.28-1.54-1.65-.66-.37-1.43-.55-2.3-.55-.93,0-1.76,.21-2.48,.63-.72,.42-1.29,1.01-1.69,1.77-.4,.76-.61,1.66-.61,2.68s.2,1.9,.61,2.67c.4,.77,.97,1.36,1.69,1.78,.72,.42,1.55,.63,2.48,.63,.87,0,1.64-.19,2.3-.56s1.18-.93,1.54-1.66h3.68c-.53,1.57-1.47,2.79-2.8,3.66-1.33,.87-2.9,1.31-4.7,1.31-1.52,0-2.9-.33-4.13-1-1.23-.67-2.2-1.59-2.9-2.78-.71-1.19-1.06-2.54-1.06-4.05s.35-2.86,1.06-4.06Z"/><path class="f" d="M504.93,140.38h-6.36l-1.05,2.93h-3.36l5.74-15.38h3.73l5.74,15.38h-3.38l-1.05-2.93Zm-.87-2.46l-2.31-6.42-2.31,6.42h4.62Z"/><path class="f" d="M521.52,128.9c1.27,.63,2.26,1.53,2.95,2.7s1.04,2.52,1.04,4.06-.35,2.89-1.04,4.04-1.68,2.04-2.95,2.67c-1.27,.63-2.75,.95-4.42,.95h-5.58v-15.36h5.58c1.68,0,3.15,.32,4.42,.95Zm-.65,10.47c.92-.88,1.37-2.12,1.37-3.72s-.46-2.85-1.37-3.75c-.92-.9-2.21-1.35-3.89-1.35h-2.26v10.14h2.26c1.68,0,2.97-.44,3.89-1.32Z"/><path class="f" d="M537.7,140.38h-6.36l-1.05,2.93h-3.36l5.74-15.38h3.73l5.74,15.38h-3.38l-1.05-2.93Zm-.87-2.46l-2.31-6.42-2.31,6.42h4.62Z"/></g><circle class="b" cx="630" cy="54.7" r="50"/><g><path class="b" d="M590.27,133.43l-.75,3.39h2.9v2.75h-3.52l-.82,3.74h-3.04l.82-3.74h-4.16l-.82,3.74h-3.02l.82-3.74h-3.45v-2.75h4.07l.75-3.39h-3.43v-2.75h4.05l.8-3.65h3.02l-.8,3.65h4.16l.8-3.65h3.04l-.8,3.65h2.93v2.75h-3.54Zm-3.04,0h-4.16l-.75,3.39h4.16l.75-3.39Z"/><path class="b" d="M597.55,129.12c.95-1.44,2.53-2.16,4.75-2.16s3.79,.72,4.75,2.16c.95,1.44,1.43,3.42,1.43,5.96s-.48,4.55-1.43,6.01c-.95,1.45-2.54,2.18-4.75,2.18s-3.79-.73-4.75-2.18c-.95-1.45-1.43-3.45-1.43-6.01s.48-4.52,1.43-5.96Zm7.55,3.22c-.14-.74-.43-1.35-.87-1.82-.43-.47-1.08-.7-1.93-.7s-1.5,.24-1.93,.7c-.43,.47-.72,1.08-.87,1.82s-.22,1.65-.22,2.74,.07,2.05,.21,2.8c.14,.76,.43,1.36,.87,1.83s1.09,.69,1.94,.69,1.5-.23,1.94-.69,.73-1.07,.87-1.83c.14-.75,.21-1.69,.21-2.8s-.07-2-.22-2.74Z"/><path class="b" d="M612.32,129.12c.95-1.44,2.53-2.16,4.75-2.16s3.79,.72,4.75,2.16c.95,1.44,1.43,3.42,1.43,5.96s-.48,4.55-1.43,6.01c-.95,1.45-2.54,2.18-4.75,2.18s-3.79-.73-4.75-2.18c-.95-1.45-1.43-3.45-1.43-6.01s.48-4.52,1.43-5.96Zm7.55,3.22c-.14-.74-.43-1.35-.87-1.82-.43-.47-1.08-.7-1.93-.7s-1.5,.24-1.93,.7c-.43,.47-.72,1.08-.87,1.82s-.22,1.65-.22,2.74,.07,2.05,.21,2.8c.14,.76,.43,1.36,.87,1.83s1.09,.69,1.94,.69,1.5-.23,1.94-.69,.73-1.07,.87-1.83c.14-.75,.21-1.69,.21-2.8s-.07-2-.22-2.74Z"/><path class="b" d="M626.17,131.27c0-.79,.21-1.51,.63-2.17,.42-.65,1.05-1.17,1.9-1.56,.85-.39,1.88-.58,3.1-.58s2.25,.19,3.1,.58c.85,.39,1.48,.91,1.9,1.56,.42,.65,.63,1.38,.63,2.17s-.21,1.51-.62,2.12c-.41,.61-.96,1.08-1.65,1.42,.84,.35,1.49,.87,1.97,1.54,.47,.67,.71,1.47,.71,2.4,0,1-.26,1.87-.79,2.61-.53,.74-1.25,1.31-2.16,1.71-.92,.4-1.94,.59-3.09,.59s-2.17-.2-3.08-.59c-.91-.4-1.62-.96-2.15-1.71-.53-.74-.79-1.61-.79-2.61,0-.92,.24-1.73,.71-2.41s1.13-1.19,1.97-1.53c-1.53-.76-2.29-1.94-2.29-3.54Zm3.51,5.52c-.54,.42-.81,1.03-.81,1.83,0,.73,.26,1.33,.79,1.79,.53,.46,1.24,.69,2.14,.69s1.61-.23,2.13-.7c.52-.47,.78-1.06,.78-1.78,0-.78-.27-1.38-.8-1.82-.53-.43-1.24-.65-2.1-.65s-1.58,.21-2.12,.64Zm3.96-6.75c-.45-.4-1.06-.59-1.84-.59s-1.37,.2-1.82,.59c-.45,.4-.67,.96-.67,1.69,0,.66,.23,1.19,.7,1.58,.46,.4,1.06,.59,1.8,.59s1.33-.2,1.81-.61,.71-.93,.71-1.59c0-.72-.22-1.28-.67-1.67Z"/><path class="b" d="M640.23,140.18v-2.42l7.48-10.3h3.73v10.03h2.01v2.68h-2.01v3.12h-3.2v-3.12h-8Zm8.21-9.42l-4.69,6.73h4.69v-6.73Z"/><path class="b" d="M655.99,131.27c0-.79,.21-1.51,.63-2.17,.42-.65,1.05-1.17,1.9-1.56,.85-.39,1.88-.58,3.1-.58s2.25,.19,3.1,.58c.85,.39,1.48,.91,1.9,1.56,.42,.65,.63,1.38,.63,2.17s-.21,1.51-.62,2.12c-.41,.61-.96,1.08-1.65,1.42,.84,.35,1.49,.87,1.97,1.54,.47,.67,.71,1.47,.71,2.4,0,1-.26,1.87-.79,2.61-.53,.74-1.25,1.31-2.16,1.71-.92,.4-1.94,.59-3.09,.59s-2.17-.2-3.08-.59c-.91-.4-1.62-.96-2.15-1.71-.53-.74-.79-1.61-.79-2.61,0-.92,.24-1.73,.71-2.41s1.13-1.19,1.97-1.53c-1.53-.76-2.29-1.94-2.29-3.54Zm3.51,5.52c-.54,.42-.81,1.03-.81,1.83,0,.73,.26,1.33,.79,1.79,.53,.46,1.24,.69,2.14,.69s1.61-.23,2.13-.7c.52-.47,.78-1.06,.78-1.78,0-.78-.27-1.38-.8-1.82-.53-.43-1.24-.65-2.1-.65s-1.58,.21-2.12,.64Zm3.96-6.75c-.45-.4-1.06-.59-1.84-.59s-1.37,.2-1.82,.59c-.45,.4-.67,.96-.67,1.69,0,.66,.23,1.19,.7,1.58,.46,.4,1.06,.59,1.8,.59s1.33-.2,1.81-.61,.71-.93,.71-1.59c0-.72-.22-1.28-.67-1.67Z"/><path class="b" d="M680.56,128.9c1.27,.63,2.26,1.53,2.95,2.7,.69,1.17,1.04,2.52,1.04,4.06s-.35,2.89-1.04,4.04c-.69,1.15-1.68,2.04-2.95,2.67-1.27,.63-2.75,.95-4.42,.95h-5.58v-15.36h5.58c1.68,0,3.15,.32,4.42,.95Zm-.65,10.47c.92-.88,1.37-2.12,1.37-3.72s-.46-2.85-1.37-3.75c-.91-.9-2.21-1.35-3.89-1.35h-2.26v10.14h2.26c1.68,0,2.97-.44,3.89-1.32Z"/></g></svg>