<?xml version="1.0" encoding="UTF-8"?><svg xmlns="http://www.w3.org/2000/svg" viewBox="0 0 321.54 411.69"><defs><style>.d{fill:#00848d;}.e{fill:#0072ff;}.f{fill:#81358a;}.g{fill:#35cada;}.h{fill:#2b0054;}</style></defs><g id="a"/><g id="b"><g id="c"><g><path class="f" d="M51.09,3.24v13.87h-16.64v48.77H16.64V17.11H0V3.24H51.09Z"/><path class="f" d="M103.79,21.5c3.24,3.93,5.09,8.78,5.09,15.49v28.89h-17.8v-26.58c0-2.77-.46-5.09-2.31-6.7-1.62-1.62-3.24-2.77-5.55-2.77-2.77,0-4.39,.46-6.01,2.31-1.62,1.62-2.31,3.93-2.31,6.7v26.58h-17.11V0h17.11V23.35c1.62-2.31,3.24-3.93,6.01-5.55,2.77-1.16,5.55-2.31,8.78-2.31,6.47,0,10.86,2.31,14.1,6.01Z"/><path class="f" d="M165.51,44.38h-32.82c0,2.77,1.16,5.09,2.31,6.01,1.16,1.16,2.77,2.31,5.09,2.31,2.77,0,5.09-1.16,6.01-3.93h18.26c-.46,3.24-2.31,6.7-4.39,9.48-2.31,2.77-5.09,5.09-8.32,6.01-3.24,1.62-7.17,2.31-11.1,2.31-5.09,0-9.48-1.16-13.41-3.24s-6.7-5.09-8.78-8.78-3.24-8.32-3.24-13.41,1.16-9.94,3.24-13.41c2.31-3.93,5.09-6.7,8.78-8.78,3.7-2.08,8.32-3.24,13.41-3.24s9.48,1.16,13.41,2.77c3.93,1.62,6.7,5.09,8.78,8.78s3.24,8.32,3.24,13.41c0,1.39,0,2.54-.46,3.7Zm-17.11-8.32c0-2.31-.46-3.93-2.31-5.09s-3.24-1.62-5.55-1.62-3.93,.46-5.09,1.62-2.31,2.77-2.77,5.09h15.72Z"/><path class="h" d="M21.27,97.55v9.94h19.88v13.41H21.27v11.1h22.65v13.87H3.47v-62.18H43.46v13.87H21.27Z"/><path class="h" d="M81.6,131.53v15.03h-7.17c-12.71,0-18.95-6.01-18.95-18.95v-16.64h-6.01v-14.33h6.01v-12.25h17.11v12.25h8.78v14.33h-8.78v16.64c0,1.16,.46,2.31,1.16,2.77,.46,.46,1.62,1.16,3.24,1.16h4.62Z"/><path class="h" d="M136.15,102.17c3.24,3.93,5.09,8.78,5.09,15.49v28.89h-17.11v-26.81c0-2.77-.46-5.09-2.31-6.7-1.62-1.62-3.24-2.31-6.01-2.31s-4.39,.46-6.01,2.31c-1.62,1.62-2.31,3.93-2.31,6.7v26.58h-17.11V80.91h17.11v22.65c1.62-2.31,3.24-3.93,6.01-5.55,2.77-1.16,5.55-2.31,8.78-2.31,6.01,.23,10.4,2.54,13.87,6.47Z"/><path class="h" d="M152.1,89.23c-1.62-1.62-2.77-3.93-2.77-6.01,0-2.77,1.16-5.09,2.77-6.7,1.62-1.62,4.39-2.77,7.17-2.77s5.55,.46,7.17,2.77,2.77,3.93,2.77,6.7-1.16,4.39-2.77,6.01-4.39,2.77-7.17,2.77-5.32-.92-7.17-2.77Zm16.18,7.4v49.93h-17.11v-49.93h17.11Z"/><path class="h" d="M178.22,108.18c2.31-3.93,5.09-6.7,8.78-8.78,3.7-2.08,8.32-3.24,13.41-3.24,6.01,0,11.56,1.62,16.18,5.09s7.17,8.32,8.32,14.33h-18.26c-1.16-3.24-3.24-5.09-6.01-5.09-2.31,0-3.93,1.16-5.09,2.77s-1.62,4.39-1.62,7.86,.46,6.01,1.62,7.86c1.16,1.62,2.77,2.77,5.09,2.77,3.24,0,5.09-1.62,6.01-5.09h18.26c-1.16,6.01-3.93,11.1-8.32,14.33-4.39,3.24-9.48,5.09-16.18,5.09-5.09,0-9.48-1.16-13.41-3.24-3.93-2.31-6.7-5.09-8.78-8.78-2.31-3.93-3.24-8.32-3.24-13.87,.46-3.7,1.16-8.09,3.24-12.02Z"/><path class="h" d="M232.08,108.18c1.62-3.93,4.39-6.7,7.86-8.78s6.7-3.24,10.63-3.24c3.24,0,6.7,.46,8.78,2.31,2.77,1.16,4.39,3.24,5.55,5.55v-6.7h17.11v49.93h-17.11v-6.7c-1.16,2.31-3.24,4.39-5.55,5.55-2.77,1.16-5.55,2.31-8.78,2.31-3.93,0-7.86-1.16-10.63-3.24-3.24-2.31-5.55-5.09-7.86-8.78-2.31-3.93-2.77-8.32-2.77-13.41s.46-10.86,2.77-14.79Zm30.05,5.55c-1.62-1.62-3.93-2.77-6.7-2.77s-5.09,1.16-6.7,2.77c-1.62,1.62-2.77,4.39-2.77,7.86,0,3.24,1.16,5.55,2.77,7.86,1.62,2.31,3.93,2.77,6.7,2.77s4.39-1.16,6.7-2.77,2.77-4.39,2.77-7.86-.69-5.55-2.77-7.86Z"/><path class="h" d="M309.75,80.91v65.42h-17.11V80.91h17.11Z"/><path class="e" d="M9.48,222.37c-4.39-3.24-7.17-8.32-7.86-15.03H19.88c0,2.31,1.16,3.93,1.62,5.09s2.77,1.62,4.39,1.62,2.77-.46,3.93-1.16c1.16-.46,1.62-1.62,1.62-3.24s-.46-3.24-2.77-4.39c-1.62-1.16-4.39-2.31-8.32-3.24-3.93-1.16-7.17-2.77-9.94-3.93s-4.39-3.24-6.7-5.55c-1.62-2.31-2.77-5.55-2.77-9.48s1.16-7.17,2.77-10.63c2.31-2.77,5.09-5.09,8.32-6.7s7.86-2.31,12.25-2.31c7.17,0,13.41,1.62,17.11,5.09,4.39,3.24,6.7,8.32,7.17,14.33H30.74c0-1.62-.46-3.24-1.62-4.39s-2.31-1.62-4.39-1.62c-1.16,0-2.31,.46-3.24,1.16-1.16,.46-1.16,1.62-1.16,3.24,0,1.16,.46,2.31,1.16,2.77,1.16,1.16,2.31,1.62,3.24,2.31,1.16,.46,3.24,1.16,6.01,2.31,3.93,1.16,7.17,2.77,9.94,3.93,2.77,1.16,5.09,3.24,6.7,5.55s2.77,5.55,2.77,8.78c0,3.93-1.16,7.17-2.77,9.94s-4.39,5.55-8.32,7.17c-3.24,1.62-7.86,2.77-12.25,2.77-6.7,.69-12.71-.92-17.34-4.39Z"/><path class="e" d="M68.42,224.68c-3.93-2.31-7.17-5.09-9.48-8.78-2.31-3.93-3.24-8.32-3.24-13.87,0-5.09,1.16-9.48,3.24-13.41,2.31-3.93,5.55-6.7,9.48-8.78,3.93-2.31,8.32-3.24,13.41-3.24s9.48,1.16,13.41,3.24c3.93,2.08,7.17,5.09,9.48,8.78,2.31,3.93,3.24,8.32,3.24,13.41s-1.16,9.48-3.24,13.41-5.55,6.7-9.48,8.78c-3.93,2.31-8.32,3.24-13.41,3.24s-9.48-1.16-13.41-2.77Zm19.88-15.03c1.62-1.62,2.31-4.39,2.31-7.86,0-3.24-.46-6.01-2.31-7.86-1.62-1.62-3.24-2.77-6.01-2.77s-4.39,1.16-6.01,2.77c-1.62,1.62-2.31,4.39-2.31,7.86,0,3.24,.46,6.01,2.31,7.86,1.62,1.62,3.24,2.77,6.01,2.77s3.93-1.16,6.01-2.77Z"/><path class="e" d="M115.58,188.62c2.31-3.93,5.09-6.7,8.78-8.78,3.93-2.31,8.32-3.24,13.41-3.24,6.01,0,11.56,1.62,16.18,5.09,4.39,3.24,7.17,8.32,8.32,14.33h-18.26c-1.16-3.24-3.24-5.09-6.01-5.09-2.31,0-3.93,1.16-5.09,2.77s-1.62,4.39-1.62,7.86c0,3.24,.46,6.01,1.62,7.86,1.16,1.62,2.77,2.77,5.09,2.77,3.24,0,5.09-1.62,6.01-5.09h18.26c-1.16,6.01-3.93,11.1-8.32,14.33s-9.48,5.09-16.18,5.09c-5.09,0-9.48-1.16-13.41-3.24-3.93-2.31-6.7-5.09-8.78-8.78-2.31-3.93-3.24-8.32-3.24-13.87-.23-3.7,.92-8.09,3.24-12.02Z"/><path class="e" d="M170.59,169.67c-1.62-1.62-2.77-3.93-2.77-6.01,0-2.77,1.16-5.09,2.77-6.7,1.62-1.62,4.39-2.77,7.17-2.77s5.55,.46,7.17,2.77,2.77,3.93,2.77,6.7-1.16,4.39-2.77,6.01-4.39,2.77-7.17,2.77c-2.77,0-5.09-.92-7.17-2.77Zm15.95,7.4v49.93h-17.11v-49.93h17.11Z"/><path class="e" d="M196.48,188.62c1.62-3.93,4.39-6.7,7.86-8.78,3.24-2.31,6.7-3.24,10.63-3.24,3.24,0,6.7,.46,8.78,2.31,2.77,1.16,4.39,3.24,5.55,5.55v-6.7h17.11v49.93h-17.11v-7.17c-1.16,2.31-3.24,4.39-5.55,5.55s-5.55,2.31-8.78,2.31c-3.93,0-7.86-1.16-10.63-3.24-3.24-2.31-5.55-5.09-7.86-8.78-2.31-3.93-2.77-8.32-2.77-13.41,0-5.55,.69-10.4,2.77-14.33Zm30.51,5.55c-1.62-1.62-3.93-2.77-6.7-2.77s-5.09,1.16-6.7,2.77c-1.62,1.62-2.77,4.39-2.77,7.86s1.16,5.55,2.77,7.86,3.93,2.77,6.7,2.77,4.39-1.16,6.7-2.77,2.77-4.39,2.77-7.86c-.46-3.47-.92-5.55-2.77-7.86Z"/><path class="e" d="M274.15,160.89v65.42h-17.11v-65.42h17.11Z"/><path class="g" d="M76.74,244.8v62.64h-17.11v-34.44l-11.56,34.44h-15.03l-11.56-34.9v34.9H3.7v-62.64H24.73l15.49,40.45,15.49-40.45h21.04Z"/><path class="g" d="M133.84,285.71h-32.82c0,2.77,1.16,5.09,2.31,6.01,1.16,1.16,2.77,2.31,5.09,2.31,2.77,0,5.09-1.16,6.01-3.93h18.26c-.46,3.24-2.31,6.7-4.39,9.48-2.31,2.77-5.09,5.09-8.32,6.01s-7.17,2.31-11.1,2.31c-5.09,0-9.48-1.16-13.41-3.24-3.93-2.31-6.7-5.09-8.78-8.78-2.31-3.93-3.24-8.32-3.24-13.87s1.16-9.94,3.24-13.41c2.31-3.93,5.09-6.7,8.78-8.78,3.93-2.31,8.32-3.24,13.41-3.24s9.48,1.16,13.41,2.77c3.93,1.62,6.7,5.09,8.78,8.78s3.24,8.32,3.24,13.41c0,1.39,0,3-.46,4.16Zm-17.11-8.32c0-2.31-.46-3.93-2.31-5.09-1.62-1.16-3.24-1.62-5.55-1.62s-3.93,.46-5.09,1.62-2.31,2.77-2.77,5.09h15.72Z"/><path class="g" d="M141.7,269.07c1.62-3.93,4.39-6.7,7.86-8.78,3.24-2.31,6.7-3.24,11.1-3.24,3.24,0,6.01,.46,8.32,2.31,2.31,1.62,4.39,3.24,6.01,5.55v-22.65h17.8v65.42h-18.26v-6.7c-1.16,2.31-3.24,4.39-5.55,5.55-2.77,1.16-5.55,2.31-8.78,2.31-3.93,0-7.86-1.16-10.63-3.24-3.24-2.31-5.55-5.09-7.86-8.78-1.62-3.93-2.77-8.32-2.77-13.41s.46-10.4,2.77-14.33Zm29.82,5.55c-1.62-1.62-3.93-2.77-6.7-2.77s-5.09,1.16-6.7,2.77c-1.62,1.62-2.77,4.39-2.77,7.86,0,3.24,.46,5.55,2.77,7.86s3.93,2.77,6.7,2.77,4.39-1.16,6.7-2.77,2.77-4.39,2.77-7.86-.46-5.55-2.77-7.86Z"/><path class="g" d="M203.19,250.34c-1.62-1.62-2.77-3.93-2.77-6.01,0-2.77,1.16-5.09,2.77-6.7s4.39-2.77,7.17-2.77,5.55,1.16,7.17,2.77,2.77,3.93,2.77,6.7-1.16,4.39-2.77,6.01c-1.62,1.62-4.39,2.77-7.17,2.77s-5.55-1.16-7.17-2.77Zm16.18,7.17v49.93h-17.11v-49.93h17.11Z"/><path class="g" d="M229.31,269.07c1.62-3.93,4.39-6.7,7.86-8.78,3.24-2.31,6.7-3.24,10.63-3.24,3.24,0,6.7,.46,8.78,2.31,2.77,1.16,4.39,3.24,5.55,5.55v-6.7h17.8v49.93h-17.11v-6.7c-1.16,2.31-3.24,4.39-5.55,5.55s-5.55,2.31-8.78,2.31c-3.93,0-7.86-1.16-10.63-3.24-3.24-2.31-5.55-5.09-7.86-8.78-2.31-3.7-2.77-8.32-2.77-13.41-.23-5.32-.23-10.86,2.08-14.79Zm30.51,5.55c-1.62-1.62-3.93-2.77-6.7-2.77s-5.09,1.16-6.7,2.77c-1.62,1.62-2.77,4.39-2.77,7.86,0,3.24,1.16,5.55,2.77,7.86,1.62,2.31,3.93,2.77,6.7,2.77s4.39-1.16,6.7-2.77,2.77-4.39,2.77-7.86c-.46-3.47-1.16-5.55-2.77-7.86Z"/><path class="d" d="M50.62,356.21c-1.62,3.24-4.39,5.55-7.86,7.17s-7.86,2.77-12.71,2.77h-8.78v21.04H3.47v-62.18H29.59c5.09,0,9.48,1.16,12.71,2.77s6.01,4.39,7.86,7.17c1.62,3.24,2.77,6.7,2.77,10.63,.46,4.62-.69,7.86-2.31,10.63Zm-15.03-9.94c0-4.39-2.31-6.7-7.17-6.7h-7.17v13.41h6.7c4.85,0,7.63-2.31,7.63-6.7Z"/><path class="d" d="M85.07,340.03c2.77-1.62,5.55-2.31,8.78-2.31v18.26h-5.09c-3.93,0-6.7,.46-8.32,2.31-1.62,1.62-2.77,3.93-2.77,7.86v21.73h-17.11v-49.93h17.11v8.78c1.85-2.77,3.93-4.85,7.4-6.7Z"/><path class="d" d="M110.03,385.57c-3.93-2.31-7.17-5.09-9.48-8.78-2.31-3.93-3.24-8.32-3.24-13.41s1.16-9.48,3.24-13.41,5.55-6.7,9.48-8.78c3.93-2.31,8.32-3.24,13.41-3.24s9.48,1.16,13.41,3.24c3.93,2.31,7.17,5.09,9.48,8.78s3.24,8.32,3.24,13.41-1.16,9.48-3.24,13.41c-2.31,3.93-5.55,6.7-9.48,8.78-3.93,2.31-8.32,3.24-13.41,3.24s-9.48-1.62-13.41-3.24Zm19.42-15.03c1.62-1.62,2.31-4.39,2.31-7.86s-.46-6.01-2.31-7.86c-1.62-1.62-3.24-2.77-6.01-2.77s-4.39,1.16-6.01,2.77-2.31,4.39-2.31,7.86,.46,6.01,2.31,7.86,3.24,2.77,6.01,2.77,4.39-.92,6.01-2.77Z"/><path class="d" d="M173.83,392.74c0,12.71-6.01,18.95-18.95,18.95h-6.01v-15.03h3.24c1.62,0,2.77-.46,3.24-1.16,.46-.46,1.16-1.62,1.16-2.77v-55.02h17.11v55.02h.23Zm-16.18-61.95c-1.62-1.62-2.77-3.93-2.77-6.01,0-2.77,1.16-5.09,2.77-6.7s4.39-2.77,7.17-2.77,5.55,1.16,7.17,2.77,2.77,3.93,2.77,6.7-1.16,4.39-2.77,6.01c-1.62,1.62-4.39,2.77-7.17,2.77-2.54,0-5.32-1.16-7.17-2.77Z"/><path class="d" d="M230.93,366.15h-32.82c0,2.77,1.16,5.09,2.31,6.01s2.77,2.31,5.09,2.31c2.77,0,5.09-1.16,6.01-3.93h18.26c-.46,3.24-2.31,6.7-4.39,9.48-2.31,2.77-5.09,5.09-8.32,6.01-3.24,1.16-7.17,2.31-11.1,2.31-5.09,0-9.48-1.16-13.41-3.24-3.93-2.31-6.7-5.09-8.78-8.78-2.31-3.93-3.24-8.32-3.24-13.41s1.16-9.94,3.24-13.41c2.31-3.93,5.09-6.7,8.78-8.78,3.93-2.31,8.32-3.24,13.41-3.24s9.48,1.16,12.71,2.77,6.7,5.09,8.78,8.78,3.24,8.32,3.24,13.41c.23,.92,.23,2.54,.23,3.7Zm-17.8-8.32c0-2.31-.46-3.93-2.31-5.09-1.62-1.16-3.24-1.62-5.55-1.62s-3.93,.46-5.09,1.62-2.31,2.77-2.77,5.09h15.72Z"/><path class="d" d="M238.79,349.51c2.31-3.93,5.09-6.7,8.78-8.78,3.93-2.31,8.32-3.24,13.41-3.24,6.01,0,11.56,1.62,16.18,5.09,4.39,3.24,7.17,8.32,8.32,14.33h-18.26c-1.16-3.24-3.24-5.09-6.01-5.09-2.31,0-3.93,1.16-5.09,2.77s-1.62,4.39-1.62,7.86c0,3.24,.46,6.01,1.62,7.86s2.77,2.77,5.09,2.77c3.24,0,5.09-1.62,6.01-5.09h18.26c-1.16,6.01-3.93,11.1-8.32,14.33s-9.48,5.09-16.18,5.09c-5.09,0-9.48-1.16-13.41-3.24-3.93-2.31-6.7-5.09-8.78-8.78-2.31-3.93-3.24-6.7-3.24-12.25-.23-5.32,.92-9.71,3.24-13.64Z"/><path class="d" d="M321.54,372.86v15.03h-7.86c-12.71,0-18.95-6.01-18.95-18.95v-16.64h-6.01v-14.33h6.01v-12.25h17.8v12.25h8.78v14.33h-8.78v16.64c0,1.16,.46,2.31,1.16,2.77s1.62,1.16,3.24,1.16h4.62Z"/></g></g></g></svg>