<?xml version="1.0" encoding="UTF-8"?><svg id="a" xmlns="http://www.w3.org/2000/svg" viewBox="0 0 1440 600"><defs><style>.b{fill:#bde2eb;}.c{fill:#3668b1;}.d{fill:#ccb5d6;}.e{fill:#02858d;}.f{fill:#2b1f4f;}.g{fill:#81358a;}.h{fill:#4abed1;}</style></defs><circle class="b" cx="168.96" cy="-114.64" r="375.57"/><g><path class="g" d="M126.38,65.96v16.64h-20.05v58.54h-20.9v-58.54h-19.83v-16.64h60.78Z"/><path class="g" d="M189.77,87.66c4.02,4.58,6.02,10.79,6.02,18.61v34.87h-20.9v-32.1c0-3.41-.89-6.09-2.67-8.05-1.78-1.95-4.16-2.93-7.14-2.93s-5.58,.98-7.36,2.93c-1.78,1.96-2.67,4.64-2.67,8.05v32.1h-20.9V62.22h20.9v27.62c1.85-2.7,4.35-4.89,7.52-6.56,3.16-1.67,6.81-2.51,10.93-2.51,6.82,0,12.25,2.29,16.26,6.88Z"/><path class="g" d="M264.15,115.44h-39.56c.21,3.27,1.12,5.71,2.72,7.3s3.64,2.4,6.13,2.4c3.48,0,5.97-1.56,7.46-4.69h22.29c-.92,4.12-2.72,7.8-5.39,11.04-2.67,3.24-6.02,5.78-10.08,7.62-4.05,1.85-8.53,2.77-13.44,2.77-5.9,0-11.14-1.24-15.73-3.73-4.59-2.49-8.18-6.04-10.77-10.66-2.6-4.62-3.89-10.06-3.89-16.32s1.28-11.68,3.84-16.26c2.56-4.58,6.13-8.12,10.72-10.61,4.59-2.49,9.86-3.73,15.84-3.73s11.12,1.21,15.68,3.63c4.55,2.42,8.1,5.88,10.66,10.4,2.56,4.51,3.84,9.83,3.84,15.94,0,1.64-.11,3.27-.32,4.91Zm-21.01-10.13c0-2.56-.85-4.57-2.56-6.03-1.71-1.46-3.84-2.19-6.4-2.19s-4.66,.69-6.29,2.08c-1.64,1.39-2.7,3.43-3.2,6.13h18.45Z"/><path class="f" d="M90.65,180.77v12.26h23.99v15.89h-23.99v13.54h27.19v16.74h-48.09v-75.18h48.09v16.74h-27.19Z"/><path class="f" d="M163.49,221.4v17.81h-9.06c-15.29,0-22.93-7.57-22.93-22.71v-19.73h-7.36v-17.38h7.36v-14.5h21.01v14.5h10.88v17.38h-10.88v20.05c0,1.64,.37,2.81,1.12,3.52,.75,.71,2.01,1.07,3.79,1.07h6.08Z"/><path class="f" d="M228.69,185.73c4.02,4.58,6.02,10.79,6.02,18.61v34.87h-20.9v-32.1c0-3.41-.89-6.09-2.67-8.05-1.78-1.95-4.16-2.93-7.14-2.93s-5.58,.98-7.36,2.93c-1.78,1.96-2.67,4.64-2.67,8.05v32.1h-20.9v-78.91h20.9v27.62c1.85-2.7,4.35-4.89,7.52-6.56,3.16-1.67,6.81-2.51,10.93-2.51,6.82,0,12.25,2.29,16.26,6.88Z"/><path class="f" d="M247.89,170.8c-2.24-2.03-3.36-4.57-3.36-7.62s1.12-5.72,3.36-7.79c2.24-2.06,5.21-3.09,8.9-3.09s6.56,1.03,8.8,3.09c2.24,2.06,3.36,4.66,3.36,7.79s-1.12,5.6-3.36,7.62c-2.24,2.03-5.17,3.04-8.8,3.04s-6.67-1.01-8.9-3.04Zm19.25,8.58v59.82h-20.9v-59.82h20.9Z"/><path class="f" d="M279.5,193.04c2.56-4.62,6.13-8.17,10.72-10.66,4.59-2.49,9.83-3.73,15.73-3.73,7.61,0,14,2.08,19.19,6.24,5.19,4.16,8.53,9.97,10.02,17.44h-22.18c-1.28-3.91-3.77-5.87-7.46-5.87-2.63,0-4.71,1.08-6.24,3.25-1.53,2.17-2.29,5.35-2.29,9.54s.76,7.39,2.29,9.6c1.53,2.21,3.61,3.31,6.24,3.31,3.77,0,6.25-1.96,7.46-5.87h22.18c-1.49,7.39-4.84,13.19-10.02,17.38-5.19,4.2-11.59,6.29-19.19,6.29-5.9,0-11.14-1.24-15.73-3.73-4.59-2.49-8.16-6.04-10.72-10.66-2.56-4.62-3.84-10.06-3.84-16.32s1.28-11.59,3.84-16.21Z"/><path class="f" d="M343.75,193.04c2.24-4.62,5.29-8.17,9.17-10.66,3.87-2.49,8.19-3.73,12.96-3.73,4.12,0,7.68,.82,10.66,2.45,2.99,1.64,5.29,3.84,6.93,6.61v-8.32h20.9v59.82h-20.9v-8.32c-1.64,2.77-3.96,4.98-6.98,6.61-3.02,1.64-6.56,2.45-10.61,2.45-4.76,0-9.08-1.24-12.96-3.73-3.88-2.49-6.93-6.06-9.17-10.72-2.24-4.66-3.36-10.08-3.36-16.26s1.12-11.59,3.36-16.21Zm36.58,7.14c-2.1-2.2-4.68-3.31-7.73-3.31s-5.72,1.08-7.78,3.25c-2.06,2.17-3.09,5.21-3.09,9.12s1.03,6.88,3.09,9.12c2.06,2.24,4.66,3.36,7.78,3.36s5.63-1.1,7.73-3.31c2.1-2.2,3.15-5.26,3.15-9.17s-1.05-6.86-3.15-9.06Z"/><path class="f" d="M437.22,160.3v78.91h-20.9v-78.91h20.9Z"/><path class="c" d="M76.58,331.8c-5.62-4.16-8.64-10.11-9.06-17.86h22.29c.21,2.63,.99,4.55,2.35,5.76,1.35,1.21,3.09,1.81,5.23,1.81,1.92,0,3.5-.48,4.75-1.44,1.24-.96,1.87-2.29,1.87-4,0-2.2-1.03-3.91-3.09-5.12-2.06-1.21-5.4-2.56-10.02-4.05-4.91-1.63-8.87-3.22-11.89-4.75-3.02-1.53-5.65-3.77-7.89-6.72-2.24-2.95-3.36-6.81-3.36-11.57s1.21-8.97,3.63-12.42c2.42-3.45,5.76-6.06,10.02-7.84,4.27-1.78,9.1-2.67,14.5-2.67,8.74,0,15.73,2.04,20.95,6.13,5.23,4.09,8.01,9.83,8.37,17.22h-22.71c-.07-2.27-.77-3.98-2.08-5.12-1.32-1.14-3-1.71-5.07-1.71-1.56,0-2.84,.46-3.84,1.39-1,.92-1.49,2.24-1.49,3.95,0,1.42,.55,2.65,1.65,3.68,1.1,1.03,2.47,1.92,4.11,2.67,1.63,.75,4.05,1.69,7.25,2.83,4.76,1.64,8.69,3.25,11.78,4.85,3.09,1.6,5.76,3.84,8,6.72,2.24,2.88,3.36,6.52,3.36,10.93s-1.12,8.5-3.36,12.05c-2.24,3.56-5.48,6.36-9.7,8.42-4.23,2.06-9.22,3.09-14.98,3.09-8.74,0-15.93-2.08-21.54-6.24Z"/><path class="c" d="M147.65,334.3c-4.73-2.49-8.44-6.04-11.14-10.66-2.7-4.62-4.05-10.06-4.05-16.32s1.37-11.59,4.11-16.21c2.74-4.62,6.47-8.17,11.2-10.66,4.73-2.49,10.08-3.73,16.05-3.73s11.32,1.25,16.05,3.73c4.73,2.49,8.46,6.04,11.2,10.66,2.74,4.62,4.11,10.02,4.11,16.21s-1.37,11.61-4.11,16.26c-2.74,4.66-6.49,8.23-11.25,10.72-4.76,2.49-10.13,3.73-16.1,3.73s-11.32-1.24-16.05-3.73Zm23.35-17.65c1.95-2.17,2.93-5.28,2.93-9.33s-.98-7.15-2.93-9.28c-1.96-2.13-4.36-3.2-7.2-3.2s-5.23,1.07-7.14,3.2-2.88,5.23-2.88,9.28,.92,7.25,2.77,9.38c1.85,2.13,4.23,3.2,7.15,3.2s5.35-1.08,7.3-3.25Z"/><path class="c" d="M204.11,291.11c2.56-4.62,6.13-8.17,10.72-10.66,4.59-2.49,9.83-3.73,15.73-3.73,7.61,0,14,2.08,19.19,6.24,5.19,4.16,8.53,9.97,10.02,17.44h-22.18c-1.28-3.91-3.77-5.87-7.46-5.87-2.63,0-4.71,1.08-6.24,3.25-1.53,2.17-2.29,5.35-2.29,9.54s.76,7.39,2.29,9.6c1.53,2.21,3.61,3.31,6.24,3.31,3.77,0,6.25-1.96,7.46-5.87h22.18c-1.49,7.39-4.84,13.19-10.02,17.38-5.19,4.2-11.59,6.29-19.19,6.29-5.9,0-11.14-1.24-15.73-3.73-4.59-2.49-8.16-6.04-10.72-10.66-2.56-4.62-3.84-10.06-3.84-16.32s1.28-11.59,3.84-16.21Z"/><path class="c" d="M270.07,268.88c-2.24-2.03-3.36-4.57-3.36-7.62s1.12-5.72,3.36-7.79c2.24-2.06,5.21-3.09,8.9-3.09s6.56,1.03,8.8,3.09c2.24,2.06,3.36,4.66,3.36,7.79s-1.12,5.6-3.36,7.62c-2.24,2.03-5.17,3.04-8.8,3.04s-6.67-1.01-8.9-3.04Zm19.25,8.58v59.82h-20.9v-59.82h20.9Z"/><path class="c" d="M301.21,291.11c2.24-4.62,5.29-8.17,9.17-10.66,3.87-2.49,8.19-3.73,12.96-3.73,4.12,0,7.68,.82,10.66,2.45,2.99,1.64,5.29,3.84,6.93,6.61v-8.32h20.9v59.82h-20.9v-8.32c-1.64,2.77-3.96,4.98-6.98,6.61-3.02,1.64-6.56,2.45-10.61,2.45-4.76,0-9.08-1.24-12.96-3.73-3.88-2.49-6.93-6.06-9.17-10.72-2.24-4.66-3.36-10.08-3.36-16.26s1.12-11.59,3.36-16.21Zm36.58,7.14c-2.1-2.2-4.68-3.31-7.73-3.31s-5.72,1.08-7.78,3.25c-2.06,2.17-3.09,5.21-3.09,9.12s1.03,6.88,3.09,9.12c2.06,2.24,4.66,3.36,7.78,3.36s5.63-1.1,7.73-3.31c2.1-2.2,3.15-5.26,3.15-9.17s-1.05-6.86-3.15-9.06Z"/><path class="c" d="M394.67,258.38v78.91h-20.9v-78.91h20.9Z"/><path class="h" d="M157.52,360.18v75.18h-20.9v-41.48l-14.18,41.48h-17.49l-14.29-41.8v41.8h-20.9v-75.18h25.27l18.88,48.84,18.45-48.84h25.17Z"/><path class="h" d="M226.3,409.66h-39.56c.21,3.27,1.12,5.71,2.72,7.3s3.64,2.4,6.13,2.4c3.48,0,5.97-1.56,7.46-4.69h22.29c-.92,4.12-2.72,7.8-5.39,11.04-2.67,3.24-6.02,5.78-10.08,7.62-4.05,1.85-8.53,2.77-13.44,2.77-5.9,0-11.14-1.24-15.73-3.73-4.59-2.49-8.18-6.04-10.77-10.66-2.6-4.62-3.89-10.06-3.89-16.32s1.28-11.68,3.84-16.26c2.56-4.58,6.13-8.12,10.72-10.61,4.59-2.49,9.86-3.73,15.84-3.73s11.12,1.21,15.68,3.63c4.55,2.42,8.1,5.88,10.66,10.4,2.56,4.51,3.84,9.83,3.84,15.94,0,1.64-.11,3.27-.32,4.91Zm-21.01-10.13c0-2.56-.85-4.57-2.56-6.03-1.71-1.46-3.84-2.19-6.4-2.19s-4.66,.69-6.29,2.08c-1.64,1.39-2.7,3.43-3.2,6.13h18.45Z"/><path class="h" d="M235.09,389.19c2.24-4.62,5.31-8.17,9.22-10.66,3.91-2.49,8.25-3.73,13.01-3.73,3.84,0,7.27,.8,10.29,2.4,3.02,1.6,5.39,3.79,7.09,6.56v-27.3h21.01v78.91h-21.01v-8.32c-1.64,2.77-3.95,4.98-6.93,6.61-2.99,1.64-6.5,2.45-10.56,2.45-4.76,0-9.08-1.24-12.96-3.73-3.88-2.49-6.93-6.06-9.17-10.72-2.24-4.66-3.36-10.08-3.36-16.26s1.12-11.59,3.36-16.21Zm36.58,7.14c-2.1-2.2-4.68-3.31-7.73-3.31s-5.72,1.08-7.78,3.25c-2.06,2.17-3.09,5.21-3.09,9.12s1.03,6.88,3.09,9.12c2.06,2.24,4.66,3.36,7.78,3.36s5.63-1.1,7.73-3.31c2.1-2.2,3.15-5.26,3.15-9.17s-1.05-6.86-3.15-9.06Z"/><path class="h" d="M309.31,366.96c-2.24-2.03-3.36-4.57-3.36-7.62s1.12-5.72,3.36-7.79c2.24-2.06,5.21-3.09,8.9-3.09s6.56,1.03,8.8,3.09c2.24,2.06,3.36,4.66,3.36,7.79s-1.12,5.6-3.36,7.62c-2.24,2.03-5.17,3.04-8.8,3.04s-6.67-1.01-8.9-3.04Zm19.25,8.58v59.82h-20.9v-59.82h20.9Z"/><path class="h" d="M340.45,389.19c2.24-4.62,5.29-8.17,9.17-10.66,3.87-2.49,8.19-3.73,12.96-3.73,4.12,0,7.68,.82,10.66,2.45,2.99,1.64,5.29,3.84,6.93,6.61v-8.32h20.9v59.82h-20.9v-8.32c-1.64,2.77-3.96,4.98-6.98,6.61-3.02,1.64-6.56,2.45-10.61,2.45-4.76,0-9.08-1.24-12.96-3.73-3.88-2.49-6.93-6.06-9.17-10.72-2.24-4.66-3.36-10.08-3.36-16.26s1.12-11.59,3.36-16.21Zm36.58,7.14c-2.1-2.2-4.68-3.31-7.73-3.31s-5.72,1.08-7.78,3.25c-2.06,2.17-3.09,5.21-3.09,9.12s1.03,6.88,3.09,9.12c2.06,2.24,4.66,3.36,7.78,3.36s5.63-1.1,7.73-3.31c2.1-2.2,3.15-5.26,3.15-9.17s-1.05-6.86-3.15-9.06Z"/><path class="e" d="M126,495.74c-2.1,3.73-5.26,6.72-9.49,8.96-4.23,2.24-9.4,3.36-15.52,3.36h-10.34v25.38h-20.9v-75.18h31.24c6.04,0,11.18,1.07,15.41,3.2,4.23,2.13,7.41,5.08,9.54,8.85,2.13,3.77,3.2,8.1,3.2,13.01,0,4.55-1.05,8.69-3.15,12.42Zm-18.18-12.42c0-5.47-2.95-8.21-8.85-8.21h-8.32v16.32h8.32c5.9,0,8.85-2.7,8.85-8.1Z"/><path class="e" d="M167,476.07c3.34-1.99,6.93-2.99,10.77-2.99v22.29h-5.86c-4.55,0-7.93,.89-10.13,2.67-2.2,1.78-3.31,4.87-3.31,9.28v26.13h-20.9v-59.82h20.9v10.56c2.35-3.41,5.19-6.11,8.53-8.1Z"/><path class="e" d="M197.02,530.45c-4.73-2.49-8.44-6.04-11.14-10.66-2.7-4.62-4.05-10.06-4.05-16.32s1.37-11.59,4.11-16.21c2.74-4.62,6.47-8.17,11.2-10.66,4.73-2.49,10.08-3.73,16.05-3.73s11.32,1.25,16.05,3.73c4.73,2.49,8.46,6.04,11.2,10.66,2.74,4.62,4.11,10.02,4.11,16.21s-1.37,11.61-4.11,16.26c-2.74,4.66-6.49,8.23-11.25,10.72-4.76,2.49-10.13,3.73-16.1,3.73s-11.32-1.24-16.05-3.73Zm23.35-17.65c1.95-2.17,2.93-5.28,2.93-9.33s-.98-7.14-2.93-9.28c-1.96-2.13-4.36-3.2-7.2-3.2s-5.23,1.07-7.14,3.2-2.88,5.22-2.88,9.28,.92,7.25,2.77,9.38c1.85,2.13,4.23,3.2,7.15,3.2s5.35-1.08,7.3-3.25Z"/><path class="e" d="M273.96,539.3c0,15.14-7.61,22.71-22.82,22.71h-7.57v-17.81h4.48c1.78,0,3.06-.36,3.84-1.07,.78-.71,1.17-1.88,1.17-3.52v-66.01h20.9v65.69Zm-19.35-74.27c-2.24-2.03-3.36-4.57-3.36-7.62s1.12-5.72,3.36-7.79c2.24-2.06,5.21-3.09,8.9-3.09s6.56,1.03,8.8,3.09c2.24,2.06,3.36,4.66,3.36,7.79s-1.12,5.6-3.36,7.62c-2.24,2.03-5.17,3.04-8.8,3.04s-6.67-1.01-8.9-3.04Z"/><path class="e" d="M342.63,507.74h-39.56c.21,3.27,1.12,5.71,2.72,7.3s3.64,2.4,6.13,2.4c3.48,0,5.97-1.56,7.46-4.69h22.29c-.92,4.12-2.72,7.8-5.39,11.04-2.67,3.24-6.02,5.78-10.08,7.62-4.05,1.85-8.53,2.77-13.44,2.77-5.9,0-11.14-1.24-15.73-3.73-4.59-2.49-8.18-6.04-10.77-10.66-2.6-4.62-3.89-10.06-3.89-16.32s1.28-11.68,3.84-16.26c2.56-4.58,6.13-8.12,10.72-10.61,4.59-2.49,9.86-3.73,15.84-3.73s11.12,1.21,15.68,3.63c4.55,2.42,8.1,5.88,10.66,10.4,2.56,4.51,3.84,9.83,3.84,15.94,0,1.64-.11,3.27-.32,4.91Zm-21.01-10.13c0-2.56-.85-4.57-2.56-6.03-1.71-1.46-3.84-2.19-6.4-2.19s-4.66,.69-6.29,2.08c-1.64,1.39-2.7,3.43-3.2,6.13h18.45Z"/><path class="e" d="M351.91,487.26c2.56-4.62,6.13-8.17,10.72-10.66,4.59-2.49,9.83-3.73,15.73-3.73,7.61,0,14,2.08,19.19,6.24,5.19,4.16,8.53,9.97,10.02,17.44h-22.18c-1.28-3.91-3.77-5.87-7.46-5.87-2.63,0-4.71,1.08-6.24,3.25-1.53,2.17-2.29,5.35-2.29,9.54s.76,7.39,2.29,9.6c1.53,2.21,3.61,3.31,6.24,3.31,3.77,0,6.25-1.96,7.46-5.87h22.18c-1.49,7.39-4.84,13.19-10.02,17.38-5.19,4.2-11.59,6.29-19.19,6.29-5.9,0-11.14-1.24-15.73-3.73-4.59-2.49-8.16-6.04-10.72-10.66-2.56-4.62-3.84-10.06-3.84-16.32s1.28-11.59,3.84-16.21Z"/><path class="e" d="M451.51,515.63v17.81h-9.06c-15.29,0-22.93-7.57-22.93-22.71v-19.73h-7.36v-17.38h7.36v-14.5h21.01v14.5h10.88v17.38h-10.88v20.05c0,1.64,.37,2.81,1.12,3.52,.75,.71,2.01,1.07,3.79,1.07h6.08Z"/></g><circle class="d" cx="1100.6" cy="141.83" r="375.57"/></svg>