<?xml version="1.0" encoding="UTF-8"?><svg id="a" xmlns="http://www.w3.org/2000/svg" viewBox="0 0 80 80"><defs><style>.b{fill:#00b4d8;}</style></defs><path class="b" d="M3.16,54.21V26.52H23.85v6.92H11.35v13.84h13.21v6.92H3.16Zm4.07-10.76v-6.49h15.15v6.49H7.24Z"/><path class="b" d="M29.18,54.21V24.94h8.03v29.26h-8.03Z"/><path class="b" d="M42.75,54.21V24.94h8.03v29.26h-8.03Z"/><path class="b" d="M63.47,54.56c-1.77,0-3.33-.47-4.71-1.4s-2.45-2.23-3.24-3.88c-.79-1.65-1.19-3.54-1.19-5.67s.39-4.07,1.17-5.71c.78-1.65,1.86-2.94,3.24-3.88,1.38-.94,2.99-1.4,4.8-1.4,.95,0,1.82,.13,2.61,.4,.79,.26,1.49,.63,2.1,1.11s1.13,1.02,1.58,1.64c.45,.62,.83,1.29,1.15,2l-1.62-.04v-4.67h7.87v21.16h-8.07v-5.18l1.78,.16c-.26,.76-.63,1.48-1.09,2.14-.46,.66-1.01,1.23-1.64,1.7s-1.34,.85-2.14,1.13c-.79,.28-1.66,.42-2.61,.42Zm2.29-6.52c.76,0,1.42-.17,1.96-.51,.54-.34,.95-.84,1.23-1.5,.28-.66,.42-1.46,.42-2.41s-.14-1.76-.42-2.43c-.28-.67-.69-1.18-1.23-1.52-.54-.34-1.19-.51-1.96-.51s-1.41,.17-1.94,.51c-.53,.34-.93,.85-1.21,1.52-.28,.67-.42,1.48-.42,2.43s.14,1.75,.42,2.41c.28,.66,.68,1.16,1.21,1.5,.53,.34,1.17,.51,1.94,.51Z"/></svg>