<?xml version="1.0" encoding="UTF-8"?><svg xmlns="http://www.w3.org/2000/svg" viewBox="0 0 370 2500"><defs><style>.c{opacity:.1;}.d{fill:#00b4d8;}</style></defs><g id="a"/><g id="b"><g class="c"><path class="d" d="M407.67,16.4c-.29,840.22-.29,1678.57,0,2518.47l2.74-7.09c-153.09,.36-305.24,.36-458.08,0l9.02,7.06c-.04-842.97-.04-1685.45,0-2527.46l-26.73,7.79C-39.73,8.92-15.41,27.45,9.75,35.48c19.05,6.09,40,6.08,59.05-.03,22.45-7.19,42.27-22.54,65.64-25.61,43.26-5.68,82.09,32,125.71,31.1,32.09-.66,61.3-22.24,93.38-21.24,28.28,.89,53.63,19.24,81.86,21.05"/><path class="d" d="M401.67,16.4c-.11,328.12-.18,656.25-.2,984.37-.02,327.96,0,655.92,.05,983.88,.03,183.4,.08,366.81,.14,550.21,0,7.14,9.45,7.65,11.79,1.6l2.74-7.09c1.43-3.7-2.2-7.6-5.79-7.6-152.69,.36-305.39,.36-458.08,0-4.75-.01-8.51,6.9-4.24,10.24l9.02,7.06c3.89,3.04,10.24,1.41,10.24-4.24-.02-329.71-.03-659.42-.03-989.13,0-327.88,0-655.76,0-983.64,0-184.89,.01-369.79,.02-554.68,0-3.85-3.84-6.88-7.6-5.79l-26.73,7.79c-7.49,2.18-4.33,13.03,3.19,11.57,24.39-4.74,45.98,11.18,67.98,18.97s44.68,8.15,66.2,1.32,39.57-20.9,61.55-24.95c20.79-3.83,41.17,3.84,60.09,11.63s35.9,15.71,55.4,18.23c20.58,2.66,39.76-3.32,59-9.98,23.44-8.11,44.61-13.68,69.15-6.45,20.1,5.92,38.67,15.09,59.8,17.02,7.69,.7,7.64-11.3,0-12-33.21-3.04-61.47-25.02-95.88-20.17s-66.01,27.09-103.44,17.14c-30.05-7.98-57.08-26.75-88.78-28.34-35.76-1.79-62.85,25.96-97.31,29.98-24.51,2.86-44.81-5.8-66.73-15.3-16.37-7.09-32.34-12.16-50.23-8.68l3.19,11.57,26.73-7.79-7.6-5.79c-.02,329.48-.03,658.96-.03,988.44,0,327.95,0,655.89,0,983.84,0,185.06,.01,370.12,.02,555.18l10.24-4.24-9.02-7.06-4.24,10.24c152.69,.36,305.39,.36,458.08,0l-5.79-7.6-2.74,7.09,11.79,1.6c-.11-328.05-.17-656.1-.2-984.15-.02-327.98,0-655.97,.06-983.95,.04-183.46,.08-366.92,.15-550.37,0-7.72-12-7.73-12,0h0Z"/></g></g></svg>