<?xml version="1.0" encoding="UTF-8"?><svg id="a" xmlns="http://www.w3.org/2000/svg" viewBox="0 0 1880 2000"><defs><style>.b{opacity:.1;}.c{fill:#00b4d8;}</style></defs><g class="b"><path class="c" d="M1903.37,129.33c-17.96-3.82-35.18-8.88-52.39-14.96-6.08-2.03-12.15-4.05-18.23-7.09-14.18-5.06-28.36-9.11-42.54-14.18-34.43-11.14-68.87-19.24-104.31-22.28-29.37-2.03-57.73,0-88.11,5.06-35.45,7.09-67.85,14.18-101.28,25.32-8.1,2.03-16.2,3.04-24.31,5.06-29.37,9.11-57.73,17.22-89.12,24.31-1.01,0-2.03,2.03-3.04,2.03-102.29,22.28-201.54,23.29-300.79-7.09-3.04,0-5.06,0-8.1-1.01-18.23-7.09-36.46-10.13-53.68-19.24-2.03-1.01-3.04,0-5.06-1.01-36.46-16.2-71.91-32.41-107.35-50.64-3.04-1.01-6.08-1.01-9.11-2.03-1.01,0-1.01-2.03-2.03-2.03-6.08-3.04-12.15-5.06-17.22-7.09-17.22-6.08-32.41-14.18-50.64-18.23-3.04-1.01-7.09-1.01-10.13-2.03-1.01,0-3.04-2.03-4.05-2.03-50.64-11.14-100.26-10.13-149.89,0-7.09,4.05-16.2,3.04-24.31,6.08-7.09,4.05-16.2,4.05-23.29,8.1-3.04,1.01-7.09,1.01-10.13,2.03-19.24,6.08-36.46,15.19-55.7,20.26-1.01,0-1.01,2.03-2.03,2.03-10.13,3.04-19.24,8.1-29.37,11.14-15.19,6.08-30.38,14.18-45.57,20.26-29.37,11.14-57.73,23.29-88.11,33.42-14.18,5.06-28.36,8.1-42.54,12.15-42.54,11.14-85.07,13.17-128.62,11.14-22.28-1.01-43.55-4.05-66.84-8.1-44.56-9.11-84.06-22.28-124.57-38.48-3.04-1.01-7.09-1.01-10.13-3.04-3.04-1.01-5.06-3.04-8.1-4.05-2.03-1.01-3.04,0-5.06-1.01-13.17-6.08-27.34-12.15-40.58-17.83l-.99-2.75c.04,646.47,.04,1292.6,.01,1939.16l-6.61,6.31c648.73,.36,1296.89,.36,1945.57,0l2.62,.18c-.09-632.8-.09-1265.77,.02-1898.8"/><path class="c" d="M1904.97,123.55c-32.31-7.04-62.34-19.61-93.66-29.71-33.33-10.75-66.38-21.09-101.15-26.17-65.93-9.64-132.31,3.1-195.63,21.63-7.7,2.25-15.28,5.11-23.08,6.94s-16.34,2.97-24.35,5.34c-16.36,4.83-32.64,9.83-49.13,14.22-31.92,8.51-63.21,16.6-96.05,21.14-69.16,9.56-139.91,7.89-207.98-8.24-32.28-7.65-63.26-16.85-94.15-28.93-31.53-12.33-62.39-26.75-92.83-41.83-7.01-3.47-14.31-8.32-21.82-10.5-2.19-.63-4.49-.81-6.47-1.63-2.76-1.14-5.55-3.26-8.48-4.49-13.78-5.75-27.83-11.18-41.79-16.47-7.15-2.71-14.47-5.14-21.96-6.72-5.9-1.24-11.04-3.29-16.85-4.58-16.36-3.63-33.25-5.67-49.96-6.7-131.31-8.11-247.16,64.9-366.87,107.11-66.03,23.28-134.52,32.4-204.3,24.96-34.62-3.69-68.5-11.28-101.74-21.56C57.16,108.25,28.73,95.55-.44,86.1c-7.72-2.5-15.13-6.51-22.58-9.75-3.32-1.44-6.74-3.35-10.21-4.41-3.85-1.17-3.97,.61-4.92-2.04-2.2-6.14-11.79-5.5-11.79,1.6,.02,255.36,.03,510.72,.03,766.07,0,255.35,0,510.7,0,766.04,0,71.83,0,143.65,0,215.48,0,35.92,0,71.83,0,107.75,0,17.29,0,34.59,0,51.88,0,8.51,1.96,19.69,0,27.94l1.39,.1-2.24,2.14c-1.04,1.41-2.73,2.61-4.01,3.83-3.79,3.62-.87,10.24,4.24,10.24,254.51,.14,509.02,.22,763.52,.25,253.8,.03,507.6,0,761.4-.07,71.1-.02,142.2-.05,213.3-.08,35.89-.02,71.77-.03,107.66-.05,33.87-.02,68.54-2.25,102.31,.13,3.24,.23,6-2.93,6-6-.04-247.29-.06-494.59-.07-741.88,0-247.33,0-494.67,.03-742,.01-138.31,.03-276.61,.06-414.92,0-7.72-12-7.73-12,0-.05,247.35-.07,494.7-.08,742.05-.01,247.32,0,494.64,.01,741.95,.01,138.27,.03,276.53,.05,414.8l6-6c-29.83-2.1-60.43-.15-90.35-.14-31.9,.02-63.8,.03-95.7,.05-63.79,.03-127.58,.05-191.38,.07-126.9,.04-253.81,.07-380.71,.09-253.8,.03-507.61,0-761.41-.07-142.88-.04-285.77-.11-428.65-.18l4.24,10.24c6.97-6.66,8.37-8.31,8.37-18.54,0-17.29,0-34.59,0-51.88,0-31.93,0-63.85,0-95.78,0-63.85,0-127.7,0-191.54,0-129.01,0-258.02,0-387.03,0-256.67,0-513.34-.01-770.01,0-144.98-.01-289.95-.02-434.93l-11.79,1.6c1.28,3.58,2.07,5.15,5.41,7.05,7.86,4.47,17.21,7.39,25.48,11.06,12.16,5.39,24.26,10.71,36.94,14.46,15.78,4.67,31.06,11.9,46.69,17.2,15.34,5.21,30.86,9.92,46.53,14.01,65.65,17.15,135.99,22.24,203.06,10.63s131.83-39.41,193.54-67.25c29.07-13.12,59.08-24.1,89.05-35.04,12.96-4.73,26.55-7.07,39.56-11.83,7.17-2.62,14.13-3.17,21.4-5.19,8.27-2.3,16.19-4.35,24.74-5.67,36.39-5.62,73.76-5.97,110.12,.07,29.48,4.9,56.96,16.05,84.92,26.67,5.96,2.26,11.04,5.63,16.63,8.1,3.48,1.54,7.53,1.62,11.11,3.18,4.67,2.03,9.16,4.64,13.73,6.91,15.96,7.93,32.07,15.57,48.25,23.03,29.68,13.68,59.07,25.65,90.16,35.62,63.25,20.29,130.32,30.46,196.87,28.5,33.78-1,67.47-4.88,100.71-10.93,32.85-5.98,65.46-15.72,97.59-25.24,15.6-4.62,31.6-7.47,47.12-12.04,16.6-4.89,33.04-9.97,49.88-14.02,34.01-8.17,68.28-15.13,103.35-16.18,70.24-2.1,134.46,22.88,199.7,45.16,16.07,5.49,32.35,10.14,48.95,13.76,7.53,1.64,10.74-9.93,3.19-11.57h0Z"/></g></svg>