<?xml version="1.0" encoding="UTF-8"?><svg xmlns="http://www.w3.org/2000/svg" viewBox="0 0 400 214.34"><defs><style>.f{fill:#caf0f8;}</style></defs><g id="a"/><g id="b"/><g id="c"/><g id="d"/><g id="e"><g><path class="f" d="M480.33,118.82c-2.03,.89-4.06,1.77-6.1,2.63l4.78-2.02c-20.55,8.65-41.76,15.74-63.39,21.15-6.27,1.57-12.58,3.02-18.99,3.89l5.32-.71c-3.69,.49-7.59,1.03-11.31,.66l5.32,.71c-.74-.1-1.43-.26-2.13-.51-2.66-.83-5.32-.95-7.98-.36-2.66,.12-5.14,.91-7.44,2.37-2.33,1.26-4.2,2.97-5.61,5.15-1.77,1.93-2.96,4.2-3.58,6.8-1.17,5.12-.91,10.87,2.02,15.41l3.13,4.05c2.5,2.48,5.44,4.19,8.83,5.14,4.76,1.69,10.18,1.45,15.15,.98s10.31-1.22,15.39-2.19c7-1.33,13.92-3.12,20.79-4.99,13.43-3.64,26.69-7.93,39.71-12.84,8.87-3.34,17.62-6.99,26.3-10.8,2.33-1.26,4.2-2.97,5.61-5.15,1.77-1.93,2.96-4.2,3.58-6.8,.83-2.66,.95-5.32,.36-7.98-.12-2.66-.91-5.14-2.37-7.44-2.75-4.27-6.85-8.03-11.95-9.19l-5.32-.71c-3.61,.01-6.97,.92-10.09,2.73h0Z"/><path class="f" d="M477.46,92.35c-14.86,7.76-30.25,14.47-45.68,20.99l4.78-2.02c-15.93,6.72-32.29,12.91-49.51,15.24l5.32-.71c-3.97,.52-7.96,.83-11.96,.9-5.18,.09-10.46,2.17-14.14,5.86-1.95,1.81-3.33,3.96-4.14,6.44-1.25,2.38-1.83,4.95-1.72,7.71,.23,5.17,1.93,10.54,5.86,14.14s8.76,5.95,14.14,5.86c16.43-.28,32.71-3.99,48.14-9.49,8.36-2.98,16.54-6.44,24.71-9.91,7.03-2.98,14.03-6.02,20.99-9.16,7.9-3.56,15.72-7.28,23.4-11.29,2.33-1.26,4.2-2.97,5.61-5.15,1.77-1.93,2.96-4.2,3.58-6.8,.83-2.66,.95-5.32,.36-7.98-.12-2.66-.91-5.14-2.37-7.44-2.75-4.27-6.85-8.03-11.95-9.19l-5.32-.71c-3.61,.01-6.97,.92-10.09,2.73h0Z"/><path class="f" d="M482.95,80.62c-1.96,1.27-4.04,2.31-6.18,3.22l4.78-2.02c-3.45,1.43-7.02,2.53-10.55,3.73-3.85,1.31-7.65,2.76-11.41,4.3-8.85,3.63-17.56,7.57-26.26,11.54-4.21,1.92-8.43,3.81-12.68,5.62l4.78-2.02c-22.89,9.66-47.09,15.57-70.37,24.16-8.1,2.99-16.12,6.29-23.93,9.96-2.33,1.26-4.2,2.97-5.61,5.15-1.77,1.93-2.96,4.2-3.58,6.8-.83,2.66-.95,5.32-.36,7.98,.12,2.66,.91,5.14,2.37,7.44,2.75,4.27,6.85,8.03,11.95,9.19l5.32,.71c3.61-.01,6.97-.92,10.09-2.73,2.51-1.18,5.03-2.3,7.58-3.38l-4.78,2.02c14.54-6.13,29.64-10.76,44.67-15.51,7.56-2.39,15.12-4.82,22.58-7.5,8.93-3.21,17.69-6.87,26.36-10.74s16.51-7.61,24.89-11.15l-4.78,2.02c5.29-2.22,10.64-4.25,16.08-6.05,2.5-.83,5.01-1.65,7.45-2.63,4.01-1.61,8.12-3.21,11.77-5.57,4.35-2.8,7.8-6.89,9.19-11.95,.83-2.66,.95-5.32,.36-7.98-.12-2.66-.91-5.14-2.37-7.44-2.75-4.27-6.85-8.03-11.95-9.19s-10.87-.92-15.41,2.02h0Z"/><path class="f" d="M329.17,135.11c-6.29,2.4-12.83,3.96-19.5,4.85l5.32-.71c-13.05,1.7-26.27,.94-39.31-.49-13.85-1.51-27.63-3.64-41.48-5.12-8.02-.85-16.06-1.52-24.12-1.83v40l79.57-1.17c26.33-.39,52.71-.58,78.98-2.62,8.92-.69,17.78-1.68,26.64-2.89,7.13-.97,14.22-2.28,21.17-4.19l4.78-2.02c2.33-1.26,4.2-2.97,5.61-5.15,1.24-1.25,2.1-2.72,2.57-4.41,1.25-2.38,1.83-4.95,1.72-7.71l-.71-5.32-2.02-4.78c-1.26-2.33-2.97-4.2-5.15-5.61-1.93-1.77-4.2-2.96-6.8-3.58-16.78-3.18-33.76-3.94-50.79-3.52-15.44,.38-30.87,1.47-46.32,1.39-8.6-.05-17.21-.47-25.74-1.6l5.32,.71c-7.03-.95-13.97-2.38-20.76-4.44v38.57c3.09-.84,6.22-1.43,9.39-1.86l-5.32,.71c8.9-1.17,17.92-1.53,26.87-2.17l27.09-1.94c18.1-1.3,36.19-2.77,54.33-3.33,10.25-.32,20.51-.31,30.76,.21,2.75,.1,5.32-.47,7.71-1.72,2.48-.81,4.63-2.19,6.44-4.14,1.95-1.81,3.33-3.96,4.14-6.44,1.25-2.38,1.83-4.95,1.72-7.71-.23-5.17-1.93-10.54-5.86-14.14l-4.05-3.13c-3.12-1.81-6.48-2.72-10.09-2.73-19.52-1.01-39.06-.08-58.54,1.24-19.46,1.31-38.91,2.77-58.37,4.16-5.39,.39-10.79,.72-16.18,1.19-6.92,.61-13.96,1.38-20.68,3.22l-4.78,2.02c-2.33,1.26-4.2,2.97-5.61,5.15-1.24,1.25-2.1,2.72-2.57,4.41-1.25,2.38-1.83,4.95-1.72,7.71l.71,5.32,2.02,4.78c1.26,2.33,2.97,4.2,5.15,5.61,1.93,1.77,4.2,2.96,6.8,3.58,9.66,2.94,19.63,4.49,29.65,5.59,8.49,.94,17.04,1.21,25.58,1.16,17.14-.09,34.25-1.45,51.39-1.51,9.66-.03,19.32,.36,28.9,1.62l-5.32-.71c2.71,.37,5.41,.8,8.09,1.31v-38.57c-7.1,1.95-14.35,3.27-21.64,4.25l5.32-.71c-23,3.04-46.32,3.77-69.5,4.24s-46.91,.73-70.36,1.07l-39.54,.58c-5.18,.08-10.46,2.18-14.14,5.86-1.95,1.81-3.33,3.96-4.14,6.44-1.25,2.38-1.83,4.95-1.72,7.71,.23,5.17,1.93,10.54,5.86,14.14,4,3.67,8.66,5.64,14.14,5.86,17.28,.68,34.44,2.98,51.57,5.23,15.73,2.06,31.66,4.05,47.55,2.82,10.37-.81,20.85-2.45,30.6-6.17,2.6-.62,4.87-1.81,6.8-3.58,2.18-1.41,3.89-3.28,5.15-5.61,1.46-2.3,2.25-4.77,2.37-7.44,.6-2.66,.48-5.32-.36-7.98-1.57-4.84-4.57-9.51-9.19-11.95l-4.78-2.02c-3.54-.95-7.09-.95-10.63,0h0Z"/><path class="f" d="M202.12,177.73l.24-.03-5.32-.71,.22,.04-4.78-2.02,.2,.1-4.05-3.13,.17,.15-3.13-4.05c.11,.13,.19,.26,.25,.42l-2.02-4.78,.07,.25-.71-5.32c.04,.17,.05,.35,.03,.52l.71-5.32c-.02,.17-.07,.34-.15,.49l2.02-4.78-.15,.21,3.13-4.05-.25,.23,4.05-3.13c-.18,.14-.37,.25-.58,.33l4.78-2.02c-.34,.11-.66,.18-1.01,.23l5.32-.71c-3.47,.27-7.05,.03-10.53,.03h-10.96l-21.68-.04-43.61-.06-24.42-.03v40c18.32-1.12,36.61-2.59,54.87-4.44,19.87-2.01,39.7-4.49,59.47-7.31,10.26-1.47,20.51-3.06,30.74-4.77l4.78-2.02c2.33-1.26,4.2-2.97,5.61-5.15,1.24-1.25,2.1-2.72,2.57-4.41,1.25-2.38,1.83-4.95,1.72-7.71l-.71-5.32-2.02-4.78c-1.26-2.33-2.97-4.2-5.15-5.61-1.93-1.77-4.2-2.96-6.8-3.58-20.16-4.28-40.63-7.28-61.16-9.13-4.85-.44-9.71-.83-14.55-1.47l5.32,.71c-6.38-.86-12.7-2.19-18.66-4.69l4.78,2.02c-1.08-.46-2.13-.96-3.17-1.49l-10.09,37.27c16.64,1.7,33.29,3.4,49.98,4.67s33.37,2.12,50.09,2.12c4.57,0,9.15-.04,13.72-.21,3.76-.14,7.52-.6,11.22-1.25s7.11-2.18,10.32-3.83l4.05-3.13,3.13-4.05,2.02-4.78c.83-2.66,.95-5.32,.36-7.98,0-1.81-.46-3.49-1.37-5.05-.48-1.69-1.33-3.16-2.57-4.41-.89-1.5-2.08-2.7-3.59-3.59-1.93-1.77-4.2-2.96-6.8-3.58-19.66-4.9-40.07-3-60.01-5.64l5.32,.71c-9.9-1.33-19.69-3.32-29.51-5.1-11.41-2.07-22.89-3.59-34.42-4.72-5.57-.54-11.15-1.08-16.7-1.82l5.32,.71c-7.43-1.01-14.72-2.53-21.9-4.72-7.09-2.16-14.09-4.66-21.33-6.3l-5.32,39.29c4.5-.26,8.98,0,13.44,.59l-5.32-.71c12.18,1.69,23.82,5.8,35.72,8.74,13.74,3.39,27.81,4.41,41.9,5.05,7.21,.33,14.43,.69,21.59,1.65l-5.32-.71c3.72,.51,7.42,1.18,11.07,2.09l5.32,.71c2.75,.1,5.32-.47,7.71-1.72,1.69-.48,3.16-1.33,4.41-2.57,2.18-1.41,3.89-3.28,5.15-5.61l2.02-4.78,.71-5.32c.1-2.75-.47-5.32-1.72-7.71-.81-2.48-2.19-4.63-4.14-6.44-4.29-4.92-9.96-7.52-15.85-9.88-3.09-1.23-6.32-2.09-9.52-2.97-7.28-2-14.64-3.73-22-5.44-15.05-3.49-30.1-6.97-45.14-10.45l-25.74-5.96c-5.19-1.2-10.75-.71-15.41,2.02-2.33,1.26-4.2,2.97-5.61,5.15-1.77,1.93-2.96,4.2-3.58,6.8-1.17,5.12-.91,10.87,2.02,15.41s6.82,7.57,11.95,9.19c15.46,4.89,30.94,9.79,46.69,13.66,17.48,4.3,35.25,6.78,53.12,8.86,9.25,1.08,18.52,2.06,27.76,3.29l-5.32-.71c18.45,2.48,36.71,6.18,54.65,11.12,2.66,.83,5.32,.95,7.98,.36,2.66-.12,5.14-.91,7.44-2.37,2.33-1.26,4.2-2.97,5.61-5.15,1.77-1.93,2.96-4.2,3.58-6.8,1.17-5.12,.91-10.87-2.02-15.41s-6.83-7.78-11.95-9.19c-12.15-3.35-24.46-6.14-36.87-8.36-14.1-2.51-28.34-4.21-42.57-5.83-7.14-.81-14.29-1.62-21.42-2.58l5.32,.71c-10.87-1.47-21.65-3.4-32.32-5.94s-21.07-5.55-31.48-8.74c-5.87-1.8-11.71-3.65-17.56-5.5l-10.63,38.57c27.22,6.3,54.53,12.34,81.68,18.96,3.75,.91,7.49,1.87,11.21,2.89,3.33,.91,6.69,1.79,9.88,3.12l-4.78-2.02c1.56,.67,3.04,1.46,4.41,2.47l-4.05-3.13c.82,.64,1.57,1.33,2.25,2.12l19.46-33.43c-10.69-2.66-21.81-3.63-32.79-4.2-9.42-.49-18.87-.72-28.24-1.96l5.32,.71c-16.69-2.28-32.37-8.99-49.04-11.34-6.33-.89-12.58-1.7-18.98-1.33-2.75-.1-5.32,.47-7.71,1.72-2.48,.81-4.63,2.19-6.44,4.14l-3.13,4.05c-1.46,2.3-2.25,4.77-2.37,7.44-.48,1.77-.48,3.54,0,5.32,.12,2.66,.91,5.14,2.37,7.44,2.75,4.27,6.85,8.04,11.95,9.19,9.56,2.16,18.67,5.84,28.17,8.22,11.18,2.8,22.76,3.93,34.21,5.05,5.58,.55,11.16,1.07,16.72,1.81l-5.32-.71c11.82,1.6,23.48,4.13,35.23,6.12,7.47,1.26,14.99,2.35,22.53,3.04,5.88,.54,11.79,.71,17.69,.9,6.68,.22,13.36,.49,19.98,1.38l-5.32-.71c3.14,.43,6.26,1.01,9.34,1.78l-4.78-36.55c-.39,.2-.78,.39-1.18,.56l4.78-2.02c-1.75,.72-3.57,1.15-5.44,1.42l5.32-.71c-3.67,.48-7.41,.46-11.1,.52s-7.61,.07-11.42,.05c-7.78-.06-15.55-.3-23.32-.67-15.55-.74-31.07-2.02-46.57-3.5-8.74-.83-17.47-1.72-26.21-2.61l-5.32,.71c-2.6,.62-4.87,1.81-6.8,3.58-1.5,.89-2.7,2.08-3.59,3.59-1.77,1.93-2.96,4.2-3.58,6.8l-.71,5.32,.71,5.32c.62,2.6,1.81,4.87,3.58,6.8,1.41,2.18,3.28,3.89,5.61,5.15,8.09,4.13,16.55,6.77,25.51,8.04,9.21,1.31,18.45,2.02,27.7,2.99,4.69,.49,9.37,1.05,14.04,1.68l-5.32-.71c11.76,1.59,23.45,3.62,35.06,6.08v-38.57c-13.8,2.31-27.63,4.39-41.5,6.26l5.32-.71c-25.45,3.41-50.99,6.09-76.59,8.05-7.22,.55-14.45,1.05-21.67,1.49-2.75-.1-5.32,.47-7.71,1.72-2.48,.81-4.63,2.19-6.44,4.14-1.95,1.81-3.33,3.96-4.14,6.44-1.25,2.38-1.83,4.95-1.72,7.71,.23,5.17,1.93,10.54,5.86,14.14s8.72,5.85,14.14,5.86c32.89,.04,65.78,.09,98.68,.13h6.98c3.8,.01,7.45,.11,11.21-.79,9.55-2.27,16.5-11.22,16.47-20.99-.01-5.6-2.28-11.1-6.21-15.07-1.3-1.32-2.81-2.46-4.42-3.38-2.77-1.6-7.32-3.1-10.56-2.75-2.75-.1-5.32,.47-7.71,1.72-2.48,.81-4.63,2.19-6.44,4.14-1.95,1.81-3.33,3.96-4.14,6.44-1.25,2.38-1.83,4.95-1.72,7.71,.23,5.17,1.93,10.54,5.86,14.14l4.05,3.13c3.12,1.81,6.48,2.72,10.09,2.73h0Z"/><path class="f" d="M76.22,169.68l6.06,.72-5.32-39.29c-16.76,3.26-33.56,6.4-50.48,8.68l5.32-.71c-16.54,2.22-33.21,3.62-49.91,3.45-4.75-.05-9.49-.23-14.22-.54v40c21.04-2.25,42.04-5.03,62.95-8.32,19.3-3.04,38.53-6.56,57.66-10.56,10.84-2.27,21.65-4.69,32.42-7.26l4.78-2.02,4.05-3.13,3.13-4.05c1.46-2.3,2.25-4.77,2.37-7.44,.48-1.77,.48-3.54,0-5.32,0-1.81-.46-3.49-1.37-5.05-.48-1.69-1.33-3.16-2.57-4.41-1.41-2.18-3.28-3.89-5.61-5.15-3.29-1.79-6.9-3.38-10.6-4.12s-7.42-1.24-11.14-1.23c-6.1,0-12.2,1.18-18.22,1.99l5.32-.71c-23.99,3.21-48.3,3.91-72.44,2.11-6.9-.51-13.77-1.24-20.63-2.15l5.32,.71c-9.11-1.23-18.17-2.8-27.16-4.74-4.45-.96-8.89-2.01-13.3-3.14s-8.91-2.1-13.12-3.68l4.78,2.02c-.66-.28-1.26-.62-1.84-1.03l4.05,3.13c-.44-.35-.83-.71-1.18-1.15l3.13,4.05c-.12-.16-.22-.33-.31-.51l2.02,4.78c-.11-.27-.18-.49-.22-.78l.71,5.32v-.26l-.71,5.32c.01-.18,.06-.35,.13-.52l-2.02,4.78c.08-.18,.18-.35,.31-.51l-3.13,4.05,.24-.24-4.05,3.13c.29-.22,.55-.36,.88-.5l-4.78,2.02c1.66-.56,3.45-.79,5.18-1.03l-5.32,.71c9.05-1.18,18.29-.45,27.38-.36,9.42,.09,18.84,.04,28.26-.16,18.83-.4,37.66-1.38,56.43-2.95,5.16-.43,10.31-.9,15.46-1.42,3.93-.4,7.9-.82,11.77-1.64s7.61-2.4,11.06-4.2c6.16-3.21,9.91-10.49,9.91-17.27-.01-3.61-.92-6.97-2.73-10.09-1.78-3.01-4.17-5.4-7.18-7.18-4.96-3.74-10.77-6.24-16.58-8.34-4.31-1.55-8.81-2.54-13.34-3.19-6.39-.92-12.75-1.62-19.19-1.93-4.73-.23-9.46-.34-14.19-.55-6.25-.28-12.48-.85-18.69-1.67l5.32,.71c-19.08-2.57-37.74-7.39-56.34-12.22l-5.32,39.29c32.33,.47,64.65,2.01,96.88,4.62,9.09,.74,18.17,1.56,27.25,2.47,2.75,.1,5.32-.47,7.71-1.72,2.48-.81,4.63-2.19,6.44-4.14l3.13-4.05c1.46-2.3,2.25-4.77,2.37-7.44,.48-1.77,.48-3.54,0-5.32-.12-2.66-.91-5.14-2.37-7.44-2.7-4.19-6.88-8.2-11.95-9.19L17.3,57.74l-71.04-13.9-20.09-3.93c-3.16-.62-6.32-1.32-9.5-1.81s-6.24-1.07-9.37-1.08c-1.65,0-3.25,.27-4.89,.49s-3.25,.37-4.84,.83c-6.72,1.97-12.09,7.16-13.97,13.97-.95,3.54-.95,7.09,0,10.63,.95,3.39,2.66,6.33,5.14,8.83,2.12,2.53,5.04,4.74,8.07,6.11,3.23,1.46,6.3,2.8,9.73,3.55,4.35,.94,8.77,1.59,13.17,2.19,10.81,1.48,21.68,2.51,32.49,3.96l-5.32-.71c23.45,3.18,46.24,9.72,68.69,17.02,6.38,2.07,12.74,4.21,19.09,6.34,2.66,.83,5.32,.95,7.98,.36,2.66-.12,5.14-.91,7.44-2.37,2.33-1.26,4.2-2.97,5.61-5.15,1.77-1.93,2.96-4.2,3.58-6.8,1.17-5.12,.91-10.87-2.02-15.41l-3.13-4.05c-2.5-2.48-5.44-4.19-8.83-5.14-16.01-5.78-32.05-11.54-48.46-16.09-17.8-4.94-36.19-8.42-54.67-9.32-4.18-.21-8.37-.26-12.55-.13-5.7,.17-11.3,.87-16.94,1.66-3.9,.55-7.77,1.36-11.54,2.53-3.39,1.06-6.62,2.48-9.89,3.87-1.81,.77-3.58,1.61-5.29,2.57-2.9,1.62-5.55,3.73-8.08,5.85-.64,.53-1.25,1.1-1.81,1.72-1.64,1.8-3.18,3.78-4.5,5.81s-2.12,4.35-2.95,6.53c-.88,2.33-1.03,4.93-1.27,7.37-.17,1.64,.14,3.13,.36,4.79s.32,3.07,.88,4.59c.77,2.07,1.54,4.37,2.8,6.23s2.67,3.83,4.3,5.44,3.54,2.94,5.36,4.24c.62,.44,1.25,.85,1.93,1.2,2.75,1.47,5.71,2.69,8.68,3.62,1.47,.46,2.96,.8,4.48,1.06,10.07,1.75,20.26,2.65,30.46,3.17,8.58,.44,17.17,.71,25.73,1.53,2.13,.21,4.26,.45,6.38,.73l-5.32-.71c1.96,.27,3.92,.57,5.88,.92,1.7,.31,3.48,.55,5.1,1.17l-4.78-2.02c.51,.22,.98,.47,1.42,.81l-4.05-3.13c.16,.13,.3,.27,.44,.42l-3.13-4.05c.19,.25,.31,.46,.43,.74l-2.02-4.78,.07,.28-.71-5.32c.04,.2,.05,.4,.03,.6l.71-5.32c-.03,.25-.1,.5-.21,.73l2.02-4.78c-.11,.23-.25,.45-.41,.65l3.13-4.05c-.99,1.17-2.23,2.15-3.43,3.09l4.05-3.13c-3.9,2.99-8.27,5.24-12.79,7.14l4.78-2.02c-19.3,8.05-40.21,10.71-60.39,15.67-5.77,1.42-11.48,3.03-17.09,4.99-2.6,.62-4.87,1.81-6.8,3.58-2.18,1.41-3.89,3.28-5.15,5.61l-2.02,4.78c-.83,2.66-.95,5.32-.36,7.98,0,1.81,.46,3.49,1.37,5.05,.81,2.48,2.19,4.63,4.14,6.44,3.72,3.41,8.91,6.31,14.14,5.86,21.11-1.81,42.31-2.5,63.49-2.02,5.86,.13,11.73,.32,17.54,1.1l-5.32-.71c2.52,.35,5.25,.63,7.62,1.6l-4.78-2.02c.41,.19,.77,.4,1.13,.67l-4.05-3.13c.17,.13,.32,.28,.45,.44l-3.13-4.05c.2,.27,.34,.51,.48,.83l-2.02-4.78c.08,.22,.13,.45,.15,.69l-.71-5.32c.02,.23,0,.45-.03,.67l.71-5.32c-.04,.22-.1,.44-.19,.65l2.02-4.78c-.2,.45-.45,.84-.75,1.23l3.13-4.05c-.42,.49-.88,.93-1.38,1.34l4.05-3.13c-4.21,3.26-9.29,5.7-14.16,7.78l4.78-2.02c-6.95,2.93-14.25,4.92-21.72,5.95l5.32-.71c-7.34,.97-14.76,1.01-22.1,.06l5.32,.71c-2.07-.28-4.13-.63-6.18-1.06v38.57l47.98-9.09c2.6-.62,4.87-1.81,6.8-3.58,2.18-1.41,3.89-3.28,5.15-5.61,1.46-2.3,2.25-4.77,2.37-7.44,.6-2.66,.48-5.32-.36-7.98-1.57-4.84-4.57-9.51-9.19-11.95l-4.78-2.02c-3.54-.95-7.09-.95-10.63,0l-47.98,9.09-4.78,2.02c-2.33,1.26-4.2,2.97-5.61,5.15-1.24,1.25-2.1,2.72-2.57,4.41-1.25,2.38-1.83,4.95-1.72,7.71l.71,5.32,2.02,4.78c1.26,2.33,2.97,4.2,5.15,5.61,1.93,1.77,4.2,2.96,6.8,3.58,6.7,1.41,13.6,2.31,20.46,2.46,6.82,.15,13.59-.67,20.32-1.73,5.16-.81,10.25-2.1,15.18-3.85,6.33-2.25,12.6-4.94,18.43-8.3,3.45-1.99,6.91-4.24,9.82-6.95,1.61-1.5,2.98-3.37,4.14-5.18,.13-.21,.26-.4,.38-.62,.73-1.34,1.71-3.63,2.16-5.1,.35-1.14,.35-1.88,.54-3.31,.16-1.21,.37-2.19,.39-3.33l-.36-2.66c-.12-1-.26-2-.41-3-.26-.95-.63-1.86-1.11-2.73-.37-.9-.75-1.79-1.14-2.69-3.57-6.08-9.71-10.16-16.55-11.59-4.48-.94-9.06-1.51-13.61-1.96-5.95-.59-11.94-.68-17.91-.78s-12.2-.1-18.3,0c-13.85,.21-27.69,.92-41.48,2.1l5.32,39.29c21.63-7.55,44.65-9.72,66.46-16.64,6.8-2.16,13.54-4.77,19.95-7.9,2.39-1.17,4.72-2.48,6.91-4,4.64-3.21,9.64-6.87,12.57-11.85,2.94-5.01,4.15-11.72,2.31-17.35s-5.28-10.34-10.45-13.39c-3.72-2.19-7.48-3.12-11.61-3.84-7.54-1.31-15.17-2.19-22.81-2.73-13.33-.94-26.73-.97-39.99-2.74l5.32,.71c-3.96-.54-7.94-1.1-11.66-2.64l4.78,2.02c-1.32-.57-2.56-1.24-3.72-2.09l4.05,3.13c-.74-.57-1.4-1.2-1.99-1.92l3.13,4.05c-.43-.57-.79-1.15-1.09-1.79l2.02,4.78c-.28-.68-.47-1.35-.59-2.07l.71,5.32c-.08-.72-.08-1.42,0-2.13l-.71,5.32c.11-.71,.3-1.38,.56-2.06l-2.02,4.78c.39-.9,.88-1.72,1.46-2.51l-3.13,4.05c.95-1.21,2.05-2.26,3.25-3.21l-4.05,3.13c2.65-2.02,5.67-3.51,8.72-4.8l-4.78,2.02c5.54-2.29,11.38-3.67,17.3-4.48l-5.32,.71c12.87-1.68,26.06-1.01,38.89,.7l-5.32-.71c22.15,3,43.59,9.6,64.64,16.93,5.95,2.07,11.88,4.21,17.8,6.35l10.63-38.57c-14.68-4.93-29.37-9.85-44.29-14.04-7.36-2.07-14.78-3.96-22.26-5.57-9.11-1.97-18.29-3.37-27.53-4.59-8.72-1.15-17.49-1.94-26.21-3.11l5.32,.71c-3.23-.44-6.44-.93-9.65-1.51-2.69-.49-5.41-.97-7.96-1.99l4.78,2.02c-1.05-.44-2.02-.97-2.94-1.65l4.05,3.13c-.59-.47-1.12-.98-1.61-1.56l-8.83,33.43c.72-.21,1.44-.37,2.18-.47l-5.32,.71c1.8-.21,3.58-.12,5.38,.1l-5.32-.71c5.62,.78,11.2,2.1,16.77,3.19l16.66,3.26,33.81,6.61,67.61,13.23,38.22,7.48,5.32-39.29c-32.18-3.21-64.46-5.36-96.78-6.43-9.12-.3-18.23-.52-27.35-.65-2.75-.1-5.32,.47-7.71,1.72-2.48,.81-4.63,2.19-6.44,4.14l-3.13,4.05c-1.46,2.3-2.25,4.77-2.37,7.44-.48,1.77-.48,3.54,0,5.32,.12,2.66,.91,5.14,2.37,7.44,2.8,4.35,6.83,7.86,11.95,9.19,13.93,3.62,27.87,7.23,42.01,9.9,14.95,2.82,30,4.44,45.2,4.97,6.75,.24,13.51,.48,20.21,1.37l-5.32-.71c5.7,.77,11.34,2.03,16.67,4.24l-4.78-2.02c3.37,1.42,6.54,3.21,9.46,5.41v-34.54c-.51,.27-1.03,.51-1.56,.74l4.78-2.02c-2.55,1.05-5.22,1.61-7.94,1.99l5.32-.71c-10.04,1.33-20.22,1.98-30.32,2.69-10.3,.73-20.62,1.28-30.94,1.65s-20.65,.57-30.98,.6c-5.12,.01-10.25-.02-15.37-.1s-10.11-.28-15.16-.17c-2.44,.05-4.88,.19-7.31,.49-2.78,.34-5.59,.67-8.35,1.17s-5.09,1.49-7.63,2.68c-3.49,1.63-6.64,5-8.54,8.29-2.06,3.57-2.1,4.63-2.57,8.08-.42,3.15-.43,5.44,.47,8.76,.19,.72,1.58,3.76,1.12,2.65,.59,1.39,.71,1.82,1.23,2.77,.91,1.65,2.27,3.25,3.62,4.66s3.19,2.67,4.82,3.8c.44,.3,.88,.59,1.36,.82,5.69,2.72,11.84,4.22,17.92,5.79,4.79,1.24,9.61,2.37,14.45,3.41,20.69,4.41,41.86,7.15,63,8.08,19.62,.87,39.32,.09,58.81-2.35,3.96-.5,7.91-1.05,11.86-1.59l-5.32,.71c4.5-.6,9.05-1.1,13.58-.54l-5.32-.71c1.92,.27,3.78,.73,5.58,1.45l-4.78-2.02c.64,.28,1.26,.58,1.88,.91l4.78-36.55c-29.94,7.15-60.15,13.13-90.56,17.9-8.53,1.34-17.07,2.58-25.62,3.73l5.32-.71c-10.49,1.41-21,2.67-31.53,3.8-2.75-.1-5.32,.47-7.71,1.72-2.48,.81-4.63,2.19-6.44,4.14-1.95,1.81-3.33,3.96-4.14,6.44-1.25,2.38-1.83,4.95-1.72,7.71,.23,5.17,1.93,10.54,5.86,14.14l4.05,3.13c3.12,1.81,6.48,2.72,10.09,2.73,31.73,2.1,63.56-2.1,94.75-7.59,8.41-1.48,16.79-3.08,25.17-4.71,2.6-.62,4.87-1.81,6.8-3.58,2.18-1.41,3.89-3.28,5.15-5.61l2.02-4.78c.83-2.66,.95-5.32,.36-7.98,0-1.81-.46-3.49-1.37-5.05-.81-2.48-2.19-4.63-4.14-6.44l-4.05-3.13c-3.12-1.81-6.48-2.72-10.09-2.73l-6.06-.72c-2.75-.1-5.32,.47-7.71,1.72-2.48,.81-4.63,2.19-6.44,4.14-1.95,1.81-3.33,3.96-4.14,6.44-1.25,2.38-1.83,4.95-1.72,7.71,.23,5.17,1.93,10.54,5.86,14.14l4.05,3.13c3.12,1.81,6.48,2.72,10.09,2.73h0Z"/><path class="f" d="M-28.7,29.36c-17.35-3.19-34.91-5.44-52.5-6.64V62.72h24.27l-5.32-39.29c-1.72,.55-3.46,.94-5.25,1.21l5.32-.71c-2.7,.33-5.38,.33-8.08,0l5.32,.71c-2.69-.38-5.28-1.07-7.8-2.09l4.78,2.02c-1.66-.72-3.24-1.55-4.76-2.52l-10.09,37.27,13.46,1.75c4.51,.59,11.17-2.62,14.14-5.86s4.9-7.02,5.5-11.48,.03-9.03-2.37-12.75c-2.65-4.11-6.92-8.37-11.95-9.19l-74.11-12.02c-2.66-.83-5.32-.95-7.98-.36-2.66,.12-5.14,.91-7.44,2.37-4.15,2.43-8.11,7.18-9.19,11.95-1.17,5.12-.91,10.87,2.02,15.41,2.65,4.11,6.92,8.36,11.95,9.19l25.02,4.11,5.32-39.29L-207.77,4.28l5.32,39.29c.52-.09,1.04-.16,1.56-.24l-5.32,.71c5.75-.76,11.52-.77,17.28-.03l-5.32-.71c2.87,.4,5.69,.98,8.48,1.73l5.32-39.29C-210.6,2.18-240.95,.34-271.32,.26c-30.22-.08-60.45,1.57-90.49,4.95-9.94,1.12-19.86,2.4-29.75,3.85s-19.13,4.8-26.03,11.98c-3.44,3.58-6.09,9.06-5.86,14.14s1.8,10.91,5.86,14.14c4.89,3.9,8.86,6.47,14.93,8.37,4.15,1.3,8.63,1.71,12.95,2,6.62,.43,13.29,.14,19.92,.36,14.34,.49,28.65,1.82,42.87,3.72l-5.32-.71c18.94,2.57,37.7,6.21,56.37,10.3,18.39,4.03,36.74,8.3,55.37,11.06,19.88,2.94,40.04,4.87,60.09,2.57,5.17-.59,10.57-1.1,15.45-3.03,3.01-1.19,6.12-2.34,8.78-4.23,4.13-2.94,7.42-5.9,10.19-10.21,6.15-9.58,4.41-21.94-3.34-29.99-3.15-3.27-7.46-5.35-11.68-6.78-3.13-1.06-6.52-1.28-9.79-1.57-19.51-1.73-38.89,4.29-58.39,1.85l5.32,.71c-3.88-.53-7.67-1.41-11.37-2.72l-5.32,39.29c24.54-2.94,49.37-2.75,73.86,.53l-5.32-.71c9.57,1.31,19.06,3.07,28.45,5.31s18.52,4.84,27.82,7.11c10.57,2.59,21.28,4.57,32.13,5.59s21.59,.16,32.28-1.88c9.9-1.89,19.56-4.92,29.55-6.34l-5.32,.71c4.97-.66,9.95-.89,14.93-.24l-5.32-.71c3.08,.46,6.05,1.24,8.95,2.39l10.63-38.57c-8.99-3.05-17.98-6.1-26.98-9.15-4.03-1.37-8.07-3.06-12.22-4.01-3.15-.73-6.61-1.37-9.87-1.01-4.65,.51-7.17,.99-11.46,3.13-2.09,1.04-4.01,2.7-5.71,4.26-3.68,3.37-5.86,9.25-5.86,14.14s2.18,10.76,5.86,14.14c8.28,7.6,20.03,7.55,28.28,0l.44-.4-4.05,3.13c.49-.35,.93-.6,1.49-.84l-4.78,2.02c.36-.13,.73-.23,1.1-.29l-5.32,.71c1.02-.13,1.99-.11,3,0l-5.32-.71c3.1,.49,6.05,1.69,9.01,2.69l10.71,3.63c7.01,2.38,14.02,4.75,21.02,7.13,4.74,1.61,11.18,.46,15.41-2.02s8.11-7.18,9.19-11.95c1.17-5.12,.91-10.87-2.02-15.41l-3.13-4.05c-2.5-2.48-5.44-4.19-8.83-5.14-12.35-4.93-26.09-3.79-38.85-1.45-10.29,1.89-20.29,5.1-30.67,6.53l5.32-.71c-8.85,1.14-17.74,.85-26.57-.31l5.32,.71c-19.76-2.7-38.7-9.29-58.19-13.33-21.28-4.41-43.14-6.79-64.89-6.74-11.41,.03-22.8,.74-34.13,2.1-2.75-.1-5.32,.47-7.71,1.72-2.48,.81-4.63,2.19-6.44,4.14-3.03,3.3-4.9,7.02-5.5,11.48s-.03,9.03,2.37,12.75c2.94,4.56,6.83,7.38,11.95,9.19,12.82,4.54,26.88,4.52,40.26,3.31,12.06-1.09,24.32-3.03,36.43-1.56l-5.32-.71c1.25,.19,2.43,.5,3.6,.98l-4.78-2.02c.62,.29,1.19,.62,1.75,1.03l-4.05-3.13c.37,.32,.67,.63,.97,1.02l-3.13-4.05c.18,.25,.32,.52,.43,.8l-2.02-4.78c.11,.29,.19,.59,.22,.91l-.71-5.32c.04,.37,.03,.74-.04,1.1l.71-5.32c-.08,.4-.2,.79-.38,1.16l2.02-4.78c-.3,.57-.62,1.06-1.01,1.57l3.13-4.05c-.8,.95-1.66,1.78-2.64,2.54l4.05-3.13c-1.17,.84-2.4,1.52-3.72,2.1l4.78-2.02c-2.95,1.21-6.03,1.85-9.17,2.28l5.32-.71c-17.12,2.17-34.57,1.18-51.63-1.08l5.32,.71c-24.17-3.27-47.83-9.26-71.68-14.23-25.29-5.27-50.92-9.38-76.7-11.31-6.81-.51-13.64-.85-20.47-1-6.2-.14-12.5,.25-18.67-.56l5.32,.71c-2.12-.32-4.16-.81-6.16-1.6l4.78,2.02c-1.37-.6-2.62-1.3-3.82-2.18l4.05,3.13-.5-.4v28.28c.59-.61,1.2-1.17,1.86-1.71l-4.05,3.13c1.36-1.01,2.8-1.81,4.35-2.49l-4.78,2.02c5.88-2.36,12.42-2.87,18.65-3.71l-5.32,.71c51.21-6.85,103.06-8.7,154.62-5.47,14.53,.91,29.04,2.23,43.5,3.93,4.55,.54,11.13-2.58,14.14-5.86s4.9-7.02,5.5-11.48c1.3-9.68-4.65-19.33-14.33-21.94-6.14-1.65-12.56-2.58-18.9-2.92s-12.73,.46-19.06,1.46c-4.44,.7-9.91,5.33-11.95,9.19s-2.98,8.2-2.37,12.75c.56,4.2,2.29,8.53,5.5,11.48l4.05,3.13c3.12,1.81,6.48,2.72,10.09,2.73l89.32,8.87c4.6,.46,11.08-2.52,14.14-5.86s4.9-7.02,5.5-11.48,.03-9.03-2.37-12.75c-2.65-4.11-6.92-8.36-11.95-9.19l-25.02-4.11-10.63,38.57,74.11,12.02,5.32-39.29-13.46-1.75-5.32,.71c-2.6,.62-4.87,1.81-6.8,3.58-3.3,2.55-6.21,6.2-7.17,10.39-2.03,8.92,1.45,17.63,9.19,22.59,11.92,7.62,27.82,9.7,41.3,5.42,9.54-3.03,15.67-11.92,14.33-21.94s-9.62-17.34-19.64-17.34h-24.27c-5.13,0-10.51,2.23-14.14,5.86s-6.08,9.16-5.86,14.14,1.93,10.54,5.86,14.14,8.62,5.48,14.14,5.86c9.01,.61,17.99,1.52,26.93,2.7l-5.32-.71c6.78,.91,13.53,1.99,20.25,3.22,5.38,.99,10.54,.83,15.41-2.02,4.15-2.43,8.11-7.18,9.19-11.95,1.17-5.12,.91-10.87-2.02-15.41-2.68-4.16-6.89-8.26-11.95-9.19h0Z"/><path class="f" d="M212.7,111.24c-.18-4.07-1.03-7.3-2.95-10.83-1.66-3.05-4.86-5.97-7.81-7.69s-5.1-2.27-8.09-2.75-6.1-1.04-9.13-1.65c-6.14-1.24-12.23-2.72-18.25-4.45s-11.77-3.66-17.54-5.82-11.35-4.39-17.23-5.99c-8.45-2.3-17.2-2.6-25.84-3.71l5.32,.71c-8.35-1.13-16.15-4.2-23.9-7.35l-10.63,38.57c9.51,3.15,19.33,4.82,29.28,5.84,2.75,.1,5.32-.47,7.71-1.72,2.48-.81,4.63-2.19,6.44-4.14l3.13-4.05c1.46-2.3,2.25-4.77,2.37-7.44,.48-1.77,.48-3.54,0-5.32-.12-2.66-.91-5.14-2.37-7.44-2.67-4.14-6.9-8.31-11.95-9.19-9.13-1.6-18.05-4.22-26.59-7.8l4.78,2.02c-2.07-.88-4.1-1.84-6.15-2.76-3.44-1.56-6.99-3.28-10.69-4.19-4.23-1.04-8.59-1.44-12.82-2.54-8.36-2.16-16.39-5.38-24.56-8.13-4.69-1.58-9.43-2.98-14.28-3.96-2.66-.83-5.32-.95-7.98-.36-2.66,.12-5.14,.91-7.44,2.37-2.33,1.26-4.2,2.97-5.61,5.15-1.77,1.93-2.96,4.2-3.58,6.8-1.17,5.12-.91,10.87,2.02,15.41,2.71,4.21,6.87,8.16,11.95,9.19,14.81,2.99,28.41,10.08,43.21,13.11,4.38,.9,8.71,1.3,12.87,3.04l-4.78-2.02c7.07,3.03,14,6.35,21.31,8.78,5.79,1.93,11.71,3.41,17.72,4.46l5.32-39.29c-1.25-.13-2.5-.27-3.75-.44l5.32,.71c-6.87-.94-13.63-2.5-20.21-4.68-2.66-.83-5.32-.95-7.98-.36-2.66,.12-5.14,.91-7.44,2.37-2.33,1.26-4.2,2.97-5.61,5.15-1.77,1.93-2.96,4.2-3.58,6.8-1.17,5.12-.91,10.87,2.02,15.41l3.13,4.05c2.5,2.48,5.44,4.19,8.83,5.14,5.75,2.34,11.54,4.68,17.58,6.16,7.78,1.91,15.81,2.14,23.72,3.17l-5.32-.71c9.86,1.35,18.99,5.32,28.28,8.69,9.54,3.46,19.31,6.3,29.22,8.47,2.71,.6,5.43,1.14,8.16,1.64,1.4,.26,2.81,.5,4.22,.73,1.24,.2,2.57,.28,3.75,.72l-4.78-2.02c.18,.07,.35,.17,.52,.28l-4.05-3.13c.15,.1,.28,.22,.39,.37l-3.13-4.05,.13,.22-2.02-4.78,.07,.24-.71-5.32v.27c.25,5.27,2.08,10.35,5.87,14.14,1.81,1.95,3.96,3.33,6.44,4.14,2.38,1.25,4.95,1.83,7.71,1.72,5.17-.23,10.54-1.93,14.14-5.86s6.1-8.82,5.86-14.14h0Z"/><path class="f" d="M314.6,107.96c-1.78-.01-3.54-.13-5.3-.34l5.32,.71c-.96-.13-1.91-.29-2.86-.47l4.78,36.55c.21-.13,.43-.24,.66-.33l-4.78,2.02c.23-.09,.47-.15,.71-.19l-5.32,.71c.38-.05,.72-.06,1.1-.03l-5.32-.71c.38,.06,.7,.15,1.06,.28v-38.57c-.45,.1-.89,.18-1.35,.25l5.32-.71c-1.98,.24-3.94,.13-5.92-.13l5.32,.71c-5.29-.75-10.52-1.84-15.86-2.21-3.83-.27-7.67-.21-11.51-.23-7.62-.04-15.21-.64-22.76-1.65l5.32,.71c-10.36-1.41-20.58-3.57-30.8-5.74l-31.04-6.58c-2.66-.83-5.32-.95-7.98-.36-2.66,.12-5.14,.91-7.44,2.37-2.33,1.26-4.2,2.97-5.61,5.15-1.77,1.93-2.96,4.2-3.58,6.8-1.17,5.12-.91,10.87,2.02,15.41,2.73,4.23,6.87,8.11,11.95,9.19,13.09,2.77,26.18,5.6,39.28,8.31,14.43,2.99,29.08,5.51,43.82,6.2,7.31,.34,14.69-.18,21.97,.77l-5.32-.71c4.16,.59,8.26,1.36,12.44,1.87s8.28,.03,12.35-.86l4.78-2.02c2.33-1.26,4.2-2.97,5.61-5.15,1.24-1.25,2.1-2.72,2.57-4.41,1.25-2.38,1.83-4.95,1.72-7.71l-.71-5.32-2.02-4.78c-1.26-2.33-2.97-4.2-5.15-5.61-1.93-1.77-4.2-2.96-6.8-3.58-6.03-2.29-13.52-.8-18.93,2.29l-4.05,3.13-3.13,4.05-2.02,4.78c-.83,2.66-.95,5.32-.36,7.98,0,1.81,.46,3.49,1.37,5.05,.48,1.69,1.33,3.16,2.57,4.41,.89,1.5,2.08,2.7,3.59,3.59,1.93,1.77,4.2,2.96,6.8,3.58,4.42,.86,8.96,1.5,13.48,1.53,5.11,.03,10.54-2.25,14.14-5.86,1.95-1.81,3.33-3.96,4.14-6.44,1.25-2.38,1.83-4.95,1.72-7.71-.23-5.17-1.93-10.54-5.86-14.14s-8.71-5.82-14.14-5.86h0Z"/><path class="f" d="M459.37,99.34c-2.94-1.41-6.03-2.89-9.29-3.39-2.44-.38-4.97-.88-7.47-.84s-5.02,.53-7.46,.92c-2.6,.62-4.87,1.81-6.8,3.58-2.18,1.41-3.89,3.28-5.15,5.61l-2.02,4.78c-.83,2.66-.95,5.32-.36,7.98,0,1.81,.46,3.49,1.37,5.05,.81,2.48,2.19,4.63,4.14,6.44,4,3.67,8.66,5.65,14.14,5.86,.78,.03,1.55,.01,2.33-.06,2.38-.22,4.81-.52,7.16-1.02,2.6-.62,4.87-1.81,6.8-3.58,2.18-1.41,3.89-3.28,5.15-5.61,1.46-2.3,2.25-4.77,2.37-7.44,.6-2.66,.48-5.32-.36-7.98-1.57-4.84-4.57-9.51-9.19-11.95l-4.78-2.02c-3.54-.95-7.09-.95-10.63,0-3.74,.53-7.48,1.04-11.23,1.55l5.32-.71c-7.33,.98-14.66,1.92-21.99,2.81-2.75-.1-5.32,.47-7.71,1.72-2.48,.81-4.63,2.19-6.44,4.14-1.95,1.81-3.33,3.96-4.14,6.44-1.25,2.38-1.83,4.95-1.72,7.71,.23,5.17,1.93,10.54,5.86,14.14l4.05,3.13c3.12,1.81,6.48,2.72,10.09,2.73,12.86-1.56,25.71-3.26,38.54-5.07l-10.63-38.57c-.46,.1-.91,.18-1.38,.25l5.32-.71c-.93,.11-1.85,.15-2.79,.11l5.32,39.29,.43-.07-5.32,.71c1.29-.16,2.57-.16,3.87-.01l-5.32-.71c1.29,.19,2.52,.52,3.73,1.02l-4.78-2.02c.26,.11,.53,.23,.78,.36,2.3,1.46,4.77,2.25,7.44,2.37,2.66,.6,5.32,.48,7.98-.36,2.6-.62,4.87-1.81,6.8-3.58,2.18-1.41,3.89-3.28,5.15-5.61,2.45-4.64,3.68-10.26,2.02-15.41-1.53-4.73-4.54-9.72-9.19-11.95h0Z"/><path class="f" d="M594.42,9.82c-33.81,28.54-71.81,52.1-112.95,68.51-44.48,17.75-91.1,26.05-138.92,26.74-101.57,1.46-197.68-32.95-294.24-59.69C.1,32.02-48.29,19.75-97.75,11.99-147.31,4.21-197.35-.58-247.51-1.61c-98.38-2.03-197.39,10.35-292.72,34.54-47.38,12.02-93.96,27.23-139.22,45.71-4.99,2.04-9.88,3.4-14.89,5.1-5.45,1.85-10.71,5.04-15.93,7.46-11.9,5.52-23.87,10.9-35.78,16.4-22.34,10.31-43.84,22.37-65.39,34.26-10.8,5.96-21.44,12.17-31.85,18.79-2.71,1.72-.2,6.05,2.52,4.32,42.36-26.91,87.59-48.4,133.02-69.45,22.44-10.4,46.2-18.97,69.54-27.39s46.25-15.76,69.75-22.43C-472.45,18.43-372.12,3.53-272.27,3.18c51.4-.18,102.77,3.59,153.66,10.73C-68.2,20.98-18.88,32.23,30.2,45.58c95.55,25.99,190.14,60.69,290.1,64.25,47.49,1.69,94.97-3.67,140.18-18.56,40.51-13.34,78.7-33.38,113.05-58.62,8.36-6.15,16.49-12.6,24.42-19.3,2.46-2.08-1.09-5.6-3.54-3.54h0Z"/><rect class="f" x="-843.92" y="164.6" width="1441.98" height="49.07" transform="translate(-245.86 378.27) rotate(-180)"/></g></g></svg>