<?xml version="1.0" encoding="UTF-8"?><svg xmlns="http://www.w3.org/2000/svg" viewBox="0 0 1442.78 268.65"><defs><style>.d{fill:#caf0f8;}</style></defs><g id="a"/><g id="b"><g id="c"><path class="d" d="M1442.78,2.6c-.3,35.65-.61,71.29-.91,106.94,0,.57-.11,1.29-.66,1.46s-.76-1.03-.22-.83l.04-.07c-241.97,146.97-542.16,194.9-817.87,130.59-106.68-24.88-210.11-65.84-319.08-77S74.14,177.41,4.26,261.78l.51,.03c-1.04,1.48-2.26,2.83-3.63,4.02l.16-.5-1.24-.44,.25-8.27L0,258.76C-.02,174.49,.15,90.21,.49,5.93l2.99,.2c479.24,3.48,958.52,1.44,1437.71-6.13"/></g></g></svg>