<?xml version="1.0" encoding="UTF-8"?><svg xmlns="http://www.w3.org/2000/svg" viewBox="0 0 1442.78 1500"><defs><style>.d{fill:#caf0f8;}</style></defs><g id="a"/><g id="b"><g id="c"><g><path class="d" d="M1442.78,1233.95c-.3,35.65-.61,71.29-.91,106.94,0,.57-.11,1.29-.66,1.46s-.76-1.03-.22-.83l.04-.07c-241.97,146.97-542.16,194.9-817.87,130.59-106.68-24.88-210.11-65.84-319.08-77-108.97-11.16-229.94,13.72-299.81,98.08l.51,.03c-1.04,1.48-2.26,2.83-3.63,4.02l.16-.5-1.24-.44,.25-8.27-.32,2.15c-.02-84.28,.15-168.55,.49-252.83l2.99,.2c479.24,3.48,958.52,1.44,1437.71-6.13L1.59,268.65c479.19-7.57,958.47-9.62,1437.71-6.13l2.99,.2c.34-84.28,.51-168.55,.49-252.83l-.32,2.15,.25-8.27-1.24-.44,.16-.5c-1.37,1.18-2.59,2.54-3.63,4.02l.51,.03c-69.87,84.36-190.84,109.24-299.81,98.08-108.97-11.16-212.4-52.12-319.08-77C543.92-36.36,243.73,11.57,1.76,158.54l.04-.07c.54,.2,.33-1-.22-.83s-.65,.89-.66,1.46C.61,194.75,.3,230.4,0,266.05l1442.78,967.91Z"/><rect class="d" x="0" y="186.75" width="1442.78" height="1144.96"/></g></g></g></svg>