<?xml version="1.0" encoding="UTF-8"?><svg xmlns="http://www.w3.org/2000/svg" viewBox="0 0 400 250"><defs><style>.c{fill:#7d878d;}.d{fill:#efcbaf;}.e{fill:none;stroke:#efcbaf;stroke-miterlimit:10;stroke-width:3px;}</style></defs><g id="a"/><g id="b"><rect class="c" width="400" height="250"/><g><g><path class="d" d="M118.2,152.1h12.82l.27,4.14h-.65l-.43-3.54h-8.19c-.05,2.57-.05,5.19-.05,8.14h5.33l.27-2.62h.51v5.84h-.51l-.27-2.62h-5.33c0,3.43,0,5.92,.05,8.36h8.57l.43-3.54h.65l-.27,4.14h-13.19v-.54l2.89-.16c.05-2.54,.05-5.11,.05-7.68v-1.54c0-2.57,0-5.11-.05-7.65l-2.89-.16v-.54Z"/><path class="d" d="M134.05,169.83l2.43-.13c.03-1.41,.05-3.6,.05-5v-1.33c0-1.89-.03-3.68-.08-5.06h-2.51v-.54l3.03-.33,.27,.16,.05,2.73c1.89-2.16,3.43-3.03,5.03-3.03,1.51,0,2.65,.78,3.03,2.84,1.7-1.97,3.38-2.84,5-2.84,2.08,0,3.33,1.22,3.33,4.57v2.81c0,1.46,.03,3.62,.05,5l2.19,.13v.54h-5.49v-.54l2.43-.13c.03-1.38,.05-3.54,.05-5v-2.84c0-2.76-1.11-3.79-2.62-3.79-1.24,0-2.92,.51-4.87,2.7,.03,.35,.05,.7,.05,1.11v2.81c0,1.46,.03,3.62,.05,5l2.19,.13v.54h-5.49v-.54l2.43-.13c.03-1.38,.05-3.54,.05-5v-2.84c0-2.73-1.14-3.79-2.46-3.79-1.22,0-2.84,.51-4.98,2.97v3.65c0,1.41,.03,3.62,.05,5l2.19,.13v.54h-5.49v-.54Z"/><path class="d" d="M158.09,169.83l2.43-.13c.03-1.41,.05-3.6,.05-5v-1.33c0-1.89-.03-3.68-.08-5.06h-2.51v-.54l3.03-.33,.27,.16,.05,2.73c1.89-2.16,3.43-3.03,5.03-3.03,1.51,0,2.65,.78,3.03,2.84,1.7-1.97,3.38-2.84,5-2.84,2.08,0,3.33,1.22,3.33,4.57v2.81c0,1.46,.03,3.62,.05,5l2.19,.13v.54h-5.49v-.54l2.43-.13c.03-1.38,.05-3.54,.05-5v-2.84c0-2.76-1.11-3.79-2.62-3.79-1.24,0-2.92,.51-4.87,2.7,.03,.35,.05,.7,.05,1.11v2.81c0,1.46,.03,3.62,.05,5l2.19,.13v.54h-5.49v-.54l2.43-.13c.03-1.38,.05-3.54,.05-5v-2.84c0-2.73-1.14-3.79-2.46-3.79-1.22,0-2.84,.51-4.98,2.97v3.65c0,1.41,.03,3.62,.05,5l2.19,.13v.54h-5.49v-.54Z"/><path class="d" d="M190.63,167.97c-1.68,1.84-2.92,2.76-4.79,2.76s-3.33-1.14-3.33-3.16,1.38-3.19,4.03-4.06c1.38-.43,2.78-.73,4.06-1.03v-.87c0-3.03-1.08-3.79-3.25-3.79-1.05,0-1.97,.3-2.87,.87l-.38,1.62c-.11,.43-.32,.54-.65,.54s-.54-.22-.65-.54c.65-1.95,2.27-3.03,4.54-3.03,2.6,0,4,1.19,4,3.89v6.17c0,2.16,.43,2.7,1.3,2.7,.43,0,.76-.11,1.19-.43l.33,.32c-.43,.43-1.08,.76-1.73,.76-1.22,0-1.68-.97-1.81-2.73Zm-4.57,2.05c1.46,0,2.7-.76,4.54-2.7v-4.35c-1.3,.32-2.76,.7-4.03,1.16-2.19,.81-3.24,1.87-3.24,3.27,0,1.65,1.05,2.62,2.73,2.62Z"/><path class="d" d="M201.61,152.1h14.44l.27,4.41h-.65l-.43-3.81h-5.95c-.05,2.57-.05,5.14-.05,7.76v1.54c0,2.57,0,5.14,.05,7.68l3.16,.16v.54h-7.25v-.54l3.16-.16c.05-2.54,.05-5.11,.05-7.68v-1.54c0-2.62,0-5.19-.05-7.76h-5.95l-.43,3.81h-.65l.27-4.41Z"/><path class="d" d="M218.89,165.64l.05-7.22-2.38-.16v-.54l2.95-.16,.24,.32-.11,2.87v4.81c0,3.27,1.11,4.41,3.06,4.41,1.81,0,3.49-1.05,4.87-2.89v-8.65l-2.33-.13v-.57l2.95-.16,.24,.32-.11,2.87v8.95l2.14,.13v.54l-2.97,.16,.08-2.73c-1.27,1.62-2.87,2.92-5,2.92-2.51,0-3.7-1.24-3.68-5.08Z"/><path class="d" d="M233.01,169.83l2.43-.13c.03-1.41,.05-3.6,.05-5v-1.33c0-1.89-.03-3.68-.08-5.06h-2.51v-.54l3.03-.33,.27,.16,.05,3.49c.78-2.19,2.62-3.79,4.54-3.79,.92,0,1.62,.35,1.78,.73,0,.54-.27,.76-.81,.76-.49,0-.81-.27-1.35-.73l-.24-.22c-1.62,.41-2.89,1.76-3.92,4.14v2.7c0,1.41,.03,3.62,.05,5l2.54,.13v.54h-5.84v-.54Z"/><path class="d" d="M243.96,169.83l2.43-.13c.03-1.41,.05-3.6,.05-5v-1.33c0-1.89-.03-3.68-.08-5.06h-2.51v-.54l3.03-.33,.27,.16,.05,2.76c1.97-2.27,3.79-3.06,5.41-3.06,2,0,3.27,1.19,3.27,4.57v2.81c0,1.46,.03,3.62,.05,5l2.19,.13v.54h-5.49v-.54l2.43-.13c.03-1.38,.05-3.54,.05-5v-2.84c0-2.76-1.11-3.79-2.7-3.79-1.14,0-3.03,.51-5.22,2.97v3.65c0,1.41,.03,3.62,.05,5l2.19,.13v.54h-5.49v-.54Z"/><path class="d" d="M260.54,164.07c0-4.11,2.6-6.76,5.73-6.76s4.89,2.33,4.89,4.97c0,.65-.05,1.14-.16,1.54h-9.6c.03,4.35,2.27,6.19,5.22,6.19,1.76,0,3.22-.65,4.33-1.81l.3,.3c-1.11,1.38-2.84,2.22-4.68,2.22-3.41,0-6.03-2-6.03-6.65Zm.89-.81h8.38c.38,0,.54-.27,.54-1.05,0-2.24-1.43-4.35-4.08-4.35s-4.65,2.51-4.84,5.41Z"/><path class="d" d="M273.58,169.83l2.43-.13c.03-1.41,.05-3.6,.05-5v-1.33c0-1.89-.03-3.68-.08-5.06h-2.51v-.54l3.03-.33,.27,.16,.05,3.49c.78-2.19,2.62-3.79,4.54-3.79,.92,0,1.62,.35,1.78,.73,0,.54-.27,.76-.81,.76-.49,0-.81-.27-1.35-.73l-.24-.22c-1.62,.41-2.89,1.76-3.92,4.14v2.7c0,1.41,.03,3.62,.05,5l2.54,.13v.54h-5.84v-.54Z"/></g><g><path class="d" d="M155.98,190.68v-9.6h.95v9.6h-.95Z"/><path class="d" d="M165.07,190.68h-.92v-3.94c0-.84-.12-1.45-.37-1.83s-.63-.57-1.14-.57c-.27,0-.54,.05-.81,.15-.27,.1-.52,.24-.75,.42-.23,.18-.44,.39-.62,.64-.18,.25-.31,.52-.39,.8v4.31h-.92v-7.05h.84v1.6c.29-.51,.7-.93,1.24-1.24,.54-.32,1.12-.47,1.75-.47,.39,0,.72,.07,.99,.22,.27,.14,.49,.35,.65,.61,.16,.26,.28,.58,.35,.96,.07,.38,.11,.8,.11,1.26v4.12Z"/><path class="d" d="M170.34,190.34c-.05,.03-.13,.06-.24,.11s-.22,.09-.36,.13c-.13,.04-.29,.09-.46,.12-.17,.04-.35,.05-.54,.05s-.39-.03-.57-.08c-.18-.05-.34-.14-.47-.25-.13-.11-.24-.25-.32-.43-.08-.17-.12-.37-.12-.6v-5.04h-.97v-.73h.97v-2.38h.92v2.38h1.62v.73h-1.62v4.79c.02,.26,.11,.45,.28,.58,.17,.12,.36,.18,.57,.18,.26,0,.49-.04,.69-.13,.2-.08,.33-.15,.38-.18l.24,.74Z"/><path class="d" d="M174.36,190.82c-.51,0-.98-.1-1.41-.29-.43-.19-.8-.46-1.12-.8s-.56-.73-.74-1.17-.26-.92-.26-1.42,.09-.96,.26-1.4,.42-.82,.73-1.15c.31-.33,.68-.59,1.12-.78,.43-.19,.9-.29,1.41-.29s.99,.1,1.41,.29c.43,.19,.8,.46,1.1,.79,.31,.33,.55,.72,.72,1.15s.26,.89,.26,1.38v.22c0,.07,0,.12-.01,.15h-6.03c.03,.38,.12,.73,.26,1.05,.15,.32,.34,.6,.58,.83s.5,.42,.8,.55c.3,.13,.62,.2,.97,.2,.22,0,.45-.03,.68-.09,.23-.06,.43-.15,.62-.26,.19-.11,.36-.24,.51-.4,.15-.16,.27-.33,.35-.52l.8,.22c-.11,.26-.26,.5-.46,.71-.2,.21-.43,.4-.69,.55-.26,.16-.55,.28-.87,.37s-.64,.13-.99,.13Zm2.6-4.03c-.03-.38-.12-.72-.26-1.03-.15-.31-.34-.58-.57-.8-.23-.23-.5-.4-.8-.53-.3-.13-.62-.19-.97-.19s-.67,.06-.97,.19c-.31,.13-.57,.3-.8,.53-.23,.23-.41,.5-.55,.81-.14,.32-.22,.66-.25,1.03h5.18Z"/><path class="d" d="M182.77,184.45c-.62,.02-1.16,.19-1.62,.51-.46,.33-.78,.77-.97,1.34v4.38h-.92v-7.05h.87v1.69c.26-.54,.61-.96,1.05-1.27,.44-.31,.92-.46,1.42-.46,.07,0,.13,0,.18,.01v.84Z"/><path class="d" d="M184,182.16v-1.35h.92v1.35h-.92Zm0,8.52v-7.05h.92v7.05h-.92Z"/><path class="d" d="M189.95,190.82c-.51,0-.98-.1-1.41-.29-.42-.19-.79-.46-1.1-.79-.31-.33-.55-.72-.72-1.16s-.26-.91-.26-1.39,.09-.96,.26-1.41c.18-.44,.42-.83,.73-1.16,.31-.33,.68-.6,1.1-.8,.42-.2,.89-.3,1.39-.3s.97,.1,1.4,.3c.43,.2,.8,.46,1.11,.8,.31,.33,.55,.72,.73,1.16,.18,.44,.26,.91,.26,1.41s-.09,.95-.26,1.39-.41,.83-.72,1.16c-.31,.33-.68,.6-1.11,.79-.43,.19-.9,.29-1.41,.29Zm-2.56-3.62c0,.4,.07,.76,.2,1.1,.14,.34,.32,.64,.55,.89s.5,.46,.81,.6c.31,.14,.64,.22,.99,.22s.68-.08,.99-.22c.31-.15,.58-.35,.82-.61s.42-.56,.55-.9c.14-.34,.2-.71,.2-1.11s-.07-.75-.2-1.1c-.13-.35-.32-.65-.55-.91s-.51-.46-.82-.61c-.31-.15-.64-.22-.99-.22s-.68,.07-.99,.22-.58,.35-.81,.62c-.23,.26-.42,.57-.55,.91-.13,.35-.2,.72-.2,1.12Z"/><path class="d" d="M198.51,184.45c-.62,.02-1.16,.19-1.62,.51-.46,.33-.78,.77-.97,1.34v4.38h-.92v-7.05h.87v1.69c.26-.54,.61-.96,1.05-1.27,.44-.31,.92-.46,1.42-.46,.07,0,.13,0,.18,.01v.84Z"/><path class="d" d="M203.05,190.68v-9.6h3.26c.77,0,1.44,.13,2.01,.38,.57,.25,1.05,.59,1.43,1.03,.38,.43,.67,.94,.87,1.52,.19,.58,.29,1.2,.29,1.86,0,.73-.11,1.39-.32,1.98-.22,.59-.53,1.1-.93,1.51s-.88,.74-1.45,.97c-.56,.23-1.2,.34-1.9,.34h-3.26Zm6.91-4.81c0-.58-.08-1.11-.24-1.59s-.4-.9-.71-1.25c-.31-.35-.69-.62-1.14-.82-.45-.19-.97-.29-1.55-.29h-2.31v7.92h2.31c.59,0,1.12-.1,1.58-.3s.84-.48,1.14-.84c.31-.36,.54-.78,.7-1.26,.16-.48,.24-1.01,.24-1.58Z"/><path class="d" d="M215.57,190.82c-.51,0-.98-.1-1.41-.29-.43-.19-.8-.46-1.12-.8s-.56-.73-.74-1.17-.26-.92-.26-1.42,.09-.96,.26-1.4,.42-.82,.73-1.15c.31-.33,.68-.59,1.12-.78,.43-.19,.9-.29,1.41-.29s.99,.1,1.41,.29c.43,.19,.8,.46,1.1,.79,.31,.33,.55,.72,.72,1.15s.26,.89,.26,1.38v.22c0,.07,0,.12-.01,.15h-6.03c.03,.38,.12,.73,.26,1.05,.15,.32,.34,.6,.58,.83s.5,.42,.8,.55c.3,.13,.62,.2,.97,.2,.22,0,.45-.03,.68-.09,.23-.06,.43-.15,.62-.26,.19-.11,.36-.24,.51-.4,.15-.16,.27-.33,.35-.52l.8,.22c-.11,.26-.26,.5-.46,.71-.2,.21-.43,.4-.69,.55-.26,.16-.55,.28-.87,.37s-.64,.13-.99,.13Zm2.6-4.03c-.03-.38-.12-.72-.26-1.03-.15-.31-.34-.58-.57-.8-.23-.23-.5-.4-.8-.53-.3-.13-.62-.19-.97-.19s-.67,.06-.97,.19c-.31,.13-.57,.3-.8,.53-.23,.23-.41,.5-.55,.81-.14,.32-.22,.66-.25,1.03h5.18Z"/><path class="d" d="M222.81,190.82c-.55,0-1.09-.09-1.61-.27-.52-.18-.97-.44-1.35-.79l.42-.62c.4,.33,.8,.57,1.21,.73s.85,.24,1.32,.24c.57,0,1.02-.11,1.36-.34,.34-.23,.51-.56,.51-.98,0-.2-.04-.36-.13-.49-.09-.13-.22-.25-.4-.34-.18-.1-.4-.19-.66-.26-.27-.08-.58-.16-.93-.24-.41-.1-.76-.2-1.05-.3-.3-.1-.54-.21-.74-.34-.19-.13-.34-.28-.43-.47s-.14-.42-.14-.7c0-.35,.07-.66,.21-.93,.14-.27,.33-.49,.57-.67s.52-.31,.84-.4c.32-.09,.66-.13,1.02-.13,.54,0,1.03,.09,1.47,.26,.44,.18,.8,.41,1.07,.7l-.45,.54c-.26-.27-.58-.47-.95-.61-.37-.14-.76-.2-1.17-.2-.24,0-.47,.03-.68,.07-.21,.05-.39,.13-.55,.24-.16,.11-.28,.25-.37,.41-.09,.17-.13,.36-.13,.59,0,.19,.03,.34,.09,.46,.06,.12,.17,.22,.31,.3,.14,.08,.33,.16,.55,.23s.49,.14,.8,.21c.45,.11,.85,.22,1.19,.32s.63,.23,.86,.38c.23,.14,.4,.32,.52,.53s.18,.46,.18,.76c0,.65-.25,1.16-.74,1.54-.5,.38-1.16,.57-2,.57Z"/><path class="d" d="M227.05,182.16v-1.35h.92v1.35h-.92Zm0,8.52v-7.05h.92v7.05h-.92Z"/><path class="d" d="M232.83,190.78c-.49,0-.93-.1-1.33-.3-.4-.2-.75-.47-1.04-.8-.29-.33-.52-.72-.68-1.15-.16-.43-.24-.88-.24-1.34,0-.49,.08-.95,.24-1.4,.16-.45,.38-.84,.67-1.17,.29-.33,.63-.6,1.03-.8,.4-.2,.84-.3,1.33-.3,.6,0,1.13,.15,1.57,.45,.44,.3,.82,.68,1.14,1.14v-1.47h.82v7.07c0,.49-.09,.92-.28,1.29s-.43,.69-.74,.94c-.31,.25-.68,.44-1.1,.57s-.86,.19-1.33,.19c-.81,0-1.46-.14-1.96-.43-.5-.29-.9-.68-1.2-1.16l.57-.45c.28,.45,.65,.78,1.11,.99s.96,.32,1.49,.32c.34,0,.67-.05,.97-.14s.58-.23,.8-.42c.23-.19,.41-.42,.55-.7,.13-.28,.2-.62,.2-.99v-1.39c-.27,.45-.64,.81-1.11,1.07-.47,.26-.96,.39-1.47,.39Zm.26-.77c.27,0,.54-.05,.8-.15,.26-.1,.5-.23,.71-.4s.39-.35,.53-.56c.14-.21,.24-.42,.28-.64v-2.18c-.1-.25-.24-.49-.41-.7-.17-.22-.37-.4-.58-.55-.22-.15-.45-.27-.7-.37-.25-.09-.5-.13-.75-.13-.4,0-.75,.08-1.06,.25s-.58,.38-.79,.66c-.22,.27-.38,.58-.49,.92-.11,.34-.17,.69-.17,1.04,0,.38,.07,.74,.2,1.08,.14,.34,.32,.64,.56,.9,.24,.26,.52,.46,.83,.61s.66,.22,1.03,.22Z"/><path class="d" d="M244.28,190.68h-.92v-3.94c0-.84-.12-1.45-.37-1.83s-.63-.57-1.14-.57c-.27,0-.54,.05-.81,.15-.27,.1-.52,.24-.75,.42-.23,.18-.44,.39-.62,.64-.18,.25-.31,.52-.39,.8v4.31h-.92v-7.05h.84v1.6c.29-.51,.7-.93,1.24-1.24,.54-.32,1.12-.47,1.75-.47,.39,0,.72,.07,.99,.22,.27,.14,.49,.35,.65,.61,.16,.26,.28,.58,.35,.96,.07,.38,.11,.8,.11,1.26v4.12Z"/></g><g><rect class="d" x="179.37" y="54.08" width="3.23" height="91.11" transform="translate(53.28 -62.77) rotate(22.99)"/><rect class="d" x="217.38" y="53.32" width="3.23" height="91.11" transform="translate(459.21 104.37) rotate(157.01)"/><rect class="d" x="219.33" y="51.38" width="3.23" height="79.37" transform="translate(84.09 -104.84) rotate(32.66)"/><rect class="d" x="177.34" y="51.72" width="3.23" height="79" transform="translate(378.84 71.43) rotate(147.34)"/><rect class="d" x="198.24" y="86.3" width="3.23" height="48.01" transform="translate(310.16 -89.54) rotate(90)"/><rect class="e" x="157.34" y="57.06" width="85.73" height="84.26"/><rect class="d" x="198.93" y="122.9" width="1.97" height="2.45"/></g></g></g></svg>