<?xml version="1.0" encoding="UTF-8"?><svg xmlns="http://www.w3.org/2000/svg" viewBox="0 0 402.6 2991.38"><defs><style>.e{fill:#caf0f8;}</style></defs><g id="a"/><g id="b"><g id="c"><rect class="e" x="1.3" y="129.46" width="400" height="2717.09"/></g><g id="d"><path class="e" d="M400.47,2736.1l.47,22.75,1.06,51.2c.65,31.3,1.3,62.66-1.17,93.86l.23,1.32c-68.14-19.28-140.44-23.75-210.43-13-19.79,3.04-39.43,7.29-58.46,13.49-49.9,16.26-95.27,46.18-129.88,85.64l-.93-1.9c-1.85-84.56-1.82-169.17,.09-253.73l.99-.6,396.65-2.68"/><path class="e" d="M2.13,255.27l-.47-22.75-1.06-51.2C-.06,150.02-.71,118.66,1.76,87.46l-.23-1.32c68.14,19.28,140.44,23.75,210.43,13,19.79-3.04,39.43-7.29,58.46-13.49,49.9-16.26,95.27-46.18,129.88-85.64l.93,1.9c1.85,84.56,1.82,169.17-.09,253.73l-.99,.6L3.51,258.92"/></g></g></svg>