<?xml version="1.0" encoding="UTF-8"?><svg xmlns="http://www.w3.org/2000/svg" viewBox="0 0 401.03 203.07"><defs><style>.d{fill:#caf0f8;}</style></defs><g id="a"/><g id="b"><g id="c"><path class="d" d="M400.78,.61l-1.57,.1C266.14-.6,133.05-.1,0,2.21c.06,2.8,.11,5.61,.17,8.41,.13,2.67,.29,5.34,.52,8,.07,.87-.05,1.62-.31,2.25,.72,36.15,1.45,72.31,2.17,108.46,.48,23.92,.96,47.88-.92,71.73l-.19,2.01c69.02-60.11,159.8-94.68,251.33-95.7,49.3-.55,98.23,8.26,146.33,19.12l.19-1.49c1.61-41.44,2.11-82.92,1.49-124.39Z"/></g></g></svg>