<?xml version="1.0" encoding="UTF-8"?><svg xmlns="http://www.w3.org/2000/svg" viewBox="0 0 806.43 1789.32"><defs><style>.d{fill:#caf0f8;}</style></defs><g id="a"/><g id="b"><g id="c"><path class="d" d="M1.34,1787.04l-.14,.14h-.14q-.12,0,0,0l-.43,.57c-.11-.04-.24,.03-.27,.14l.33,1.44c60.37-71.31,157.65-102.85,251.08-103.99s184.89,24.43,274.69,50.23c89.8,25.8,180.87,52.27,274.3,53l-.46-1.38c.84-78.21,1.67-156.43,2.51-234.64l.24-22.08,.49-.03-799.78-1.57,.37-.81c-2.32,85.94-3.69,171.9-4.13,257.86"/><path class="d" d="M805.09,2.29l.14-.14h.14q.12,0,0,0l.43-.57c.11,.04,.24-.03,.27-.14l-.33-1.44c-60.37,71.31-157.65,102.85-251.08,103.99-93.43,1.14-184.89-24.43-274.69-50.23C190.17,27.96,99.1,1.49,5.67,.76l.46,1.38c-.84,78.21-1.67,156.43-2.51,234.64l-.24,22.08-.49,.03,799.78,1.57-.37,.81c2.32-85.94,3.69-171.9,4.13-257.86"/><rect class="d" x="2.89" y="112.27" width="800.66" height="1465.25"/></g></g></svg>