<?xml version="1.0" encoding="UTF-8"?><svg xmlns="http://www.w3.org/2000/svg" viewBox="0 0 400 214.34"><defs><style>.f{fill:#caf0f8;}</style></defs><g id="a"/><g id="b"/><g id="c"/><g id="d"/><g id="e"><g><path class="f" d="M30.84,36.65c-.4,2.69,.26,5.13,.45,7.8,.18,2.49-.08,4.99-.46,7.45-.77,5.04-1.55,10.08-2.15,15.15-1.2,10.2-1.86,20.47-1.99,30.74l4.91-.66c-1.24-4.45-1-9.18-.72-13.74s.84-9.17,1.59-13.71c1.53-9.34,3.75-18.54,5.75-27.78,.57-2.64,1.13-5.29,1.64-7.94,.49-2.49,1.23-5.22-.24-7.53-.98-1.53-3.38-1.71-4.32,0-2.22,4.04-2.77,8.56-3.26,13.07-.52,4.85-.85,9.72-.96,14.59-.23,9.82,.4,19.63,1.77,29.36,.3,2.15,3.65,2.39,4.57,.6,1.7-3.29,2.02-6.88,2.29-10.52,.28-3.85,.55-7.69,.77-11.54,.45-7.78,.7-15.57,.5-23.36-.08-3.12-.27-7.92-3.89-9.09-3.87-1.25-5.57,2.93-6.19,5.88-1.56,7.49-2.28,15.17-3.02,22.77-.42,4.26-.78,8.53-1.09,12.8s-.39,8.76,.42,13.11c.3,1.6,2.38,2.26,3.67,1.49,1.98-1.17,2.62-3.24,2.78-5.41,.17-2.35,.14-4.74,.2-7.1l.39-14.89,.8-30.28c.07-2.51-3.42-3.36-4.66-1.26-4.22,7.17-5.41,15.55-6.39,23.68-1.05,8.71-1.5,17.48-1.4,26.25,.06,5,.3,10,.71,14.98h5c-1.87-17.32-2.97-34.8-1.28-52.18,.18-1.82-2.28-3.21-3.76-2.16-2.85,2.02-3.16,5.15-3.51,8.38l-1.2,11.13-2.41,22.25h5c-.68-7.5-1.36-15-1.72-22.52-.18-3.68-.29-7.37-.27-11.06,.02-3.38,.25-6.68,1.48-9.86l-4.82-1.33c-1.36,3.79-1.67,7.85-1.79,11.85s-.11,8.26,.04,12.39c.3,8.33,1.17,16.62,2.53,24.84,.18,1.07,1.4,1.84,2.41,1.84,1.2,0,1.98-.81,2.41-1.84,1.48-3.51,.9-7.52,.74-11.21-.18-4.23-.29-8.47-.34-12.71-.09-8.39,.1-16.78,.54-25.16,.12-2.37-2.73-3.03-4.27-1.77-2.88,2.36-2.84,7.09-3.21,10.46-.46,4.2-.69,8.43-.77,12.66-.16,8.48,.29,16.96,.74,25.43l4.91-.66c-1.27-6.84-2.33-13.71-3.14-20.62-.4-3.4-.74-6.81-1.03-10.22s.05-7.19-1.68-10.07c-.9-1.5-3.49-1.75-4.32,0-1.38,2.9-1.9,5.96-2.13,9.14-.25,3.36-.35,6.73-.43,10.1-.15,6.9,.02,13.81,.62,20.69,.12,1.35,1.07,2.5,2.5,2.5,1.32,0,2.55-1.14,2.5-2.5-.37-10.94-.87-21.87-1.5-32.8-.19-3.28-4.63-3.15-5,0-.95,8.15-.78,16.31,.36,24.43,.17,1.21,1.65,1.95,2.74,1.79,1.22-.18,2.16-1.19,2.17-2.46,.05-4.89-.1-9.78-.47-14.66-.18-2.4-.4-4.8-.7-7.19-.28-2.19-.76-4.21-2.32-5.87-1.17-1.23-3.06-.79-3.93,.51-1.41,2.1-1.1,4.8-1.06,7.2,.05,2.65,.13,5.3,.25,7.95,.24,5.3,.64,10.58,1.17,15.86,.14,1.34,1.05,2.5,2.5,2.5,1.29,0,2.58-1.15,2.5-2.5l-1.81-28.91c-.17-2.68-4.25-3.56-4.91-.66-1.05,4.58-1.31,9.29-1.42,13.97s-.2,9.5-.29,14.25H5.96l.23-12.33c.07-3.82-.32-7.99,.88-11.67l-4.91-.66,.61,21.84c.08,2.69,4.39,3.55,4.91,.66,1.63-9.03,1.54-18.21-.31-27.2-.25-1.2-1.59-1.96-2.74-1.79-1.33,.2-2.01,1.18-2.17,2.46-1.09,8.54-.89,17.12,.43,25.62,.44,2.84,4.89,2.07,4.91-.66,.07-7.79-.89-15.57-2.83-23.11-.7-2.71-4.99-2.18-4.91,.66,.13,4.83,.47,9.66,1.01,14.46,.14,1.24,.84,2.3,2.17,2.46,1.12,.13,2.55-.55,2.74-1.79l1.02-6.44c.21-1.33-.34-2.69-1.75-3.08-1.19-.33-2.86,.4-3.08,1.75l-1.02,6.44,4.91,.66c-.54-4.81-.88-9.63-1.01-14.46l-4.91,.66c1.84,7.13,2.72,14.42,2.65,21.78l4.91-.66c-1.25-8.03-1.28-16.24-.25-24.3l-4.91,.66c1.66,8.06,1.78,16.44,.31,24.54l4.91,.66-.61-21.84c-.08-2.85-4.03-3.35-4.91-.66-1.29,3.96-.97,8.39-1.04,12.5l-.24,12.82c-.06,3.22,4.93,3.22,5,0,.09-4.59,.18-9.19,.28-13.78,.1-4.4,.26-8.81,1.25-13.11l-4.91-.66,1.81,28.91h5c-.5-4.95-.87-9.9-1.12-14.87-.12-2.48-.21-4.97-.27-7.45-.03-1.16-.05-2.32-.06-3.48,0-.94-.13-1.88,.41-2.69l-3.93,.51c1.04,1.1,.97,3.24,1.12,4.65,.22,2.11,.4,4.22,.54,6.33,.29,4.39,.41,8.79,.37,13.2l4.91-.66c-1.07-7.64-1.07-15.44-.18-23.1H6.19c.63,10.93,1.13,21.86,1.5,32.8h5c-.57-6.55-.75-13.13-.64-19.71,.05-3.2,.17-6.39,.35-9.58,.15-2.74,.34-5.6,1.54-8.12h-4.32c.69,1.15,.61,2.59,.71,3.89,.12,1.71,.26,3.42,.41,5.12,.3,3.41,.66,6.82,1.08,10.22,.84,6.86,1.88,13.69,3.14,20.49,.51,2.76,5.06,2.14,4.91-.66-.43-7.98-.85-15.97-.76-23.96,.04-3.9,.2-7.81,.55-11.7,.17-1.88,.37-3.77,.64-5.64,.19-1.31,.26-2.82,1.35-3.71l-4.27-1.77c-.43,8.21-.62,16.44-.54,24.67,.04,4.07,.14,8.14,.3,12.21,.14,3.54,.89,7.52-.52,10.88h4.82c-1.29-7.78-2.07-15.63-2.36-23.51-.14-3.89-.16-7.78-.06-11.67s.32-7.61,1.63-11.24c.46-1.27-.52-2.74-1.75-3.08-1.41-.39-2.59,.48-3.08,1.75-1.27,3.27-1.59,6.81-1.65,10.3-.06,3.82,.06,7.65,.24,11.46,.36,7.69,1.05,15.35,1.74,23.01,.29,3.23,4.65,3.19,5,0l2.19-20.27,1.07-9.89c.17-1.61,.3-3.23,.53-4.83,.1-.7,.23-2,.86-2.45l-3.76-2.16c-1.69,17.38-.59,34.86,1.28,52.18,.14,1.34,1.05,2.5,2.5,2.5,1.27,0,2.61-1.15,2.5-2.5-.69-8.5-.9-17.03-.56-25.55,.33-8.29,1.01-16.69,2.67-24.83,.86-4.2,2.11-8.29,4.29-12.01l-4.66-1.26-.74,28.3-.37,13.9-.18,6.95c-.03,1.04,0,2.1-.1,3.13-.03,.33-.11,.6-.19,.95-.02,.1-.26,.23-.12,.15l3.67,1.49c-1.21-6.48-.16-13.39,.41-19.9,.59-6.68,1.22-13.37,2.2-20.01,.23-1.58,.49-3.15,.8-4.72,.15-.78,.31-1.56,.48-2.34,.06-.28,.51-1.33,.46-1.48-.13-.34,.24-.01-.05-.08l-.51,.1-.63-.28c.14-.08,.48,1.12,.51,1.24,.38,1.54,.28,3.22,.31,4.79,.12,6.72-.08,13.45-.44,20.16-.2,3.77-.45,7.53-.72,11.3-.24,3.3-.2,6.94-1.75,9.96l4.57,.6c-1.28-9.11-1.79-18.34-1.6-27.54,.1-4.55,.37-9.1,.82-13.63,.4-4.05,.73-8.37,2.73-12h-4.32c.35,.55,.21,1.18,.1,1.8-.22,1.25-.48,2.5-.73,3.74-.46,2.26-.94,4.52-1.43,6.77-1,4.59-2.05,9.17-3.03,13.76-1.95,9.12-3.66,18.33-4.29,27.66-.35,5.24-.57,10.68,.86,15.78,.76,2.72,4.87,2.17,4.91-.66,.13-10.11,.76-20.21,1.93-30.26,.57-4.95,1.37-9.86,2.1-14.78,.36-2.43,.68-4.88,.61-7.35s-1.04-5.01-.68-7.42c.2-1.33-.33-2.69-1.75-3.08-1.18-.32-2.87,.4-3.08,1.75h0Z"/><path class="f" d="M10.74,61.2c-3.24,4.22-2.11,10.01-1.55,14.88l2.03,17.76c.15,1.34,1.04,2.5,2.5,2.5,1.27,0,2.61-1.15,2.5-2.5-.8-9.95-2.54-19.81-5.26-29.41-.47-1.65-2.97-2.64-4.18-1.1-1.89,2.38-2.46,5.09-2.61,8.08s-.17,6.28-.25,9.41l-.5,19.67h5l-1.59-33.52c-.15-3.23-4.78-3.2-5,0-.62,8.89-1.21,17.84-.07,26.71,.16,1.23,.83,2.3,2.17,2.46,1.12,.13,2.54-.55,2.74-1.79,1.43-8.59,1.05-17.33-1.23-25.74-.73-2.68-5.01-2.2-4.91,.66,.47,13.06,1.16,26.14,3.4,39.04,.48,2.76,5.09,2.14,4.91-.66-.75-11.87-3.19-23.54-5.66-35.15-.58-2.71-5.23-2.16-4.91,.66L2.91,113.99c.15,1.34,1.04,2.5,2.5,2.5,1.33,0,2.53-1.14,2.5-2.5l-.7-29.98c-.08-3.27-4.7-3.16-5,0L-1.07,118.76H3.93c-.46-5.11-.66-10.25-.57-15.38,.05-2.41,.12-4.83,.34-7.23,.18-1.98,.61-3.88,1.72-5.55l-4.66-1.26c-.1,7.03-.04,14.06,.19,21.09,.11,3.45,.24,6.9,.46,10.34,.19,2.95,.84,5.77,3.43,7.51,1.29,.87,3.36,.03,3.67-1.49,1.9-9.18,1.49-18.64,3.04-27.87s4.18-18.08,6.81-26.97l-4.82-1.33c-2.27,15.96-4.44,32.14-2.48,48.25,.16,1.34,1.03,2.5,2.5,2.5,1.37,0,2.48-1.14,2.5-2.5,.28-17.22,.62-34.75,6.43-51.16l-4.82-1.33c-3.9,19.13-4.7,38.81-2.26,58.18,.17,1.34,1.03,2.5,2.5,2.5,1.32,0,2.54-1.14,2.5-2.5-.48-15.7-.98-31.6,2.23-47.07l-4.91-.66c-2.22,18.42-2.19,37.07,.1,55.48,.17,1.34,1.03,2.5,2.5,2.5,1.25,0,2.64-1.15,2.5-2.5-2.06-20.52-2.9-41.16-2.52-61.78,.05-2.62-3.33-3.22-4.66-1.26-1.71,2.52-2.55,5.48-3.06,8.45-.58,3.33-1.02,6.7-1.52,10.04l-3.13,20.95h4.82c-1.94-12.75-1.36-25.73-.82-38.56H6.95l-.31,23.44-.15,11.6c-.05,3.79,.03,7.63-.51,11.38h4.82c-2.02-10.92-2.3-22.12-.97-33.14H4.82l-.49,26.69-.24,13.34c-.08,4.2,.08,8.49-1.11,12.55H7.8c-2.32-10.47-3.13-21.19-2.46-31.9,.17-2.77-4.45-3.47-4.91-.66-1.05,6.44-.89,12.9-.63,19.39s.58,12.72-.52,18.98H4.1c-1.29-4.75-2.18-9.59-2.57-14.5-.19-2.35-.31-4.73-.24-7.09,.05-1.69,.19-3.69,1.31-5.06l-4.27-1.77C.01,126.26,.83,139.21,.77,152.17l4.91-.66c-1.48-5.84-2.42-11.79-2.74-17.8-.15-2.88-.2-5.78-.05-8.66,.13-2.57,.55-5.1,1.98-7.29l-4.66-1.26c1.44,10.79,2.02,21.68,1.75,32.56l4.91-.66c-1.62-8.96-2.5-18.39-1.66-27.48,.19-2.12,.59-4.21,1.23-6.24,.16-.49,.42-.99,.53-1.49,.01-.05,.15-.27,.15-.35,.01-.25-2.08,.57-2.06,0,0,.14,.24,.64,.27,.78,.12,.62,.19,1.24,.29,1.86,.68,4.57,1.29,9.16,1.82,13.75,.63,5.39,1.16,10.79,1.6,16.19l4.91-.66c-1.03-6.66-1.73-13.38-1.82-20.13-.05-3.31,.06-6.62,.34-9.92,.14-1.63,.32-3.25,.57-4.87,.09-.58,.16-1.2,.36-1.75,.06-.18,.38-.58,.16-.51l-3.16-2.41,2.11,40.43h5c-1.8-16.82-3.65-34.13,.49-50.75h-4.82c.86,3.87,.12,7.98-.27,11.87l-1.32,12.92-2.59,25.35c-.45,4.38-.86,8.78-2.45,12.93l3.67-1.49c-.75-.58-1.02-1.95-1.24-2.79-.42-1.58-.76-3.18-1.06-4.78-.59-3.18-.93-6.4-1.05-9.64s-.02-6.45,.3-9.65c.16-1.58,.38-3.14,.66-4.7,.12-.66,.19-1.36,.41-1.99,0,0,.19-.6,.26-.56-.02-.01-.41,.33-.56,.33l-2.41-1.84c2.18,5.77,1.9,12.08,1.83,18.14-.04,3.19-.12,6.39-.26,9.58-.07,1.53-.11,3.07-.24,4.6-.08,.95-.23,2.01-.9,2.72l4.18,1.1c-2.88-11.37-2.56-23.33,.84-34.55l-4.91-.66c-.76,15.34-2.01,30.65-3.77,45.91l4.91-.66c-1.68-9.87-1.43-20.06,.67-29.85l-4.91-.66c-.04,11.39-.66,22.76-1.85,34.08l4.91-.66c-2.2-6.98-2.83-14.4-1.66-21.64H-.44c1.33,8.71,1.83,17.54,1.59,26.35l4.91-.66c-1.95-5.79-1.89-11.9,.15-17.66l-4.91-.66c-.14,10.1-.56,20.2-1.25,30.28l4.91-.66c-1.28-3.99-1.09-8.31,.76-12.1l-4.57-.6c1.19,4.12-.02,8.32-1.14,12.32-.77,2.77,3.08,4.31,4.57,1.93,1.88-3.01,3.25-6.33,4.03-9.79,.71-3.15-3.78-4.37-4.82-1.33-1.69,4.95-3.28,9.93-3.58,15.19-.17,2.95,4.03,3.21,4.91,.66,1.14-3.29,1.82-6.68,2.16-10.14,.12-1.22-1.04-2.32-2.17-2.46-1.31-.16-2.29,.6-2.74,1.79-1.36,3.56-2.34,7.24-2.94,11-.19,1.23,.21,2.45,1.45,2.95,1.05,.42,2.6,.13,3.12-1.02l1.98-4.39c1.31-2.9-2.5-5.24-4.32-2.52-1.49,2.22-2.26,4.71-2.52,7.36-.19,1.94,2.25,3.04,3.76,2.16,2.98-1.74,4.74-4.78,4.92-8.2,.12-2.15-2.82-3.32-4.27-1.77-2.79,3-4.35,6.85-4.37,10.95,0,2,2.86,3.52,4.27,1.77,2.25-2.8,3.52-5.99,3.71-9.58,.12-2.25-2.77-3.19-4.27-1.77-2.17,2.06-5.35,7.1-2.67,9.87,1.36,1.4,3.44,1.22,4.96,.18s2.45-2.63,3.47-4.04c4.32-5.91,7.78-12.36,10.48-19.16,.94-2.37-2.56-4.17-4.18-2.43-3.79,4.06-6.96,8.66-9.34,13.68-1.36,2.87,2.66,5.34,4.32,2.52,2.32-3.93,4.32-8.02,6.05-12.24,.82-2,1.64-4.04,2.24-6.12,.64-2.19,.55-4.26-.94-6.07-.79-.96-2.76-.99-3.54,0-4.82,6.17-7.74,13.34-8.56,21.13-.3,2.78,4.46,3.45,4.91,.66,2.1-13,4.72-25.9,7.86-38.69,.77-3.15-3.78-4.35-4.82-1.33-3.76,10.89-6.66,22.3-6.19,33.91,.12,2.87,3.98,3.32,4.91,.66,1.33-3.8,2.12-7.72,2.5-11.72,.13-1.35-1.24-2.5-2.5-2.5-1.46,0-2.37,1.15-2.5,2.5-.33,3.55-1.14,7.03-2.32,10.39l4.91,.66c-.45-11.19,2.39-22.08,6.01-32.58l-4.82-1.33c-3.14,12.78-5.76,25.69-7.86,38.69l4.91,.66c.67-6.33,3.18-12.57,7.1-17.6h-3.54c-.32-.39-.02-.23-.11,.1-.06,.22-.08,.52-.14,.76-.21,.82-.52,1.62-.8,2.41-.61,1.73-1.27,3.45-2,5.14-1.48,3.42-3.19,6.74-5.09,9.96l4.32,2.52c2.2-4.64,5.05-8.91,8.56-12.67l-4.18-2.43c-1.55,3.91-3.44,7.7-5.58,11.32-1.05,1.78-2.18,3.51-3.36,5.21-.59,.85-1.2,1.68-1.82,2.51-.27,.35-.69,.74-.9,1.13-.05,.14-.14,.22-.26,.23,.42,.13,.85,.23,1.28,.31l.64,1.1c-.14,.27-.15,.19,0-.24,.06-.25,.13-.51,.22-.75,.1-.3,.22-.56,.37-.84,.41-.75,.91-1.37,1.53-1.96l-4.27-1.77c-.11,2.17-.88,4.34-2.25,6.05l4.27,1.77c.01-2.77,1.01-5.38,2.91-7.42l-4.27-1.77c-.09,1.66-1.03,3.06-2.45,3.89l3.76,2.16c.17-1.77,.86-3.37,1.84-4.84l-4.32-2.52-1.98,4.39,4.57,1.93c.6-3.77,1.58-7.44,2.94-11l-4.91-.66c-.29,3.01-.99,5.95-1.98,8.81l4.91,.66c.27-4.79,1.86-9.36,3.4-13.86l-4.82-1.33c-.69,3.08-1.85,5.92-3.52,8.6l4.57,1.93c1.36-4.87,2.58-9.97,1.14-14.98-.56-1.94-3.59-2.6-4.57-.6-2.43,4.98-2.96,10.65-1.27,15.95,.88,2.74,4.72,2.15,4.91-.66,.69-10.08,1.11-20.18,1.25-30.28,.04-2.94-4-3.24-4.91-.66-2.3,6.52-2.35,13.77-.15,20.32,.89,2.64,4.83,2.23,4.91-.66,.26-9.27-.37-18.52-1.77-27.68-.37-2.4-4.44-2.38-4.82,0-1.31,8.13-.81,16.42,1.66,24.29,.89,2.81,4.62,2.08,4.91-.66,1.19-11.32,1.8-22.7,1.85-34.08,.01-2.76-4.31-3.48-4.91-.66-2.3,10.72-2.5,21.7-.67,32.5,.21,1.21,1.63,1.96,2.74,1.79,1.32-.2,2.02-1.18,2.17-2.46,1.75-15.26,3.01-30.57,3.77-45.91,.14-2.88-4.11-3.3-4.91-.66-3.66,12.06-3.93,25-.84,37.21,.45,1.79,2.9,2.47,4.18,1.1,2.23-2.4,2.35-5.55,2.5-8.65,.18-3.6,.3-7.2,.35-10.8,.1-6.78,.44-14-2-20.46-.41-1.09-1.23-1.78-2.41-1.84-4.29-.2-4.86,5.13-5.31,8.22-.6,4.11-.89,8.26-.79,12.42s.56,8.3,1.34,12.37c.71,3.7,1.36,7.68,4.51,10.1,1.4,1.08,3.17-.17,3.67-1.49,1.45-3.81,1.96-7.86,2.38-11.89,.46-4.35,.89-8.7,1.34-13.05l2.69-26.34c.49-4.8,1.28-9.66,.22-14.44-.54-2.42-4.24-2.34-4.82,0-4.26,17.1-2.52,34.78-.67,52.08,.14,1.34,1.05,2.5,2.5,2.5,1.3,0,2.57-1.14,2.5-2.5l-2.11-40.43c-.08-1.54-1.54-2.94-3.16-2.41-3.64,1.18-3.95,5.1-4.37,8.34-.49,3.85-.73,7.72-.74,11.6-.03,7.84,.82,15.66,2.01,23.4,.43,2.76,5.14,2.14,4.91-.66-.45-5.57-1-11.13-1.65-16.68-.33-2.83-.7-5.66-1.08-8.49-.36-2.68-.56-5.49-1.18-8.12-.55-2.33-2.59-4.53-5.16-3.72s-3.29,4.43-3.84,6.67C-.12,120.18-.13,125.55,.03,130.77c.19,6.35,.89,12.68,2.02,18.94,.52,2.85,4.84,2.06,4.91-.66,.27-10.88-.31-21.77-1.75-32.56-.32-2.38-3.2-3.5-4.66-1.26-3.35,5.14-2.92,12.13-2.64,18,.31,6.61,1.31,13.2,2.94,19.61,.7,2.75,4.9,2.15,4.91-.66,.06-12.96-.76-25.9-2.43-38.75-.13-1.01-.52-1.88-1.54-2.28-.86-.34-2.09-.26-2.73,.52-3.38,4.11-2.94,9.74-2.6,14.74,.38,5.67,1.33,11.3,2.82,16.78,.61,2.25,4.38,2.52,4.82,0,2.23-12.73-.94-25.66,1.14-38.37l-4.91-.66c-.69,11.14,.22,22.33,2.64,33.23,.55,2.49,4.15,2.27,4.82,0,1.28-4.34,1.2-8.91,1.28-13.39l.24-13.34,.49-27.18c.02-1.35-1.17-2.5-2.5-2.5-1.49,0-2.34,1.15-2.5,2.5-1.39,11.49-.95,23.1,1.15,34.47,.43,2.34,4.47,2.43,4.82,0,.57-3.9,.63-7.8,.68-11.73l.16-12.09,.32-23.93c.04-3.23-4.87-3.21-5,0-.56,13.32-1.02,26.66,1,39.89,.36,2.38,4.46,2.39,4.82,0l3.06-20.47c.48-3.24,.94-6.48,1.46-9.71,.46-2.85,1.05-5.65,2.69-8.07l-4.66-1.26c-.38,20.62,.46,41.26,2.52,61.78h5c-2.29-18.41-2.32-37.06-.1-55.48,.34-2.79-4.34-3.41-4.91-.66-3.3,15.93-2.9,32.23-2.4,48.39h5c-2.39-18.92-1.73-38.17,2.08-56.85,.64-3.16-3.75-4.37-4.82-1.33-5.94,16.81-6.32,34.86-6.61,52.49h5c-1.91-15.66,.09-31.4,2.3-46.92,.19-1.34-.33-2.69-1.75-3.08-1.33-.36-2.69,.45-3.08,1.75-2.63,8.89-5.28,17.81-6.81,26.97-.78,4.67-1.2,9.37-1.51,14.09s-.59,9.23-1.53,13.77l3.67-1.49c-1.39-.94-1.03-4.47-1.1-5.85-.16-3.22-.29-6.45-.38-9.67-.18-6.37-.22-12.74-.13-19.11,.04-2.6-3.34-3.24-4.66-1.26-2.74,4.11-2.6,9.57-2.72,14.32-.14,5.46,.05,10.92,.54,16.36,.29,3.22,4.7,3.21,5,0l3.29-34.75H2.22l.7,29.98H7.91L3.27,73.15l-4.91,.66c2.38,11.18,4.76,22.39,5.48,33.82l4.91-.66c-2.16-12.45-2.76-25.1-3.22-37.71l-4.91,.66c2.04,7.5,2.5,15.4,1.23,23.08l4.91,.66c-1.13-8.88-.54-17.82,.07-26.71H1.83l1.59,33.52c.15,3.2,4.92,3.23,5,0l.46-18.17,.23-8.96c.05-2.03-.14-4.78,1.2-6.49l-4.18-1.1c2.6,9.18,4.32,18.58,5.08,28.09h5l-1.92-16.79c-.28-2.49-.67-4.99-.75-7.49-.06-2.14,.17-4.1,1.51-5.84,.82-1.07,.17-2.8-.9-3.42-1.29-.75-2.6-.18-3.42,.9h0Z"/><path class="f" d="M88.61,94.27c3.22,0,3.22-5,0-5s-3.22,5,0,5h0Z"/><path class="f" d="M79.18,37.62c-9.63,14.79-19.94,29.13-30.92,42.95-.84,1.06-1.03,2.5,0,3.54,.87,.87,2.69,1.06,3.54,0,11.25-14.15,21.84-28.81,31.7-43.96,1.76-2.7-2.57-5.21-4.32-2.52h0Z"/><path class="f" d="M47.96,37.44c-7.48,15.21-14.94,30.44-21.19,46.21-1.78,4.49-3.46,9.03-5.01,13.61l4.82,1.33c5.3-17.41,11.53-34.92,22.28-49.8,2.97-4.12,6.33-7.95,10-11.46l-3.93-3.03c-10.71,16.52-19.28,34.29-27.3,52.23-2.28,5.1-4.51,10.21-6.75,15.32l4.57,1.93c3.84-17.19,9.48-34.27,19.42-48.95,2.74-4.04,5.81-7.83,9.2-11.35l-4.18-2.43c-.38,2.29-1.35,4.29-2.48,6.3-1.21,2.16-2.45,4.31-3.64,6.49-2.42,4.4-4.75,8.84-6.99,13.34-4.51,9.03-8.65,18.25-12.44,27.61-2.11,5.2-4.25,10.39-4.85,16.02h5c1.87-17.97,4.93-35.79,8.41-53.51,.61-3.13-3.93-4.46-4.82-1.33-4.6,16.22-8.16,32.72-10.63,49.4-.72,4.83-1.34,9.66-1.89,14.51-.32,2.81,4.28,3.38,4.91,.66,3.29-14.09,3.54-28.77,7.7-42.67,1.16-3.87,2.64-7.6,4.57-11.15l-4.66-1.26c-.71,5.41-2.08,10.72-3.39,16s-2.66,10.69-3.91,16.06c-2.52,10.85-4.69,21.8-5.91,32.88-.67,6.17-1.02,12.38-.95,18.59,.03,2.74,4.29,3.49,4.91,.66,1.98-9.11,2.46-18.45,4.2-27.6,.77-4.06,1.8-8.09,3.29-11.95,.71-1.84,1.57-3.63,2.55-5.35,.49-.86,1.01-1.7,1.56-2.52,.31-.46,.61-.98,.98-1.39,.79-.86,.12,.28-.73-.33l-.9-.9c.32,.46-.14,1.79-.29,2.33-.29,1.09-.61,2.17-.92,3.26-.65,2.29-1.31,4.58-1.98,6.86-1.29,4.41-2.59,8.82-3.92,13.22-2.7,8.96-5.5,17.89-8.38,26.79l4.91,.66c.5-4.4,1.79-8.75,3.72-12.73,.59-1.21,.33-2.7-.9-3.42-1.1-.64-2.83-.32-3.42,.9-2.34,4.84-3.79,9.92-4.4,15.26-.14,1.22,1.06,2.32,2.17,2.46,1.26,.15,2.35-.58,2.74-1.79,5-15.46,9.74-31.01,14.21-46.63,.85-2.97,3.49-9.57-.97-11-3.64-1.17-6.12,3.56-7.6,6.09-3.55,6.1-5.51,13-6.75,19.91-1.58,8.81-2.09,17.79-4,26.55l4.91,.66c-.24-22.11,4.99-43.7,10.29-65.02,1.52-6.13,3.04-12.24,3.87-18.51,.33-2.52-3.55-3.31-4.66-1.26-7.12,13.1-8.33,28.05-10.47,42.53-.62,4.19-1.34,8.36-2.3,12.49l4.91,.66c1.85-16.45,4.77-32.77,8.71-48.85,1.13-4.6,2.34-9.18,3.63-13.73l-4.82-1.33c-3.57,18.16-6.67,36.42-8.59,54.84-.14,1.34,1.25,2.5,2.5,2.5,1.47,0,2.36-1.15,2.5-2.5,.5-4.72,2.48-9.23,4.23-13.6s3.73-9.02,5.73-13.48c4.05-9.01,8.44-17.87,13.18-26.54,1.34-2.45,2.73-4.87,4.09-7.31s2.54-4.81,2.98-7.49c.18-1.11-.12-2.22-1.15-2.82-.94-.55-2.26-.41-3.03,.39-12.75,13.23-20.77,30.14-26.03,47.58-1.49,4.93-2.75,9.91-3.87,14.94-.27,1.21,.26,2.47,1.45,2.95,1.04,.42,2.62,.13,3.12-1.02,7.88-18.02,15.77-36.08,25.42-53.25,2.73-4.86,5.6-9.63,8.63-14.31,1.58-2.43-1.92-4.95-3.93-3.03-13.75,13.13-22.24,30.49-28.56,48.17-1.8,5.05-3.44,10.16-5,15.29-.94,3.1,3.8,4.36,4.82,1.33,5.32-15.73,12.2-30.86,19.43-45.79,2.07-4.29,4.17-8.56,6.27-12.83,.6-1.21,.33-2.7-.9-3.42-1.1-.64-2.82-.32-3.42,.9h0Z"/><path class="f" d="M15.33,143.78c.03,.35-.68,.38-.71,.43,.02-.05,.28,.33,.29,.35,.24,1.01,.15,1.99,0,3.02-.38,2.75-1.08,5.46-1.86,8.11s-1.64,5.12-2.52,7.66c-.68,1.96-1.4,3.91-2.95,5.35l4.27,1.77c.23-5.59,1.35-11.08,3.3-16.33,.94-2.55,2.11-5.02,3.45-7.38,1.2-2.12,2.45-4.53,4.71-5.66l-3.76-2.16c.21,1.77-.32,3.38-.82,5.06-.55,1.85-1.15,3.7-1.78,5.53-1.19,3.46-2.5,6.87-3.97,10.22s-3.17,6.9-4.97,10.23c-.22,.41-.66,.9-.79,1.32-.67,2.15-.26,.09-.22,.22-.08-.27,1.1,.21,.89,.27-.34,.11-.11-3.3-.07-3.68,.64-6.12,2.87-12.07,6.18-17.23,1.67-2.6,3.64-4.98,5.87-7.12,.47-.45,.94-.94,1.46-1.33,.59-.45,1.03-.3-.61-.57-.69-.11,.04-.81-.24-.1-.21,.53-.26,1.36-.41,1.98-.26,1.06-.54,2.12-.82,3.17-1.11,4.07-2.4,8.08-3.88,12.03-.69,1.84-1.41,3.68-2.19,5.49-.43,1-.87,2-1.33,3-.17,.38-.33,.78-.54,1.14-.11,.09-.17,.21-.17,.33-.51,.45-.22,.45,.86,0l1.84,2.41c-.67-9.44,3.09-18.88,10.15-25.22,.81-.73,1.81-1.29,2.6-2.01-.03,.02,.54-.28,.18-.23,.1-.01,.2,.32,.27,.57,.53,1.86-.17,4.36-.62,6.28-1.17,5.02-3.28,9.74-6.21,13.98-.66,.96-1.36,1.91-2.14,2.78-.12,.13-.49,.37-.51,.51l.94,.09,.33,.34c-.06,.09-.16-.79-.15-.95,.07-2.29,.58-4.62,1.16-6.82,1.27-4.8,3.43-9.3,6.31-13.34,1.41-1.98,3.04-3.81,4.8-5.48,.32-.3,1.06-.76,1.24-1.12l.06-.05c.5-.39,.09-.69-1.24-.9,.03-.03,.01,.15-.03,.26-.41,1.08-.67,2.51-1.03,3.7-1.63,5.33-3.87,10.43-6.67,15.24-.37,.64-.76,1.27-1.15,1.9-.27,.44-1.05,1.24-1.12,1.71l-.12,.13c.64-.32,1.19-.21,1.64,.32-.05,.03-.05-.34-.07-.2,.07-.57,0-1.18,.04-1.76,.19-2.58,.85-5.12,1.77-7.53s2.2-4.56,3.71-6.54c.85-1.11,1.82-2.15,2.84-3.11,.7-.66,1.76-1.92,2.74-2.07h-1.33l-.05-.06-.9-.9c-.02-.42-.03-.49-.04-.2,0,.13-.01,.26-.03,.39-.03,.3-.09,.59-.14,.89-.14,.73-.33,1.46-.54,2.18-.41,1.38-.93,2.72-1.5,4.04-1.28,2.96-2.66,5.89-4.09,8.78s-2.89,5.63-4.43,8.4c-1.23,2.19-2.41,5.14-4.69,6.45l3.67,1.49c-.49-1.42-.08-2.76,.36-4.15s.98-2.86,1.55-4.26c1.13-2.79,2.52-5.48,4.07-8.06,3.12-5.19,7-9.85,11.5-13.89l-3.03,.39c1.13,.76-.82-.71-.57-.86,.02,0-.2,.66-.16,.55-.29,.75-.73,1.48-1.1,2.2-.78,1.53-1.59,3.04-2.42,4.54-1.63,2.93-3.36,5.81-5.18,8.62-3.65,5.64-7.7,11.02-12.1,16.1l4.18,2.43c1.93-5.38,5.15-10.24,8.66-14.71,1.77-2.26,3.62-4.45,5.48-6.64,1.68-1.97,3.52-4.25,5.99-5.25l-3.08-1.75c.91,3.1-1.61,6.14-3.32,8.48-2.34,3.2-4.68,6.41-7.03,9.61l-14.05,19.22,4.32,2.52c4.22-9.39,10.66-17.77,18.85-24.03l-3.42-3.42c-5.65,7.95-11.32,15.97-15.16,24.99-.53,1.24-.37,2.68,.9,3.42,1.2,.7,2.7,.25,3.42-.9,6.04-9.64,13.43-18.35,21.92-25.92l-3.54-3.54-14.08,16.04,3.54,3.54c7.74-9.81,17.18-18.14,27.93-24.51l-3.76-2.16c-.04,.58-.84,1.17-1.22,1.52-.91,.83-1.88,1.59-2.83,2.39l-5.87,4.93-11.93,10.02,3.54,3.54c3.17-3.84,6.59-7.48,10.25-10.86,3.29-3.04,6.98-6.8,11.42-8.02l-3.08-3.08c-.41,2.28-3.2,3.82-4.86,5.17l-7.55,6.13-7.36,5.97-3.87,3.14c-.58,.47-1.15,.96-1.74,1.41-.22,.17-.44,.36-.69,.5s-.62,.16-.32,.22l1.49,3.67c5.1-9.18,14.49-14.64,23.65-19.1l-3.42-3.42c-2.89,3.84-6.15,7.4-9.68,10.66-1.71,1.58-3.49,3.1-5.34,4.52s-3.64,2.64-5.93,2.97l3.16,2.41c.37-4.02,2.4-7.7,4.34-11.16s4.15-6.93,6.51-10.21c4.67-6.51,10.1-12.45,16.08-17.78l-3.93-3.03c-7.22,10.6-15.02,20.78-23.39,30.5l4.18,2.43c2.66-7.57,6.54-14.61,10.46-21.59,4.19-7.45,8.38-14.9,12.57-22.36,1.39-2.47-1.88-5.04-3.93-3.03-10.26,10.05-16.59,23.08-23.64,35.39-2.01,3.52-4.11,6.99-6.38,10.34h4.32c-.82-1.62,.26-4.33,.62-5.96,.54-2.44,1.12-4.87,1.76-7.29,1.25-4.76,2.67-9.47,4.28-14.13s3.33-9.14,5.27-13.59c1.72-3.94,3.33-8.41,6.77-11.19l-4.27-1.77c-.23,3.37-2.01,6.7-3.33,9.76-1.4,3.25-2.86,6.46-4.4,9.65s-3.14,6.34-4.81,9.45c-.82,1.52-1.65,3.04-2.5,4.54-.46,.82-.93,1.64-1.4,2.46-.15,.26-.37,.53-.47,.8-.22,.59-.75,0,.39,.24l1.84,2.41c.55-9.1,1.68-18.16,3.42-27.11,.85-4.4,1.84-8.78,2.98-13.12,.96-3.66,2.05-7.51,4.5-10.48l-4.18-2.43-9.32,42.06c-.59,2.67,3.15,4.51,4.57,1.93,1.88-3.4,2.92-7.13,3.75-10.9,.89-4.04,1.72-8.09,2.58-12.13l2.63-12.35c.76-3.6,1.44-7.29,3.29-10.51l-4.32-2.52c-7.19,13.9-13.02,28.5-17.37,43.53l4.82,1.33c1.93-7.04,3.09-14.25,4.59-21.39,.73-3.48,1.54-6.94,2.58-10.34,.52-1.69,1.09-3.37,1.73-5.02,.32-.83,.67-1.66,1.04-2.47,.16-.36,.42-.72,.55-1.08,.04-.1,.1-.17,.19-.23-.35,.12-.34,.13,.04,.05h-1.33c-.05,0-.57-.61-.59-.59-.03,.02,.05,.87,.05,.93,.03,.72,.04,1.44,.03,2.16-.02,1.53-.12,3.05-.25,4.57-.26,3.07-.61,6.13-.8,9.2-.39,6.2-.39,12.42-.03,18.62,.17,2.88,3.93,3.31,4.91,.66,3.49-9.47,4.1-19.63,6.68-29.34,.63-2.37,1.36-4.72,2.32-6.98,.22-.53,.46-1.06,.72-1.57,.09-.17,.32-.43,.33-.59l.05-.06c-.37,.35-.73,.21-1.08-.4-1.05-.74-.8-.78-.82-.02,0,.39-.03,.78-.05,1.16-.04,.66-.11,1.32-.2,1.98-.75,5.45-2.21,10.85-3.37,16.23l-4.06,18.79c-.68,3.13,4.11,4.48,4.82,1.33,2.83-12.58,1.43-26.62,7.9-38.19l-3.42,.9c-.53-.39-.1-.33-.17,.02-.05,.27,.02,.7,0,1-.05,.87-.19,1.73-.3,2.59-.26,2.03-.53,4.06-.83,6.09-.61,4.18-1.29,8.34-2.04,12.49-1.5,8.3-3.3,16.55-5.37,24.74l4.91,.66c.07-7.16,.3-14.33,.7-21.48,.19-3.52,.42-7.03,.7-10.54,.24-3,.53-6.13,1.78-8.9l-4.57-1.93c-4.15,16.59-8.24,33.22-10.35,50.22-.35,2.81,4.26,3.36,4.91,.66,2.05-8.52,4.5-16.95,7.34-25.25s5.69-15.95,9.37-23.54c.99-2.03,2.06-4.03,3.26-5.95,.62-.99,1.27-1.95,1.96-2.89,.26-.36,.54-.7,.82-1.04,.17-.2,.41-.4,.54-.63,.05-.05,.1-.1,.15-.16,.35-.36-.1-.45-1.36-.25l-.64-1.1c.19,.49-.1,1.47-.23,2.13-.22,1.12-.51,2.22-.81,3.32-.59,2.18-1.21,4.36-1.83,6.54-1.27,4.49-2.57,8.98-3.9,13.45-2.68,9.03-5.49,18.02-8.41,26.98-1.65,5.06-3.34,10.11-5.06,15.15l4.91,.66c1.21-9.5,3.49-18.88,6.67-27.91,1.57-4.46,3.37-8.83,5.41-13.09,1.76-3.68,3.57-8.18,7-10.63l-3.76-2.16c-.05,4.65-2.09,9.14-3.58,13.47s-3.06,8.92-4.49,13.41c-2.88,9.05-5.39,18.22-6.94,27.6-.52,3.13,3.81,4.45,4.82,1.33,4.1-12.6,8.32-25.69,16.81-36.13l-4.18-2.43c-6.02,15.32-13.15,30.2-21.28,44.52l4.57,1.93c4.68-13.57,13.59-25.68,25.19-34.13l-3.67-2.82c-.38,2.51-1.99,4.42-3.52,6.36l-5.88,7.44-11.76,14.89,3.93,3.03c5.7-8.02,13.43-14.44,22.27-18.74l-3.42-.9c-.36-.67,.07-.88-.47-.27-.44,.49-.9,.95-1.36,1.43-.91,.95-1.81,1.9-2.73,2.85-1.77,1.83-3.54,3.66-5.33,5.47-2.86,2.9-5.83,6.08-9.83,7.35l2.43,4.18c3.43-4.09,7.07-7.99,10.93-11.67,3.32-3.17,6.84-6.54,11.27-8.06l-2.82-1.15,.14,.28-.34-1.26c0-.12,.2-.35,.04-.29-.23,.08-.62,.61-.81,.8-.43,.42-.87,.84-1.31,1.26-.99,.94-2.01,1.85-3.04,2.74-1.96,1.69-3.99,3.31-6.1,4.82-3.83,2.75-8.21,6.02-13.05,6.57l2.16,3.76c1.22-2.24,3.19-3.86,5.2-5.37,2.6-1.96,5.21-3.9,7.81-5.84,5.26-3.92,10.53-7.83,15.82-11.73,2.57-1.89,.41-5.75-2.52-4.32-7.55,3.67-13.62,9.6-19.38,15.58-2.92,3.03-5.8,6.1-8.87,8.98-.55,.52-1.1,1.13-1.74,1.53-.2,.12-.5,.28-.5,.26,0-.01,1.62,.65,1.11,.96,.05-.03,0-.71,0-.78,.01-2.3,.31-4.57,.82-6.81,1.02-4.46,2.78-8.69,4.83-12.76,1.94-3.84,4.1-7.63,6.75-11.04,1.3-1.68,2.75-3.26,4.3-4.7,.7-.65,1.42-1.29,2.18-1.86,.11-.09,.42-.23,.49-.35l-1.55-.67-.08-.11-.04-.1v.3c.09-.2-.11,.28-.13,.36-1.47,4.29-3.22,8.5-5.1,12.62-4.37,9.59-9.64,18.76-15.71,27.38-.71,1.01-.28,2.54,.64,3.23,1.05,.79,2.3,.63,3.28-.2,3.38-2.83,6.02-6.35,8.87-9.67s6.11-6.5,9.64-9.21c1.07-.82,1.64-2.15,.9-3.42-.61-1.05-2.34-1.73-3.42-.9-3.76,2.9-7.25,6.08-10.37,9.67s-5.66,7.08-9.15,10l3.93,3.03c6.11-8.68,11.42-17.92,15.8-27.59,1.14-2.51,2.22-5.05,3.24-7.61,.9-2.24,2.14-4.66,2.48-7.06,.37-2.58-1.11-5.44-4.11-4.98-1.37,.21-2.42,1.15-3.46,1.99-.97,.77-1.89,1.6-2.76,2.48-3.53,3.51-6.41,7.67-8.85,11.99-2.59,4.57-4.91,9.4-6.49,14.42-.83,2.62-1.39,5.3-1.71,8.03-.27,2.32-.81,5.54,1.05,7.34,1.97,1.9,4.88,.8,6.7-.69s3.49-3.22,5.14-4.9c7.36-7.43,14.22-15.77,23.8-20.43l-2.52-4.32c-5.55,4.09-11.08,8.19-16.61,12.31-2.61,1.95-5.24,3.88-7.82,5.86-2.42,1.85-4.71,3.84-6.19,6.55-.82,1.5,.17,3.98,2.16,3.76,6.39-.72,11.82-4.44,16.85-8.19,2.6-1.94,5.13-3.99,7.53-6.17,2.26-2.05,6.06-4.64,4.41-8.09-.45-.94-1.85-1.48-2.82-1.15-5,1.71-9,5.13-12.79,8.7-4.11,3.87-7.99,7.99-11.62,12.32-1.49,1.78-.14,4.99,2.43,4.18,5.36-1.69,9.24-5.78,13.07-9.69,2.18-2.23,4.35-4.47,6.51-6.73,2.02-2.12,4.82-4.58,3.12-7.75-.67-1.25-2.24-1.47-3.42-.9-9.63,4.69-17.87,11.82-24.06,20.54-1.63,2.29,2.16,5.26,3.93,3.03l12.38-15.67c2-2.53,4.01-5.06,6.01-7.6,1.79-2.28,3.61-4.67,4.06-7.62,.15-1.01-.02-1.97-.9-2.63-.74-.55-1.97-.79-2.78-.2-12.72,9.27-22.35,22.23-27.49,37.12-.93,2.7,3.19,4.36,4.57,1.93,8.34-14.7,15.6-29.98,21.78-45.71,.9-2.29-2.64-4.33-4.18-2.43-9.07,11.16-13.7,24.84-18.09,38.33l4.82,1.33c1.58-9.53,4.15-18.86,7.09-28.05,1.46-4.57,3.02-9.11,4.58-13.64s3.48-9.19,3.53-14.11c.02-1.77-2.19-3.28-3.76-2.16-3.1,2.21-5.16,5.28-6.9,8.61-1.84,3.54-3.5,7.18-5.03,10.86-3.07,7.37-5.5,15-7.25,22.79-1.02,4.52-1.78,9.09-2.37,13.69-.15,1.22,1.07,2.32,2.17,2.46,1.27,.15,2.33-.58,2.74-1.79,6.44-18.83,12.38-37.84,17.77-57,.64-2.29,1.32-4.57,1.89-6.88,.48-1.95,1.39-4.71,.46-6.64-1.27-2.64-4.4-2.34-6.26-.52-1.55,1.52-2.82,3.51-3.98,5.33-2.36,3.7-4.21,7.69-5.93,11.72-1.9,4.46-3.7,8.97-5.38,13.53-3.73,10.16-6.87,20.53-9.4,31.05l4.91,.66c2.05-16.54,6.13-32.75,10.17-48.89,.3-1.2-.29-2.48-1.45-2.95-1.05-.42-2.6-.13-3.12,1.02-1.46,3.23-2.04,6.6-2.35,10.12s-.55,7.24-.75,10.86c-.43,7.48-.68,14.97-.75,22.47-.03,2.8,4.21,3.42,4.91,.66,2.27-8.97,4.2-18.02,5.79-27.13,.78-4.48,1.47-8.97,2.09-13.47,.3-2.2,.7-4.42,.84-6.64s-.52-4.02-2.3-5.34c-1.07-.79-2.82-.18-3.42,.9-6.76,12.09-5.46,26.26-8.4,39.39l4.82,1.33,4.06-18.79c1.34-6.21,3.13-12.5,3.69-18.84,.12-1.37,.33-3.02-.35-4.29-.78-1.45-2.36-2.13-3.96-1.83-3.01,.56-4.05,4.11-5.01,6.59-2.07,5.35-3.15,11.01-4.17,16.64-1.13,6.3-2.21,12.64-4.43,18.67l4.91,.66c-.36-6.2-.36-12.42,.03-18.62,.19-3.07,.54-6.13,.8-9.2,.24-2.83,.7-6.18,0-8.96-.81-3.19-4.43-3.86-6.61-1.55-.97,1.02-1.47,2.34-2.01,3.61-.58,1.35-1.12,2.72-1.61,4.11-1.85,5.24-3.07,10.68-4.15,16.12-1.25,6.28-2.35,12.59-4.05,18.77-.85,3.11,3.93,4.42,4.82,1.33,4.23-14.63,9.87-28.81,16.86-42.34,1.47-2.85-2.7-5.33-4.32-2.52-1.91,3.32-2.8,7.02-3.59,10.74-.88,4.12-1.75,8.24-2.63,12.35s-1.73,8.16-2.6,12.24c-.78,3.63-1.62,7.28-3.43,10.56l4.57,1.93,9.32-42.06c.49-2.23-2.47-4.5-4.18-2.43-2.77,3.36-4.32,7.33-5.47,11.49-1.26,4.57-2.29,9.2-3.2,13.85-1.87,9.54-3.1,19.21-3.69,28.92-.06,1.03,.82,2.19,1.84,2.41,4.4,.93,6.34-4.37,8.04-7.45,2.02-3.64,3.94-7.34,5.77-11.08s3.5-7.38,5.11-11.14,3.62-7.8,3.92-12.07c.16-2.38-2.74-3-4.27-1.77-2.88,2.34-4.61,5.68-6.12,9-1.78,3.89-3.44,7.84-4.97,11.83-2.96,7.73-5.43,15.65-7.38,23.7-.55,2.27-1.07,4.54-1.52,6.83s-.62,4.64,.51,6.86c.91,1.78,3.33,1.45,4.32,0,7.85-11.6,13.43-24.6,21.67-35.94,2.28-3.13,4.8-6.08,7.56-8.78l-3.93-3.03c-4.27,7.59-8.54,15.17-12.8,22.76s-7.98,14.54-10.74,22.38c-.81,2.32,2.57,4.3,4.18,2.43,8.64-10.04,16.71-20.57,24.17-31.52,1.67-2.45-1.9-4.83-3.93-3.03-6.41,5.71-12.14,12.15-17.12,19.15-2.42,3.41-4.66,6.95-6.68,10.62-2.25,4.07-4.18,8.25-4.61,12.93-.16,1.8,1.72,2.62,3.16,2.41,2.54-.36,4.78-1.71,6.8-3.22,2.2-1.65,4.33-3.4,6.36-5.25,3.98-3.63,7.55-7.66,10.78-11.96,.66-.87,.33-2.31-.39-3.03-.82-.82-2.02-.88-3.03-.39-9.93,4.83-19.93,10.97-25.44,20.89-.74,1.33-.13,3.34,1.49,3.67,3.76,.78,6.7-2.67,9.36-4.83l8.71-7.07,8.52-6.91c2.4-1.95,5.36-3.95,5.95-7.22,.33-1.82-1.11-3.62-3.08-3.08-5.06,1.39-9.16,5.25-12.96,8.69s-7.56,7.39-10.92,11.47c-2.05,2.48,1.05,5.62,3.54,3.54l13.07-10.97,6.44-5.41c1.96-1.65,3.61-3.33,3.81-6.01,.14-1.92-2.22-3.07-3.76-2.16-11.09,6.58-20.96,15.17-28.95,25.29-.84,1.06-1.03,2.5,0,3.54,.91,.91,2.64,1.02,3.54,0l14.08-16.04c2.12-2.42-1.12-5.69-3.54-3.54-8.8,7.85-16.44,16.95-22.7,26.93l4.32,2.52c3.85-9.01,9.51-17.04,15.16-24.99,1.4-1.97-1.44-4.93-3.42-3.42-8.88,6.79-16.05,15.6-20.64,25.83-1.32,2.95,2.41,5.14,4.32,2.52l14.93-20.42c2.4-3.28,4.88-6.51,7.19-9.85s3.94-6.97,2.79-10.89c-.35-1.19-1.8-2.26-3.08-1.75-3.05,1.23-5.39,3.3-7.53,5.76s-4.16,4.89-6.14,7.41c-4.08,5.19-7.7,10.67-9.95,16.92-.83,2.32,2.57,4.29,4.18,2.43,5.16-5.96,9.89-12.31,14.08-19,2.06-3.28,3.99-6.65,5.78-10.08,1.54-2.96,4.42-7.39,.65-9.92-.95-.64-2.24-.32-3.03,.39-5,4.5-9.32,9.8-12.7,15.62-1.7,2.92-3.15,5.97-4.39,9.11s-2.89,7.03-1.68,10.49c.53,1.51,2.2,2.34,3.67,1.49,3.67-2.12,5.57-6.54,7.51-10.11,2.2-4.03,4.25-8.14,6.16-12.31s4.02-8.35,4.22-12.85c.11-2.51-1.91-4.52-4.47-3.73-1.8,.55-3.43,2.23-4.76,3.52-5.53,5.37-8.94,12.78-9.51,20.46-.14,1.84-.04,3.92,1.34,5.31,1.69,1.71,4.3,1.29,5.82-.41,1.4-1.58,2.44-3.62,3.48-5.45s2.03-3.79,2.92-5.74c1.81-3.97,3.32-8.08,4.44-12.29,.51-1.92,.91-4.2-.64-5.78-1.91-1.95-4.49-1.01-6.28,.52-5.93,5.05-10.3,12.1-12.77,19.43-.59,1.76-1.07,3.55-1.42,5.37s-.83,3.98-.71,5.92,.79,3.7,2.54,4.56c2.42,1.2,4.57-.46,6.04-2.27,5.13-6.34,8.57-13.98,9.7-22.07,.47-3.37,.16-8.06-3.88-9.06-2.39-.6-4.42,.83-6.18,2.23-1.44,1.15-2.78,2.42-4,3.8-5.1,5.76-8.24,13.01-9,20.67-.18,1.84-.2,3.68-.07,5.52,.07,1.01,.72,2.22,1.84,2.41,2.35,.4,4.08-.87,5.11-2.93s1.97-4.39,2.88-6.6c1.8-4.41,3.38-8.91,4.71-13.48,.66-2.25,1.27-4.51,1.8-6.79,.45-1.96,.55-4.18-1.02-5.69-3.65-3.53-8.47,2.44-10.66,5.01-5.27,6.19-8.95,13.8-10.26,21.85-.54,3.31-1.67,8.86,2.02,10.85,4.76,2.57,7.41-3.98,9.01-7.17,2.38-4.76,4.49-9.66,6.35-14.65,.89-2.4,1.71-4.81,2.47-7.25s1.79-5.25,1.47-7.95c-.22-1.92-1.94-3.07-3.76-2.16-2.72,1.36-4.44,3.97-5.95,6.5-1.65,2.78-3.03,5.7-4.2,8.71-2.29,5.89-3.53,12.17-3.79,18.48-.09,2.26,2.75,3.17,4.27,1.77,2.6-2.41,3.65-5.84,4.77-9.09,1.26-3.68,2.49-7.39,3.3-11.2,.74-3.48,1.91-8.04-.75-11-1.19-1.33-3.07-2.04-4.83-1.56-1.92,.53-3.42,2.37-3.28,4.39,.1,1.35,1.08,2.5,2.5,2.5,1.28,0,2.6-1.15,2.5-2.5h0Z"/><path class="f" d="M45.38,73.47c-2.56,11.3-6.17,22.36-10.87,32.94l4.57,1.93c3.07-13.52,5.29-27.22,6.7-41.01,.21-2.06-2.23-2.88-3.76-2.16-2.99,1.42-4.03,5.03-5.15,7.86-1.36,3.4-2.59,6.85-3.7,10.35-2.2,6.91-3.89,13.97-5.09,21.12-.22,1.33,.35,2.69,1.75,3.08,1.22,.33,2.83-.41,3.08-1.75l6.71-36.27-4.82-1.33-2.93,17.62c-.48,2.88-1.07,5.77-1.41,8.68-.26,2.2,.19,5.73,2.78,6.44,3.25,.89,4.56-2.63,5.28-5l2.53-8.3,5.2-17.07,5.85-19.2c.39-1.29-.47-2.72-1.75-3.08-1.43-.39-2.57,.49-3.08,1.75-5.03,12.44-9.93,24.99-12.79,38.14l4.82,1.33c1.21-6.87,2.4-13.74,3.55-20.62,.56-3.36,1.11-6.72,1.66-10.08s1.43-6.67-.15-9.83c-.89-1.78-3.35-1.46-4.32,0-4.01,6.07-6.76,12.95-8.03,20.12-.25,1.43,.38,2.56,1.75,3.08,2.43,.92,4.26-1.3,4.95-3.34,.77-2.27,1.33-4.65,1.98-6.95l4.03-14.15-3.08,1.75c.67,.24-.94-.43-.73-.71-.03,.04,.02,.51,.01,.61-.02,.44-.17,1.07-.29,1.69l-1,5.34-1.87,9.94-1.87,9.94c-.63,3.36-1.34,6.73-1.55,10.14-.09,1.43-.22,3.06,.24,4.44,.57,1.7,2.35,2.72,4.09,2.29,3.05-.75,3.94-4.35,4.92-6.9,2.14-5.62,3.98-11.36,6.01-17.02,2.3-6.4,4.9-12.67,8.47-18.48l-4.57-1.93c-5.65,15.62-11.22,31.36-13.02,47.97-.23,2.1,2.93,3.37,4.27,1.77,2.55-3.07,3.28-6.75,4.05-10.56,.86-4.26,1.85-8.49,2.97-12.68,2.22-8.32,4.95-16.49,8.16-24.48l-4.82-1.33c-4.69,16.35-9.36,32.76-11.94,49.6-.2,1.33,.34,2.69,1.75,3.08,1.34,.37,2.68-.45,3.08-1.75,4.92-16.07,9.83-32.2,16.56-47.63l-4.57-1.93c-5.64,15.66-11.53,31.34-16.07,47.37-1.3,4.58-2.27,9.29-2.21,14.07,.03,2.78,4.21,3.45,4.91,.66,4.39-17.36,8.77-34.77,14.58-51.72,1.4-4.09,2.96-8.31,5.68-11.74l-4.18-2.43c-2.85,9.66-6,19.23-9.46,28.69-1.7,4.67-3.49,9.31-5.33,13.94s-3.42,9.11-3.63,14.04c-.1,2.44,3.53,3.46,4.66,1.26,8.44-16.39,11.98-34.96,21.79-50.68l-4.57-1.93c-5.73,15.49-11.65,30.92-17.06,46.53-1.52,4.37-2.92,8.76-3.13,13.42-.12,2.56,3.42,3.3,4.66,1.26,2.51-4.13,3.73-8.9,5.14-13.48,1.44-4.69,2.86-9.38,4.32-14.06,2.95-9.42,6.06-18.8,9.74-27.97,2.06-5.13,4.33-10.17,6.83-15.11l-4.32-2.52c-9.41,20.49-18.15,41.44-23.55,63.39-1.53,6.23-3.53,13-2.76,19.46,.13,1.11,.69,2.09,1.84,2.41,1.02,.28,2.33-.17,2.82-1.15,2.11-4.23,3.29-8.76,4.35-13.34s2.26-9.32,3.56-13.94c2.63-9.28,5.74-18.42,9.33-27.37,2-5,4.16-9.93,6.46-14.8,1.35-2.87-2.62-5.32-4.32-2.52-8.28,13.67-12.84,29.09-18.26,44.02-1.51,4.17-3.09,8.32-4.87,12.38l4.66,1.26c1.39-16.5,5.09-32.79,10.89-48.3,1.48-3.96,2.89-8.39,5.64-11.69l-4.18-1.1c.64,1.62-.03,3.4-.4,5.02-.46,1.99-.94,3.98-1.44,5.97-1,3.97-2.06,7.93-3.13,11.88-2.15,7.97-4.3,15.95-5.91,24.05-.92,4.61-1.64,9.25-2.13,13.92-.3,2.83,4.24,3.36,4.91,.66,2.26-9.16,4.53-18.32,7.36-27.32,1.4-4.46,2.94-8.87,4.67-13.21,1.49-3.72,3.08-7.57,6.06-10.36l-4.18-1.1c.7,1.71,.21,3.62-.07,5.38-.34,2.13-.74,4.24-1.19,6.35-.89,4.14-1.96,8.23-3.12,12.3-2.38,8.31-5.12,16.51-7.43,24.83-1.29,4.68-2.44,9.39-3.31,14.17l4.82,1.33c2.5-15.44,6.53-30.6,12.04-45.24l-4.82-1.33c-5.99,17.73-11.89,35.54-14.38,54.15-.37,2.77,4.52,3.45,4.91,.66,2.79-20.14,7.3-40.02,13.45-59.39,.41-1.29-.48-2.73-1.75-3.08-1.39-.38-2.61,.47-3.08,1.75-5.87,16.05-10.54,32.54-13.93,49.29-.96,4.75-1.82,9.52-2.58,14.31-.21,1.33,.34,2.69,1.75,3.08,1.21,.33,2.83-.41,3.08-1.75,2.74-15.21,5.53-30.92,13.1-44.6,1.03-1.85,2.14-3.66,3.34-5.41,1.13-1.66,2.37-3.3,4.09-4.38l-3.67-1.49c.71,2.21,.07,4.42-.53,6.58-.7,2.52-1.44,5.04-2.18,7.55-1.46,4.95-2.97,9.88-4.53,14.8-3.13,9.92-6.41,19.79-9.68,29.66l4.82,1.33c1.99-8.59,4.01-17.19,6.65-25.61,1.29-4.12,2.73-8.2,4.4-12.19,1.35-3.24,2.78-7.6,5.81-9.68l-3.67-2.82c-7.37,17.82-14.74,35.72-19.52,54.45-.68,2.65,3.27,4.55,4.57,1.93,6.36-12.88,10.36-27.01,18.42-39.02,2.18-3.25,4.7-6.24,7.56-8.92l-3.93-.51c.76,1.17-1.08,3.74-1.59,4.76l-3.11,6.26-6.55,13.19-12.99,26.16,4.32,2.52c5.94-13.75,12.38-28.77,24.93-37.81l-3.67-2.82c-.62,3.66-3.25,6.72-5.28,9.71l-7.08,10.47-14.16,20.94,4.32,2.52c2.99-5.35,6.51-10.37,10.59-14.95,3.73-4.19,8.04-8.99,13.55-10.71l-2.43-4.18-27.97,32.55c-2.08,2.42,1.21,5.82,3.54,3.54,8.61-8.42,17.26-16.9,27.24-23.71l-3.03-3.93-24.46,23.29,3.54,3.54c6.09-7.82,14.18-14,23.44-17.57l-2.43-4.18c-5.89,5.92-12.22,11.38-19.48,15.57l3.42,3.42c5.58-8.61,14.44-14.75,24.4-17.09l-1.93-4.57-21.06,16.22,3.42,3.42c2.67-4.2,6.63-7.27,10.86-9.81,2.16-1.3,4.4-2.47,6.65-3.61s4.98-2.97,7.57-2.36l-1.1-4.18c-5.33,4.79-11.37,8.67-17.9,11.61l3.03,3.93c6.89-8.38,15.89-14.9,26.09-18.65l-1.93-4.57c-8.21,5.65-17.17,10.11-26.66,13.17l3.08,3.08c.84-3.31,3.63-5.77,5.92-8.14,2.7-2.8,5.48-5.54,8.32-8.19s5.77-5.23,8.75-7.73c2.58-2.16,5.24-4.34,8.68-4.85l-2.43-4.18-18.75,18.02-9.28,8.92-4.64,4.46c-.75,.72-1.48,1.46-2.25,2.16-.29,.27-.91,.9-1.33,.79l1.84,2.41c.26-4.16,1.82-8.11,3.67-11.81s4.14-7.62,6.43-11.28c4.57-7.3,9.73-14.21,15.44-20.66,3.02-3.42,6.12-6.95,10.25-9.03l-3.42-3.42c-4.18,7.58-9.74,14.35-14.95,21.25l-8.14,10.79c-2.53,3.35-4.95,6.84-8.03,9.71l3.93,.51c-.67-1.17,.3-3.11,.67-4.26,.58-1.8,1.21-3.59,1.89-5.36,1.35-3.56,2.9-7.03,4.61-10.42,3.3-6.53,7.13-13.16,12.11-18.57,1.28-1.39,2.65-2.71,4.14-3.87,.44-.34,.9-.67,1.37-.98,.34-.22,.9-.4,1.18-.66,0,0,.21-.04,.22-.05,0,.04-.61-.42-.64-.49-.27-.63,.59-1.38,1.02-1.54-1.27,.46-2.12,1.7-1.75,3.08,.34,1.23,1.8,2.2,3.08,1.75,2.24-.8,3.16-3.12,2.21-5.29-1.12-2.55-4.01-2.96-6.36-1.92-2.14,.95-4.06,2.63-5.77,4.21s-3.26,3.31-4.7,5.14c-6.16,7.8-10.91,16.78-14.64,25.97-1.03,2.53-1.96,5.1-2.8,7.69s-1.67,5.5-.16,8.11c.83,1.44,2.76,1.59,3.93,.51,3.15-2.94,5.64-6.51,8.22-9.94l8.44-11.18c5.3-7.02,10.98-13.91,15.24-21.64,1.25-2.26-1.21-4.53-3.42-3.42-3.91,1.97-7.01,5.11-9.92,8.31-3.11,3.42-6.06,6.99-8.87,10.66-5.54,7.22-10.55,14.91-14.73,23-2.46,4.76-4.42,9.74-4.76,15.13-.07,1.08,.82,2.14,1.84,2.41,2.26,.61,4.2-.36,5.89-1.81s3.26-3.1,4.87-4.65l10.18-9.78,20.18-19.39c.8-.77,.94-2.09,.39-3.03-.6-1.03-1.71-1.31-2.82-1.15-3.95,.58-7.18,3.07-10.16,5.54-3.24,2.68-6.4,5.46-9.47,8.33s-6.07,5.82-8.97,8.87c-2.7,2.83-5.57,5.76-6.56,9.67-.45,1.77,1.21,3.68,3.08,3.08,9.89-3.19,19.29-7.78,27.85-13.67,1.02-.7,1.55-1.93,1.02-3.12-.47-1.06-1.76-1.88-2.95-1.45-11,4.03-20.85,10.88-28.3,19.93-1.84,2.23,.4,5.11,3.03,3.93,6.91-3.12,13.27-7.32,18.91-12.39,1.38-1.24,.68-3.76-1.1-4.18-3.6-.84-6.84,.58-10.01,2.16-2.61,1.3-5.22,2.63-7.73,4.12-5.1,3.02-9.79,6.76-12.99,11.8-1.27,1.99,1.39,4.98,3.42,3.42l21.06-16.22c.99-.76,1.57-1.88,1.02-3.12-.51-1.16-1.71-1.74-2.95-1.45-11.23,2.65-21.13,9.72-27.39,19.39-1.39,2.15,1.32,4.63,3.42,3.42,7.61-4.39,14.31-10.15,20.49-16.35,1.65-1.66,0-5.11-2.43-4.18-10.07,3.87-19.01,10.33-25.65,18.86-.83,1.06-1.04,2.5,0,3.54,.98,.98,2.55,.93,3.54,0l24.46-23.29c2.02-1.92-.65-5.55-3.03-3.93-10.33,7.06-19.33,15.77-28.25,24.49l3.54,3.54,27.97-32.55c1.53-1.78,.12-4.97-2.43-4.18-6.28,1.96-11.16,6.89-15.46,11.66s-8.4,10.45-11.67,16.29c-1.59,2.84,2.53,5.17,4.32,2.52l14.44-21.35,7.22-10.67c2.15-3.18,4.71-6.41,5.36-10.29,.17-1.01-.03-1.98-.9-2.63-.74-.55-1.96-.78-2.78-.2-13.39,9.64-20.37,24.89-26.72,39.61-.54,1.24-.37,2.68,.9,3.42,1.11,.65,2.82,.32,3.42-.9l13.87-27.95,6.88-13.86c1.11-2.24,2.31-4.46,3.33-6.75s1.55-4.7,.15-6.87c-.89-1.38-2.71-1.64-3.93-.51-10.88,10.19-16.18,24.4-21.79,37.85-1.56,3.74-3.18,7.46-4.97,11.1l4.57,1.93c4.78-18.73,12.15-36.63,19.52-54.45,.83-2-1.97-4-3.67-2.82-3.64,2.5-5.42,6.44-7.13,10.37-1.87,4.3-3.51,8.7-4.96,13.17-2.85,8.84-4.98,17.89-7.07,26.93-.73,3.15,3.81,4.38,4.82,1.33,5.26-15.85,10.53-31.71,15.17-47.76,1.24-4.27,3.17-9.04,1.75-13.49-.48-1.49-2.25-2.38-3.67-1.49-3.47,2.17-5.76,5.78-7.84,9.21s-3.9,7.19-5.47,10.97c-3.14,7.56-5.22,15.52-6.9,23.51-.96,4.54-1.79,9.11-2.61,13.69l4.82,1.33c2.68-16.88,6.62-33.55,11.81-49.84,1.47-4.62,3.04-9.21,4.71-13.76l-4.82-1.33c-6.16,19.38-10.66,39.26-13.45,59.39l4.91,.66c2.43-18.13,8.37-35.57,14.2-52.82,.43-1.28-.5-2.73-1.75-3.08-1.4-.39-2.6,.48-3.08,1.75-5.51,14.64-9.54,29.8-12.04,45.24-.22,1.33,.35,2.69,1.75,3.08,1.21,.33,2.83-.41,3.08-1.75,3.17-17.4,10.09-33.81,13.81-51.08,.52-2.4,.97-4.82,1.34-7.25s.92-5.02-.04-7.36c-.71-1.73-2.69-2.5-4.18-1.1-3.28,3.08-5.13,7.16-6.81,11.25-1.84,4.47-3.46,9.02-4.92,13.62-2.96,9.29-5.31,18.77-7.65,28.23l4.91,.66c1.74-16.55,6.95-32.45,10.99-48.52,.56-2.21,1.09-4.43,1.59-6.66s1.14-4.73,.25-6.99c-.62-1.56-2.85-2.7-4.18-1.1-2.72,3.27-4.29,7.13-5.83,11.05s-3,8.05-4.29,12.14c-2.62,8.34-4.64,16.87-6.04,25.5-.8,4.92-1.41,9.87-1.83,14.84-.2,2.39,3.67,3.52,4.66,1.26,6.36-14.55,10.39-30.01,16.91-44.49,1.84-4.09,3.89-8.08,6.22-11.91l-4.32-2.52c-8.25,17.5-14.75,35.82-19.23,54.65-1.19,5-2.15,10.17-4.47,14.8l4.66,1.26c-.66-5.55,.92-11.18,2.2-16.54s2.73-10.58,4.36-15.8c3.27-10.47,7.18-20.73,11.46-30.82,2.44-5.76,5-11.48,7.61-17.17,.56-1.23,.35-2.69-.9-3.42-1.11-.65-2.81-.31-3.42,.9-8.97,17.71-14.8,36.73-20.58,55.65-1.53,5.02-2.7,10.44-5.45,14.96l4.66,1.26c.23-4.98,2.13-9.74,3.76-14.4,1.74-4.93,3.53-9.84,5.35-14.74,3.63-9.83,7.27-19.65,10.91-29.47,1.01-2.74-3.12-4.25-4.57-1.93-9.82,15.74-13.34,34.3-21.79,50.68l4.66,1.26c.19-4.66,2-9.06,3.7-13.34,1.81-4.56,3.56-9.14,5.24-13.75,3.39-9.31,6.48-18.73,9.29-28.24,.67-2.26-2.58-4.45-4.18-2.43-5.39,6.79-7.65,15.67-10.18,23.82-2.72,8.76-5.14,17.62-7.45,26.5-1.33,5.11-2.62,10.23-3.92,15.35l4.91,.66c-.09-8.03,2.9-15.86,5.34-23.4s5.23-15.6,7.98-23.36c1.58-4.45,3.18-8.9,4.78-13.35,.95-2.63-3.43-4.53-4.57-1.93-6.91,15.83-12.02,32.33-17.06,48.82l4.82,1.33c2.58-16.84,7.26-33.25,11.94-49.6,.37-1.3-.45-2.72-1.75-3.08-1.43-.39-2.57,.49-3.08,1.75-3.09,7.7-5.74,15.56-7.91,23.56-1.08,3.96-2.04,7.96-2.88,11.97-.68,3.22-.9,7.34-3.1,9.98l4.27,1.77c1.74-16.11,7.36-31.5,12.84-46.64,.99-2.74-3.13-4.27-4.57-1.93-3.98,6.48-6.81,13.57-9.34,20.71-1.25,3.53-2.44,7.08-3.68,10.61-.63,1.8-1.28,3.59-1.96,5.37-.31,.82-.63,1.64-.96,2.45-.1,.23-.31,.56-.39,.81-.07,.11-.16,.21-.27,.29,.27-.18,.57-.26,.9-.24l1.1,.64c.05,.13,.11,.27,.16,.4-.01-.24-.02-.48-.02-.71,0-.47,0-.95,.02-1.42,.04-1.03,.13-2.06,.26-3.08,.25-1.84,.62-3.66,.96-5.48l2.32-12.37,2.28-12.13c.62-3.3,1.99-7.92-2.17-9.43-1.28-.47-2.73,.53-3.08,1.75l-3.21,11.27-1.57,5.51-.82,2.88c-.11,.4-.2,.81-.34,1.2-.06,.09-.08,.18-.06,.27-.46,.66-.07,.6,1.2-.19l1.75,3.08c1.2-6.79,3.73-13.17,7.52-18.92h-4.32c.49,.97,.24,2.24,.08,3.27-.25,1.56-.5,3.12-.76,4.67-.52,3.2-1.05,6.39-1.59,9.59-1.07,6.39-2.17,12.77-3.3,19.15-.23,1.33,.36,2.69,1.75,3.08,1.25,.34,2.79-.42,3.08-1.75,2.87-13.14,7.77-25.7,12.79-38.14l-4.82-1.33-7.3,23.95-3.61,11.85-1.81,5.93-.87,2.85c-.1,.34-.49,1.05-.43,1.42,.1,.74-.94-.05,.63,0l1.77,.73c-.89-.85,.02-3.63,.2-4.72l1.22-7.34,2.52-15.17c.22-1.33-.35-2.69-1.75-3.08-1.22-.33-2.83,.41-3.08,1.75l-6.71,36.27,4.82,1.33c1.13-6.69,2.68-13.3,4.67-19.78,.99-3.2,2.08-6.37,3.27-9.51,.57-1.51,1.16-3.02,1.8-4.5,.45-1.03,.86-2.05,1.91-2.55l-3.76-2.16c-1.36,13.35-3.55,26.6-6.52,39.68-.27,1.21,.27,2.47,1.45,2.95,1.05,.42,2.61,.13,3.12-1.02,4.88-10.99,8.72-22.4,11.37-34.14,.71-3.13-4.11-4.47-4.82-1.33h0Z"/><path class="f" d="M80.27,66.25c-5.04,15.63-11.48,30.74-17.94,45.82l4.57,1.93,15.49-51.78c.5-1.68-1.27-3.81-3.08-3.08-2.02,.82-3.07,2.25-3.83,4.24s-1.44,4.17-2.15,6.25l-4.31,12.61-4.31,12.61c-1.44,4.21-3.14,8.43-3.86,12.84-.45,2.79,2.88,4.32,4.57,1.93,2.73-3.88,4.43-8.4,6.48-12.66s4.08-8.13,6.39-12.05c4.56-7.74,9.95-14.96,16.61-21.03l-4.18-2.43c-1.42,3.85-3.93,7.36-5.91,10.93-2.13,3.85-4.17,7.76-6.11,11.71-3.88,7.88-7.39,15.95-10.53,24.16-1.76,4.62-3.4,9.28-4.92,13.99-.85,2.65,3.42,4.55,4.57,1.93,7.68-17.47,15.39-34.97,25.09-51.44l-4.32-2.52c-8.6,18.42-17.19,36.87-24.64,55.8-.9,2.29,2.62,4.31,4.18,2.43,2.53-3.05,4.03-6.6,5.7-10.16s3.54-7.3,5.46-10.88c3.84-7.15,8.08-14.08,12.7-20.75,2.32-3.36,4.67-7.41,8.02-9.86l-3.42-3.42c-6.91,14.35-15.84,27.63-22.39,42.16-.55,1.23-.35,2.69,.9,3.42,1.13,.66,2.79,.3,3.42-.9,3.99-7.6,7.99-15.21,12.47-22.54,2.21-3.62,4.55-7.17,7.05-10.6,1.21-1.67,2.47-3.3,3.78-4.89s2.54-3.07,4.24-4.11l-3.76-2.16c.03,.89-.57,1.68-.98,2.45-.5,.95-1,1.89-1.51,2.83-1.05,1.95-2.12,3.89-3.19,5.83-2.07,3.75-4.15,7.49-6.17,11.26-4.13,7.72-7.98,15.6-10.95,23.84-.68,1.88,1.35,3.49,3.08,3.08,2.3-.55,3.39-2.59,4.46-4.49,1.16-2.07,2.32-4.13,3.49-6.2,2.34-4.13,4.71-8.24,7.19-12.29,4.92-8,10.3-15.72,16.73-22.59l-3.93-3.03-28.66,50.94c-1.58,2.81,2.74,5.33,4.32,2.52l28.66-50.94c1.36-2.42-1.94-5.15-3.93-3.03-6.3,6.74-11.69,14.28-16.57,22.09-2.44,3.9-4.75,7.87-7.03,11.86-1.1,1.93-2.19,3.87-3.28,5.81-.58,1.03-1.16,2.07-1.74,3.1-.24,.42-.53,.82-.75,1.25-.1,.07-.19,.15-.26,.25,.39-.18,.39-.21-.02-.08l3.08,3.08c2.97-8.27,6.92-16.14,11.09-23.86,2.11-3.9,4.27-7.77,6.41-11.66,1.03-1.87,2.06-3.75,3.07-5.64s2.49-4.07,2.41-6.39c-.06-1.85-2.09-3.18-3.76-2.16-3.7,2.26-6.31,6.1-8.87,9.52s-5.16,7.3-7.51,11.1c-4.68,7.56-8.81,15.44-12.94,23.31l4.32,2.52c6.55-14.53,15.48-27.82,22.39-42.16,.49-1.01,.44-2.2-.39-3.03-.73-.73-2.15-1.04-3.03-.39-3.3,2.42-5.61,5.73-7.96,9.03s-4.71,6.8-6.91,10.29c-4.37,6.93-8.35,14.1-11.91,21.47-1.87,3.87-3.33,8.3-6.1,11.64l4.18,2.43c7.29-18.53,15.71-36.57,24.13-54.6,1.34-2.87-2.66-5.34-4.32-2.52-9.7,16.46-17.41,33.97-25.09,51.44l4.57,1.93c5.35-16.56,12.24-32.59,20.61-47.85,2.33-4.26,5.17-8.37,6.86-12.94,.92-2.5-2.48-3.98-4.18-2.43-10.68,9.72-18.19,22.32-24.34,35.24-1.85,3.89-3.43,7.96-5.93,11.5l4.57,1.93c.65-4.01,2.15-7.84,3.46-11.67l4.07-11.91,3.99-11.68,2.07-6.07c.3-.88,.57-1.79,.91-2.66,.09-.23,.17-.46,.3-.68,.17-.28,.68-.6,.16-.39l-3.08-3.08-15.49,51.78c-.35,1.18,.33,2.5,1.45,2.95,1.04,.42,2.63,.14,3.12-1.02,6.63-15.48,13.28-30.98,18.45-47.02,.99-3.07-3.84-4.38-4.82-1.33h0Z"/><path class="f" d="M110.67,57.31c-4.25,5.28-8.39,10.66-12.31,16.18-1.49,2.1-2.95,4.22-4.37,6.37-.68,1.02-1.4,2.04-2.02,3.1-.57,.99-.96,2.11-1.4,3.15-.47,1.12-.9,1.92-1.18,2.98-.34,1.28-.75,4.39-.75,5.71,0,1.71,.42,4.24,.81,5.91l2.02,4.78c1.26,2.33,2.97,4.2,5.15,5.61,1.25,1.24,2.72,2.1,4.41,2.57,2.38,1.25,4.95,1.83,7.71,1.72,4.34-.15,7.72-1.04,11.53-3.04,2.12-1.12,3.99-2.76,5.77-4.32,1.28-1.12,2.49-2.32,3.7-3.51,2.52-2.47,4.96-5.02,7.41-7.56,4.89-5.05,9.83-10.07,15.39-14.39l-4.05,3.13c1.14-.87,2.29-1.72,3.48-2.53,2.33-1.26,4.2-2.97,5.61-5.15,1.77-1.93,2.96-4.2,3.58-6.8,.83-2.66,.95-5.32,.36-7.98-.12-2.66-.91-5.14-2.37-7.44-2.75-4.27-6.85-8.03-11.95-9.19s-10.63-.72-15.41,2.02c-9.06,5.19-17.54,11.39-25.54,18.09-3.35,2.81-6.58,5.76-9.66,8.85s-5.96,6.68-9.43,9.46l4.05-3.13c-.66,.51-1.32,1.03-2.09,1.37l4.78-2.02-.37,.07h10.63l-.37-.07,4.78,2.02-.28-.19,4.05,3.13-.22-.27,3.13,4.05-.16-.31,2.02,4.78c-.21-.53-.35-1.04-.43-1.61l.71,5.32c-.05-.57-.04-1.11,0-1.67l-.71,5.32c.22-1.6,.76-3.08,1.38-4.56l-2.02,4.78c3.44-8.02,8.89-15.08,13.82-22.23l2.02-4.78,.71-5.32-.71-5.32c-.62-2.6-1.81-4.87-3.58-6.8-.89-1.5-2.08-2.7-3.59-3.59-1.25-1.24-2.72-2.1-4.41-2.57-1.56-.9-3.24-1.36-5.05-1.37-2.66-.6-5.32-.48-7.98,.36-6.56,1.79-12.59,5.36-19.38,6.35l5.32-.71c-1.65,.21-3.3,.25-4.95,.06l5.32,.71c-.49-.07-.95-.15-1.41-.31l4.78,2.02c-.21-.08-.4-.19-.57-.33l4.05,3.13-.22-.23,3.13,4.05-.17-.28,2.02,4.78-.1-.34,.71,5.32v-.35l-.72,5.32c.03-.24,.1-.48,.2-.7l-2.02,4.78c.19-.35,.38-.65,.62-.96l-3.13,4.05c1.46-1.77,3.14-3.31,4.94-4.73l-4.05,3.13c8.06-6.22,17.33-11.11,26.68-15.06l-4.78,2.02c.84-.35,1.69-.7,2.53-1.03l-24.6-13.97,.07,.36-.71-5.32v.35l.72-5.32c-.02,.23-.07,.46-.16,.68l2.02-4.78c-.16,.35-.33,.63-.56,.94l3.13-4.05c-.35,.4-.71,.75-1.12,1.09l4.05-3.13c-3.56,2.72-7.54,5.03-11.45,7.2s-8.08,4.2-12.27,5.99l4.78-2.02c-5.34,2.25-11.03,4.65-16.78,5.55l5.32-.71c-1.18,.16-2.37,.24-3.56,.13l5.32,.71c-.33-.06-.63-.13-.95-.24l4.78,2.02c-.19-.08-.38-.17-.55-.29l4.05,3.13c-.16-.11-.29-.25-.4-.42l3.13,4.05-.12-.26,2.02,4.78-.06-.29,.71,5.32,.02-.34-.71,5.32,.1-.32-2.02,4.78c.17-.33,.34-.59,.56-.89l-3.13,4.05c4.68-5.95,10.08-11.29,16.05-15.94l-4.05,3.13c4.11-3.16,8.46-5.98,13.04-8.42l-29.38-22.59c-.09,.26-.18,.53-.29,.78l2.02-4.78c-.56,1.29-1.28,2.45-2.12,3.58l3.13-4.05c-1.58,2.04-3.4,3.87-5.11,5.8s-3.49,4.02-5.16,6.09c-4.32,5.35-8.5,10.83-12.32,16.55-2.95,4.43-5.7,9-8.22,13.68-.32,.59-.63,1.17-.94,1.76-.16,.3-.31,.6-.46,.91-.69,1.42-1.72,3.59-2.12,5.11s-.67,4.14-.71,5.66l.71,5.32,.1,.25c1.44,5.05,5.03,9.66,9.59,12.29,5.25,3.03,11.14,3.18,16.96,2.71,3.18-.26,6.34-.67,9.51-.99s6.41-.74,9.5-.35l-5.32-.71c.42,.07,.8,.18,1.19,.34l-4.78-2.02c.18,.08,.34,.18,.49,.3l-4.05-3.13c.15,.11,.27,.25,.37,.4l-3.13-4.05,.13,.25-2.02-4.78,.09,.28-.71-5.32,.04,.42,.71-5.32c-.02,.29-.08,.56-.19,.83l2.02-4.78c-.92,2.02-2.28,3.88-3.63,5.64l3.13-4.05c-2.24,2.88-4.82,5.44-7.7,7.68l4.05-3.13c-2.9,2.21-6.04,4.05-9.4,5.47l-4.05,3.13c-1.95,1.81-3.33,3.96-4.14,6.44-.9,1.56-1.36,3.24-1.37,5.05-.6,2.66-.48,5.32,.36,7.98,1.07,3.3,2.8,6.27,5.14,8.83,1.81,1.95,3.96,3.33,6.44,4.14,2.38,1.25,4.95,1.83,7.71,1.72,6.69-.46,13.39-1.57,19.8-3.56,4.64-1.44,9.17-3.86,14.01-4.53l-5.32,.71c.99-.11,1.94-.12,2.92,.01l-5.32-.71c.69,.12,1.34,.31,2,.57l-4.78-2.02,.39,.18v-34.54c-2.67,2.01-5.4,3.95-8.18,5.81s-5.35,3.55-8.29,4.84l4.78-2.02c-1.47,.62-2.97,1.08-4.54,1.33l5.32-.71c-.86,.11-1.71,.15-2.58,.12-2.75-.1-5.32,.47-7.71,1.72-2.48,.81-4.63,2.19-6.44,4.14-1.95,1.81-3.33,3.96-4.14,6.44-1.25,2.38-1.83,4.95-1.72,7.71,.23,5.17,1.93,10.54,5.86,14.14s8.66,5.66,14.14,5.86c12.8,.45,23.93-7.5,33.68-14.83,3.01-1.78,5.4-4.17,7.18-7.18,1.81-3.12,2.72-6.48,2.73-10.09-.01-3.61-.92-6.97-2.73-10.09-1.78-3.01-4.17-5.4-7.18-7.18-1.99-.94-4.02-1.94-6.15-2.55s-4.53-.79-6.74-.99c-.63-.05-1.25-.07-1.88-.02-2.26,.16-4.57,.5-6.8,.9-2.63,.48-5.1,1.55-7.6,2.49-5.29,1.98-10.72,3.58-16.31,4.38l5.32-.71c-1.24,.17-2.49,.29-3.73,.38l10.09,37.27c5.08-2.15,9.28-5.32,13.6-8.72s7.61-7.54,10.91-11.92c1.13-1.5,2.23-3.07,3.1-4.74,.94-1.78,1.85-3.86,2.44-5.78,1.06-3.45,.81-5.61,.38-8.81s-.18-2.3-1.45-5.32c-.16-.37-.67-1.86-1.14-2.63-.64-1.07-2.43-3.39-3.3-4.26-.98-.99-3.06-2.57-4.25-3.32-.17-.1-.32-.2-.49-.3-1.18-.69-3.77-1.73-5.06-2.13-.3-.09-.6-.16-.91-.22-2.74-.57-5.4-.84-8.16-.8-2.31,.04-4.61,.22-6.9,.46-2.62,.26-5.23,.59-7.84,.84s-5.23,.62-7.74,.31l5.32,.71c-.19-.03-.38-.09-.55-.17l4.78,2.02-.23-.15,4.05,3.13-.17-.19,5.14,8.83-.1-.25,.71,5.32v-.34l-.72,5.32,.1-.33-2.02,4.78c2.21-4.62,4.93-9.07,7.68-13.38s5.77-8.6,8.93-12.7l-3.13,4.05c2.63-3.39,5.38-6.68,8.25-9.86,1.34-1.48,2.72-2.92,3.96-4.47,1.56-1.94,3.26-3.94,4.57-6.1,1.38-2.3,2.37-4.9,3.25-7.41l.71-5.32-.71-5.32-2.02-4.78c-1.26-2.33-2.97-4.2-5.15-5.61-1.25-1.24-2.72-2.1-4.41-2.57-1.56-.9-3.24-1.36-5.05-1.37-1.77-.48-3.54-.48-5.32,0-2.66,.12-5.14,.91-7.44,2.37-7.19,3.84-13.8,8.68-20.03,13.93-2.57,2.16-5.02,4.47-7.34,6.9-1.06,1.11-2.1,2.26-3.1,3.42-2.04,2.36-4.41,5.01-6.01,7.57-5.17,8.3-3.79,19.05,2.84,26.06,4.46,4.72,10.89,6.89,17.28,6.86,5.21-.03,10.31-1.31,15.2-2.95,8.12-2.73,16.11-6.12,23.7-10.11,3.44-1.81,6.79-3.77,10.05-5.88,2.86-1.85,5.81-3.79,8.32-6.08,1.81-1.65,3.37-3.67,4.51-5.83,1.5-2.84,1.7-3.41,2.17-5.45,1.07-4.58,.78-6.73-.07-11.34-.62-2.6-1.81-4.87-3.58-6.8-1.41-2.18-3.28-3.89-5.61-5.15l-4.78-2.02c-3.54-.95-7.09-.95-10.63,0-11.17,4.45-22.07,9.61-31.92,16.57-3.24,2.29-6.53,4.66-9.34,7.48-1.92,1.93-3.71,4.16-5.18,6.42-.57,.88-.91,1.97-1.3,2.89-.52,1.23-.91,1.97-1.21,3.09l-.36,2.66c-.27,.99-.39,2-.35,3.01l.71,5.32c.26,.95,.63,1.86,1.11,2.73,1.23,2.92,.81,2.2,2.74,4.69s1.33,1.9,3.81,3.82c1.13,.87,1.59,1.33,2.6,1.89l2.39,1.01c.88,.44,1.78,.81,2.71,1.12,2.73,.69,5.65,1.03,8.48,1.04,3.96,.02,8.03-.63,11.85-1.68,5.37-1.48,10.34-4.11,15.72-5.58l-22.59-29.38c-2.97,4.31-6.03,8.57-8.83,12.99-1.36,2.14-2.65,4.33-3.77,6.6-1.23,2.48-2.27,5.08-3.32,7.62-.47,1.14-.92,2.29-1.16,3.51-.43,2.17-.8,4.38-.89,6.58s.38,4.44,.74,6.57c1,5.78,5.03,11.17,10,14.15,2.98,1.79,7.2,3.15,10.74,2.99l2.66-.36c1.02-.1,2.03-.24,3.03-.42l2.39-1.01c.92-.38,1.84-.77,2.75-1.17,2.38-1.37,4.53-3.24,6.59-5.01,3.66-3.13,6.71-6.96,10.17-10.32,3.97-3.86,8.16-7.49,12.53-10.88l-4.05,3.13c5.42-4.18,11.12-7.99,17.07-11.4l-20.19-34.54c-7.11,4.87-13.56,10.52-19.6,16.64-2.43,2.46-4.81,4.96-7.23,7.44s-4.92,5.16-7.64,7.41l4.05-3.13c-.41,.31-.82,.58-1.28,.82l4.78-2.02c-.36,.14-.67,.23-1.06,.3l5.32-.71h-.37l19.29,14.7-.09-.39,.71,5.32v-.4l-.72,5.32c.03-.27,.1-.54,.21-.79l-2.02,4.78c.77-1.64,1.92-3.14,2.93-4.64s2.1-3.1,3.18-4.64c2.15-3.07,4.38-6.08,6.66-9.05l-3.13,4.05c1.05-1.36,2.11-2.71,3.19-4.04,1.95-1.81,3.33-3.96,4.14-6.44,1.25-2.38,1.83-4.95,1.72-7.71,.1-2.75-.47-5.32-1.72-7.71-.81-2.48-2.19-4.63-4.14-6.44-3.81-3.5-8.82-6.1-14.14-5.86l-5.32,.71c-3.39,.95-6.33,2.66-8.83,5.14h0Z"/><path class="f" d="M114.05,96.18c2.03-.89,4.06-1.77,6.1-2.63l-4.78,2.02c20.55-8.65,41.76-15.74,63.39-21.15,6.27-1.57,12.58-3.02,18.99-3.89l-5.32,.71c3.69-.49,7.59-1.03,11.31-.66l-5.32-.71c.74,.1,1.43,.26,2.13,.51,2.66,.83,5.32,.95,7.98,.36,2.66-.12,5.14-.91,7.44-2.37,2.33-1.26,4.2-2.97,5.61-5.15,1.77-1.93,2.96-4.2,3.58-6.8,1.17-5.12,.91-10.87-2.02-15.41l-3.13-4.05c-2.5-2.48-5.44-4.19-8.83-5.14-4.76-1.69-10.18-1.45-15.15-.98s-10.31,1.22-15.39,2.19c-7,1.33-13.92,3.12-20.79,4.99-13.43,3.64-26.69,7.93-39.71,12.84-8.87,3.34-17.62,6.99-26.3,10.8-2.33,1.26-4.2,2.97-5.61,5.15-1.77,1.93-2.96,4.2-3.58,6.8-.83,2.66-.95,5.32-.36,7.98,.12,2.66,.91,5.14,2.37,7.44,2.75,4.27,6.85,8.03,11.95,9.19l5.32,.71c3.61-.01,6.97-.92,10.09-2.73h0Z"/><path class="f" d="M116.91,122.65c14.86-7.76,30.25-14.47,45.68-20.99l-4.78,2.02c15.93-6.72,32.29-12.91,49.51-15.24l-5.32,.71c3.97-.52,7.96-.83,11.96-.9,5.18-.09,10.46-2.17,14.14-5.86,1.95-1.81,3.33-3.96,4.14-6.44,1.25-2.38,1.83-4.95,1.72-7.71-.23-5.17-1.93-10.54-5.86-14.14s-8.76-5.95-14.14-5.86c-16.43,.28-32.71,3.99-48.14,9.49-8.36,2.98-16.54,6.44-24.71,9.91-7.03,2.98-14.03,6.02-20.99,9.16-7.9,3.56-15.72,7.28-23.4,11.29-2.33,1.26-4.2,2.97-5.61,5.15-1.77,1.93-2.96,4.2-3.58,6.8-.83,2.66-.95,5.32-.36,7.98,.12,2.66,.91,5.14,2.37,7.44,2.75,4.27,6.85,8.03,11.95,9.19l5.32,.71c3.61-.01,6.97-.92,10.09-2.73h0Z"/><path class="f" d="M111.43,134.38c1.96-1.27,4.04-2.31,6.18-3.22l-4.78,2.02c3.45-1.43,7.02-2.53,10.55-3.73,3.85-1.31,7.65-2.76,11.41-4.3,8.85-3.63,17.56-7.57,26.26-11.54,4.21-1.92,8.43-3.81,12.68-5.62l-4.78,2.02c22.89-9.66,47.09-15.57,70.37-24.16,8.1-2.99,16.12-6.29,23.93-9.96,2.33-1.26,4.2-2.97,5.61-5.15,1.77-1.93,2.96-4.2,3.58-6.8,.83-2.66,.95-5.32,.36-7.98-.12-2.66-.91-5.14-2.37-7.44-2.75-4.27-6.85-8.03-11.95-9.19l-5.32-.71c-3.61,.01-6.97,.92-10.09,2.73-2.51,1.18-5.03,2.3-7.58,3.38l4.78-2.02c-14.54,6.13-29.64,10.76-44.67,15.51-7.56,2.39-15.12,4.82-22.58,7.5-8.93,3.21-17.69,6.87-26.36,10.74s-16.51,7.61-24.89,11.15l4.78-2.02c-5.29,2.22-10.64,4.25-16.08,6.05-2.5,.83-5.01,1.65-7.45,2.63-4.01,1.61-8.12,3.21-11.77,5.57-4.35,2.8-7.8,6.89-9.19,11.95-.83,2.66-.95,5.32-.36,7.98,.12,2.66,.91,5.14,2.37,7.44,2.75,4.27,6.85,8.03,11.95,9.19s10.87,.92,15.41-2.02h0Z"/><path class="f" d="M265.2,79.9c6.29-2.4,12.83-3.96,19.5-4.85l-5.32,.71c13.05-1.7,26.27-.94,39.31,.49,13.85,1.51,27.63,3.64,41.48,5.12,8.02,.85,16.06,1.52,24.12,1.83V43.2l-79.57,1.17c-26.33,.39-52.71,.58-78.98,2.62-8.92,.69-17.78,1.68-26.64,2.89-7.13,.97-14.22,2.28-21.17,4.19l-4.78,2.02c-2.33,1.26-4.2,2.97-5.61,5.15-1.24,1.25-2.1,2.72-2.57,4.41-1.25,2.38-1.83,4.95-1.72,7.71l.71,5.32,2.02,4.78c1.26,2.33,2.97,4.2,5.15,5.61,1.93,1.77,4.2,2.96,6.8,3.58,16.78,3.18,33.76,3.94,50.79,3.52,15.44-.38,30.87-1.47,46.32-1.39,8.6,.05,17.21,.47,25.74,1.6l-5.32-.71c7.03,.95,13.97,2.38,20.76,4.44V61.52c-3.09,.84-6.22,1.43-9.39,1.86l5.32-.71c-8.9,1.17-17.92,1.53-26.87,2.17l-27.09,1.94c-18.1,1.3-36.19,2.77-54.33,3.33-10.25,.32-20.51,.31-30.76-.21-2.75-.1-5.32,.47-7.71,1.72-2.48,.81-4.63,2.19-6.44,4.14-1.95,1.81-3.33,3.96-4.14,6.44-1.25,2.38-1.83,4.95-1.72,7.71,.23,5.17,1.93,10.54,5.86,14.14l4.05,3.13c3.12,1.81,6.48,2.72,10.09,2.73,19.52,1.01,39.06,.08,58.54-1.24s38.91-2.77,58.37-4.16c5.39-.39,10.79-.72,16.18-1.19,6.92-.61,13.96-1.38,20.68-3.22l4.78-2.02c2.33-1.26,4.2-2.97,5.61-5.15,1.24-1.25,2.1-2.72,2.57-4.41,1.25-2.38,1.83-4.95,1.72-7.71l-.71-5.32-2.02-4.78c-1.26-2.33-2.97-4.2-5.15-5.61-1.93-1.77-4.2-2.96-6.8-3.58-9.66-2.94-19.63-4.49-29.65-5.59-8.49-.94-17.04-1.21-25.58-1.16-17.14,.09-34.25,1.45-51.39,1.51-9.66,.03-19.32-.36-28.9-1.62l5.32,.71c-2.71-.37-5.41-.8-8.09-1.31v38.57c7.1-1.95,14.35-3.27,21.64-4.25l-5.32,.71c23-3.04,46.32-3.77,69.5-4.24s46.91-.73,70.36-1.07l39.54-.58c5.18-.08,10.46-2.18,14.14-5.86,1.95-1.81,3.33-3.96,4.14-6.44,1.25-2.38,1.83-4.95,1.72-7.71-.23-5.17-1.93-10.54-5.86-14.14s-8.66-5.64-14.14-5.86c-17.28-.68-34.44-2.98-51.57-5.23-15.73-2.06-31.66-4.05-47.55-2.82-10.37,.81-20.85,2.45-30.6,6.17-2.6,.62-4.87,1.81-6.8,3.58-2.18,1.41-3.89,3.28-5.15,5.61-1.46,2.3-2.25,4.77-2.37,7.44-.6,2.66-.48,5.32,.36,7.98,1.57,4.84,4.57,9.51,9.19,11.95l4.78,2.02c3.54,.95,7.09,.95,10.63,0h0Z"/><path class="f" d="M392.26,37.28l-.24,.03,5.32,.71-.22-.04,4.78,2.02-.2-.1,4.05,3.13-.17-.15,3.13,4.05c-.11-.13-.19-.26-.25-.42l2.02,4.78-.07-.25,.71,5.32c-.04-.17-.05-.35-.03-.52l-.71,5.32c.02-.17,.07-.34,.15-.49l-2.02,4.78,.15-.21-3.13,4.05,.25-.23-4.05,3.13c.18-.14,.37-.25,.58-.33l-4.78,2.02c.34-.11,.66-.18,1.01-.23l-5.32,.71c3.47-.27,7.05-.03,10.53-.03h10.96l21.68,.04,43.61,.06,24.42,.03V34.43c-18.32,1.12-36.61,2.59-54.87,4.44-19.87,2.01-39.7,4.49-59.47,7.31-10.26,1.47-20.51,3.06-30.74,4.77l-4.78,2.02c-2.33,1.26-4.2,2.97-5.61,5.15-1.24,1.25-2.1,2.72-2.57,4.41-1.25,2.38-1.83,4.95-1.72,7.71l.71,5.32,2.02,4.78c1.26,2.33,2.97,4.2,5.15,5.61,1.93,1.77,4.2,2.96,6.8,3.58,20.16,4.28,40.63,7.28,61.16,9.13,4.85,.44,9.71,.83,14.55,1.47l-5.32-.71c6.38,.86,12.7,2.19,18.66,4.69l-4.78-2.02c1.08,.46,2.13,.96,3.17,1.49l10.09-37.27c-16.64-1.7-33.29-3.4-49.98-4.67-16.66-1.27-33.37-2.12-50.09-2.12-4.57,0-9.15,.04-13.72,.21-3.76,.14-7.52,.6-11.22,1.25s-7.11,2.18-10.32,3.83l-4.05,3.13-3.13,4.05-2.02,4.78c-.83,2.66-.95,5.32-.36,7.98,0,1.81,.46,3.49,1.37,5.05,.48,1.69,1.33,3.16,2.57,4.41,.89,1.5,2.08,2.7,3.59,3.59,1.93,1.77,4.2,2.96,6.8,3.58,19.66,4.9,40.07,3,60.01,5.64l-5.32-.71c9.9,1.33,19.69,3.32,29.51,5.1,11.41,2.07,22.89,3.59,34.42,4.72,5.57,.54,11.15,1.08,16.7,1.82l-5.32-.71c7.43,1.01,14.72,2.53,21.9,4.72s14.09,4.66,21.33,6.3l5.32-39.29c-4.5,.26-8.98,0-13.44-.59l5.32,.71c-12.18-1.69-23.82-5.8-35.72-8.74-13.74-3.39-27.81-4.41-41.9-5.05-7.21-.33-14.43-.69-21.59-1.65l5.32,.71c-3.72-.51-7.42-1.18-11.07-2.09l-5.32-.71c-2.75-.1-5.32,.47-7.71,1.72-1.69,.48-3.16,1.33-4.41,2.57-2.18,1.41-3.89,3.28-5.15,5.61l-2.02,4.78-.71,5.32c-.1,2.75,.47,5.32,1.72,7.71,.81,2.48,2.19,4.63,4.14,6.44,4.29,4.92,9.96,7.52,15.85,9.88,3.09,1.23,6.32,2.09,9.52,2.97,7.28,2,14.64,3.73,22,5.44,15.05,3.49,30.1,6.97,45.14,10.45l25.74,5.96c5.19,1.2,10.75,.71,15.41-2.02,2.33-1.26,4.2-2.97,5.61-5.15,1.77-1.93,2.96-4.2,3.58-6.8,1.17-5.12,.91-10.87-2.02-15.41s-6.82-7.57-11.95-9.19c-15.46-4.89-30.94-9.79-46.69-13.66-17.48-4.3-35.25-6.78-53.12-8.86-9.25-1.08-18.52-2.06-27.76-3.29l5.32,.71c-18.45-2.48-36.71-6.18-54.65-11.12-2.66-.83-5.32-.95-7.98-.36-2.66,.12-5.14,.91-7.44,2.37-2.33,1.26-4.2,2.97-5.61,5.15-1.77,1.93-2.96,4.2-3.58,6.8-1.17,5.12-.91,10.87,2.02,15.41s6.83,7.78,11.95,9.19c12.15,3.35,24.46,6.14,36.87,8.36,14.1,2.51,28.34,4.21,42.57,5.83,7.14,.81,14.29,1.62,21.42,2.58l-5.32-.71c10.87,1.47,21.65,3.4,32.32,5.94s21.07,5.55,31.48,8.74c5.87,1.8,11.71,3.65,17.56,5.5l10.63-38.57c-27.22-6.3-54.53-12.34-81.68-18.96-3.75-.91-7.49-1.87-11.21-2.89-3.33-.91-6.69-1.79-9.88-3.12l4.78,2.02c-1.56-.67-3.04-1.46-4.41-2.47l4.05,3.13c-.82-.64-1.57-1.33-2.25-2.12l-19.46,33.43c10.69,2.66,21.81,3.63,32.79,4.2,9.42,.49,18.87,.72,28.24,1.96l-5.32-.71c16.69,2.28,32.37,8.99,49.04,11.34,6.33,.89,12.58,1.7,18.98,1.33,2.75,.1,5.32-.47,7.71-1.72,2.48-.81,4.63-2.19,6.44-4.14l3.13-4.05c1.46-2.3,2.25-4.77,2.37-7.44,.48-1.77,.48-3.54,0-5.32-.12-2.66-.91-5.14-2.37-7.44-2.75-4.27-6.85-8.04-11.95-9.19-9.56-2.16-18.67-5.84-28.17-8.22-11.18-2.8-22.76-3.93-34.21-5.05-5.58-.55-11.16-1.07-16.72-1.81l5.32,.71c-11.82-1.6-23.48-4.13-35.23-6.12-7.47-1.26-14.99-2.35-22.53-3.04-5.88-.54-11.79-.71-17.69-.9-6.68-.22-13.36-.49-19.98-1.38l5.32,.71c-3.14-.43-6.26-1.01-9.34-1.78l4.78,36.55c.39-.2,.78-.39,1.18-.56l-4.78,2.02c1.75-.72,3.57-1.15,5.44-1.42l-5.32,.71c3.67-.48,7.41-.46,11.1-.52s7.61-.07,11.42-.05c7.78,.06,15.55,.3,23.32,.67,15.55,.74,31.07,2.02,46.57,3.5,8.74,.83,17.47,1.72,26.21,2.61l5.32-.71c2.6-.62,4.87-1.81,6.8-3.58,1.5-.89,2.7-2.08,3.59-3.59,1.77-1.93,2.96-4.2,3.58-6.8l.71-5.32-.71-5.32c-.62-2.6-1.81-4.87-3.58-6.8-1.41-2.18-3.28-3.89-5.61-5.15-8.09-4.13-16.55-6.77-25.51-8.04-9.21-1.31-18.45-2.02-27.7-2.99-4.69-.49-9.37-1.05-14.04-1.68l5.32,.71c-11.76-1.59-23.45-3.62-35.06-6.08v38.57c13.8-2.31,27.63-4.39,41.5-6.26l-5.32,.71c25.45-3.41,50.99-6.09,76.59-8.05,7.22-.55,14.45-1.05,21.67-1.49,2.75,.1,5.32-.47,7.71-1.72,2.48-.81,4.63-2.19,6.44-4.14,1.95-1.81,3.33-3.96,4.14-6.44,1.25-2.38,1.83-4.95,1.72-7.71-.23-5.17-1.93-10.54-5.86-14.14s-8.72-5.85-14.14-5.86c-32.89-.04-65.78-.09-98.68-.13h-6.98c-3.8-.01-7.45-.11-11.21,.79-9.55,2.27-16.5,11.22-16.47,20.99,.01,5.6,2.28,11.1,6.21,15.07,1.3,1.32,2.81,2.46,4.42,3.38,2.77,1.6,7.32,3.1,10.56,2.75,2.75,.1,5.32-.47,7.71-1.72,2.48-.81,4.63-2.19,6.44-4.14,1.95-1.81,3.33-3.96,4.14-6.44,1.25-2.38,1.83-4.95,1.72-7.71-.23-5.17-1.93-10.54-5.86-14.14l-4.05-3.13c-3.12-1.81-6.48-2.72-10.09-2.73h0Z"/><path class="f" d="M381.68,103.77c.18,4.07,1.03,7.3,2.95,10.83,1.66,3.05,4.86,5.97,7.81,7.69s5.1,2.27,8.09,2.75,6.1,1.04,9.13,1.65c6.14,1.24,12.23,2.72,18.25,4.45s11.77,3.66,17.54,5.82,11.35,4.39,17.23,5.99c8.45,2.3,17.2,2.6,25.84,3.71l-5.32-.71c8.35,1.13,16.15,4.2,23.9,7.35l10.63-38.57c-9.51-3.15-19.33-4.82-29.28-5.84-2.75-.1-5.32,.47-7.71,1.72-2.48,.81-4.63,2.19-6.44,4.14l-3.13,4.05c-1.46,2.3-2.25,4.77-2.37,7.44-.48,1.77-.48,3.54,0,5.32,.12,2.66,.91,5.14,2.37,7.44,2.67,4.14,6.9,8.31,11.95,9.19,9.13,1.6,18.05,4.22,26.59,7.8l-4.78-2.02c2.07,.88,4.1,1.84,6.15,2.76,3.44,1.56,6.99,3.28,10.69,4.19,4.23,1.04,8.59,1.44,12.82,2.54,8.36,2.16,16.39,5.38,24.56,8.13,4.69,1.58,9.43,2.98,14.28,3.96,2.66,.83,5.32,.95,7.98,.36,2.66-.12,5.14-.91,7.44-2.37,2.33-1.26,4.2-2.97,5.61-5.15,1.77-1.93,2.96-4.2,3.58-6.8,1.17-5.12,.91-10.87-2.02-15.41-2.71-4.21-6.87-8.16-11.95-9.19-14.81-2.99-28.41-10.08-43.21-13.11-4.38-.9-8.71-1.3-12.87-3.04l4.78,2.02c-7.07-3.03-14-6.35-21.31-8.78-5.79-1.93-11.71-3.41-17.72-4.46l-5.32,39.29c1.25,.13,2.5,.27,3.75,.44l-5.32-.71c6.87,.94,13.63,2.5,20.21,4.68,2.66,.83,5.32,.95,7.98,.36,2.66-.12,5.14-.91,7.44-2.37,2.33-1.26,4.2-2.97,5.61-5.15,1.77-1.93,2.96-4.2,3.58-6.8,1.17-5.12,.91-10.87-2.02-15.41l-3.13-4.05c-2.5-2.48-5.44-4.19-8.83-5.14-5.75-2.34-11.54-4.68-17.58-6.16-7.78-1.91-15.81-2.14-23.72-3.17l5.32,.71c-9.86-1.35-18.99-5.32-28.28-8.69s-19.31-6.3-29.22-8.47c-2.71-.6-5.43-1.14-8.16-1.64-1.4-.26-2.81-.5-4.22-.73-1.24-.2-2.57-.28-3.75-.72l4.78,2.02c-.18-.07-.35-.17-.52-.28l4.05,3.13c-.15-.1-.28-.22-.39-.37l3.13,4.05-.13-.22,2.02,4.78-.07-.24,.71,5.32v-.27c-.25-5.27-2.08-10.35-5.87-14.14-1.81-1.95-3.96-3.33-6.44-4.14-2.38-1.25-4.95-1.83-7.71-1.72-5.17,.23-10.54,1.93-14.14,5.86s-6.1,8.82-5.86,14.14h0Z"/><path class="f" d="M279.78,107.05c1.78,.01,3.54,.13,5.3,.34l-5.32-.71c.96,.13,1.91,.29,2.86,.47l-4.78-36.55c-.21,.13-.43,.24-.66,.33l4.78-2.02c-.23,.09-.47,.15-.71,.19l5.32-.71c-.38,.05-.72,.06-1.1,.03l5.32,.71c-.38-.06-.7-.15-1.06-.28v38.57c.45-.1,.89-.18,1.35-.25l-5.32,.71c1.98-.24,3.94-.13,5.92,.13l-5.32-.71c5.29,.75,10.52,1.84,15.86,2.21,3.83,.27,7.67,.21,11.51,.23,7.62,.04,15.21,.64,22.76,1.65l-5.32-.71c10.36,1.41,20.58,3.57,30.8,5.74l31.04,6.58c2.66,.83,5.32,.95,7.98,.36,2.66-.12,5.14-.91,7.44-2.37,2.33-1.26,4.2-2.97,5.61-5.15,1.77-1.93,2.96-4.2,3.58-6.8,1.17-5.12,.91-10.87-2.02-15.41-2.73-4.23-6.87-8.11-11.95-9.19-13.09-2.77-26.18-5.6-39.28-8.31-14.43-2.99-29.08-5.51-43.82-6.2-7.31-.34-14.69,.18-21.97-.77l5.32,.71c-4.16-.59-8.26-1.36-12.44-1.87s-8.28-.03-12.35,.86l-4.78,2.02c-2.33,1.26-4.2,2.97-5.61,5.15-1.24,1.25-2.1,2.72-2.57,4.41-1.25,2.38-1.83,4.95-1.72,7.71l.71,5.32,2.02,4.78c1.26,2.33,2.97,4.2,5.15,5.61,1.93,1.77,4.2,2.96,6.8,3.58,6.03,2.29,13.52,.8,18.93-2.29l4.05-3.13,3.13-4.05,2.02-4.78c.83-2.66,.95-5.32,.36-7.98,0-1.81-.46-3.49-1.37-5.05-.48-1.69-1.33-3.16-2.57-4.41-.89-1.5-2.08-2.7-3.59-3.59-1.93-1.77-4.2-2.96-6.8-3.58-4.42-.86-8.96-1.5-13.48-1.53-5.11-.03-10.54,2.25-14.14,5.86-1.95,1.81-3.33,3.96-4.14,6.44-1.25,2.38-1.83,4.95-1.72,7.71,.23,5.17,1.93,10.54,5.86,14.14s8.71,5.82,14.14,5.86h0Z"/><path class="f" d="M135.01,115.67c2.94,1.41,6.03,2.89,9.29,3.39,2.44,.38,4.97,.88,7.47,.84s5.02-.53,7.46-.92c2.6-.62,4.87-1.81,6.8-3.58,2.18-1.41,3.89-3.28,5.15-5.61l2.02-4.78c.83-2.66,.95-5.32,.36-7.98,0-1.81-.46-3.49-1.37-5.05-.81-2.48-2.19-4.63-4.14-6.44-4-3.67-8.66-5.65-14.14-5.86-.78-.03-1.55-.01-2.33,.06-2.38,.22-4.81,.52-7.16,1.02-2.6,.62-4.87,1.81-6.8,3.58-2.18,1.41-3.89,3.28-5.15,5.61-1.46,2.3-2.25,4.77-2.37,7.44-.6,2.66-.48,5.32,.36,7.98,1.57,4.84,4.57,9.51,9.19,11.95l4.78,2.02c3.54,.95,7.09,.95,10.63,0,3.74-.53,7.48-1.04,11.23-1.55l-5.32,.71c7.33-.98,14.66-1.92,21.99-2.81,2.75,.1,5.32-.47,7.71-1.72,2.48-.81,4.63-2.19,6.44-4.14,1.95-1.81,3.33-3.96,4.14-6.44,1.25-2.38,1.83-4.95,1.72-7.71-.23-5.17-1.93-10.54-5.86-14.14l-4.05-3.13c-3.12-1.81-6.48-2.72-10.09-2.73-12.86,1.56-25.71,3.26-38.54,5.07l10.63,38.57c.46-.1,.91-.18,1.38-.25l-5.32,.71c.93-.11,1.85-.15,2.79-.11l-5.32-39.29-.43,.07,5.32-.71c-1.29,.16-2.57,.16-3.87,.01l5.32,.71c-1.29-.19-2.52-.52-3.73-1.02l4.78,2.02c-.26-.11-.53-.23-.78-.36-2.3-1.46-4.77-2.25-7.44-2.37-2.66-.6-5.32-.48-7.98,.36-2.6,.62-4.87,1.81-6.8,3.58-2.18,1.41-3.89,3.28-5.15,5.61-2.45,4.64-3.68,10.26-2.02,15.41,1.53,4.73,4.54,9.72,9.19,11.95h0Z"/><path class="f" d="M69.68,128.19c.4,.61,.83,1.21,1.27,1.79,1.13,1.48,2.26,2.96,3.42,4.43,.11,.14,.23,.28,.34,.42,.24,.29,.48,.57,.72,.85,1.81,1.95,3.96,3.33,6.44,4.14,2.38,1.25,4.95,1.83,7.71,1.72l5.32-.71c2.6-.62,4.87-1.81,6.8-3.58,1.5-.89,2.7-2.08,3.59-3.59,1.77-1.93,2.96-4.2,3.58-6.8l.71-5.32c-.01-3.61-.92-6.97-2.73-10.09l-.42-.67c-1.26-2.33-2.97-4.2-5.15-5.61-1.93-1.77-4.2-2.96-6.8-3.58-2.66-.83-5.32-.95-7.98-.36-2.66,.12-5.14,.91-7.44,2.37l-4.05,3.13c-2.48,2.5-4.19,5.44-5.14,8.83l-.71,5.32c.01,3.61,.92,6.97,2.73,10.09l.42,.67,31.41-24.24c-.45-.51-.88-1.03-1.3-1.57l3.13,4.05c-.47-.61-.91-1.23-1.33-1.87-1.26-2.33-2.97-4.2-5.15-5.61-1.93-1.77-4.2-2.96-6.8-3.58-2.66-.83-5.32-.95-7.98-.36-2.66,.12-5.14,.91-7.44,2.37l-4.05,3.13c-2.48,2.5-4.19,5.44-5.14,8.83l-.71,5.32c.01,3.61,.92,6.97,2.73,10.09h0Z"/><path class="f" d="M-.04,205.19c33.81-28.54,71.81-52.1,112.95-68.51,44.48-17.75,91.1-26.05,138.92-26.74,101.57-1.46,197.68,32.95,294.24,59.69,48.21,13.35,96.6,25.63,146.06,33.39,49.56,7.77,99.6,12.57,149.76,13.6,98.38,2.03,197.39-10.35,292.72-34.54,47.38-12.02,93.96-27.23,139.22-45.71,4.99-2.04,9.88-3.4,14.89-5.1,5.45-1.85,10.71-5.04,15.93-7.46,11.9-5.52,23.87-10.9,35.78-16.4,22.34-10.31,43.84-22.37,65.39-34.26,10.8-5.96,21.44-12.17,31.85-18.79,2.71-1.72,.2-6.05-2.52-4.32-42.36,26.91-87.59,48.4-133.02,69.45-22.44,10.4-46.2,18.97-69.54,27.39s-46.25,15.76-69.75,22.43c-96.01,27.27-196.35,42.16-296.2,42.52-51.4,.18-102.77-3.59-153.66-10.73-50.41-7.07-99.72-18.33-148.81-31.68-95.55-25.99-190.14-60.69-290.1-64.25-47.49-1.69-94.97,3.67-140.18,18.56-40.51,13.34-78.7,33.38-113.05,58.62-8.36,6.15-16.49,12.6-24.42,19.3-2.46,2.08,1.09,5.6,3.54,3.54H-.04Z"/><path class="f" d="M-3.79,10.71c-.34,25.13-.09,50.25,.18,75.38,.27,25.02,.57,50.05,.33,75.08-.14,14.09-.45,28.18-1.03,42.26-.13,3.22,4.87,3.21,5,0,1.03-25.09,1.2-50.21,1.08-75.32-.12-25.03-.53-50.06-.68-75.09-.08-14.1-.07-28.2,.12-42.3,.04-3.22-4.96-3.22-5,0h0Z"/><rect class="f" x="-3.68" y="1.34" width="1441.98" height="49.07"/></g></g></svg>