<?xml version="1.0" encoding="UTF-8"?><svg xmlns="http://www.w3.org/2000/svg" viewBox="0 0 701.03 148.92"><defs><style>.d{fill:#083d77;}.e{fill:#2ca5b5;}.f{fill:#7d83ff;}.g{fill:#78787d;}.h{fill:#9fe79c;}</style></defs><g id="a"/><g id="b"/><g id="c"><circle class="d" cx="55" cy="55.16" r="50"/><g><path class="d" d="M18.75,134.1l-.69,3.83h1.08c.35,0,.64,.11,.88,.34,.24,.23,.35,.51,.35,.85s-.12,.59-.35,.79c-.24,.21-.53,.31-.88,.31h-1.49l-.46,2.6c-.05,.28-.17,.51-.38,.68-.21,.18-.46,.26-.77,.26-.37,0-.66-.11-.88-.33-.22-.22-.33-.51-.33-.86,0-.13,0-.23,.02-.29l.37-2.07h-3.75l-.46,2.6c-.05,.29-.18,.52-.39,.69-.21,.17-.47,.25-.78,.25-.35,0-.64-.11-.86-.34-.22-.23-.33-.52-.33-.87,0-.12,0-.21,.02-.26l.37-2.07h-.82c-.35,0-.64-.11-.88-.34-.24-.23-.35-.51-.35-.85s.12-.59,.35-.79c.24-.21,.53-.31,.88-.31h1.23l.69-3.83h-1.07c-.35,0-.64-.11-.88-.34-.24-.23-.35-.51-.35-.85s.12-.59,.35-.79c.24-.21,.53-.31,.88-.31h1.46l.46-2.51c.05-.28,.17-.51,.38-.68,.21-.18,.46-.26,.77-.26,.37,0,.66,.11,.88,.33,.22,.22,.33,.51,.33,.86,0,.13,0,.23-.02,.29l-.34,1.98h3.73l.46-2.51c.05-.29,.17-.52,.39-.69,.21-.17,.47-.25,.78-.25,.35,0,.64,.11,.86,.34,.22,.23,.33,.52,.33,.87,0,.12,0,.21-.02,.26l-.34,1.98h.8c.35,0,.64,.11,.88,.34,.24,.23,.35,.51,.35,.85s-.12,.59-.35,.79c-.24,.21-.53,.31-.88,.31h-1.21Zm-3.11,3.83l.69-3.83h-3.75l-.69,3.83h3.75Z"/><path class="d" d="M25.74,142.99c-.92-.66-1.62-1.59-2.09-2.78s-.71-2.58-.71-4.15,.24-2.95,.71-4.15,1.17-2.12,2.09-2.78,2.02-.99,3.3-.99,2.38,.33,3.3,.99,1.62,1.59,2.09,2.78c.47,1.2,.71,2.58,.71,4.15s-.24,2.95-.71,4.15c-.47,1.2-1.17,2.12-2.09,2.78-.92,.66-2.02,.99-3.3,.99s-2.38-.33-3.3-.99Zm5.6-2.99c.56-.89,.83-2.21,.83-3.94s-.28-3.04-.83-3.94c-.56-.89-1.32-1.34-2.3-1.34s-1.74,.45-2.3,1.34c-.56,.89-.83,2.21-.83,3.94s.28,3.04,.83,3.94c.56,.89,1.32,1.34,2.3,1.34s1.74-.45,2.3-1.34Z"/><path class="d" d="M47.53,137.26c.4,.61,.61,1.24,.61,1.9,0,.84-.24,1.61-.72,2.31-.48,.7-1.13,1.26-1.94,1.67-.82,.41-1.71,.62-2.69,.62s-1.87-.21-2.69-.62c-.82-.41-1.46-.97-1.94-1.67-.48-.7-.72-1.47-.72-2.31,0-1.41,.74-2.55,2.22-3.43-.53-.29-.97-.69-1.31-1.19-.34-.5-.51-1.08-.51-1.76,0-.81,.22-1.55,.66-2.22,.44-.67,1.04-1.21,1.8-1.61,.75-.4,1.59-.59,2.5-.59s1.75,.2,2.5,.59c.75,.4,1.35,.93,1.78,1.61,.43,.67,.65,1.42,.65,2.22,0,.73-.18,1.34-.54,1.81-.36,.48-.8,.85-1.34,1.13,.72,.41,1.28,.92,1.68,1.53Zm-2.89,3.43c.5-.43,.75-.96,.75-1.57s-.25-1.16-.75-1.6c-.5-.43-1.12-.65-1.85-.65s-1.35,.22-1.85,.65c-.5,.43-.75,.96-.75,1.6s.25,1.14,.75,1.57c.5,.43,1.12,.65,1.85,.65s1.35-.22,1.85-.65Zm-3.44-9.33c-.42,.39-.63,.88-.63,1.46s.21,1.1,.63,1.48c.42,.39,.95,.58,1.59,.58s1.15-.2,1.57-.59c.42-.4,.63-.89,.63-1.47s-.21-1.07-.63-1.46c-.42-.39-.94-.58-1.57-.58s-1.17,.2-1.59,.58Z"/><path class="d" d="M58.51,134.7c.65,.44,1.15,1.02,1.5,1.73,.35,.71,.53,1.47,.53,2.28,0,1.07-.25,2-.75,2.8-.5,.8-1.21,1.41-2.13,1.84-.92,.42-1.98,.64-3.2,.64-.55,0-1.1-.07-1.65-.2-.55-.13-1.03-.31-1.44-.53-.56-.29-.85-.69-.85-1.19,0-.35,.13-.67,.39-.97,.26-.29,.57-.44,.94-.44,.3,0,.63,.11,.98,.33,.66,.48,1.38,.73,2.17,.73,.47,0,.92-.11,1.35-.34s.77-.56,1.04-.99c.27-.43,.4-.93,.4-1.49,0-.79-.25-1.41-.74-1.85-.5-.44-1.09-.66-1.8-.66-.31,0-.57,.03-.8,.09s-.37,.1-.41,.11c-.4,.12-.72,.18-.98,.18-.34,0-.6-.11-.8-.34-.2-.23-.3-.51-.3-.85,0-.21,.04-.39,.11-.55,.08-.16,.21-.34,.39-.53l3.54-3.72h-4.53c-.37,0-.67-.12-.92-.35s-.37-.53-.37-.88,.12-.62,.37-.85,.55-.34,.92-.34h7c.46,0,.81,.12,1.05,.36,.24,.24,.37,.56,.37,.96,0,.35-.18,.7-.55,1.06l-3.06,3.26c.84,.03,1.58,.26,2.23,.7Z"/><path class="d" d="M73.72,129.38c1.03,.68,1.81,1.61,2.36,2.77,.54,1.17,.81,2.47,.81,3.91s-.27,2.74-.81,3.91c-.54,1.17-1.33,2.09-2.36,2.77-1.03,.68-2.26,1.02-3.69,1.02h-5.47c-.4,0-.73-.13-.99-.38-.27-.26-.4-.58-.4-.96v-12.72c0-.38,.13-.7,.4-.96,.27-.26,.6-.39,.99-.39h5.47c1.43,0,2.66,.34,3.69,1.02Zm-.83,10.38c.69-.97,1.03-2.21,1.03-3.71s-.35-2.73-1.04-3.71c-.69-.97-1.72-1.46-3.08-1.46h-3.77v10.34h3.77c1.37,0,2.4-.49,3.09-1.46Z"/><path class="d" d="M89.45,128.72c.3,.24,.45,.55,.45,.94,0,.19-.05,.39-.14,.59l-6.01,12.78c-.11,.26-.27,.47-.5,.62-.23,.15-.48,.22-.75,.22-.38,0-.71-.12-.99-.37-.28-.25-.42-.55-.42-.9,0-.21,.05-.4,.14-.59l5.33-11.22h-6.08c-.37,0-.67-.12-.92-.35s-.37-.53-.37-.88,.12-.62,.37-.85,.55-.34,.92-.34h7.96c.4,0,.74,.12,1.04,.36Z"/><path class="d" d="M102.46,128.72c.3,.24,.45,.55,.45,.94,0,.19-.05,.39-.14,.59l-6.01,12.78c-.11,.26-.27,.47-.5,.62-.23,.15-.48,.22-.75,.22-.38,0-.71-.12-.99-.37-.28-.25-.42-.55-.42-.9,0-.21,.05-.4,.14-.59l5.33-11.22h-6.08c-.37,0-.67-.12-.92-.35s-.37-.53-.37-.88,.12-.62,.37-.85,.55-.34,.92-.34h7.96c.4,0,.74,.12,1.04,.36Z"/></g><circle class="f" cx="200" cy="55.16" r="50"/><g><path class="f" d="M164.43,134.1l-.69,3.83h1.08c.35,0,.64,.11,.88,.34,.24,.23,.35,.51,.35,.85s-.12,.59-.35,.79c-.24,.21-.53,.31-.88,.31h-1.49l-.46,2.6c-.05,.28-.17,.51-.38,.68-.21,.18-.46,.26-.77,.26-.37,0-.66-.11-.88-.33-.22-.22-.33-.51-.33-.86,0-.13,0-.23,.02-.29l.37-2.07h-3.75l-.46,2.6c-.05,.29-.18,.52-.39,.69-.21,.17-.47,.25-.78,.25-.35,0-.64-.11-.86-.34-.22-.23-.33-.52-.33-.87,0-.12,0-.21,.02-.26l.37-2.07h-.82c-.35,0-.64-.11-.88-.34-.24-.23-.35-.51-.35-.85s.12-.59,.35-.79c.24-.21,.53-.31,.88-.31h1.23l.69-3.83h-1.07c-.35,0-.64-.11-.88-.34-.24-.23-.35-.51-.35-.85s.12-.59,.35-.79c.24-.21,.53-.31,.88-.31h1.46l.46-2.51c.05-.28,.17-.51,.38-.68,.21-.18,.46-.26,.77-.26,.37,0,.66,.11,.88,.33,.22,.22,.33,.51,.33,.86,0,.13,0,.23-.02,.29l-.34,1.98h3.73l.46-2.51c.05-.29,.17-.52,.39-.69,.21-.17,.47-.25,.78-.25,.35,0,.64,.11,.86,.34,.22,.23,.33,.52,.33,.87,0,.12,0,.21-.02,.26l-.34,1.98h.8c.35,0,.64,.11,.88,.34,.24,.23,.35,.51,.35,.85s-.12,.59-.35,.79c-.24,.21-.53,.31-.88,.31h-1.21Zm-3.11,3.83l.69-3.83h-3.75l-.69,3.83h3.75Z"/><path class="f" d="M179.35,128.72c.3,.24,.45,.55,.45,.94,0,.19-.05,.39-.14,.59l-6.01,12.78c-.11,.26-.27,.47-.5,.62-.23,.15-.48,.22-.75,.22-.38,0-.71-.12-.99-.37-.28-.25-.42-.55-.42-.9,0-.21,.05-.4,.14-.59l5.33-11.22h-6.08c-.37,0-.67-.12-.92-.35s-.37-.53-.37-.88,.12-.62,.37-.85,.55-.34,.92-.34h7.96c.4,0,.74,.12,1.04,.36Z"/><path class="f" d="M192.98,129.38c1.03,.68,1.81,1.61,2.36,2.77,.54,1.17,.81,2.47,.81,3.91s-.27,2.74-.81,3.91c-.54,1.17-1.33,2.09-2.36,2.77-1.03,.68-2.26,1.02-3.69,1.02h-5.47c-.4,0-.73-.13-.99-.38-.27-.26-.4-.58-.4-.96v-12.72c0-.38,.13-.7,.4-.96,.27-.26,.6-.39,.99-.39h5.47c1.43,0,2.66,.34,3.69,1.02Zm-.83,10.38c.69-.97,1.03-2.21,1.03-3.71s-.35-2.73-1.04-3.71c-.69-.97-1.72-1.46-3.08-1.46h-3.77v10.34h3.77c1.37,0,2.4-.49,3.09-1.46Z"/><path class="f" d="M208.53,137.26c.4,.61,.61,1.24,.61,1.9,0,.84-.24,1.61-.72,2.31-.48,.7-1.13,1.26-1.94,1.67-.82,.41-1.71,.62-2.69,.62s-1.87-.21-2.69-.62c-.82-.41-1.46-.97-1.94-1.67-.48-.7-.72-1.47-.72-2.31,0-1.41,.74-2.55,2.22-3.43-.53-.29-.97-.69-1.31-1.19-.34-.5-.51-1.08-.51-1.76,0-.81,.22-1.55,.66-2.22,.44-.67,1.04-1.21,1.8-1.61,.75-.4,1.59-.59,2.5-.59s1.75,.2,2.5,.59c.75,.4,1.35,.93,1.78,1.61,.43,.67,.65,1.42,.65,2.22,0,.73-.18,1.34-.54,1.81-.36,.48-.8,.85-1.34,1.13,.72,.41,1.28,.92,1.68,1.53Zm-2.89,3.43c.5-.43,.75-.96,.75-1.57s-.25-1.16-.75-1.6c-.5-.43-1.12-.65-1.85-.65s-1.35,.22-1.85,.65c-.5,.43-.75,.96-.75,1.6s.25,1.14,.75,1.57c.5,.43,1.12,.65,1.85,.65s1.35-.22,1.85-.65Zm-3.44-9.33c-.42,.39-.63,.88-.63,1.46s.21,1.1,.63,1.48c.42,.39,.95,.58,1.59,.58s1.15-.2,1.57-.59c.42-.4,.63-.89,.63-1.47s-.21-1.07-.63-1.46c-.42-.39-.94-.58-1.57-.58s-1.17,.2-1.59,.58Z"/><path class="f" d="M219.51,134.7c.65,.44,1.15,1.02,1.5,1.73,.35,.71,.53,1.47,.53,2.28,0,1.07-.25,2-.75,2.8-.5,.8-1.21,1.41-2.13,1.84-.92,.42-1.98,.64-3.2,.64-.55,0-1.1-.07-1.65-.2-.55-.13-1.03-.31-1.44-.53-.56-.29-.85-.69-.85-1.19,0-.35,.13-.67,.39-.97,.26-.29,.57-.44,.94-.44,.3,0,.63,.11,.98,.33,.66,.48,1.38,.73,2.17,.73,.47,0,.92-.11,1.35-.34s.77-.56,1.04-.99c.27-.43,.4-.93,.4-1.49,0-.79-.25-1.41-.74-1.85-.5-.44-1.09-.66-1.8-.66-.31,0-.57,.03-.8,.09s-.37,.1-.41,.11c-.4,.12-.72,.18-.98,.18-.34,0-.6-.11-.8-.34-.2-.23-.3-.51-.3-.85,0-.21,.04-.39,.11-.55,.08-.16,.21-.34,.39-.53l3.54-3.72h-4.53c-.37,0-.67-.12-.92-.35s-.37-.53-.37-.88,.12-.62,.37-.85,.55-.34,.92-.34h7c.46,0,.81,.12,1.05,.36,.24,.24,.37,.56,.37,.96,0,.35-.18,.7-.55,1.06l-3.06,3.26c.84,.03,1.58,.26,2.23,.7Z"/><path class="f" d="M227.02,130.89v3.87h4.94c.4,0,.73,.12,.99,.36,.27,.24,.4,.55,.4,.93,0,.32-.13,.61-.4,.86-.27,.25-.6,.37-.99,.37h-4.94v5.13c0,.38-.14,.7-.42,.96s-.61,.38-.99,.38c-.43,0-.77-.12-1.04-.37-.27-.25-.4-.57-.4-.97v-12.72c0-.38,.13-.7,.4-.96,.27-.26,.6-.39,.99-.39h7.43c.4,0,.73,.12,.99,.36s.4,.55,.4,.94c0,.32-.13,.61-.4,.86-.27,.25-.6,.37-.99,.37h-5.97Z"/><path class="f" d="M239.87,130.89v3.87h4.94c.4,0,.73,.12,.99,.36,.27,.24,.4,.55,.4,.93,0,.32-.13,.61-.4,.86-.27,.25-.6,.37-.99,.37h-4.94v5.13c0,.38-.14,.7-.42,.96s-.61,.38-.99,.38c-.43,0-.77-.12-1.04-.37-.27-.25-.4-.57-.4-.97v-12.72c0-.38,.13-.7,.4-.96,.27-.26,.6-.39,.99-.39h7.43c.4,0,.73,.12,.99,.36s.4,.55,.4,.94c0,.32-.13,.61-.4,.86-.27,.25-.6,.37-.99,.37h-5.97Z"/></g><circle class="e" cx="345" cy="55.16" r="50"/><g><path class="e" d="M308.32,134.1l-.69,3.83h1.08c.35,0,.64,.11,.88,.34,.24,.23,.35,.51,.35,.85s-.12,.59-.35,.79c-.24,.21-.53,.31-.88,.31h-1.49l-.46,2.6c-.05,.28-.17,.51-.38,.68-.21,.18-.46,.26-.77,.26-.37,0-.66-.11-.88-.33-.22-.22-.33-.51-.33-.86,0-.13,0-.23,.02-.29l.37-2.07h-3.75l-.46,2.6c-.05,.29-.18,.52-.39,.69-.21,.17-.47,.25-.78,.25-.35,0-.64-.11-.86-.34-.22-.23-.33-.52-.33-.87,0-.12,0-.21,.02-.26l.37-2.07h-.82c-.35,0-.64-.11-.88-.34-.24-.23-.35-.51-.35-.85s.12-.59,.35-.79c.24-.21,.53-.31,.88-.31h1.23l.69-3.83h-1.07c-.35,0-.64-.11-.88-.34-.24-.23-.35-.51-.35-.85s.12-.59,.35-.79c.24-.21,.53-.31,.88-.31h1.46l.46-2.51c.05-.28,.17-.51,.38-.68,.21-.18,.46-.26,.77-.26,.37,0,.66,.11,.88,.33,.22,.22,.33,.51,.33,.86,0,.13,0,.23-.02,.29l-.34,1.98h3.73l.46-2.51c.05-.29,.17-.52,.39-.69,.21-.17,.47-.25,.78-.25,.35,0,.64,.11,.86,.34,.22,.23,.33,.52,.33,.87,0,.12,0,.21-.02,.26l-.34,1.98h.8c.35,0,.64,.11,.88,.34,.24,.23,.35,.51,.35,.85s-.12,.59-.35,.79c-.24,.21-.53,.31-.88,.31h-1.21Zm-3.11,3.83l.69-3.83h-3.75l-.69,3.83h3.75Z"/><path class="e" d="M322.8,141.69c.24,.24,.37,.53,.37,.88s-.12,.62-.37,.85-.55,.34-.91,.34h-7.77c-.4,0-.71-.12-.94-.35-.23-.24-.34-.54-.34-.9s.14-.69,.41-.97l4.99-5.13c.56-.59,1.01-1.18,1.34-1.77s.49-1.14,.49-1.64c0-.66-.24-1.23-.73-1.72-.49-.48-1.05-.73-1.69-.73-.44,0-.89,.14-1.34,.43-.45,.29-.86,.66-1.22,1.13-.27,.35-.63,.53-1.05,.53-.34,0-.64-.12-.93-.37-.28-.25-.42-.53-.42-.84,0-.22,.08-.44,.23-.67,.15-.23,.38-.49,.69-.78,.58-.56,1.25-1,2.01-1.34,.76-.34,1.49-.51,2.2-.51,1.01,0,1.89,.21,2.65,.62,.76,.41,1.35,.98,1.76,1.69s.62,1.53,.62,2.44-.25,1.82-.74,2.76c-.5,.95-1.16,1.85-2,2.72l-2.9,2.97h4.71c.37,0,.67,.12,.91,.35Z"/><path class="e" d="M337.48,130.23c0,.31-.11,.61-.34,.9-.24,.31-.56,.46-.94,.46-.26,0-.52-.07-.78-.2-.75-.34-1.56-.51-2.42-.51-1.07,0-2,.22-2.79,.65-.79,.43-1.4,1.04-1.83,1.83-.43,.78-.64,1.68-.64,2.69,0,1.73,.48,3.04,1.45,3.94,.97,.89,2.24,1.34,3.81,1.34,.93,0,1.74-.17,2.42-.51,.27-.12,.52-.18,.73-.18,.4,0,.73,.16,1.01,.48,.23,.28,.34,.58,.34,.9,0,.23-.06,.45-.18,.64-.12,.19-.3,.34-.53,.44-1.19,.57-2.46,.86-3.8,.86-1.49,0-2.87-.3-4.12-.91-1.25-.61-2.25-1.51-3-2.69-.75-1.19-1.12-2.63-1.12-4.31,0-1.5,.35-2.84,1.06-4.03,.71-1.19,1.69-2.12,2.94-2.78s2.66-1,4.23-1c1.36,0,2.61,.29,3.77,.86,.47,.24,.71,.61,.71,1.12Z"/><path class="e" d="M352.57,142.57c0,.38-.13,.69-.39,.94s-.56,.36-.89,.36c-.27,0-.52-.08-.74-.24-.22-.16-.39-.38-.51-.66l-1.19-2.66h-6.81l-1.19,2.68c-.11,.28-.27,.49-.49,.65-.22,.15-.46,.23-.72,.23-.4,0-.7-.1-.9-.31-.21-.21-.31-.48-.31-.84,0-.13,.02-.27,.07-.42l5.69-13.16c.12-.29,.31-.52,.55-.68s.52-.23,.82-.2c.27,0,.53,.08,.77,.23s.41,.37,.51,.65l5.63,12.89c.08,.19,.11,.37,.11,.53Zm-9.42-4.8h4.57l-2.31-5.15-2.26,5.15Z"/><path class="e" d="M361.82,134.09c.82,.45,1.46,1.06,1.92,1.84,.46,.78,.7,1.64,.7,2.6s-.29,1.89-.87,2.73c-.58,.84-1.35,1.5-2.31,1.99s-2,.74-3.11,.74c-.59,0-1.21-.09-1.84-.26-.63-.18-1.15-.42-1.54-.73-.18-.15-.34-.35-.46-.62-.12-.26-.18-.51-.18-.75,0-.26,.12-.5,.35-.71s.54-.32,.93-.32c.27,0,.62,.14,1.03,.42,.64,.38,1.2,.57,1.69,.57,.62,0,1.21-.14,1.76-.42s.99-.65,1.31-1.12,.49-.98,.49-1.52c0-.79-.28-1.44-.85-1.94s-1.23-.75-2.01-.75c-.35,0-.66,.04-.94,.13s-.6,.22-.98,.4c-.27,.13-.49,.23-.65,.29-.16,.06-.32,.09-.49,.09-.59,0-1.02-.15-1.27-.46-.25-.31-.38-.67-.38-1.1,0-.15,0-.25,.02-.31l.71-5.46c.06-.31,.22-.56,.47-.76,.25-.2,.55-.3,.9-.3h6.61c.37,0,.67,.12,.91,.35,.24,.23,.37,.53,.37,.88s-.12,.62-.37,.85c-.24,.23-.55,.34-.91,.34h-5.67l-.43,3.19c.29-.16,.66-.29,1.1-.4s.86-.15,1.26-.15c1.01,0,1.92,.22,2.73,.67Z"/><path class="e" d="M379.34,136.63c.51,.63,.77,1.44,.77,2.44,0,1.75-.52,2.96-1.56,3.65-1.04,.69-2.27,1.03-3.7,1.03h-5.69c-.4,0-.73-.13-.99-.38-.27-.26-.4-.58-.4-.96v-12.72c0-.38,.13-.7,.4-.96,.27-.26,.6-.39,.99-.39h5.76c2.9,0,4.35,1.31,4.35,3.92,0,.66-.16,1.24-.49,1.75-.33,.51-.8,.91-1.41,1.2,.81,.31,1.47,.78,1.98,1.41Zm-3.52-5.22c-.31-.3-.75-.45-1.31-.45h-3.77v3.43h3.84c.46,0,.86-.15,1.2-.44,.34-.29,.51-.69,.51-1.19,0-.6-.16-1.05-.47-1.35Zm.71,9.27c.4-.37,.61-.9,.61-1.61,0-.87-.24-1.43-.71-1.69s-1.05-.4-1.74-.4h-3.96v4.25h4.12c.72,0,1.28-.18,1.68-.55Z"/><path class="e" d="M390.04,134.09c.82,.45,1.46,1.06,1.92,1.84,.46,.78,.7,1.64,.7,2.6s-.29,1.89-.87,2.73c-.58,.84-1.35,1.5-2.31,1.99s-2,.74-3.11,.74c-.59,0-1.21-.09-1.84-.26-.63-.18-1.15-.42-1.54-.73-.18-.15-.34-.35-.46-.62-.12-.26-.18-.51-.18-.75,0-.26,.12-.5,.35-.71s.54-.32,.93-.32c.27,0,.62,.14,1.03,.42,.64,.38,1.2,.57,1.69,.57,.62,0,1.21-.14,1.76-.42s.99-.65,1.31-1.12,.49-.98,.49-1.52c0-.79-.28-1.44-.85-1.94s-1.23-.75-2.01-.75c-.35,0-.66,.04-.94,.13s-.6,.22-.98,.4c-.27,.13-.49,.23-.65,.29-.16,.06-.32,.09-.49,.09-.59,0-1.02-.15-1.27-.46-.25-.31-.38-.67-.38-1.1,0-.15,0-.25,.02-.31l.71-5.46c.06-.31,.22-.56,.47-.76,.25-.2,.55-.3,.9-.3h6.61c.37,0,.67,.12,.91,.35,.24,.23,.37,.53,.37,.88s-.12,.62-.37,.85c-.24,.23-.55,.34-.91,.34h-5.67l-.43,3.19c.29-.16,.66-.29,1.1-.4s.86-.15,1.26-.15c1.01,0,1.92,.22,2.73,.67Z"/></g><circle class="h" cx="490" cy="55.16" r="50"/><g><path class="h" d="M455.48,134.1l-.69,3.83h1.08c.35,0,.64,.11,.88,.34,.24,.23,.35,.51,.35,.85s-.12,.59-.35,.79c-.24,.21-.53,.31-.88,.31h-1.49l-.46,2.6c-.05,.28-.17,.51-.38,.68-.21,.18-.46,.26-.77,.26-.37,0-.66-.11-.88-.33-.22-.22-.33-.51-.33-.86,0-.13,0-.23,.02-.29l.37-2.07h-3.75l-.46,2.6c-.05,.29-.18,.52-.39,.69-.21,.17-.47,.25-.78,.25-.35,0-.64-.11-.86-.34-.22-.23-.33-.52-.33-.87,0-.12,0-.21,.02-.26l.37-2.07h-.82c-.35,0-.64-.11-.88-.34-.24-.23-.35-.51-.35-.85s.12-.59,.35-.79c.24-.21,.53-.31,.88-.31h1.23l.69-3.83h-1.07c-.35,0-.64-.11-.88-.34-.24-.23-.35-.51-.35-.85s.12-.59,.35-.79c.24-.21,.53-.31,.88-.31h1.46l.46-2.51c.05-.28,.17-.51,.38-.68,.21-.18,.46-.26,.77-.26,.37,0,.66,.11,.88,.33,.22,.22,.33,.51,.33,.86,0,.13,0,.23-.02,.29l-.34,1.98h3.73l.46-2.51c.05-.29,.17-.52,.39-.69,.21-.17,.47-.25,.78-.25,.35,0,.64,.11,.86,.34,.22,.23,.33,.52,.33,.87,0,.12,0,.21-.02,.26l-.34,1.98h.8c.35,0,.64,.11,.88,.34,.24,.23,.35,.51,.35,.85s-.12,.59-.35,.79c-.24,.21-.53,.31-.88,.31h-1.21Zm-3.11,3.83l.69-3.83h-3.75l-.69,3.83h3.75Z"/><path class="h" d="M467.81,128.92c.82,.56,1.46,1.31,1.9,2.22,.44,.92,.66,1.9,.66,2.94s-.19,2.25-.58,3.53c-.39,1.28-1.1,2.5-2.13,3.64-1.03,1.14-2.43,1.96-4.2,2.44-.18,.04-.36,.07-.53,.07-.4,0-.72-.1-.98-.3-.26-.2-.39-.51-.39-.94,0-.32,.11-.6,.33-.85,.22-.24,.51-.41,.88-.52,.96-.26,1.85-.73,2.66-1.41,.82-.67,1.41-1.48,1.79-2.42-.76,.63-1.63,.95-2.61,.95-.79,0-1.57-.23-2.34-.69-.77-.46-1.4-1.08-1.89-1.87-.49-.78-.73-1.63-.73-2.54s.24-1.78,.72-2.56c.48-.79,1.12-1.4,1.93-1.86,.81-.45,1.7-.68,2.68-.68,1.05,0,1.99,.28,2.81,.85Zm-.97,6.17c.5-.51,.74-1.15,.74-1.91s-.25-1.4-.74-1.91c-.5-.51-1.11-.77-1.84-.77s-1.33,.26-1.83,.77c-.5,.51-.75,1.15-.75,1.91s.25,1.4,.75,1.91,1.11,.77,1.83,.77,1.35-.26,1.84-.77Z"/><path class="h" d="M475.86,130.89v3.87h4.94c.4,0,.73,.12,.99,.36s.4,.55,.4,.93c0,.32-.13,.61-.4,.86s-.6,.37-.99,.37h-4.94v5.13c0,.38-.14,.7-.42,.96s-.61,.38-.99,.38c-.43,0-.77-.12-1.04-.37-.27-.25-.4-.57-.4-.97v-12.72c0-.38,.13-.7,.4-.96,.27-.26,.6-.39,1-.39h7.43c.4,0,.73,.12,1,.36s.4,.55,.4,.94c0,.32-.13,.61-.4,.86-.27,.25-.6,.37-1,.37h-5.97Z"/><path class="h" d="M495.9,141.62c.27,.26,.4,.55,.4,.89,0,.37-.13,.67-.4,.9-.27,.23-.6,.35-1,.35h-7.66c-.4,0-.73-.13-.99-.38-.27-.26-.4-.58-.4-.96v-12.72c0-.38,.13-.7,.4-.96,.27-.26,.6-.39,.99-.39h7.66c.4,0,.73,.12,1,.36,.27,.24,.4,.55,.4,.94s-.13,.66-.39,.89c-.26,.23-.59,.34-1.01,.34h-6.2v3.74h5.17c.4,0,.73,.12,1,.36,.27,.24,.4,.55,.4,.93s-.13,.66-.39,.89c-.26,.23-.59,.34-1.01,.34h-5.17v4.07h6.2c.4,0,.73,.13,1,.39Z"/><path class="h" d="M508.87,128.72c.3,.24,.45,.55,.45,.94,0,.19-.05,.39-.14,.59l-6.01,12.78c-.11,.26-.27,.47-.5,.62s-.48,.22-.75,.22c-.38,0-.71-.12-.99-.37-.28-.25-.42-.55-.42-.9,0-.21,.05-.4,.14-.59l5.33-11.22h-6.08c-.37,0-.67-.12-.92-.35-.24-.23-.37-.53-.37-.88s.12-.62,.37-.85c.24-.23,.55-.34,.92-.34h7.96c.4,0,.74,.12,1.04,.36Z"/><path class="h" d="M519.28,128.92c.82,.56,1.46,1.31,1.9,2.22,.44,.92,.66,1.9,.66,2.94s-.19,2.25-.58,3.53c-.39,1.28-1.1,2.5-2.13,3.64-1.03,1.14-2.43,1.96-4.2,2.44-.18,.04-.36,.07-.53,.07-.4,0-.72-.1-.98-.3-.26-.2-.39-.51-.39-.94,0-.32,.11-.6,.33-.85,.22-.24,.51-.41,.88-.52,.96-.26,1.85-.73,2.66-1.41s1.41-1.48,1.79-2.42c-.76,.63-1.63,.95-2.61,.95-.79,0-1.57-.23-2.34-.69-.77-.46-1.4-1.08-1.89-1.87-.49-.78-.73-1.63-.73-2.54s.24-1.78,.72-2.56c.48-.79,1.12-1.4,1.93-1.86,.81-.45,1.7-.68,2.68-.68,1.05,0,1.99,.28,2.81,.85Zm-.97,6.17c.5-.51,.74-1.15,.74-1.91s-.25-1.4-.74-1.91c-.5-.51-1.11-.77-1.84-.77s-1.33,.26-1.83,.77c-.5,.51-.75,1.15-.75,1.91s.25,1.4,.75,1.91,1.11,.77,1.83,.77,1.34-.26,1.84-.77Z"/><path class="h" d="M536.39,130.23c0,.31-.11,.61-.34,.9-.24,.31-.56,.46-.94,.46-.26,0-.52-.07-.78-.2-.75-.34-1.56-.51-2.42-.51-1.07,0-2,.22-2.79,.65-.79,.43-1.4,1.04-1.83,1.83-.43,.78-.64,1.68-.64,2.69,0,1.73,.48,3.04,1.45,3.94,.97,.89,2.24,1.34,3.81,1.34,.93,0,1.74-.17,2.42-.51,.27-.12,.52-.18,.73-.18,.4,0,.73,.16,1.01,.48,.23,.28,.34,.58,.34,.9,0,.23-.06,.45-.18,.64s-.3,.34-.53,.44c-1.19,.57-2.46,.86-3.8,.86-1.49,0-2.87-.3-4.12-.91-1.25-.61-2.25-1.51-3-2.69-.75-1.19-1.12-2.63-1.12-4.31,0-1.5,.35-2.84,1.06-4.03,.71-1.19,1.69-2.12,2.94-2.78s2.66-1,4.23-1c1.36,0,2.62,.29,3.77,.86,.47,.24,.71,.61,.71,1.12Z"/></g><circle class="g" cx="635" cy="55.16" r="50"/><g><path class="g" d="M598.52,134.1l-.69,3.83h1.08c.35,0,.64,.11,.88,.34,.24,.23,.35,.51,.35,.85s-.12,.59-.35,.79c-.24,.21-.53,.31-.88,.31h-1.49l-.46,2.6c-.05,.28-.17,.51-.38,.68-.21,.18-.46,.26-.77,.26-.37,0-.66-.11-.88-.33s-.33-.51-.33-.86c0-.13,0-.23,.02-.29l.37-2.07h-3.75l-.46,2.6c-.05,.29-.18,.52-.39,.69-.21,.17-.47,.25-.78,.25-.35,0-.64-.11-.86-.34-.22-.23-.33-.52-.33-.87,0-.12,0-.21,.02-.26l.37-2.07h-.82c-.35,0-.64-.11-.88-.34-.24-.23-.35-.51-.35-.85s.12-.59,.35-.79c.24-.21,.53-.31,.88-.31h1.24l.69-3.83h-1.07c-.35,0-.64-.11-.88-.34s-.35-.51-.35-.85,.12-.59,.35-.79,.53-.31,.88-.31h1.46l.46-2.51c.05-.28,.17-.51,.38-.68s.46-.26,.77-.26c.37,0,.66,.11,.88,.33,.22,.22,.33,.51,.33,.86,0,.13,0,.23-.02,.29l-.34,1.98h3.73l.46-2.51c.05-.29,.17-.52,.39-.69,.21-.17,.47-.25,.78-.25,.35,0,.64,.11,.86,.34,.22,.23,.33,.52,.33,.87,0,.12,0,.21-.02,.26l-.34,1.98h.8c.35,0,.64,.11,.88,.34,.24,.23,.35,.51,.35,.85s-.12,.59-.35,.79c-.24,.21-.53,.31-.88,.31h-1.21Zm-3.11,3.83l.69-3.83h-3.75l-.69,3.83h3.75Z"/><path class="g" d="M613.44,128.72c.3,.24,.45,.55,.45,.94,0,.19-.05,.39-.14,.59l-6.01,12.78c-.11,.26-.27,.47-.5,.62-.23,.15-.48,.22-.75,.22-.38,0-.71-.12-1-.37-.28-.25-.42-.55-.42-.9,0-.21,.05-.4,.14-.59l5.33-11.22h-6.08c-.37,0-.67-.12-.92-.35-.24-.23-.37-.53-.37-.88s.12-.62,.37-.85c.24-.23,.55-.34,.92-.34h7.96c.4,0,.74,.12,1.04,.36Z"/><path class="g" d="M626.27,137.26c.4,.61,.61,1.24,.61,1.9,0,.84-.24,1.61-.72,2.31-.48,.7-1.13,1.26-1.94,1.67-.82,.41-1.71,.62-2.69,.62s-1.87-.21-2.69-.62c-.82-.41-1.46-.97-1.94-1.67s-.72-1.47-.72-2.31c0-1.41,.74-2.55,2.22-3.43-.53-.29-.97-.69-1.32-1.19s-.51-1.08-.51-1.76c0-.81,.22-1.55,.66-2.22,.44-.67,1.04-1.21,1.8-1.61,.75-.4,1.59-.59,2.5-.59s1.75,.2,2.5,.59c.75,.4,1.35,.93,1.78,1.61,.43,.67,.65,1.42,.65,2.22,0,.73-.18,1.34-.54,1.81-.36,.48-.8,.85-1.34,1.13,.72,.41,1.28,.92,1.68,1.53Zm-2.89,3.43c.5-.43,.75-.96,.75-1.57s-.25-1.16-.75-1.6c-.5-.43-1.12-.65-1.85-.65s-1.35,.22-1.85,.65-.75,.96-.75,1.6,.25,1.14,.75,1.57c.5,.43,1.12,.65,1.85,.65s1.35-.22,1.85-.65Zm-3.44-9.33c-.42,.39-.63,.88-.63,1.46s.21,1.1,.63,1.48,.95,.58,1.59,.58,1.15-.2,1.57-.59c.42-.4,.63-.89,.63-1.47s-.21-1.07-.63-1.46c-.42-.39-.94-.58-1.57-.58s-1.17,.2-1.59,.58Z"/><path class="g" d="M639.89,128.72c.3,.24,.45,.55,.45,.94,0,.19-.05,.39-.14,.59l-6.01,12.78c-.11,.26-.27,.47-.5,.62-.23,.15-.48,.22-.75,.22-.38,0-.71-.12-1-.37-.28-.25-.42-.55-.42-.9,0-.21,.05-.4,.14-.59l5.33-11.22h-6.08c-.37,0-.67-.12-.92-.35-.24-.23-.37-.53-.37-.88s.12-.62,.37-.85c.24-.23,.55-.34,.92-.34h7.96c.4,0,.74,.12,1.04,.36Z"/><path class="g" d="M652.72,137.26c.4,.61,.61,1.24,.61,1.9,0,.84-.24,1.61-.72,2.31s-1.13,1.26-1.94,1.67c-.82,.41-1.71,.62-2.69,.62s-1.87-.21-2.69-.62c-.82-.41-1.46-.97-1.94-1.67-.48-.7-.72-1.47-.72-2.31,0-1.41,.74-2.55,2.22-3.43-.53-.29-.97-.69-1.31-1.19-.34-.5-.51-1.08-.51-1.76,0-.81,.22-1.55,.66-2.22,.44-.67,1.04-1.21,1.79-1.61,.75-.4,1.59-.59,2.5-.59s1.75,.2,2.5,.59c.75,.4,1.35,.93,1.78,1.61,.43,.67,.65,1.42,.65,2.22,0,.73-.18,1.34-.54,1.81s-.8,.85-1.34,1.13c.72,.41,1.28,.92,1.68,1.53Zm-2.89,3.43c.5-.43,.75-.96,.75-1.57s-.25-1.16-.75-1.6-1.12-.65-1.85-.65-1.35,.22-1.85,.65c-.5,.43-.75,.96-.75,1.6s.25,1.14,.75,1.57c.5,.43,1.12,.65,1.85,.65s1.35-.22,1.85-.65Zm-3.44-9.33c-.42,.39-.63,.88-.63,1.46s.21,1.1,.63,1.48c.42,.39,.95,.58,1.59,.58s1.15-.2,1.57-.59c.42-.4,.63-.89,.63-1.47s-.21-1.07-.63-1.46c-.42-.39-.94-.58-1.57-.58s-1.17,.2-1.59,.58Z"/><path class="g" d="M666.35,128.72c.3,.24,.45,.55,.45,.94,0,.19-.05,.39-.14,.59l-6.01,12.78c-.11,.26-.27,.47-.5,.62s-.48,.22-.75,.22c-.38,0-.71-.12-.99-.37-.28-.25-.42-.55-.42-.9,0-.21,.05-.4,.14-.59l5.33-11.22h-6.08c-.37,0-.67-.12-.92-.35-.24-.23-.37-.53-.37-.88s.12-.62,.37-.85c.24-.23,.55-.34,.92-.34h7.96c.4,0,.74,.12,1.04,.36Z"/><path class="g" d="M679.98,129.38c1.03,.68,1.81,1.61,2.36,2.77,.54,1.17,.81,2.47,.81,3.91s-.27,2.74-.81,3.91c-.54,1.17-1.33,2.09-2.36,2.77-1.03,.68-2.26,1.02-3.69,1.02h-5.47c-.4,0-.73-.13-.99-.38-.27-.26-.4-.58-.4-.96v-12.72c0-.38,.13-.7,.4-.96,.27-.26,.6-.39,.99-.39h5.47c1.43,0,2.66,.34,3.69,1.02Zm-.83,10.38c.69-.97,1.03-2.21,1.03-3.71s-.35-2.73-1.04-3.71c-.69-.97-1.72-1.46-3.08-1.46h-3.77v10.34h3.77c1.37,0,2.4-.49,3.09-1.46Z"/></g></g></svg>