<?xml version="1.0" encoding="UTF-8"?><svg xmlns="http://www.w3.org/2000/svg" viewBox="0 0 692.85 148.92"><defs><style>.c{fill:#7d878d;}.d{fill:#efcbaf;}</style></defs><g id="a"/><g id="b"><circle class="c" cx="55" cy="55.16" r="50"/><g><path class="c" d="M8.48,138.02h10.15v1.76H8.48v-1.76Zm10.89-2.88H9.21v-1.78h10.15v1.78Zm-9.49,8.62l2.29-14.3h1.14l-2.29,14.3h-1.14Zm4.69,0l2.29-14.3h1.14l-2.29,14.3h-1.14Z"/><path class="c" d="M23.16,143.76l-.11-.37,6.95-12.39-.11,.9-.07-.53h-8.78v-1.87h10.06v1.19l-5.69,13.07h-2.24Z"/><path class="c" d="M32.88,130.17v-1.14h3.18v1.32h-.3l-2.88-.18Zm0,13.6v-1.17l2.88-.15h.3v1.32h-3.18Zm2.24,0c.02-.76,.02-1.52,.02-2.28v-10.2c0-.76,0-1.52-.02-2.27h2.38c0,.75,0,1.5-.01,2.25,0,.76-.01,1.51-.01,2.28v5.6c0,.79,0,1.56,.01,2.32,0,.76,.01,1.53,.01,2.29h-2.38Zm1.44,0v-1.21h2.88c1.27,0,2.33-.25,3.2-.75,.87-.5,1.53-1.21,1.98-2.14,.45-.93,.67-2.04,.67-3.33,0-1.98-.49-3.5-1.48-4.54-.98-1.05-2.34-1.57-4.08-1.57h-3.18v-1.19h3.45c1.55,0,2.92,.27,4.09,.81,1.17,.54,2.09,1.35,2.74,2.43,.66,1.08,.98,2.42,.98,4.01s-.35,2.93-1.04,4.05c-.69,1.11-1.66,1.96-2.89,2.55s-2.67,.88-4.3,.88h-3.04Z"/><path class="c" d="M54.94,144.03c-1.01,0-1.89-.13-2.64-.4-.75-.26-1.34-.66-1.76-1.2-.42-.54-.63-1.18-.63-1.95,0-.62,.15-1.15,.45-1.62,.3-.46,.72-.87,1.27-1.21,.55-.34,1.21-.64,1.99-.89l.34-.44,.89,.4c-.67,.37-1.22,.72-1.66,1.07s-.75,.72-.96,1.13c-.21,.41-.31,.88-.31,1.41s.13,.99,.39,1.39c.26,.4,.62,.7,1.09,.91,.46,.21,1.01,.32,1.63,.32,.9,0,1.62-.23,2.15-.69,.53-.46,.8-1.07,.8-1.84,0-.47-.11-.88-.34-1.23-.23-.35-.61-.69-1.15-1.02s-1.28-.69-2.23-1.09c-.79-.34-1.47-.71-2.02-1.11s-.98-.85-1.28-1.35c-.3-.5-.45-1.06-.45-1.69,0-.73,.19-1.38,.57-1.93,.38-.55,.92-.98,1.6-1.29,.69-.31,1.49-.46,2.4-.46s1.72,.14,2.37,.43,1.14,.69,1.48,1.2c.33,.51,.5,1.11,.5,1.78,0,.46-.12,.9-.35,1.32-.24,.43-.59,.82-1.06,1.18-.47,.36-1.07,.69-1.81,.98l-.27,.4-.75-.37c.79-.56,1.38-1.11,1.76-1.65,.38-.54,.57-1.14,.57-1.78,0-.45-.09-.87-.27-1.23-.18-.37-.46-.65-.82-.86-.37-.21-.82-.31-1.37-.31-.5,0-.95,.09-1.35,.28s-.7,.44-.91,.78c-.21,.34-.32,.74-.32,1.21,0,.41,.09,.79,.27,1.14,.18,.35,.52,.7,1.01,1.03,.49,.34,1.17,.7,2.06,1.08,.87,.37,1.62,.74,2.25,1.13,.63,.39,1.12,.84,1.46,1.35,.34,.51,.51,1.14,.51,1.89s-.21,1.41-.64,1.99c-.43,.58-1.02,1.03-1.78,1.34-.76,.32-1.65,.47-2.65,.47Z"/><path class="c" d="M64.25,143.76l-.11-.37,6.95-12.39-.11,.9-.07-.53h-8.78v-1.87h10.06v1.19l-5.69,13.07h-2.24Z"/><path class="c" d="M79.14,144.03c-1.01,0-1.89-.13-2.64-.4-.75-.26-1.34-.66-1.76-1.2-.42-.54-.63-1.18-.63-1.95,0-.62,.15-1.15,.45-1.62,.3-.46,.72-.87,1.27-1.21,.55-.34,1.21-.64,1.99-.89l.34-.44,.89,.4c-.67,.37-1.22,.72-1.66,1.07s-.75,.72-.96,1.13c-.21,.41-.31,.88-.31,1.41s.13,.99,.39,1.39c.26,.4,.62,.7,1.09,.91,.46,.21,1.01,.32,1.63,.32,.9,0,1.62-.23,2.15-.69,.53-.46,.8-1.07,.8-1.84,0-.47-.11-.88-.34-1.23-.23-.35-.61-.69-1.15-1.02s-1.28-.69-2.23-1.09c-.79-.34-1.47-.71-2.02-1.11s-.98-.85-1.28-1.35c-.3-.5-.45-1.06-.45-1.69,0-.73,.19-1.38,.57-1.93,.38-.55,.92-.98,1.6-1.29,.69-.31,1.49-.46,2.4-.46s1.72,.14,2.37,.43,1.14,.69,1.48,1.2c.33,.51,.5,1.11,.5,1.78,0,.46-.12,.9-.35,1.32-.24,.43-.59,.82-1.06,1.18-.47,.36-1.07,.69-1.81,.98l-.27,.4-.75-.37c.79-.56,1.38-1.11,1.76-1.65,.38-.54,.57-1.14,.57-1.78,0-.45-.09-.87-.27-1.23-.18-.37-.46-.65-.82-.86-.37-.21-.82-.31-1.37-.31-.5,0-.95,.09-1.35,.28s-.7,.44-.91,.78c-.21,.34-.32,.74-.32,1.21,0,.41,.09,.79,.27,1.14,.18,.35,.52,.7,1.01,1.03,.49,.34,1.17,.7,2.06,1.08,.87,.37,1.62,.74,2.25,1.13,.63,.39,1.12,.84,1.46,1.35,.34,.51,.51,1.14,.51,1.89s-.21,1.41-.64,1.99c-.43,.58-1.02,1.03-1.78,1.34-.76,.32-1.65,.47-2.65,.47Z"/><path class="c" d="M86.07,130.17v-1.14h3.18v1.32h-.3l-2.88-.18Zm0,13.6v-1.17l2.88-.15h.3v1.32h-3.18Zm2.24,0c.02-.76,.02-1.52,.02-2.28v-10.2c0-.76,0-1.52-.02-2.27h2.38c0,.75,0,1.5-.01,2.25,0,.76-.01,1.51-.01,2.28v5.6c0,.79,0,1.56,.01,2.32,0,.76,.01,1.53,.01,2.29h-2.38Zm1.44,0v-1.21h2.88c1.27,0,2.33-.25,3.2-.75,.87-.5,1.53-1.21,1.98-2.14,.45-.93,.67-2.04,.67-3.33,0-1.98-.49-3.5-1.48-4.54-.98-1.05-2.34-1.57-4.08-1.57h-3.18v-1.19h3.45c1.55,0,2.92,.27,4.09,.81,1.17,.54,2.09,1.35,2.74,2.43,.66,1.08,.98,2.42,.98,4.01s-.35,2.93-1.04,4.05c-.69,1.11-1.66,1.96-2.89,2.55s-2.67,.88-4.3,.88h-3.04Z"/></g><circle class="d" cx="200" cy="55.16" r="50"/><g><path class="d" d="M150.67,138.02h10.15v1.76h-10.15v-1.76Zm10.89-2.88h-10.15v-1.78h10.15v1.78Zm-9.49,8.62l2.29-14.3h1.14l-2.29,14.3h-1.14Zm4.69,0l2.29-14.3h1.14l-2.29,14.3h-1.14Z"/><path class="d" d="M163.02,130.17v-1.14h3.36v1.32h-.3l-3.06-.18Zm0,13.6v-1.17l3.06-.15h.3v1.32h-3.36Zm2.24,0c.02-.76,.02-1.52,.02-2.28v-10.2c0-.76,0-1.52-.02-2.27h2.38c0,.75,0,1.5-.01,2.25,0,.76-.01,1.51-.01,2.28v5.6c0,.79,0,1.56,.01,2.32s.01,1.53,.01,2.29h-2.38Zm8.64-10.8l-.75-3.45,.94,.77h-7.71v-1.25h8.74l.18,3.94h-1.4Zm-7.52,10.8v-1.25h8.16l-.94,.77,.75-3.59h1.4l-.18,4.07h-9.19Zm.09-6.93v-1.19h5.47v1.19h-5.47Zm4.94,2l-.43-2.38v-.53l.43-2.29h1.21v5.19h-1.21Z"/><path class="d" d="M177.61,130.17v-1.14h3.36v1.32h-.3l-3.06-.18Zm0,13.6v-1.17l3.06-.15h.75l3.22,.15v1.17h-7.04Zm2.24,0c.02-.76,.02-1.52,.02-2.28v-10.2c0-.76,0-1.52-.02-2.27h2.38c0,.75,0,1.5-.01,2.25,0,.76-.01,1.51-.01,2.28v5.6c0,.79,0,1.56,.01,2.32s.01,1.53,.01,2.29h-2.38Zm8.64-10.8l-.75-3.45,.94,.77h-7.71v-1.25h8.74l.18,3.94h-1.4Zm-7.43,3.92v-1.19h5.56v1.19h-5.56Zm5.03,2.11l-.43-2.35v-.66l.43-2.29h1.21v5.3h-1.21Z"/><path class="d" d="M199.52,144.09c-1.17,0-2.26-.18-3.25-.53-.99-.35-1.84-.86-2.56-1.53-.72-.67-1.27-1.47-1.67-2.42-.4-.95-.59-2.01-.59-3.2s.21-2.23,.62-3.18c.41-.95,.99-1.76,1.73-2.44,.74-.68,1.6-1.21,2.6-1.57,.99-.37,2.07-.55,3.22-.55,.85,0,1.68,.09,2.47,.26,.79,.18,1.49,.43,2.1,.75l.09,3.26h-1.44l-.64-3.19,1.53,.15v1.36c-.58-.44-1.2-.77-1.88-1s-1.37-.34-2.1-.34c-1.07,0-2.04,.25-2.92,.74s-1.57,1.21-2.09,2.17c-.52,.95-.78,2.13-.78,3.54s.24,2.59,.73,3.55,1.16,1.69,2.01,2.18c.85,.49,1.83,.74,2.93,.74,.85,0,1.65-.11,2.38-.33s1.39-.54,1.97-.95v1.32l-1.53,.15,.64-3.26h1.44l-.09,3.3c-.58,.29-1.28,.54-2.1,.73s-1.76,.29-2.81,.29Z"/><path class="d" d="M206.36,130.17v-1.14h3.18v1.32h-.3l-2.88-.18Zm0,13.6v-1.17l2.88-.15h.3v1.32h-3.18Zm2.24,0c.02-.76,.02-1.52,.02-2.28v-10.2c0-.76,0-1.52-.02-2.27h2.38c0,.75,0,1.5-.01,2.25,0,.76-.01,1.51-.01,2.28v5.6c0,.79,0,1.56,.01,2.32,0,.76,.01,1.53,.01,2.29h-2.38Zm1.44,0v-1.21h2.58c1.51,0,2.62-.25,3.33-.75,.71-.5,1.06-1.22,1.06-2.16s-.35-1.7-1.05-2.2c-.7-.5-1.81-.75-3.34-.75h-2.84v-1.17h2.72c.85,0,1.56-.1,2.13-.3,.56-.2,.98-.5,1.26-.9s.41-.91,.41-1.53-.13-1.14-.4-1.52c-.27-.38-.67-.66-1.2-.83-.53-.17-1.2-.25-1.99-.25h-2.68v-1.19h3.2c1.08,0,2.03,.14,2.84,.43,.81,.29,1.43,.69,1.88,1.22,.44,.53,.66,1.17,.66,1.91s-.19,1.32-.58,1.8-.93,.86-1.63,1.13c-.7,.27-1.53,.44-2.49,.5v.13c1.17,.04,2.17,.2,2.98,.47s1.44,.66,1.88,1.15c.43,.5,.65,1.12,.65,1.85,0,.59-.13,1.13-.4,1.64-.27,.51-.66,.95-1.19,1.32-.53,.37-1.19,.66-1.98,.87-.79,.21-1.72,.31-2.77,.31h-3.04Z"/><path class="d" d="M220.15,143.76v-1.17l2.33-.15h.5l2.65,.15v1.17h-5.49Zm1.44,0l5.4-14.85h1.92l5.44,14.85h-2.45l-4.62-12.98-.53,2.18-3.82,10.8h-1.35Zm2.58-4.69v-1.17h6.84v1.17h-6.84Zm4.94,4.69v-1.17l3.04-.15h.64l3,.15v1.17h-6.68Z"/><path class="d" d="M236.82,130.17v-1.14h3.36v1.32h-.3l-3.06-.18Zm0,13.6v-1.17l3.06-.15h.75l3.22,.15v1.17h-7.04Zm2.24,0c.02-.76,.02-1.52,.02-2.28v-10.2c0-.76,0-1.52-.02-2.27h2.38c0,.75,0,1.5-.01,2.25,0,.76-.01,1.51-.01,2.28v5.6c0,.79,0,1.56,.01,2.32s.01,1.53,.01,2.29h-2.38Zm8.64-10.8l-.75-3.45,.94,.77h-7.71v-1.25h8.74l.18,3.94h-1.4Zm-7.43,3.92v-1.19h5.56v1.19h-5.56Zm5.03,2.11l-.43-2.35v-.66l.43-2.29h1.21v5.3h-1.21Z"/></g></g></svg>