<?xml version="1.0" encoding="UTF-8"?><svg xmlns="http://www.w3.org/2000/svg" viewBox="0 0 692.85 148.92"><defs><style>.c{fill:#7d878d;}.d{fill:#efcbaf;}</style></defs><g id="a"/><g id="b"><circle class="c" cx="55" cy="55.16" r="50"/><g><path class="c" d="M13.34,139.19h-2.26v-.59h2.36l.69-4.51h-2.26v-.57h2.36l.64-4.09h.5l-.64,4.09h4.09l.64-4.09h.5l-.64,4.09h2.4v.57h-2.49l-.69,4.51h2.4v.59h-2.49l-.71,4.58h-.5l.71-4.58h-4.09l-.71,4.58h-.5l.71-4.58Zm4.69-.59l.69-4.51h-4.09l-.69,4.51h4.09Z"/><path class="c" d="M25.43,143.67l5.9-13.69h-8.07v-.62h8.65v.44l-5.72,13.95h-.66l-.09-.09Z"/><path class="c" d="M34.74,128.89h5.88c4.8,0,7.55,2.66,7.55,7.44,0,4.47-2.7,7.44-7.75,7.44h-5.67v-.44l2.45-.13c.05-2.07,.05-4.22,.05-6.91v-.33c0-2.33,0-4.42-.05-6.49l-2.45-.13v-.44Zm3.23,14.39h2.15c4.96,0,7.32-2.73,7.32-6.95,0-4.53-2.4-6.95-6.98-6.95h-2.49c-.05,2.09-.05,4.2-.05,6.58v.33c0,2.73,0,4.91,.05,7Z"/><path class="c" d="M50.82,140.62c0-1.8,1.3-3.04,3.77-4.16-2.36-1.01-3.25-2.35-3.25-3.94,0-2.05,1.74-3.43,3.87-3.43,2.29,0,3.77,1.36,3.77,3.39,0,1.43-.87,2.82-3.29,3.81,2.95,1.25,3.96,2.55,3.96,4.27,0,2.13-1.81,3.5-4.48,3.5-2.86,0-4.35-1.43-4.35-3.43Zm4.35,2.99c2.4,0,3.84-1.19,3.84-2.99,0-1.52-1.08-2.79-4-3.98-2.49,1.19-3.54,2.31-3.54,3.94,0,1.83,1.33,3.04,3.71,3.04Zm.14-7.48c2.08-.97,3.04-2.02,3.04-3.65s-1.07-2.95-3.13-2.95c-1.69,0-3.23,1.14-3.23,2.97,0,1.47,.89,2.66,3.32,3.63Z"/><path class="c" d="M64.06,143.67l5.9-13.69h-8.07v-.62h8.65v.44l-5.72,13.95h-.66l-.09-.09Z"/><path class="c" d="M73.23,140.62c0-1.8,1.3-3.04,3.77-4.16-2.36-1.01-3.25-2.35-3.25-3.94,0-2.05,1.74-3.43,3.87-3.43,2.29,0,3.77,1.36,3.77,3.39,0,1.43-.87,2.82-3.29,3.81,2.95,1.25,3.96,2.55,3.96,4.27,0,2.13-1.81,3.5-4.48,3.5-2.86,0-4.35-1.43-4.35-3.43Zm4.35,2.99c2.4,0,3.84-1.19,3.84-2.99,0-1.52-1.08-2.79-4-3.98-2.49,1.19-3.54,2.31-3.54,3.94,0,1.83,1.33,3.04,3.71,3.04Zm.14-7.48c2.08-.97,3.04-2.02,3.04-3.65s-1.07-2.95-3.13-2.95c-1.69,0-3.23,1.14-3.23,2.97,0,1.47,.89,2.66,3.32,3.63Z"/><path class="c" d="M84.57,128.89h5.88c4.8,0,7.55,2.66,7.55,7.44,0,4.47-2.7,7.44-7.75,7.44h-5.67v-.44l2.45-.13c.05-2.07,.05-4.22,.05-6.91v-.33c0-2.33,0-4.42-.05-6.49l-2.45-.13v-.44Zm3.23,14.39h2.15c4.96,0,7.32-2.73,7.32-6.95,0-4.53-2.4-6.95-6.98-6.95h-2.49c-.05,2.09-.05,4.2-.05,6.58v.33c0,2.73,0,4.91,.05,7Z"/></g><circle class="d" cx="200" cy="55.16" r="50"/><g><path class="d" d="M155.74,139.19h-2.26v-.59h2.36l.69-4.51h-2.26v-.57h2.36l.64-4.09h.5l-.64,4.09h4.09l.64-4.09h.5l-.64,4.09h2.4v.57h-2.49l-.69,4.51h2.4v.59h-2.49l-.71,4.58h-.5l.71-4.58h-4.09l-.71,4.58h-.5l.71-4.58Zm4.69-.59l.69-4.51h-4.09l-.69,4.51h4.09Z"/><path class="d" d="M165.94,128.89h10.84l.23,3.37h-.55l-.37-2.88h-6.93c-.05,2.09-.05,4.22-.05,6.62h4.51l.23-2.13h.43v4.75h-.43l-.23-2.13h-4.51c0,2.79,0,4.82,.05,6.8h7.25l.37-2.88h.55l-.23,3.37h-11.16v-.44l2.45-.13c.05-2.07,.05-4.16,.05-6.25v-1.25c0-2.09,0-4.16-.05-6.23l-2.45-.13v-.44Z"/><path class="d" d="M179.68,128.89h10.89l.23,3.37h-.55l-.39-2.88h-6.95c-.05,2.09-.05,4.22-.05,6.62h4.51l.23-2.13h.43v4.75h-.43l-.23-2.13h-4.51c0,2.75,0,4.75,.05,6.71l2.68,.13v.44h-5.9v-.44l2.45-.13c.05-2.07,.05-4.16,.05-6.25v-1.25c0-2.09,0-4.16-.05-6.23l-2.45-.13v-.44Z"/><path class="d" d="M192.95,136.32c0-4.62,3.09-7.72,7.43-7.72,1.83,0,2.95,.4,4.32,1.17l.09,3.06h-.55l-.37-2.82c-1.07-.64-1.94-.92-3.43-.92-4.12,0-6.77,2.86-6.77,7.24s2.81,7.24,6.63,7.24c1.4,0,2.54-.24,3.68-.9l.39-2.84h.55l-.09,3.06c-1.53,.9-2.84,1.17-4.48,1.17-4.46,0-7.41-3.12-7.41-7.72Z"/><path class="d" d="M207.54,128.89h5.47c3.34,0,4.85,1.39,4.85,3.48,0,1.63-1.14,3.1-3.64,3.59,3.11,.26,4.44,1.85,4.44,3.87,0,2.24-1.72,3.94-5.28,3.94h-5.83v-.44l2.45-.13c.05-2.07,.05-4.16,.05-6.25v-1.25c0-2.09,0-4.16-.05-6.23l-2.45-.13v-.44Zm3.23,.48c-.05,2.09-.05,4.2-.05,6.4h1.67c3.11,0,4.83-1.39,4.83-3.48,0-1.67-1.14-2.93-4.46-2.93h-1.99Zm-.05,6.84c0,2.99,0,5.08,.05,7.06h2.63c2.86,0,4.57-1.25,4.57-3.5s-1.58-3.56-5.28-3.56h-1.97Z"/><path class="d" d="M219.38,143.32l1.85-.13,4.9-14.48h.46l5.03,14.5,2.38,.11v.44h-5.67v-.44l2.58-.13-1.67-4.86h-5.74l-1.6,4.88,2.01,.11v.44h-4.53v-.44Zm9.7-5.43l-2.77-8.14-2.68,8.14h5.44Z"/><path class="d" d="M235.14,128.89h10.89l.23,3.37h-.55l-.39-2.88h-6.95c-.05,2.09-.05,4.22-.05,6.62h4.51l.23-2.13h.43v4.75h-.43l-.23-2.13h-4.51c0,2.75,0,4.75,.05,6.71l2.68,.13v.44h-5.9v-.44l2.45-.13c.05-2.07,.05-4.16,.05-6.25v-1.25c0-2.09,0-4.16-.05-6.23l-2.45-.13v-.44Z"/></g></g></svg>