<?xml version="1.0" encoding="UTF-8"?><svg xmlns="http://www.w3.org/2000/svg" viewBox="0 0 406.89 337.43"><defs><style>.d{fill:none;stroke:#efcbaf;stroke-miterlimit:10;stroke-width:8px;}.e{fill:#efcbaf;}</style></defs><g id="a"/><g id="b"><g id="c"><g><g><path class="e" d="M3.83,235.9h31.28l.66,10.1h-1.58l-1.06-8.65H13.13c-.13,6.27-.13,12.67-.13,19.86h13l.66-6.4h1.25v14.25h-1.25l-.66-6.4H13c0,8.38,0,14.45,.13,20.39h20.92l1.06-8.64h1.58l-.66,10.1H3.83v-1.32l7.06-.4c.13-6.2,.13-12.47,.13-18.74v-3.76c0-6.27,0-12.47-.13-18.68l-7.06-.4v-1.32Z"/><path class="e" d="M42.5,279.19l5.94-.33c.07-3.43,.13-8.78,.13-12.21v-3.23c0-4.62-.07-8.97-.2-12.34h-6.14v-1.32l7.39-.79,.66,.4,.13,6.67c4.62-5.28,8.38-7.39,12.28-7.39s6.47,1.91,7.39,6.93c4.16-4.82,8.25-6.93,12.21-6.93,5.08,0,8.12,2.97,8.12,11.15v6.86c0,3.56,.07,8.84,.13,12.21l5.35,.33v1.32h-13.4v-1.32l5.94-.33c.07-3.37,.13-8.65,.13-12.21v-6.93c0-6.73-2.71-9.24-6.4-9.24-3.04,0-7.13,1.25-11.88,6.6,.07,.86,.13,1.72,.13,2.71v6.86c0,3.56,.07,8.84,.13,12.21l5.34,.33v1.32h-13.4v-1.32l5.94-.33c.07-3.37,.13-8.65,.13-12.21v-6.93c0-6.67-2.77-9.24-6-9.24-2.97,0-6.93,1.25-12.14,7.26v8.91c0,3.43,.07,8.84,.13,12.21l5.35,.33v1.32h-13.4v-1.32Z"/><path class="e" d="M101.18,279.19l5.94-.33c.07-3.43,.13-8.78,.13-12.21v-3.23c0-4.62-.07-8.97-.2-12.34h-6.14v-1.32l7.39-.79,.66,.4,.13,6.67c4.62-5.28,8.38-7.39,12.28-7.39s6.47,1.91,7.39,6.93c4.16-4.82,8.25-6.93,12.21-6.93,5.08,0,8.12,2.97,8.12,11.15v6.86c0,3.56,.07,8.84,.13,12.21l5.35,.33v1.32h-13.4v-1.32l5.94-.33c.07-3.37,.13-8.65,.13-12.21v-6.93c0-6.73-2.71-9.24-6.4-9.24-3.04,0-7.13,1.25-11.88,6.6,.07,.86,.13,1.72,.13,2.71v6.86c0,3.56,.07,8.84,.13,12.21l5.34,.33v1.32h-13.4v-1.32l5.94-.33c.07-3.37,.13-8.65,.13-12.21v-6.93c0-6.67-2.77-9.24-6-9.24-2.97,0-6.93,1.25-12.14,7.26v8.91c0,3.43,.07,8.84,.13,12.21l5.35,.33v1.32h-13.4v-1.32Z"/><path class="e" d="M180.57,274.64c-4.09,4.49-7.13,6.73-11.68,6.73s-8.12-2.77-8.12-7.72,3.37-7.79,9.83-9.9c3.37-1.06,6.8-1.78,9.9-2.51v-2.11c0-7.39-2.64-9.24-7.92-9.24-2.57,0-4.82,.73-7,2.11l-.92,3.96c-.26,1.06-.79,1.32-1.58,1.32s-1.32-.53-1.58-1.32c1.58-4.75,5.54-7.39,11.09-7.39,6.34,0,9.77,2.9,9.77,9.5v15.05c0,5.28,1.06,6.6,3.17,6.6,1.06,0,1.85-.26,2.9-1.06l.79,.79c-1.06,1.06-2.64,1.85-4.22,1.85-2.97,0-4.09-2.38-4.42-6.67Zm-11.15,5.01c3.56,0,6.6-1.85,11.09-6.6v-10.62c-3.17,.79-6.73,1.72-9.83,2.84-5.35,1.98-7.92,4.55-7.92,7.99,0,4.03,2.57,6.4,6.67,6.4Z"/><path class="e" d="M207.37,235.9h35.24l.66,10.76h-1.58l-1.06-9.3h-14.52c-.13,6.27-.13,12.54-.13,18.94v3.76c0,6.27,0,12.54,.13,18.74l7.72,.4v1.32h-17.69v-1.32l7.72-.4c.13-6.2,.13-12.47,.13-18.74v-3.76c0-6.4,0-12.67-.13-18.94h-14.52l-1.06,9.3h-1.58l.66-10.76Z"/><path class="e" d="M249.54,268.96l.13-17.62-5.81-.4v-1.32l7.19-.4,.59,.79-.26,7v11.75c0,7.99,2.71,10.76,7.46,10.76,4.42,0,8.51-2.57,11.88-7.06v-21.12l-5.68-.33v-1.39l7.19-.4,.59,.79-.26,7v21.84l5.21,.33v1.32l-7.26,.4,.2-6.67c-3.1,3.96-7,7.13-12.21,7.13-6.14,0-9.04-3.04-8.98-12.41Z"/><path class="e" d="M284,279.19l5.94-.33c.07-3.43,.13-8.78,.13-12.21v-3.23c0-4.62-.07-8.97-.2-12.34h-6.14v-1.32l7.39-.79,.66,.4,.13,8.51c1.91-5.35,6.4-9.24,11.09-9.24,2.24,0,3.96,.86,4.36,1.78,0,1.32-.66,1.85-1.98,1.85-1.19,0-1.98-.66-3.3-1.78l-.59-.53c-3.96,.99-7.06,4.29-9.57,10.1v6.6c0,3.43,.07,8.84,.13,12.21l6.2,.33v1.32h-14.25v-1.32Z"/><path class="e" d="M310.73,279.19l5.94-.33c.07-3.43,.13-8.78,.13-12.21v-3.23c0-4.62-.07-8.97-.2-12.34h-6.14v-1.32l7.39-.79,.66,.4,.13,6.73c4.82-5.54,9.24-7.46,13.2-7.46,4.88,0,7.99,2.9,7.99,11.15v6.86c0,3.56,.07,8.84,.13,12.21l5.35,.33v1.32h-13.4v-1.32l5.94-.33c.07-3.37,.13-8.65,.13-12.21v-6.93c0-6.73-2.71-9.24-6.6-9.24-2.77,0-7.39,1.25-12.74,7.26v8.91c0,3.43,.07,8.84,.13,12.21l5.35,.33v1.32h-13.4v-1.32Z"/><path class="e" d="M351.18,265.13c0-10.03,6.34-16.5,13.99-16.5s11.94,5.67,11.94,12.14c0,1.58-.13,2.77-.4,3.76h-23.43c.07,10.62,5.54,15.11,12.74,15.11,4.29,0,7.85-1.58,10.56-4.42l.73,.73c-2.71,3.37-6.93,5.41-11.42,5.41-8.32,0-14.72-4.88-14.72-16.24Zm2.18-1.98h20.46c.92,0,1.32-.66,1.32-2.57,0-5.48-3.5-10.62-9.96-10.62s-11.35,6.14-11.81,13.2Z"/><path class="e" d="M382.99,279.19l5.94-.33c.07-3.43,.13-8.78,.13-12.21v-3.23c0-4.62-.07-8.97-.2-12.34h-6.14v-1.32l7.39-.79,.66,.4,.13,8.51c1.91-5.35,6.4-9.24,11.09-9.24,2.24,0,3.96,.86,4.36,1.78,0,1.32-.66,1.85-1.98,1.85-1.19,0-1.98-.66-3.3-1.78l-.59-.53c-3.96,.99-7.06,4.29-9.57,10.1v6.6c0,3.43,.07,8.84,.13,12.21l6.2,.33v1.32h-14.25v-1.32Z"/></g><g><path class="e" d="M96.01,330.07v-23.43h2.31v23.43h-2.31Z"/><path class="e" d="M118.19,330.07h-2.24v-9.6c0-2.05-.3-3.53-.91-4.46-.61-.92-1.53-1.39-2.79-1.39-.66,0-1.32,.12-1.98,.36s-1.27,.58-1.83,1.02c-.56,.44-1.06,.96-1.5,1.57s-.76,1.26-.96,1.96v10.53h-2.24v-17.19h2.05v3.89c.7-1.25,1.71-2.27,3.02-3.04,1.31-.77,2.73-1.16,4.27-1.16,.95,0,1.75,.18,2.41,.53,.66,.35,1.19,.85,1.58,1.49,.4,.64,.68,1.42,.86,2.34,.18,.92,.26,1.95,.26,3.07v10.07Z"/><path class="e" d="M131.06,329.25c-.13,.07-.32,.15-.58,.26s-.54,.22-.87,.33c-.33,.11-.71,.21-1.12,.3-.42,.09-.86,.13-1.32,.13s-.95-.07-1.39-.2c-.44-.13-.83-.33-1.16-.61s-.59-.62-.79-1.04c-.2-.42-.3-.9-.3-1.45v-12.31h-2.38v-1.78h2.38v-5.81h2.24v5.81h3.96v1.78h-3.96v11.68c.04,.64,.27,1.11,.68,1.4s.88,.45,1.4,.45c.64,0,1.2-.1,1.68-.31,.48-.21,.79-.36,.92-.45l.59,1.81Z"/><path class="e" d="M140.86,330.4c-1.25,0-2.4-.24-3.45-.71-1.04-.47-1.95-1.12-2.72-1.95-.77-.83-1.37-1.78-1.8-2.85s-.64-2.23-.64-3.47,.21-2.35,.64-3.42c.43-1.07,1.02-2,1.78-2.8,.76-.8,1.67-1.44,2.72-1.91,1.06-.47,2.2-.71,3.43-.71s2.4,.24,3.45,.71,1.94,1.12,2.69,1.93c.75,.81,1.33,1.75,1.75,2.8s.63,2.18,.63,3.37v.53c0,.18-.01,.3-.03,.36h-14.72c.07,.92,.28,1.78,.64,2.56,.36,.78,.83,1.46,1.4,2.03,.57,.57,1.23,1.02,1.96,1.34,.74,.32,1.52,.48,2.36,.48,.55,0,1.1-.08,1.65-.23,.55-.15,1.06-.36,1.52-.63s.88-.59,1.25-.97c.37-.38,.66-.81,.86-1.27l1.95,.53c-.26,.64-.64,1.22-1.12,1.73-.48,.52-1.04,.97-1.68,1.35-.64,.38-1.34,.68-2.11,.89-.77,.21-1.57,.31-2.41,.31Zm6.34-9.83c-.07-.92-.28-1.77-.64-2.52-.36-.76-.83-1.41-1.39-1.96-.56-.55-1.21-.98-1.95-1.29-.74-.31-1.52-.46-2.36-.46s-1.63,.15-2.38,.46c-.75,.31-1.4,.74-1.96,1.29-.56,.55-1.01,1.21-1.35,1.98s-.54,1.61-.61,2.51h12.64Z"/><path class="e" d="M161.39,314.86c-1.52,.04-2.84,.46-3.96,1.25s-1.91,1.88-2.38,3.27v10.69h-2.24v-17.19h2.11v4.12c.64-1.32,1.5-2.35,2.57-3.1,1.08-.75,2.23-1.12,3.46-1.12,.18,0,.32,.01,.43,.03v2.05Z"/><path class="e" d="M164.39,309.28v-3.3h2.24v3.3h-2.24Zm0,20.79v-17.19h2.24v17.19h-2.24Z"/><path class="e" d="M178.91,330.4c-1.25,0-2.4-.24-3.43-.71-1.03-.47-1.93-1.12-2.69-1.93-.76-.81-1.35-1.76-1.77-2.84-.42-1.08-.63-2.21-.63-3.4s.21-2.35,.64-3.43,1.02-2.02,1.78-2.84c.76-.81,1.65-1.46,2.69-1.95,1.03-.48,2.17-.73,3.4-.73s2.37,.24,3.42,.73c1.04,.48,1.95,1.13,2.71,1.95,.76,.81,1.35,1.76,1.78,2.84,.43,1.08,.64,2.22,.64,3.43s-.21,2.32-.63,3.4c-.42,1.08-1.01,2.02-1.77,2.84-.76,.81-1.66,1.46-2.71,1.93-1.04,.47-2.19,.71-3.45,.71Zm-6.24-8.84c0,.97,.16,1.86,.49,2.69s.78,1.55,1.34,2.18,1.22,1.12,1.98,1.47c.76,.35,1.57,.53,2.42,.53s1.67-.18,2.43-.54,1.42-.86,2-1.49,1.02-1.36,1.35-2.19,.5-1.74,.5-2.71-.17-1.84-.5-2.69c-.33-.85-.78-1.58-1.35-2.21s-1.24-1.12-2-1.49c-.76-.36-1.57-.54-2.43-.54s-1.66,.18-2.41,.54c-.75,.36-1.41,.86-1.98,1.5-.57,.64-1.02,1.38-1.35,2.23s-.49,1.75-.49,2.72Z"/><path class="e" d="M199.8,314.86c-1.52,.04-2.84,.46-3.96,1.25s-1.91,1.88-2.38,3.27v10.69h-2.24v-17.19h2.11v4.12c.64-1.32,1.5-2.35,2.57-3.1,1.08-.75,2.23-1.12,3.46-1.12,.18,0,.32,.01,.43,.03v2.05Z"/><path class="e" d="M210.88,330.07v-23.43h7.95c1.87,0,3.5,.31,4.9,.92,1.4,.62,2.56,1.45,3.5,2.51,.94,1.06,1.64,2.29,2.11,3.71,.47,1.42,.71,2.93,.71,4.54,0,1.78-.26,3.39-.79,4.83-.53,1.44-1.28,2.67-2.26,3.7-.98,1.02-2.16,1.82-3.53,2.38-1.38,.56-2.92,.84-4.64,.84h-7.95Zm16.86-11.75c0-1.41-.2-2.7-.59-3.88-.4-1.18-.97-2.19-1.73-3.05-.76-.86-1.69-1.52-2.79-2-1.1-.47-2.36-.71-3.79-.71h-5.64v19.34h5.64c1.45,0,2.73-.25,3.84-.74,1.11-.5,2.04-1.18,2.79-2.05,.75-.87,1.31-1.89,1.7-3.07,.38-1.18,.58-2.46,.58-3.84Z"/><path class="e" d="M241.44,330.4c-1.25,0-2.4-.24-3.45-.71-1.04-.47-1.95-1.12-2.72-1.95-.77-.83-1.37-1.78-1.8-2.85s-.64-2.23-.64-3.47,.21-2.35,.64-3.42c.43-1.07,1.02-2,1.78-2.8,.76-.8,1.67-1.44,2.72-1.91,1.06-.47,2.2-.71,3.43-.71s2.4,.24,3.45,.71,1.94,1.12,2.69,1.93c.75,.81,1.33,1.75,1.75,2.8s.63,2.18,.63,3.37v.53c0,.18-.01,.3-.03,.36h-14.72c.07,.92,.28,1.78,.64,2.56,.36,.78,.83,1.46,1.4,2.03,.57,.57,1.23,1.02,1.96,1.34,.74,.32,1.52,.48,2.36,.48,.55,0,1.1-.08,1.65-.23,.55-.15,1.06-.36,1.52-.63s.88-.59,1.25-.97c.37-.38,.66-.81,.86-1.27l1.95,.53c-.26,.64-.64,1.22-1.12,1.73-.48,.52-1.04,.97-1.68,1.35-.64,.38-1.34,.68-2.11,.89-.77,.21-1.57,.31-2.41,.31Zm6.34-9.83c-.07-.92-.28-1.77-.64-2.52-.36-.76-.83-1.41-1.39-1.96-.56-.55-1.21-.98-1.95-1.29-.74-.31-1.52-.46-2.36-.46s-1.63,.15-2.38,.46c-.75,.31-1.4,.74-1.96,1.29-.56,.55-1.01,1.21-1.35,1.98s-.54,1.61-.61,2.51h12.64Z"/><path class="e" d="M259.1,330.4c-1.34,0-2.65-.22-3.93-.66-1.28-.44-2.38-1.08-3.3-1.91l1.02-1.52c.97,.79,1.95,1.39,2.95,1.78,1,.4,2.07,.59,3.22,.59,1.39,0,2.49-.28,3.32-.84,.83-.56,1.24-1.36,1.24-2.39,0-.48-.11-.88-.33-1.2s-.54-.6-.97-.84-.97-.46-1.62-.64c-.65-.19-1.4-.38-2.26-.58-.99-.24-1.85-.48-2.57-.73-.73-.24-1.33-.52-1.8-.83-.47-.31-.83-.69-1.06-1.14-.23-.45-.35-1.02-.35-1.7,0-.86,.17-1.62,.51-2.28,.34-.66,.8-1.21,1.39-1.63s1.26-.75,2.05-.97c.78-.22,1.61-.33,2.49-.33,1.32,0,2.52,.21,3.6,.64,1.08,.43,1.95,1,2.61,1.7l-1.09,1.32c-.64-.66-1.41-1.16-2.33-1.48-.91-.33-1.86-.5-2.85-.5-.59,0-1.14,.06-1.65,.18-.51,.12-.95,.31-1.34,.58-.39,.26-.69,.6-.91,1.01s-.33,.89-.33,1.43c0,.46,.08,.84,.23,1.12,.15,.29,.41,.53,.76,.74s.8,.4,1.34,.56,1.19,.34,1.96,.51c1.1,.26,2.07,.53,2.9,.79s1.53,.57,2.1,.92c.56,.35,.98,.78,1.27,1.29,.29,.51,.43,1.12,.43,1.85,0,1.58-.61,2.84-1.81,3.76-1.21,.92-2.84,1.39-4.88,1.39Z"/><path class="e" d="M269.46,309.28v-3.3h2.24v3.3h-2.24Zm0,20.79v-17.19h2.24v17.19h-2.24Z"/><path class="e" d="M283.55,330.3c-1.19,0-2.27-.25-3.25-.74-.98-.5-1.83-1.15-2.54-1.96-.71-.81-1.27-1.75-1.67-2.81-.4-1.06-.59-2.14-.59-3.27,0-1.19,.19-2.33,.58-3.42,.38-1.09,.93-2.04,1.63-2.85,.7-.81,1.54-1.46,2.52-1.95,.98-.48,2.06-.73,3.25-.73,1.47,0,2.75,.37,3.83,1.11,1.08,.74,2,1.67,2.77,2.79v-3.6h2.01v17.26c0,1.19-.23,2.24-.68,3.15-.45,.91-1.06,1.68-1.81,2.29s-1.65,1.08-2.67,1.39c-1.02,.31-2.11,.46-3.25,.46-1.98,0-3.58-.35-4.79-1.06s-2.19-1.65-2.94-2.84l1.39-1.09c.68,1.1,1.58,1.91,2.71,2.43,1.12,.52,2.33,.78,3.63,.78,.84,0,1.63-.12,2.38-.35s1.4-.57,1.96-1.02c.56-.45,1.01-1.02,1.34-1.72,.33-.69,.5-1.5,.5-2.42v-3.4c-.66,1.1-1.56,1.97-2.71,2.61-1.14,.64-2.34,.96-3.6,.96Zm.63-1.88c.66,0,1.31-.12,1.95-.36,.64-.24,1.21-.57,1.73-.97,.52-.41,.95-.86,1.3-1.37,.35-.51,.58-1.02,.69-1.55v-5.31c-.24-.62-.57-1.19-.99-1.72-.42-.53-.89-.98-1.42-1.35-.53-.37-1.09-.67-1.7-.89-.61-.22-1.22-.33-1.83-.33-.97,0-1.83,.2-2.59,.61s-1.4,.94-1.93,1.6-.93,1.41-1.2,2.24c-.28,.84-.41,1.68-.41,2.54,0,.92,.17,1.8,.5,2.64s.79,1.57,1.37,2.19c.58,.63,1.26,1.12,2.03,1.49,.77,.36,1.61,.54,2.51,.54Z"/><path class="e" d="M311.5,330.07h-2.24v-9.6c0-2.05-.3-3.53-.91-4.46-.61-.92-1.53-1.39-2.79-1.39-.66,0-1.32,.12-1.98,.36s-1.27,.58-1.83,1.02c-.56,.44-1.06,.96-1.5,1.57s-.76,1.26-.96,1.96v10.53h-2.24v-17.19h2.05v3.89c.7-1.25,1.71-2.27,3.02-3.04,1.31-.77,2.73-1.16,4.27-1.16,.95,0,1.75,.18,2.41,.53,.66,.35,1.19,.85,1.58,1.49,.4,.64,.68,1.42,.86,2.34,.18,.92,.26,1.95,.26,3.07v10.07Z"/></g><g><rect class="e" x="153.1" y="-3.29" width="7.89" height="222.34" transform="translate(54.6 -52.76) rotate(22.99)"/><rect class="e" x="245.85" y="-5.14" width="7.89" height="222.34" transform="translate(521.15 106.08) rotate(157.01)"/><rect class="e" x="250.61" y="-9.88" width="7.89" height="193.69" transform="translate(87.19 -123.63) rotate(32.66)"/><rect class="e" x="148.14" y="-9.03" width="7.89" height="192.78" transform="translate(327.27 78.81) rotate(147.34)"/><rect class="e" x="199.14" y="75.36" width="7.89" height="117.17" transform="translate(337.03 -69.14) rotate(90)"/><rect class="d" x="99.35" y="4" width="209.19" height="205.61"/><rect class="e" x="200.82" y="164.66" width="4.8" height="5.97"/></g></g></g></g></svg>